<?xml version="1.0" standalone="no"?>
<!DOCTYPE svg PUBLIC "-//W3C//DTD SVG 1.1//EN" "http://www.w3.org/Graphics/SVG/1.1/DTD/svg11.dtd" >
<svg>
<metadata>
Created by FontForge 20110222 at Mon Jul 14 11:07:28 2014
 By deploy user
Copyright (c) 2013 by FONTYOU. All rights reserved. www.fontyou.com
</metadata>
<defs>
<font id="MarianinaCnFY-Light" horiz-adv-x="329" >
  <font-face 
    font-family="MarianinaCnFY-Light"
    font-weight="400"
    font-stretch="normal"
    units-per-em="1000"
    panose-1="2 0 3 6 0 0 0 2 0 4"
    ascent="772"
    descent="-228"
    x-height="504"
    cap-height="665"
    bbox="-110 -210 950 873"
    underline-thickness="50"
    underline-position="-50"
    unicode-range="U+000D-FB04"
  />
<missing-glyph horiz-adv-x="602" 
d="M305 435q16 29 41.5 47t56.5 18q43 0 71 -29.5t28 -75.5q0 -30 -13.5 -65t-39 -70t-63 -67.5t-85.5 -57.5q-48 25 -85.5 57.5t-63 67.5t-39 70t-13.5 65q0 46 28 75.5t71 29.5q31 0 56.5 -18t41.5 -47h8z" />
    <glyph glyph-name="f_f" unicode="ff" horiz-adv-x="426" 
d="M100 470v-470h-41v550q0 78 24.5 119t81.5 41q31 0 52 -12t34 -32l-28 -24q-10 14 -22 24t-33 10t-34.5 -10.5t-21 -27t-10 -37t-2.5 -40.5v-57h108v-34h-108zM311 470v-470h-40v550q0 78 24.5 119t81.5 41q30 0 51 -12t34 -32l-27 -24q-10 14 -22.5 24t-32.5 10
q-21 0 -34.5 -10.5t-21 -27t-10.5 -37t-3 -40.5v-57h108v-34h-108z" />
    <glyph glyph-name="fi" unicode="fi" horiz-adv-x="369" 
d="M100 470v-470h-41v550q0 78 24.5 119t81.5 41q31 0 52 -12t34 -32l-28 -24q-10 14 -22 24t-33 10t-34.5 -10.5t-21 -27t-10 -37t-2.5 -40.5v-57h108v-34h-108zM271 504h35l5 -55v-449h-40v504zM291 642q13 0 21 -7.5t8 -21.5t-8 -22t-21 -8t-21 8t-8 22t8 21.5t21 7.5z
" />
    <glyph glyph-name="fl" unicode="fl" horiz-adv-x="369" 
d="M100 470v-470h-41v550q0 78 24.5 119t81.5 41q31 0 52 -12t34 -32l-28 -24q-10 14 -22 24t-33 10t-34.5 -10.5t-21 -27t-10 -37t-2.5 -40.5v-57h108v-34h-108zM311 655v-655h-37l-3 55v655h36z" />
    <glyph glyph-name="f_f_i" unicode="ffi" horiz-adv-x="581" 
d="M100 470v-470h-41v550q0 78 24.5 119t81.5 41q31 0 52 -12t34 -32l-28 -24q-10 14 -22 24t-33 10t-34.5 -10.5t-21 -27t-10 -37t-2.5 -40.5v-57h108v-34h-108zM311 470v-470h-40v550q0 78 24.5 119t81.5 41q30 0 51 -12t34 -32l-27 -24q-10 14 -22.5 24t-32.5 10
q-21 0 -34.5 -10.5t-21 -27t-10.5 -37t-3 -40.5v-57h108v-34h-108zM483 504h35l5 -55v-449h-40v504zM503 642q13 0 21 -7.5t8 -21.5t-8 -22t-21 -8q-29 0 -29 30q0 29 29 29z" />
    <glyph glyph-name="f_f_l" unicode="ffl" horiz-adv-x="581" 
d="M100 470v-470h-41v550q0 78 24.5 119t81.5 41q31 0 52 -12t34 -32l-28 -24q-10 14 -22 24t-33 10t-34.5 -10.5t-21 -27t-10 -37t-2.5 -40.5v-57h108v-34h-108zM311 470v-470h-40v550q0 78 24.5 119t81.5 41q30 0 51 -12t34 -32l-27 -24q-10 14 -22.5 24t-32.5 10
q-21 0 -34.5 -10.5t-21 -27t-10.5 -37t-3 -40.5v-57h108v-34h-108zM523 655v-655h-37l-3 55v655h35z" />
    <glyph glyph-name=".notdef" horiz-adv-x="602" 
d="M305 435q16 29 41.5 47t56.5 18q43 0 71 -29.5t28 -75.5q0 -30 -13.5 -65t-39 -70t-63 -67.5t-85.5 -57.5q-48 25 -85.5 57.5t-63 67.5t-39 70t-13.5 65q0 46 28 75.5t71 29.5q31 0 56.5 -18t41.5 -47h8z" />
    <glyph glyph-name=".null" horiz-adv-x="0" 
 />
    <glyph glyph-name=".null" horiz-adv-x="0" 
 />
    <glyph glyph-name="nonmarkingreturn" unicode="&#xd;" horiz-adv-x="0" 
 />
    <glyph glyph-name="space" unicode=" " horiz-adv-x="150" 
 />
    <glyph glyph-name="exclam" unicode="!" horiz-adv-x="230" 
d="M135 665v-522h-34l-6 59v463h40zM84 26q0 14 8.5 22.5t22.5 8.5t22.5 -8.5t8.5 -22.5t-8.5 -22.5t-22.5 -8.5t-22.5 8.5t-8.5 22.5z" />
    <glyph glyph-name="quotedbl" unicode="&#x22;" horiz-adv-x="243" 
d="M90 498h-28l-7 179h42zM182 498h-28l-7 179h42z" />
    <glyph glyph-name="numbersign" unicode="#" horiz-adv-x="443" 
d="M94 484h72l48 181h34l-47 -181h118l48 181h34l-47 -181h64v-33h-73l-59 -227h64v-33h-72l-50 -191h-34l49 191h-119l-50 -191h-34l50 191h-65v33h73l60 227h-64v33zM133 224h118l60 227h-119z" />
    <glyph glyph-name="dollar" unicode="$" horiz-adv-x="310" 
d="M45 535q0 22 5 44.5t16 41.5t28 32.5t41 17.5v59h40v-58q44 -5 67 -41t23 -104v-15h-40v15q0 20 -3 40t-11 36t-21.5 26t-33.5 10q-32 0 -51 -27.5t-19 -68.5q0 -29 2 -50.5t9 -40t21 -35.5t39 -38q23 -19 42.5 -39t34 -43t23 -51t8.5 -63v-29q0 -25 -3.5 -52t-13 -50
t-27.5 -39t-46 -20v-58h-40v58q-45 7 -67.5 44t-22.5 102v14h41v-15q0 -20 3 -40t11 -36t21.5 -26t34.5 -10q32 0 50.5 27.5t18.5 68.5q0 38 -2.5 68t-11.5 55.5t-26.5 48.5t-46.5 48q-21 18 -38 34t-29 34.5t-19 40t-7 49.5v35z" />
    <glyph glyph-name="percent" unicode="%" horiz-adv-x="580" 
d="M202 363q0 -46 -19.5 -72.5t-61.5 -26.5q-41 0 -60.5 26.5t-19.5 72.5v213q0 46 19.5 72.5t60.5 26.5q42 0 61.5 -26.5t19.5 -72.5v-213zM167 581q0 23 -10 42.5t-36 19.5q-25 0 -34.5 -19.5t-9.5 -42.5v-223q0 -23 9.5 -42.5t34.5 -19.5q26 0 36 19.5t10 42.5v223z
M169 0h-36l278 665h35zM538 93q0 -46 -19.5 -72.5t-61.5 -26.5q-41 0 -60.5 26.5t-19.5 72.5v213q0 46 19.5 72.5t60.5 26.5q42 0 61.5 -26.5t19.5 -72.5v-213zM503 311q0 23 -10 42.5t-36 19.5q-25 0 -34.5 -19.5t-9.5 -42.5v-223q0 -23 9.5 -42.5t34.5 -19.5q26 0 36 19.5
t10 42.5v223z" />
    <glyph glyph-name="ampersand" unicode="&#x26;" horiz-adv-x="378" 
d="M260 66q-8 -29 -28.5 -52.5t-62.5 -23.5q-54 0 -81 37.5t-27 109.5v39q0 35 8 61t22 46.5t33.5 38.5t43.5 36q42 34 62.5 65t20.5 77v27q0 20 -3.5 40t-12.5 36t-23.5 26t-35.5 10t-35 -10t-23 -26t-13 -36t-4 -40v-35q0 -43 15 -68t35 -38l-29 -28q-24 18 -42.5 50.5
t-18.5 90.5v24q0 72 29.5 112t86.5 40q58 0 86 -39.5t28 -105.5v-31q0 -28 -6.5 -50.5t-19 -42t-32 -38.5t-44.5 -39q-17 -14 -33 -28t-28 -32t-19.5 -41t-7.5 -56v-35q0 -19 4 -39t13 -36t23.5 -26t34.5 -10q40 0 57.5 33.5t17.5 81.5v80h40v-83q0 -38 6.5 -70t19.5 -55.5
t32.5 -37t45.5 -13.5v-38q-32 0 -55.5 12t-40 32t-25.5 45.5t-11 52.5h-3z" />
    <glyph glyph-name="quotesingle" unicode="'" horiz-adv-x="152" 
d="M90 498h-28l-7 179h42z" />
    <glyph glyph-name="parenleft" unicode="(" horiz-adv-x="240" 
d="M77 609q0 80 27.5 125t95.5 45h20v-38h-20q-83 0 -83 -132v-539q0 -132 83 -132h20v-38h-20q-68 0 -95.5 44t-27.5 124v541z" />
    <glyph glyph-name="parenright" unicode=")" horiz-adv-x="240" 
d="M163 68q0 -80 -27.5 -124t-95.5 -44h-20v38h20q83 0 83 132v537q0 134 -83 134h-20v38h20q34 0 57.5 -12t38 -34.5t21 -54t6.5 -71.5v-539z" />
    <glyph glyph-name="asterisk" unicode="*" horiz-adv-x="294" 
d="M36 561l89 44v3l-89 44l16 28l82 -58l2 3l-5 100h32l-9 -100l3 -2l84 57l16 -28l-91 -46v-3l91 -42l-16 -27l-84 56l-2 -3l8 -98h-32l7 99h-3l-83 -54z" />
    <glyph glyph-name="plus" unicode="+" horiz-adv-x="314" 
d="M38 321h100v100h38v-100h100v-38h-100v-100h-38v100h-100v38z" />
    <glyph glyph-name="comma" unicode="," horiz-adv-x="157" 
d="M66 -114h-25l27 159h43z" />
    <glyph glyph-name="hyphen" unicode="-" horiz-adv-x="211" 
d="M40 343h131v-40h-131v40z" />
    <glyph glyph-name="period" unicode="." horiz-adv-x="157" 
d="M48 26q0 14 8.5 22.5t22.5 8.5t22.5 -8.5t8.5 -22.5t-8.5 -22.5t-22.5 -8.5t-22.5 8.5t-8.5 22.5z" />
    <glyph glyph-name="slash" unicode="/" horiz-adv-x="256" 
d="M45 -89h-37l204 799h36z" />
    <glyph glyph-name="zero" unicode="0" 
d="M279 145q0 -75 -28.5 -115t-86.5 -40t-86.5 40t-28.5 115v375q0 75 28.5 115t86.5 40t86.5 -40t28.5 -115v-375zM239 527q0 20 -4 40t-12.5 36t-23 26t-35.5 10t-35 -10t-23 -26t-13 -36t-4 -40v-389q0 -20 4 -40t13 -35.5t23 -25.5t35 -10t35.5 9.5t23 25.5t12.5 36
t4 40v389z" />
    <glyph glyph-name="one" unicode="1" horiz-adv-x="254" 
d="M141 0v623l-99 -82l-25 29l116 95h48v-665h-40z" />
    <glyph glyph-name="two" unicode="2" horiz-adv-x="308" 
d="M37 515v12q0 148 118 148q61 0 86.5 -34t25.5 -101v-28q0 -52 -20.5 -105t-55.5 -126l-116 -245h192v-36h-229v45l110 234q20 41 35 74t24.5 61t14.5 51.5t5 46.5v26q0 52 -17 76.5t-55 24.5q-44 0 -61 -30.5t-17 -80.5v-13h-40z" />
    <glyph glyph-name="three" unicode="3" horiz-adv-x="316" 
d="M226 527q0 20 -4 40t-12.5 35.5t-23 25.5t-35.5 10t-35 -10t-23 -25.5t-13 -35.5t-4 -40v-19h-40v12q0 75 28.5 115t86.5 40t86.5 -39t28.5 -109v-37q0 -51 -18 -87t-49 -49v-3q31 -12 49 -49.5t18 -87.5v-73q0 -75 -30.5 -113t-84.5 -38q-57 0 -86 38.5t-29 112.5v17h40
v-20q0 -20 4 -39.5t13 -35.5t23 -26t35 -10t35.5 10t23 25.5t12.5 35.5t4 40v82q0 19 -4.5 39.5t-14 37t-24 27t-34.5 10.5h-34v36h34q20 0 34.5 10.5t24 27t14 36.5t4.5 40v43z" />
    <glyph glyph-name="four" unicode="4" horiz-adv-x="306" 
d="M216 155h-192v46l178 464h40l-181 -473h155v138h40v-330h-40v155z" />
    <glyph glyph-name="five" unicode="5" horiz-adv-x="325" 
d="M45 665h231v-37h-191v-244q12 23 34 43t57 20q48 0 74 -40t26 -116v-146q0 -75 -29 -115t-87 -40q-57 0 -86 39t-29 112v17h40v-20q0 -20 4 -40t13 -36t23 -26t35 -10t35.5 10t23.5 26t13 36t4 40v163q0 19 -4 38.5t-12 35.5t-21 25.5t-31 9.5q-17 0 -29.5 -7t-22 -18
t-16.5 -24t-11 -24h-44v328z" />
    <glyph glyph-name="six" unicode="6" 
d="M240 515v12q0 22 -4 42t-13 35.5t-23.5 25t-35.5 9.5t-35 -10t-23 -26t-13 -36t-4 -40v-183q10 27 32 45.5t54 18.5q53 0 79 -39.5t26 -114.5v-110q0 -75 -29 -114.5t-86 -39.5q-58 0 -87 40t-29 115v375q0 75 29 115t87 40q115 0 115 -148v-12h-40zM164 26
q21 0 35.5 9.5t23.5 25t13 35.5t4 42v122q0 20 -4 40t-13 36t-23.5 26t-35.5 10q-20 0 -34 -10t-23 -26t-13.5 -36t-4.5 -40v-122q0 -20 4 -40t13 -36t23 -26t35 -10z" />
    <glyph glyph-name="seven" unicode="7" horiz-adv-x="288" 
d="M49 0l179 628h-208v37h243v-46l-174 -619h-40z" />
    <glyph glyph-name="eight" unicode="8" 
d="M49 540q0 66 29 100.5t87 34.5t86.5 -34t28.5 -98v-56q0 -24 -7 -43.5t-19 -36t-28 -32t-35 -31.5q18 -16 34 -33.5t28 -37.5t19.5 -44.5t7.5 -53.5v-50q0 -63 -29.5 -99t-85.5 -36q-59 0 -87.5 34t-28.5 98v56q0 29 7 52.5t19 43.5t28 36.5t33 32.5q-18 16 -34 32
t-28 33.5t-18.5 38t-6.5 44.5v49zM89 122q0 -17 4 -34.5t13 -31t23.5 -22t35.5 -8.5t35.5 8.5t23 22t12.5 31t4 34.5v54q0 50 -22.5 83.5t-52.5 59.5q-15 -12 -29 -26t-24.5 -30.5t-16.5 -38t-6 -48.5v-54zM89 496q0 -39 19.5 -68t56.5 -59q36 30 55.5 57t19.5 70v47
q0 17 -4 34.5t-13 31t-23 22t-35 8.5t-35.5 -8t-23.5 -21.5t-13 -30.5t-4 -36v-47z" />
    <glyph glyph-name="nine" unicode="9" 
d="M90 150v-12q0 -22 3.5 -42t12.5 -35.5t23.5 -25t35.5 -9.5t35 9.5t23 25t13 35.5t4 42v183q-9 -27 -31.5 -45.5t-53.5 -18.5q-53 0 -79.5 39.5t-26.5 114.5v110q0 75 29 114.5t87 39.5t86.5 -40t28.5 -115v-375q0 -72 -29 -113.5t-86 -41.5q-116 0 -116 148v12h41z
M165 639q-21 0 -35.5 -9.5t-23 -25t-12.5 -35.5t-4 -42v-122q0 -20 4 -40t12.5 -36t23 -26t35.5 -10q20 0 34 10t23 26t13.5 36t4.5 40v122q0 20 -4 40t-13 36t-23 26t-35 10z" />
    <glyph glyph-name="colon" unicode=":" horiz-adv-x="157" 
d="M48 26q0 14 8.5 22.5t22.5 8.5t22.5 -8.5t8.5 -22.5t-8.5 -22.5t-22.5 -8.5t-22.5 8.5t-8.5 22.5zM48 435q0 14 8.5 22.5t22.5 8.5t22.5 -8.5t8.5 -22.5t-8.5 -22.5t-22.5 -8.5t-22.5 8.5t-8.5 22.5z" />
    <glyph glyph-name="semicolon" unicode=";" horiz-adv-x="161" 
d="M53 435q0 14 8.5 22.5t22.5 8.5t22.5 -8.5t8.5 -22.5t-8.5 -22.5t-22.5 -8.5t-22.5 8.5t-8.5 22.5zM65 -114h-25l27 159h43z" />
    <glyph glyph-name="less" unicode="&#x3c;" horiz-adv-x="314" 
d="M34 330l238 120v-40l-199 -98l199 -98v-40l-238 120v36z" />
    <glyph glyph-name="equal" unicode="=" horiz-adv-x="314" 
d="M38 376h238v-38h-238v38zM38 266h238v-38h-238v38z" />
    <glyph glyph-name="greater" unicode="&#x3e;" horiz-adv-x="314" 
d="M280 294l-238 -120v40l199 98l-199 98v40l238 -120v-36z" />
    <glyph glyph-name="question" unicode="?" horiz-adv-x="320" 
d="M50 494v38q0 69 29 106t85 37q54 0 80 -36t26 -87v-38q0 -26 -3 -45t-11 -36t-22 -33.5t-36 -37.5q-16 -15 -25 -31t-13 -35t-4.5 -42t-0.5 -53v-58h-40v64q0 36 2 62t8.5 47t19 39t34.5 37q35 32 43 62.5t8 62.5v32q0 35 -17 61.5t-50 26.5t-53 -25.5t-20 -79.5v-38h-40
zM105 26q0 14 8.5 22.5t22.5 8.5t22.5 -8.5t8.5 -22.5t-8.5 -22.5t-22.5 -8.5t-22.5 8.5t-8.5 22.5z" />
    <glyph glyph-name="at" unicode="@" horiz-adv-x="552" 
d="M273 241q-32 0 -47 -20.5t-15 -67.5q0 -14 2 -28.5t8 -26.5t16 -19.5t26 -7.5q27 0 44.5 22.5t23.5 50.5v79q-12 5 -27 11.5t-31 6.5zM282 -122h-14q-104 0 -157 48t-53 154v308q0 47 13 89.5t40 74.5t68.5 50.5t98.5 18.5q58 0 99 -19t67 -51t38 -74.5t12 -88.5v-238
q0 -54 -22 -82t-62 -28q-56 0 -71 62q-12 -27 -33 -44.5t-50 -17.5q-83 0 -83 114q0 65 25 92t60 27q24 0 41 -8t32 -18v66q0 22 -2 42.5t-8 36.5t-17.5 26t-29.5 10q-32 0 -47 -26t-15 -74v-9h-37v8q0 23 4.5 47t16 43.5t30.5 32t48 12.5q53 0 74 -40.5t21 -112.5v-177
q0 -25 10 -42.5t33 -17.5q24 0 35 18.5t11 45.5v252q0 37 -9.5 73t-31 64.5t-56 45.5t-84.5 17t-84.5 -17t-56.5 -45t-32 -64t-10 -73v-307q0 -90 44 -130t132 -40h12v-34z" />
    <glyph glyph-name="A" unicode="A" horiz-adv-x="332" 
d="M25 0l117 665h49l116 -665h-41l-30 185h-141l-30 -185h-40zM101 221h130l-64 389h-3z" />
    <glyph glyph-name="B" unicode="B" horiz-adv-x="334" 
d="M289 156q0 -76 -28.5 -116t-86.5 -40h-115v665h101q57 0 88 -35t31 -110v-29q0 -55 -16.5 -83.5t-42.5 -42.5q40 -14 54.5 -54t14.5 -89v-66zM249 230q0 19 -3.5 39t-12 36t-22 26.5t-33.5 10.5h-79v-306h75q21 0 35.5 10t23 26t12.5 35.5t4 39.5v83zM239 528
q0 41 -19 70.5t-60 29.5h-61v-251h63q19 0 33.5 8.5t24.5 23t14.5 33t4.5 39.5v47z" />
    <glyph glyph-name="C" unicode="C" horiz-adv-x="312" 
d="M240 510v18q0 19 -4 39t-13 36t-23 26t-35 10t-35 -10t-23 -26t-13 -36t-4 -39v-390q0 -20 4 -39.5t13 -35.5t23 -26t35 -10t35 10t23 25.5t13 35.5t4 40v17h40v-8q0 -77 -29 -117t-86 -40q-58 0 -86.5 40t-28.5 115v375q0 75 28.5 115t86.5 40q57 0 86 -40t29 -115v-10
h-40z" />
    <glyph glyph-name="D" unicode="D" horiz-adv-x="340" 
d="M290 156q0 -76 -28.5 -116t-86.5 -40h-116v665h116q58 0 86.5 -40t28.5 -116v-353zM250 519q0 19 -4 38.5t-13 35.5t-23 25.5t-35 9.5h-76v-592h76q21 0 35 9.5t23 25.5t13 36t4 40v372z" />
    <glyph glyph-name="E" unicode="E" horiz-adv-x="284" 
d="M260 628h-161v-252h135v-36h-135v-304h161v-36h-201v665h201v-37z" />
    <glyph glyph-name="F" unicode="F" horiz-adv-x="280" 
d="M59 0v665h201v-37h-161v-252h135v-36h-135v-340h-40z" />
    <glyph glyph-name="G" unicode="G" horiz-adv-x="327" 
d="M176 335v36h105v-226q0 -75 -29 -115t-87 -40t-87 40t-29 115v375q0 75 29.5 115t86.5 40q116 0 116 -154v-9h-40v15q0 22 -4 42t-13 35.5t-23.5 25t-35.5 9.5t-35.5 -9t-23.5 -24.5t-13 -36t-4 -42.5v-389q0 -20 4 -40t13 -35.5t23.5 -25.5t35.5 -10t35.5 9.5t23.5 25
t13 35.5t4 41v197h-65z" />
    <glyph glyph-name="H" unicode="H" horiz-adv-x="359" 
d="M260 0v340h-161v-340h-40v665h40v-289h161v289h40v-665h-40z" />
    <glyph glyph-name="I" unicode="I" horiz-adv-x="158" 
d="M59 0v665h40v-665h-40z" />
    <glyph glyph-name="J" unicode="J" horiz-adv-x="200" 
d="M24 26q22 1 37 11.5t24 26t13 35t4 39.5v527h40v-520q0 -72 -29.5 -112t-88.5 -43v36z" />
    <glyph glyph-name="K" unicode="K" horiz-adv-x="330" 
d="M183 386l134 -386h-42l-118 345l-58 -117v-228h-40v665h40v-372l171 372h42z" />
    <glyph glyph-name="L" unicode="L" horiz-adv-x="279" 
d="M99 665v-629h165v-36h-205v665h40z" />
    <glyph glyph-name="M" unicode="M" horiz-adv-x="453" 
d="M59 0v665h55l112 -539h3l112 539h53v-665h-36v599h-3l-115 -551h-25l-117 551h-3v-599h-36z" />
    <glyph glyph-name="N" unicode="N" horiz-adv-x="367" 
d="M308 0h-54l-157 604h-3v-604h-35v665h54l157 -609h3v609h35v-665z" />
    <glyph glyph-name="O" unicode="O" 
d="M279 145q0 -75 -28.5 -115t-86.5 -40t-86.5 40t-28.5 115v375q0 75 28.5 115t86.5 40t86.5 -40t28.5 -115v-375zM239 527q0 20 -4 40t-12.5 36t-23 26t-35.5 10t-35 -10t-23 -26t-13 -36t-4 -40v-389q0 -20 4 -40t13 -35.5t23 -25.5t35 -10t35.5 10t23 25.5t12.5 35.5
t4 40v389z" />
    <glyph glyph-name="P" unicode="P" horiz-adv-x="330" 
d="M285 442q0 -76 -29 -115.5t-86 -39.5h-71v-287h-40v665h111q57 0 86 -40t29 -116v-67zM245 517q0 21 -4 40.5t-13 35.5t-24 25.5t-36 9.5h-69v-305h69q21 0 36 9.5t24 25.5t13 36t4 41v82z" />
    <glyph glyph-name="Q" unicode="Q" 
d="M279 145q0 -141 -98 -152q3 -46 26 -71.5t72 -25.5v-36q-72 0 -103 36t-34 97q-48 7 -70.5 45.5t-22.5 106.5v375q0 75 28.5 115t86.5 40t86.5 -40t28.5 -115v-375zM239 527q0 20 -3.5 40t-12.5 36t-23.5 26t-35.5 10t-35 -10t-23 -26t-13 -36t-4 -40v-389q0 -20 4 -40
t13 -35.5t23 -25.5t35 -10t35.5 10t23 25.5t12.5 35.5t4 40v389z" />
    <glyph glyph-name="R" unicode="R" horiz-adv-x="339" 
d="M289 487q0 -114 -71 -148l95 -339h-43l-88 329h-83v-329h-40v665h115q58 0 86.5 -40t28.5 -116v-22zM249 517q0 21 -4 40.5t-13 35.5t-24 25.5t-36 9.5h-73v-262h73q21 0 36 9.5t24 25t13 35.5t4 42v39z" />
    <glyph glyph-name="S" unicode="S" horiz-adv-x="294" 
d="M36 535q0 24 6 49t19.5 45.5t34.5 33t51 12.5q54 0 82.5 -36.5t28.5 -111.5v-15h-40v15q0 20 -3 40t-11.5 36t-22 26t-34.5 10q-32 0 -51 -27.5t-19 -68.5v-37q0 -38 15.5 -66.5t55.5 -60.5q22 -18 42 -37.5t35 -42t24 -50t9 -61.5v-58q0 -26 -6.5 -51t-20 -44.5
t-34.5 -32t-50 -12.5q-57 0 -84 38.5t-27 110.5v14h41v-15q0 -20 3 -40t11 -36t21.5 -26t34.5 -10q33 0 52 27.5t19 68.5v54q0 51 -22.5 90t-66.5 76q-21 18 -38 34t-29.5 34.5t-19 40t-6.5 49.5v35z" />
    <glyph glyph-name="T" unicode="T" horiz-adv-x="301" 
d="M129 0v628h-111v37h265v-37h-114v-628h-40z" />
    <glyph glyph-name="U" unicode="U" horiz-adv-x="346" 
d="M288 665v-520q0 -75 -28.5 -115t-86.5 -40t-86.5 40t-28.5 115v520h40v-528q0 -20 4 -39.5t13 -35t23 -25.5t35 -10t35.5 10t23 25.5t12.5 35t4 39.5v528h40z" />
    <glyph glyph-name="V" unicode="V" horiz-adv-x="314" 
d="M183 0h-52l-105 665h40l90 -610h2l90 610h40z" />
    <glyph glyph-name="W" unicode="W" horiz-adv-x="473" 
d="M248 665l89 -602h2l68 602h40l-84 -665h-45l-85 556h-2l-84 -556h-43l-78 665h40l61 -602h3l88 602h30z" />
    <glyph glyph-name="X" unicode="X" horiz-adv-x="306" 
d="M284 0h-41l-91 291h-3l-86 -291h-41l108 333l-107 332h41l90 -292h2l87 292h40l-109 -330z" />
    <glyph glyph-name="Y" unicode="Y" horiz-adv-x="321" 
d="M180 224v-224h-40v224l-114 441h41l92 -386h3l92 386h41z" />
    <glyph glyph-name="Z" unicode="Z" horiz-adv-x="272" 
d="M32 628v37h213v-45l-181 -584h176v-36h-213v45l181 583h-176z" />
    <glyph glyph-name="bracketleft" unicode="[" horiz-adv-x="231" 
d="M75 779h123v-38h-83v-803h83v-38h-123v879z" />
    <glyph glyph-name="backslash" unicode="\" horiz-adv-x="258" 
d="M8 710h37l205 -799h-39z" />
    <glyph glyph-name="bracketright" unicode="]" horiz-adv-x="231" 
d="M156 -100h-123v38h83v803h-83v38h123v-879z" />
    <glyph glyph-name="asciicircum" unicode="^" horiz-adv-x="314" 
d="M175 444l106 -234h-41l-83 193l-83 -193h-41l106 234h36z" />
    <glyph glyph-name="underscore" unicode="_" horiz-adv-x="302" 
d="M25 -26h252v-40h-252v40z" />
    <glyph glyph-name="grave" unicode="`" horiz-adv-x="350" 
d="M169 679l47 -133h-33l-57 133h43z" />
    <glyph glyph-name="a" unicode="a" horiz-adv-x="315" 
d="M47 373v13q0 25 5.5 48.5t17.5 41t31.5 28t48.5 10.5q57 0 81.5 -39.5t24.5 -116.5v-285q0 -27 8 -35.5t22 -11.5v-36q-35 2 -48.5 19t-17.5 45q-12 -29 -33 -46.5t-53 -17.5q-44 0 -67 32.5t-23 95.5v44q0 26 5.5 49.5t17.5 41t30.5 27.5t45.5 10q18 0 37 -5t36 -17v100
q0 20 -2.5 40t-10 36t-20 26t-33.5 10q-35 0 -50.5 -27.5t-15.5 -66.5v-13h-37zM216 241q-14 8 -27.5 12.5t-33.5 4.5q-42 0 -56.5 -27.5t-14.5 -84.5v-11q0 -52 12.5 -81.5t52.5 -29.5q23 0 40 18t27 42v157z" />
    <glyph glyph-name="b" unicode="b" horiz-adv-x="320" 
d="M99 68q6 -15 22.5 -29.5t42.5 -14.5q37 0 52 33t15 80v233q0 20 -2.5 40t-10 35.5t-20.5 25t-34 9.5q-24 0 -40.5 -18.5t-24.5 -41.5v-352zM87 0h-28v710h36l4 -55v-203q11 28 31.5 45t47.5 17q93 0 93 -152v-216q0 -75 -24 -115.5t-77 -40.5q-29 0 -48 13.5t-28 30.5z
" />
    <glyph glyph-name="c" unicode="c" horiz-adv-x="300" 
d="M222 347v21q0 22 -2.5 42t-10 35.5t-20.5 25t-34 9.5t-33.5 -10t-20 -26t-10 -36t-2.5 -40v-232q0 -20 2.5 -40t10 -36t20 -26t33.5 -10t34 9.5t20.5 25t10 35.5t2.5 42v21h37v-17q0 -73 -24 -111.5t-80 -38.5q-57 0 -81.5 40.5t-24.5 115.5v212q0 75 24.5 115.5
t81.5 40.5q56 0 80 -38.5t24 -110.5v-18h-37z" />
    <glyph glyph-name="d" unicode="d" horiz-adv-x="321" 
d="M221 435q-7 15 -23 30t-42 15q-19 0 -32 -9t-20.5 -24.5t-11 -36t-3.5 -42.5v-233q0 -21 2.5 -41t10 -35.5t20.5 -25t33 -9.5q24 0 40.5 18.5t25.5 42.5v350zM261 73q0 -26 7 -36.5t24 -10.5v-36q-35 0 -49 17t-18 46q-11 -26 -31 -44.5t-51 -18.5q-46 0 -70 38.5
t-24 112.5v221q0 75 23 113.5t74 38.5q28 0 46.5 -13.5t28.5 -31.5v241h36l4 -55v-582z" />
    <glyph glyph-name="e" unicode="e" horiz-adv-x="306" 
d="M89 289h132v79q0 20 -2.5 40t-10 36t-20 26t-33.5 10t-33.5 -10t-20 -26t-10 -36t-2.5 -40v-79zM223 149h38v-11q0 -72 -25 -110t-81 -38q-58 0 -82 40.5t-24 115.5v212q0 75 24.5 115.5t81.5 40.5t81.5 -40.5t24.5 -115.5v-103h-172v-119q0 -20 2.5 -40t10 -36t20 -26
t33.5 -10t34 9.5t20.5 25t10.5 35.5t3 42v13z" />
    <glyph glyph-name="f" unicode="f" horiz-adv-x="214" 
d="M100 470v-470h-41v550q0 78 24.5 119t81.5 41q31 0 52 -12t34 -32l-28 -24q-10 14 -22 24t-33 10t-34.5 -10.5t-21 -27t-10 -37t-2.5 -40.5v-57h108v-34h-108z" />
    <glyph glyph-name="g" unicode="g" horiz-adv-x="317" 
d="M221 436q-6 16 -22.5 30t-42.5 14q-19 0 -32 -9t-20.5 -24.5t-11 -36t-3.5 -42.5v-232q0 -21 2.5 -41t10 -36t20 -25.5t33.5 -9.5q23 0 39.5 18.5t26.5 42.5v351zM90 -90v-9q0 -34 17 -55.5t48 -21.5q21 0 33.5 9t20 24.5t10 36t2.5 43.5v113q-12 -26 -31 -43t-49 -17
q-92 0 -92 156v212q0 75 23.5 115.5t77.5 40.5q32 0 50 -15t28 -32l6 37h27v-557q0 -76 -24.5 -116.5t-81.5 -40.5q-48 0 -75.5 28t-27.5 82v10h38z" />
    <glyph glyph-name="h" unicode="h" horiz-adv-x="326" 
d="M99 452q11 23 30 42.5t53 19.5q47 0 67.5 -39.5t20.5 -114.5v-360h-36l-4 54v314q0 22 -2.5 42.5t-9.5 36t-19 24.5t-31 9q-26 0 -43.5 -19.5t-25.5 -42.5v-418h-40v710h36l4 -55v-203z" />
    <glyph glyph-name="i" unicode="i" horiz-adv-x="157" 
d="M59 504h35l5 -55v-449h-40v504zM79 642q13 0 21 -7.5t8 -21.5t-8 -22t-21 -8t-21 8t-8 22t8 21.5t21 7.5z" />
    <glyph glyph-name="j" unicode="j" horiz-adv-x="158" 
d="M94 504l5 -55v-497q0 -83 -22 -122.5t-81 -39.5v37q22 0 34.5 10t19 26t8 37t1.5 44v560h35zM79 642q13 0 21 -7.5t8 -21.5t-8 -22t-21 -8t-21 8t-8 22t8 21.5t21 7.5z" />
    <glyph glyph-name="k" unicode="k" horiz-adv-x="305" 
d="M181 322l109 -322h-41l-95 283l-55 -90v-193h-40v710h36l4 -54v-415l146 263h41z" />
    <glyph glyph-name="l" unicode="l" horiz-adv-x="157" 
d="M99 655v-655h-36l-4 55v655h36z" />
    <glyph glyph-name="m" unicode="m" horiz-adv-x="491" 
d="M268 0h-40v368q0 22 -2 42.5t-8.5 36t-18.5 24.5t-31 9q-26 0 -43.5 -19.5t-25.5 -42.5v-418h-40v504h35l3 -53q12 26 32.5 44.5t52.5 18.5q30 0 50.5 -18t28.5 -51q10 28 31.5 48.5t55.5 20.5q46 0 66.5 -39.5t20.5 -114.5v-360h-36l-4 55v313q0 22 -2 42.5t-8.5 36
t-18.5 24.5t-31 9q-27 0 -43 -19.5t-24 -39.5v-421z" />
    <glyph glyph-name="n" unicode="n" horiz-adv-x="326" 
d="M97 451q11 27 33.5 45t51.5 18q47 0 67.5 -39.5t20.5 -114.5v-360h-36l-4 55v313q0 22 -2.5 42.5t-9.5 36t-19 24.5t-31 9q-26 0 -43.5 -19.5t-25.5 -42.5v-418h-40v504h35z" />
    <glyph glyph-name="o" unicode="o" horiz-adv-x="310" 
d="M261 146q0 -76 -24.5 -116t-81.5 -40t-81.5 40t-24.5 116v212q0 76 24.5 116t81.5 40t81.5 -40t24.5 -116v-212zM221 368q0 20 -2.5 40t-10 36t-20 26t-33.5 10t-33.5 -10t-20 -26t-10 -36t-2.5 -40v-232q0 -20 2.5 -40t10 -36t20 -26t33.5 -10t33.5 10t20 26t10 36
t2.5 40v232z" />
    <glyph glyph-name="p" unicode="p" horiz-adv-x="319" 
d="M58 504h35l4 -53q10 27 32 45t51 18q47 0 68.5 -39.5t21.5 -114.5v-214q0 -75 -23 -115.5t-75 -40.5q-25 0 -44 12t-30 27v-184l-4 -55h-36v714zM98 65q6 -15 24 -28t42 -13q18 0 31 9t20.5 24.5t11 35.5t3.5 43v232q0 21 -2.5 41t-9 36t-19 25.5t-32.5 9.5
q-25 0 -43 -19.5t-26 -42.5v-353z" />
    <glyph glyph-name="q" unicode="q" horiz-adv-x="319" 
d="M221 433q-6 15 -22.5 30t-42.5 15q-19 0 -32 -9t-20.5 -24.5t-11 -36t-3.5 -42.5v-230q0 -21 2.5 -41t10 -36t20 -25.5t33.5 -9.5q24 0 40.5 18.5t25.5 42.5v348zM221 45q-11 -23 -30.5 -39t-48.5 -16q-47 0 -70 40.5t-23 115.5v212q0 75 23 115.5t76 40.5q29 0 47 -14
t29 -34l6 38h31v-714h-36l-4 55v200z" />
    <glyph glyph-name="r" unicode="r" horiz-adv-x="224" 
d="M59 504h36l3 -53q11 26 32 44.5t47 18.5q14 0 23 -3t19 -10l-16 -37q-14 11 -31 11q-25 0 -43.5 -18t-29.5 -42v-415h-40v504z" />
    <glyph glyph-name="s" unicode="s" horiz-adv-x="276" 
d="M75 147v-8q0 -21 2.5 -41.5t9 -37t19 -26.5t32.5 -10q30 0 47 27.5t17 68.5q0 42 -16.5 74t-61.5 62q-20 14 -36.5 28.5t-28 31.5t-18 38t-6.5 47q0 21 6 41.5t18.5 36.5t32 25.5t45.5 9.5q53 0 78 -37.5t25 -109.5v-9h-40v11q0 19 -2.5 39t-9.5 36t-19.5 26t-31.5 10
q-18 0 -30 -7t-19 -17.5t-10 -24.5t-3 -27q0 -38 17 -64t59 -54q47 -32 68 -70t21 -91q0 -24 -5.5 -48t-17.5 -43.5t-31 -31.5t-46 -12q-54 0 -79 38.5t-25 110.5v8h39z" />
    <glyph glyph-name="t" unicode="t" horiz-adv-x="225" 
d="M212 2q-11 -5 -23 -8.5t-26 -3.5q-57 0 -81 39t-24 117v458h36l4 -54v-46h101v-34h-101v-332q0 -18 2.5 -38t10 -36.5t21 -27t34.5 -10.5q9 0 18.5 3t16.5 6z" />
    <glyph glyph-name="u" unicode="u" horiz-adv-x="326" 
d="M56 504h40v-368q0 -23 2.5 -43t9.5 -35.5t19.5 -24.5t32.5 -9q23 0 40 18.5t27 41.5v420h40v-430q0 -21 6 -34.5t24 -13.5v-36q-35 0 -48.5 17.5t-17.5 46.5q-13 -29 -33.5 -46.5t-52.5 -17.5q-89 0 -89 150v364z" />
    <glyph glyph-name="v" unicode="v" horiz-adv-x="285" 
d="M165 0h-46l-93 504h40l75 -462h2l75 462h40z" />
    <glyph glyph-name="w" unicode="w" horiz-adv-x="455" 
d="M209 504h37l75 -445h2l66 445h40l-81 -504h-44l-75 438h-3l-75 -438h-44l-81 504h40l65 -445h2z" />
    <glyph glyph-name="x" unicode="x" horiz-adv-x="263" 
d="M62 504l69 -210h3l68 210h39l-89 -251l88 -253h-40l-71 213h-2l-64 -213h-39l84 260l-86 244h40z" />
    <glyph glyph-name="y" unicode="y" horiz-adv-x="277" 
d="M32 504h40l68 -444h2l72 444h40l-106 -566q-13 -70 -42 -108.5t-83 -38.5v36q29 0 55 26t37 88l7 44z" />
    <glyph glyph-name="z" unicode="z" horiz-adv-x="231" 
d="M29 468v36h178v-45l-147 -423h142v-36h-178v42l148 426h-143z" />
    <glyph glyph-name="braceleft" unicode="{" horiz-adv-x="263" 
d="M100 274q0 30 -9.5 40t-39.5 10h-15v38h15q30 0 39.5 10t9.5 40v202q0 78 28.5 121.5t94.5 43.5h20v-38h-20q-43 0 -63 -31t-20 -97v-212q0 -23 -11 -39.5t-33 -16.5h-7v-4h7q22 0 33 -17.5t11 -38.5v-221q0 -66 20 -96t63 -30h20v-38h-20q-64 0 -93.5 41.5t-29.5 119.5
v213z" />
    <glyph glyph-name="bar" unicode="|" horiz-adv-x="228" 
d="M94 -100v879h40v-879h-40z" />
    <glyph glyph-name="braceright" unicode="}" horiz-adv-x="263" 
d="M163 412q0 -30 9.5 -40t39.5 -10h15v-38h-15q-30 0 -39.5 -10t-9.5 -40v-213q0 -78 -29.5 -119.5t-93.5 -41.5h-20v38h20q43 0 63 30t20 96v221q0 23 11 39.5t33 16.5h7v4h-7q-22 0 -33 17.5t-11 38.5v212q0 66 -20 97t-63 31h-20v38h20q66 0 94.5 -43.5t28.5 -121.5
v-202z" />
    <glyph glyph-name="asciitilde" unicode="~" horiz-adv-x="314" 
d="M282 355q0 -56 -19 -77t-46 -21q-19 0 -32.5 7.5t-25.5 18.5q-13 12 -25.5 22.5t-29.5 10.5q-18 0 -27 -13.5t-9 -45.5h-36q0 28 5.5 46.5t15 30t21.5 16.5t25 5q18 0 31 -7.5t25 -18.5q12 -12 25.5 -23t30.5 -11t26 13.5t9 46.5h36z" />
    <glyph glyph-name="uni00A0" unicode="&#xa0;" horiz-adv-x="150" 
 />
    <glyph glyph-name="exclamdown" unicode="&#xa1;" horiz-adv-x="230" 
d="M94 -160v526h35l6 -59v-467h-41zM146 483q0 -14 -8.5 -22.5t-22.5 -8.5t-22.5 8.5t-8.5 22.5t8.5 22.5t22.5 8.5t22.5 -8.5t8.5 -22.5z" />
    <glyph glyph-name="cent" unicode="&#xa2;" horiz-adv-x="298" 
d="M133 -69v62q-46 7 -65.5 45.5t-19.5 107.5v212q0 69 19.5 107.5t65.5 45.5v62h40v-62q45 -6 65 -43t20 -103v-18h-37v11q0 24 -2.5 46t-10 39t-20.5 27t-34 10t-33.5 -10t-20 -26t-10 -36t-2.5 -40v-232q0 -20 2.5 -39.5t9.5 -36t20 -26.5t34 -10t34.5 10.5t20.5 27.5
t9.5 39t2.5 45v11h37v-17q0 -67 -20 -104t-65 -43v-62h-40z" />
    <glyph glyph-name="sterling" unicode="&#xa3;" horiz-adv-x="348" 
d="M38 284h40v236q0 75 28.5 115t86.5 40q57 0 86 -40t29 -115v-10h-40v19q0 19 -4 39t-13 35.5t-23 25.5t-35 10t-35 -10t-23 -26t-13 -36t-4 -40v-243h138v-36h-138v-212h190v-36h-270v36h40v212h-40v36z" />
    <glyph glyph-name="currency" unicode="&#xa4;" horiz-adv-x="317" 
d="M264 300q0 -48 -8 -80.5t-28 -52.5l31 -74h-36l-23 55q-16 -8 -42 -8q-24 0 -42 9l-23 -56h-36l30 75q-18 19 -26 49t-8 75v16q0 46 7.5 79t26.5 53l-30 75h36l23 -56q18 9 42 9q25 0 42 -9l23 56h36l-31 -74q36 -36 36 -129v-12zM224 315q0 21 -2.5 42.5t-9.5 38.5
t-20 27.5t-34 10.5t-34 -10.5t-19.5 -27.5t-9 -38.5t-2.5 -42.5v-22q0 -21 2 -42.5t9 -38.5t20 -27.5t34 -10.5t33.5 10t20 26t10 36t2.5 40v29z" />
    <glyph glyph-name="yen" unicode="&#xa5;" horiz-adv-x="349" 
d="M54 330h92l-106 335h41l92 -322h3l92 322h41l-107 -335h92v-31h-100v-71h100v-31h-100v-197h-40v197h-100v31h100v71h-100v31z" />
    <glyph glyph-name="brokenbar" unicode="&#xa6;" horiz-adv-x="228" 
d="M134 403h-40v376h40v-376zM134 276v-376h-40v376h40z" />
    <glyph glyph-name="section" unicode="&#xa7;" horiz-adv-x="302" 
d="M117 436q-17 -9 -26.5 -28t-9.5 -43q0 -36 19 -59.5t60 -54.5l24 -18q17 13 27 32t10 39q0 37 -18.5 61.5t-61.5 53.5zM90 461q-20 19 -32 44t-12 60q0 22 6 42.5t18.5 36.5t32 25.5t46.5 9.5q107 0 107 -148v-9h-39v8q0 21 -2.5 41.5t-10 37t-20.5 26.5t-34 10
q-18 0 -30.5 -7t-20 -18t-11 -24.5t-3.5 -27.5q0 -27 5.5 -43.5t17.5 -30t31.5 -27t46.5 -33.5q36 -27 53.5 -55.5t17.5 -73.5q0 -34 -14 -56.5t-31 -40.5q21 -22 32.5 -47t11.5 -57q0 -23 -6 -43.5t-19 -36t-32 -25t-45 -9.5q-56 0 -82 37t-26 110v10h40v-8
q0 -21 2.5 -41.5t10 -37t20 -26.5t33.5 -10q18 0 30.5 7t20 17.5t11 24t3.5 27.5q0 26 -5 42.5t-17 30t-31 27t-46 33.5q-35 27 -54 57t-19 74q0 35 13 58.5t32 38.5z" />
    <glyph glyph-name="dieresis" unicode="&#xa8;" horiz-adv-x="348" 
d="M123 644q13 0 21 -7.5t8 -21.5t-8 -22t-21 -8q-29 0 -29 30q0 29 29 29zM226 644q13 0 21 -7.5t8 -21.5t-8 -22t-21 -8q-29 0 -29 30q0 29 29 29z" />
    <glyph glyph-name="copyright" unicode="&#xa9;" horiz-adv-x="546" 
d="M488 204q0 -49 -12.5 -91t-38.5 -72.5t-66.5 -48t-96.5 -17.5t-96.5 17.5t-67 48t-39.5 72.5t-13 92v253q0 47 12.5 89.5t39 74t67 50t97.5 18.5t97.5 -19t66.5 -51t38 -74t12 -88v-254zM452 458q0 37 -9.5 73t-30.5 64t-55 45.5t-83 17.5t-83.5 -17t-56 -45t-31 -64
t-9.5 -73v-254q0 -39 10 -74.5t31.5 -63t55.5 -44t83 -16.5t83 16.5t55 44t30.5 63t9.5 74.5v253zM341 410v17q0 22 -3 42t-10.5 35.5t-20.5 24.5t-33 9q-21 0 -33.5 -10t-20 -25.5t-10 -35.5t-2.5 -40v-189q0 -20 2.5 -39.5t10 -35t20 -25.5t33.5 -10q20 0 33 9t20.5 24.5
t10.5 35.5t3 41v18h34v-14q0 -72 -23 -109.5t-78 -37.5q-56 0 -79 39.5t-23 113.5v170q0 74 22.5 113.5t79.5 39.5q54 0 77.5 -38t23.5 -108v-15h-34z" />
    <glyph glyph-name="ordfeminine" unicode="&#xaa;" horiz-adv-x="201" 
d="M29 588v7q0 33 15 56.5t51 23.5q35 0 51 -23.5t16 -70.5v-168q0 -15 4.5 -19.5t12.5 -6.5v-27q-22 0 -31.5 10t-12.5 28q-16 -38 -52 -38q-26 0 -41 19.5t-15 58.5v30q0 27 14 50.5t46 23.5q11 0 22 -3t21 -10v58q0 11 -1.5 22.5t-5 20.5t-10.5 14.5t-18 5.5
q-19 0 -28 -15.5t-9 -38.5v-8h-29zM130 509q-8 4 -14.5 6.5t-17.5 2.5q-23 0 -31.5 -15t-8.5 -47v-9q0 -29 7 -45t28 -16q13 0 22.5 9t14.5 22v92z" />
    <glyph glyph-name="guillemotleft" unicode="&#xab;" horiz-adv-x="367" 
d="M160 455l28 -27l-112 -136l112 -136l-28 -26l-118 143v38zM300 455l28 -27l-112 -136l112 -136l-28 -26l-118 143v38z" />
    <glyph glyph-name="logicalnot" unicode="&#xac;" horiz-adv-x="314" 
d="M38 351h238v-128h-36v90h-202v38z" />
    <glyph glyph-name="uni00AD" unicode="&#xad;" horiz-adv-x="211" 
 />
    <glyph glyph-name="registered" unicode="&#xae;" horiz-adv-x="414" 
d="M364 387q0 -42 -8 -76t-27 -57.5t-49 -36.5t-73 -13t-73 13t-48.5 37t-27 57.5t-8.5 75.5v122q0 42 8.5 75.5t27 57t48.5 36.5t73 13t73 -13t49 -36.5t27 -57t8 -75.5v-122zM331 509q0 77 -27.5 114t-96.5 37t-96 -37t-27 -114v-122q0 -78 27 -115t96 -37t96.5 37
t27.5 115v122zM264 513q0 -26 -8 -39.5t-23 -21.5l41 -143h-30l-38 140h-26v-140h-28v283h53q59 0 59 -64v-15zM236 530q0 35 -32 35h-24v-93h24q18 0 25 9t7 28v21z" />
    <glyph glyph-name="macron" unicode="&#xaf;" horiz-adv-x="350" 
d="M98 633h153v-36h-153v36z" />
    <glyph glyph-name="degree" unicode="&#xb0;" horiz-adv-x="237" 
d="M63 628q0 -24 15.5 -41t40.5 -17t40.5 17t15.5 41q0 25 -15.5 41t-40.5 16t-40.5 -16t-15.5 -41zM31 628q0 37 25 62.5t63 25.5t63 -25.5t25 -62.5t-25 -63t-63 -26t-63 26t-25 63z" />
    <glyph glyph-name="plusminus" unicode="&#xb1;" horiz-adv-x="314" 
d="M38 351h100v70h38v-70h100v-38h-100v-70h-38v70h-100v38zM38 209h238v-38h-238v38z" />
    <glyph glyph-name="twosuperior" unicode="&#xb2;" horiz-adv-x="243" 
d="M40 574v7q0 45 19.5 69.5t64.5 24.5q44 0 62.5 -21.5t18.5 -62.5v-16q0 -30 -14.5 -62t-39.5 -76l-74 -135h128v-32h-162v37l69 129q28 49 43 80.5t15 57.5v13q0 56 -46 56q-27 0 -37.5 -16.5t-10.5 -45.5v-7h-36z" />
    <glyph glyph-name="threesuperior" unicode="&#xb3;" horiz-adv-x="243" 
d="M164 583q0 22 -10 41t-36 19t-36 -19.5t-10 -42.5v-10h-35v7q0 46 19.5 71.5t61.5 25.5q41 0 61 -24t20 -66v-21q0 -31 -11.5 -52t-31.5 -29v-2q20 -8 31.5 -30.5t11.5 -51.5v-40q0 -46 -20.5 -70.5t-60.5 -24.5q-41 0 -61 24.5t-20 69.5v12h35v-12q0 -23 10 -42.5
t36 -19.5t36 19.5t10 42.5v44q0 23 -11.5 43t-35.5 20h-25v31h23q26 0 37.5 20t11.5 43v24z" />
    <glyph glyph-name="acute" unicode="&#xb4;" horiz-adv-x="350" 
d="M227 679l-57 -133h-32l46 133h43z" />
    <glyph glyph-name="mu" unicode="&#xb5;" horiz-adv-x="328" 
d="M97 504v-396q0 -11 2.5 -25.5t10 -27.5t19.5 -22t32 -9q23 0 40 18.5t27 41.5v420h40v-431q0 -21 6 -34t24 -13v-36q-30 0 -43 17t-15 43q-11 -28 -31 -44t-49 -16q-20 0 -36.5 11t-26.5 26v-182l-4 -55h-36v714h40z" />
    <glyph glyph-name="paragraph" unicode="&#xb6;" horiz-adv-x="336" 
d="M237 0v665h40v-665h-40zM194 0h-20v357h-27q-54 0 -76 38.5t-22 112.5v6q0 74 22 112.5t76 38.5h47v-665z" />
    <glyph glyph-name="periodcentered" unicode="&#xb7;" horiz-adv-x="316" 
d="M127 343q0 14 8.5 22.5t22.5 8.5t22.5 -8.5t8.5 -22.5t-8.5 -22.5t-22.5 -8.5t-22.5 8.5t-8.5 22.5z" />
    <glyph glyph-name="cedilla" unicode="&#xb8;" horiz-adv-x="350" 
d="M158 0h28v-50h7q29 0 46 -16.5t17 -54.5t-17.5 -56.5t-48.5 -18.5q-32 0 -49 17t-17 55v2h30v-2q0 -23 9.5 -33.5t26.5 -10.5q16 0 26 11.5t10 35.5t-10 34.5t-30 10.5h-28v76z" />
    <glyph glyph-name="onesuperior" unicode="&#xb9;" horiz-adv-x="243" 
d="M135 270v361l-83 -54l-20 28l97 64h43v-399h-37z" />
    <glyph glyph-name="ordmasculine" unicode="&#xba;" horiz-adv-x="189" 
d="M162 454q0 -46 -16 -70t-52 -24t-51.5 24t-15.5 70v127q0 46 15.5 70t51.5 24t52 -24t16 -70v-127zM130 587q0 23 -6.5 43t-28.5 20q-23 0 -30 -20t-7 -43v-139q0 -23 7 -42.5t30 -19.5q22 0 28.5 19.5t6.5 42.5v139z" />
    <glyph glyph-name="guillemotright" unicode="&#xbb;" horiz-adv-x="367" 
d="M67 130l-28 26l112 136l-112 136l28 27l118 -144v-38zM207 130l-28 26l112 136l-112 136l28 27l118 -144v-38z" />
    <glyph glyph-name="onequarter" unicode="&#xbc;" horiz-adv-x="580" 
d="M135 270v361l-83 -54l-20 28l97 64h43v-399h-37zM179 0h-36l278 665h35zM499 87h-132v41l116 271h36l-120 -279h100v80h34v-200h-34v87z" />
    <glyph glyph-name="onehalf" unicode="&#xbd;" horiz-adv-x="580" 
d="M135 270v361l-83 -54l-20 28l97 64h43v-399h-37zM169 0h-36l278 665h35zM376 304v7q0 45 19.5 69.5t64.5 24.5q44 0 62.5 -21.5t18.5 -62.5v-16q0 -30 -14.5 -62t-39.5 -76l-74 -135h128v-32h-162v37l69 129q28 49 43 80.5t15 57.5v13q0 56 -46 56q-27 0 -37.5 -16.5
t-10.5 -45.5v-7h-36z" />
    <glyph glyph-name="threequarters" unicode="&#xbe;" horiz-adv-x="580" 
d="M164 583q0 22 -10 41t-36 19t-36 -19.5t-10 -42.5v-10h-35v7q0 46 19.5 71.5t61.5 25.5q41 0 61 -24t20 -66v-21q0 -31 -11.5 -52t-31.5 -29v-2q20 -8 31.5 -30.5t11.5 -51.5v-40q0 -46 -20.5 -70.5t-60.5 -24.5q-41 0 -61 24.5t-20 69.5v12h35v-12q0 -23 10 -42.5
t36 -19.5t36 19.5t10 42.5v44q0 23 -11.5 43t-35.5 20h-25v31h23q26 0 37.5 20t11.5 43v24zM187 0h-36l278 665h35zM499 87h-132v41l116 271h36l-120 -279h100v80h34v-200h-34v87z" />
    <glyph glyph-name="questiondown" unicode="&#xbf;" horiz-adv-x="316" 
d="M270 11v-38q0 -69 -29.5 -106t-84.5 -37q-54 0 -80 36t-26 87v42q0 26 3 45t11 36t22 33.5t35 37.5q16 15 25 31t13 35t4.5 42t0.5 53v58h40v-64q0 -36 -2 -62t-8.5 -47t-19 -39t-33.5 -37q-36 -32 -43.5 -62.5t-7.5 -62.5v-36q0 -35 17 -61.5t50 -26.5q32 0 52.5 25.5
t20.5 79.5v38h40zM215 483q0 -14 -8.5 -22.5t-22.5 -8.5t-22.5 8.5t-8.5 22.5t8.5 22.5t22.5 8.5t22.5 -8.5t8.5 -22.5z" />
    <glyph glyph-name="Agrave" unicode="&#xc0;" horiz-adv-x="332" 
d="M25 0l117 665h49l116 -665h-41l-30 185h-141l-30 -185h-40zM101 221h130l-64 389h-3zM160 834l47 -133h-33l-57 133h43z" />
    <glyph glyph-name="Aacute" unicode="&#xc1;" horiz-adv-x="332" 
d="M25 0l117 665h49l116 -665h-41l-30 185h-141l-30 -185h-40zM101 221h130l-64 389h-3zM218 834l-57 -133h-32l46 133h43z" />
    <glyph glyph-name="Acircumflex" unicode="&#xc2;" horiz-adv-x="332" 
d="M25 0l117 665h49l116 -665h-41l-30 185h-141l-30 -185h-40zM101 221h130l-64 389h-3zM184 834l55 -133h-33l-40 103l-40 -103h-33l55 133h36z" />
    <glyph glyph-name="Atilde" unicode="&#xc3;" horiz-adv-x="332" 
d="M25 0l117 665h49l116 -665h-41l-30 185h-141l-30 -185h-40zM101 221h130l-64 389h-3zM70 727q0 25 4 41.5t11 25.5t16 12.5t19 3.5q16 0 28 -7.5t22 -17t19 -17t19 -7.5t15.5 8.5t5.5 39.5v3h33v-3q0 -50 -15 -66.5t-34 -16.5q-15 0 -27.5 8t-23 17.5t-19.5 17.5t-18 8
q-10 0 -16 -9t-6 -41v-3h-33v3z" />
    <glyph glyph-name="Adieresis" unicode="&#xc4;" horiz-adv-x="332" 
d="M25 0l117 665h49l116 -665h-41l-30 185h-141l-30 -185h-40zM101 221h130l-64 389h-3zM115 799q13 0 21 -7.5t8 -21.5t-8 -22t-21 -8q-29 0 -29 30q0 29 29 29zM218 799q13 0 21 -7.5t8 -21.5t-8 -22t-21 -8q-29 0 -29 30q0 29 29 29z" />
    <glyph glyph-name="Aring" unicode="&#xc5;" horiz-adv-x="332" 
d="M25 0l117 665h49l116 -665h-41l-30 185h-141l-30 -185h-40zM101 221h130l-64 389h-3zM123 772q0 -18 12.5 -31t30.5 -13t30.5 13t12.5 31q0 19 -12.5 31.5t-30.5 12.5t-30.5 -12.5t-12.5 -31.5zM93 772q0 31 21.5 52t51.5 21t51 -21t21 -52q0 -30 -21 -51.5t-51 -21.5
t-51.5 21.5t-21.5 51.5z" />
    <glyph glyph-name="AE" unicode="&#xc6;" horiz-adv-x="481" 
d="M256 192h-135l-64 -192h-40l223 665h217v-37h-161v-252h135v-36h-135v-304h161v-36h-201v192zM256 228v378h-2l-123 -378h125z" />
    <glyph glyph-name="Ccedilla" unicode="&#xc7;" horiz-adv-x="312" 
d="M149 -9q-99 12 -99 154v375q0 75 28.5 115t86.5 40q57 0 86 -40t29 -115v-10h-40v18q0 19 -4 39t-13 36t-23 26t-35 10t-35 -10t-23 -26t-13 -36t-4 -39v-390q0 -20 4 -39.5t13 -35.5t23 -26t35 -10t35 10t23 25.5t13 35.5t4 40v17h40v-8q0 -148 -103 -156v-41h8
q29 0 46 -16.5t17 -54.5t-18.5 -56.5t-48.5 -18.5q-31 0 -48.5 17t-17.5 55v2h30v-2q0 -23 10 -33.5t26 -10.5q17 0 26.5 11.5t9.5 35.5t-9.5 34.5t-30.5 10.5h-28v67z" />
    <glyph glyph-name="Egrave" unicode="&#xc8;" horiz-adv-x="284" 
d="M260 628h-161v-252h135v-36h-135v-304h161v-36h-201v665h201v-37zM152 834l47 -133h-33l-57 133h43z" />
    <glyph glyph-name="Eacute" unicode="&#xc9;" horiz-adv-x="284" 
d="M260 628h-161v-252h135v-36h-135v-304h161v-36h-201v665h201v-37zM210 834l-57 -133h-32l46 133h43z" />
    <glyph glyph-name="Ecircumflex" unicode="&#xca;" horiz-adv-x="284" 
d="M260 628h-161v-252h135v-36h-135v-304h161v-36h-201v665h201v-37zM176 834l55 -133h-33l-40 103l-40 -103h-33l55 133h36z" />
    <glyph glyph-name="Edieresis" unicode="&#xcb;" horiz-adv-x="284" 
d="M260 628h-161v-252h135v-36h-135v-304h161v-36h-201v665h201v-37zM107 799q13 0 21 -7.5t8 -21.5t-8 -22t-21 -8q-29 0 -29 30q0 29 29 29zM210 799q13 0 21 -7.5t8 -21.5t-8 -22t-21 -8q-29 0 -29 30q0 29 29 29z" />
    <glyph glyph-name="Igrave" unicode="&#xcc;" horiz-adv-x="158" 
d="M59 0v665h40v-665h-40zM73 834l47 -133h-33l-57 133h43z" />
    <glyph glyph-name="Iacute" unicode="&#xcd;" horiz-adv-x="158" 
d="M59 0v665h40v-665h-40zM131 834l-57 -133h-32l46 133h43z" />
    <glyph glyph-name="Icircumflex" unicode="&#xce;" horiz-adv-x="158" 
d="M59 0v665h40v-665h-40zM97 834l55 -133h-33l-40 103l-40 -103h-33l55 133h36z" />
    <glyph glyph-name="Idieresis" unicode="&#xcf;" horiz-adv-x="158" 
d="M59 0v665h40v-665h-40zM28 799q13 0 21 -7.5t8 -21.5t-8 -22t-21 -8q-29 0 -29 30q0 29 29 29zM131 799q13 0 21 -7.5t8 -21.5t-8 -22t-21 -8q-29 0 -29 30q0 29 29 29z" />
    <glyph glyph-name="Eth" unicode="&#xd0;" horiz-adv-x="345" 
d="M19 350h45v315h116q58 0 86.5 -40t28.5 -116v-353q0 -76 -28.5 -116t-86.5 -40h-116v314h-45v36zM255 519q0 19 -4 38.5t-13 35.5t-23 25.5t-35 9.5h-76v-278h73v-36h-73v-278h76q21 0 35 9.5t23 25.5t13 36t4 40v372z" />
    <glyph glyph-name="Ntilde" unicode="&#xd1;" horiz-adv-x="367" 
d="M308 0h-54l-157 604h-3v-604h-35v665h54l157 -609h3v609h35v-665zM87 727q0 25 4 41.5t11 25.5t16 12.5t19 3.5q16 0 28 -7.5t22 -17t19 -17t19 -7.5t15.5 8.5t5.5 39.5v3h33v-3q0 -50 -15 -66.5t-34 -16.5q-15 0 -27.5 8t-23 17.5t-19.5 17.5t-18 8q-10 0 -16 -9t-6 -41
v-3h-33v3z" />
    <glyph glyph-name="Ograve" unicode="&#xd2;" 
d="M279 145q0 -75 -28.5 -115t-86.5 -40t-86.5 40t-28.5 115v375q0 75 28.5 115t86.5 40t86.5 -40t28.5 -115v-375zM239 527q0 20 -4 40t-12.5 36t-23 26t-35.5 10t-35 -10t-23 -26t-13 -36t-4 -40v-389q0 -20 4 -40t13 -35.5t23 -25.5t35 -10t35.5 10t23 25.5t12.5 35.5
t4 40v389zM158 834l47 -133h-33l-57 133h43z" />
    <glyph glyph-name="Oacute" unicode="&#xd3;" 
d="M279 145q0 -75 -28.5 -115t-86.5 -40t-86.5 40t-28.5 115v375q0 75 28.5 115t86.5 40t86.5 -40t28.5 -115v-375zM239 527q0 20 -4 40t-12.5 36t-23 26t-35.5 10t-35 -10t-23 -26t-13 -36t-4 -40v-389q0 -20 4 -40t13 -35.5t23 -25.5t35 -10t35.5 10t23 25.5t12.5 35.5
t4 40v389zM216 834l-57 -133h-32l46 133h43z" />
    <glyph glyph-name="Ocircumflex" unicode="&#xd4;" 
d="M279 145q0 -75 -28.5 -115t-86.5 -40t-86.5 40t-28.5 115v375q0 75 28.5 115t86.5 40t86.5 -40t28.5 -115v-375zM239 527q0 20 -4 40t-12.5 36t-23 26t-35.5 10t-35 -10t-23 -26t-13 -36t-4 -40v-389q0 -20 4 -40t13 -35.5t23 -25.5t35 -10t35.5 10t23 25.5t12.5 35.5
t4 40v389zM182 834l55 -133h-33l-40 103l-40 -103h-33l55 133h36z" />
    <glyph glyph-name="Otilde" unicode="&#xd5;" 
d="M279 145q0 -75 -28.5 -115t-86.5 -40t-86.5 40t-28.5 115v375q0 75 28.5 115t86.5 40t86.5 -40t28.5 -115v-375zM239 527q0 20 -4 40t-12.5 36t-23 26t-35.5 10t-35 -10t-23 -26t-13 -36t-4 -40v-389q0 -20 4 -40t13 -35.5t23 -25.5t35 -10t35.5 10t23 25.5t12.5 35.5
t4 40v389zM68 727q0 25 4 41.5t11 25.5t16 12.5t19 3.5q16 0 28 -7.5t22 -17t19 -17t19 -7.5t15.5 8.5t5.5 39.5v3h33v-3q0 -50 -15 -66.5t-34 -16.5q-15 0 -27.5 8t-23 17.5t-19.5 17.5t-18 8q-10 0 -16 -9t-6 -41v-3h-33v3z" />
    <glyph glyph-name="Odieresis" unicode="&#xd6;" 
d="M279 145q0 -75 -28.5 -115t-86.5 -40t-86.5 40t-28.5 115v375q0 75 28.5 115t86.5 40t86.5 -40t28.5 -115v-375zM239 527q0 20 -4 40t-12.5 36t-23 26t-35.5 10t-35 -10t-23 -26t-13 -36t-4 -40v-389q0 -20 4 -40t13 -35.5t23 -25.5t35 -10t35.5 10t23 25.5t12.5 35.5
t4 40v389zM113 799q13 0 21 -7.5t8 -21.5t-8 -22t-21 -8q-29 0 -29 30q0 29 29 29zM216 799q13 0 21 -7.5t8 -21.5t-8 -22t-21 -8q-29 0 -29 30q0 29 29 29z" />
    <glyph glyph-name="multiply" unicode="&#xd7;" horiz-adv-x="314" 
d="M60 231l70 71l-70 70l26 27l71 -70l71 70l26 -27l-70 -70l70 -71l-26 -26l-71 70l-71 -70z" />
    <glyph glyph-name="Oslash" unicode="&#xd8;" 
d="M279 145q0 -75 -28.5 -115t-86.5 -40q-47 0 -77 28l-15 -53l-23 7l20 70v1q-20 38 -20 102v375q0 75 28.5 115t86.5 40q48 0 77 -30l16 55l22 -7l-20 -71q20 -40 20 -102v-375zM89 138v-11.5t1 -10.5l137 478q-9 20 -24.5 32.5t-38.5 12.5q-21 0 -35 -10t-23 -26t-13 -36
t-4 -40v-389zM239 527q0 5 -0.5 10.5t-0.5 10.5l-136 -478q8 -19 23.5 -31t38.5 -12q21 0 35.5 10t23 25.5t12.5 35.5t4 40v389z" />
    <glyph glyph-name="Ugrave" unicode="&#xd9;" horiz-adv-x="346" 
d="M288 665v-520q0 -75 -28.5 -115t-86.5 -40t-86.5 40t-28.5 115v520h40v-528q0 -20 4 -39.5t13 -35t23 -25.5t35 -10t35.5 10t23 25.5t12.5 35t4 39.5v528h40zM167 834l47 -133h-33l-57 133h43z" />
    <glyph glyph-name="Uacute" unicode="&#xda;" horiz-adv-x="346" 
d="M288 665v-520q0 -75 -28.5 -115t-86.5 -40t-86.5 40t-28.5 115v520h40v-528q0 -20 4 -39.5t13 -35t23 -25.5t35 -10t35.5 10t23 25.5t12.5 35t4 39.5v528h40zM225 834l-57 -133h-32l46 133h43z" />
    <glyph glyph-name="Ucircumflex" unicode="&#xdb;" horiz-adv-x="346" 
d="M288 665v-520q0 -75 -28.5 -115t-86.5 -40t-86.5 40t-28.5 115v520h40v-528q0 -20 4 -39.5t13 -35t23 -25.5t35 -10t35.5 10t23 25.5t12.5 35t4 39.5v528h40zM191 834l55 -133h-33l-40 103l-40 -103h-33l55 133h36z" />
    <glyph glyph-name="Udieresis" unicode="&#xdc;" horiz-adv-x="346" 
d="M288 665v-520q0 -75 -28.5 -115t-86.5 -40t-86.5 40t-28.5 115v520h40v-528q0 -20 4 -39.5t13 -35t23 -25.5t35 -10t35.5 10t23 25.5t12.5 35t4 39.5v528h40zM122 799q13 0 21 -7.5t8 -21.5t-8 -22t-21 -8q-29 0 -29 30q0 29 29 29zM225 799q13 0 21 -7.5t8 -21.5t-8 -22
t-21 -8q-29 0 -29 30q0 29 29 29z" />
    <glyph glyph-name="Yacute" unicode="&#xdd;" horiz-adv-x="321" 
d="M180 224v-224h-40v224l-114 441h41l92 -386h3l92 386h41zM212 834l-57 -133h-32l46 133h43z" />
    <glyph glyph-name="Thorn" unicode="&#xde;" horiz-adv-x="326" 
d="M285 299q0 -77 -28.5 -116.5t-86.5 -39.5h-70v-143h-41v665h41v-144h70q58 0 86.5 -39.5t28.5 -116.5v-66zM245 374q0 21 -4 40.5t-13 35.5t-23.5 25.5t-35.5 9.5h-69v-306h69q21 0 35.5 10t23.5 25.5t13 35.5t4 41v83z" />
    <glyph glyph-name="germandbls" unicode="&#xdf;" horiz-adv-x="321" 
d="M99 -75l-4 -55h-36v684q0 76 24.5 116t81.5 40t81.5 -40t24.5 -116v-19q0 -54 -16.5 -86.5t-44.5 -49.5q28 -14 44.5 -51t16.5 -89v-114q0 -70 -23 -111.5t-75 -41.5h-19v36h16q28 0 44.5 27t16.5 81v137q0 18 -4 36.5t-12.5 34t-21 25t-29.5 9.5h-18v36h18q18 0 30.5 10
t20.5 25.5t12 34.5t4 37v43q0 20 -2.5 40t-9.5 36t-20 26t-33 10q-21 0 -34 -10t-20.5 -26t-10 -36t-2.5 -40v-639z" />
    <glyph glyph-name="agrave" unicode="&#xe0;" horiz-adv-x="315" 
d="M47 373v13q0 25 5.5 48.5t17.5 41t31.5 28t48.5 10.5q57 0 81.5 -39.5t24.5 -116.5v-285q0 -27 8 -35.5t22 -11.5v-36q-35 2 -48.5 19t-17.5 45q-12 -29 -33 -46.5t-53 -17.5q-44 0 -67 32.5t-23 95.5v44q0 26 5.5 49.5t17.5 41t30.5 27.5t45.5 10q18 0 37 -5t36 -17v100
q0 20 -2.5 40t-10 36t-20 26t-33.5 10q-35 0 -50.5 -27.5t-15.5 -66.5v-13h-37zM216 241q-14 8 -27.5 12.5t-33.5 4.5q-42 0 -56.5 -27.5t-14.5 -84.5v-11q0 -52 12.5 -81.5t52.5 -29.5q23 0 40 18t27 42v157zM148 679l47 -133h-33l-57 133h43z" />
    <glyph glyph-name="aacute" unicode="&#xe1;" horiz-adv-x="315" 
d="M47 373v13q0 25 5.5 48.5t17.5 41t31.5 28t48.5 10.5q57 0 81.5 -39.5t24.5 -116.5v-285q0 -27 8 -35.5t22 -11.5v-36q-35 2 -48.5 19t-17.5 45q-12 -29 -33 -46.5t-53 -17.5q-44 0 -67 32.5t-23 95.5v44q0 26 5.5 49.5t17.5 41t30.5 27.5t45.5 10q18 0 37 -5t36 -17v100
q0 20 -2.5 40t-10 36t-20 26t-33.5 10q-35 0 -50.5 -27.5t-15.5 -66.5v-13h-37zM216 241q-14 8 -27.5 12.5t-33.5 4.5q-42 0 -56.5 -27.5t-14.5 -84.5v-11q0 -52 12.5 -81.5t52.5 -29.5q23 0 40 18t27 42v157zM206 679l-57 -133h-32l46 133h43z" />
    <glyph glyph-name="acircumflex" unicode="&#xe2;" horiz-adv-x="315" 
d="M47 373v13q0 25 5.5 48.5t17.5 41t31.5 28t48.5 10.5q57 0 81.5 -39.5t24.5 -116.5v-285q0 -27 8 -35.5t22 -11.5v-36q-35 2 -48.5 19t-17.5 45q-12 -29 -33 -46.5t-53 -17.5q-44 0 -67 32.5t-23 95.5v44q0 26 5.5 49.5t17.5 41t30.5 27.5t45.5 10q18 0 37 -5t36 -17v100
q0 20 -2.5 40t-10 36t-20 26t-33.5 10q-35 0 -50.5 -27.5t-15.5 -66.5v-13h-37zM216 241q-14 8 -27.5 12.5t-33.5 4.5q-42 0 -56.5 -27.5t-14.5 -84.5v-11q0 -52 12.5 -81.5t52.5 -29.5q23 0 40 18t27 42v157zM172 679l55 -133h-33l-40 103l-40 -103h-33l55 133h36z" />
    <glyph glyph-name="atilde" unicode="&#xe3;" horiz-adv-x="315" 
d="M47 373v13q0 25 5.5 48.5t17.5 41t31.5 28t48.5 10.5q57 0 81.5 -39.5t24.5 -116.5v-285q0 -27 8 -35.5t22 -11.5v-36q-35 2 -48.5 19t-17.5 45q-12 -29 -33 -46.5t-53 -17.5q-44 0 -67 32.5t-23 95.5v44q0 26 5.5 49.5t17.5 41t30.5 27.5t45.5 10q18 0 37 -5t36 -17v100
q0 20 -2.5 40t-10 36t-20 26t-33.5 10q-35 0 -50.5 -27.5t-15.5 -66.5v-13h-37zM216 241q-14 8 -27.5 12.5t-33.5 4.5q-42 0 -56.5 -27.5t-14.5 -84.5v-11q0 -52 12.5 -81.5t52.5 -29.5q23 0 40 18t27 42v157zM59 572q0 25 4 41.5t11 25.5t16 12.5t19 3.5q16 0 28 -7.5
t22 -17t19 -17t19 -7.5t15.5 8.5t5.5 39.5v3h33v-3q0 -50 -15 -66.5t-34 -16.5q-15 0 -27.5 8t-23 17.5t-19.5 17.5t-18 8q-10 0 -16 -9t-6 -41v-3h-33v3z" />
    <glyph glyph-name="adieresis" unicode="&#xe4;" horiz-adv-x="315" 
d="M47 373v13q0 25 5.5 48.5t17.5 41t31.5 28t48.5 10.5q57 0 81.5 -39.5t24.5 -116.5v-285q0 -27 8 -35.5t22 -11.5v-36q-35 2 -48.5 19t-17.5 45q-12 -29 -33 -46.5t-53 -17.5q-44 0 -67 32.5t-23 95.5v44q0 26 5.5 49.5t17.5 41t30.5 27.5t45.5 10q18 0 37 -5t36 -17v100
q0 20 -2.5 40t-10 36t-20 26t-33.5 10q-35 0 -50.5 -27.5t-15.5 -66.5v-13h-37zM216 241q-14 8 -27.5 12.5t-33.5 4.5q-42 0 -56.5 -27.5t-14.5 -84.5v-11q0 -52 12.5 -81.5t52.5 -29.5q23 0 40 18t27 42v157zM103 644q13 0 21 -7.5t8 -21.5t-8 -22t-21 -8q-29 0 -29 30
q0 29 29 29zM206 644q13 0 21 -7.5t8 -21.5t-8 -22t-21 -8q-29 0 -29 30q0 29 29 29z" />
    <glyph glyph-name="aring" unicode="&#xe5;" horiz-adv-x="315" 
d="M47 373v13q0 25 5.5 48.5t17.5 41t31.5 28t48.5 10.5q57 0 81.5 -39.5t24.5 -116.5v-285q0 -27 8 -35.5t22 -11.5v-36q-35 2 -48.5 19t-17.5 45q-12 -29 -33 -46.5t-53 -17.5q-44 0 -67 32.5t-23 95.5v44q0 26 5.5 49.5t17.5 41t30.5 27.5t45.5 10q18 0 37 -5t36 -17v100
q0 20 -2.5 40t-10 36t-20 26t-33.5 10q-35 0 -50.5 -27.5t-15.5 -66.5v-13h-37zM216 241q-14 8 -27.5 12.5t-33.5 4.5q-42 0 -56.5 -27.5t-14.5 -84.5v-11q0 -52 12.5 -81.5t52.5 -29.5q23 0 40 18t27 42v157zM111 617q0 -18 12.5 -31t30.5 -13t30.5 13t12.5 31
q0 19 -12.5 31.5t-30.5 12.5t-30.5 -12.5t-12.5 -31.5zM81 617q0 31 21.5 52t51.5 21t51 -21t21 -52q0 -30 -21 -51.5t-51 -21.5t-51.5 21.5t-21.5 51.5z" />
    <glyph glyph-name="ae" unicode="&#xe6;" horiz-adv-x="473" 
d="M216 241q-14 8 -27.5 12.5t-33.5 4.5q-42 0 -56.5 -27.5t-14.5 -84.5v-11q0 -52 12.5 -81.5t52.5 -29.5q23 0 40 18t27 42v157zM256 136q0 -20 2.5 -40t10 -36t20 -26t33.5 -10q20 0 33 9.5t20.5 25t10.5 35.5t3 42v13h39v-11q0 -72 -25 -110t-79 -38q-33 0 -54.5 16
t-35.5 48q-15 -29 -40 -46.5t-56 -17.5q-45 0 -69.5 32.5t-24.5 95.5v41q0 27 5.5 51t17.5 42t31 28t46 10q17 0 36 -5t36 -16v99q0 20 -2.5 40t-10 36t-20 26t-33.5 10q-35 0 -50.5 -27.5t-15.5 -66.5v-13h-37v13q0 25 5.5 48.5t18 41t31.5 28t46 10.5q34 0 55.5 -17.5
t33.5 -47.5q22 65 87 65q54 0 79 -40.5t25 -115.5v-103h-172v-119zM388 368q0 20 -2.5 40t-10 36t-20.5 26t-33 10q-21 0 -33.5 -10t-20 -26t-10 -36t-2.5 -40v-79h132v79z" />
    <glyph glyph-name="ccedilla" unicode="&#xe7;" horiz-adv-x="300" 
d="M138 -9q-48 6 -68.5 45.5t-20.5 109.5v212q0 75 24.5 115.5t81.5 40.5q56 0 80 -38.5t24 -110.5v-18h-37v21q0 22 -2.5 42t-10 35.5t-20.5 25t-34 9.5t-33.5 -10t-20 -26t-10 -36t-2.5 -40v-232q0 -20 2.5 -40t10 -36t20 -26t33.5 -10t34 9.5t20.5 25t10 35.5t2.5 42v21
h37v-17q0 -69 -21.5 -107t-71.5 -42v-41h7q29 0 46.5 -16.5t17.5 -54.5t-17.5 -56.5t-49.5 -18.5q-31 0 -48.5 17t-17.5 55v2h30v-2q0 -23 9.5 -33.5t26.5 -10.5t26.5 11.5t9.5 35.5t-10 34.5t-30 10.5h-28v67z" />
    <glyph glyph-name="egrave" unicode="&#xe8;" horiz-adv-x="306" 
d="M89 289h132v79q0 20 -2.5 40t-10 36t-20 26t-33.5 10t-33.5 -10t-20 -26t-10 -36t-2.5 -40v-79zM223 149h38v-11q0 -72 -25 -110t-81 -38q-58 0 -82 40.5t-24 115.5v212q0 75 24.5 115.5t81.5 40.5t81.5 -40.5t24.5 -115.5v-103h-172v-119q0 -20 2.5 -40t10 -36t20 -26
t33.5 -10t34 9.5t20.5 25t10.5 35.5t3 42v13zM148 679l47 -133h-33l-57 133h43z" />
    <glyph glyph-name="eacute" unicode="&#xe9;" horiz-adv-x="306" 
d="M89 289h132v79q0 20 -2.5 40t-10 36t-20 26t-33.5 10t-33.5 -10t-20 -26t-10 -36t-2.5 -40v-79zM223 149h38v-11q0 -72 -25 -110t-81 -38q-58 0 -82 40.5t-24 115.5v212q0 75 24.5 115.5t81.5 40.5t81.5 -40.5t24.5 -115.5v-103h-172v-119q0 -20 2.5 -40t10 -36t20 -26
t33.5 -10t34 9.5t20.5 25t10.5 35.5t3 42v13zM206 679l-57 -133h-32l46 133h43z" />
    <glyph glyph-name="ecircumflex" unicode="&#xea;" horiz-adv-x="306" 
d="M89 289h132v79q0 20 -2.5 40t-10 36t-20 26t-33.5 10t-33.5 -10t-20 -26t-10 -36t-2.5 -40v-79zM223 149h38v-11q0 -72 -25 -110t-81 -38q-58 0 -82 40.5t-24 115.5v212q0 75 24.5 115.5t81.5 40.5t81.5 -40.5t24.5 -115.5v-103h-172v-119q0 -20 2.5 -40t10 -36t20 -26
t33.5 -10t34 9.5t20.5 25t10.5 35.5t3 42v13zM172 679l55 -133h-33l-40 103l-40 -103h-33l55 133h36z" />
    <glyph glyph-name="edieresis" unicode="&#xeb;" horiz-adv-x="306" 
d="M89 289h132v79q0 20 -2.5 40t-10 36t-20 26t-33.5 10t-33.5 -10t-20 -26t-10 -36t-2.5 -40v-79zM223 149h38v-11q0 -72 -25 -110t-81 -38q-58 0 -82 40.5t-24 115.5v212q0 75 24.5 115.5t81.5 40.5t81.5 -40.5t24.5 -115.5v-103h-172v-119q0 -20 2.5 -40t10 -36t20 -26
t33.5 -10t34 9.5t20.5 25t10.5 35.5t3 42v13zM103 644q13 0 21 -7.5t8 -21.5t-8 -22t-21 -8q-29 0 -29 30q0 29 29 29zM206 644q13 0 21 -7.5t8 -21.5t-8 -22t-21 -8q-29 0 -29 30q0 29 29 29z" />
    <glyph glyph-name="igrave" unicode="&#xec;" horiz-adv-x="158" 
d="M59 504h36l5 -55v-449h-41v504zM73 679l47 -133h-33l-57 133h43z" />
    <glyph glyph-name="iacute" unicode="&#xed;" horiz-adv-x="158" 
d="M59 504h36l5 -55v-449h-41v504zM131 679l-57 -133h-32l46 133h43z" />
    <glyph glyph-name="icircumflex" unicode="&#xee;" horiz-adv-x="158" 
d="M59 504h36l5 -55v-449h-41v504zM97 679l55 -133h-33l-40 103l-40 -103h-33l55 133h36z" />
    <glyph glyph-name="idieresis" unicode="&#xef;" horiz-adv-x="158" 
d="M59 504h36l5 -55v-449h-41v504zM28 644q13 0 21 -7.5t8 -21.5t-8 -22t-21 -8q-29 0 -29 30q0 29 29 29zM131 644q13 0 21 -7.5t8 -21.5t-8 -22t-21 -8q-29 0 -29 30q0 29 29 29z" />
    <glyph glyph-name="eth" unicode="&#xf0;" horiz-adv-x="310" 
d="M120 574l48 32q-14 17 -32 28t-40 11h-6v30h6q31 0 55 -13.5t43 -36.5l46 33l13 -17l-46 -32q28 -44 41 -109t13 -141v-213q0 -76 -24.5 -116t-81.5 -40t-81.5 40t-24.5 116v214q0 75 25 114.5t76 39.5q30 0 47 -13.5t27 -28.5q-6 33 -16 63.5t-26 54.5l-49 -33zM221 369
q0 21 -2.5 40.5t-10 35.5t-20 25.5t-33.5 9.5q-19 0 -31.5 -9t-20 -24t-11 -35.5t-3.5 -42.5v-234q0 -20 2.5 -40t10 -35.5t20 -25.5t33.5 -10t33.5 9.5t20 25.5t10 36t2.5 40v234z" />
    <glyph glyph-name="ntilde" unicode="&#xf1;" horiz-adv-x="326" 
d="M97 451q11 27 33.5 45t51.5 18q47 0 67.5 -39.5t20.5 -114.5v-360h-36l-4 55v313q0 22 -2.5 42.5t-9.5 36t-19 24.5t-31 9q-26 0 -43.5 -19.5t-25.5 -42.5v-418h-40v504h35zM67 572q0 25 4 41.5t11 25.5t16 12.5t19 3.5q16 0 28 -7.5t22 -17t19 -17t19 -7.5t15.5 8.5
t5.5 39.5v3h33v-3q0 -50 -15 -66.5t-34 -16.5q-15 0 -27.5 8t-23 17.5t-19.5 17.5t-18 8q-10 0 -16 -9t-6 -41v-3h-33v3z" />
    <glyph glyph-name="ograve" unicode="&#xf2;" horiz-adv-x="310" 
d="M261 146q0 -76 -24.5 -116t-81.5 -40t-81.5 40t-24.5 116v212q0 76 24.5 116t81.5 40t81.5 -40t24.5 -116v-212zM221 368q0 20 -2.5 40t-10 36t-20 26t-33.5 10t-33.5 -10t-20 -26t-10 -36t-2.5 -40v-232q0 -20 2.5 -40t10 -36t20 -26t33.5 -10t33.5 10t20 26t10 36
t2.5 40v232zM149 679l47 -133h-33l-57 133h43z" />
    <glyph glyph-name="oacute" unicode="&#xf3;" horiz-adv-x="310" 
d="M261 146q0 -76 -24.5 -116t-81.5 -40t-81.5 40t-24.5 116v212q0 76 24.5 116t81.5 40t81.5 -40t24.5 -116v-212zM221 368q0 20 -2.5 40t-10 36t-20 26t-33.5 10t-33.5 -10t-20 -26t-10 -36t-2.5 -40v-232q0 -20 2.5 -40t10 -36t20 -26t33.5 -10t33.5 10t20 26t10 36
t2.5 40v232zM207 679l-57 -133h-32l46 133h43z" />
    <glyph glyph-name="ocircumflex" unicode="&#xf4;" horiz-adv-x="310" 
d="M261 146q0 -76 -24.5 -116t-81.5 -40t-81.5 40t-24.5 116v212q0 76 24.5 116t81.5 40t81.5 -40t24.5 -116v-212zM221 368q0 20 -2.5 40t-10 36t-20 26t-33.5 10t-33.5 -10t-20 -26t-10 -36t-2.5 -40v-232q0 -20 2.5 -40t10 -36t20 -26t33.5 -10t33.5 10t20 26t10 36
t2.5 40v232zM173 679l55 -133h-33l-40 103l-40 -103h-33l55 133h36z" />
    <glyph glyph-name="otilde" unicode="&#xf5;" horiz-adv-x="310" 
d="M261 146q0 -76 -24.5 -116t-81.5 -40t-81.5 40t-24.5 116v212q0 76 24.5 116t81.5 40t81.5 -40t24.5 -116v-212zM221 368q0 20 -2.5 40t-10 36t-20 26t-33.5 10t-33.5 -10t-20 -26t-10 -36t-2.5 -40v-232q0 -20 2.5 -40t10 -36t20 -26t33.5 -10t33.5 10t20 26t10 36
t2.5 40v232zM59 572q0 25 4 41.5t11 25.5t16 12.5t19 3.5q16 0 28 -7.5t22 -17t19 -17t19 -7.5t15.5 8.5t5.5 39.5v3h33v-3q0 -50 -15 -66.5t-34 -16.5q-15 0 -27.5 8t-23 17.5t-19.5 17.5t-18 8q-10 0 -16 -9t-6 -41v-3h-33v3z" />
    <glyph glyph-name="odieresis" unicode="&#xf6;" horiz-adv-x="310" 
d="M261 146q0 -76 -24.5 -116t-81.5 -40t-81.5 40t-24.5 116v212q0 76 24.5 116t81.5 40t81.5 -40t24.5 -116v-212zM221 368q0 20 -2.5 40t-10 36t-20 26t-33.5 10t-33.5 -10t-20 -26t-10 -36t-2.5 -40v-232q0 -20 2.5 -40t10 -36t20 -26t33.5 -10t33.5 10t20 26t10 36
t2.5 40v232zM104 644q13 0 21 -7.5t8 -21.5t-8 -22t-21 -8q-29 0 -29 30q0 29 29 29zM207 644q13 0 21 -7.5t8 -21.5t-8 -22t-21 -8q-29 0 -29 30q0 29 29 29z" />
    <glyph glyph-name="divide" unicode="&#xf7;" horiz-adv-x="314" 
d="M126 208q0 14 8.5 22.5t22.5 8.5t22.5 -8.5t8.5 -22.5t-8.5 -22.5t-22.5 -8.5t-22.5 8.5t-8.5 22.5zM126 396q0 14 8.5 22.5t22.5 8.5t22.5 -8.5t8.5 -22.5t-8.5 -22.5t-22.5 -8.5t-22.5 8.5t-8.5 22.5zM38 321h238v-38h-238v38z" />
    <glyph glyph-name="oslash" unicode="&#xf8;" horiz-adv-x="310" 
d="M261 146q0 -76 -24.5 -116t-81.5 -40q-43 0 -70 25l-16 -47l-21 7l21 62q-20 37 -20 109v212q0 76 24.5 116t81.5 40q44 0 69 -25l15 43l21 -7l-20 -58q11 -20 16 -47t5 -62v-212zM221 368q0 9 -0.5 18.5t-1.5 18.5l-118 -344q7 -17 20 -27t34 -10t33.5 10t20 26t10 36
t2.5 40v232zM89 136v-18t2 -18l118 344q-8 16 -21 26t-33 10q-21 0 -33.5 -10t-20 -26t-10 -36t-2.5 -40v-232z" />
    <glyph glyph-name="ugrave" unicode="&#xf9;" horiz-adv-x="326" 
d="M56 504h40v-368q0 -23 2.5 -43t9.5 -35.5t19.5 -24.5t32.5 -9q23 0 40 18.5t27 41.5v420h40v-430q0 -21 6 -34.5t24 -13.5v-36q-35 0 -48.5 17.5t-17.5 46.5q-13 -29 -33.5 -46.5t-52.5 -17.5q-89 0 -89 150v364zM157 679l47 -133h-33l-57 133h43z" />
    <glyph glyph-name="uacute" unicode="&#xfa;" horiz-adv-x="326" 
d="M56 504h40v-368q0 -23 2.5 -43t9.5 -35.5t19.5 -24.5t32.5 -9q23 0 40 18.5t27 41.5v420h40v-430q0 -21 6 -34.5t24 -13.5v-36q-35 0 -48.5 17.5t-17.5 46.5q-13 -29 -33.5 -46.5t-52.5 -17.5q-89 0 -89 150v364zM215 679l-57 -133h-32l46 133h43z" />
    <glyph glyph-name="ucircumflex" unicode="&#xfb;" horiz-adv-x="326" 
d="M56 504h40v-368q0 -23 2.5 -43t9.5 -35.5t19.5 -24.5t32.5 -9q23 0 40 18.5t27 41.5v420h40v-430q0 -21 6 -34.5t24 -13.5v-36q-35 0 -48.5 17.5t-17.5 46.5q-13 -29 -33.5 -46.5t-52.5 -17.5q-89 0 -89 150v364zM181 679l55 -133h-33l-40 103l-40 -103h-33l55 133h36z
" />
    <glyph glyph-name="udieresis" unicode="&#xfc;" horiz-adv-x="326" 
d="M56 504h40v-368q0 -23 2.5 -43t9.5 -35.5t19.5 -24.5t32.5 -9q23 0 40 18.5t27 41.5v420h40v-430q0 -21 6 -34.5t24 -13.5v-36q-35 0 -48.5 17.5t-17.5 46.5q-13 -29 -33.5 -46.5t-52.5 -17.5q-89 0 -89 150v364zM112 644q13 0 21 -7.5t8 -21.5t-8 -22t-21 -8
q-29 0 -29 30q0 29 29 29zM215 644q13 0 21 -7.5t8 -21.5t-8 -22t-21 -8q-29 0 -29 30q0 29 29 29z" />
    <glyph glyph-name="yacute" unicode="&#xfd;" horiz-adv-x="277" 
d="M32 504h40l68 -444h2l72 444h40l-106 -566q-13 -70 -42 -108.5t-83 -38.5v36q29 0 55 26t37 88l7 44zM210 679l-57 -133h-32l46 133h43z" />
    <glyph glyph-name="thorn" unicode="&#xfe;" horiz-adv-x="320" 
d="M99 68q6 -15 22.5 -29.5t42.5 -14.5q37 0 52 33t15 80v233q0 20 -2.5 40t-10 35.5t-20.5 25t-34 9.5q-24 0 -40.5 -18.5t-24.5 -41.5v-352zM99 -210h-40v920h36l4 -55v-203q11 28 31.5 45t48.5 17q92 0 92 -152v-218q0 -75 -24 -114.5t-75 -39.5q-27 0 -45 11.5t-28 26.5
v-238z" />
    <glyph glyph-name="ydieresis" unicode="&#xff;" horiz-adv-x="277" 
d="M32 504h40l68 -444h2l72 444h40l-106 -566q-13 -70 -42 -108.5t-83 -38.5v36q29 0 55 26t37 88l7 44zM87 644q13 0 21 -7.5t8 -21.5t-8 -22t-21 -8q-29 0 -29 30q0 29 29 29zM190 644q13 0 21 -7.5t8 -21.5t-8 -22t-21 -8q-29 0 -29 30q0 29 29 29z" />
    <glyph glyph-name="Amacron" unicode="&#x100;" horiz-adv-x="332" 
d="M25 0l117 665h49l116 -665h-41l-30 185h-141l-30 -185h-40zM101 221h130l-64 389h-3zM89 788h153v-36h-153v36z" />
    <glyph glyph-name="amacron" unicode="&#x101;" horiz-adv-x="315" 
d="M47 373v13q0 25 5.5 48.5t17.5 41t31.5 28t48.5 10.5q57 0 81.5 -39.5t24.5 -116.5v-285q0 -27 8 -35.5t22 -11.5v-36q-35 2 -48.5 19t-17.5 45q-12 -29 -33 -46.5t-53 -17.5q-44 0 -67 32.5t-23 95.5v44q0 26 5.5 49.5t17.5 41t30.5 27.5t45.5 10q18 0 37 -5t36 -17v100
q0 20 -2.5 40t-10 36t-20 26t-33.5 10q-35 0 -50.5 -27.5t-15.5 -66.5v-13h-37zM216 241q-14 8 -27.5 12.5t-33.5 4.5q-42 0 -56.5 -27.5t-14.5 -84.5v-11q0 -52 12.5 -81.5t52.5 -29.5q23 0 40 18t27 42v157zM81 633h153v-36h-153v36z" />
    <glyph glyph-name="Abreve" unicode="&#x102;" horiz-adv-x="332" 
d="M25 0l117 665h49l116 -665h-41l-30 185h-141l-30 -185h-40zM101 221h130l-64 389h-3zM242 815v-12q0 -36 -20 -57.5t-56 -21.5q-37 0 -57.5 21.5t-20.5 57.5v12h35v-12q0 -47 43 -47t43 47v12h33z" />
    <glyph glyph-name="abreve" unicode="&#x103;" horiz-adv-x="315" 
d="M47 373v13q0 25 5.5 48.5t17.5 41t31.5 28t48.5 10.5q57 0 81.5 -39.5t24.5 -116.5v-285q0 -27 8 -35.5t22 -11.5v-36q-35 2 -48.5 19t-17.5 45q-12 -29 -33 -46.5t-53 -17.5q-44 0 -67 32.5t-23 95.5v44q0 26 5.5 49.5t17.5 41t30.5 27.5t45.5 10q18 0 37 -5t36 -17v100
q0 20 -2.5 40t-10 36t-20 26t-33.5 10q-35 0 -50.5 -27.5t-15.5 -66.5v-13h-37zM216 241q-14 8 -27.5 12.5t-33.5 4.5q-42 0 -56.5 -27.5t-14.5 -84.5v-11q0 -52 12.5 -81.5t52.5 -29.5q23 0 40 18t27 42v157zM230 660v-12q0 -36 -20 -57.5t-56 -21.5q-37 0 -57.5 21.5
t-20.5 57.5v12h35v-12q0 -47 43 -47t43 47v12h33z" />
    <glyph glyph-name="Aogonek" unicode="&#x104;" horiz-adv-x="332" 
d="M25 0l117 665h49l116 -665h-10q-40 -20 -62 -53.5t-22 -71.5q0 -20 8 -30t22 -10t22 9.5t8 33.5v4h30v-4q0 -34 -15 -53.5t-45 -19.5q-31 0 -46 18t-15 49q0 43 22.5 77.5t60.5 56.5l-29 179h-141l-30 -185h-40zM101 221h130l-64 389h-3z" />
    <glyph glyph-name="aogonek" unicode="&#x105;" horiz-adv-x="315" 
d="M47 373v13q0 25 5.5 48.5t17.5 41t31.5 28t48.5 10.5q57 0 81.5 -39.5t24.5 -116.5v-285q0 -27 8 -35.5t22 -11.5v-36q-17 2 -25 4q-35 -20 -53.5 -51.5t-18.5 -67.5q0 -40 30 -40q14 0 22 9.5t8 33.5v4h30v-4q0 -34 -15.5 -53.5t-45.5 -19.5t-45.5 18t-15.5 49
q0 43 22.5 77.5t60.5 56.5q-9 8 -13.5 20.5t-6.5 27.5q-12 -29 -32.5 -46.5t-51.5 -17.5q-45 0 -68.5 32.5t-23.5 95.5v44q0 26 5.5 49.5t17.5 41t30.5 27.5t45.5 10q18 0 37 -5t36 -17v100q0 20 -2.5 40t-10 36t-20 26t-33.5 10q-35 0 -50.5 -27.5t-15.5 -66.5v-13h-37z
M216 241q-14 8 -27.5 12.5t-33.5 4.5q-42 0 -56.5 -27.5t-14.5 -84.5v-11q0 -52 12.5 -81.5t52.5 -29.5q23 0 40 18t27 42v157z" />
    <glyph glyph-name="Cacute" unicode="&#x106;" horiz-adv-x="312" 
d="M240 510v18q0 19 -4 39t-13 36t-23 26t-35 10t-35 -10t-23 -26t-13 -36t-4 -39v-390q0 -20 4 -39.5t13 -35.5t23 -26t35 -10t35 10t23 25.5t13 35.5t4 40v17h40v-8q0 -77 -29 -117t-86 -40q-58 0 -86.5 40t-28.5 115v375q0 75 28.5 115t86.5 40q57 0 86 -40t29 -115v-10
h-40zM216 834l-57 -133h-32l46 133h43z" />
    <glyph glyph-name="cacute" unicode="&#x107;" horiz-adv-x="300" 
d="M222 347v21q0 22 -2.5 42t-10 35.5t-20.5 25t-34 9.5t-33.5 -10t-20 -26t-10 -36t-2.5 -40v-232q0 -20 2.5 -40t10 -36t20 -26t33.5 -10t34 9.5t20.5 25t10 35.5t2.5 42v21h37v-17q0 -73 -24 -111.5t-80 -38.5q-57 0 -81.5 40.5t-24.5 115.5v212q0 75 24.5 115.5
t81.5 40.5q56 0 80 -38.5t24 -110.5v-18h-37zM202 679l-57 -133h-32l46 133h43z" />
    <glyph glyph-name="Ccircumflex" unicode="&#x108;" horiz-adv-x="312" 
d="M240 510v18q0 19 -4 39t-13 36t-23 26t-35 10t-35 -10t-23 -26t-13 -36t-4 -39v-390q0 -20 4 -39.5t13 -35.5t23 -26t35 -10t35 10t23 25.5t13 35.5t4 40v17h40v-8q0 -77 -29 -117t-86 -40q-58 0 -86.5 40t-28.5 115v375q0 75 28.5 115t86.5 40q57 0 86 -40t29 -115v-10
h-40zM182 834l55 -133h-33l-40 103l-40 -103h-33l55 133h36z" />
    <glyph glyph-name="ccircumflex" unicode="&#x109;" horiz-adv-x="300" 
d="M222 347v21q0 22 -2.5 42t-10 35.5t-20.5 25t-34 9.5t-33.5 -10t-20 -26t-10 -36t-2.5 -40v-232q0 -20 2.5 -40t10 -36t20 -26t33.5 -10t34 9.5t20.5 25t10 35.5t2.5 42v21h37v-17q0 -73 -24 -111.5t-80 -38.5q-57 0 -81.5 40.5t-24.5 115.5v212q0 75 24.5 115.5
t81.5 40.5q56 0 80 -38.5t24 -110.5v-18h-37zM169 679l55 -133h-33l-40 103l-40 -103h-33l55 133h36z" />
    <glyph glyph-name="Cdotaccent" unicode="&#x10a;" horiz-adv-x="312" 
d="M240 510v18q0 19 -4 39t-13 36t-23 26t-35 10t-35 -10t-23 -26t-13 -36t-4 -39v-390q0 -20 4 -39.5t13 -35.5t23 -26t35 -10t35 10t23 25.5t13 35.5t4 40v17h40v-8q0 -77 -29 -117t-86 -40q-58 0 -86.5 40t-28.5 115v375q0 75 28.5 115t86.5 40q57 0 86 -40t29 -115v-10
h-40zM165 801q14 0 22.5 -8t8.5 -23t-8.5 -23t-22.5 -8t-22.5 8t-8.5 23t8.5 23t22.5 8z" />
    <glyph glyph-name="cdotaccent" unicode="&#x10b;" horiz-adv-x="300" 
d="M222 347v21q0 22 -2.5 42t-10 35.5t-20.5 25t-34 9.5t-33.5 -10t-20 -26t-10 -36t-2.5 -40v-232q0 -20 2.5 -40t10 -36t20 -26t33.5 -10t34 9.5t20.5 25t10 35.5t2.5 42v21h37v-17q0 -73 -24 -111.5t-80 -38.5q-57 0 -81.5 40.5t-24.5 115.5v212q0 75 24.5 115.5
t81.5 40.5q56 0 80 -38.5t24 -110.5v-18h-37zM151 646q14 0 22.5 -8t8.5 -23t-8.5 -23t-22.5 -8t-22.5 8t-8.5 23t8.5 23t22.5 8z" />
    <glyph glyph-name="Ccaron" unicode="&#x10c;" horiz-adv-x="312" 
d="M240 510v18q0 19 -4 39t-13 36t-23 26t-35 10t-35 -10t-23 -26t-13 -36t-4 -39v-390q0 -20 4 -39.5t13 -35.5t23 -26t35 -10t35 10t23 25.5t13 35.5t4 40v17h40v-8q0 -77 -29 -117t-86 -40q-58 0 -86.5 40t-28.5 115v375q0 75 28.5 115t86.5 40q57 0 86 -40t29 -115v-10
h-40zM146 701l-54 133h32l40 -104l40 104h32l-54 -133h-36z" />
    <glyph glyph-name="ccaron" unicode="&#x10d;" horiz-adv-x="300" 
d="M222 347v21q0 22 -2.5 42t-10 35.5t-20.5 25t-34 9.5t-33.5 -10t-20 -26t-10 -36t-2.5 -40v-232q0 -20 2.5 -40t10 -36t20 -26t33.5 -10t34 9.5t20.5 25t10 35.5t2.5 42v21h37v-17q0 -73 -24 -111.5t-80 -38.5q-57 0 -81.5 40.5t-24.5 115.5v212q0 75 24.5 115.5
t81.5 40.5q56 0 80 -38.5t24 -110.5v-18h-37zM132 546l-54 133h32l40 -104l40 104h32l-54 -133h-36z" />
    <glyph glyph-name="Dcaron" unicode="&#x10e;" horiz-adv-x="340" 
d="M290 156q0 -76 -28.5 -116t-86.5 -40h-116v665h116q58 0 86.5 -40t28.5 -116v-353zM250 519q0 19 -4 38.5t-13 35.5t-23 25.5t-35 9.5h-76v-592h76q21 0 35 9.5t23 25.5t13 36t4 40v372zM152 701l-54 133h32l40 -104l40 104h32l-54 -133h-36z" />
    <glyph glyph-name="dcaron" unicode="&#x10f;" horiz-adv-x="357" 
d="M221 435q-7 15 -23 30t-42 15q-19 0 -32 -9t-20.5 -24.5t-11 -36t-3.5 -42.5v-233q0 -21 2.5 -41t10 -35.5t20.5 -25t33 -9.5q24 0 40.5 18.5t25.5 42.5v350zM261 73q0 -26 7 -36.5t24 -10.5v-36q-35 0 -49 17t-18 46q-11 -26 -31 -44.5t-51 -18.5q-46 0 -70 38.5
t-24 112.5v221q0 75 23 113.5t74 38.5q28 0 46.5 -13.5t28.5 -31.5v241h36l4 -55v-582zM331 572h-21l16 117h37z" />
    <glyph glyph-name="Dcroat" unicode="&#x110;" horiz-adv-x="345" 
d="M19 350h45v315h116q58 0 86.5 -40t28.5 -116v-353q0 -76 -28.5 -116t-86.5 -40h-116v314h-45v36zM255 519q0 19 -4 38.5t-13 35.5t-23 25.5t-35 9.5h-76v-278h73v-36h-73v-278h76q21 0 35 9.5t23 25.5t13 36t4 40v372z" />
    <glyph glyph-name="dcroat" unicode="&#x111;" horiz-adv-x="321" 
d="M261 624h31v-29h-31v-522q0 -26 7 -36.5t24 -10.5v-36q-35 0 -49 17t-18 46q-11 -26 -31 -44.5t-51 -18.5q-46 0 -70 38.5t-24 112.5v221q0 75 23 113.5t74 38.5q28 0 46.5 -13.5t28.5 -31.5v126h-110v29h110v86h36l4 -55v-31zM221 435q-7 15 -23 30t-42 15q-19 0 -32 -9
t-20.5 -24.5t-11 -36t-3.5 -42.5v-233q0 -21 2.5 -41t10 -35.5t20.5 -25t33 -9.5q24 0 40.5 18.5t25.5 42.5v350z" />
    <glyph glyph-name="Emacron" unicode="&#x112;" horiz-adv-x="284" 
d="M260 628h-161v-252h135v-36h-135v-304h161v-36h-201v665h201v-37zM81 788h153v-36h-153v36z" />
    <glyph glyph-name="emacron" unicode="&#x113;" horiz-adv-x="306" 
d="M89 289h132v79q0 20 -2.5 40t-10 36t-20 26t-33.5 10t-33.5 -10t-20 -26t-10 -36t-2.5 -40v-79zM223 149h38v-11q0 -72 -25 -110t-81 -38q-58 0 -82 40.5t-24 115.5v212q0 75 24.5 115.5t81.5 40.5t81.5 -40.5t24.5 -115.5v-103h-172v-119q0 -20 2.5 -40t10 -36t20 -26
t33.5 -10t34 9.5t20.5 25t10.5 35.5t3 42v13zM77 633h153v-36h-153v36z" />
    <glyph glyph-name="Ebreve" unicode="&#x114;" horiz-adv-x="284" 
d="M260 628h-161v-252h135v-36h-135v-304h161v-36h-201v665h201v-37zM234 815v-12q0 -36 -20 -57.5t-56 -21.5q-37 0 -57.5 21.5t-20.5 57.5v12h35v-12q0 -47 43 -47t43 47v12h33z" />
    <glyph glyph-name="ebreve" unicode="&#x115;" horiz-adv-x="306" 
d="M89 289h132v79q0 20 -2.5 40t-10 36t-20 26t-33.5 10t-33.5 -10t-20 -26t-10 -36t-2.5 -40v-79zM223 149h38v-11q0 -72 -25 -110t-81 -38q-58 0 -82 40.5t-24 115.5v212q0 75 24.5 115.5t81.5 40.5t81.5 -40.5t24.5 -115.5v-103h-172v-119q0 -20 2.5 -40t10 -36t20 -26
t33.5 -10t34 9.5t20.5 25t10.5 35.5t3 42v13zM230 660v-12q0 -36 -20 -57.5t-56 -21.5q-37 0 -57.5 21.5t-20.5 57.5v12h35v-12q0 -47 43 -47t43 47v12h33z" />
    <glyph glyph-name="Edotaccent" unicode="&#x116;" horiz-adv-x="284" 
d="M260 628h-161v-252h135v-36h-135v-304h161v-36h-201v665h201v-37zM158 801q14 0 22.5 -8t8.5 -23t-8.5 -23t-22.5 -8t-22.5 8t-8.5 23t8.5 23t22.5 8z" />
    <glyph glyph-name="edotaccent" unicode="&#x117;" horiz-adv-x="306" 
d="M89 289h132v79q0 20 -2.5 40t-10 36t-20 26t-33.5 10t-33.5 -10t-20 -26t-10 -36t-2.5 -40v-79zM223 149h38v-11q0 -72 -25 -110t-81 -38q-58 0 -82 40.5t-24 115.5v212q0 75 24.5 115.5t81.5 40.5t81.5 -40.5t24.5 -115.5v-103h-172v-119q0 -20 2.5 -40t10 -36t20 -26
t33.5 -10t34 9.5t20.5 25t10.5 35.5t3 42v13zM154 646q14 0 22.5 -8t8.5 -23t-8.5 -23t-22.5 -8t-22.5 8t-8.5 23t8.5 23t22.5 8z" />
    <glyph glyph-name="Eogonek" unicode="&#x118;" horiz-adv-x="284" 
d="M260 628h-161v-252h135v-36h-135v-304h161v-36h-6q-40 -20 -62 -53.5t-22 -71.5q0 -20 8 -30t22 -10t22 9.5t8 33.5v4h30v-4q0 -34 -15 -53.5t-45 -19.5q-31 0 -46 18t-15 49q0 40 20 73t53 55h-153v665h201v-37z" />
    <glyph glyph-name="eogonek" unicode="&#x119;" horiz-adv-x="306" 
d="M223 149h38v-11q0 -48 -11.5 -82t-34.5 -51q-37 -26 -58 -59t-21 -71q0 -40 30 -40q14 0 22 9.5t8 33.5v4h30v-4q0 -34 -15.5 -53.5t-45.5 -19.5t-45.5 18t-15.5 49q0 36 16 65.5t44 52.5h-9q-58 0 -82 40.5t-24 115.5v212q0 75 24.5 115.5t81.5 40.5t81.5 -40.5
t24.5 -115.5v-103h-172v-119q0 -20 2.5 -40t10 -36t20 -26t33.5 -10t34 9.5t20.5 25t10.5 35.5t3 42v13zM89 289h132v79q0 20 -2.5 40t-10 36t-20 26t-33.5 10t-33.5 -10t-20 -26t-10 -36t-2.5 -40v-79z" />
    <glyph glyph-name="Ecaron" unicode="&#x11a;" horiz-adv-x="284" 
d="M260 628h-161v-252h135v-36h-135v-304h161v-36h-201v665h201v-37zM140 701l-54 133h32l40 -104l40 104h32l-54 -133h-36z" />
    <glyph glyph-name="ecaron" unicode="&#x11b;" horiz-adv-x="306" 
d="M89 289h132v79q0 20 -2.5 40t-10 36t-20 26t-33.5 10t-33.5 -10t-20 -26t-10 -36t-2.5 -40v-79zM223 149h38v-11q0 -72 -25 -110t-81 -38q-58 0 -82 40.5t-24 115.5v212q0 75 24.5 115.5t81.5 40.5t81.5 -40.5t24.5 -115.5v-103h-172v-119q0 -20 2.5 -40t10 -36t20 -26
t33.5 -10t34 9.5t20.5 25t10.5 35.5t3 42v13zM136 546l-54 133h32l40 -104l40 104h32l-54 -133h-36z" />
    <glyph glyph-name="Gcircumflex" unicode="&#x11c;" horiz-adv-x="327" 
d="M176 335v36h105v-226q0 -75 -29 -115t-87 -40t-87 40t-29 115v375q0 75 29.5 115t86.5 40q116 0 116 -154v-9h-40v15q0 22 -4 42t-13 35.5t-23.5 25t-35.5 9.5t-35.5 -9t-23.5 -24.5t-13 -36t-4 -42.5v-389q0 -20 4 -40t13 -35.5t23.5 -25.5t35.5 -10t35.5 9.5t23.5 25
t13 35.5t4 41v197h-65zM182 834l55 -133h-33l-40 103l-40 -103h-33l55 133h36z" />
    <glyph glyph-name="gcircumflex" unicode="&#x11d;" horiz-adv-x="317" 
d="M221 436q-6 16 -22.5 30t-42.5 14q-19 0 -32 -9t-20.5 -24.5t-11 -36t-3.5 -42.5v-232q0 -21 2.5 -41t10 -36t20 -25.5t33.5 -9.5q23 0 39.5 18.5t26.5 42.5v351zM90 -90v-9q0 -34 17 -55.5t48 -21.5q21 0 33.5 9t20 24.5t10 36t2.5 43.5v113q-12 -26 -31 -43t-49 -17
q-92 0 -92 156v212q0 75 23.5 115.5t77.5 40.5q32 0 50 -15t28 -32l6 37h27v-557q0 -76 -24.5 -116.5t-81.5 -40.5q-48 0 -75.5 28t-27.5 82v10h38zM177 679l55 -133h-33l-40 103l-40 -103h-33l55 133h36z" />
    <glyph glyph-name="Gbreve" unicode="&#x11e;" horiz-adv-x="327" 
d="M176 335v36h105v-226q0 -75 -29 -115t-87 -40t-87 40t-29 115v375q0 75 29.5 115t86.5 40q116 0 116 -154v-9h-40v15q0 22 -4 42t-13 35.5t-23.5 25t-35.5 9.5t-35.5 -9t-23.5 -24.5t-13 -36t-4 -42.5v-389q0 -20 4 -40t13 -35.5t23.5 -25.5t35.5 -10t35.5 9.5t23.5 25
t13 35.5t4 41v197h-65zM240 815v-12q0 -36 -20 -57.5t-56 -21.5q-37 0 -57.5 21.5t-20.5 57.5v12h35v-12q0 -47 43 -47t43 47v12h33z" />
    <glyph glyph-name="gbreve" unicode="&#x11f;" horiz-adv-x="317" 
d="M221 436q-6 16 -22.5 30t-42.5 14q-19 0 -32 -9t-20.5 -24.5t-11 -36t-3.5 -42.5v-232q0 -21 2.5 -41t10 -36t20 -25.5t33.5 -9.5q23 0 39.5 18.5t26.5 42.5v351zM90 -90v-9q0 -34 17 -55.5t48 -21.5q21 0 33.5 9t20 24.5t10 36t2.5 43.5v113q-12 -26 -31 -43t-49 -17
q-92 0 -92 156v212q0 75 23.5 115.5t77.5 40.5q32 0 50 -15t28 -32l6 37h27v-557q0 -76 -24.5 -116.5t-81.5 -40.5q-48 0 -75.5 28t-27.5 82v10h38zM235 660v-12q0 -36 -20 -57.5t-56 -21.5q-37 0 -57.5 21.5t-20.5 57.5v12h35v-12q0 -47 43 -47t43 47v12h33z" />
    <glyph glyph-name="Gdotaccent" unicode="&#x120;" horiz-adv-x="327" 
d="M176 335v36h105v-226q0 -75 -29 -115t-87 -40t-87 40t-29 115v375q0 75 29.5 115t86.5 40q116 0 116 -154v-9h-40v15q0 22 -4 42t-13 35.5t-23.5 25t-35.5 9.5t-35.5 -9t-23.5 -24.5t-13 -36t-4 -42.5v-389q0 -20 4 -40t13 -35.5t23.5 -25.5t35.5 -10t35.5 9.5t23.5 25
t13 35.5t4 41v197h-65zM164 801q14 0 22.5 -8t8.5 -23t-8.5 -23t-22.5 -8t-22.5 8t-8.5 23t8.5 23t22.5 8z" />
    <glyph glyph-name="gdotaccent" unicode="&#x121;" horiz-adv-x="317" 
d="M221 436q-6 16 -22.5 30t-42.5 14q-19 0 -32 -9t-20.5 -24.5t-11 -36t-3.5 -42.5v-232q0 -21 2.5 -41t10 -36t20 -25.5t33.5 -9.5q23 0 39.5 18.5t26.5 42.5v351zM90 -90v-9q0 -34 17 -55.5t48 -21.5q21 0 33.5 9t20 24.5t10 36t2.5 43.5v113q-12 -26 -31 -43t-49 -17
q-92 0 -92 156v212q0 75 23.5 115.5t77.5 40.5q32 0 50 -15t28 -32l6 37h27v-557q0 -76 -24.5 -116.5t-81.5 -40.5q-48 0 -75.5 28t-27.5 82v10h38zM159 646q14 0 22.5 -8t8.5 -23t-8.5 -23t-22.5 -8t-22.5 8t-8.5 23t8.5 23t22.5 8z" />
    <glyph glyph-name="Gcommaaccent" unicode="&#x122;" horiz-adv-x="327" 
d="M176 335v36h105v-226q0 -75 -29 -115t-87 -40t-87 40t-29 115v375q0 75 29.5 115t86.5 40q116 0 116 -154v-9h-40v15q0 22 -4 42t-13 35.5t-23.5 25t-35.5 9.5t-35.5 -9t-23.5 -24.5t-13 -36t-4 -42.5v-389q0 -20 4 -40t13 -35.5t23.5 -25.5t35.5 -10t35.5 9.5t23.5 25
t13 35.5t4 41v197h-65zM154 -155h-27l19 115h42z" />
    <glyph glyph-name="gcommaaccent" unicode="&#x123;" horiz-adv-x="317" 
d="M221 436q-6 16 -22.5 30t-42.5 14q-19 0 -32 -9t-20.5 -24.5t-11 -36t-3.5 -42.5v-232q0 -21 2.5 -41t10 -36t20 -25.5t33.5 -9.5q23 0 39.5 18.5t26.5 42.5v351zM90 -90v-9q0 -34 17 -55.5t48 -21.5q21 0 33.5 9t20 24.5t10 36t2.5 43.5v113q-12 -26 -31 -43t-49 -17
q-92 0 -92 156v212q0 75 23.5 115.5t77.5 40.5q32 0 50 -15t28 -32l6 37h27v-557q0 -76 -24.5 -116.5t-81.5 -40.5q-48 0 -75.5 28t-27.5 82v10h38zM174 671h26l-16 -115h-41z" />
    <glyph glyph-name="Hcircumflex" unicode="&#x124;" horiz-adv-x="359" 
d="M260 0v340h-161v-340h-40v665h40v-289h161v289h40v-665h-40zM197 834l55 -133h-33l-40 103l-40 -103h-33l55 133h36z" />
    <glyph glyph-name="hcircumflex" unicode="&#x125;" horiz-adv-x="326" 
d="M99 452q11 23 30 42.5t53 19.5q47 0 67.5 -39.5t20.5 -114.5v-360h-36l-4 54v314q0 22 -2.5 42.5t-9.5 36t-19 24.5t-31 9q-26 0 -43.5 -19.5t-25.5 -42.5v-418h-40v710h36l4 -55v-203zM150 873l55 -133h-33l-40 103l-40 -103h-33l55 133h36z" />
    <glyph glyph-name="Hbar" unicode="&#x126;" horiz-adv-x="359" 
d="M260 0v340h-161v-340h-40v665h40v-150h161v150h40v-665h-40zM260 376v104h-161v-104h161z" />
    <glyph glyph-name="hbar" unicode="&#x127;" horiz-adv-x="326" 
d="M99 624h112v-29h-112v-143q11 23 30 42.5t53 19.5q47 0 67.5 -39.5t20.5 -114.5v-360h-36l-4 54v314q0 22 -2.5 42.5t-9.5 36t-19 24.5t-31 9q-26 0 -43.5 -19.5t-25.5 -42.5v-418h-40v595h-31v29h31v86h36l4 -55v-31z" />
    <glyph glyph-name="Itilde" unicode="&#x128;" horiz-adv-x="158" 
d="M59 0v665h40v-665h-40zM-17 727q0 25 4 41.5t11 25.5t16 12.5t19 3.5q16 0 28 -7.5t22 -17t19 -17t19 -7.5t15.5 8.5t5.5 39.5v3h33v-3q0 -50 -15 -66.5t-34 -16.5q-15 0 -27.5 8t-23 17.5t-19.5 17.5t-18 8q-10 0 -16 -9t-6 -41v-3h-33v3z" />
    <glyph glyph-name="itilde" unicode="&#x129;" horiz-adv-x="158" 
d="M59 504h36l5 -55v-449h-41v504zM-17 572q0 25 4 41.5t11 25.5t16 12.5t19 3.5q16 0 28 -7.5t22 -17t19 -17t19 -7.5t15.5 8.5t5.5 39.5v3h33v-3q0 -50 -15 -66.5t-34 -16.5q-15 0 -27.5 8t-23 17.5t-19.5 17.5t-18 8q-10 0 -16 -9t-6 -41v-3h-33v3z" />
    <glyph glyph-name="Imacron" unicode="&#x12a;" horiz-adv-x="158" 
d="M59 0v665h40v-665h-40zM2 788h153v-36h-153v36z" />
    <glyph glyph-name="imacron" unicode="&#x12b;" horiz-adv-x="158" 
d="M59 504h36l5 -55v-449h-41v504zM2 633h153v-36h-153v36z" />
    <glyph glyph-name="Ibreve" unicode="&#x12c;" horiz-adv-x="158" 
d="M59 0v665h40v-665h-40zM155 815v-12q0 -36 -20 -57.5t-56 -21.5q-37 0 -57.5 21.5t-20.5 57.5v12h35v-12q0 -47 43 -47t43 47v12h33z" />
    <glyph glyph-name="ibreve" unicode="&#x12d;" horiz-adv-x="158" 
d="M59 504h36l5 -55v-449h-41v504zM155 660v-12q0 -36 -20 -57.5t-56 -21.5q-37 0 -57.5 21.5t-20.5 57.5v12h35v-12q0 -47 43 -47t43 47v12h33z" />
    <glyph glyph-name="Iogonek" unicode="&#x12e;" horiz-adv-x="158" 
d="M93 0q-41 -20 -62.5 -53.5t-21.5 -71.5q0 -20 8 -30t22 -10t22 9.5t8 33.5v4h30v-4q0 -34 -15.5 -53.5t-44.5 -19.5q-31 0 -46.5 18t-15.5 49q0 43 22.5 77t59.5 56v660h40v-665h-6z" />
    <glyph glyph-name="iogonek" unicode="&#x12f;" horiz-adv-x="157" 
d="M93 0q-41 -20 -62.5 -53.5t-21.5 -71.5q0 -20 8 -30t22 -10t22 9.5t8 33.5v4h30v-4q0 -34 -15.5 -53.5t-44.5 -19.5q-31 0 -46.5 18t-15.5 49q0 43 22.5 77t59.5 56v499h35l5 -55v-449h-6zM79 642q13 0 21 -7.5t8 -21.5t-8 -22t-21 -8t-21 8t-8 22t8 21.5t21 7.5z" />
    <glyph glyph-name="Idotaccent" unicode="&#x130;" horiz-adv-x="158" 
d="M59 0v665h40v-665h-40zM79 801q14 0 22.5 -8t8.5 -23t-8.5 -23t-22.5 -8t-22.5 8t-8.5 23t8.5 23t22.5 8z" />
    <glyph glyph-name="dotlessi" unicode="&#x131;" horiz-adv-x="158" 
d="M59 504h36l5 -55v-449h-41v504z" />
    <glyph glyph-name="IJ" unicode="&#x132;" horiz-adv-x="358" 
d="M59 0v665h40v-665h-40zM182 26q22 1 37 11.5t24 26t13 35t4 39.5v527h40v-520q0 -72 -29.5 -112t-88.5 -43v36z" />
    <glyph glyph-name="ij" unicode="&#x133;" horiz-adv-x="313" 
d="M59 504h35l5 -55v-449h-40v504zM79 642q13 0 21 -7.5t8 -21.5t-8 -22t-21 -8t-21 8t-8 22t8 21.5t21 7.5zM249 504l5 -55v-497q0 -83 -22 -122.5t-81 -39.5v37q22 0 34.5 10t19 26t8 37t1.5 44v560h35zM234 642q13 0 21 -7.5t8 -21.5t-8 -22t-21 -8t-21 8t-8 22t8 21.5
t21 7.5z" />
    <glyph glyph-name="Jcircumflex" unicode="&#x134;" horiz-adv-x="200" 
d="M24 26q22 1 37 11.5t24 26t13 35t4 39.5v527h40v-520q0 -72 -29.5 -112t-88.5 -43v36zM140 834l55 -133h-33l-40 103l-40 -103h-33l55 133h36z" />
    <glyph glyph-name="jcircumflex" unicode="&#x135;" horiz-adv-x="159" 
d="M94 504l5 -55v-497q0 -83 -22 -122.5t-81 -39.5v37q22 0 34.5 10t19 26t8 37t1.5 44v560h35zM97 679l55 -133h-33l-40 103l-40 -103h-33l55 133h36z" />
    <glyph glyph-name="Kcommaaccent" unicode="&#x136;" horiz-adv-x="330" 
d="M183 386l134 -386h-42l-118 345l-58 -117v-228h-40v665h40v-372l171 372h42zM155 -155h-27l19 115h42z" />
    <glyph glyph-name="kcommaaccent" unicode="&#x137;" horiz-adv-x="305" 
d="M181 322l109 -322h-41l-95 283l-55 -90v-193h-40v710h36l4 -54v-415l146 263h41zM159 -155h-27l19 115h42z" />
    <glyph glyph-name="Lacute" unicode="&#x139;" horiz-adv-x="283" 
d="M99 665v-629h165v-36h-205v665h40zM184 834l-57 -133h-32l46 133h43z" />
    <glyph glyph-name="lacute" unicode="&#x13a;" horiz-adv-x="157" 
d="M99 655v-655h-36l-4 55v655h36zM145 873l-57 -133h-32l46 133h43z" />
    <glyph glyph-name="Lcommaaccent" unicode="&#x13b;" horiz-adv-x="283" 
d="M99 665v-629h165v-36h-205v665h40zM148 -155h-27l19 115h42z" />
    <glyph glyph-name="lcommaaccent" unicode="&#x13c;" horiz-adv-x="157" 
d="M99 655v-655h-36l-4 55v655h36zM69 -155h-27l19 115h42z" />
    <glyph glyph-name="Lcaron" unicode="&#x13d;" horiz-adv-x="283" 
d="M99 665v-629h165v-36h-205v665h40zM211 552h-21l16 117h37z" />
    <glyph glyph-name="lcaron" unicode="&#x13e;" horiz-adv-x="194" 
d="M99 655v-655h-36l-4 55v655h36zM168 572h-21l16 117h37z" />
    <glyph glyph-name="Ldot" unicode="&#x13f;" horiz-adv-x="283" 
d="M99 665v-629h165v-36h-205v665h40zM184 343q0 14 8.5 22.5t22.5 8.5t22.5 -8.5t8.5 -22.5t-8.5 -22.5t-22.5 -8.5t-22.5 8.5t-8.5 22.5z" />
    <glyph glyph-name="ldot" unicode="&#x140;" horiz-adv-x="205" 
d="M99 655v-655h-36l-4 55v655h36zM142 343q0 14 8.5 22.5t22.5 8.5t22.5 -8.5t8.5 -22.5t-8.5 -22.5t-22.5 -8.5t-22.5 8.5t-8.5 22.5z" />
    <glyph glyph-name="Lslash" unicode="&#x141;" horiz-adv-x="289" 
d="M13 285l56 32v348h40v-325l123 72v-42l-123 -71v-263h165v-36h-205v276l-56 -32v41z" />
    <glyph glyph-name="lslash" unicode="&#x142;" horiz-adv-x="167" 
d="M15 346l49 28v336h36l4 -55v-257l50 29v-40l-50 -29v-358h-36l-4 55v279l-49 -28v40z" />
    <glyph glyph-name="Nacute" unicode="&#x143;" horiz-adv-x="367" 
d="M308 0h-54l-157 604h-3v-604h-35v665h54l157 -609h3v609h35v-665zM235 834l-57 -133h-32l46 133h43z" />
    <glyph glyph-name="nacute" unicode="&#x144;" horiz-adv-x="326" 
d="M97 451q11 27 33.5 45t51.5 18q47 0 67.5 -39.5t20.5 -114.5v-360h-36l-4 55v313q0 22 -2.5 42.5t-9.5 36t-19 24.5t-31 9q-26 0 -43.5 -19.5t-25.5 -42.5v-418h-40v504h35zM215 679l-57 -133h-32l46 133h43z" />
    <glyph glyph-name="Ncommaaccent" unicode="&#x145;" horiz-adv-x="367" 
d="M308 0h-54l-157 604h-3v-604h-35v665h54l157 -609h3v609h35v-665zM173 -155h-27l19 115h42z" />
    <glyph glyph-name="ncommaaccent" unicode="&#x146;" horiz-adv-x="326" 
d="M97 451q11 27 33.5 45t51.5 18q47 0 67.5 -39.5t20.5 -114.5v-360h-36l-4 55v313q0 22 -2.5 42.5t-9.5 36t-19 24.5t-31 9q-26 0 -43.5 -19.5t-25.5 -42.5v-418h-40v504h35zM153 -155h-27l19 115h42z" />
    <glyph glyph-name="Ncaron" unicode="&#x147;" horiz-adv-x="367" 
d="M308 0h-54l-157 604h-3v-604h-35v665h54l157 -609h3v609h35v-665zM165 701l-54 133h32l40 -104l40 104h32l-54 -133h-36z" />
    <glyph glyph-name="ncaron" unicode="&#x148;" horiz-adv-x="326" 
d="M97 451q11 27 33.5 45t51.5 18q47 0 67.5 -39.5t20.5 -114.5v-360h-36l-4 55v313q0 22 -2.5 42.5t-9.5 36t-19 24.5t-31 9q-26 0 -43.5 -19.5t-25.5 -42.5v-418h-40v504h35zM145 546l-54 133h32l40 -104l40 104h32l-54 -133h-36z" />
    <glyph glyph-name="Omacron" unicode="&#x14c;" 
d="M279 145q0 -75 -28.5 -115t-86.5 -40t-86.5 40t-28.5 115v375q0 75 28.5 115t86.5 40t86.5 -40t28.5 -115v-375zM239 527q0 20 -4 40t-12.5 36t-23 26t-35.5 10t-35 -10t-23 -26t-13 -36t-4 -40v-389q0 -20 4 -40t13 -35.5t23 -25.5t35 -10t35.5 10t23 25.5t12.5 35.5
t4 40v389zM87 788h153v-36h-153v36z" />
    <glyph glyph-name="omacron" unicode="&#x14d;" horiz-adv-x="310" 
d="M261 146q0 -76 -24.5 -116t-81.5 -40t-81.5 40t-24.5 116v212q0 76 24.5 116t81.5 40t81.5 -40t24.5 -116v-212zM221 368q0 20 -2.5 40t-10 36t-20 26t-33.5 10t-33.5 -10t-20 -26t-10 -36t-2.5 -40v-232q0 -20 2.5 -40t10 -36t20 -26t33.5 -10t33.5 10t20 26t10 36
t2.5 40v232zM78 633h153v-36h-153v36z" />
    <glyph glyph-name="Obreve" unicode="&#x14e;" 
d="M279 145q0 -75 -28.5 -115t-86.5 -40t-86.5 40t-28.5 115v375q0 75 28.5 115t86.5 40t86.5 -40t28.5 -115v-375zM239 527q0 20 -4 40t-12.5 36t-23 26t-35.5 10t-35 -10t-23 -26t-13 -36t-4 -40v-389q0 -20 4 -40t13 -35.5t23 -25.5t35 -10t35.5 10t23 25.5t12.5 35.5
t4 40v389zM240 815v-12q0 -36 -20 -57.5t-56 -21.5q-37 0 -57.5 21.5t-20.5 57.5v12h35v-12q0 -47 43 -47t43 47v12h33z" />
    <glyph glyph-name="obreve" unicode="&#x14f;" horiz-adv-x="310" 
d="M261 146q0 -76 -24.5 -116t-81.5 -40t-81.5 40t-24.5 116v212q0 76 24.5 116t81.5 40t81.5 -40t24.5 -116v-212zM221 368q0 20 -2.5 40t-10 36t-20 26t-33.5 10t-33.5 -10t-20 -26t-10 -36t-2.5 -40v-232q0 -20 2.5 -40t10 -36t20 -26t33.5 -10t33.5 10t20 26t10 36
t2.5 40v232zM231 660v-12q0 -36 -20 -57.5t-56 -21.5q-37 0 -57.5 21.5t-20.5 57.5v12h35v-12q0 -47 43 -47t43 47v12h33z" />
    <glyph glyph-name="Ohungarumlaut" unicode="&#x150;" 
d="M279 145q0 -75 -28.5 -115t-86.5 -40t-86.5 40t-28.5 115v375q0 75 28.5 115t86.5 40t86.5 -40t28.5 -115v-375zM239 527q0 20 -4 40t-12.5 36t-23 26t-35.5 10t-35 -10t-23 -26t-13 -36t-4 -40v-389q0 -20 4 -40t13 -35.5t23 -25.5t35 -10t35.5 10t23 25.5t12.5 35.5
t4 40v389zM277 834l-60 -133h-31l49 133h42zM184 834l-58 -133h-32l48 133h42z" />
    <glyph glyph-name="ohungarumlaut" unicode="&#x151;" horiz-adv-x="310" 
d="M261 146q0 -76 -24.5 -116t-81.5 -40t-81.5 40t-24.5 116v212q0 76 24.5 116t81.5 40t81.5 -40t24.5 -116v-212zM221 368q0 20 -2.5 40t-10 36t-20 26t-33.5 10t-33.5 -10t-20 -26t-10 -36t-2.5 -40v-232q0 -20 2.5 -40t10 -36t20 -26t33.5 -10t33.5 10t20 26t10 36
t2.5 40v232zM268 679l-60 -133h-31l49 133h42zM175 679l-58 -133h-32l48 133h42z" />
    <glyph glyph-name="OE" unicode="&#x152;" horiz-adv-x="465" 
d="M441 628h-161v-252h135v-36h-135v-304h161v-36h-195v38q-14 -23 -34.5 -35.5t-51.5 -12.5q-55 0 -83 40t-28 115v375q0 75 28.5 115t82.5 40q31 0 51.5 -13t34.5 -35v38h195v-37zM165 27q20 0 34 9t23 23.5t13.5 33t4.5 38.5v396q0 20 -4 40t-12.5 36t-23 26t-35.5 10
t-35.5 -10t-23 -26t-12.5 -36t-4 -40v-389q0 -20 4 -40t12.5 -35.5t23 -25.5t35.5 -10z" />
    <glyph glyph-name="oe" unicode="&#x153;" horiz-adv-x="478" 
d="M241 449q11 32 32.5 48.5t56.5 16.5q55 0 79 -40.5t24 -115.5v-103h-172v-119q0 -20 2.5 -40t10 -36t20 -26t33.5 -10q20 0 33 9.5t20.5 25t10.5 35.5t3 42v13h39v-11q0 -72 -24 -110t-79 -38q-66 0 -89 65q-12 -30 -33.5 -47.5t-55.5 -17.5q-55 0 -79 40t-24 116v212
q0 76 25.5 116t79.5 40q35 0 55.5 -16.5t31.5 -48.5zM221 368q0 20 -2.5 40t-10 36t-20 26t-33.5 10t-33.5 -10t-20 -26t-10 -36t-2.5 -40v-232q0 -20 2.5 -40t10 -36t20 -26t33.5 -10t33.5 10t20 26t10 36t2.5 40v232zM261 289h132v79q0 20 -2.5 40t-10 36t-20.5 26t-33 10
q-21 0 -33.5 -10t-20 -26t-10 -36t-2.5 -40v-79z" />
    <glyph glyph-name="Racute" unicode="&#x154;" horiz-adv-x="339" 
d="M289 487q0 -114 -71 -148l95 -339h-43l-88 329h-83v-329h-40v665h115q58 0 86.5 -40t28.5 -116v-22zM249 517q0 21 -4 40.5t-13 35.5t-24 25.5t-36 9.5h-73v-262h73q21 0 36 9.5t24 25t13 35.5t4 42v39zM219 834l-57 -133h-32l46 133h43z" />
    <glyph glyph-name="racute" unicode="&#x155;" horiz-adv-x="225" 
d="M59 504h36l3 -53q11 26 32 44.5t47 18.5q14 0 23 -3t19 -10l-16 -37q-14 11 -31 11q-25 0 -43.5 -18t-29.5 -42v-415h-40v504zM190 679l-57 -133h-32l46 133h43z" />
    <glyph glyph-name="Rcommaaccent" unicode="&#x156;" horiz-adv-x="339" 
d="M289 487q0 -114 -71 -148l95 -339h-43l-88 329h-83v-329h-40v665h115q58 0 86.5 -40t28.5 -116v-22zM249 517q0 21 -4 40.5t-13 35.5t-24 25.5t-36 9.5h-73v-262h73q21 0 36 9.5t24 25t13 35.5t4 42v39zM157 -155h-27l19 115h42z" />
    <glyph glyph-name="rcommaaccent" unicode="&#x157;" horiz-adv-x="225" 
d="M59 504h36l3 -53q11 26 32 44.5t47 18.5q14 0 23 -3t19 -10l-16 -37q-14 11 -31 11q-25 0 -43.5 -18t-29.5 -42v-415h-40v504zM69 -155h-27l19 115h42z" />
    <glyph glyph-name="Rcaron" unicode="&#x158;" horiz-adv-x="339" 
d="M289 487q0 -114 -71 -148l95 -339h-43l-88 329h-83v-329h-40v665h115q58 0 86.5 -40t28.5 -116v-22zM249 517q0 21 -4 40.5t-13 35.5t-24 25.5t-36 9.5h-73v-262h73q21 0 36 9.5t24 25t13 35.5t4 42v39zM149 701l-54 133h32l40 -104l40 104h32l-54 -133h-36z" />
    <glyph glyph-name="rcaron" unicode="&#x159;" horiz-adv-x="225" 
d="M59 504h36l3 -53q11 26 32 44.5t47 18.5q14 0 23 -3t19 -10l-16 -37q-14 11 -31 11q-25 0 -43.5 -18t-29.5 -42v-415h-40v504zM114 546l-54 133h32l40 -104l40 104h32l-54 -133h-36z" />
    <glyph glyph-name="Sacute" unicode="&#x15a;" horiz-adv-x="294" 
d="M36 535q0 24 6 49t19.5 45.5t34.5 33t51 12.5q54 0 82.5 -36.5t28.5 -111.5v-15h-40v15q0 20 -3 40t-11.5 36t-22 26t-34.5 10q-32 0 -51 -27.5t-19 -68.5v-37q0 -38 15.5 -66.5t55.5 -60.5q22 -18 42 -37.5t35 -42t24 -50t9 -61.5v-58q0 -26 -6.5 -51t-20 -44.5
t-34.5 -32t-50 -12.5q-57 0 -84 38.5t-27 110.5v14h41v-15q0 -20 3 -40t11 -36t21.5 -26t34.5 -10q33 0 52 27.5t19 68.5v54q0 51 -22.5 90t-66.5 76q-21 18 -38 34t-29.5 34.5t-19 40t-6.5 49.5v35zM199 834l-57 -133h-32l46 133h43z" />
    <glyph glyph-name="sacute" unicode="&#x15b;" horiz-adv-x="276" 
d="M75 147v-8q0 -21 2.5 -41.5t9 -37t19 -26.5t32.5 -10q30 0 47 27.5t17 68.5q0 42 -16.5 74t-61.5 62q-20 14 -36.5 28.5t-28 31.5t-18 38t-6.5 47q0 21 6 41.5t18.5 36.5t32 25.5t45.5 9.5q53 0 78 -37.5t25 -109.5v-9h-40v11q0 19 -2.5 39t-9.5 36t-19.5 26t-31.5 10
q-18 0 -30 -7t-19 -17.5t-10 -24.5t-3 -27q0 -38 17 -64t59 -54q47 -32 68 -70t21 -91q0 -24 -5.5 -48t-17.5 -43.5t-31 -31.5t-46 -12q-54 0 -79 38.5t-25 110.5v8h39zM190 679l-57 -133h-32l46 133h43z" />
    <glyph glyph-name="Scircumflex" unicode="&#x15c;" horiz-adv-x="294" 
d="M36 535q0 24 6 49t19.5 45.5t34.5 33t51 12.5q54 0 82.5 -36.5t28.5 -111.5v-15h-40v15q0 20 -3 40t-11.5 36t-22 26t-34.5 10q-32 0 -51 -27.5t-19 -68.5v-37q0 -38 15.5 -66.5t55.5 -60.5q22 -18 42 -37.5t35 -42t24 -50t9 -61.5v-58q0 -26 -6.5 -51t-20 -44.5
t-34.5 -32t-50 -12.5q-57 0 -84 38.5t-27 110.5v14h41v-15q0 -20 3 -40t11 -36t21.5 -26t34.5 -10q33 0 52 27.5t19 68.5v54q0 51 -22.5 90t-66.5 76q-21 18 -38 34t-29.5 34.5t-19 40t-6.5 49.5v35zM165 834l55 -133h-33l-40 103l-40 -103h-33l55 133h36z" />
    <glyph glyph-name="scircumflex" unicode="&#x15d;" horiz-adv-x="276" 
d="M75 147v-8q0 -21 2.5 -41.5t9 -37t19 -26.5t32.5 -10q30 0 47 27.5t17 68.5q0 42 -16.5 74t-61.5 62q-20 14 -36.5 28.5t-28 31.5t-18 38t-6.5 47q0 21 6 41.5t18.5 36.5t32 25.5t45.5 9.5q53 0 78 -37.5t25 -109.5v-9h-40v11q0 19 -2.5 39t-9.5 36t-19.5 26t-31.5 10
q-18 0 -30 -7t-19 -17.5t-10 -24.5t-3 -27q0 -38 17 -64t59 -54q47 -32 68 -70t21 -91q0 -24 -5.5 -48t-17.5 -43.5t-31 -31.5t-46 -12q-54 0 -79 38.5t-25 110.5v8h39zM156 679l55 -133h-33l-40 103l-40 -103h-33l55 133h36z" />
    <glyph glyph-name="Scedilla" unicode="&#x15e;" horiz-adv-x="294" 
d="M130 -9q-94 12 -94 148v14h41v-15q0 -20 3 -40t11 -36t21.5 -26t34.5 -10q33 0 52 27.5t19 68.5v54q0 51 -22.5 89.5t-66.5 76.5q-21 17 -38 33.5t-29.5 34.5t-19 40t-6.5 50v35q0 24 6 49t19.5 45.5t34.5 33t51 12.5q54 0 82.5 -36.5t28.5 -111.5v-15h-40v15q0 20 -3 40
t-11.5 36t-22 26t-34.5 10q-32 0 -51 -27.5t-19 -68.5v-37q0 -38 15.5 -66.5t55.5 -60.5q22 -18 42 -37.5t35 -42t24 -50t9 -61.5v-58q0 -24 -6 -48t-18 -43.5t-31 -32.5t-45 -15v-41h7q29 0 46 -16.5t17 -54.5t-17.5 -56.5t-48.5 -18.5q-32 0 -49 17t-17 55v2h30v-2
q0 -23 9.5 -33.5t26.5 -10.5t26.5 11.5t9.5 35.5t-10 34.5t-30 10.5h-28v67z" />
    <glyph glyph-name="scedilla" unicode="&#x15f;" horiz-adv-x="276" 
d="M121 -8q-45 6 -65 43.5t-20 103.5v8h39v-8q0 -21 2.5 -41.5t9 -37t19 -26.5t32.5 -10q30 0 47 27.5t17 68.5q0 42 -16.5 74t-61.5 62q-20 14 -36.5 28.5t-28 31.5t-18 38t-6.5 47q0 21 6 41.5t18.5 36.5t32 25.5t45.5 9.5q53 0 78 -37.5t25 -109.5v-9h-40v11
q0 19 -2.5 39t-9.5 36t-19.5 26t-31.5 10q-18 0 -30 -7t-19 -17.5t-10 -24.5t-3 -27q0 -38 17 -64t59 -54q47 -32 68 -70t21 -91q0 -23 -5 -46.5t-16 -42t-28 -31t-42 -14.5v-41h7q29 0 46 -16.5t17 -54.5t-17.5 -56.5t-48.5 -18.5q-32 0 -49 17t-17 55v2h30v-2
q0 -23 9.5 -33.5t26.5 -10.5q16 0 26 11.5t10 35.5t-10 34.5t-30 10.5h-28v68z" />
    <glyph glyph-name="Scaron" unicode="&#x160;" horiz-adv-x="294" 
d="M36 535q0 24 6 49t19.5 45.5t34.5 33t51 12.5q54 0 82.5 -36.5t28.5 -111.5v-15h-40v15q0 20 -3 40t-11.5 36t-22 26t-34.5 10q-32 0 -51 -27.5t-19 -68.5v-37q0 -38 15.5 -66.5t55.5 -60.5q22 -18 42 -37.5t35 -42t24 -50t9 -61.5v-58q0 -26 -6.5 -51t-20 -44.5
t-34.5 -32t-50 -12.5q-57 0 -84 38.5t-27 110.5v14h41v-15q0 -20 3 -40t11 -36t21.5 -26t34.5 -10q33 0 52 27.5t19 68.5v54q0 51 -22.5 90t-66.5 76q-21 18 -38 34t-29.5 34.5t-19 40t-6.5 49.5v35zM129 701l-54 133h32l40 -104l40 104h32l-54 -133h-36z" />
    <glyph glyph-name="scaron" unicode="&#x161;" horiz-adv-x="276" 
d="M75 147v-8q0 -21 2.5 -41.5t9 -37t19 -26.5t32.5 -10q30 0 47 27.5t17 68.5q0 42 -16.5 74t-61.5 62q-20 14 -36.5 28.5t-28 31.5t-18 38t-6.5 47q0 21 6 41.5t18.5 36.5t32 25.5t45.5 9.5q53 0 78 -37.5t25 -109.5v-9h-40v11q0 19 -2.5 39t-9.5 36t-19.5 26t-31.5 10
q-18 0 -30 -7t-19 -17.5t-10 -24.5t-3 -27q0 -38 17 -64t59 -54q47 -32 68 -70t21 -91q0 -24 -5.5 -48t-17.5 -43.5t-31 -31.5t-46 -12q-54 0 -79 38.5t-25 110.5v8h39zM120 546l-54 133h32l40 -104l40 104h32l-54 -133h-36z" />
    <glyph glyph-name="uni0162" unicode="&#x162;" horiz-adv-x="301" 
d="M129 0v628h-111v37h265v-37h-114v-628h-40zM141 -155h-27l19 115h42z" />
    <glyph glyph-name="uni0163" unicode="&#x163;" horiz-adv-x="225" 
d="M212 2q-11 -5 -23 -8.5t-26 -3.5q-57 0 -81 39t-24 117v458h36l4 -54v-46h101v-34h-101v-332q0 -18 2.5 -38t10 -36.5t21 -27t34.5 -10.5q9 0 18.5 3t16.5 6zM121 -155h-27l19 115h42z" />
    <glyph glyph-name="Tcaron" unicode="&#x164;" horiz-adv-x="301" 
d="M129 0v628h-111v37h265v-37h-114v-628h-40zM133 701l-54 133h32l40 -104l40 104h32l-54 -133h-36z" />
    <glyph glyph-name="tcaron" unicode="&#x165;" horiz-adv-x="228" 
d="M212 2q-11 -5 -23 -8.5t-26 -3.5q-57 0 -81 39t-24 117v458h36l4 -54v-46h101v-34h-101v-332q0 -18 2.5 -38t10 -36.5t21 -27t34.5 -10.5q9 0 18.5 3t16.5 6zM168 576h-21l16 117h37z" />
    <glyph glyph-name="Tbar" unicode="&#x166;" horiz-adv-x="301" 
d="M54 427h75v201h-111v37h265v-37h-114v-201h78v-34h-78v-393h-40v393h-75v34z" />
    <glyph glyph-name="tbar" unicode="&#x167;" horiz-adv-x="225" 
d="M212 2q-11 -5 -23 -8.5t-26 -3.5q-57 0 -81 39t-24 117v458h36l4 -54v-46h101v-34h-101v-128h101v-33h-101v-171q0 -18 2.5 -38t10 -36.5t21 -27t34.5 -10.5q9 0 18.5 3t16.5 6z" />
    <glyph glyph-name="Utilde" unicode="&#x168;" horiz-adv-x="346" 
d="M288 665v-520q0 -75 -28.5 -115t-86.5 -40t-86.5 40t-28.5 115v520h40v-528q0 -20 4 -39.5t13 -35t23 -25.5t35 -10t35.5 10t23 25.5t12.5 35t4 39.5v528h40zM77 727q0 25 4 41.5t11 25.5t16 12.5t19 3.5q16 0 28 -7.5t22 -17t19 -17t19 -7.5t15.5 8.5t5.5 39.5v3h33v-3
q0 -50 -15 -66.5t-34 -16.5q-15 0 -27.5 8t-23 17.5t-19.5 17.5t-18 8q-10 0 -16 -9t-6 -41v-3h-33v3z" />
    <glyph glyph-name="utilde" unicode="&#x169;" horiz-adv-x="326" 
d="M56 504h40v-368q0 -23 2.5 -43t9.5 -35.5t19.5 -24.5t32.5 -9q23 0 40 18.5t27 41.5v420h40v-430q0 -21 6 -34.5t24 -13.5v-36q-35 0 -48.5 17.5t-17.5 46.5q-13 -29 -33.5 -46.5t-52.5 -17.5q-89 0 -89 150v364zM67 572q0 25 4 41.5t11 25.5t16 12.5t19 3.5
q16 0 28 -7.5t22 -17t19 -17t19 -7.5t15.5 8.5t5.5 39.5v3h33v-3q0 -50 -15 -66.5t-34 -16.5q-15 0 -27.5 8t-23 17.5t-19.5 17.5t-18 8q-10 0 -16 -9t-6 -41v-3h-33v3z" />
    <glyph glyph-name="Umacron" unicode="&#x16a;" horiz-adv-x="346" 
d="M288 665v-520q0 -75 -28.5 -115t-86.5 -40t-86.5 40t-28.5 115v520h40v-528q0 -20 4 -39.5t13 -35t23 -25.5t35 -10t35.5 10t23 25.5t12.5 35t4 39.5v528h40zM96 788h153v-36h-153v36z" />
    <glyph glyph-name="umacron" unicode="&#x16b;" horiz-adv-x="326" 
d="M56 504h40v-368q0 -23 2.5 -43t9.5 -35.5t19.5 -24.5t32.5 -9q23 0 40 18.5t27 41.5v420h40v-430q0 -21 6 -34.5t24 -13.5v-36q-35 0 -48.5 17.5t-17.5 46.5q-13 -29 -33.5 -46.5t-52.5 -17.5q-89 0 -89 150v364zM86 633h153v-36h-153v36z" />
    <glyph glyph-name="Ubreve" unicode="&#x16c;" horiz-adv-x="346" 
d="M288 665v-520q0 -75 -28.5 -115t-86.5 -40t-86.5 40t-28.5 115v520h40v-528q0 -20 4 -39.5t13 -35t23 -25.5t35 -10t35.5 10t23 25.5t12.5 35t4 39.5v528h40zM249 815v-12q0 -36 -20 -57.5t-56 -21.5q-37 0 -57.5 21.5t-20.5 57.5v12h35v-12q0 -47 43 -47t43 47v12h33z
" />
    <glyph glyph-name="ubreve" unicode="&#x16d;" horiz-adv-x="326" 
d="M56 504h40v-368q0 -23 2.5 -43t9.5 -35.5t19.5 -24.5t32.5 -9q23 0 40 18.5t27 41.5v420h40v-430q0 -21 6 -34.5t24 -13.5v-36q-35 0 -48.5 17.5t-17.5 46.5q-13 -29 -33.5 -46.5t-52.5 -17.5q-89 0 -89 150v364zM239 660v-12q0 -36 -20 -57.5t-56 -21.5
q-37 0 -57.5 21.5t-20.5 57.5v12h35v-12q0 -47 43 -47t43 47v12h33z" />
    <glyph glyph-name="Uring" unicode="&#x16e;" horiz-adv-x="346" 
d="M288 665v-520q0 -75 -28.5 -115t-86.5 -40t-86.5 40t-28.5 115v520h40v-528q0 -20 4 -39.5t13 -35t23 -25.5t35 -10t35.5 10t23 25.5t12.5 35t4 39.5v528h40zM130 772q0 -18 12.5 -31t30.5 -13t30.5 13t12.5 31q0 19 -12.5 31.5t-30.5 12.5t-30.5 -12.5t-12.5 -31.5z
M100 772q0 31 21.5 52t51.5 21t51 -21t21 -52q0 -30 -21 -51.5t-51 -21.5t-51.5 21.5t-21.5 51.5z" />
    <glyph glyph-name="uring" unicode="&#x16f;" horiz-adv-x="326" 
d="M56 504h40v-368q0 -23 2.5 -43t9.5 -35.5t19.5 -24.5t32.5 -9q23 0 40 18.5t27 41.5v420h40v-430q0 -21 6 -34.5t24 -13.5v-36q-35 0 -48.5 17.5t-17.5 46.5q-13 -29 -33.5 -46.5t-52.5 -17.5q-89 0 -89 150v364zM120 617q0 -18 12.5 -31t30.5 -13t30.5 13t12.5 31
q0 19 -12.5 31.5t-30.5 12.5t-30.5 -12.5t-12.5 -31.5zM90 617q0 31 21.5 52t51.5 21t51 -21t21 -52q0 -30 -21 -51.5t-51 -21.5t-51.5 21.5t-21.5 51.5z" />
    <glyph glyph-name="Uhungarumlaut" unicode="&#x170;" horiz-adv-x="346" 
d="M288 665v-520q0 -75 -28.5 -115t-86.5 -40t-86.5 40t-28.5 115v520h40v-528q0 -20 4 -39.5t13 -35t23 -25.5t35 -10t35.5 10t23 25.5t12.5 35t4 39.5v528h40zM286 834l-60 -133h-31l49 133h42zM193 834l-58 -133h-32l48 133h42z" />
    <glyph glyph-name="uhungarumlaut" unicode="&#x171;" horiz-adv-x="326" 
d="M56 504h40v-368q0 -23 2.5 -43t9.5 -35.5t19.5 -24.5t32.5 -9q23 0 40 18.5t27 41.5v420h40v-430q0 -21 6 -34.5t24 -13.5v-36q-35 0 -48.5 17.5t-17.5 46.5q-13 -29 -33.5 -46.5t-52.5 -17.5q-89 0 -89 150v364zM276 679l-60 -133h-31l49 133h42zM183 679l-58 -133h-32
l48 133h42z" />
    <glyph glyph-name="Uogonek" unicode="&#x172;" horiz-adv-x="346" 
d="M288 665v-520q0 -106 -54 -140q-38 -25 -59 -58.5t-21 -71.5q0 -20 8 -30t22 -10t22 9.5t8 33.5v4h30v-4q0 -34 -15.5 -53.5t-44.5 -19.5q-31 0 -46.5 18t-15.5 49q0 36 16 65.5t44 52.5h-9q-58 0 -86.5 40t-28.5 115v520h40v-527q0 -20 4 -39.5t13 -35.5t23.5 -26
t34.5 -10q21 0 35.5 10t23 26t12.5 35.5t4 39.5v527h40z" />
    <glyph glyph-name="uogonek" unicode="&#x173;" horiz-adv-x="326" 
d="M56 504h40v-368q0 -23 2.5 -43t9.5 -35.5t19.5 -24.5t32.5 -9q23 0 40 18.5t27 41.5v420h40v-430q0 -21 6 -34.5t24 -13.5v-36q-17 0 -26 4q-35 -21 -53.5 -52.5t-18.5 -66.5q0 -40 30 -40q14 0 22 9.5t8 33.5v4h30v-4q0 -34 -15.5 -53.5t-45.5 -19.5t-45.5 18t-15.5 49
q0 43 22.5 77.5t60.5 56.5q-16 16 -19 48q-13 -29 -33.5 -46.5t-52.5 -17.5q-89 0 -89 150v364z" />
    <glyph glyph-name="Wcircumflex" unicode="&#x174;" horiz-adv-x="473" 
d="M248 665l89 -602h2l68 602h40l-84 -665h-45l-85 556h-2l-84 -556h-43l-78 665h40l61 -602h3l88 602h30zM254 834l55 -133h-33l-40 103l-40 -103h-33l55 133h36z" />
    <glyph glyph-name="wcircumflex" unicode="&#x175;" horiz-adv-x="455" 
d="M209 504h37l75 -445h2l66 445h40l-81 -504h-44l-75 438h-3l-75 -438h-44l-81 504h40l65 -445h2zM246 679l55 -133h-33l-40 103l-40 -103h-33l55 133h36z" />
    <glyph glyph-name="Ycircumflex" unicode="&#x176;" horiz-adv-x="321" 
d="M180 224v-224h-40v224l-114 441h41l92 -386h3l92 386h41zM178 834l55 -133h-33l-40 103l-40 -103h-33l55 133h36z" />
    <glyph glyph-name="ycircumflex" unicode="&#x177;" horiz-adv-x="277" 
d="M32 504h40l68 -444h2l72 444h40l-106 -566q-13 -70 -42 -108.5t-83 -38.5v36q29 0 55 26t37 88l7 44zM156 679l55 -133h-33l-40 103l-40 -103h-33l55 133h36z" />
    <glyph glyph-name="Ydieresis" unicode="&#x178;" horiz-adv-x="321" 
d="M180 224v-224h-40v224l-114 441h41l92 -386h3l92 386h41zM109 799q13 0 21 -7.5t8 -21.5t-8 -22t-21 -8q-29 0 -29 30q0 29 29 29zM212 799q13 0 21 -7.5t8 -21.5t-8 -22t-21 -8q-29 0 -29 30q0 29 29 29z" />
    <glyph glyph-name="Zacute" unicode="&#x179;" horiz-adv-x="272" 
d="M32 628v37h213v-45l-181 -584h176v-36h-213v45l181 583h-176zM188 834l-57 -133h-32l46 133h43z" />
    <glyph glyph-name="zacute" unicode="&#x17a;" horiz-adv-x="231" 
d="M29 468v36h178v-45l-147 -423h142v-36h-178v42l148 426h-143zM168 679l-57 -133h-32l46 133h43z" />
    <glyph glyph-name="Zdotaccent" unicode="&#x17b;" horiz-adv-x="272" 
d="M32 628v37h213v-45l-181 -584h176v-36h-213v45l181 583h-176zM136 801q14 0 22.5 -8t8.5 -23t-8.5 -23t-22.5 -8t-22.5 8t-8.5 23t8.5 23t22.5 8z" />
    <glyph glyph-name="zdotaccent" unicode="&#x17c;" horiz-adv-x="231" 
d="M29 468v36h178v-45l-147 -423h142v-36h-178v42l148 426h-143zM116 646q14 0 22.5 -8t8.5 -23t-8.5 -23t-22.5 -8t-22.5 8t-8.5 23t8.5 23t22.5 8z" />
    <glyph glyph-name="Zcaron" unicode="&#x17d;" horiz-adv-x="272" 
d="M32 628v37h213v-45l-181 -584h176v-36h-213v45l181 583h-176zM118 701l-54 133h32l40 -104l40 104h32l-54 -133h-36z" />
    <glyph glyph-name="zcaron" unicode="&#x17e;" horiz-adv-x="231" 
d="M29 468v36h178v-45l-147 -423h142v-36h-178v42l148 426h-143zM98 546l-54 133h32l40 -104l40 104h32l-54 -133h-36z" />
    <glyph glyph-name="florin" unicode="&#x192;" horiz-adv-x="385" 
d="M213 150q0 -78 -25.5 -119t-82.5 -41q-29 0 -50 12t-34 32l28 25q8 -15 21 -25t33 -10q22 0 35.5 10.5t21 27t10 37.5t2.5 41v375q0 78 24.5 119t81.5 41q31 0 52 -12t34 -32l-28 -25q-8 14 -21 24.5t-34 10.5t-34.5 -10.5t-21 -27t-10 -37t-2.5 -40.5v-147h108v-34h-108
v-195z" />
    <glyph glyph-name="uni0218" unicode="&#x218;" horiz-adv-x="294" 
d="M36 535q0 24 6 49t19.5 45.5t34.5 33t51 12.5q54 0 82.5 -36.5t28.5 -111.5v-15h-40v15q0 20 -3 40t-11.5 36t-22 26t-34.5 10q-32 0 -51 -27.5t-19 -68.5v-37q0 -38 15.5 -66.5t55.5 -60.5q22 -18 42 -37.5t35 -42t24 -50t9 -61.5v-58q0 -26 -6.5 -51t-20 -44.5
t-34.5 -32t-50 -12.5q-57 0 -84 38.5t-27 110.5v14h41v-15q0 -20 3 -40t11 -36t21.5 -26t34.5 -10q33 0 52 27.5t19 68.5v54q0 51 -22.5 90t-66.5 76q-21 18 -38 34t-29.5 34.5t-19 40t-6.5 49.5v35zM137 -155h-27l19 115h42z" />
    <glyph glyph-name="uni0219" unicode="&#x219;" horiz-adv-x="276" 
d="M75 147v-8q0 -21 2.5 -41.5t9 -37t19 -26.5t32.5 -10q30 0 47 27.5t17 68.5q0 42 -16.5 74t-61.5 62q-20 14 -36.5 28.5t-28 31.5t-18 38t-6.5 47q0 21 6 41.5t18.5 36.5t32 25.5t45.5 9.5q53 0 78 -37.5t25 -109.5v-9h-40v11q0 19 -2.5 39t-9.5 36t-19.5 26t-31.5 10
q-18 0 -30 -7t-19 -17.5t-10 -24.5t-3 -27q0 -38 17 -64t59 -54q47 -32 68 -70t21 -91q0 -24 -5.5 -48t-17.5 -43.5t-31 -31.5t-46 -12q-54 0 -79 38.5t-25 110.5v8h39zM128 -155h-27l19 115h42z" />
    <glyph glyph-name="uni021A" unicode="&#x21a;" horiz-adv-x="301" 
d="M129 0v628h-111v37h265v-37h-114v-628h-40zM141 -155h-27l19 115h42z" />
    <glyph glyph-name="uni021B" unicode="&#x21b;" horiz-adv-x="225" 
d="M212 2q-11 -5 -23 -8.5t-26 -3.5q-57 0 -81 39t-24 117v458h36l4 -54v-46h101v-34h-101v-332q0 -18 2.5 -38t10 -36.5t21 -27t34.5 -10.5q9 0 18.5 3t16.5 6zM121 -155h-27l19 115h42z" />
    <glyph glyph-name="dotlessj" unicode="&#x237;" horiz-adv-x="158" 
d="M94 504l5 -55v-497q0 -83 -22 -122.5t-81 -39.5v37q22 0 34.5 10t19 26t8 37t1.5 44v560h35z" />
    <glyph glyph-name="circumflex" unicode="&#x2c6;" horiz-adv-x="350" 
d="M193 679l55 -133h-33l-40 103l-40 -103h-33l55 133h36z" />
    <glyph glyph-name="caron" unicode="&#x2c7;" horiz-adv-x="350" 
d="M157 546l-54 133h32l40 -104l40 104h32l-54 -133h-36z" />
    <glyph glyph-name="breve" unicode="&#x2d8;" horiz-adv-x="350" 
d="M251 660v-12q0 -36 -20 -57.5t-56 -21.5q-37 0 -57.5 21.5t-20.5 57.5v12h35v-12q0 -47 43 -47t43 47v12h33z" />
    <glyph glyph-name="dotaccent" unicode="&#x2d9;" horiz-adv-x="350" 
d="M175 646q14 0 22.5 -8t8.5 -23t-8.5 -23t-22.5 -8t-22.5 8t-8.5 23t8.5 23t22.5 8z" />
    <glyph glyph-name="ring" unicode="&#x2da;" horiz-adv-x="350" 
d="M132 617q0 -18 12.5 -31t30.5 -13t30.5 13t12.5 31q0 19 -12.5 31.5t-30.5 12.5t-30.5 -12.5t-12.5 -31.5zM102 617q0 31 21.5 52t51.5 21t51 -21t21 -52q0 -30 -21 -51.5t-51 -21.5t-51.5 21.5t-21.5 51.5z" />
    <glyph glyph-name="ogonek" unicode="&#x2db;" horiz-adv-x="350" 
d="M275 0q-41 -20 -62.5 -53.5t-21.5 -71.5q0 -20 8 -30t22 -10t22 9.5t8 33.5v4h30v-4q0 -34 -15.5 -53.5t-44.5 -19.5q-31 0 -46.5 18t-15.5 49q0 49 29.5 87t75.5 58z" />
    <glyph glyph-name="tilde" unicode="&#x2dc;" horiz-adv-x="350" 
d="M79 572q0 25 4 41.5t11 25.5t16 12.5t19 3.5q16 0 28 -7.5t22 -17t19 -17t19 -7.5t15.5 8.5t5.5 39.5v3h33v-3q0 -50 -15 -66.5t-34 -16.5q-15 0 -27.5 8t-23 17.5t-19.5 17.5t-18 8q-10 0 -16 -9t-6 -41v-3h-33v3z" />
    <glyph glyph-name="hungarumlaut" unicode="&#x2dd;" horiz-adv-x="350" 
d="M296 679l-60 -133h-31l49 133h42zM203 679l-58 -133h-32l48 133h42z" />
    <glyph glyph-name="uni0394" unicode="&#x394;" horiz-adv-x="296" 
d="M240 36l-92 567l-92 -567h184zM131 665h34l109 -621v-44h-252v44z" />
    <glyph glyph-name="uni03A9" unicode="&#x3a9;" 
d="M279 163q0 -49 -18 -79.5t-42 -47.5h60v-36h-91v41q23 16 37 49t14 65v372q0 20 -4 40t-12.5 36t-23 26t-35.5 10t-35 -10t-23 -26t-13 -36t-4 -40v-372q0 -32 14 -65t37 -49v-41h-91v36h60q-23 17 -41.5 47.5t-18.5 79.5v357q0 75 28.5 115t86.5 40t86.5 -40t28.5 -115
v-357z" />
    <glyph glyph-name="pi" unicode="&#x3c0;" horiz-adv-x="391" 
d="M294 0h-40v468h-117v-468h-40v468h-61v36h319v-36h-61v-468z" />
    <glyph glyph-name="Wgrave" unicode="&#x1e80;" horiz-adv-x="473" 
d="M248 665l89 -602h2l68 602h40l-84 -665h-45l-85 556h-2l-84 -556h-43l-78 665h40l61 -602h3l88 602h30zM230 834l47 -133h-33l-57 133h43z" />
    <glyph glyph-name="wgrave" unicode="&#x1e81;" horiz-adv-x="455" 
d="M209 504h37l75 -445h2l66 445h40l-81 -504h-44l-75 438h-3l-75 -438h-44l-81 504h40l65 -445h2zM222 679l47 -133h-33l-57 133h43z" />
    <glyph glyph-name="Wacute" unicode="&#x1e82;" horiz-adv-x="473" 
d="M248 665l89 -602h2l68 602h40l-84 -665h-45l-85 556h-2l-84 -556h-43l-78 665h40l61 -602h3l88 602h30zM288 834l-57 -133h-32l46 133h43z" />
    <glyph glyph-name="wacute" unicode="&#x1e83;" horiz-adv-x="455" 
d="M209 504h37l75 -445h2l66 445h40l-81 -504h-44l-75 438h-3l-75 -438h-44l-81 504h40l65 -445h2zM280 679l-57 -133h-32l46 133h43z" />
    <glyph glyph-name="Wdieresis" unicode="&#x1e84;" horiz-adv-x="473" 
d="M248 665l89 -602h2l68 602h40l-84 -665h-45l-85 556h-2l-84 -556h-43l-78 665h40l61 -602h3l88 602h30zM185 799q13 0 21 -7.5t8 -21.5t-8 -22t-21 -8q-29 0 -29 30q0 29 29 29zM288 799q13 0 21 -7.5t8 -21.5t-8 -22t-21 -8q-29 0 -29 30q0 29 29 29z" />
    <glyph glyph-name="wdieresis" unicode="&#x1e85;" horiz-adv-x="455" 
d="M209 504h37l75 -445h2l66 445h40l-81 -504h-44l-75 438h-3l-75 -438h-44l-81 504h40l65 -445h2zM177 644q13 0 21 -7.5t8 -21.5t-8 -22t-21 -8q-29 0 -29 30q0 29 29 29zM280 644q13 0 21 -7.5t8 -21.5t-8 -22t-21 -8q-29 0 -29 30q0 29 29 29z" />
    <glyph glyph-name="Ygrave" unicode="&#x1ef2;" horiz-adv-x="321" 
d="M180 224v-224h-40v224l-114 441h41l92 -386h3l92 386h41zM154 834l47 -133h-33l-57 133h43z" />
    <glyph glyph-name="ygrave" unicode="&#x1ef3;" horiz-adv-x="277" 
d="M32 504h40l68 -444h2l72 444h40l-106 -566q-13 -70 -42 -108.5t-83 -38.5v36q29 0 55 26t37 88l7 44zM132 679l47 -133h-33l-57 133h43z" />
    <glyph glyph-name="endash" unicode="&#x2013;" horiz-adv-x="500" 
d="M50 343h400v-40h-400v40z" />
    <glyph glyph-name="emdash" unicode="&#x2014;" horiz-adv-x="1000" 
d="M50 343h900v-40h-900v40z" />
    <glyph glyph-name="quoteleft" unicode="&#x2018;" horiz-adv-x="171" 
d="M84 677h27l-16 -179h-41z" />
    <glyph glyph-name="quoteright" unicode="&#x2019;" horiz-adv-x="171" 
d="M87 498h-27l16 179h41z" />
    <glyph glyph-name="quotesinglbase" unicode="&#x201a;" horiz-adv-x="171" 
d="M87 -141h-27l16 170h41z" />
    <glyph glyph-name="quotedblleft" unicode="&#x201c;" horiz-adv-x="279" 
d="M84 677h27l-16 -179h-41zM192 677h27l-16 -179h-41z" />
    <glyph glyph-name="quotedblright" unicode="&#x201d;" horiz-adv-x="279" 
d="M87 498h-27l16 179h41zM195 498h-27l16 179h41z" />
    <glyph glyph-name="quotedblbase" unicode="&#x201e;" horiz-adv-x="279" 
d="M87 -141h-27l16 170h41zM195 -141h-27l16 170h41z" />
    <glyph glyph-name="dagger" unicode="&#x2020;" horiz-adv-x="283" 
d="M41 508h81v202h40v-202h80v-38h-80v-470h-40v470h-81v38z" />
    <glyph glyph-name="daggerdbl" unicode="&#x2021;" horiz-adv-x="283" 
d="M41 508h81v202h40v-202h80v-38h-80v-230h80v-38h-80v-202h-40v202h-81v38h81v230h-81v38z" />
    <glyph glyph-name="bullet" unicode="&#x2022;" horiz-adv-x="222" 
d="M50 327q0 29 17.5 45t43.5 16t43.5 -16t17.5 -45t-17.5 -45.5t-43.5 -16.5t-43.5 16.5t-17.5 45.5z" />
    <glyph glyph-name="ellipsis" unicode="&#x2026;" horiz-adv-x="506" 
d="M48 26q0 14 8.5 22.5t22.5 8.5t22.5 -8.5t8.5 -22.5t-8.5 -22.5t-22.5 -8.5t-22.5 8.5t-8.5 22.5zM222 26q0 14 8.5 22.5t22.5 8.5t22.5 -8.5t8.5 -22.5t-8.5 -22.5t-22.5 -8.5t-22.5 8.5t-8.5 22.5zM396 26q0 14 8.5 22.5t22.5 8.5t22.5 -8.5t8.5 -22.5t-8.5 -22.5
t-22.5 -8.5t-22.5 8.5t-8.5 22.5z" />
    <glyph glyph-name="perthousand" unicode="&#x2030;" horiz-adv-x="785" 
d="M202 363q0 -46 -19.5 -72.5t-61.5 -26.5q-41 0 -60.5 26.5t-19.5 72.5v213q0 46 19.5 72.5t60.5 26.5q42 0 61.5 -26.5t19.5 -72.5v-213zM167 581q0 23 -10 42.5t-36 19.5q-25 0 -34.5 -19.5t-9.5 -42.5v-223q0 -23 9.5 -42.5t34.5 -19.5q26 0 36 19.5t10 42.5v223z
M526 89q0 -46 -19.5 -72.5t-61.5 -26.5q-41 0 -60.5 26.5t-19.5 72.5v213q0 46 19.5 72.5t60.5 26.5q42 0 61.5 -26.5t19.5 -72.5v-213zM491 307q0 23 -10 42.5t-36 19.5q-25 0 -34.5 -19.5t-9.5 -42.5v-223q0 -23 9.5 -42.5t34.5 -19.5q26 0 36 19.5t10 42.5v223zM165 0
h-36l278 665h35zM744 89q0 -46 -19.5 -72.5t-61.5 -26.5q-41 0 -60.5 26.5t-19.5 72.5v213q0 46 19.5 72.5t60.5 26.5q42 0 61.5 -26.5t19.5 -72.5v-213zM709 307q0 23 -10 42.5t-36 19.5q-25 0 -34.5 -19.5t-9.5 -42.5v-223q0 -23 9.5 -42.5t34.5 -19.5q26 0 36 19.5
t10 42.5v223z" />
    <glyph glyph-name="guilsinglleft" unicode="&#x2039;" horiz-adv-x="227" 
d="M160 455l28 -27l-112 -136l112 -136l-28 -26l-118 143v38z" />
    <glyph glyph-name="guilsinglright" unicode="&#x203a;" horiz-adv-x="227" 
d="M67 130l-28 26l112 136l-112 136l28 27l118 -144v-38z" />
    <glyph glyph-name="fraction" unicode="&#x2044;" horiz-adv-x="93" 
d="M-74 0h-36l278 665h35z" />
    <glyph glyph-name="zerosuperior" unicode="&#x2070;" horiz-adv-x="243" 
d="M202 363q0 -46 -19.5 -72.5t-61.5 -26.5q-41 0 -60.5 26.5t-19.5 72.5v213q0 46 19.5 72.5t60.5 26.5q42 0 61.5 -26.5t19.5 -72.5v-213zM167 581q0 23 -10 42.5t-36 19.5q-25 0 -34.5 -19.5t-9.5 -42.5v-223q0 -23 9.5 -42.5t34.5 -19.5q26 0 36 19.5t10 42.5v223z" />
    <glyph glyph-name="foursuperior" unicode="&#x2074;" horiz-adv-x="243" 
d="M163 357h-132v41l116 271h36l-120 -279h100v80h34v-200h-34v87z" />
    <glyph glyph-name="fivesuperior" unicode="&#x2075;" horiz-adv-x="243" 
d="M40 669h159v-32h-124v-135q7 14 21.5 25.5t37.5 11.5q30 0 48.5 -24.5t18.5 -72.5v-79q0 -46 -20 -72.5t-61 -26.5q-39 0 -59.5 24.5t-20.5 69.5v12h36v-12q0 -23 10 -42.5t34 -19.5q26 0 36 19.5t10 42.5v89q0 22 -9.5 41t-31.5 19q-20 0 -31 -13t-16 -27h-38v202z" />
    <glyph glyph-name="sixsuperior" unicode="&#x2076;" horiz-adv-x="243" 
d="M167 575v6q0 25 -10 43.5t-36 18.5q-25 0 -34.5 -19.5t-9.5 -42.5v-104q6 16 20.5 27.5t35.5 11.5q33 0 51 -23.5t18 -70.5v-60q0 -46 -19.5 -72t-61.5 -26t-61 26.5t-19 72.5v213q0 47 19.5 73t60.5 26q42 0 61.5 -24.5t19.5 -68.5v-7h-35zM121 296q26 0 36 18.5
t10 43.5v66q0 23 -10 42.5t-36 19.5q-23 0 -33.5 -20t-10.5 -42v-66q0 -23 9.5 -42.5t34.5 -19.5z" />
    <glyph glyph-name="sevensuperior" unicode="&#x2077;" horiz-adv-x="243" 
d="M49 270l127 367h-145v32h179v-38l-124 -361h-37z" />
    <glyph glyph-name="eightsuperior" unicode="&#x2078;" horiz-adv-x="243" 
d="M41 590q0 41 20 63t60 22t60.5 -23t20.5 -61v-29q0 -29 -16.5 -47.5t-40.5 -38.5q23 -19 40 -42.5t17 -58.5v-26q0 -39 -20 -62t-61 -23t-60.5 23t-19.5 61v29q0 35 16.5 57.5t39.5 41.5q-24 20 -40 39.5t-16 48.5v26zM77 350q0 -21 9.5 -37.5t34.5 -16.5q26 0 36 16.5
t10 37.5v28q0 26 -13.5 45.5t-32.5 33.5q-18 -14 -31 -32t-13 -47v-28zM77 565q0 -23 11 -38.5t33 -32.5q22 17 34 32t12 39v25q0 20 -10 36.5t-36 16.5q-25 0 -34.5 -16t-9.5 -37v-25z" />
    <glyph glyph-name="ninesuperior" unicode="&#x2079;" horiz-adv-x="243" 
d="M77 364v-6q0 -25 9.5 -43.5t34.5 -18.5q26 0 36 18.5t10 43.5v103q-7 -15 -21.5 -26.5t-34.5 -11.5q-70 0 -70 94v60q0 46 19.5 72t60.5 26q42 0 61.5 -26.5t19.5 -72.5v-213q0 -45 -19.5 -72t-61.5 -27q-41 0 -60.5 25t-19.5 69v6h36zM121 643q-25 0 -34.5 -18.5
t-9.5 -43.5v-65q0 -23 10 -43t34 -20t35 20.5t11 42.5v65q0 23 -10 42.5t-36 19.5z" />
    <glyph glyph-name="zeroinferior" unicode="&#x2080;" horiz-adv-x="243" 
d="M202 93q0 -46 -19.5 -72.5t-61.5 -26.5q-41 0 -60.5 26.5t-19.5 72.5v213q0 46 19.5 72.5t60.5 26.5q42 0 61.5 -26.5t19.5 -72.5v-213zM167 311q0 23 -10 42.5t-36 19.5q-25 0 -34.5 -19.5t-9.5 -42.5v-223q0 -23 9.5 -42.5t34.5 -19.5q26 0 36 19.5t10 42.5v223z" />
    <glyph glyph-name="oneinferior" unicode="&#x2081;" horiz-adv-x="243" 
d="M139 0v361l-83 -54l-20 28l97 64h43v-399h-37z" />
    <glyph glyph-name="twoinferior" unicode="&#x2082;" horiz-adv-x="243" 
d="M38 304v7q0 45 19.5 69.5t64.5 24.5q44 0 62.5 -21.5t18.5 -62.5v-16q0 -30 -14.5 -62t-39.5 -76l-74 -135h128v-32h-162v37l69 129q28 49 43 80.5t15 57.5v13q0 56 -46 56q-27 0 -37.5 -16.5t-10.5 -45.5v-7h-36z" />
    <glyph glyph-name="threeinferior" unicode="&#x2083;" horiz-adv-x="243" 
d="M164 313q0 22 -10 41t-36 19t-36 -19.5t-10 -42.5v-10h-35v7q0 46 19.5 71.5t61.5 25.5q41 0 61 -24t20 -66v-21q0 -31 -11.5 -52t-31.5 -29v-2q20 -8 31.5 -30.5t11.5 -51.5v-40q0 -46 -20.5 -70.5t-60.5 -24.5q-41 0 -61 24.5t-20 69.5v12h35v-12q0 -23 10 -42.5
t36 -19.5t36 19.5t10 42.5v44q0 23 -11.5 43t-35.5 20h-25v31h23q26 0 37.5 20t11.5 43v24z" />
    <glyph glyph-name="fourinferior" unicode="&#x2084;" horiz-adv-x="243" 
d="M163 87h-132v41l116 271h36l-120 -279h100v80h34v-200h-34v87z" />
    <glyph glyph-name="fiveinferior" unicode="&#x2085;" horiz-adv-x="243" 
d="M40 399h159v-32h-124v-135q7 14 21.5 25.5t37.5 11.5q30 0 48.5 -24.5t18.5 -72.5v-79q0 -46 -20 -72.5t-61 -26.5q-39 0 -59.5 24.5t-20.5 69.5v12h36v-12q0 -23 10 -42.5t34 -19.5q26 0 36 19.5t10 42.5v89q0 22 -9.5 41t-31.5 19q-20 0 -31 -13t-16 -27h-38v202z" />
    <glyph glyph-name="sixinferior" unicode="&#x2086;" horiz-adv-x="243" 
d="M167 305v6q0 25 -10 43.5t-36 18.5q-25 0 -34.5 -19.5t-9.5 -42.5v-104q6 16 20.5 27.5t35.5 11.5q33 0 51 -23.5t18 -70.5v-60q0 -46 -19.5 -72t-61.5 -26t-61 26.5t-19 72.5v213q0 47 19.5 73t60.5 26q42 0 61.5 -24.5t19.5 -68.5v-7h-35zM121 26q26 0 36 18.5t10 43.5
v66q0 23 -10 42.5t-36 19.5q-23 0 -33.5 -20t-10.5 -42v-66q0 -23 9.5 -42.5t34.5 -19.5z" />
    <glyph glyph-name="seveninferior" unicode="&#x2087;" horiz-adv-x="243" 
d="M49 0l127 367h-145v32h179v-38l-124 -361h-37z" />
    <glyph glyph-name="eightinferior" unicode="&#x2088;" horiz-adv-x="243" 
d="M41 320q0 41 20 63t60 22t60.5 -23t20.5 -61v-29q0 -29 -16.5 -47.5t-40.5 -38.5q23 -19 40 -42.5t17 -58.5v-26q0 -39 -20 -62t-61 -23t-60.5 23t-19.5 61v29q0 35 16.5 57.5t39.5 41.5q-24 20 -40 39.5t-16 48.5v26zM77 80q0 -21 9.5 -37.5t34.5 -16.5q26 0 36 16.5
t10 37.5v28q0 26 -13.5 45.5t-32.5 33.5q-18 -14 -31 -32t-13 -47v-28zM77 295q0 -23 11 -38.5t33 -32.5q22 17 34 32t12 39v25q0 20 -10 36.5t-36 16.5q-25 0 -34.5 -16t-9.5 -37v-25z" />
    <glyph glyph-name="nineinferior" unicode="&#x2089;" horiz-adv-x="243" 
d="M77 94v-6q0 -25 9.5 -43.5t34.5 -18.5q26 0 36 18.5t10 43.5v103q-7 -15 -21.5 -26.5t-34.5 -11.5q-70 0 -70 94v60q0 46 19.5 72t60.5 26q42 0 61.5 -26.5t19.5 -72.5v-213q0 -45 -19.5 -72t-61.5 -27q-41 0 -60.5 25t-19.5 69v6h36zM121 373q-25 0 -34.5 -18.5
t-9.5 -43.5v-65q0 -23 10 -43t34 -20t35 20.5t11 42.5v65q0 23 -10 42.5t-36 19.5z" />
    <glyph glyph-name="Euro" unicode="&#x20ac;" horiz-adv-x="349" 
d="M267 512v16q0 19 -4 39t-12.5 36t-23 26t-35.5 10q-20 0 -34.5 -10t-23.5 -26t-13 -36t-4 -39v-130h154v-30h-154v-72h154v-30h-154v-128q0 -20 4 -39.5t13 -35.5t23.5 -26t34.5 -10q21 0 35.5 10t23 25.5t12.5 35.5t4 40v15h40v-6q0 -77 -29 -117t-86 -40
q-58 0 -86.5 40t-28.5 115v121h-46v30h46v72h-46v30h46v122q0 75 28.5 115t86.5 40t86.5 -40t28.5 -115v-8h-40z" />
    <glyph glyph-name="uni2113" unicode="&#x2113;" horiz-adv-x="393" 
d="M30 206q19 15 36 29.5t34 29.5q4 80 24 159.5t49 143t64 103t71 39.5q28 0 40 -21t12 -51q0 -88 -56.5 -185.5t-171.5 -201.5q0 -50 4 -91.5t13 -71.5t22.5 -47t31.5 -17q26 0 53 25.5t47 62.5l28 -18q-12 -20 -26.5 -38.5t-31.5 -33t-36 -23.5t-40 -9q-25 0 -43 17
t-30 47.5t-18 73.5t-7 95q-24 -21 -51 -42zM302 676q-20 0 -46 -32t-50 -85t-43 -120.5t-26 -139.5q92 91 140.5 174.5t48.5 155.5q0 20 -5.5 33.5t-18.5 13.5z" />
    <glyph glyph-name="trademark" unicode="&#x2122;" horiz-adv-x="416" 
d="M67 419v221h-52v25h136v-25h-56v-221h-28zM179 419v246h45l51 -170h2l52 170h45v-246h-28v218h-2l-58 -187h-19l-59 187h-2v-218h-27z" />
    <glyph glyph-name="Omega" unicode="&#x2126;" 
d="M279 163q0 -49 -18 -79.5t-42 -47.5h60v-36h-91v41q23 16 37 49t14 65v372q0 20 -4 40t-12.5 36t-23 26t-35.5 10t-35 -10t-23 -26t-13 -36t-4 -40v-372q0 -32 14 -65t37 -49v-41h-91v36h60q-23 17 -41.5 47.5t-18.5 79.5v357q0 75 28.5 115t86.5 40t86.5 -40t28.5 -115
v-357z" />
    <glyph glyph-name="estimated" unicode="&#x212e;" horiz-adv-x="833" 
d="M207 302q-5 0 -5 -4v-176q0 -12 8 -20q42 -45 98.5 -70.5t122.5 -25.5q70 0 129.5 29t102.5 78h52q-49 -57 -123 -91.5t-162 -34.5q-75 0 -140.5 25.5t-114 69.5t-77 103t-28.5 126t28.5 126t77 103t114 69.5t140.5 25.5t140.5 -25.5t114 -69.5t77 -103t28.5 -126v-9
h-583zM658 503q0 12 -9 21q-42 42 -98 67t-120 25q-65 0 -121.5 -25.5t-98.5 -69.5q-9 -9 -9 -22v-174q0 -5 5 -5h447q4 0 4 5v178z" />
    <glyph glyph-name="onethird" unicode="&#x2153;" horiz-adv-x="580" 
d="M135 270v361l-83 -54l-20 28l97 64h43v-399h-37zM161 0h-36l278 665h35zM500 313q0 22 -10 41t-36 19t-36 -19.5t-10 -42.5v-10h-35v7q0 46 19.5 71.5t61.5 25.5q41 0 61 -24t20 -66v-21q0 -31 -11.5 -52t-31.5 -29v-2q20 -8 31.5 -30.5t11.5 -51.5v-40
q0 -46 -20.5 -70.5t-60.5 -24.5q-41 0 -61 24.5t-20 69.5v12h35v-12q0 -23 10 -42.5t36 -19.5t36 19.5t10 42.5v44q0 23 -11.5 43t-35.5 20h-25v31h23q26 0 37.5 20t11.5 43v24z" />
    <glyph glyph-name="twothirds" unicode="&#x2154;" horiz-adv-x="580" 
d="M40 574v7q0 45 19.5 69.5t64.5 24.5q44 0 62.5 -21.5t18.5 -62.5v-16q0 -30 -14.5 -62t-39.5 -76l-74 -135h128v-32h-162v37l69 129q28 49 43 80.5t15 57.5v13q0 56 -46 56q-27 0 -37.5 -16.5t-10.5 -45.5v-7h-36zM176 0h-36l278 665h35zM500 313q0 22 -10 41t-36 19
t-36 -19.5t-10 -42.5v-10h-35v7q0 46 19.5 71.5t61.5 25.5q41 0 61 -24t20 -66v-21q0 -31 -11.5 -52t-31.5 -29v-2q20 -8 31.5 -30.5t11.5 -51.5v-40q0 -46 -20.5 -70.5t-60.5 -24.5q-41 0 -61 24.5t-20 69.5v12h35v-12q0 -23 10 -42.5t36 -19.5t36 19.5t10 42.5v44
q0 23 -11.5 43t-35.5 20h-25v31h23q26 0 37.5 20t11.5 43v24z" />
    <glyph glyph-name="oneeighth" unicode="&#x215b;" horiz-adv-x="580" 
d="M135 270v361l-83 -54l-20 28l97 64h43v-399h-37zM162 0h-36l278 665h35zM377 320q0 41 20 63t60 22t60.5 -23t20.5 -61v-29q0 -29 -16.5 -47.5t-40.5 -38.5q23 -19 40 -42.5t17 -58.5v-26q0 -39 -20 -62t-61 -23t-60.5 23t-19.5 61v29q0 35 16.5 57.5t39.5 41.5
q-24 20 -40 39.5t-16 48.5v26zM413 80q0 -21 9.5 -37.5t34.5 -16.5q26 0 36 16.5t10 37.5v28q0 26 -13.5 45.5t-32.5 33.5q-18 -14 -31 -32t-13 -47v-28zM413 295q0 -23 11 -38.5t33 -32.5q22 17 34 32t12 39v25q0 20 -10 36.5t-36 16.5q-25 0 -34.5 -16t-9.5 -37v-25z" />
    <glyph glyph-name="threeeighths" unicode="&#x215c;" horiz-adv-x="580" 
d="M164 583q0 22 -10 41t-36 19t-36 -19.5t-10 -42.5v-10h-35v7q0 46 19.5 71.5t61.5 25.5q41 0 61 -24t20 -66v-21q0 -31 -11.5 -52t-31.5 -29v-2q20 -8 31.5 -30.5t11.5 -51.5v-40q0 -46 -20.5 -70.5t-60.5 -24.5q-41 0 -61 24.5t-20 69.5v12h35v-12q0 -23 10 -42.5
t36 -19.5t36 19.5t10 42.5v44q0 23 -11.5 43t-35.5 20h-25v31h23q26 0 37.5 20t11.5 43v24zM169 0h-36l278 665h35zM377 320q0 41 20 63t60 22t60.5 -23t20.5 -61v-29q0 -29 -16.5 -47.5t-40.5 -38.5q23 -19 40 -42.5t17 -58.5v-26q0 -39 -20 -62t-61 -23t-60.5 23t-19.5 61
v29q0 35 16.5 57.5t39.5 41.5q-24 20 -40 39.5t-16 48.5v26zM413 80q0 -21 9.5 -37.5t34.5 -16.5q26 0 36 16.5t10 37.5v28q0 26 -13.5 45.5t-32.5 33.5q-18 -14 -31 -32t-13 -47v-28zM413 295q0 -23 11 -38.5t33 -32.5q22 17 34 32t12 39v25q0 20 -10 36.5t-36 16.5
q-25 0 -34.5 -16t-9.5 -37v-25z" />
    <glyph glyph-name="fiveeighths" unicode="&#x215d;" horiz-adv-x="580" 
d="M40 669h159v-32h-124v-135q7 14 21.5 25.5t37.5 11.5q30 0 48.5 -24.5t18.5 -72.5v-79q0 -46 -20 -72.5t-61 -26.5q-39 0 -59.5 24.5t-20.5 69.5v12h36v-12q0 -23 10 -42.5t34 -19.5q26 0 36 19.5t10 42.5v89q0 22 -9.5 41t-31.5 19q-20 0 -31 -13t-16 -27h-38v202z
M169 0h-36l278 665h35zM377 320q0 41 20 63t60 22t60.5 -23t20.5 -61v-29q0 -29 -16.5 -47.5t-40.5 -38.5q23 -19 40 -42.5t17 -58.5v-26q0 -39 -20 -62t-61 -23t-60.5 23t-19.5 61v29q0 35 16.5 57.5t39.5 41.5q-24 20 -40 39.5t-16 48.5v26zM413 80q0 -21 9.5 -37.5
t34.5 -16.5q26 0 36 16.5t10 37.5v28q0 26 -13.5 45.5t-32.5 33.5q-18 -14 -31 -32t-13 -47v-28zM413 295q0 -23 11 -38.5t33 -32.5q22 17 34 32t12 39v25q0 20 -10 36.5t-36 16.5q-25 0 -34.5 -16t-9.5 -37v-25z" />
    <glyph glyph-name="seveneighths" unicode="&#x215e;" horiz-adv-x="580" 
d="M49 270l127 367h-145v32h179v-38l-124 -361h-37zM139 0h-36l278 665h35zM377 320q0 41 20 63t60 22t60.5 -23t20.5 -61v-29q0 -29 -16.5 -47.5t-40.5 -38.5q23 -19 40 -42.5t17 -58.5v-26q0 -39 -20 -62t-61 -23t-60.5 23t-19.5 61v29q0 35 16.5 57.5t39.5 41.5
q-24 20 -40 39.5t-16 48.5v26zM413 80q0 -21 9.5 -37.5t34.5 -16.5q26 0 36 16.5t10 37.5v28q0 26 -13.5 45.5t-32.5 33.5q-18 -14 -31 -32t-13 -47v-28zM413 295q0 -23 11 -38.5t33 -32.5q22 17 34 32t12 39v25q0 20 -10 36.5t-36 16.5q-25 0 -34.5 -16t-9.5 -37v-25z" />
    <glyph glyph-name="partialdiff" unicode="&#x2202;" horiz-adv-x="332" 
d="M49 519v7q0 70 29.5 109.5t84.5 39.5q34 0 57 -19.5t37 -60t19.5 -104t5.5 -150.5q0 -178 -26 -264.5t-93 -86.5q-27 0 -48 10.5t-35.5 35t-22.5 65t-8 99.5q0 57 8 97t22 64.5t34.5 35.5t45.5 11q32 0 53.5 -14.5t32.5 -38.5q0 75 -5 129t-14.5 88.5t-25 50.5t-37.5 16
q-21 0 -35.5 -9.5t-23.5 -25.5t-13 -36.5t-4 -42.5v-6h-38zM164 26q28 0 44 26t24 66.5t9.5 90.5t1.5 98q-12 35 -33 50t-45 15q-42 0 -59 -43t-17 -128q0 -88 16.5 -131.5t58.5 -43.5z" />
    <glyph glyph-name="Delta" unicode="&#x2206;" horiz-adv-x="296" 
d="M240 36l-92 567l-92 -567h184zM131 665h34l109 -621v-44h-252v44z" />
    <glyph glyph-name="product" unicode="&#x220f;" horiz-adv-x="413" 
d="M314 -80h-40v709h-135v-709h-40v709h-63v36h341v-36h-63v-709z" />
    <glyph glyph-name="summation" unicode="&#x2211;" horiz-adv-x="271" 
d="M244 -44v-36h-208v49l125 323l-125 325v48h208v-36h-171l123 -318v-38l-123 -317h171z" />
    <glyph glyph-name="minus" unicode="&#x2212;" horiz-adv-x="314" 
d="M38 321h238v-38h-238v38z" />
    <glyph glyph-name="uni2215" unicode="&#x2215;" horiz-adv-x="93" 
d="M-74 0h-36l278 665h35z" />
    <glyph glyph-name="radical" unicode="&#x221a;" horiz-adv-x="323" 
d="M158 0l-84 292l-43 -15l-9 32l75 26l77 -286l83 616h36l-98 -665h-37z" />
    <glyph glyph-name="infinity" unicode="&#x221e;" horiz-adv-x="480" 
d="M240 309q-32 -37 -57 -53t-51 -16h-18q-37 0 -64.5 22t-27.5 70t27.5 70t64.5 22h18q26 0 51 -15.5t57 -53.5q32 38 57 53.5t51 15.5h18q37 0 64.5 -22t27.5 -70t-27.5 -70t-64.5 -22h-18q-26 0 -51 16t-57 53zM123 269q13 0 24 3t22 10t23 19t27 31q-30 38 -51.5 50.5
t-44.5 12.5h-14q-20 0 -37 -16t-17 -47t17 -47t37 -16h14zM371 268q20 0 37 16.5t17 47.5t-17 47t-37 16h-14q-23 0 -44.5 -12.5t-51.5 -50.5q15 -19 27 -31.5t23 -19.5t22 -10t24 -3h14z" />
    <glyph glyph-name="integral" unicode="&#x222b;" horiz-adv-x="242" 
d="M214 641q-22 0 -36 -10.5t-22.5 -27t-11.5 -37.5t-3 -42v-374q0 -78 -27 -119t-86 -41v34q22 0 36 10.5t22.5 27t11.5 37.5t3 41v375q0 78 26.5 119t86.5 41v-34z" />
    <glyph glyph-name="approxequal" unicode="&#x2248;" horiz-adv-x="314" 
d="M282 286q0 -56 -19 -77t-46 -21q-19 0 -32.5 7.5t-25.5 18.5q-13 12 -25.5 22.5t-29.5 10.5q-18 0 -27 -13.5t-9 -45.5h-36q0 28 5.5 46.5t15 30t21.5 16.5t25 5q18 0 31 -7.5t25 -18.5q12 -12 25.5 -23t30.5 -11t26 13.5t9 46.5h36zM282 409q0 -56 -19 -77t-46 -21
q-19 0 -32.5 7.5t-25.5 18.5q-13 12 -25.5 22.5t-29.5 10.5q-18 0 -27 -13.5t-9 -45.5h-36q0 28 5.5 46.5t15 30t21.5 16.5t25 5q18 0 31 -7.5t25 -18.5q12 -12 25.5 -23t30.5 -11t26 13.5t9 46.5h36z" />
    <glyph glyph-name="notequal" unicode="&#x2260;" horiz-adv-x="314" 
d="M38 376h129l37 92h36l-37 -92h73v-38h-87l-28 -72h115v-38h-129l-36 -92h-37l37 92h-73v38h86l29 72h-115v38z" />
    <glyph glyph-name="lessequal" unicode="&#x2264;" horiz-adv-x="314" 
d="M38 375l238 82v-40l-195 -60l195 -60v-40l-238 82v36zM38 215h238v-38h-238v38z" />
    <glyph glyph-name="greaterequal" unicode="&#x2265;" horiz-adv-x="314" 
d="M276 339l-238 -82v40l195 60l-195 60v40l238 -82v-36zM38 215h238v-38h-238v38z" />
    <glyph glyph-name="lozenge" unicode="&#x25ca;" horiz-adv-x="256" 
d="M128 90l71 242l-71 242l-71 -242zM110 612h36l90 -280l-90 -280h-36l-90 280z" />
    <glyph glyph-name="heart" unicode="&#x2665;" horiz-adv-x="602" 
d="M305 435q16 29 41.5 47t56.5 18q43 0 71 -29.5t28 -75.5q0 -30 -13.5 -65t-39 -70t-63 -67.5t-85.5 -57.5q-48 25 -85.5 57.5t-63 67.5t-39 70t-13.5 65q0 46 28 75.5t71 29.5q31 0 56.5 -18t41.5 -47h8z" />
    <glyph glyph-name="zeroslash" unicode="&#xe01a;" 
d="M279 145q0 -75 -28.5 -115t-86.5 -40t-86.5 40t-28.5 115v375q0 75 28.5 115t86.5 40t86.5 -40t28.5 -115v-375zM239 527v6.5t-1 6.5l-140 -462q8 -22 24 -36.5t42 -14.5q21 0 35.5 9.5t23 25.5t12.5 36t4 40v389zM89 130l140 459q-8 22 -24 36t-41 14q-21 0 -35 -10
t-23 -26t-13 -36t-4 -40v-397z" />
    <glyph glyph-name="numbersign.plf" unicode="&#xe020;" horiz-adv-x="443" 
d="M94 484h72l48 181h34l-47 -181h118l48 181h34l-47 -181h64v-33h-73l-59 -227h64v-33h-72l-50 -191h-34l49 191h-119l-50 -191h-34l50 191h-65v33h73l60 227h-64v33zM133 224h118l60 227h-119z" />
    <glyph glyph-name="Euro.plf" unicode="&#xe021;" horiz-adv-x="349" 
d="M267 512v16q0 19 -4 39t-12.5 36t-23 26t-35.5 10q-20 0 -34.5 -10t-23.5 -26t-13 -36t-4 -39v-130h154v-30h-154v-72h154v-30h-154v-128q0 -20 4 -39.5t13 -35.5t23.5 -26t34.5 -10q21 0 35.5 10t23 25.5t12.5 35.5t4 40v15h40v-6q0 -77 -29 -117t-86 -40
q-58 0 -86.5 40t-28.5 115v121h-46v30h46v72h-46v30h46v122q0 75 28.5 115t86.5 40t86.5 -40t28.5 -115v-8h-40z" />
    <glyph glyph-name="dollar.plf" unicode="&#xe022;" horiz-adv-x="310" 
d="M45 535q0 22 5 44.5t16 41.5t28 32.5t41 17.5v59h40v-58q44 -5 67 -41t23 -104v-15h-40v15q0 20 -3 40t-11 36t-21.5 26t-33.5 10q-32 0 -51 -27.5t-19 -68.5q0 -29 2 -50.5t9 -40t21 -35.5t39 -38q23 -19 42.5 -39t34 -43t23 -51t8.5 -63v-29q0 -25 -3.5 -52t-13 -50
t-27.5 -39t-46 -20v-58h-40v58q-45 7 -67.5 44t-22.5 102v14h41v-15q0 -20 3 -40t11 -36t21.5 -26t34.5 -10q32 0 50.5 27.5t18.5 68.5q0 38 -2.5 68t-11.5 55.5t-26.5 48.5t-46.5 48q-21 18 -38 34t-29 34.5t-19 40t-7 49.5v35z" />
    <glyph glyph-name="yen.plf" unicode="&#xe023;" horiz-adv-x="349" 
d="M54 330h92l-106 335h41l92 -322h3l92 322h41l-107 -335h92v-31h-100v-71h100v-31h-100v-197h-40v197h-100v31h100v71h-100v31z" />
    <glyph glyph-name="sterling.plf" unicode="&#xe024;" horiz-adv-x="348" 
d="M38 284h40v236q0 75 28.5 115t86.5 40q57 0 86 -40t29 -115v-10h-40v19q0 19 -4 39t-13 35.5t-23 25.5t-35 10t-35 -10t-23 -26t-13 -36t-4 -40v-243h138v-36h-138v-212h190v-36h-270v36h40v212h-40v36z" />
    <glyph glyph-name="cent.plf" unicode="&#xe025;" horiz-adv-x="298" 
d="M133 -69v62q-46 7 -65.5 45.5t-19.5 107.5v212q0 69 19.5 107.5t65.5 45.5v62h40v-62q45 -6 65 -43t20 -103v-18h-37v11q0 24 -2.5 46t-10 39t-20.5 27t-34 10t-33.5 -10t-20 -26t-10 -36t-2.5 -40v-232q0 -20 2.5 -39.5t9.5 -36t20 -26.5t34 -10t34.5 10.5t20.5 27.5
t9.5 39t2.5 45v11h37v-17q0 -67 -20 -104t-65 -43v-62h-40z" />
    <glyph glyph-name="florin.plf" unicode="&#xe026;" horiz-adv-x="385" 
d="M213 150q0 -78 -25.5 -119t-82.5 -41q-29 0 -50 12t-34 32l28 25q8 -15 21 -25t33 -10q22 0 35.5 10.5t21 27t10 37.5t2.5 41v375q0 78 24.5 119t81.5 41q31 0 52 -12t34 -32l-28 -25q-8 14 -21 24.5t-34 10.5t-34.5 -10.5t-21 -27t-10 -37t-2.5 -40.5v-147h108v-34h-108
v-195z" />
    <glyph glyph-name="zero.plf" unicode="&#xe027;" 
d="M279 145q0 -75 -28.5 -115t-86.5 -40t-86.5 40t-28.5 115v375q0 75 28.5 115t86.5 40t86.5 -40t28.5 -115v-375zM239 527q0 20 -4 40t-12.5 36t-23 26t-35.5 10t-35 -10t-23 -26t-13 -36t-4 -40v-389q0 -20 4 -40t13 -35.5t23 -25.5t35 -10t35.5 9.5t23 25.5t12.5 36
t4 40v389z" />
    <glyph glyph-name="one.plf" unicode="&#xe028;" horiz-adv-x="254" 
d="M141 0v623l-99 -82l-25 29l116 95h48v-665h-40z" />
    <glyph glyph-name="two.plf" unicode="&#xe029;" horiz-adv-x="308" 
d="M37 515v12q0 148 118 148q61 0 86.5 -34t25.5 -101v-28q0 -52 -20.5 -105t-55.5 -126l-116 -245h192v-36h-229v45l110 234q20 41 35 74t24.5 61t14.5 51.5t5 46.5v26q0 52 -17 76.5t-55 24.5q-44 0 -61 -30.5t-17 -80.5v-13h-40z" />
    <glyph glyph-name="three.plf" unicode="&#xe02a;" horiz-adv-x="316" 
d="M226 527q0 20 -4 40t-12.5 35.5t-23 25.5t-35.5 10t-35 -10t-23 -25.5t-13 -35.5t-4 -40v-19h-40v12q0 75 28.5 115t86.5 40t86.5 -39t28.5 -109v-37q0 -51 -18 -87t-49 -49v-3q31 -12 49 -49.5t18 -87.5v-73q0 -75 -30.5 -113t-84.5 -38q-57 0 -86 38.5t-29 112.5v17h40
v-20q0 -20 4 -39.5t13 -35.5t23 -26t35 -10t35.5 10t23 25.5t12.5 35.5t4 40v82q0 19 -4.5 39.5t-14 37t-24 27t-34.5 10.5h-34v36h34q20 0 34.5 10.5t24 27t14 36.5t4.5 40v43z" />
    <glyph glyph-name="four.plf" unicode="&#xe02b;" horiz-adv-x="306" 
d="M216 155h-192v46l178 464h40l-181 -473h155v138h40v-330h-40v155z" />
    <glyph glyph-name="five.plf" unicode="&#xe02c;" horiz-adv-x="325" 
d="M45 665h231v-37h-191v-244q12 23 34 43t57 20q48 0 74 -40t26 -116v-146q0 -75 -29 -115t-87 -40q-57 0 -86 39t-29 112v17h40v-20q0 -20 4 -40t13 -36t23 -26t35 -10t35.5 10t23.5 26t13 36t4 40v163q0 19 -4 38.5t-12 35.5t-21 25.5t-31 9.5q-17 0 -29.5 -7t-22 -18
t-16.5 -24t-11 -24h-44v328z" />
    <glyph glyph-name="six.plf" unicode="&#xe02d;" 
d="M240 515v12q0 22 -4 42t-13 35.5t-23.5 25t-35.5 9.5t-35 -10t-23 -26t-13 -36t-4 -40v-183q10 27 32 45.5t54 18.5q53 0 79 -39.5t26 -114.5v-110q0 -75 -29 -114.5t-86 -39.5q-58 0 -87 40t-29 115v375q0 75 29 115t87 40q115 0 115 -148v-12h-40zM164 26
q21 0 35.5 9.5t23.5 25t13 35.5t4 42v122q0 20 -4 40t-13 36t-23.5 26t-35.5 10q-20 0 -34 -10t-23 -26t-13.5 -36t-4.5 -40v-122q0 -20 4 -40t13 -36t23 -26t35 -10z" />
    <glyph glyph-name="seven.plf" unicode="&#xe02e;" horiz-adv-x="288" 
d="M49 0l179 628h-208v37h243v-46l-174 -619h-40z" />
    <glyph glyph-name="eight.plf" unicode="&#xe02f;" 
d="M49 540q0 66 29 100.5t87 34.5t86.5 -34t28.5 -98v-56q0 -24 -7 -43.5t-19 -36t-28 -32t-35 -31.5q18 -16 34 -33.5t28 -37.5t19.5 -44.5t7.5 -53.5v-50q0 -63 -29.5 -99t-85.5 -36q-59 0 -87.5 34t-28.5 98v56q0 29 7 52.5t19 43.5t28 36.5t33 32.5q-18 16 -34 32
t-28 33.5t-18.5 38t-6.5 44.5v49zM89 122q0 -17 4 -34.5t13 -31t23.5 -22t35.5 -8.5t35.5 8.5t23 22t12.5 31t4 34.5v54q0 50 -22.5 83.5t-52.5 59.5q-15 -12 -29 -26t-24.5 -30.5t-16.5 -38t-6 -48.5v-54zM89 496q0 -39 19.5 -68t56.5 -59q36 30 55.5 57t19.5 70v47
q0 17 -4 34.5t-13 31t-23 22t-35 8.5t-35.5 -8t-23.5 -21.5t-13 -30.5t-4 -36v-47z" />
    <glyph glyph-name="nine.plf" unicode="&#xe030;" 
d="M90 150v-12q0 -22 3.5 -42t12.5 -35.5t23.5 -25t35.5 -9.5t35 9.5t23 25t13 35.5t4 42v183q-9 -27 -31.5 -45.5t-53.5 -18.5q-53 0 -79.5 39.5t-26.5 114.5v110q0 75 29 114.5t87 39.5t86.5 -40t28.5 -115v-375q0 -72 -29 -113.5t-86 -41.5q-116 0 -116 148v12h41z
M165 639q-21 0 -35.5 -9.5t-23 -25t-12.5 -35.5t-4 -42v-122q0 -20 4 -40t12.5 -36t23 -26t35.5 -10q20 0 34 10t23 26t13.5 36t4.5 40v122q0 20 -4 40t-13 36t-23 26t-35 10z" />
    <glyph glyph-name="zeroslash.plf" unicode="&#xe031;" 
d="M279 145q0 -75 -28.5 -115t-86.5 -40t-86.5 40t-28.5 115v375q0 75 28.5 115t86.5 40t86.5 -40t28.5 -115v-375zM239 527v6.5t-1 6.5l-140 -462q8 -22 24 -36.5t42 -14.5q21 0 35.5 9.5t23 25.5t12.5 36t4 40v389zM89 130l140 459q-8 22 -24 36t-41 14q-21 0 -35 -10
t-23 -26t-13 -36t-4 -40v-397z" />
    <glyph glyph-name="numbersign.tlf" unicode="&#xe032;" 
d="M58 484h59l31 181h31l-31 -181h88l31 181h31l-30 -181h55v-33h-62l-39 -227h56v-33h-61l-33 -191h-31l32 191h-87l-34 -191h-31l33 191h-53v33h58l40 227h-53v33zM103 224h87l40 227h-88z" />
    <glyph glyph-name="Euro.tlf" unicode="&#xe033;" 
d="M261 512v16q0 19 -4 39t-12.5 36t-23 26t-35.5 10q-20 0 -34.5 -10t-23.5 -26t-13 -36t-4 -39v-130h154v-30h-154v-72h154v-30h-154v-128q0 -20 4 -39.5t13 -35.5t23.5 -26t34.5 -10q21 0 35.5 10t23 25.5t12.5 35.5t4 40v15h40v-6q0 -77 -29 -117t-86 -40
q-58 0 -86.5 40t-28.5 115v121h-46v30h46v72h-46v30h46v122q0 75 28.5 115t86.5 40t86.5 -40t28.5 -115v-8h-40z" />
    <glyph glyph-name="dollar.tlf" unicode="&#xe034;" 
d="M54 535q0 22 5 44.5t16 41.5t28 32.5t41 17.5v59h40v-58q44 -5 67 -41t23 -104v-15h-40v15q0 20 -3 40t-11 36t-21.5 26t-33.5 10q-32 0 -51 -27.5t-19 -68.5q0 -29 2 -50.5t9 -40t21 -35.5t39 -38q23 -19 42.5 -39t34 -43t23 -51t8.5 -63v-29q0 -25 -3.5 -52t-13 -50
t-27.5 -39t-46 -20v-58h-40v58q-45 7 -67.5 44t-22.5 102v14h41v-15q0 -20 3 -40t11 -36t21.5 -26t34.5 -10q32 0 50.5 27.5t18.5 68.5q0 38 -2.5 68t-11.5 55.5t-26.5 48.5t-46.5 48q-21 18 -38 34t-29 34.5t-19 40t-7 49.5v35z" />
    <glyph glyph-name="yen.tlf" unicode="&#xe035;" 
d="M44 330h92l-106 335h41l92 -322h3l92 322h41l-107 -335h92v-31h-100v-71h100v-31h-100v-197h-40v197h-100v31h100v71h-100v31z" />
    <glyph glyph-name="sterling.tlf" unicode="&#xe036;" 
d="M29 284h40v236q0 75 28.5 115t86.5 40q57 0 86 -40t29 -115v-10h-40v19q0 19 -4 39t-13 35.5t-23 25.5t-35 10t-35 -10t-23 -26t-13 -36t-4 -40v-243h138v-36h-138v-212h190v-36h-270v36h40v212h-40v36z" />
    <glyph glyph-name="cent.tlf" unicode="&#xe037;" 
d="M144 -69v62q-46 7 -65.5 45.5t-19.5 107.5v212q0 69 19.5 107.5t65.5 45.5v62h40v-62q45 -6 65 -43t20 -103v-18h-37v11q0 24 -2.5 46t-10 39t-20.5 27t-34 10t-33.5 -10t-20 -26t-10 -36t-2.5 -40v-232q0 -20 2.5 -39.5t9.5 -36t20 -26.5t34 -10t34.5 10.5t20.5 27.5
t9.5 39t2.5 45v11h37v-17q0 -67 -20 -104t-65 -43v-62h-40z" />
    <glyph glyph-name="florin.tlf" unicode="&#xe038;" 
d="M186 150q0 -78 -25.5 -119t-82.5 -41q-29 0 -50 12t-34 32l28 25q8 -15 21 -25t33 -10q22 0 35.5 10.5t21 27t10 37.5t2.5 41v375q0 78 24.5 119t81.5 41q31 0 52 -12t34 -32l-28 -25q-8 14 -21 24.5t-34 10.5t-34.5 -10.5t-21 -27t-10 -37t-2.5 -40.5v-147h108v-34h-108
v-195z" />
    <glyph glyph-name="zero.tlf" unicode="&#xe039;" 
d="M279 145q0 -75 -28.5 -115t-86.5 -40t-86.5 40t-28.5 115v375q0 75 28.5 115t86.5 40t86.5 -40t28.5 -115v-375zM239 527q0 20 -4 40t-12.5 36t-23 26t-35.5 10t-35 -10t-23 -26t-13 -36t-4 -40v-389q0 -20 4 -40t13 -35.5t23 -25.5t35 -10t35.5 9.5t23 25.5t12.5 36
t4 40v389z" />
    <glyph glyph-name="one.tlf" unicode="&#xe03a;" 
d="M187 0v623l-111 -91l-25 29l128 104h48v-665h-40z" />
    <glyph glyph-name="two.tlf" unicode="&#xe03b;" 
d="M49 515v12q0 148 118 148q61 0 86.5 -34t25.5 -101v-28q0 -52 -20.5 -105t-55.5 -126l-116 -245h192v-36h-229v45l110 234q20 41 35 74t24.5 61t14.5 51.5t5 46.5v26q0 52 -17 76.5t-55 24.5q-44 0 -61 -30.5t-17 -80.5v-13h-40z" />
    <glyph glyph-name="three.tlf" unicode="&#xe03c;" 
d="M238 527q0 20 -4 40t-12.5 35.5t-23 25.5t-35.5 10t-35 -10t-23 -25.5t-13 -35.5t-4 -40v-19h-40v12q0 75 28.5 115t86.5 40t86.5 -39t28.5 -109v-37q0 -51 -18 -87t-49 -49v-3q31 -12 49 -49.5t18 -87.5v-73q0 -75 -30.5 -113t-84.5 -38q-57 0 -86 38.5t-29 112.5v17h40
v-20q0 -20 4 -39.5t13 -35.5t23 -26t35 -10t35.5 10t23 25.5t12.5 35.5t4 40v82q0 19 -4.5 39.5t-14 37t-24 27t-34.5 10.5h-34v36h34q20 0 34.5 10.5t24 27t14 36.5t4.5 40v43z" />
    <glyph glyph-name="four.tlf" unicode="&#xe03d;" 
d="M232 155h-192v46l178 464h40l-181 -473h155v138h40v-330h-40v155z" />
    <glyph glyph-name="five.tlf" unicode="&#xe03e;" 
d="M49 665h231v-37h-191v-244q12 23 34 43t57 20q48 0 74 -40t26 -116v-146q0 -75 -29 -115t-87 -40q-57 0 -86 39t-29 112v17h40v-20q0 -20 4 -40t13 -36t23 -26t35 -10t35.5 10t23.5 26t13 36t4 40v163q0 19 -4 38.5t-12 35.5t-21 25.5t-31 9.5q-17 0 -29.5 -7t-22 -18
t-16.5 -24t-11 -24h-44v328z" />
    <glyph glyph-name="six.tlf" unicode="&#xe03f;" 
d="M240 515v12q0 22 -4 42t-13 35.5t-23.5 25t-35.5 9.5t-35 -10t-23 -26t-13 -36t-4 -40v-183q10 27 32 45.5t54 18.5q53 0 79 -39.5t26 -114.5v-110q0 -75 -29 -114.5t-86 -39.5q-58 0 -87 40t-29 115v375q0 75 29 115t87 40q115 0 115 -148v-12h-40zM164 26
q21 0 35.5 9.5t23.5 25t13 35.5t4 42v122q0 20 -4 40t-13 36t-23.5 26t-35.5 10q-20 0 -34 -10t-23 -26t-13.5 -36t-4.5 -40v-122q0 -20 4 -40t13 -36t23 -26t35 -10z" />
    <glyph glyph-name="seven.tlf" unicode="&#xe040;" 
d="M71 0l179 628h-208v37h243v-46l-174 -619h-40z" />
    <glyph glyph-name="eight.tlf" unicode="&#xe041;" 
d="M49 540q0 66 29 100.5t87 34.5t86.5 -34t28.5 -98v-56q0 -24 -7 -43.5t-19 -36t-28 -32t-35 -31.5q18 -16 34 -33.5t28 -37.5t19.5 -44.5t7.5 -53.5v-50q0 -63 -29.5 -99t-85.5 -36q-59 0 -87.5 34t-28.5 98v56q0 29 7 52.5t19 43.5t28 36.5t33 32.5q-18 16 -34 32
t-28 33.5t-18.5 38t-6.5 44.5v49zM89 122q0 -17 4 -34.5t13 -31t23.5 -22t35.5 -8.5t35.5 8.5t23 22t12.5 31t4 34.5v54q0 50 -22.5 83.5t-52.5 59.5q-15 -12 -29 -26t-24.5 -30.5t-16.5 -38t-6 -48.5v-54zM89 496q0 -39 19.5 -68t56.5 -59q36 30 55.5 57t19.5 70v47
q0 17 -4 34.5t-13 31t-23 22t-35 8.5t-35.5 -8t-23.5 -21.5t-13 -30.5t-4 -36v-47z" />
    <glyph glyph-name="nine.tlf" unicode="&#xe042;" 
d="M89 150v-12q0 -22 3.5 -42t12.5 -35.5t23.5 -25t35.5 -9.5t35 9.5t23 25t13 35.5t4 42v183q-9 -27 -31.5 -45.5t-53.5 -18.5q-53 0 -79.5 39.5t-26.5 114.5v110q0 75 29 114.5t87 39.5t86.5 -40t28.5 -115v-375q0 -72 -29 -113.5t-86 -41.5q-116 0 -116 148v12h41z
M164 639q-21 0 -35.5 -9.5t-23 -25t-12.5 -35.5t-4 -42v-122q0 -20 4 -40t12.5 -36t23 -26t35.5 -10q20 0 34 10t23 26t13.5 36t4.5 40v122q0 20 -4 40t-13 36t-23 26t-35 10z" />
    <glyph glyph-name="zeroslash.tlf" unicode="&#xe043;" 
d="M279 145q0 -75 -28.5 -115t-86.5 -40t-86.5 40t-28.5 115v375q0 75 28.5 115t86.5 40t86.5 -40t28.5 -115v-375zM239 527v6.5t-1 6.5l-140 -462q8 -22 24 -36.5t42 -14.5q21 0 35.5 9.5t23 25.5t12.5 36t4 40v389zM89 130l140 459q-8 22 -24 36t-41 14q-21 0 -35 -10
t-23 -26t-13 -36t-4 -40v-397z" />
    <glyph glyph-name="numbersign.tosf" unicode="&#xe044;" 
d="M44 362h65l25 142h32l-24 -142h85l24 142h32l-24 -142h62v-34h-68l-27 -152h63v-34h-68l-25 -142h-32l24 142h-85l-25 -142h-32l25 142h-61v34h67l27 152h-60v34zM109 176h85l27 152h-86z" />
    <glyph glyph-name="Euro.tosf" unicode="&#xe045;" 
d="M262 358v8q0 20 -4 40t-12.5 36t-23 26t-35.5 10t-35.5 -10t-23 -26t-12.5 -36t-4 -40v-54h136v-25h-136v-70h136v-25h-136v-54q0 -20 4 -40t12.5 -36t23 -26t35.5 -10t35.5 10t23 26t12.5 36t4 40v8h40v-5q0 -72 -28.5 -111.5t-86.5 -39.5t-87 40t-29 115v47h-46v25h46
v70h-46v25h46v47q0 75 29 115t87 40q57 0 86 -40t29 -109v-7h-40z" />
    <glyph glyph-name="dollar.tosf" unicode="&#xe046;" 
d="M102 147v-8q0 -20 2.5 -40.5t9.5 -37t20 -27t34 -10.5q32 0 49 27.5t17 68.5q0 42 -17.5 74.5t-63.5 61.5q-42 28 -66.5 60t-24.5 85q0 19 5 37.5t15.5 33.5t27 25.5t38.5 13.5v56h38v-56q45 -5 65.5 -42t20.5 -102v-9h-39v11q0 19 -2.5 39t-9.5 36t-20 26t-34 10
q-18 0 -31 -7t-20.5 -17.5t-11 -24.5t-3.5 -27q0 -25 6 -41.5t18 -30.5t31 -27.5t45 -32.5q72 -56 72 -147q0 -22 -5 -44t-15.5 -40.5t-27 -31.5t-39.5 -16v-56h-38v56q-45 7 -65.5 43.5t-20.5 102.5v8h40z" />
    <glyph glyph-name="yen.tosf" unicode="&#xe047;" 
d="M44 223h92l-106 281h41l92 -270h3l92 270h41l-106 -281h91v-26h-100v-69h100v-26h-100v-102h-40v102h-100v26h100v69h-100v26z" />
    <glyph glyph-name="sterling.tosf" unicode="&#xe048;" 
d="M33 213h40v146q0 75 28.5 115t86.5 40q57 0 86 -40t29 -110v-11h-40v14q0 19 -4 39t-13 36t-23 26t-35 10t-35 -10t-23 -26.5t-13 -36.5t-4 -40v-152h122v-25h-122v-152h190v-36h-270v36h40v152h-40v25z" />
    <glyph glyph-name="cent.tosf" unicode="&#xe049;" 
d="M151 -69v62q-46 7 -65.5 45.5t-19.5 107.5v132q0 69 19.5 107.5t65.5 45.5v62h40v-62q45 -6 65 -42.5t20 -91.5v-6h-37v3q0 19 -3 38t-10.5 34t-20.5 24.5t-33 9.5q-21 0 -33.5 -10t-20 -26t-10 -36t-2.5 -40v-141q0 -23 2.5 -45.5t9.5 -39.5t20 -27.5t34 -10.5
q20 0 33 9t20.5 24t10.5 34t3 39v3h37q0 -60 -18.5 -96.5t-66.5 -43.5v-62h-40z" />
    <glyph glyph-name="florin.tosf" unicode="&#xe04a;" 
d="M35 24q22 0 36 10.5t22 27t10.5 37.5t2.5 41v206q0 78 24.5 119t81.5 41q30 0 51.5 -12t34.5 -32l-26 -26q-8 15 -21.5 25.5t-34.5 10.5q-22 0 -35.5 -10.5t-21 -27t-10.5 -37t-3 -40.5v-69h110v-25h-110v-113q0 -78 -24.5 -119t-86.5 -41v34z" />
    <glyph glyph-name="zero.tosf" unicode="&#xe04b;" 
d="M280 145q0 -75 -28.5 -115t-86.5 -40t-87 40t-29 115v214q0 75 29 115t87 40t86.5 -40t28.5 -115v-214zM240 366q0 20 -4 40t-12.5 36t-23 26t-35.5 10t-35.5 -10t-23 -26t-12.5 -36t-4 -40v-228q0 -20 4 -40t12.5 -36t23 -26t35.5 -10t35.5 10t23 26t12.5 36t4 40v228z
" />
    <glyph glyph-name="one.tosf" unicode="&#xe04c;" 
d="M193 0v462l-111 -91l-25 29l128 104h48v-504h-40z" />
    <glyph glyph-name="two.tosf" unicode="&#xe04d;" 
d="M49 354v12q0 148 118 148q61 0 86.5 -31t25.5 -93v-25q0 -24 -2.5 -41.5t-11 -37t-25 -44t-44.5 -61.5l-105 -145h188v-36h-229v45l111 150q25 34 40.5 56.5t23.5 39.5t11 33.5t3 38.5v24q0 45 -17 68t-55 23q-44 0 -61 -30.5t-17 -80.5v-13h-40z" />
    <glyph glyph-name="three.tosf" unicode="&#xe04e;" 
d="M239 366q0 20 -4 40t-12.5 35.5t-23 25.5t-35.5 10t-35 -10t-23 -25.5t-13 -35.5t-4 -40v-19h-40v12q0 75 28.5 115t86.5 40t86.5 -39t28.5 -109v-51q0 -51 -18 -87t-49 -49v-3q31 -12 49 -49.5t18 -87.5v-98q0 -75 -30.5 -113t-84.5 -38q-57 0 -86 38.5t-29 112.5v16h40
v-19q0 -20 4 -39.5t13 -36t23 -26.5t35 -10t35.5 10t23 26t12.5 36t4 40v107q0 19 -4.5 39.5t-14 37t-24 27t-34.5 10.5h-34v36h34q20 0 34.5 10.5t24 27t14 36.5t4.5 40v57z" />
    <glyph glyph-name="four.tosf" unicode="&#xe04f;" 
d="M236 0h-192v46l178 458h40l-181 -468h155v139h40v-325h-40v150z" />
    <glyph glyph-name="five.tosf" unicode="&#xe050;" 
d="M49 504h230v-36h-190v-260q11 23 33.5 43t57.5 20q47 0 73 -39.5t26 -116.5v-170q0 -75 -28.5 -115t-86.5 -40q-57 0 -86 39t-29 112v17h40v-20q0 -20 4 -40t13 -36t23 -26t35 -10t35.5 10t23 26t12.5 36t4 40v187q0 20 -4 39.5t-12 35.5t-20.5 25.5t-30.5 9.5
q-17 0 -30 -7t-22.5 -18t-16 -24t-10.5 -24h-44v342z" />
    <glyph glyph-name="six.tosf" unicode="&#xe051;" 
d="M240 515v12q0 22 -4 42t-13 35.5t-23.5 25t-35.5 9.5t-35 -10t-23 -26t-13 -36t-4 -40v-183q10 27 32 45.5t54 18.5q53 0 79 -39.5t26 -114.5v-110q0 -75 -29 -114.5t-86 -39.5q-58 0 -87 40t-29 115v375q0 75 29 115t87 40q115 0 115 -148v-12h-40zM164 26
q21 0 35.5 9.5t23.5 25t13 35.5t4 42v122q0 20 -4 40t-13 36t-23.5 26t-35.5 10q-20 0 -34 -10t-23 -26t-13.5 -36t-4.5 -40v-122q0 -20 4 -40t13 -36t23 -26t35 -10z" />
    <glyph glyph-name="seven.tosf" unicode="&#xe052;" 
d="M61 -150l179 618h-208v36h243v-46l-174 -608h-40z" />
    <glyph glyph-name="eight.tosf" unicode="&#xe053;" 
d="M49 540q0 66 29 100.5t87 34.5t86.5 -34t28.5 -98v-56q0 -24 -7 -43.5t-19 -36t-28 -32t-35 -31.5q18 -16 34 -33.5t28 -37.5t19.5 -44.5t7.5 -53.5v-50q0 -63 -29.5 -99t-85.5 -36q-59 0 -87.5 34t-28.5 98v56q0 29 7 52.5t19 43.5t28 36.5t33 32.5q-18 16 -34 32
t-28 33.5t-18.5 38t-6.5 44.5v49zM89 122q0 -17 4 -34.5t13 -31t23.5 -22t35.5 -8.5t35.5 8.5t23 22t12.5 31t4 34.5v54q0 50 -22.5 83.5t-52.5 59.5q-15 -12 -29 -26t-24.5 -30.5t-16.5 -38t-6 -48.5v-54zM89 496q0 -39 19.5 -68t56.5 -59q36 30 55.5 57t19.5 70v47
q0 17 -4 34.5t-13 31t-23 22t-35 8.5t-35.5 -8t-23.5 -21.5t-13 -30.5t-4 -36v-47z" />
    <glyph glyph-name="nine.tosf" unicode="&#xe054;" 
d="M89 -50v-12q0 -22 3.5 -42t12.5 -35.5t23.5 -25t35.5 -9.5t35 9.5t23 25t13 35.5t4 42v202q-9 -27 -31.5 -45.5t-53.5 -18.5q-53 0 -79.5 39.5t-26.5 114.5v130q0 75 29 114.5t87 39.5t86.5 -40t28.5 -115v-414q0 -72 -29 -113.5t-86 -41.5q-116 0 -116 148v12h41z
M164 478q-21 0 -35.5 -9.5t-23 -25t-12.5 -35.5t-4 -42v-142q0 -20 4 -40t12.5 -36t23 -26t35.5 -10q20 0 34 10t23 26t13.5 36t4.5 40v142q0 20 -4 40t-13 36t-23 26t-35 10z" />
    <glyph glyph-name="zeroslash.tosf" unicode="&#xe055;" 
d="M280 145q0 -75 -28.5 -115t-86.5 -40t-87 40t-29 115v214q0 75 29 115t87 40t86.5 -40t28.5 -115v-214zM240 366q0 9 -1 18.5t-3 19.5l-132 -338q9 -18 23.5 -29t37.5 -11q21 0 35.5 10t23 26t12.5 36t4 40v228zM90 138q0 -18 3 -36l131 338q-8 17 -22.5 27.5t-36.5 10.5
q-21 0 -35.5 -10t-23 -26t-12.5 -36t-4 -40v-228z" />
    <glyph glyph-name="numbersign.posf" unicode="&#xe056;" horiz-adv-x="379" 
d="M64 362h72l37 142h34l-37 -142h97l37 142h34l-36 -142h63v-34h-72l-40 -152h63v-34h-72l-37 -142h-34l37 142h-97l-38 -142h-34l38 142h-65v34h73l41 152h-64v34zM121 176h97l41 152h-98z" />
    <glyph glyph-name="Euro.posf" unicode="&#xe057;" horiz-adv-x="352" 
d="M272 358v8q0 20 -4 40t-12.5 36t-23 26t-35.5 10t-35.5 -10t-23 -26t-12.5 -36t-4 -40v-54h136v-25h-136v-70h136v-25h-136v-54q0 -20 4 -40t12.5 -36t23 -26t35.5 -10t35.5 10t23 26t12.5 36t4 40v8h40v-5q0 -72 -28.5 -111.5t-86.5 -39.5t-87 40t-29 115v47h-46v25h46
v70h-46v25h46v47q0 75 29 115t87 40q57 0 86 -40t29 -109v-7h-40z" />
    <glyph glyph-name="dollar.posf" unicode="&#xe058;" horiz-adv-x="291" 
d="M80 147v-8q0 -20 2.5 -40.5t9.5 -37t20 -27t34 -10.5q32 0 49 27.5t17 68.5q0 42 -17.5 74.5t-63.5 61.5q-42 28 -66.5 60t-24.5 85q0 19 5 37.5t15.5 33.5t27 25.5t38.5 13.5v56h38v-56q45 -5 65.5 -42t20.5 -102v-9h-39v11q0 19 -2.5 39t-9.5 36t-20 26t-34 10
q-18 0 -31 -7t-20.5 -17.5t-11 -24.5t-3.5 -27q0 -25 6 -41.5t18 -30.5t31 -27.5t45 -32.5q72 -56 72 -147q0 -22 -5 -44t-15.5 -40.5t-27 -31.5t-39.5 -16v-56h-38v56q-45 7 -65.5 43.5t-20.5 102.5v8h40z" />
    <glyph glyph-name="yen.posf" unicode="&#xe059;" horiz-adv-x="339" 
d="M49 223h92l-106 281h41l92 -270h3l92 270h41l-106 -281h91v-26h-100v-69h100v-26h-100v-102h-40v102h-100v26h100v69h-100v26z" />
    <glyph glyph-name="sterling.posf" unicode="&#xe05a;" horiz-adv-x="342" 
d="M36 213h40v146q0 75 28.5 115t86.5 40q57 0 86 -40t29 -110v-11h-40v14q0 19 -4 39t-13 36t-23 26t-35 10t-35 -10t-23 -26.5t-13 -36.5t-4 -40v-152h122v-25h-122v-152h190v-36h-270v36h40v152h-40v25z" />
    <glyph glyph-name="cent.posf" unicode="&#xe05b;" horiz-adv-x="298" 
d="M133 -69v62q-46 7 -65.5 45.5t-19.5 107.5v132q0 69 19.5 107.5t65.5 45.5v62h40v-62q45 -6 65 -42.5t20 -91.5v-6h-37v3q0 19 -3 38t-10.5 34t-20.5 24.5t-33 9.5q-21 0 -33.5 -10t-20 -26t-10 -36t-2.5 -40v-141q0 -23 2.5 -45.5t9.5 -39.5t20 -27.5t34 -10.5
q20 0 33 9t20.5 24t10.5 34t3 39v3h37q0 -60 -18.5 -96.5t-66.5 -43.5v-62h-40z" />
    <glyph glyph-name="florin.posf" unicode="&#xe05c;" horiz-adv-x="300" 
d="M23 24q22 0 36 10.5t22 27t10.5 37.5t2.5 41v206q0 78 24.5 119t81.5 41q30 0 51.5 -12t34.5 -32l-26 -26q-8 15 -21.5 25.5t-34.5 10.5q-22 0 -35.5 -10.5t-21 -27t-10.5 -37t-3 -40.5v-69h110v-25h-110v-113q0 -78 -24.5 -119t-86.5 -41v34z" />
    <glyph glyph-name="zero.posf" unicode="&#xe05d;" 
d="M280 145q0 -75 -28.5 -115t-86.5 -40t-87 40t-29 115v214q0 75 29 115t87 40t86.5 -40t28.5 -115v-214zM240 366q0 20 -4 40t-12.5 36t-23 26t-35.5 10t-35.5 -10t-23 -26t-12.5 -36t-4 -40v-228q0 -20 4 -40t12.5 -36t23 -26t35.5 -10t35.5 10t23 26t12.5 36t4 40v228z
" />
    <glyph glyph-name="one.posf" unicode="&#xe05e;" horiz-adv-x="266" 
d="M153 0v462l-111 -91l-25 29l128 104h48v-504h-40z" />
    <glyph glyph-name="two.posf" unicode="&#xe05f;" horiz-adv-x="316" 
d="M37 354v12q0 148 118 148q61 0 86.5 -31t25.5 -93v-25q0 -24 -2.5 -41.5t-11 -37t-25 -44t-44.5 -61.5l-105 -145h188v-36h-229v45l111 150q25 34 40.5 56.5t23.5 39.5t11 33.5t3 38.5v24q0 45 -17 68t-55 23q-44 0 -61 -30.5t-17 -80.5v-13h-40z" />
    <glyph glyph-name="three.posf" unicode="&#xe060;" horiz-adv-x="316" 
d="M226 366q0 20 -4 40t-12.5 35.5t-23 25.5t-35.5 10t-35 -10t-23 -25.5t-13 -35.5t-4 -40v-19h-40v12q0 75 28.5 115t86.5 40t86.5 -39t28.5 -109v-51q0 -51 -18 -87t-49 -49v-3q31 -12 49 -49.5t18 -87.5v-98q0 -75 -30.5 -113t-84.5 -38q-57 0 -86 38.5t-29 112.5v16h40
v-19q0 -20 4 -39.5t13 -36t23 -26.5t35 -10t35.5 10t23 26t12.5 36t4 40v107q0 19 -4.5 39.5t-14 37t-24 27t-34.5 10.5h-34v36h34q20 0 34.5 10.5t24 27t14 36.5t4.5 40v57z" />
    <glyph glyph-name="four.posf" unicode="&#xe061;" horiz-adv-x="302" 
d="M217 0h-192v46l178 458h40l-181 -468h155v139h40v-325h-40v150z" />
    <glyph glyph-name="five.posf" unicode="&#xe062;" horiz-adv-x="326" 
d="M50 504h230v-36h-190v-260q11 23 33.5 43t57.5 20q47 0 73 -39.5t26 -116.5v-170q0 -75 -28.5 -115t-86.5 -40q-57 0 -86 39t-29 112v17h40v-20q0 -20 4 -40t13 -36t23 -26t35 -10t35.5 10t23 26t12.5 36t4 40v187q0 20 -4 39.5t-12 35.5t-20.5 25.5t-30.5 9.5
q-17 0 -30 -7t-22.5 -18t-16 -24t-10.5 -24h-44v342z" />
    <glyph glyph-name="six.posf" unicode="&#xe063;" 
d="M240 515v12q0 22 -4 42t-13 35.5t-23.5 25t-35.5 9.5t-35 -10t-23 -26t-13 -36t-4 -40v-183q10 27 32 45.5t54 18.5q53 0 79 -39.5t26 -114.5v-110q0 -75 -29 -114.5t-86 -39.5q-58 0 -87 40t-29 115v375q0 75 29 115t87 40q115 0 115 -148v-12h-40zM164 26
q21 0 35.5 9.5t23.5 25t13 35.5t4 42v122q0 20 -4 40t-13 36t-23.5 26t-35.5 10q-20 0 -34 -10t-23 -26t-13.5 -36t-4.5 -40v-122q0 -20 4 -40t13 -36t23 -26t35 -10z" />
    <glyph glyph-name="seven.posf" unicode="&#xe064;" horiz-adv-x="288" 
d="M45 -150l179 618h-208v36h243v-46l-174 -608h-40z" />
    <glyph glyph-name="eight.posf" unicode="&#xe065;" 
d="M49 540q0 66 29 100.5t87 34.5t86.5 -34t28.5 -98v-56q0 -24 -7 -43.5t-19 -36t-28 -32t-35 -31.5q18 -16 34 -33.5t28 -37.5t19.5 -44.5t7.5 -53.5v-50q0 -63 -29.5 -99t-85.5 -36q-59 0 -87.5 34t-28.5 98v56q0 29 7 52.5t19 43.5t28 36.5t33 32.5q-18 16 -34 32
t-28 33.5t-18.5 38t-6.5 44.5v49zM89 122q0 -17 4 -34.5t13 -31t23.5 -22t35.5 -8.5t35.5 8.5t23 22t12.5 31t4 34.5v54q0 50 -22.5 83.5t-52.5 59.5q-15 -12 -29 -26t-24.5 -30.5t-16.5 -38t-6 -48.5v-54zM89 496q0 -39 19.5 -68t56.5 -59q36 30 55.5 57t19.5 70v47
q0 17 -4 34.5t-13 31t-23 22t-35 8.5t-35.5 -8t-23.5 -21.5t-13 -30.5t-4 -36v-47z" />
    <glyph glyph-name="nine.posf" unicode="&#xe066;" 
d="M90 -50v-12q0 -22 3.5 -42t12.5 -35.5t23.5 -25t35.5 -9.5t35 9.5t23 25t13 35.5t4 42v202q-9 -27 -31.5 -45.5t-53.5 -18.5q-53 0 -79.5 39.5t-26.5 114.5v130q0 75 29 114.5t87 39.5t86.5 -40t28.5 -115v-414q0 -72 -29 -113.5t-86 -41.5q-116 0 -116 148v12h41z
M165 478q-21 0 -35.5 -9.5t-23 -25t-12.5 -35.5t-4 -42v-142q0 -20 4 -40t12.5 -36t23 -26t35.5 -10q20 0 34 10t23 26t13.5 36t4.5 40v142q0 20 -4 40t-13 36t-23 26t-35 10z" />
    <glyph glyph-name="zeroslash.posf" unicode="&#xe067;" 
d="M280 145q0 -75 -28.5 -115t-86.5 -40t-87 40t-29 115v214q0 75 29 115t87 40t86.5 -40t28.5 -115v-214zM240 366q0 9 -1 18.5t-3 19.5l-132 -338q9 -18 23.5 -29t37.5 -11q21 0 35.5 10t23 26t12.5 36t4 40v228zM90 138q0 -18 3 -36l131 338q-8 17 -22.5 27.5t-36.5 10.5
q-21 0 -35.5 -10t-23 -26t-12.5 -36t-4 -40v-228z" />
    <glyph glyph-name="onefifth" unicode="&#xe07c;" horiz-adv-x="580" 
d="M135 270v361l-83 -54l-20 28l97 64h43v-399h-37zM151 0h-36l278 665h35zM376 399h159v-32h-124v-135q7 14 21.5 25.5t37.5 11.5q30 0 48.5 -24.5t18.5 -72.5v-79q0 -46 -20 -72.5t-61 -26.5q-39 0 -59.5 24.5t-20.5 69.5v12h36v-12q0 -23 10 -42.5t34 -19.5q26 0 36 19.5
t10 42.5v89q0 22 -9.5 41t-31.5 19q-20 0 -31 -13t-16 -27h-38v202z" />
    <glyph glyph-name="twofifths" unicode="&#xe07d;" horiz-adv-x="580" 
d="M40 574v7q0 45 19.5 69.5t64.5 24.5q44 0 62.5 -21.5t18.5 -62.5v-16q0 -30 -14.5 -62t-39.5 -76l-74 -135h128v-32h-162v37l69 129q28 49 43 80.5t15 57.5v13q0 56 -46 56q-27 0 -37.5 -16.5t-10.5 -45.5v-7h-36zM174 0h-36l278 665h35zM376 399h159v-32h-124v-135
q7 14 21.5 25.5t37.5 11.5q30 0 48.5 -24.5t18.5 -72.5v-79q0 -46 -20 -72.5t-61 -26.5q-39 0 -59.5 24.5t-20.5 69.5v12h36v-12q0 -23 10 -42.5t34 -19.5q26 0 36 19.5t10 42.5v89q0 22 -9.5 41t-31.5 19q-20 0 -31 -13t-16 -27h-38v202z" />
    <glyph glyph-name="threefifths" unicode="&#xe07e;" horiz-adv-x="580" 
d="M164 583q0 22 -10 41t-36 19t-36 -19.5t-10 -42.5v-10h-35v7q0 46 19.5 71.5t61.5 25.5q41 0 61 -24t20 -66v-21q0 -31 -11.5 -52t-31.5 -29v-2q20 -8 31.5 -30.5t11.5 -51.5v-40q0 -46 -20.5 -70.5t-60.5 -24.5q-41 0 -61 24.5t-20 69.5v12h35v-12q0 -23 10 -42.5
t36 -19.5t36 19.5t10 42.5v44q0 23 -11.5 43t-35.5 20h-25v31h23q26 0 37.5 20t11.5 43v24zM160 0h-36l278 665h35zM376 399h159v-32h-124v-135q7 14 21.5 25.5t37.5 11.5q30 0 48.5 -24.5t18.5 -72.5v-79q0 -46 -20 -72.5t-61 -26.5q-39 0 -59.5 24.5t-20.5 69.5v12h36v-12
q0 -23 10 -42.5t34 -19.5q26 0 36 19.5t10 42.5v89q0 22 -9.5 41t-31.5 19q-20 0 -31 -13t-16 -27h-38v202z" />
    <glyph glyph-name="fourfifths" unicode="&#xe07f;" horiz-adv-x="580" 
d="M163 357h-132v41l116 271h36l-120 -279h100v80h34v-200h-34v87zM169 0h-36l278 665h35zM376 399h159v-32h-124v-135q7 14 21.5 25.5t37.5 11.5q30 0 48.5 -24.5t18.5 -72.5v-79q0 -46 -20 -72.5t-61 -26.5q-39 0 -59.5 24.5t-20.5 69.5v12h36v-12q0 -23 10 -42.5
t34 -19.5q26 0 36 19.5t10 42.5v89q0 22 -9.5 41t-31.5 19q-20 0 -31 -13t-16 -27h-38v202z" />
    <glyph glyph-name="onesixth" unicode="&#xe080;" horiz-adv-x="580" 
d="M135 270v361l-83 -54l-20 28l97 64h43v-399h-37zM161 0h-36l278 665h35zM503 305v6q0 25 -10 43.5t-36 18.5q-25 0 -34.5 -19.5t-9.5 -42.5v-104q6 16 20.5 27.5t35.5 11.5q33 0 51 -23.5t18 -70.5v-60q0 -46 -19.5 -72t-61.5 -26t-61 26.5t-19 72.5v213q0 47 19.5 73
t60.5 26q42 0 61.5 -24.5t19.5 -68.5v-7h-35zM457 26q26 0 36 18.5t10 43.5v66q0 23 -10 42.5t-36 19.5q-23 0 -33.5 -20t-10.5 -42v-66q0 -23 9.5 -42.5t34.5 -19.5z" />
    <glyph glyph-name="fivesixths" unicode="&#xe081;" horiz-adv-x="580" 
d="M40 669h159v-32h-124v-135q7 14 21.5 25.5t37.5 11.5q30 0 48.5 -24.5t18.5 -72.5v-79q0 -46 -20 -72.5t-61 -26.5q-39 0 -59.5 24.5t-20.5 69.5v12h36v-12q0 -23 10 -42.5t34 -19.5q26 0 36 19.5t10 42.5v89q0 22 -9.5 41t-31.5 19q-20 0 -31 -13t-16 -27h-38v202z
M169 0h-36l278 665h35zM503 305v6q0 25 -10 43.5t-36 18.5q-25 0 -34.5 -19.5t-9.5 -42.5v-104q6 16 20.5 27.5t35.5 11.5q33 0 51 -23.5t18 -70.5v-60q0 -46 -19.5 -72t-61.5 -26t-61 26.5t-19 72.5v213q0 47 19.5 73t60.5 26q42 0 61.5 -24.5t19.5 -68.5v-7h-35zM457 26
q26 0 36 18.5t10 43.5v66q0 23 -10 42.5t-36 19.5q-23 0 -33.5 -20t-10.5 -42v-66q0 -23 9.5 -42.5t34.5 -19.5z" />
    <glyph glyph-name="oneseventh" unicode="&#xe082;" horiz-adv-x="580" 
d="M135 270v361l-83 -54l-20 28l97 64h43v-399h-37zM151 0h-36l278 665h35zM385 0l127 367h-145v32h179v-38l-124 -361h-37z" />
    <glyph glyph-name="twosevenths" unicode="&#xe083;" horiz-adv-x="580" 
d="M40 574v7q0 45 19.5 69.5t64.5 24.5q44 0 62.5 -21.5t18.5 -62.5v-16q0 -30 -14.5 -62t-39.5 -76l-74 -135h128v-32h-162v37l69 129q28 49 43 80.5t15 57.5v13q0 56 -46 56q-27 0 -37.5 -16.5t-10.5 -45.5v-7h-36zM169 0h-36l278 665h35zM385 0l127 367h-145v32h179v-38
l-124 -361h-37z" />
    <glyph glyph-name="threesevenths" unicode="&#xe084;" horiz-adv-x="580" 
d="M164 583q0 22 -10 41t-36 19t-36 -19.5t-10 -42.5v-10h-35v7q0 46 19.5 71.5t61.5 25.5q41 0 61 -24t20 -66v-21q0 -31 -11.5 -52t-31.5 -29v-2q20 -8 31.5 -30.5t11.5 -51.5v-40q0 -46 -20.5 -70.5t-60.5 -24.5q-41 0 -61 24.5t-20 69.5v12h35v-12q0 -23 10 -42.5
t36 -19.5t36 19.5t10 42.5v44q0 23 -11.5 43t-35.5 20h-25v31h23q26 0 37.5 20t11.5 43v24zM154 0h-36l278 665h35zM385 0l127 367h-145v32h179v-38l-124 -361h-37z" />
    <glyph glyph-name="foursevenths" unicode="&#xe085;" horiz-adv-x="580" 
d="M163 357h-132v41l116 271h36l-120 -279h100v80h34v-200h-34v87zM161 0h-36l278 665h35zM385 0l127 367h-145v32h179v-38l-124 -361h-37z" />
    <glyph glyph-name="fivesevenths" unicode="&#xe086;" horiz-adv-x="580" 
d="M40 669h159v-32h-124v-135q7 14 21.5 25.5t37.5 11.5q30 0 48.5 -24.5t18.5 -72.5v-79q0 -46 -20 -72.5t-61 -26.5q-39 0 -59.5 24.5t-20.5 69.5v12h36v-12q0 -23 10 -42.5t34 -19.5q26 0 36 19.5t10 42.5v89q0 22 -9.5 41t-31.5 19q-20 0 -31 -13t-16 -27h-38v202z
M158 0h-36l278 665h35zM385 0l127 367h-145v32h179v-38l-124 -361h-37z" />
    <glyph glyph-name="sixsevenths" unicode="&#xe087;" horiz-adv-x="580" 
d="M167 575v6q0 25 -10 43.5t-36 18.5q-25 0 -34.5 -19.5t-9.5 -42.5v-104q6 16 20.5 27.5t35.5 11.5q33 0 51 -23.5t18 -70.5v-60q0 -46 -19.5 -72t-61.5 -26t-61 26.5t-19 72.5v213q0 47 19.5 73t60.5 26q42 0 61.5 -24.5t19.5 -68.5v-7h-35zM121 296q26 0 36 18.5
t10 43.5v66q0 23 -10 42.5t-36 19.5q-23 0 -33.5 -20t-10.5 -42v-66q0 -23 9.5 -42.5t34.5 -19.5zM159 0h-36l278 665h35zM385 0l127 367h-145v32h179v-38l-124 -361h-37z" />
    <glyph glyph-name="oneninth" unicode="&#xe088;" horiz-adv-x="580" 
d="M135 270v361l-83 -54l-20 28l97 64h43v-399h-37zM161 0h-36l278 665h35zM413 94v-6q0 -25 9.5 -43.5t34.5 -18.5q26 0 36 18.5t10 43.5v103q-7 -15 -21.5 -26.5t-34.5 -11.5q-70 0 -70 94v60q0 46 19.5 72t60.5 26q42 0 61.5 -26.5t19.5 -72.5v-213q0 -45 -19.5 -72
t-61.5 -27q-41 0 -60.5 25t-19.5 69v6h36zM457 373q-25 0 -34.5 -18.5t-9.5 -43.5v-65q0 -23 10 -43t34 -20t35 20.5t11 42.5v65q0 23 -10 42.5t-36 19.5z" />
    <glyph glyph-name="twoninths" unicode="&#xe089;" horiz-adv-x="580" 
d="M40 574v7q0 45 19.5 69.5t64.5 24.5q44 0 62.5 -21.5t18.5 -62.5v-16q0 -30 -14.5 -62t-39.5 -76l-74 -135h128v-32h-162v37l69 129q28 49 43 80.5t15 57.5v13q0 56 -46 56q-27 0 -37.5 -16.5t-10.5 -45.5v-7h-36zM180 0h-36l278 665h35zM413 94v-6q0 -25 9.5 -43.5
t34.5 -18.5q26 0 36 18.5t10 43.5v103q-7 -15 -21.5 -26.5t-34.5 -11.5q-70 0 -70 94v60q0 46 19.5 72t60.5 26q42 0 61.5 -26.5t19.5 -72.5v-213q0 -45 -19.5 -72t-61.5 -27q-41 0 -60.5 25t-19.5 69v6h36zM457 373q-25 0 -34.5 -18.5t-9.5 -43.5v-65q0 -23 10 -43t34 -20
t35 20.5t11 42.5v65q0 23 -10 42.5t-36 19.5z" />
    <glyph glyph-name="fourninths" unicode="&#xe08a;" horiz-adv-x="580" 
d="M163 357h-132v41l116 271h36l-120 -279h100v80h34v-200h-34v87zM174 0h-36l278 665h35zM413 94v-6q0 -25 9.5 -43.5t34.5 -18.5q26 0 36 18.5t10 43.5v103q-7 -15 -21.5 -26.5t-34.5 -11.5q-70 0 -70 94v60q0 46 19.5 72t60.5 26q42 0 61.5 -26.5t19.5 -72.5v-213
q0 -45 -19.5 -72t-61.5 -27q-41 0 -60.5 25t-19.5 69v6h36zM457 373q-25 0 -34.5 -18.5t-9.5 -43.5v-65q0 -23 10 -43t34 -20t35 20.5t11 42.5v65q0 23 -10 42.5t-36 19.5z" />
    <glyph glyph-name="fiveninths" unicode="&#xe08b;" horiz-adv-x="580" 
d="M40 669h159v-32h-124v-135q7 14 21.5 25.5t37.5 11.5q30 0 48.5 -24.5t18.5 -72.5v-79q0 -46 -20 -72.5t-61 -26.5q-39 0 -59.5 24.5t-20.5 69.5v12h36v-12q0 -23 10 -42.5t34 -19.5q26 0 36 19.5t10 42.5v89q0 22 -9.5 41t-31.5 19q-20 0 -31 -13t-16 -27h-38v202z
M169 0h-36l278 665h35zM413 94v-6q0 -25 9.5 -43.5t34.5 -18.5q26 0 36 18.5t10 43.5v103q-7 -15 -21.5 -26.5t-34.5 -11.5q-70 0 -70 94v60q0 46 19.5 72t60.5 26q42 0 61.5 -26.5t19.5 -72.5v-213q0 -45 -19.5 -72t-61.5 -27q-41 0 -60.5 25t-19.5 69v6h36zM457 373
q-25 0 -34.5 -18.5t-9.5 -43.5v-65q0 -23 10 -43t34 -20t35 20.5t11 42.5v65q0 23 -10 42.5t-36 19.5z" />
    <glyph glyph-name="sevenninths" unicode="&#xe08c;" horiz-adv-x="580" 
d="M49 270l127 367h-145v32h179v-38l-124 -361h-37zM139 0h-36l278 665h35zM413 94v-6q0 -25 9.5 -43.5t34.5 -18.5q26 0 36 18.5t10 43.5v103q-7 -15 -21.5 -26.5t-34.5 -11.5q-70 0 -70 94v60q0 46 19.5 72t60.5 26q42 0 61.5 -26.5t19.5 -72.5v-213q0 -45 -19.5 -72
t-61.5 -27q-41 0 -60.5 25t-19.5 69v6h36zM457 373q-25 0 -34.5 -18.5t-9.5 -43.5v-65q0 -23 10 -43t34 -20t35 20.5t11 42.5v65q0 23 -10 42.5t-36 19.5z" />
    <glyph glyph-name="eightninths" unicode="&#xe08d;" horiz-adv-x="580" 
d="M41 590q0 41 20 63t60 22t60.5 -23t20.5 -61v-29q0 -29 -16.5 -47.5t-40.5 -38.5q23 -19 40 -42.5t17 -58.5v-26q0 -39 -20 -62t-61 -23t-60.5 23t-19.5 61v29q0 35 16.5 57.5t39.5 41.5q-24 20 -40 39.5t-16 48.5v26zM77 350q0 -21 9.5 -37.5t34.5 -16.5q26 0 36 16.5
t10 37.5v28q0 26 -13.5 45.5t-32.5 33.5q-18 -14 -31 -32t-13 -47v-28zM77 565q0 -23 11 -38.5t33 -32.5q22 17 34 32t12 39v25q0 20 -10 36.5t-36 16.5q-25 0 -34.5 -16t-9.5 -37v-25zM169 0h-36l278 665h35zM413 94v-6q0 -25 9.5 -43.5t34.5 -18.5q26 0 36 18.5t10 43.5
v103q-7 -15 -21.5 -26.5t-34.5 -11.5q-70 0 -70 94v60q0 46 19.5 72t60.5 26q42 0 61.5 -26.5t19.5 -72.5v-213q0 -45 -19.5 -72t-61.5 -27q-41 0 -60.5 25t-19.5 69v6h36zM457 373q-25 0 -34.5 -18.5t-9.5 -43.5v-65q0 -23 10 -43t34 -20t35 20.5t11 42.5v65q0 23 -10 42.5
t-36 19.5z" />
    <glyph glyph-name="zero.numerator" unicode="&#xe08e;" horiz-adv-x="243" 
d="M202 483q0 -46 -19.5 -72.5t-61.5 -26.5q-41 0 -60.5 26.5t-19.5 72.5v213q0 46 19.5 72.5t60.5 26.5q42 0 61.5 -26.5t19.5 -72.5v-213zM167 701q0 23 -10 42.5t-36 19.5q-25 0 -34.5 -19.5t-9.5 -42.5v-223q0 -23 9.5 -42.5t34.5 -19.5q26 0 36 19.5t10 42.5v223z" />
    <glyph glyph-name="one.numerator" unicode="&#xe08f;" horiz-adv-x="243" 
d="M139 390v361l-83 -54l-20 28l97 64h43v-399h-37z" />
    <glyph glyph-name="two.numerator" unicode="&#xe090;" horiz-adv-x="243" 
d="M38 694v7q0 45 19.5 69.5t64.5 24.5q44 0 62.5 -21.5t18.5 -62.5v-16q0 -30 -14.5 -62t-39.5 -76l-74 -135h128v-32h-162v37l69 129q28 49 43 80.5t15 57.5v13q0 56 -46 56q-27 0 -37.5 -16.5t-10.5 -45.5v-7h-36z" />
    <glyph glyph-name="three.numerator" unicode="&#xe091;" horiz-adv-x="243" 
d="M164 703q0 22 -10 41t-36 19t-36 -19.5t-10 -42.5v-10h-35v7q0 46 19.5 71.5t61.5 25.5q41 0 61 -24t20 -66v-21q0 -31 -11.5 -52t-31.5 -29v-2q20 -8 31.5 -30.5t11.5 -51.5v-40q0 -46 -20.5 -70.5t-60.5 -24.5q-41 0 -61 24.5t-20 69.5v12h35v-12q0 -23 10 -42.5
t36 -19.5t36 19.5t10 42.5v44q0 23 -11.5 43t-35.5 20h-25v31h23q26 0 37.5 20t11.5 43v24z" />
    <glyph glyph-name="four.numerator" unicode="&#xe092;" horiz-adv-x="243" 
d="M163 477h-132v41l116 271h36l-120 -279h100v80h34v-200h-34v87z" />
    <glyph glyph-name="five.numerator" unicode="&#xe093;" horiz-adv-x="243" 
d="M40 789h159v-32h-124v-135q7 14 21.5 25.5t37.5 11.5q30 0 48.5 -24.5t18.5 -72.5v-79q0 -46 -20 -72.5t-61 -26.5q-39 0 -59.5 24.5t-20.5 69.5v12h36v-12q0 -23 10 -42.5t34 -19.5q26 0 36 19.5t10 42.5v89q0 22 -9.5 41t-31.5 19q-20 0 -31 -13t-16 -27h-38v202z" />
    <glyph glyph-name="six.numerator" unicode="&#xe094;" horiz-adv-x="243" 
d="M167 695v6q0 25 -10 43.5t-36 18.5q-25 0 -34.5 -19.5t-9.5 -42.5v-104q6 16 20.5 27.5t35.5 11.5q33 0 51 -23.5t18 -70.5v-60q0 -46 -19.5 -72t-61.5 -26t-61 26.5t-19 72.5v213q0 47 19.5 73t60.5 26q42 0 61.5 -24.5t19.5 -68.5v-7h-35zM121 416q26 0 36 18.5
t10 43.5v66q0 23 -10 42.5t-36 19.5q-23 0 -33.5 -20t-10.5 -42v-66q0 -23 9.5 -42.5t34.5 -19.5z" />
    <glyph glyph-name="seven.numerator" unicode="&#xe095;" horiz-adv-x="243" 
d="M49 390l127 367h-145v32h179v-38l-124 -361h-37z" />
    <glyph glyph-name="eight.numerator" unicode="&#xe096;" horiz-adv-x="243" 
d="M41 710q0 41 20 63t60 22t60.5 -23t20.5 -61v-29q0 -29 -16.5 -47.5t-40.5 -38.5q23 -19 40 -42.5t17 -58.5v-26q0 -39 -20 -62t-61 -23t-60.5 23t-19.5 61v29q0 35 16.5 57.5t39.5 41.5q-24 20 -40 39.5t-16 48.5v26zM77 470q0 -21 9.5 -37.5t34.5 -16.5q26 0 36 16.5
t10 37.5v28q0 26 -13.5 45.5t-32.5 33.5q-18 -14 -31 -32t-13 -47v-28zM77 685q0 -23 11 -38.5t33 -32.5q22 17 34 32t12 39v25q0 20 -10 36.5t-36 16.5q-25 0 -34.5 -16t-9.5 -37v-25z" />
    <glyph glyph-name="nine.numerator" unicode="&#xe097;" horiz-adv-x="243" 
d="M77 484v-6q0 -25 9.5 -43.5t34.5 -18.5q26 0 36 18.5t10 43.5v103q-7 -15 -21.5 -26.5t-34.5 -11.5q-70 0 -70 94v60q0 46 19.5 72t60.5 26q42 0 61.5 -26.5t19.5 -72.5v-213q0 -45 -19.5 -72t-61.5 -27q-41 0 -60.5 25t-19.5 69v6h36zM121 763q-25 0 -34.5 -18.5
t-9.5 -43.5v-65q0 -23 10 -43t34 -20t35 20.5t11 42.5v65q0 23 -10 42.5t-36 19.5z" />
    <glyph glyph-name="zero.denominator" unicode="&#xe098;" horiz-adv-x="243" 
d="M202 -27q0 -46 -19.5 -72.5t-61.5 -26.5q-41 0 -60.5 26.5t-19.5 72.5v213q0 46 19.5 72.5t60.5 26.5q42 0 61.5 -26.5t19.5 -72.5v-213zM167 191q0 23 -10 42.5t-36 19.5q-25 0 -34.5 -19.5t-9.5 -42.5v-223q0 -23 9.5 -42.5t34.5 -19.5q26 0 36 19.5t10 42.5v223z" />
    <glyph glyph-name="one.denominator" unicode="&#xe099;" horiz-adv-x="243" 
d="M139 -120v361l-83 -54l-20 28l97 64h43v-399h-37z" />
    <glyph glyph-name="two.denominator" unicode="&#xe09a;" horiz-adv-x="243" 
d="M38 184v7q0 45 19.5 69.5t64.5 24.5q44 0 62.5 -21.5t18.5 -62.5v-16q0 -30 -14.5 -62t-39.5 -76l-74 -135h128v-32h-162v37l69 129q28 49 43 80.5t15 57.5v13q0 56 -46 56q-27 0 -37.5 -16.5t-10.5 -45.5v-7h-36z" />
    <glyph glyph-name="three.denominator" unicode="&#xe09b;" horiz-adv-x="243" 
d="M164 193q0 22 -10 41t-36 19t-36 -19.5t-10 -42.5v-10h-35v7q0 46 19.5 71.5t61.5 25.5q41 0 61 -24t20 -66v-21q0 -31 -11.5 -52t-31.5 -29v-2q20 -8 31.5 -30.5t11.5 -51.5v-40q0 -46 -20.5 -70.5t-60.5 -24.5q-41 0 -61 24.5t-20 69.5v12h35v-12q0 -23 10 -42.5
t36 -19.5t36 19.5t10 42.5v44q0 23 -11.5 43t-35.5 20h-25v31h23q26 0 37.5 20t11.5 43v24z" />
    <glyph glyph-name="four.denominator" unicode="&#xe09c;" horiz-adv-x="243" 
d="M163 -33h-132v41l116 271h36l-120 -279h100v80h34v-200h-34v87z" />
    <glyph glyph-name="five.denominator" unicode="&#xe09d;" horiz-adv-x="243" 
d="M40 279h159v-32h-124v-135q7 14 21.5 25.5t37.5 11.5q30 0 48.5 -24.5t18.5 -72.5v-79q0 -46 -20 -72.5t-61 -26.5q-39 0 -59.5 24.5t-20.5 69.5v12h36v-12q0 -23 10 -42.5t34 -19.5q26 0 36 19.5t10 42.5v89q0 22 -9.5 41t-31.5 19q-20 0 -31 -13t-16 -27h-38v202z" />
    <glyph glyph-name="six.denominator" unicode="&#xe09e;" horiz-adv-x="243" 
d="M167 185v6q0 25 -10 43.5t-36 18.5q-25 0 -34.5 -19.5t-9.5 -42.5v-104q6 16 20.5 27.5t35.5 11.5q33 0 51 -23.5t18 -70.5v-60q0 -46 -19.5 -72t-61.5 -26t-61 26.5t-19 72.5v213q0 47 19.5 73t60.5 26q42 0 61.5 -24.5t19.5 -68.5v-7h-35zM121 -94q26 0 36 18.5
t10 43.5v66q0 23 -10 42.5t-36 19.5q-23 0 -33.5 -20t-10.5 -42v-66q0 -23 9.5 -42.5t34.5 -19.5z" />
    <glyph glyph-name="seven.denominator" unicode="&#xe09f;" horiz-adv-x="243" 
d="M49 -120l127 367h-145v32h179v-38l-124 -361h-37z" />
    <glyph glyph-name="eight.denominator" unicode="&#xe0a0;" horiz-adv-x="243" 
d="M41 200q0 41 20 63t60 22t60.5 -23t20.5 -61v-29q0 -29 -16.5 -47.5t-40.5 -38.5q23 -19 40 -42.5t17 -58.5v-26q0 -39 -20 -62t-61 -23t-60.5 23t-19.5 61v29q0 35 16.5 57.5t39.5 41.5q-24 20 -40 39.5t-16 48.5v26zM77 -40q0 -21 9.5 -37.5t34.5 -16.5q26 0 36 16.5
t10 37.5v28q0 26 -13.5 45.5t-32.5 33.5q-18 -14 -31 -32t-13 -47v-28zM77 175q0 -23 11 -38.5t33 -32.5q22 17 34 32t12 39v25q0 20 -10 36.5t-36 16.5q-25 0 -34.5 -16t-9.5 -37v-25z" />
    <glyph glyph-name="nine.denominator" unicode="&#xe0a1;" horiz-adv-x="243" 
d="M77 -26v-6q0 -25 9.5 -43.5t34.5 -18.5q26 0 36 18.5t10 43.5v103q-7 -15 -21.5 -26.5t-34.5 -11.5q-70 0 -70 94v60q0 46 19.5 72t60.5 26q42 0 61.5 -26.5t19.5 -72.5v-213q0 -45 -19.5 -72t-61.5 -27q-41 0 -60.5 25t-19.5 69v6h36zM121 253q-25 0 -34.5 -18.5
t-9.5 -43.5v-65q0 -23 10 -43t34 -20t35 20.5t11 42.5v65q0 23 -10 42.5t-36 19.5z" />
    <glyph glyph-name="i.dot" unicode="&#xe166;" horiz-adv-x="157" 
d="M59 504h35l5 -55v-449h-40v504zM79 642q13 0 21 -7.5t8 -21.5t-8 -22t-21 -8t-21 8t-8 22t8 21.5t21 7.5z" />
    <glyph glyph-name="commaaccent" unicode="&#xf6c3;" horiz-adv-x="350" 
d="M165 -155h-27l19 115h42z" />
    <glyph glyph-name="caron.alt" horiz-adv-x="350" 
d="M230 568h-21l16 117h37z" />
    <glyph glyph-name="revcommaaccent" horiz-adv-x="350" 
d="M190 671h26l-16 -115h-41z" />
    </font>
</defs>
</svg>
