<?xml version="1.0" standalone="no"?>
<!DOCTYPE svg PUBLIC "-//W3C//DTD SVG 1.1//EN" "http://www.w3.org/Graphics/SVG/1.1/DTD/svg11.dtd" >
<svg>
<metadata>
Created by FontForge 20090914 at Sun Aug 10 13:00:44 2014
 By www-data
Copyright (c) 2013 by FONTYOU. All rights reserved. www.fontyou.com
</metadata>
<defs>
<font id="MarianinaCnFY-MediumItalic" horiz-adv-x="334" >
  <font-face 
    font-family="MarianinaCnFY-MediumItalic"
    font-weight="400"
    font-style="italic"
    font-stretch="normal"
    units-per-em="1000"
    panose-1="2 0 6 6 0 0 0 9 0 4"
    ascent="772"
    descent="-228"
    x-height="512"
    cap-height="665"
    bbox="-167 -210.001 954 877.001"
    underline-thickness="50"
    underline-position="-50"
    slope="-11"
    unicode-range="U+000D-U+FB04"
  />
<missing-glyph horiz-adv-x="602" 
d="M305 435c10.667 19.333 24.498 35 41.498 47s35.833 18 56.5 18c28.667 0 52.334 -9.83301 71.001 -29.5s28 -44.834 28 -75.501c0 -20 -4.5 -41.667 -13.5 -65s-22 -46.666 -39 -69.999s-38 -45.833 -63 -67.5s-53.5 -40.834 -85.5 -57.501
c-32 16.667 -60.5 35.834 -85.5 57.501s-46 44.167 -63 67.5s-30 46.666 -39 69.999s-13.5 45 -13.5 65c0 30.667 9.33301 55.834 28 75.501s42.334 29.5 71.001 29.5c20.667 0 39.5 -6 56.5 -18s30.833 -27.667 41.5 -47h8z" />
    <glyph glyph-name="f_f" unicode="ff" horiz-adv-x="452" 
d="M149 445l-86.999 -444.999h-80l104 536c11.333 57.333 29.833 100.666 55.5 129.999s59.5 44 101.5 44c25.333 0 44.833 -4.5 58.5 -13.5s24.5 -20.167 32.5 -33.5l-56 -45c-4 6.66699 -9 12.5 -15 17.5s-13.667 7.5 -23 7.5c-11.333 0 -20.833 -2.5 -28.5 -7.5
s-14.334 -11.667 -20.001 -20s-10.167 -17.833 -13.5 -28.5s-6 -21.667 -8 -33l-9 -42h92l-12 -67h-92zM372.001 445.001l-87 -444.999h-80l105 536c11.333 57.333 29.833 100.666 55.5 129.999s59.167 44 100.5 44c25.333 0 44.833 -4.5 58.5 -13.5
s24.5 -20.167 32.5 -33.5l-56 -45c-3.33301 6.66699 -8 12.5 -14 17.5s-14 7.5 -24 7.5c-10.667 0 -20 -2.5 -28 -7.5s-14.667 -11.667 -20 -20s-9.83301 -17.833 -13.5 -28.5s-6.5 -21.667 -8.5 -33l-8 -42h92l-13 -67h-92z" />
    <glyph glyph-name="fi" unicode="fi" horiz-adv-x="395" 
d="M149 445l-86.999 -444.999h-80l104 536c11.333 57.333 29.833 100.666 55.5 129.999s59.5 44 101.5 44c25.333 0 44.833 -4.5 58.5 -13.5s24.5 -20.167 32.5 -33.5l-56 -45c-4 6.66699 -9 12.5 -15 17.5s-13.667 7.5 -23 7.5c-11.333 0 -20.833 -2.5 -28.5 -7.5
s-14.334 -11.667 -20.001 -20s-10.167 -17.833 -13.5 -28.5s-6 -21.667 -8 -33l-9 -42h92l-12 -67h-92zM305.001 512.001h71l-6 -75l-85 -437h-80zM374.001 661.001c12 0 21.499 -3.5 28.499 -10.5s10.5 -16.167 10.5 -27.5c0 -17.333 -5.66699 -31.166 -17 -41.499
s-24.666 -15.5 -39.999 -15.5c-12 0 -21.667 3.5 -29 10.5s-11 16.167 -11 27.5c0 17.333 5.66699 31.166 17 41.499s25 15.5 41 15.5z" />
    <glyph glyph-name="fl" unicode="fl" horiz-adv-x="390" 
d="M404 635l-123.999 -634.999h-73l8 75l113 583l-50 -40c-4 6.66699 -9 12.5 -15 17.5s-13.667 7.5 -23 7.5c-11.333 0 -20.833 -2.5 -28.5 -7.5s-14.167 -11.5 -19.5 -19.5s-9.83301 -17.333 -13.5 -28s-6.5 -21.667 -8.5 -33l-9 -43h92l-12 -67h-92l-87 -445h-80l104 536
c11.333 57.333 29.833 100.666 55.5 129.999s59.5 44 101.5 44c23.333 0 41.666 -3.83301 54.999 -11.5s24 -17.5 32 -29.5l8 41h72z" />
    <glyph glyph-name="f_f_i" unicode="ffi" horiz-adv-x="619" 
d="M149 445l-86.999 -444.999h-80l104 536c11.333 57.333 29.833 100.666 55.5 129.999s59.5 44 101.5 44c25.333 0 44.833 -4.5 58.5 -13.5s24.5 -20.167 32.5 -33.5l-56 -45c-4 6.66699 -9 12.5 -15 17.5s-13.667 7.5 -23 7.5c-11.333 0 -20.833 -2.5 -28.5 -7.5
s-14.334 -11.667 -20.001 -20s-10.167 -17.833 -13.5 -28.5s-6 -21.667 -8 -33l-9 -42h92l-12 -67h-92zM372.001 445.001l-87 -444.999h-80l105 536c11.333 57.333 29.833 100.666 55.5 129.999s59.167 44 100.5 44c25.333 0 44.833 -4.5 58.5 -13.5
s24.5 -20.167 32.5 -33.5l-56 -45c-3.33301 6.66699 -8 12.5 -14 17.5s-14 7.5 -24 7.5c-10.667 0 -20 -2.5 -28 -7.5s-14.667 -11.667 -20 -20s-9.83301 -17.833 -13.5 -28.5s-6.5 -21.667 -8.5 -33l-8 -42h92l-13 -67h-92zM528.001 512.002h71l-5 -75l-85 -437h-80z
M597.001 661.002c12 0 21.501 -3.5 28.501 -10.5s10.5 -16.167 10.5 -27.5c0 -17.333 -5.5 -31.166 -16.5 -41.499s-24.5 -15.5 -40.5 -15.5c-12 0 -21.5 3.5 -28.5 10.5s-10.5 16.167 -10.5 27.5c0 17.333 5.66699 31.166 17 41.499s24.666 15.5 39.999 15.5z" />
    <glyph glyph-name="f_f_l" unicode="ffl" horiz-adv-x="614" 
d="M149 445l-87.001 -444.999h-80l104 536c11.333 57.333 29.833 100.666 55.5 129.999s59.5 44 101.5 44c25.333 0 44.833 -4.5 58.5 -13.5s24.5 -20.167 32.5 -33.5l-56 -45c-4 6.66699 -9 12.5 -15 17.5s-13.667 7.5 -23 7.5c-11.333 0 -20.833 -2.5 -28.5 -7.5
s-14.167 -11.667 -19.5 -20s-9.66602 -17.833 -12.999 -28.5s-6.33301 -21.667 -9 -33l-9 -42h92l-12 -67h-92zM627.999 635.001l-124 -634.999h-73l8 75l113 583l-50 -40c-4 6.66699 -9 12.5 -15 17.5s-13.667 7.5 -23 7.5c-11.333 0 -20.833 -2.5 -28.5 -7.5
s-14.167 -11.5 -19.5 -19.5s-9.66602 -17.333 -12.999 -28s-6.33301 -21.667 -9 -33l-9 -43h92l-12 -67h-92l-87 -445h-80l104 536c11.333 57.333 29.833 100.666 55.5 129.999s59.5 44 101.5 44c23.333 0 41.666 -3.83301 54.999 -11.5s24 -17.5 32 -29.5l8 41h72z" />
    <glyph glyph-name=".notdef" horiz-adv-x="602" 
d="M305 435c10.667 19.333 24.498 35 41.498 47s35.833 18 56.5 18c28.667 0 52.334 -9.83301 71.001 -29.5s28 -44.834 28 -75.501c0 -20 -4.5 -41.667 -13.5 -65s-22 -46.666 -39 -69.999s-38 -45.833 -63 -67.5s-53.5 -40.834 -85.5 -57.501
c-32 16.667 -60.5 35.834 -85.5 57.501s-46 44.167 -63 67.5s-30 46.666 -39 69.999s-13.5 45 -13.5 65c0 30.667 9.33301 55.834 28 75.501s42.334 29.5 71.001 29.5c20.667 0 39.5 -6 56.5 -18s30.833 -27.667 41.5 -47h8z" />
    <glyph glyph-name=".null" horiz-adv-x="0" 
 />
    <glyph glyph-name=".null" horiz-adv-x="0" 
 />
    <glyph glyph-name="nonmarkingreturn" unicode="&#xd;" horiz-adv-x="0" 
 />
    <glyph glyph-name="space" unicode=" " horiz-adv-x="126" 
 />
    <glyph glyph-name="exclam" unicode="!" horiz-adv-x="226" 
d="M218 665l-97 -498h-73l7 77l81 421h82zM4 37c0 17.333 6.16895 31.666 18.502 42.999s26.833 17 43.5 17c13.333 0 23.666 -4 30.999 -12s11 -18 11 -30c0 -17.333 -6 -31.666 -18 -42.999s-26.667 -17 -44 -17c-12.667 0 -22.834 4 -30.501 12s-11.5 18 -11.5 30z" />
    <glyph glyph-name="quotedbl" unicode="&#x22;" horiz-adv-x="290" 
d="M140 463h-59l31 218h81zM259 463h-59l31 218h81z" />
    <glyph glyph-name="numbersign" unicode="#" horiz-adv-x="483" 
d="M120 492h74l79 173h70l-78 -173h95l79 173h69l-78 -173h57l-12 -64h-74l-83 -181h57l-12 -64h-74l-83 -183h-69l82 183h-95l-83 -183h-70l83 183h-58l12 64h75l83 181h-58zM153 247h95l83 181h-95z" />
    <glyph glyph-name="dollar" unicode="$" horiz-adv-x="321" 
d="M73 523c7.33301 34.667 20.166 64.998 38.499 90.998s43.166 43.333 74.499 52l12 64h80l-12 -61c39.333 -11.333 59 -44.333 59 -99c0 -17.333 -2 -37 -6 -59l-5 -29h-80l6 36c3.33301 14.667 5 27.334 5 38.001c0 13.333 -2.5 24.333 -7.5 33s-13.167 13 -24.5 13
c-14.667 0 -27.167 -7 -37.5 -21s-18.166 -33.667 -23.499 -59l-5 -27c-4 -21.333 -2.5 -39.666 4.5 -54.999s18.833 -31.666 35.5 -48.999c21.333 -21.333 39 -44 53 -68s21 -53.333 21 -88c0 -17.333 -2 -36 -6 -56l-7 -35c-7.33301 -35.333 -20.333 -66.5 -39 -93.5
s-43 -44.5 -73 -52.5l-12 -63h-80l12 63c-40 12 -60 46 -60 102c0 16.667 2 35.667 6 57l5 26h80l-6 -34c-3.33301 -16.667 -5 -30.667 -5 -42c0 -12.667 2.33301 -23.167 7 -31.5s13.334 -12.5 26.001 -12.5c13.333 0 25.333 7.66699 36 23s18.667 36.666 24 63.999l8 39
c4.66699 26 3 49 -5 69s-20.667 39 -38 57c-20 22.667 -37 44 -51 64s-21 43.667 -21 71c0 10 1 21 3 33z" />
    <glyph glyph-name="percent" unicode="%" horiz-adv-x="644" 
d="M233 377c-6.66699 -32.667 -19.668 -59.667 -39.001 -81s-46.333 -32 -81 -32c-28 0 -48.333 7.33301 -61 22s-19 33.667 -19 57c0 5.33301 0.333008 10.833 1 16.5s1.66699 11.5 3 17.5l35 185c6 32.667 18.833 59.667 38.5 81s46.834 32 81.501 32
c28 0 48.167 -7.33301 60.5 -22s18.5 -33.667 18.5 -57c0 -10.667 -1 -22 -3 -34zM200.999 568c2.66699 12.667 2.66895 23.5 0.00195312 32.5s-9.66699 13.5 -21 13.5s-20 -4.5 -26 -13.5s-10.333 -19.833 -13 -32.5l-38 -197
c-2.66699 -12.667 -2.83398 -23.5 -0.500977 -32.5s9.16602 -13.5 20.499 -13.5c12 0 21 4.5 27 13.5s10.333 19.833 13 32.5zM153.001 0h-68l407 665h68zM573.001 107c-6.66699 -32.667 -19.668 -59.667 -39.001 -81s-46.333 -32 -81 -32c-28 0 -48.333 7.33301 -61 22
s-19 33.667 -19 57c0 5.33301 0.333008 10.833 1 16.5s1.66699 11.5 3 17.5l35 185c6 32.667 18.833 59.667 38.5 81s46.834 32 81.501 32c28 0 48.167 -7.33301 60.5 -22s18.5 -33.667 18.5 -57c0 -10.667 -1 -22 -3 -34zM541 298
c2.66699 12.667 2.66895 23.5 0.00195312 32.5s-9.66699 13.5 -21 13.5s-20 -4.5 -26 -13.5s-10.333 -19.833 -13 -32.5l-38 -197c-2.66699 -12.667 -2.83398 -23.5 -0.500977 -32.5s9.16602 -13.5 20.499 -13.5c12 0 21 4.5 27 13.5s10.333 19.833 13 32.5z" />
    <glyph glyph-name="ampersand" unicode="&#x26;" horiz-adv-x="373" 
d="M179 43c-11.333 -15.333 -24.0049 -27.998 -38.0049 -37.998s-32.667 -15 -56 -15c-56.667 0 -85 31 -85 93c0 8.66699 0.666992 17.834 2 27.501s3 20.167 5 31.5l8 41c4.66699 22.667 11 42.667 19 60s17.833 33.166 29.5 47.499s25 27.5 40 39.5s31.5 24.333 49.5 37
c16.667 11.333 30.834 22.166 42.501 32.499s21.334 20.5 29.001 30.5s13.667 20.333 18 31s7.83301 22 10.5 34l4 21c2.66699 11.333 4 23.666 4 36.999s-2.66699 24.833 -8 34.5s-14.666 14.5 -27.999 14.5c-9.33301 0 -17.666 -2.5 -24.999 -7.5
s-13.666 -11.667 -18.999 -20s-9.66602 -17.666 -12.999 -27.999s-6 -20.5 -8 -30.5l-7 -31c-4.66699 -23.333 -3.83398 -42.166 2.49902 -56.499s13.166 -24.166 20.499 -29.499l-70 -52c-9.33301 10 -17.5 23.333 -24.5 40s-10.5 37.334 -10.5 62.001
c0 7.33301 0.333008 15.166 1 23.499s2 17.166 4 26.499l5 21c9.33301 47.333 28 85 56 113s62.333 42 103 42c36.667 0 63.167 -10.167 79.5 -30.5s24.5 -45.833 24.5 -76.5c0 -13.333 -1.33301 -26.333 -4 -39l-6 -31c-4 -18 -9 -34.5 -15 -49.5s-13.667 -29.333 -23 -43
s-21 -27 -35 -40s-30.667 -26.5 -50 -40.5c-15.333 -10.667 -29.166 -20.834 -41.499 -30.501s-23.5 -20 -33.5 -31s-18.5 -23.333 -25.5 -37s-12.5 -29.5 -16.5 -47.5l-6 -31c-2 -11.333 -3 -22 -3 -32c0 -14 2.5 -26.333 7.5 -37s14.167 -16 27.5 -16
c17.333 0 31.5 8.66699 42.5 26s18.833 37.666 23.5 60.999l13 71h80l-13 -70c-6 -30 -9 -57.333 -9 -82c0 -27.333 4.33301 -48.833 13 -64.5s23.667 -23.5 45 -23.5l-15 -74c-44.667 0 -76 12.5 -94 37.5s-26 57.833 -24 98.5h-3z" />
    <glyph glyph-name="quotesingle" unicode="'" horiz-adv-x="171" 
d="M140 463h-59l31 218h81z" />
    <glyph glyph-name="parenleft" unicode="(" horiz-adv-x="260" 
d="M111 588c6 30 14.168 57.168 24.501 81.501s23.666 45.166 39.999 62.499s35.666 30.833 57.999 40.5s48.5 14.5 78.5 14.5h16l-14 -74h-16c-55.333 0 -91.666 -44.333 -108.999 -133l-94 -484c-4 -22 -6 -41.333 -6 -58c0 -25.333 5 -44 15 -56s26 -18 48 -18h16
l-14 -74h-16c-48 0 -82.167 11 -102.5 33s-30.5 53 -30.5 93c0 10 0.5 20.667 1.5 32s2.83301 23 5.5 35z" />
    <glyph glyph-name="parenright" unicode=")" horiz-adv-x="260" 
d="M150 83c-5.33301 -29.333 -13.166 -55.998 -23.499 -79.998s-23.5 -44.333 -39.5 -61s-35.333 -29.5 -58 -38.5s-49 -13.5 -79 -13.5h-16l14 74h16c55.333 0 91.666 44 108.999 132l93 479c4 20.667 6 39.667 6 57c0 25.333 -5 45.166 -15 59.499s-25.667 21.5 -47 21.5
h-16l14 74h16c47.333 0 81 -12.5 101 -37.5s30 -58.167 30 -99.5c0 -22.667 -2.33301 -45.334 -7 -68.001z" />
    <glyph glyph-name="asterisk" unicode="*" horiz-adv-x="301" 
d="M75 570l88 38l1 3l-75 36l37 48l59 -56l6 5l9 89h56l-29 -89l3 -4l84 55l19 -48l-91 -38l-1 -7l77 -32l-37 -48l-62 55l-6 -4l-5 -89h-56l28 89l-2 1l-84 -52z" />
    <glyph glyph-name="plus" unicode="+" horiz-adv-x="322" 
d="M35 338h90l17 90h74l-17 -90h90l-14 -74h-90l-18 -90h-74l18 90h-90z" />
    <glyph glyph-name="comma" unicode="," horiz-adv-x="168" 
d="M-12 -114h-49l68 200h81z" />
    <glyph glyph-name="hyphen" unicode="-" horiz-adv-x="234" 
d="M44 357h154l-14 -75h-154z" />
    <glyph glyph-name="period" unicode="." horiz-adv-x="168" 
d="M-24 37c0 17.333 6 31.666 18 42.999s26.667 17 44 17c13.333 0 23.666 -3.83301 30.999 -11.5s11 -17.834 11 -30.501c0 -17.333 -6 -31.666 -18 -42.999s-26.667 -17 -44 -17c-13.333 0 -23.666 3.83301 -30.999 11.5s-11 17.834 -11 30.501z" />
    <glyph glyph-name="slash" unicode="/" horiz-adv-x="283" 
d="M-7 -89h-71l359 799h71z" />
    <glyph glyph-name="zero" unicode="0" 
d="M262 159c-10.667 -54 -29.5 -95.667 -56.5 -125s-62.5 -44 -106.5 -44c-34 0 -59.333 9.33301 -76 28s-25 45.667 -25 81c0 18 2 38 6 60l68 350c10 53.333 28.333 94.333 55 123s61.667 43 105 43c35.333 0 61.333 -9.5 78 -28.5s25 -46.167 25 -81.5
c0 -18 -2 -37.333 -6 -58zM251 517c1.33301 6.66699 2.33105 13.002 2.99805 19.002s1 12 1 18c0 13.333 -2.66699 24.666 -8 33.999s-14.666 14 -27.999 14c-19.333 0 -34.166 -8.66699 -44.499 -26s-17.833 -38 -22.5 -62l-70 -362
c-2.66699 -12.667 -4 -26.334 -4 -41.001c0 -13.333 2.33301 -24.5 7 -33.5s13.667 -13.5 27 -13.5c20 0 35.167 8.83301 45.5 26.5s17.833 37.5 22.5 59.5z" />
    <glyph glyph-name="one" unicode="1" horiz-adv-x="285" 
d="M81 0l113 578l-101 -81l-39 54l143 114h94l-130 -665h-80z" />
    <glyph glyph-name="two" unicode="2" horiz-adv-x="323" 
d="M63 496l4 22c10 51.333 28.333 90.333 55 117s62 40 106 40c36 0 62.5 -8.16699 79.5 -24.5s25.5 -40.833 25.5 -73.5c0 -16.667 -2 -35 -6 -55l-6 -27c-6 -32.667 -19.167 -66 -39.5 -100s-45.5 -72 -75.5 -114l-145 -208h178l-14 -73h-259l17 85l129 182l53.5 76
c15 22 27.833 41.833 38.5 59.5s19 34 25 49s10.333 30.167 13 45.5l4 21c3.33301 15.333 5 28 5 38c0 30.667 -12.333 46 -37 46c-19.333 0 -34 -7.16699 -44 -21.5s-17.667 -34.833 -23 -61.5l-4 -23h-80z" />
    <glyph glyph-name="three" unicode="3" horiz-adv-x="325" 
d="M242 515c1.33301 6 2.33496 12 3.00195 18s1 11.667 1 17c0 14 -2.66699 26 -8 36s-14.666 15 -27.999 15c-19.333 0 -34.333 -9 -45 -27s-18 -38 -22 -60l-4 -19h-80l3 13c10.667 53.333 29.167 94.5 55.5 123.5s61.5 43.5 105.5 43.5c36 0 62.667 -9.16699 80 -27.5
s26 -43.5 26 -75.5c0 -14 -1.33301 -27.667 -4 -41l-8 -44c-6.66699 -32.667 -18.167 -60.334 -34.5 -83.001s-35.5 -38.667 -57.5 -48l-1 -4c13.333 -8 24 -20 32 -36s12 -35 12 -57c0 -14 -1.33301 -27.333 -4 -40l-14 -76c-5.33301 -26 -13.333 -48.667 -24 -68
s-23 -35.166 -37 -47.499s-29.333 -21.5 -46 -27.5s-34 -9 -52 -9c-70 0 -105 34.667 -105 104c0 16 2 34 6 54l4 22h80l-4 -22c-1.33301 -6 -2.33301 -12.167 -3 -18.5s-1 -12.5 -1 -18.5c0 -13.333 2.5 -24.666 7.5 -33.999s14.5 -14 28.5 -14c10 0 18.833 2.66699 26.5 8
s14.167 12.166 19.5 20.499s9.66602 17.666 12.999 27.999s6 20.5 8 30.5l14 70c2 10.667 3 21.334 3 32.001c0 18 -4.33301 32.833 -13 44.5s-23.667 17.5 -45 17.5h-28l14 74h28c27.333 0 48.166 9 62.499 27s24.166 40.333 29.499 67z" />
    <glyph glyph-name="four" unicode="4" horiz-adv-x="325" 
d="M169 146h-183l17 89l233 430h80l-242 -446h109l22 111h80l-65 -330h-80z" />
    <glyph glyph-name="five" unicode="5" 
d="M100 665l259 -0.000976562l-15 -76h-179l-34 -176c9.33301 12 21 22.833 35 32.5s30.667 14.5 50 14.5c52 0 78 -32.333 78 -97c0 -10.667 -0.666992 -22 -2 -34s-3.33301 -25.333 -6 -40l-26 -133c-10.667 -54 -29.334 -95.167 -56.001 -123.5s-62 -42.5 -106 -42.5
c-35.333 0 -61.333 9.33301 -78 28s-25 45 -25 79c0 8 0.333008 16.333 1 25s2 17.667 4 27l4 22h80l-5 -23c-1.33301 -6.66699 -2.33301 -13 -3 -19s-1 -12 -1 -18c0 -13.333 2.5 -24.666 7.5 -33.999s14.5 -14 28.5 -14c19.333 0 34.333 9 45 27s18.334 38 23.001 60
l29 152c1.33301 5.33301 2.33301 11 3 17s1 11.667 1 17c0 14 -2.5 26 -7.5 36s-13.833 15 -26.5 15c-16.667 0 -30 -7.5 -40 -22.5s-18 -30.833 -24 -47.5h-82z" />
    <glyph glyph-name="six" unicode="6" horiz-adv-x="336" 
d="M247 491l5 26.002c2.66699 11.333 4 23.333 4 36c0 14 -2.83301 25.667 -8.5 35s-15.5 14 -29.5 14c-9.33301 0 -17.666 -2.5 -24.999 -7.5s-13.666 -11.5 -18.999 -19.5s-9.83301 -17.167 -13.5 -27.5s-6.5 -20.833 -8.5 -31.5l-31 -157
c9.33301 16 21.666 29.5 36.999 40.5s33.333 16.5 54 16.5c50.667 0 76 -31 76 -93c0 -10 -0.666992 -20.833 -2 -32.5s-3.33301 -24.167 -6 -37.5l-18 -95c-10.667 -54 -29.334 -95.5 -56.001 -124.5s-62 -43.5 -106 -43.5c-35.333 0 -61.333 9.66699 -78 29
s-25 46.666 -25 81.999c0 17.333 2 36.666 6 57.999l69 350c10 54 28.333 95.167 55 123.5s61.667 42.5 105 42.5c70 0 105 -34.667 105 -104c0 -17.333 -2 -36.333 -6 -57l-4 -23h-80zM112 63.002c10 0 18.8311 2.49805 26.498 7.49805s14.167 11.667 19.5 20
s9.83301 17.666 13.5 27.999s6.5 20.833 8.5 31.5l21 107c1.33301 6 2.33301 12 3 18s1 11.667 1 17c0 14.667 -2.83301 26.834 -8.5 36.501s-15.167 14.5 -28.5 14.5c-9.33301 0 -17.666 -2.5 -24.999 -7.5s-13.666 -11.667 -18.999 -20s-9.83301 -17.666 -13.5 -27.999
s-6.5 -20.833 -8.5 -31.5l-21 -108c-1.33301 -6 -2.33301 -12.167 -3 -18.5s-1 -12.5 -1 -18.5c0 -13.333 2.5 -24.666 7.5 -33.999s14.167 -14 27.5 -14z" />
    <glyph glyph-name="seven" unicode="7" horiz-adv-x="305" 
d="M-25 0l283 589h-188l14 76h260l-17 -89l-272 -576h-80z" />
    <glyph glyph-name="eight" unicode="8" horiz-adv-x="336" 
d="M77 531c9.33301 46.667 26.6699 82.334 52.0029 107.001s60 37 104 37c36.667 0 64 -8.16699 82 -24.5s27 -40.166 27 -71.499c0 -12.667 -1.33301 -25.334 -4 -38.001l-11 -54c-3.33301 -16.667 -8.16602 -31.5 -14.499 -44.5s-14 -25 -23 -36s-19.333 -21.667 -31 -32
s-24.834 -20.833 -39.501 -31.5c15.333 -16.667 28 -34.667 38 -54s15 -42 15 -68c0 -7.33301 -0.5 -14.5 -1.5 -21.5s-2.16699 -14.5 -3.5 -22.5l-8 -41c-9.33301 -48.667 -27.833 -85.167 -55.5 -109.5s-61.834 -36.5 -102.501 -36.5c-36 0 -62.833 9 -80.5 27
s-26.5 42.667 -26.5 74c0 13.333 1.33301 25.666 4 36.999l10 50c7.33301 39.333 20.666 71.333 39.999 96s42.666 47.667 69.999 69c-16.667 17.333 -29.667 34.5 -39 51.5s-14 36.5 -14 58.5c0 12.667 1.33301 24.667 4 36zM81.0039 141
c-1.33301 -5.33301 -2.33594 -10.833 -3.00293 -16.5s-1 -11.167 -1 -16.5c0 -12.667 2.66699 -23.334 8 -32.001s15 -13 29 -13c19.333 0 34.166 7.83301 44.499 23.5s17.5 33.834 21.5 54.501l10 51c4.66699 21.333 4.33398 40.333 -0.999023 57
s-14.666 32.334 -27.999 47.001c-19.333 -14.667 -34.666 -29.834 -45.999 -45.501s-19.666 -35.167 -24.999 -58.5zM150.001 494c-2 -11.333 -3 -21 -3 -29c0 -25.333 11 -49.333 33 -72c21.333 16 37 31 47 45s17.333 32.333 22 55l6 32c2 9.33301 3 18.5 3 27.5
s-1.16699 17.167 -3.5 24.5s-6.33301 13.333 -12 18s-13.167 7 -22.5 7c-19.333 0 -34 -8 -44 -24s-17 -34 -21 -54z" />
    <glyph glyph-name="nine" unicode="9" horiz-adv-x="335" 
d="M87 174l-5 -26.002c-1.33301 -7.33301 -2.33301 -14.166 -3 -20.499s-1 -12.5 -1 -18.5c0 -13.333 2.5 -24.333 7.5 -33s14.167 -13 27.5 -13c10 0 18.667 2.5 26 7.5s13.833 11.667 19.5 20s10.167 17.666 13.5 27.999s6 20.833 8 31.5l31 156
c-9.33301 -16 -21.5 -29.5 -36.5 -40.5s-33.167 -16.5 -54.5 -16.5c-49.333 0 -74 30.333 -74 91c0 18.667 2.66699 42.334 8 71.001l20 99c10 52.667 27.833 93.334 53.5 122.001s60.5 43 104.5 43c35.333 0 61.5 -9.66699 78.5 -29s25.5 -46.333 25.5 -81
c0 -17.333 -2 -36 -6 -56l-68 -352c-10.667 -54 -29.5 -95.333 -56.5 -124s-62.167 -43 -105.5 -43c-69.333 0 -104 33.667 -104 101c0 16.667 2 36 6 58l5 25h80zM219 601.998c-19.333 0 -33.832 -8.83105 -43.499 -26.498s-16.834 -37.5 -21.501 -59.5l-21 -107
c-1.33301 -6 -2.33301 -12 -3 -18s-1 -12 -1 -18c0 -14 2.66699 -26 8 -36s14.666 -15 27.999 -15c8.66699 0 16.667 2.5 24 7.5s13.833 11.667 19.5 20s10.334 17.666 14.001 27.999s6.5 20.833 8.5 31.5l21 108c1.33301 6 2.33301 12.167 3 18.5s1 12.166 1 17.499
c0 13.333 -2.66699 24.833 -8 34.5s-15 14.5 -29 14.5z" />
    <glyph glyph-name="colon" unicode=":" horiz-adv-x="181" 
d="M-24 37c0 17.333 6 31.666 18 42.999s26.667 17 44 17c13.333 0 23.666 -3.83301 30.999 -11.5s11 -17.834 11 -30.501c0 -17.333 -6 -31.666 -18 -42.999s-26.667 -17 -44 -17c-13.333 0 -23.666 3.83301 -30.999 11.5s-11 17.834 -11 30.501zM52 430
c0 17.333 6 31.666 18 42.999s26.667 17 44 17c13.333 0 23.666 -3.83301 30.999 -11.5s11 -17.834 11 -30.501c0 -17.333 -6 -31.666 -18 -42.999s-26.667 -17 -44 -17c-13.333 0 -23.666 3.83301 -30.999 11.5s-11 17.834 -11 30.501z" />
    <glyph glyph-name="semicolon" unicode=";" horiz-adv-x="185" 
d="M56 430c0 17.333 6 31.666 18 42.999s26.667 17 44 17c13.333 0 23.666 -3.83301 30.999 -11.5s11 -17.834 11 -30.501c0 -17.333 -6 -31.666 -18 -42.999s-26.667 -17 -44 -17c-13.333 0 -23.666 3.83301 -30.999 11.5s-11 17.834 -11 30.501zM-12 -114h-49l68 200h81z
" />
    <glyph glyph-name="less" unicode="&#x3c;" horiz-adv-x="322" 
d="M34 346l278 121l-16 -81l-186 -74l158 -74l-16 -80l-231 120z" />
    <glyph glyph-name="equal" unicode="=" horiz-adv-x="322" 
d="M47 405h254l-14 -74h-254zM22 273h254l-14 -74h-254z" />
    <glyph glyph-name="greater" unicode="&#x3e;" horiz-adv-x="322" 
d="M279 278l-277 -121l15 81l186 74l-157 74l16 80l230 -120z" />
    <glyph glyph-name="question" unicode="?" horiz-adv-x="327" 
d="M67 475l11 57c8 43.333 25 78 51 104s60 39 102 39c34 0 59.333 -8.5 76 -25.5s25 -39.833 25 -68.5c0 -5.33301 -0.333008 -10.833 -1 -16.5s-1.66699 -11.5 -3 -17.5l-9 -46c-2.66699 -15.333 -6 -29 -10 -41s-9.33301 -23.667 -16 -35s-15.167 -22.5 -25.5 -33.5
s-23.5 -23.167 -39.5 -36.5c-12 -10 -21.5 -19.833 -28.5 -29.5s-12.833 -20 -17.5 -31s-8.5 -23.5 -11.5 -37.5s-6.16699 -30.333 -9.5 -49l-8 -41h-80l9 47c4.66699 22.667 9 42.5 13 59.5s9.33301 32.167 16 45.5s14.834 25.833 24.501 37.5s22.167 24.167 37.5 37.5
c24.667 20.667 41.167 39.667 49.5 57s14.166 36 17.499 56l7 36c3.33301 16.667 2.5 30.5 -2.5 41.5s-14.167 16.5 -27.5 16.5c-29.333 0 -49 -24.333 -59 -73l-11 -53h-80zM39 37c0 17.333 6.16895 31.666 18.502 42.999s26.833 17 43.5 17c13.333 0 23.666 -4 30.999 -12
s11 -18 11 -30c0 -17.333 -6 -31.666 -18 -42.999s-26.667 -17 -44 -17c-12.667 0 -22.834 4 -30.501 12s-11.5 18 -11.5 30z" />
    <glyph glyph-name="at" unicode="@" horiz-adv-x="592" 
d="M183 327c4 18.667 9.33105 36.5029 15.998 53.5029s15.167 31.667 25.5 44s22.833 22.166 37.5 29.499s32 11 52 11c18 0 32.333 -3.33301 43 -10s18.667 -14.667 24 -24l16 34h34l-60 -303c-3.33301 -18.667 -3.16602 -33.5 0.500977 -44.5s11.834 -16.5 24.501 -16.5
c13.333 0 24.333 5.33301 33 16s14.667 25 18 43l39 203c2 11.333 3.66699 22.166 5 32.499s2 20.5 2 30.5c0 20.667 -2.66699 39.5 -8 56.5s-14 31.667 -26 44s-27.667 22 -47 29s-43 10.5 -71 10.5c-33.333 0 -62.833 -5.66699 -88.5 -17s-47.667 -26.333 -66 -45
s-33.166 -40 -44.499 -64s-19.333 -48.667 -24 -74l-48 -246c-4 -22 -6 -42.333 -6 -61c0 -42.667 12 -73.834 36 -93.501s61.667 -29.5 113 -29.5h14l-12 -62h-16c-136 0 -204 56.667 -204 170c0 11.333 0.5 22.833 1.5 34.5s2.83301 23.834 5.5 36.501l48 250
c7.33301 36 18.5 70 33.5 102s34.833 60 59.5 84s54.167 42.833 88.5 56.5s74.5 20.5 120.5 20.5c38 0 70.167 -5.16699 96.5 -15.5s47.666 -24.5 63.999 -42.5s28.333 -38.833 36 -62.5s11.5 -48.834 11.5 -75.501c0 -11.333 -0.666992 -22.5 -2 -33.5s-3 -22.167 -5 -33.5
l-36 -190c-9.33301 -46 -25.666 -80 -48.999 -102s-52 -33 -86 -33c-38.667 0 -64.334 17.667 -77.001 53c-11.333 -16 -24.5 -28.833 -39.5 -38.5s-33.167 -14.5 -54.5 -14.5c-23.333 0 -41.5 8.33301 -54.5 25s-16.5 40.667 -10.5 72zM217.998 141.003
c-2.66699 -12 -1.99902 -22.167 2.00098 -30.5s11.667 -12.5 23 -12.5s21.166 4 29.499 12s15.166 17 20.499 27l47 245c-3.33301 6 -7.16602 11.167 -11.499 15.5s-11.166 6.5 -20.499 6.5c-26.667 0 -44.334 -23.667 -53.001 -71z" />
    <glyph glyph-name="A" unicode="A" horiz-adv-x="345" 
d="M-50 0l240 665h95l-20 -665h-83l6 142h-111l-48 -142h-79zM101 216h94l16 319h-4z" />
    <glyph glyph-name="B" unicode="B" horiz-adv-x="341" 
d="M273 167c-11.333 -54.667 -30.1689 -96.168 -56.502 -124.501s-61.166 -42.5 -104.499 -42.5h-130l129 665h117c34.667 0 61.5 -8.33301 80.5 -25s28.5 -43 28.5 -79c0 -16 -2 -33.333 -6 -52l-5 -27c-6.66699 -30 -15.667 -54.167 -27 -72.5
s-24.666 -33.166 -39.999 -44.499c12 -9.33301 20.5 -21 25.5 -35s7.5 -29.667 7.5 -47s-2 -35.333 -6 -54zM206.997 235.999c1.33301 6 2.33301 12.168 3 18.501s1 12.166 1 17.499c0 14 -2.5 25.833 -7.5 35.5s-13.5 14.5 -25.5 14.5h-53l-49 -249h49
c9.33301 0 17.666 2.5 24.999 7.5s13.833 11.667 19.5 20s10.334 17.5 14.001 27.5s6.5 20 8.5 30zM175.997 392c17.333 0 31.5 6.66797 42.5 20.001s19.167 31.666 24.5 54.999l10 52c4.66699 23.333 4 40.833 -2 52.5s-18.333 17.5 -37 17.5h-37l-39 -197h38z" />
    <glyph glyph-name="C" unicode="C" horiz-adv-x="325" 
d="M246 481l5.99805 35c3.33301 15.333 5 28.333 5 39c0 13.333 -2.83301 24.5 -8.5 33.5s-15.167 13.5 -28.5 13.5c-18 0 -32.167 -7.66699 -42.5 -23s-18.166 -36.333 -23.499 -63l-71 -365c-2.66699 -12.667 -4 -25.667 -4 -39c0 -14 2.66699 -25.5 8 -34.5
s14.666 -13.5 27.999 -13.5c18.667 0 33.334 8.5 44.001 25.5s18 36.5 22 58.5l7 36h80l-6 -31c-10 -52 -28.5 -92.167 -55.5 -120.5s-62.167 -42.5 -105.5 -42.5c-34.667 0 -60.334 9.16699 -77.001 27.5s-25 45.166 -25 80.499c0 18 2 37.667 6 59l68 352
c10.667 54 29.334 95.167 56.001 123.5s61.334 42.5 104.001 42.5c34.667 0 60.667 -9.66699 78 -29s26 -46.666 26 -81.999c0 -16 -2 -34 -6 -54l-5 -29h-80z" />
    <glyph glyph-name="D" unicode="D" horiz-adv-x="349" 
d="M276 167c-10.667 -54.667 -29.333 -96.1689 -56 -124.502s-61.667 -42.5 -105 -42.5h-133l129 665h133c69.333 0 104 -36 104 -108c0 -9.33301 -0.666992 -18.666 -2 -27.999s-3 -19.666 -5 -30.999zM263.001 506.998c2 10.667 3 21.333 3 32
c0 14.667 -2.83301 26.667 -8.5 36s-15.167 14 -28.5 14h-52l-101 -516h52c9.33301 0 17.666 2.5 24.999 7.5s13.833 11.667 19.5 20s10.334 17.5 14.001 27.5s6.5 20 8.5 30z" />
    <glyph glyph-name="E" unicode="E" horiz-adv-x="293" 
d="M320 589h-143l-38 -196h118l-15 -73h-118l-48 -247h143l-13 -73h-224l129 665h224z" />
    <glyph glyph-name="F" unicode="F" horiz-adv-x="291" 
d="M-18 0l129 665h224l-15 -76h-143l-38 -196h118l-15 -73h-118l-62 -320h-80z" />
    <glyph glyph-name="G" unicode="G" horiz-adv-x="336" 
d="M170 307l14 73h128l-44 -226c-10 -53.333 -28.833 -94 -56.5 -122s-63.5 -42 -107.5 -42c-34.667 0 -60.834 9.33301 -78.501 28s-26.5 46 -26.5 82c0 16 2 34.667 6 56l68 353c10.667 54 29.667 95.167 57 123.5s62.666 42.5 105.999 42.5
c70.667 0 106 -37.333 106 -112c0 -10 -0.666992 -20.5 -2 -31.5s-3.33301 -23.167 -6 -36.5l-2 -14h-80l6 35c3.33301 13.333 5 25 5 35c0 14 -3 26 -9 36s-16.333 15 -31 15c-9.33301 0 -17.833 -2.5 -25.5 -7.5s-14.167 -11.5 -19.5 -19.5s-10 -17.167 -14 -27.5
s-7 -20.833 -9 -31.5l-72 -367c-2.66699 -11.333 -4 -23.333 -4 -36c0 -14 2.83301 -25.667 8.5 -35s15.834 -14 30.501 -14c10 0 18.833 2.33301 26.5 7s14.334 11 20.001 19s10.5 17 14.5 27s7 20.333 9 31l30 159h-48z" />
    <glyph glyph-name="H" unicode="H" horiz-adv-x="364" 
d="M172 0l61 316h-110l-61 -316h-80l129 665h80l-53 -276h109l54 276h80l-129 -665h-80z" />
    <glyph glyph-name="I" unicode="I" horiz-adv-x="174" 
d="M-18 0l129 665h80l-129 -665h-80z" />
    <glyph glyph-name="J" unicode="J" horiz-adv-x="219" 
d="M-31 63c28.667 1.33301 49.833 10.668 63.5 28.001s22.5 36.666 26.5 57.999l101 516h79l-98 -508c-20 -106 -82 -162 -186 -168z" />
    <glyph glyph-name="K" unicode="K" horiz-adv-x="350" 
d="M221 376l55 -376h-85l-38 299l-46 -68l-45 -231h-80l129 665h80l-62 -321l185 321h85z" />
    <glyph glyph-name="L" unicode="L" horiz-adv-x="298" 
d="M191 665l-115 -592h155l-13 -73h-236l129 665h80z" />
    <glyph glyph-name="M" unicode="M" horiz-adv-x="451" 
d="M-18 0l129 665h91l4 -440h3l174 440h85l-129 -665h-69l94 484h-3l-161 -401h-43l-8 401h-3l-95 -484h-69z" />
    <glyph glyph-name="N" unicode="N" horiz-adv-x="370" 
d="M258 0h-84l-26 497h-4l-96 -497h-66l129 665h85l24 -512h3l99 512h65z" />
    <glyph glyph-name="O" unicode="O" 
d="M262 156c-10 -54 -28.334 -95.167 -55.001 -123.5s-62 -42.5 -106 -42.5c-34.667 0 -60.334 9.16699 -77.001 27.5s-25 45.166 -25 80.499c0 17.333 2 37 6 59l68 352c10.667 53.333 29.334 94.333 56.001 123s61.334 43 104.001 43c35.333 0 61.5 -9.66699 78.5 -29
s25.5 -46.666 25.5 -81.999c0 -17.333 -2 -36.333 -6 -57zM251.999 516c3.33301 14.667 5.00195 27.667 5.00195 39c0 13.333 -2.66699 24.5 -8 33.5s-15 13.5 -29 13.5c-19.333 0 -34 -8.66699 -44 -26s-17.333 -37.333 -22 -60l-71 -365
c-1.33301 -6.66699 -2.33301 -13.334 -3 -20.001s-1 -13 -1 -19c0 -13.333 2.5 -24.666 7.5 -33.999s14.5 -14 28.5 -14c10 0 18.667 2.5 26 7.5s13.666 11.5 18.999 19.5s9.66602 17.167 12.999 27.5s6 20.5 8 30.5z" />
    <glyph glyph-name="P" unicode="P" horiz-adv-x="337" 
d="M321 431c-10 -54 -28.5 -95 -55.5 -123s-62.167 -42 -105.5 -42h-46l-52 -266h-80l129 665h126c68.667 0 103 -36 103 -108c0 -17.333 -2 -37 -6 -59zM256 506c2 12 3.00098 23 3.00098 33c0 15.333 -2.83301 27.5 -8.5 36.5s-16.167 13.5 -31.5 13.5h-42l-49 -250h42
c19.333 0 34.666 8.5 45.999 25.5s19.333 37.5 24 61.5z" />
    <glyph glyph-name="Q" unicode="Q" horiz-adv-x="333" 
d="M262 156c-17.333 -88.667 -55.6699 -141 -115.003 -157c0 -20.667 5.83301 -36.834 17.5 -48.501s30.167 -17.5 55.5 -17.5l-15 -73c-27.333 0 -50.333 3.16699 -69 9.5s-33.667 15.5 -45 27.5s-19.166 26.333 -23.499 43s-5.83301 35.334 -4.5 56.001
c-21.333 5.33301 -37.333 16.833 -48 34.5s-16 40.5 -16 68.5c0 17.333 2 36.666 6 57.999l68 352c10.667 53.333 29.334 94.333 56.001 123s61.334 43 104.001 43c35.333 0 61.5 -9.66699 78.5 -29s25.5 -46.666 25.5 -81.999c0 -17.333 -2 -36.333 -6 -57zM251.996 516
c1.33301 6.66699 2.33496 13.333 3.00195 20s1 13 1 19c0 13.333 -2.5 24.5 -7.5 33.5s-14.5 13.5 -28.5 13.5c-19.333 0 -34 -8.66699 -44 -26s-17.333 -37.333 -22 -60l-71 -365c-1.33301 -6.66699 -2.33301 -13.334 -3 -20.001s-1 -13 -1 -19
c0 -13.333 2.5 -24.666 7.5 -33.999s14.5 -14 28.5 -14c10 0 18.667 2.5 26 7.5s13.666 11.5 18.999 19.5s9.66602 17.167 12.999 27.5s6 20.5 8 30.5z" />
    <glyph glyph-name="R" unicode="R" horiz-adv-x="347" 
d="M333 474c-7.33301 -36 -19 -66.832 -35 -92.499s-35.333 -44.834 -58 -57.501l25 -324h-84l-12 302h-48l-59 -302h-80l129 665h130c69.333 0 104 -35.667 104 -107c0 -19.333 -2.33301 -39.333 -7 -60zM260 506.001c2 10.667 3.00098 21.334 3.00098 32.001
c0 15.333 -3.16699 27.666 -9.5 36.999s-17.166 14 -32.499 14h-44l-42 -214h44c19.333 0 34.666 7.83301 45.999 23.5s19.666 36.5 24.999 62.5z" />
    <glyph glyph-name="S" unicode="S" horiz-adv-x="311" 
d="M65 523c4 20.667 10.166 40.3291 18.499 58.9961s19 34.834 32 48.501s28.333 24.5 46 32.5s37.834 12 60.501 12c32 0 56.667 -8.66699 74 -26s26 -44 26 -80c0 -16.667 -2 -36 -6 -58l-5 -29h-80l7 36c1.33301 6.66699 2.33301 13.167 3 19.5s1 12.5 1 18.5
c0 13.333 -2.5 24.333 -7.5 33s-14.167 13 -27.5 13c-17.333 0 -31.166 -7.83301 -41.499 -23.5s-17.5 -34.167 -21.5 -55.5l-5 -27c-4 -20.667 -3 -38.834 3 -54.501s18.333 -32.5 37 -50.5c21.333 -21.333 40 -44.166 56 -68.499s24 -53.5 24 -87.5
c0 -14 -1.33301 -27.333 -4 -40l-10 -52c-4 -19.333 -10.167 -38.166 -18.5 -56.499s-19 -34.666 -32 -48.999s-28.333 -25.833 -46 -34.5s-37.5 -13 -59.5 -13c-35.333 0 -60.833 9.33301 -76.5 28s-23.5 45 -23.5 79c0 18 2 38 6 60l5 26h80l-7 -33
c-3.33301 -15.333 -5 -29.333 -5 -42c0 -13.333 2.33301 -24.166 7 -32.499s13.667 -12.5 27 -12.5c17.333 0 31.166 8.16699 41.499 24.5s17.5 35.166 21.5 56.499l7 38c2 10.667 3 20.667 3 30c0 20.667 -4.33301 39.334 -13 56.001s-20.667 33 -36 49
c-21.333 20.667 -38.833 41 -52.5 61s-20.5 43.667 -20.5 71c0 5.33301 0.333008 10.833 1 16.5s1.66699 11.5 3 17.5z" />
    <glyph glyph-name="T" unicode="T" horiz-adv-x="312" 
d="M49 0l115 589h-100l14 76h284l-14 -76h-104l-115 -589h-80z" />
    <glyph glyph-name="U" unicode="U" horiz-adv-x="347" 
d="M367 665l-98.998 -509c-10.667 -54 -29 -95 -55 -123s-61 -42 -105 -42c-70 0 -105 36.333 -105 109c0 16 2 34.667 6 56l99 509h80l-100 -516c-2.66699 -11.333 -4 -23.333 -4 -36c0 -14.667 2.66699 -26.5 8 -35.5s14.666 -13.5 27.999 -13.5
c18.667 0 33.167 7.66699 43.5 23s18.166 36 23.499 62l100 516h80z" />
    <glyph glyph-name="V" unicode="V" horiz-adv-x="331" 
d="M151 0h-102l33 665h80l-38 -535h3l170 535h80z" />
    <glyph glyph-name="W" unicode="W" horiz-adv-x="473" 
d="M327 665l-34 -511h4l142 511h80l-207 -665h-80l24 448h-3l-150 -448h-75l54 665h80l-60 -511h3l166 511h56z" />
    <glyph glyph-name="X" unicode="X" horiz-adv-x="335" 
d="M254 0h-83l-20 260h-3l-115 -260h-81l166 338l-38 327h83l18 -261h4l115 261h82l-168 -331z" />
    <glyph glyph-name="Y" unicode="Y" horiz-adv-x="343" 
d="M186 207l-40 -207h-80l40 207l-24 458h82l3 -342h3l137 342h82z" />
    <glyph glyph-name="Z" unicode="Z" horiz-adv-x="289" 
d="M75 589l14 76h243l-16 -88l-271 -504h168l-14 -73h-243l17 88l270 501h-168z" />
    <glyph glyph-name="bracketleft" unicode="[" horiz-adv-x="244" 
d="M143 787h161l-15 -74h-80l-146 -749h80l-14 -74h-160z" />
    <glyph glyph-name="backslash" unicode="\" horiz-adv-x="283" 
d="M77 710h71l49 -799h-72z" />
    <glyph glyph-name="bracketright" unicode="]" horiz-adv-x="244" 
d="M103 -110h-160l14 74h80l146 749h-80l14 74h161z" />
    <glyph glyph-name="asciicircum" unicode="^" horiz-adv-x="322" 
d="M220 452l59 -242h-84l-29 148l-87 -148h-84l154 242h71z" />
    <glyph glyph-name="underscore" unicode="_" horiz-adv-x="326" 
d="M-44 -18h276l-15 -80h-276z" />
    <glyph glyph-name="grave" unicode="`" horiz-adv-x="350" 
d="M261 687l15 -137h-66l-31 137h82z" />
    <glyph glyph-name="a" unicode="a" horiz-adv-x="325" 
d="M220 429c-2 5.33301 -5.66797 11 -11.001 17s-13 9 -23 9c-16.667 0 -29.667 -7.66699 -39 -23s-16.666 -35 -21.999 -59l-46 -237c-1.33301 -7.33301 -2.33301 -14.5 -3 -21.5s-1 -13.167 -1 -18.5c0 -26 9.66699 -39 29 -39c9.33301 0 18.5 3.33301 27.5 10
s16.5 15.667 22.5 27zM176.999 522c21.333 0 37.333 -4.83203 48 -14.499s18.667 -20.834 24 -33.501l15 38h52l-80 -412c-2.66699 -13.333 -2.5 -22.833 0.5 -28.5s9.83301 -8.5 20.5 -8.5l-14 -73c-30 0 -50.667 4.83301 -62 14.5s-18.333 25.5 -21 47.5
c-11.333 -18 -24.5 -32.833 -39.5 -44.5s-32.5 -17.5 -52.5 -17.5c-23.333 0 -41.5 7.5 -54.5 22.5s-19.5 37.5 -19.5 67.5c0 8.66699 0.666992 18 2 28s3 20.667 5 32l44 230c10 52.667 26 91.167 48 115.5s50 36.5 84 36.5z" />
    <glyph glyph-name="b" unicode="b" horiz-adv-x="328" 
d="M78 81c1.33301 -5.33301 4.83301 -10.667 10.5 -16s13.167 -8 22.5 -8c29.333 0 49.666 28.333 60.999 85l46 237c2.66699 11.333 4 23 4 35s-2.33301 21.833 -7 29.5s-12.667 11.5 -24 11.5c-10 0 -19.167 -4 -27.5 -12s-15.166 -16.667 -20.499 -26zM37 -0.000976562
h-55l138 710h71l-5 -75l-34 -169c9.33301 16 21 29.333 35 40s29.667 16 47 16c22 0 39.167 -7.16699 51.5 -21.5s18.5 -36.833 18.5 -67.5c0 -19.333 -2.33301 -40.333 -7 -63l-42 -216c-11.333 -57.333 -29 -99 -53 -125s-52 -39 -84 -39c-19.333 0 -34 4.5 -44 13.5
s-16.667 20.167 -20 33.5z" />
    <glyph glyph-name="c" unicode="c" horiz-adv-x="309" 
d="M199 324l10 49c1.33301 7.33301 2.5 14.333 3.5 21s1.5 13 1.5 19c0 12.667 -2.33301 22.834 -7 30.501s-12.667 11.5 -24 11.5c-17.333 0 -30.333 -7.83301 -39 -23.5s-15.334 -35.5 -20.001 -59.5l-45 -231c-3.33301 -16.667 -5 -30.667 -5 -42
c0 -12.667 2.33301 -22.834 7 -30.501s12.667 -11.5 24 -11.5c17.333 0 30 7.66699 38 23s14.667 35 20 59l10 49h76l-7 -37c-11.333 -52 -28.333 -91.833 -51 -119.5s-55.667 -41.5 -99 -41.5c-33.333 0 -57.666 8.83301 -72.999 26.5s-23 43.167 -23 76.5
c0 9.33301 0.666992 19.166 2 29.499s3 21.166 5 32.499l40 203c10 52.667 27.167 93.167 51.5 121.5s57.833 42.5 100.5 42.5c33.333 0 57.5 -8.33301 72.5 -25s22.5 -41 22.5 -73c0 -9.33301 -0.5 -19.166 -1.5 -29.499s-2.83301 -21.166 -5.5 -32.499l-8 -38h-76z" />
    <glyph glyph-name="d" unicode="d" horiz-adv-x="330" 
d="M220 429c-2 5.33301 -5.66699 11 -11 17s-13 9 -23 9c-16.667 0 -29.667 -7.66699 -39 -23s-16.333 -35 -21 -59l-46 -237c-1.33301 -8 -2.5 -15.333 -3.5 -22s-1.5 -13 -1.5 -19c0 -25.333 9.66699 -38 29 -38c9.33301 0 18.5 3.33301 27.5 10s16.5 15.667 22.5 27z
M235 98c-2 -12.667 -1.50098 -21.667 1.49902 -27s9.83301 -8 20.5 -8l-14 -73c-30 0 -50.667 4.83301 -62 14.5s-18.333 25.5 -21 47.5c-11.333 -18 -24.5 -32.833 -39.5 -44.5s-33.167 -17.5 -54.5 -17.5c-23.333 0 -41.166 7.5 -53.499 22.5s-18.5 37.5 -18.5 67.5
c0 8.66699 0.666992 18 2 28s3 20.667 5 32l44 230c10.667 54 26.5 92.833 47.5 116.5s46.5 35.5 76.5 35.5c18 0 31.833 -4 41.5 -12s16.167 -17.333 19.5 -28l44 228h73l-8 -75z" />
    <glyph glyph-name="e" unicode="e" horiz-adv-x="315" 
d="M111 293c25.333 2 45.832 7.33203 61.499 15.999s26.5 26.334 32.5 53.001l6 27c3.33301 18 3.33301 33.5 0 46.5s-12.666 19.5 -27.999 19.5c-16.667 0 -29.167 -8 -37.5 -24s-14.833 -35.333 -19.5 -58zM168.999 161.999l78.999 0.00292969l-3 -16
c-10.667 -50 -28 -88.5 -52 -115.5s-57.333 -40.5 -100 -40.5c-34 0 -58.667 8.33301 -74 25s-23 41 -23 73c0 18.667 2.66699 40.667 8 66l39 203c10.667 53.333 28 94.166 52 122.499s57.667 42.5 101 42.5c32 0 56.167 -9 72.5 -27s24.5 -42.333 24.5 -73
c0 -14 -1.33301 -27.333 -4 -40l-7 -33c-5.33301 -24 -14 -43.333 -26 -58s-26.167 -26.334 -42.5 -35.001s-34.5 -14.834 -54.5 -18.501s-40.333 -6.5 -61 -8.5l-18 -90c-1.33301 -7.33301 -2.33301 -14.5 -3 -21.5s-1 -13.5 -1 -19.5c0 -12.667 2 -22.667 6 -30
s11.667 -11 23 -11c17.333 0 30.333 7.83301 39 23.5s15.334 35.167 20.001 58.5z" />
    <glyph glyph-name="f" unicode="f" horiz-adv-x="229" 
d="M149 445l-86.999 -444.999h-80l104 536c11.333 57.333 29.833 100.666 55.5 129.999s59.5 44 101.5 44c25.333 0 44.833 -4.5 58.5 -13.5s24.5 -20.167 32.5 -33.5l-56 -45c-4 6.66699 -9 12.5 -15 17.5s-13.667 7.5 -23 7.5c-11.333 0 -20.833 -2.5 -28.5 -7.5
s-14.334 -11.667 -20.001 -20s-10.167 -17.833 -13.5 -28.5s-6 -21.667 -8 -33l-9 -42h92l-12 -67h-92z" />
    <glyph glyph-name="g" unicode="g" horiz-adv-x="325" 
d="M219 428c-1.33301 7.33301 -4.99902 13.668 -10.999 19.001s-13.667 8 -23 8c-16 0 -28.667 -7.66699 -38 -23s-16.333 -35 -21 -59l-46 -234c-1.33301 -8 -2.5 -15.5 -3.5 -22.5s-1.5 -13.5 -1.5 -19.5c0 -12 2.16699 -21.667 6.5 -29s12.166 -11 23.499 -11
c10 0 19.167 3.66699 27.5 11s15.833 16.666 22.5 27.999zM41.001 -64.998l-2 -9.99902c-4 -21.333 -3.66699 -38 1 -50s13.667 -18 27 -18c17.333 0 30 7.66699 38 23s14.333 35.333 19 60l21 105c-10 -16.667 -21.667 -30 -35 -40s-29 -15 -47 -15
c-23.333 0 -40.666 6.33301 -51.999 19s-17 33.667 -17 63c0 23.333 3.33301 50.666 10 81.999l39 204c10 52.667 26.333 93.167 49 121.5s51.667 42.5 87 42.5c21.333 0 37.166 -4.83301 47.499 -14.5s17.833 -20.834 22.5 -33.501l15 38h52l-109 -558
c-10 -53.333 -27.333 -94 -52 -122s-58 -42 -100 -42c-32 0 -56.667 7.66699 -74 23s-26 38 -26 68c0 10.667 1.66699 24.334 5 41.001l2 13h79z" />
    <glyph glyph-name="h" unicode="h" horiz-adv-x="332" 
d="M153 467c9.33301 13.333 20.999 25.834 34.999 37.501s30.667 17.5 50 17.5c22.667 0 39 -6.66699 49 -20s15 -34 15 -62c0 -10.667 -0.5 -22.334 -1.5 -35.001s-3.16699 -26.334 -6.5 -41.001l-71 -364h-73l8 75l57 298c1.33301 8 2.5 15.667 3.5 23s1.5 14 1.5 20
c0 12 -2 21.5 -6 28.5s-11.333 10.5 -22 10.5s-20.167 -4.16699 -28.5 -12.5s-15.166 -18.166 -20.499 -29.499l-81 -413h-80l138 710h71l-5 -75z" />
    <glyph glyph-name="i" unicode="i" horiz-adv-x="172" 
d="M81 512h71l-5 -75l-85 -437h-80zM150 661c12 0 21.668 -3.5 29.001 -10.5s11 -16.167 11 -27.5c0 -17.333 -5.66699 -31.166 -17 -41.499s-25 -15.5 -41 -15.5c-12 0 -21.5 3.5 -28.5 10.5s-10.5 16.167 -10.5 27.5c0 17.333 5.66699 31.166 17 41.499
s24.666 15.5 39.999 15.5z" />
    <glyph glyph-name="j" unicode="j" horiz-adv-x="174" 
d="M152 512l-5.99805 -74.999l-91 -470c-12.667 -66 -32.834 -112 -60.501 -138s-62.834 -39 -105.501 -39l14 74c22 0 38 8.66699 48 26s18 40.666 24 69.999l106 552h71zM150.002 661.001c12 0 21.667 -3.5 29 -10.5s11 -16.167 11 -27.5
c0 -17.333 -5.66699 -31.166 -17 -41.499s-25 -15.5 -41 -15.5c-12 0 -21.5 3.5 -28.5 10.5s-10.5 16.167 -10.5 27.5c0 17.333 5.5 31.166 16.5 41.499s24.5 15.5 40.5 15.5z" />
    <glyph glyph-name="k" unicode="k" horiz-adv-x="322" 
d="M212 328l28 -328h-80l-15 256l-45 -62l-38 -194h-80l138 710h71l-5 -75l-69 -351l144 228h81z" />
    <glyph glyph-name="l" unicode="l" horiz-adv-x="172" 
d="M186 635l-124 -635h-73l7 75l124 635h71z" />
    <glyph glyph-name="m" unicode="m" horiz-adv-x="490" 
d="M222 0h-80.0039l72 373l3.5 23.5c1 7 1.5 13.833 1.5 20.5c0 11.333 -2 20.5 -6 27.5s-11 10.5 -21 10.5c-10.667 0 -20.167 -4.16699 -28.5 -12.5s-15.166 -18.166 -20.499 -29.499l-81 -413h-80l99 512h69l-3 -46c9.33301 15.333 21.5 28.5 36.5 39.5
s32.167 16.5 51.5 16.5c20.667 0 36.334 -5.66699 47.001 -17s17.334 -27 20.001 -47c9.33301 16.667 21.833 31.5 37.5 44.5s33.834 19.5 54.501 19.5c44 0 66 -28.333 66 -85c0 -10.667 -0.5 -22 -1.5 -34s-3.16699 -25 -6.5 -39l-71 -364h-73l8 75l57 298
c4 16.667 6 32 6 46c0 11.333 -2 20.166 -6 26.499s-11 9.5 -21 9.5c-11.333 0 -21 -4.16699 -29 -12.5s-14.667 -17.5 -20 -27.5z" />
    <glyph glyph-name="n" unicode="n" horiz-adv-x="332" 
d="M147 466c9.33301 15.333 21.832 28.501 37.499 39.501s33.5 16.5 53.5 16.5c22.667 0 39 -6.66699 49 -20s15 -34 15 -62c0 -10.667 -0.5 -22.334 -1.5 -35.001s-3.16699 -26.334 -6.5 -41.001l-71 -364h-73l8 75l57 298c1.33301 8 2.5 15.667 3.5 23s1.5 14 1.5 20
c0 12 -2 21.5 -6 28.5s-11.333 10.5 -22 10.5s-20.167 -4.16699 -28.5 -12.5s-15.166 -18.166 -20.499 -29.499l-81 -413h-80l99 512h69z" />
    <glyph glyph-name="o" unicode="o" horiz-adv-x="319" 
d="M246 153c-10 -52.667 -27.334 -92.999 -52.001 -120.999s-58.667 -42 -102 -42c-33.333 0 -57.666 8.5 -72.999 25.5s-23 42.167 -23 75.5c0 9.33301 0.666992 19.166 2 29.499s3 21.166 5 32.499l40 206c10 52.667 27.167 93 51.5 121s57.833 42 100.5 42
c34 0 58.833 -8.66699 74.5 -26s23.5 -42.666 23.5 -75.999c0 -9.33301 -0.666992 -19 -2 -29s-3 -20.667 -5 -32zM207.999 373.001c3.33301 16.667 5 30.667 5 42c0 12 -2.16699 21.667 -6.5 29s-12.166 11 -23.499 11c-16.667 0 -29.334 -8 -38.001 -24
s-15 -35.333 -19 -58l-45 -234c-3.33301 -16.667 -5 -30.667 -5 -42c0 -12 2 -21.667 6 -29s11.667 -11 23 -11c17.333 0 30.333 8 39 24s15 35.333 19 58z" />
    <glyph glyph-name="p" unicode="p" horiz-adv-x="326" 
d="M80 512h67.999l-2 -46c8.66699 15.333 21 28.5 37 39.5s33.667 16.5 53 16.5c43.333 0 65 -28.667 65 -86c0 -10 -0.666992 -21 -2 -33s-3.33301 -25 -6 -39l-41 -210c-11.333 -57.333 -27.5 -99 -48.5 -125s-47.5 -39 -79.5 -39c-15.333 0 -27.666 3.16699 -36.999 9.5
s-17 13.833 -23 22.5l-30 -157l-23 -75h-72zM74.999 80c2 -6 6 -11.335 12 -16.002s13.667 -7 23 -7c16 0 28.833 7.66699 38.5 23s16.834 35 21.501 59l45 234c3.33301 16.667 5 30.334 5 41.001c0 12 -2.16699 21.833 -6.5 29.5s-11.833 11.5 -22.5 11.5
s-20.334 -4.16699 -29.001 -12.5s-16 -18.166 -22 -29.499z" />
    <glyph glyph-name="q" unicode="q" horiz-adv-x="326" 
d="M218 424c-1.33301 5.33301 -4.66699 10.832 -10 16.499s-13 8.5 -23 8.5c-16.667 0 -29.667 -7.66699 -39 -23s-16.666 -35.666 -21.999 -60.999l-44 -226c-3.33301 -16.667 -5 -30.667 -5 -42c0 -12 2.33301 -21.667 7 -29s12.667 -11 24 -11
c9.33301 0 18.166 3.33301 26.499 10s15.5 15.667 21.5 27zM141.999 29.999c-9.33301 -11.333 -20.332 -20.833 -32.999 -28.5s-27.334 -11.5 -44.001 -11.5c-46 0 -69 31.333 -69 94c0 10 0.5 20.833 1.5 32.5s2.83301 24.167 5.5 37.5l40 204
c10 52.667 25.333 93.167 46 121.5s49 42.5 85 42.5c19.333 0 33.5 -4.83301 42.5 -14.5s15.833 -21.5 20.5 -35.5l14 40h64l-140 -722h-73l8 75z" />
    <glyph glyph-name="r" unicode="r" horiz-adv-x="239" 
d="M81 512h69.001l-2 -46c8 13.333 19.333 26 34 38s30.667 18 48 18c9.33301 0 16.666 -1 21.999 -3s10.666 -5 15.999 -9l-34 -73c-9.33301 6 -18.666 9 -27.999 9c-12.667 0 -24.5 -4 -35.5 -12s-20.833 -17.667 -29.5 -29l-79 -405h-80z" />
    <glyph glyph-name="s" unicode="s" horiz-adv-x="291" 
d="M72 158l-1.99805 -9.99805c-4 -18 -6 -34.667 -6 -50c0 -12 2 -21.833 6 -29.5s11.333 -11.5 22 -11.5c8.66699 0 16.667 2.83301 24 8.5s13.666 13 18.999 22s9.33301 19 12 30s4 21.833 4 32.5c0 16.667 -4 32.5 -12 47.5s-22.333 30.167 -43 45.5
c-19.333 15.333 -34.5 32.5 -45.5 51.5s-16.5 41.5 -16.5 67.5c0 19.333 3.16699 38.5 9.5 57.5s15.833 36.167 28.5 51.5s28.167 27.666 46.5 36.999s39.166 14 62.499 14c63.333 0 95 -33.667 95 -101c0 -16.667 -2 -34.334 -6 -53.001l-2 -11h-78l3 18
c3.33301 15.333 5 28.666 5 39.999s-2.16699 20.833 -6.5 28.5s-12.166 11.5 -23.499 11.5c-10 0 -18.333 -2.33301 -25 -7s-12.167 -10.667 -16.5 -18s-7.5 -15.5 -9.5 -24.5s-3 -17.833 -3 -26.5c0 -17.333 5 -32.666 15 -45.999s24.667 -26.666 44 -39.999
c20.667 -15.333 35.667 -33.5 45 -54.5s14 -43.167 14 -66.5c0 -20 -3 -40.667 -9 -62s-15.333 -41 -28 -59s-28.334 -32.667 -47.001 -44s-40.667 -17 -66 -17c-32.667 0 -57 8.66699 -73 26s-24 42.666 -24 75.999c0 16 2 34.667 6 56l2 10h79z" />
    <glyph glyph-name="t" unicode="t" horiz-adv-x="237" 
d="M165 8c-11.333 -6 -22.167 -10.5 -32.5 -13.5s-22.166 -4.5 -35.499 -4.5c-33.333 0 -57.5 8.5 -72.5 25.5s-22.5 41.833 -22.5 74.5c0 20 2.33301 41.333 7 64l89 458h71l-5 -72l-6 -28h91l-13 -67h-92l-58 -298c-1.33301 -6 -2.33301 -12.167 -3 -18.5
s-1 -12.5 -1 -18.5c0 -13.333 2.5 -24.5 7.5 -33.5s14.5 -13.5 28.5 -13.5c13.333 0 26.666 3.66699 39.999 11z" />
    <glyph glyph-name="u" unicode="u" horiz-adv-x="333" 
d="M78 512l79 -0.000976562l-72 -373c-1.33301 -8 -2.5 -15.833 -3.5 -23.5s-1.5 -14.5 -1.5 -20.5c0 -12 2 -21.333 6 -28s11.667 -10 23 -10c9.33301 0 18.166 3.66699 26.499 11s15.5 16 21.5 26l82 418h80l-81 -414c-2 -11.333 -1.83301 -20 0.5 -26
s9.16602 -9 20.499 -9l-14 -73c-29.333 0 -49.666 5 -60.999 15s-18.666 26 -21.999 48c-11.333 -19.333 -24.333 -34.666 -39 -45.999s-32.667 -17 -54 -17c-47.333 0 -71 29.667 -71 89c0 9.33301 0.666992 19 2 29s3 20.667 5 32z" />
    <glyph glyph-name="v" unicode="v" horiz-adv-x="304" 
d="M131 0h-88l11 512h80l-31 -423h3l134 423h80z" />
    <glyph glyph-name="w" unicode="w" horiz-adv-x="466" 
d="M235 512h65l-17 -364h3l115 364h80l-175 -512h-78l10 349h-5l-126 -349h-78l25 512h80l-29 -364h3z" />
    <glyph glyph-name="x" unicode="x" horiz-adv-x="292" 
d="M130 512l15 -180h3l83 180h80l-138 -256l37 -256h-80l-18 179h-4l-77 -179h-79l133 270l-35 242h80z" />
    <glyph glyph-name="y" unicode="y" horiz-adv-x="298" 
d="M56 512l80.002 -0.000976562l-25 -377h3l122 377h79l-212 -565c-8 -22.667 -18 -43.5 -30 -62.5s-25.833 -35.5 -41.5 -49.5s-33.334 -25 -53.001 -33s-41.5 -12 -65.5 -12l14 74c18 0 37.167 7.33301 57.5 22s36.166 37.334 47.499 68.001l13 36z" />
    <glyph glyph-name="z" unicode="z" horiz-adv-x="248" 
d="M48 439l13 73h199l-16 -82l-200 -357h126l-14 -73h-199l15 81l201 358h-125z" />
    <glyph glyph-name="braceleft" unicode="{" horiz-adv-x="291" 
d="M75 251c4 20 2.83398 33.333 -3.49902 40s-19.5 10 -39.5 10h-11l15 74h11c20 0 34.333 3.33301 43 10s15 20 19 40l34 177c12 62.667 35 109.167 69 139.5s77.333 45.5 130 45.5h16l-13 -74h-16c-27.333 0 -50 -10 -68 -30s-31.333 -52 -40 -96l-34 -175
c-4 -21.333 -11.833 -38.333 -23.5 -51s-25.834 -19 -42.501 -19h-11l-1 -8h11c16.667 0 28.167 -6.66699 34.5 -20s7.5 -30 3.5 -50l-36 -186c-4 -20 -6 -37 -6 -51c0 -23.333 5.5 -39.666 16.5 -48.999s27.833 -14 50.5 -14h16l-15 -74h-16
c-89.333 0 -134 40.667 -134 122c0 8 0.333008 16.167 1 24.5s2 17.166 4 26.499z" />
    <glyph glyph-name="bar" unicode="|" horiz-adv-x="244" 
d="M-4 -110l174 897h80l-174 -897h-80z" />
    <glyph glyph-name="braceright" unicode="}" horiz-adv-x="291" 
d="M218 430c-4 -20 -2.83398 -33.335 3.49902 -40.002s19.5 -10 39.5 -10h11l-14 -74h-11c-20 0 -34.5 -3.33301 -43.5 -10s-15.5 -20 -19.5 -40l-35 -181c-12 -62.667 -35 -109.167 -69 -139.5s-77.333 -45.5 -130 -45.5h-16l14 74h16c26 0 48.333 10 67 30
s32.334 52 41.001 96l35 179c4 21.333 11.667 38.333 23 51s25.333 19 42 19h11l2 8h-11c-16.667 0 -28.167 6.66699 -34.5 20s-7.83301 30 -4.5 50l36 182c4 20 6 36.667 6 50c0 24 -5.66699 40.667 -17 50s-28 14 -50 14h-16l14 74h16c44 0 77.5 -10.5 100.5 -31.5
s34.5 -51.5 34.5 -91.5c0 -7.33301 -0.333008 -15.166 -1 -23.499s-2 -17.166 -4 -26.499z" />
    <glyph glyph-name="asciitilde" unicode="~" horiz-adv-x="322" 
d="M309 375c-9.33301 -45.333 -22.502 -77.665 -39.502 -96.998s-37.167 -29 -60.5 -29c-11.333 0 -21.166 1.83301 -29.499 5.5s-16.166 8.16699 -23.499 13.5l-22 18c-7.33301 6 -15.666 9 -24.999 9c-18 0 -30 -15.333 -36 -46h-68
c9.33301 45.333 23.666 77.666 42.999 96.999s39.333 29 60 29c10.667 0 19.667 -1.83301 27 -5.5s15 -8.5 23 -14.5l21.5 -18c7.66699 -6.66699 16.167 -10 25.5 -10c8.66699 0 16 3.66699 22 11s10.667 19.666 14 36.999h68z" />
    <glyph glyph-name="uni00A0" unicode="&#xa0;" horiz-adv-x="126" 
 />
    <glyph glyph-name="exclamdown" unicode="&#xa1;" horiz-adv-x="226" 
d="M-25 -160l99 510h74l-7 -77l-85 -433h-81zM191 480c0 -17.333 -6 -31.666 -18 -42.999s-26.667 -17 -44 -17c-12.667 0 -22.834 4 -30.501 12s-11.5 18 -11.5 30c0 17.333 6.16699 31.666 18.5 42.999s26.833 17 43.5 17c12.667 0 22.834 -4 30.501 -12
s11.5 -18 11.5 -30z" />
    <glyph glyph-name="cent" unicode="&#xa2;" horiz-adv-x="305" 
d="M36 -67l13.001 64.999c-37.333 10.667 -56 41.334 -56 92.001c0 19.333 2.33301 40.333 7 63l40 204c8.66699 43.333 21.5 78.333 38.5 105s40.5 44 70.5 52l13 65h80l-12 -63c38 -12 57 -43.667 57 -95c0 -17.333 -2 -37 -6 -59l-8 -38h-77l4 19
c3.33301 14.667 5.83301 28 7.5 40s2.5 22.667 2.5 32c0 26.667 -9.66699 40 -29 40c-16.667 0 -29.334 -7.83301 -38.001 -23.5s-15.667 -35.167 -21 -58.5l-45 -234c-3.33301 -16.667 -5 -30.667 -5 -42c0 -12 2.16699 -21.667 6.5 -29s12.166 -11 23.499 -11
c18.667 0 32.334 10.333 41.001 31s16.334 47.667 23.001 81l4 19h77l-8 -38c-8.66699 -43.333 -21.834 -78 -39.501 -104s-41.5 -42.667 -71.5 -50l-12 -63h-80z" />
    <glyph glyph-name="sterling" unicode="&#xa3;" horiz-adv-x="362" 
d="M29 310l41.001 0.000976562l38 199c10.667 54 29.167 95.167 55.5 123.5s61.166 42.5 104.499 42.5c68.667 0 103 -37 103 -111c0 -10 -0.666992 -20.5 -2 -31.5s-3.33301 -22.833 -6 -35.5l-3 -16h-80l7 36c1.33301 6.66699 2.33301 13.167 3 19.5s1 12.166 1 17.499
c0 14 -2.66699 25.5 -8 34.5s-14.666 13.5 -27.999 13.5c-18 0 -32.333 -8.83301 -43 -26.5s-18.334 -37.5 -23.001 -59.5l-40 -206h115l-14 -73h-115l-32 -164h178l-14 -73h-298l14 73h40l32 164h-40z" />
    <glyph glyph-name="currency" unicode="&#xa4;" horiz-adv-x="338" 
d="M283 295c-6.66699 -35.333 -14.334 -63 -23.001 -83s-20.334 -37.333 -35.001 -52l22 -96h-72l-14 61c-9.33301 -3.33301 -20.666 -5 -33.999 -5c-11.333 0 -22 1.66699 -32 5l-37 -61h-72l58 96c-4.66699 8 -8.16699 16.5 -10.5 25.5s-3.5 19.167 -3.5 30.5
c0 14.667 2 33 6 55l9 42c6 32 12.833 58 20.5 78s18.834 37.667 33.501 53l-20 96h71l14 -62c10 4 21.333 6 34 6c12 0 22.667 -2 32 -6l38 62h72l-59 -96c4.66699 -8 8.16699 -16.667 10.5 -26s3.5 -20.333 3.5 -33c0 -18.667 -2.33301 -39.667 -7 -63zM206 313
c2.66699 13.333 4.83301 25.3311 6.5 35.998s2.5 20.334 2.5 29.001c0 12.667 -2.16699 22.334 -6.5 29.001s-12.166 10 -23.499 10c-18 0 -31.167 -9.33301 -39.5 -28s-15.5 -44 -21.5 -76l-5 -23c-5.33301 -25.333 -8 -46.333 -8 -63c0 -12.667 2 -22.5 6 -29.5
s11.667 -10.5 23 -10.5c17.333 0 30.166 7.66699 38.499 23s14.833 35 19.5 59z" />
    <glyph glyph-name="yen" unicode="&#xa5;" horiz-adv-x="367" 
d="M53 335h81l-40 330h83l13 -290h3l126 290h82l-170 -330h82l-11 -55h-90l-10 -51h91l-11 -55h-90l-34 -174h-80l34 174h-90l11 55h89l10 51h-90z" />
    <glyph glyph-name="brokenbar" unicode="&#xa6;" horiz-adv-x="244" 
d="M175 399h-80l75 388h80zM152 278l-76 -388h-80l76 388h80z" />
    <glyph glyph-name="section" unicode="&#xa7;" horiz-adv-x="313" 
d="M137 414c-8 -4.66699 -15.001 -11.832 -21.001 -21.499s-9 -21.167 -9 -34.5c0 -25.333 17.667 -52.333 53 -81l15 -14c8.66699 7.33301 15.834 15.666 21.501 24.999s8.5 20.333 8.5 33c0 26.667 -18 54 -54 82zM95.999 461.002c-14 18 -21 41.333 -21 70
c0 18.667 2.83301 37.334 8.5 56.001s14.5 35.334 26.5 50.001s27 26.667 45 36s39.333 14 64 14c34 0 59.5 -9 76.5 -27s25.5 -44 25.5 -78c0 -16.667 -2 -34.334 -6 -53.001l-2 -10h-79l2 10c1.33301 8 2.5 15.833 3.5 23.5s1.5 15.167 1.5 22.5
c0 13.333 -2.16699 24.166 -6.5 32.499s-12.166 12.5 -23.499 12.5c-10.667 0 -19.667 -2.66699 -27 -8s-13.166 -12.166 -17.499 -20.499s-7.5 -17.166 -9.5 -26.499s-3 -18 -3 -26c0 -18 5.16699 -33 15.5 -45s27.166 -27.667 50.499 -47
c19.333 -15.333 33.5 -32 42.5 -50s13.5 -37.667 13.5 -59c0 -29.333 -6.16699 -53.333 -18.5 -72s-25.833 -35.334 -40.5 -50.001c7.33301 -12 12.5 -23.833 15.5 -35.5s4.5 -23.5 4.5 -35.5c0 -20.667 -3.33301 -40.334 -10 -59.001s-16.167 -35.167 -28.5 -49.5
s-27.5 -25.666 -45.5 -33.999s-38 -12.5 -60 -12.5c-66.667 0 -100 34.333 -100 103c0 16.667 2 35 6 55l2 10h80l-2 -10c-4 -18 -6 -34.667 -6 -50c0 -12 2 -21.833 6 -29.5s11.667 -11.5 23 -11.5c10 0 18.5 2.33301 25.5 7s13 10.834 18 18.501s8.66699 16.167 11 25.5
s3.5 18.666 3.5 27.999c0 16.667 -5 31.334 -15 44.001s-26.667 29 -50 49c-18.667 15.333 -32.834 32.166 -42.501 50.499s-14.5 39.166 -14.5 62.499c0 26.667 5.16699 49.167 15.5 67.5s24.5 35.5 42.5 51.5z" />
    <glyph glyph-name="dieresis" unicode="&#xa8;" horiz-adv-x="344" 
d="M174 667c12 0 21.668 -3.5 29.001 -10.5s11 -16.167 11 -27.5c0 -17.333 -5.66699 -31.166 -17 -41.499s-25 -15.5 -41 -15.5c-12 0 -21.5 3.5 -28.5 10.5s-10.5 16.167 -10.5 27.5c0 17.333 5.66699 31.166 17 41.499s24.666 15.5 39.999 15.5zM299.001 667
c12 0 21.668 -3.5 29.001 -10.5s11 -16.167 11 -27.5c0 -17.333 -5.66699 -31.166 -17 -41.499s-25 -15.5 -41 -15.5c-12 0 -21.5 3.5 -28.5 10.5s-10.5 16.167 -10.5 27.5c0 17.333 5.66699 31.166 17 41.499s24.666 15.5 39.999 15.5z" />
    <glyph glyph-name="copyright" unicode="&#xa9;" horiz-adv-x="574" 
d="M507 219c-8 -40 -19.335 -75.666 -34.002 -106.999s-33.667 -58 -57 -80s-51.166 -38.667 -83.499 -50s-69.5 -17 -111.5 -17c-69.333 0 -121.166 16.167 -155.499 48.5s-51.5 77.833 -51.5 136.5c0 23.333 2.33301 46.666 7 69.999l43 217
c6.66699 34.667 17.334 68 32.001 100s33.667 60 57 84s51.666 43.167 84.999 57.5s72 21.5 116 21.5c36 0 66.833 -5.16699 92.5 -15.5s46.667 -24.333 63 -42s28.333 -38.334 36 -62.001s11.5 -48.834 11.5 -75.501c0 -11.333 -0.5 -22.666 -1.5 -33.999
s-2.83301 -22.666 -5.5 -33.999zM480.998 435.001c4 18.667 5.99902 37.666 5.99902 56.999c0 20 -2.5 38.833 -7.5 56.5s-13 33.167 -24 46.5s-25.5 23.833 -43.5 31.5s-40 11.5 -66 11.5c-32.667 0 -61.167 -5.66699 -85.5 -17s-45.166 -26.333 -62.499 -45
s-31.5 -40 -42.5 -64s-18.833 -48.667 -23.5 -74l-42 -214c-4 -21.333 -6 -41.666 -6 -60.999c0 -40.667 11 -73.5 33 -98.5s58.667 -37.5 110 -37.5c32 0 60 5 84 15s44.667 23.833 62 41.5s31.5 38.5 42.5 62.5s19.167 50 24.5 78zM338.997 388l8.00098 37.0029
c2.66699 12.667 4 25 4 37c0 12.667 -2.16699 22.667 -6.5 30s-12.166 11 -23.499 11c-16.667 0 -29.5 -7.83301 -38.5 -23.5s-15.5 -34.167 -19.5 -55.5l-35 -182c-3.33301 -16.667 -5 -30.334 -5 -41.001c0 -12 2.16699 -21.667 6.5 -29s12.166 -11 23.499 -11
c16.667 0 29.167 7.33301 37.5 22s15.166 33.667 20.499 57l7 37h68l-5 -27c-9.33301 -48 -24.833 -85.167 -46.5 -111.5s-52.5 -39.5 -92.5 -39.5c-31.333 0 -53.833 8 -67.5 24s-20.5 39 -20.5 69c0 9.33301 0.666992 19.166 2 29.499s3 21.166 5 32.499l30 157
c9.33301 50 25 88.333 47 115s53 40 93 40c32 0 54.667 -7.83301 68 -23.5s20 -38.5 20 -68.5c0 -17.333 -2 -37 -6 -59l-5 -27h-69z" />
    <glyph glyph-name="ordfeminine" unicode="&#xaa;" horiz-adv-x="212" 
d="M97 440c-5.33301 -27.333 -0.999023 -41.001 13.001 -41.001c6 0 11.333 1.83301 16 5.5s8.66699 8.16699 12 13.5l38 198c-2 4.66699 -4.5 8.33398 -7.5 11.001s-7.16699 4 -12.5 4c-14.667 0 -24.334 -12.667 -29.001 -38zM70.001 585.999
c6 30.667 16.1699 53.167 30.5029 67.5s31.833 21.5 52.5 21.5c11.333 0 20.166 -2.33301 26.499 -7s11.166 -10 14.499 -16l12 23h38l-48 -251c-2.66699 -13.333 1.66602 -20.333 12.999 -21l-9 -48c-19.333 0 -33 2.83301 -41 8.5s-13.333 15.5 -16 29.5
c-8 -12 -16.5 -21.333 -25.5 -28s-20.167 -10 -33.5 -10c-14 0 -25.167 4.5 -33.5 13.5s-12.5 22.833 -12.5 41.5c0 8 1 17.667 3 29z" />
    <glyph glyph-name="guillemotleft" unicode="&#xab;" horiz-adv-x="396" 
d="M184 475l42 -56l-129 -126l80 -127l-64 -55l-92 145l14 74zM343 475l42 -56l-129 -126l80 -127l-64 -55l-92 145l14 74z" />
    <glyph glyph-name="logicalnot" unicode="&#xac;" horiz-adv-x="322" 
d="M41 368h254l-31 -160h-73l16 86h-180z" />
    <glyph glyph-name="uni00AD" unicode="&#xad;" horiz-adv-x="234" 
 />
    <glyph glyph-name="registered" unicode="&#xae;" horiz-adv-x="459" 
d="M432 386c-13.333 -67.333 -38.332 -119.668 -74.999 -157.001s-89 -56 -157 -56c-55.333 0 -95.666 13.833 -120.999 41.5s-38 64.167 -38 109.5c0 19.333 2 40 6 62l21 104c12.667 66 37.667 117.833 75 155.5s89.666 56.5 156.999 56.5
c55.333 0 95.666 -13.667 120.999 -41s38 -63.666 38 -108.999c0 -19.333 -2 -40 -6 -62zM388.001 487.998c4.66699 22.667 6.99902 43.333 6.99902 62c0 34.667 -8.5 59.167 -25.5 73.5s-43.167 21.5 -78.5 21.5c-44 0 -78.833 -11.667 -104.5 -35s-44.167 -64 -55.5 -122
l-19 -100c-2.66699 -12 -4.5 -23.333 -5.5 -34s-1.5 -20.667 -1.5 -30c0 -34.667 8.5 -59 25.5 -73s43.167 -21 78.5 -21c44 0 78.833 12 104.5 36s43.834 64.667 54.501 122zM332 497.997c-4.66699 -30.667 -17.667 -51.667 -39 -63l10 -139h-51l-4 130h-17l-25 -130h-50
l57 291h66c22 0 38 -7 48 -21s12.667 -32.667 8 -56zM286 509.997c4 22 -1.66699 33 -17 33h-15l-16 -83h15c15.333 0 25.333 10.667 30 32z" />
    <glyph glyph-name="macron" unicode="&#xaf;" horiz-adv-x="350" 
d="M147 654h179l-13 -68h-179z" />
    <glyph glyph-name="degree" unicode="&#xb0;" horiz-adv-x="241" 
d="M134 620c0 -10.667 2.99902 -19.1689 8.99902 -25.502s14.667 -9.5 26 -9.5c15.333 0 28 4.83301 38 14.5s15 21.834 15 36.501c0 10.667 -3.16699 19.167 -9.5 25.5s-15.166 9.5 -26.499 9.5c-14 0 -26.167 -4.66699 -36.5 -14s-15.5 -21.666 -15.5 -36.999z
M74.999 611.998c0 16 3.16699 30.999 9.5 44.999s15 26.333 26 37s24 19 39 25s31.167 9 48.5 9c25.333 0 45.333 -8 60 -24s22 -36 22 -60c0 -16.667 -3.16699 -32.167 -9.5 -46.5s-15 -26.666 -26 -36.999s-24 -18.5 -39 -24.5s-30.833 -9 -47.5 -9
c-26.667 0 -47.167 8.33301 -61.5 25s-21.5 36.667 -21.5 60z" />
    <glyph glyph-name="plusminus" unicode="&#xb1;" horiz-adv-x="322" 
d="M41 368h90l11 60h74l-11 -60h90l-15 -74h-90l-11 -60h-74l11 60h-90zM9 206h254l-14 -74h-254z" />
    <glyph glyph-name="twosuperior" unicode="&#xb2;" horiz-adv-x="252" 
d="M71 557l2.00293 13c5.33301 31.333 17.666 56.666 36.999 75.999s47 29 83 29c35.333 0 58.666 -8.83301 69.999 -26.5s14.666 -40.5 9.99902 -68.5l-3 -12c-3.33301 -18.667 -12.333 -39 -27 -61s-34.334 -47 -59.001 -75l-83 -101h122l-11 -61h-192l14 68l74 92
c29.333 33.333 51.333 59.833 66 79.5s23.667 37.834 27 54.501l2 8c4.66699 28 -2.66602 42 -21.999 42c-12 0 -21 -4 -27 -12s-10.667 -19 -14 -33l-2 -12h-67z" />
    <glyph glyph-name="threesuperior" unicode="&#xb3;" horiz-adv-x="252" 
d="M201 571c2.66699 13.333 2.5 23.834 -0.5 31.501s-10.167 11.5 -21.5 11.5s-20 -4.33301 -26 -13s-10.667 -19.667 -14 -33l-1 -7h-68l2 9c6 32 18.833 57.5 38.5 76.5s46.167 28.5 79.5 28.5s56.5 -9 69.5 -27s16.833 -39.667 11.5 -65l-4 -21
c-4 -20 -11.167 -36.5 -21.5 -49.5s-22.166 -22.5 -35.499 -28.5v-3c11.333 -6 19.333 -16.167 24 -30.5s5 -31.5 1 -51.5l-5 -29c-6.66699 -32.667 -20 -58.5 -40 -77.5s-46.333 -28.5 -79 -28.5c-27.333 0 -47.833 6.5 -61.5 19.5s-20.5 31.167 -20.5 54.5
c0 9.33301 1 19 3 29l3 16h68l-2 -10c-2.66699 -14 -2.83398 -25.5 -0.500977 -34.5s9.5 -13.5 21.5 -13.5c11.333 0 20.166 4.5 26.499 13.5s10.833 20.167 13.5 33.5l6 28c2.66699 14 2 25.667 -2 35s-12.667 14 -26 14h-30l11 58h24c15.333 0 27.333 5.16699 36 15.5
s14.334 22.166 17.001 35.499z" />
    <glyph glyph-name="acute" unicode="&#xb4;" horiz-adv-x="350" 
d="M320 687l-84 -137h-65l67 137h82z" />
    <glyph glyph-name="mu" unicode="&#xb5;" horiz-adv-x="329" 
d="M155 512l-75.001 -387c-2 -10 -3 -20 -3 -30c0 -10.667 1.83301 -19.667 5.5 -27s11.167 -11 22.5 -11c10.667 0 20.167 3.66699 28.5 11s15.5 16 21.5 26l81 418h80l-80 -414c-2 -11.333 -1.83301 -20 0.5 -26s9.16602 -9 20.499 -9l-14 -73
c-21.333 0 -36.833 4 -46.5 12s-15.167 21 -16.5 39c-8.66699 -16 -19.5 -28.5 -32.5 -37.5s-27.5 -13.5 -43.5 -13.5c-11.333 0 -20.666 2.5 -27.999 7.5s-12.666 11.167 -15.999 18.5l-29 -151l-23 -75h-72l141 722h78z" />
    <glyph glyph-name="paragraph" unicode="&#xb6;" horiz-adv-x="362" 
d="M170 0l130 665h80l-130 -665h-80zM127 0l-20 -0.000976562l70 357h-27c-27.333 0 -46.833 7.33301 -58.5 22s-17.5 36.334 -17.5 65.001c0 9.33301 0.666992 19.333 2 30s3 22 5 34l1 6c8.66699 49.333 23.167 86.833 43.5 112.5s48.5 38.5 84.5 38.5h47z" />
    <glyph glyph-name="periodcentered" unicode="&#xb7;" horiz-adv-x="247" 
d="M74 342c0 17.333 6.16797 31.666 18.501 42.999s27.166 17 44.499 17c12.667 0 22.667 -3.83301 30 -11.5s11 -17.834 11 -30.501c0 -17.333 -5.83301 -31.666 -17.5 -42.999s-26.167 -17 -43.5 -17c-13.333 0 -23.833 3.83301 -31.5 11.5s-11.5 17.834 -11.5 30.501z
" />
    <glyph glyph-name="cedilla" unicode="&#xb8;" horiz-adv-x="350" 
d="M82 0h44l-7 -39h6c17.333 0 31.333 -4.5 42 -13.5s16 -24.167 16 -45.5c0 -34.667 -9.33301 -61.667 -28 -81s-43 -29 -73 -29c-24.667 0 -41.667 6.83301 -51 20.5s-13 34.834 -11 63.501v2h50v-2c-2 -24 5 -36 21 -36c12 0 21.167 4.66699 27.5 14
s9.5 21.666 9.5 36.999c0 10.667 -2.83301 18 -8.5 22s-14.167 6 -25.5 6h-28z" />
    <glyph glyph-name="onesuperior" unicode="&#xb9;" horiz-adv-x="252" 
d="M115 270l64 324l-78 -50l-30 52l112 73h78l-78 -399h-68z" />
    <glyph glyph-name="ordmasculine" unicode="&#xba;" horiz-adv-x="200" 
d="M202 453c-6 -32 -16.5 -56.334 -31.5 -73.001s-36.5 -25 -64.5 -25c-43.333 0 -65 21 -65 63c0 12.667 1.33301 24.667 4 36l23 122c6.66699 32.667 17.5 57.334 32.5 74.001s36.5 25 64.5 25c43.333 0 65 -21.333 65 -64c0 -12 -1.33301 -23.667 -4 -35zM170 584.999
c3.33301 13.333 4.33203 24.333 2.99902 33s-6.66602 13 -15.999 13s-16 -4.33301 -20 -13s-7.66699 -19.667 -11 -33l-26 -139c-2.66699 -13.333 -3.66699 -24.5 -3 -33.5s5.66699 -13.5 15 -13.5s16.333 4.33301 21 13s8 19.667 10 33z" />
    <glyph glyph-name="guillemotright" unicode="&#xbb;" horiz-adv-x="396" 
d="M37 110l-43 56l130 127l-81 126l64 55l92 -144l-14 -74zM196 110l-43 56l130 127l-81 126l64 55l92 -144l-14 -74z" />
    <glyph glyph-name="onequarter" unicode="&#xbc;" horiz-adv-x="644" 
d="M115 270l64 324l-78 -50l-30 52l112 73h78l-78 -399h-68zM168 0h-68l407 665h68zM501 74h-136l14 75l150 250h68l-158 -264h74l13 69h62l-40 -204h-62z" />
    <glyph glyph-name="onehalf" unicode="&#xbd;" horiz-adv-x="644" 
d="M115 270l64 324l-78 -50l-30 52l112 73h78l-78 -399h-68zM149 0h-68l407 665h68zM411 287l2.00293 13c5.33301 31.333 17.666 56.666 36.999 75.999s47 29 83 29c35.333 0 58.666 -8.83301 69.999 -26.5s14.666 -40.5 9.99902 -68.5l-3 -12
c-3.33301 -18.667 -12.333 -39 -27 -61s-34.334 -47 -59.001 -75l-83 -101h122l-11 -61h-192l14 68l74 92c29.333 33.333 51.333 59.833 66 79.5s23.667 37.834 27 54.501l2 8c4.66699 28 -2.66602 42 -21.999 42c-12 0 -21 -4 -27 -12s-10.667 -19 -14 -33l-2 -12h-67z" />
    <glyph glyph-name="threequarters" unicode="&#xbe;" horiz-adv-x="644" 
d="M201 571c2.66699 13.333 2.5 23.834 -0.5 31.501s-10.167 11.5 -21.5 11.5s-20 -4.33301 -26 -13s-10.667 -19.667 -14 -33l-1 -7h-68l2 9c6 32 18.833 57.5 38.5 76.5s46.167 28.5 79.5 28.5s56.5 -9 69.5 -27s16.833 -39.667 11.5 -65l-4 -21
c-4 -20 -11.167 -36.5 -21.5 -49.5s-22.166 -22.5 -35.499 -28.5v-3c11.333 -6 19.333 -16.167 24 -30.5s5 -31.5 1 -51.5l-5 -29c-6.66699 -32.667 -20 -58.5 -40 -77.5s-46.333 -28.5 -79 -28.5c-27.333 0 -47.833 6.5 -61.5 19.5s-20.5 31.167 -20.5 54.5
c0 9.33301 1 19 3 29l3 16h68l-2 -10c-2.66699 -14 -2.83398 -25.5 -0.500977 -34.5s9.5 -13.5 21.5 -13.5c11.333 0 20.166 4.5 26.499 13.5s10.833 20.167 13.5 33.5l6 28c2.66699 14 2 25.667 -2 35s-12.667 14 -26 14h-30l11 58h24c15.333 0 27.333 5.16699 36 15.5
s14.334 22.166 17.001 35.499zM165 0.000976562h-68l407 665h68zM501 74.001h-136l14 75l150 250h68l-158 -264h74l13 69h62l-40 -204h-62z" />
    <glyph glyph-name="questiondown" unicode="&#xbf;" horiz-adv-x="325" 
d="M226 23l-9.99512 -50c-8.66699 -43.333 -26.167 -78 -52.5 -104s-60.5 -39 -102.5 -39c-34 0 -58.667 8.33301 -74 25s-23 39 -23 67c0 10.667 1 22 3 34l11 60c2.66699 15.333 6 29 10 41s9.33301 23.667 16 35s15.167 22.5 25.5 33.5s23.166 23.167 38.499 36.5
c12 10 21.667 19.833 29 29.5s13.333 20 18 31s8.5 23.333 11.5 37s6.16699 30.167 9.5 49.5l8 41h80l-9 -47c-4.66699 -23.333 -9 -43.333 -13 -60s-9.33301 -31.667 -16 -45s-14.834 -26 -24.501 -38s-22.167 -24.333 -37.5 -37c-12.667 -10 -22.834 -19.667 -30.501 -29
s-13.834 -18.5 -18.501 -27.5s-8.33398 -18.167 -11.001 -27.5s-5 -19 -7 -29l-10 -48c-3.33301 -16.667 -2.33301 -30.5 3 -41.5s14.666 -16.5 27.999 -16.5s25.333 6 36 18s18.334 30.333 23.001 55l9 46h80zM258.005 480c0 -17.333 -6.16895 -31.666 -18.502 -42.999
s-26.833 -17 -43.5 -17c-13.333 0 -23.666 4 -30.999 12s-11 18 -11 30c0 17.333 6 31.666 18 42.999s26.667 17 44 17c12.667 0 22.834 -4 30.501 -12s11.5 -18 11.5 -30z" />
    <glyph glyph-name="Agrave" unicode="&#xc0;" horiz-adv-x="345" 
d="M-50 0l240 665h95l-20 -665h-83l6 142h-111l-48 -142h-79zM101 216h94l16 319h-4zM289 842l15 -137h-66l-31 137h82z" />
    <glyph glyph-name="Aacute" unicode="&#xc1;" horiz-adv-x="345" 
d="M-50 0l240 665h95l-20 -665h-83l6 142h-111l-48 -142h-79zM101 216h94l16 319h-4zM348 842l-84 -137h-65l67 137h82z" />
    <glyph glyph-name="Acircumflex" unicode="&#xc2;" horiz-adv-x="345" 
d="M-50 0l240 665h95l-20 -665h-83l6 142h-111l-48 -142h-79zM101 216h94l16 319h-4zM305 842l35 -137h-63l-16 84l-48 -84h-63l88 137h67z" />
    <glyph glyph-name="Atilde" unicode="&#xc3;" horiz-adv-x="345" 
d="M-50 0l240 665h95l-20 -665h-83l6 142h-111l-48 -142h-79zM101 216h94l16 319h-4zM136 722c2.66699 18.667 6.82812 34.501 12.4951 47.501s12.334 23.5 20.001 31.5s15.834 13.667 24.501 17s17.334 5 26.001 5c10.667 0 19.834 -2 27.501 -6
s14.167 -8.16699 19.5 -12.5l15 -12.5c4.66699 -4 10 -6 16 -6c5.33301 0 10.166 2.33301 14.499 7s7.16602 13.667 8.49902 27l1 5h60l-1 -5c-7.33301 -38 -18.666 -64.667 -33.999 -80s-31.333 -23 -48 -23c-10 0 -18.667 2.16699 -26 6.5s-13.833 9 -19.5 14l-16 14
c-5 4.33301 -10.167 6.5 -15.5 6.5s-10.666 -2.33301 -15.999 -7s-8.66602 -14.334 -9.99902 -29.001v-5h-60z" />
    <glyph glyph-name="Adieresis" unicode="&#xc4;" horiz-adv-x="345" 
d="M-50 0l240 665h95l-20 -665h-83l6 142h-111l-48 -142h-79zM101 216h94l16 319h-4zM205 822c12 0 21.668 -3.5 29.001 -10.5s11 -16.167 11 -27.5c0 -17.333 -5.66699 -31.166 -17 -41.499s-25 -15.5 -41 -15.5c-12 0 -21.5 3.5 -28.5 10.5s-10.5 16.167 -10.5 27.5
c0 17.333 5.66699 31.166 17 41.499s24.666 15.5 39.999 15.5zM330.001 822c12 0 21.668 -3.5 29.001 -10.5s11 -16.167 11 -27.5c0 -17.333 -5.66699 -31.166 -17 -41.499s-25 -15.5 -41 -15.5c-12 0 -21.5 3.5 -28.5 10.5s-10.5 16.167 -10.5 27.5
c0 17.333 5.66699 31.166 17 41.499s24.666 15.5 39.999 15.5z" />
    <glyph glyph-name="Aring" unicode="&#xc5;" horiz-adv-x="345" 
d="M-50 0l240 665h95l-20 -665h-83l6 142h-111l-48 -142h-79zM101 216h94l16 319h-4zM225 774c0 -8 2.33398 -14.832 7.00098 -20.499s11.667 -8.5 21 -8.5c11.333 0 20.833 4.16699 28.5 12.5s11.5 18.166 11.5 29.499c0 8 -2.33301 14.667 -7 20s-11.334 8 -20.001 8
c-11.333 0 -21 -4 -29 -12s-12 -17.667 -12 -29zM177.001 768.001c0 12.667 2.83398 24.832 8.50098 36.499s13 21.667 22 30s19.5 15 31.5 20s24 7.5 36 7.5c20 0 36.167 -6.66699 48.5 -20s18.5 -29.666 18.5 -48.999c0 -12.667 -2.83301 -24.667 -8.5 -36
s-13 -21.333 -22 -30s-19.333 -15.667 -31 -21s-23.834 -8 -36.501 -8c-20 0 -36.167 6.83301 -48.5 20.5s-18.5 30.167 -18.5 49.5z" />
    <glyph glyph-name="AE" unicode="&#xc6;" horiz-adv-x="496" 
d="M213 146h-111l-76 -146h-80l346 665h246l-15 -76h-143l-38 -196h118l-15 -73h-118l-48 -247h143l-13 -73h-224zM228 219l57 294h-3l-147 -294h93z" />
    <glyph glyph-name="Ccedilla" unicode="&#xc7;" horiz-adv-x="326" 
d="M246 481l5.99609 35.001c1.33301 7.33301 2.33301 14.166 3 20.499s1 12.5 1 18.5c0 14 -2.66699 25.333 -8 34s-14.666 13 -27.999 13c-18 0 -32.167 -7.66699 -42.5 -23s-18.166 -36.333 -23.499 -63l-71 -365c-2.66699 -12.667 -4 -25.667 -4 -39
c0 -14 2.66699 -25.5 8 -34.5s14.666 -13.5 27.999 -13.5c18.667 0 33.334 8.5 44.001 25.5s18 36.5 22 58.5l7 36h80l-6 -31c-9.33301 -48 -25.666 -85.833 -48.999 -113.5s-54 -43.834 -92 -48.501l-5 -30h6c17.333 0 31.5 -4.5 42.5 -13.5s16.5 -24.167 16.5 -45.5
c0 -34.667 -9.33301 -61.667 -28 -81s-43.334 -29 -74.001 -29c-24.667 0 -41.5 6.83301 -50.5 20.5s-12.833 34.834 -11.5 63.501v2h50v-2c-0.666992 -11.333 0.5 -20.166 3.5 -26.499s9.16699 -9.5 18.5 -9.5c11.333 0 20.333 4.66699 27 14s10 21.666 10 36.999
c0 10.667 -2.83301 18 -8.5 22s-14.5 6 -26.5 6h-28l14 73c-52 8 -78 43.333 -78 106c0 17.333 2 37 6 59l68 352c10.667 54 29.334 95.167 56.001 123.5s61.334 42.5 104.001 42.5c35.333 0 61.333 -9.83301 78 -29.5s25 -47.5 25 -83.5c0 -8 -0.5 -16.333 -1.5 -25
s-2.16699 -17.667 -3.5 -27l-5 -29h-80z" />
    <glyph glyph-name="Egrave" unicode="&#xc8;" horiz-adv-x="293" 
d="M320 589h-143l-38 -196h118l-15 -73h-118l-48 -247h143l-13 -73h-224l129 665h224zM271 842l15 -137h-66l-31 137h82z" />
    <glyph glyph-name="Eacute" unicode="&#xc9;" horiz-adv-x="293" 
d="M320 589h-143l-38 -196h118l-15 -73h-118l-48 -247h143l-13 -73h-224l129 665h224zM330 842l-84 -137h-65l67 137h82z" />
    <glyph glyph-name="Ecircumflex" unicode="&#xca;" horiz-adv-x="293" 
d="M320 589h-143l-38 -196h118l-15 -73h-118l-48 -247h143l-13 -73h-224l129 665h224zM287 842l35 -137h-63l-16 84l-48 -84h-63l88 137h67z" />
    <glyph glyph-name="Edieresis" unicode="&#xcb;" horiz-adv-x="293" 
d="M320 589h-143l-38 -196h118l-15 -73h-118l-48 -247h143l-13 -73h-224l129 665h224zM187 822c12 0 21.668 -3.5 29.001 -10.5s11 -16.167 11 -27.5c0 -17.333 -5.66699 -31.166 -17 -41.499s-25 -15.5 -41 -15.5c-12 0 -21.5 3.5 -28.5 10.5s-10.5 16.167 -10.5 27.5
c0 17.333 5.66699 31.166 17 41.499s24.666 15.5 39.999 15.5zM312.001 822c12 0 21.668 -3.5 29.001 -10.5s11 -16.167 11 -27.5c0 -17.333 -5.66699 -31.166 -17 -41.499s-25 -15.5 -41 -15.5c-12 0 -21.5 3.5 -28.5 10.5s-10.5 16.167 -10.5 27.5
c0 17.333 5.66699 31.166 17 41.499s24.666 15.5 39.999 15.5z" />
    <glyph glyph-name="Igrave" unicode="&#xcc;" horiz-adv-x="174" 
d="M-18 0l129 665h80l-129 -665h-80zM203 842l15 -137h-66l-31 137h82z" />
    <glyph glyph-name="Iacute" unicode="&#xcd;" horiz-adv-x="174" 
d="M-18 0l129 665h80l-129 -665h-80zM262 842l-84 -137h-65l67 137h82z" />
    <glyph glyph-name="Icircumflex" unicode="&#xce;" horiz-adv-x="174" 
d="M-18 0l129 665h80l-129 -665h-80zM219 842l35 -137h-63l-16 84l-48 -84h-63l88 137h67z" />
    <glyph glyph-name="Idieresis" unicode="&#xcf;" horiz-adv-x="174" 
d="M-18 0l129 665h80l-129 -665h-80zM119 822c12 0 21.668 -3.5 29.001 -10.5s11 -16.167 11 -27.5c0 -17.333 -5.66699 -31.166 -17 -41.499s-25 -15.5 -41 -15.5c-12 0 -21.5 3.5 -28.5 10.5s-10.5 16.167 -10.5 27.5c0 17.333 5.66699 31.166 17 41.499
s24.666 15.5 39.999 15.5zM244.001 822c12 0 21.668 -3.5 29.001 -10.5s11 -16.167 11 -27.5c0 -17.333 -5.66699 -31.166 -17 -41.499s-25 -15.5 -41 -15.5c-12 0 -21.5 3.5 -28.5 10.5s-10.5 16.167 -10.5 27.5c0 17.333 5.66699 31.166 17 41.499
s24.666 15.5 39.999 15.5z" />
    <glyph glyph-name="Eth" unicode="&#xd0;" horiz-adv-x="354" 
d="M19 369h39.001l58 296h133c68.667 0 103 -36 103 -108c0 -17.333 -2 -37 -6 -59l-65 -331c-10.667 -54.667 -29.334 -96.167 -56.001 -124.5s-61.667 -42.5 -105 -42.5h-133l58 295h-40zM268.001 507c2 10.667 3 21.333 3 32c0 14.667 -2.83301 26.667 -8.5 36
s-15.167 14 -28.5 14h-52l-44 -220h52l-14 -74h-51l-44 -222h52c9.33301 0 17.666 2.5 24.999 7.5s13.833 11.667 19.5 20s10.334 17.5 14.001 27.5s6.5 20 8.5 30z" />
    <glyph glyph-name="Ntilde" unicode="&#xd1;" horiz-adv-x="370" 
d="M258 0h-84l-26 497h-4l-96 -497h-66l129 665h85l24 -512h3l99 512h65zM148 722c2.66699 18.667 6.82812 34.501 12.4951 47.501s12.334 23.5 20.001 31.5s15.834 13.667 24.501 17s17.334 5 26.001 5c10.667 0 19.834 -2 27.501 -6s14.167 -8.16699 19.5 -12.5l15 -12.5
c4.66699 -4 10 -6 16 -6c5.33301 0 10.166 2.33301 14.499 7s7.16602 13.667 8.49902 27l1 5h60l-1 -5c-7.33301 -38 -18.666 -64.667 -33.999 -80s-31.333 -23 -48 -23c-10 0 -18.667 2.16699 -26 6.5s-13.833 9 -19.5 14l-16 14c-5 4.33301 -10.167 6.5 -15.5 6.5
s-10.666 -2.33301 -15.999 -7s-8.66602 -14.334 -9.99902 -29.001v-5h-60z" />
    <glyph glyph-name="Ograve" unicode="&#xd2;" 
d="M262 156c-10 -54 -28.334 -95.167 -55.001 -123.5s-62 -42.5 -106 -42.5c-34.667 0 -60.334 9.16699 -77.001 27.5s-25 45.166 -25 80.499c0 17.333 2 37 6 59l68 352c10.667 53.333 29.334 94.333 56.001 123s61.334 43 104.001 43c35.333 0 61.5 -9.66699 78.5 -29
s25.5 -46.666 25.5 -81.999c0 -17.333 -2 -36.333 -6 -57zM251.999 516c3.33301 14.667 5.00195 27.667 5.00195 39c0 13.333 -2.66699 24.5 -8 33.5s-15 13.5 -29 13.5c-19.333 0 -34 -8.66699 -44 -26s-17.333 -37.333 -22 -60l-71 -365
c-1.33301 -6.66699 -2.33301 -13.334 -3 -20.001s-1 -13 -1 -19c0 -13.333 2.5 -24.666 7.5 -33.999s14.5 -14 28.5 -14c10 0 18.667 2.5 26 7.5s13.666 11.5 18.999 19.5s9.66602 17.167 12.999 27.5s6 20.5 8 30.5zM285.001 842l15 -137h-66l-31 137h82z" />
    <glyph glyph-name="Oacute" unicode="&#xd3;" 
d="M262 156c-10 -54 -28.334 -95.167 -55.001 -123.5s-62 -42.5 -106 -42.5c-34.667 0 -60.334 9.16699 -77.001 27.5s-25 45.166 -25 80.499c0 17.333 2 37 6 59l68 352c10.667 53.333 29.334 94.333 56.001 123s61.334 43 104.001 43c35.333 0 61.5 -9.66699 78.5 -29
s25.5 -46.666 25.5 -81.999c0 -17.333 -2 -36.333 -6 -57zM251.999 516c3.33301 14.667 5.00195 27.667 5.00195 39c0 13.333 -2.66699 24.5 -8 33.5s-15 13.5 -29 13.5c-19.333 0 -34 -8.66699 -44 -26s-17.333 -37.333 -22 -60l-71 -365
c-1.33301 -6.66699 -2.33301 -13.334 -3 -20.001s-1 -13 -1 -19c0 -13.333 2.5 -24.666 7.5 -33.999s14.5 -14 28.5 -14c10 0 18.667 2.5 26 7.5s13.666 11.5 18.999 19.5s9.66602 17.167 12.999 27.5s6 20.5 8 30.5zM344.001 842l-84 -137h-65l67 137h82z" />
    <glyph glyph-name="Ocircumflex" unicode="&#xd4;" 
d="M262 156c-10 -54 -28.334 -95.167 -55.001 -123.5s-62 -42.5 -106 -42.5c-34.667 0 -60.334 9.16699 -77.001 27.5s-25 45.166 -25 80.499c0 17.333 2 37 6 59l68 352c10.667 53.333 29.334 94.333 56.001 123s61.334 43 104.001 43c35.333 0 61.5 -9.66699 78.5 -29
s25.5 -46.666 25.5 -81.999c0 -17.333 -2 -36.333 -6 -57zM251.999 516c3.33301 14.667 5.00195 27.667 5.00195 39c0 13.333 -2.66699 24.5 -8 33.5s-15 13.5 -29 13.5c-19.333 0 -34 -8.66699 -44 -26s-17.333 -37.333 -22 -60l-71 -365
c-1.33301 -6.66699 -2.33301 -13.334 -3 -20.001s-1 -13 -1 -19c0 -13.333 2.5 -24.666 7.5 -33.999s14.5 -14 28.5 -14c10 0 18.667 2.5 26 7.5s13.666 11.5 18.999 19.5s9.66602 17.167 12.999 27.5s6 20.5 8 30.5zM301.001 842l35 -137h-63l-16 84l-48 -84h-63l88 137h67
z" />
    <glyph glyph-name="Otilde" unicode="&#xd5;" 
d="M262 156c-10 -54 -28.334 -95.167 -55.001 -123.5s-62 -42.5 -106 -42.5c-34.667 0 -60.334 9.16699 -77.001 27.5s-25 45.166 -25 80.499c0 17.333 2 37 6 59l68 352c10.667 53.333 29.334 94.333 56.001 123s61.334 43 104.001 43c35.333 0 61.5 -9.66699 78.5 -29
s25.5 -46.666 25.5 -81.999c0 -17.333 -2 -36.333 -6 -57zM251.999 516c3.33301 14.667 5.00195 27.667 5.00195 39c0 13.333 -2.66699 24.5 -8 33.5s-15 13.5 -29 13.5c-19.333 0 -34 -8.66699 -44 -26s-17.333 -37.333 -22 -60l-71 -365
c-1.33301 -6.66699 -2.33301 -13.334 -3 -20.001s-1 -13 -1 -19c0 -13.333 2.5 -24.666 7.5 -33.999s14.5 -14 28.5 -14c10 0 18.667 2.5 26 7.5s13.666 11.5 18.999 19.5s9.66602 17.167 12.999 27.5s6 20.5 8 30.5zM132.001 722
c2.66699 18.667 6.82812 34.501 12.4951 47.501s12.334 23.5 20.001 31.5s15.834 13.667 24.501 17s17.334 5 26.001 5c10.667 0 19.834 -2 27.501 -6s14.167 -8.16699 19.5 -12.5l15 -12.5c4.66699 -4 10 -6 16 -6c5.33301 0 10.166 2.33301 14.499 7
s7.16602 13.667 8.49902 27l1 5h60l-1 -5c-7.33301 -38 -18.666 -64.667 -33.999 -80s-31.333 -23 -48 -23c-10 0 -18.667 2.16699 -26 6.5s-13.833 9 -19.5 14l-16 14c-5 4.33301 -10.167 6.5 -15.5 6.5s-10.666 -2.33301 -15.999 -7s-8.66602 -14.334 -9.99902 -29.001v-5
h-60z" />
    <glyph glyph-name="Odieresis" unicode="&#xd6;" 
d="M262 156c-10 -54 -28.334 -95.167 -55.001 -123.5s-62 -42.5 -106 -42.5c-34.667 0 -60.334 9.16699 -77.001 27.5s-25 45.166 -25 80.499c0 17.333 2 37 6 59l68 352c10.667 53.333 29.334 94.333 56.001 123s61.334 43 104.001 43c35.333 0 61.5 -9.66699 78.5 -29
s25.5 -46.666 25.5 -81.999c0 -17.333 -2 -36.333 -6 -57zM251.999 516c3.33301 14.667 5.00195 27.667 5.00195 39c0 13.333 -2.66699 24.5 -8 33.5s-15 13.5 -29 13.5c-19.333 0 -34 -8.66699 -44 -26s-17.333 -37.333 -22 -60l-71 -365
c-1.33301 -6.66699 -2.33301 -13.334 -3 -20.001s-1 -13 -1 -19c0 -13.333 2.5 -24.666 7.5 -33.999s14.5 -14 28.5 -14c10 0 18.667 2.5 26 7.5s13.666 11.5 18.999 19.5s9.66602 17.167 12.999 27.5s6 20.5 8 30.5zM201.001 822c12 0 21.668 -3.5 29.001 -10.5
s11 -16.167 11 -27.5c0 -17.333 -5.66699 -31.166 -17 -41.499s-25 -15.5 -41 -15.5c-12 0 -21.5 3.5 -28.5 10.5s-10.5 16.167 -10.5 27.5c0 17.333 5.66699 31.166 17 41.499s24.666 15.5 39.999 15.5zM326.002 822c12 0 21.668 -3.5 29.001 -10.5s11 -16.167 11 -27.5
c0 -17.333 -5.66699 -31.166 -17 -41.499s-25 -15.5 -41 -15.5c-12 0 -21.5 3.5 -28.5 10.5s-10.5 16.167 -10.5 27.5c0 17.333 5.66699 31.166 17 41.499s24.666 15.5 39.999 15.5z" />
    <glyph glyph-name="multiply" unicode="&#xd7;" horiz-adv-x="322" 
d="M26 238l76 63l-51 64l62 52l51 -63l76 63l42 -52l-76 -64l51 -63l-62 -52l-51 63l-76 -63z" />
    <glyph glyph-name="Oslash" unicode="&#xd8;" horiz-adv-x="336" 
d="M262 156c-10.667 -54 -29.1689 -95.168 -55.502 -123.501s-61.5 -42.5 -105.5 -42.5c-32 0 -57 8.33301 -75 25l-25 -50l-32 15l36 71c-4 12.667 -6 28.334 -6 47.001c0 17.333 2 37 6 59l68 352c10.667 53.333 29.334 94.333 56.001 123s61.334 43 104.001 43
c31.333 0 56 -8.33301 74 -25l25 50l32 -14l-35 -70c5.33301 -16 8 -33.667 8 -53c0 -17.333 -2 -36 -6 -56zM234.998 429.999l-156.998 -311.999c-0.666992 -14.667 1.5 -27.334 6.5 -38.001s15.167 -16 30.5 -16c10 0 18.667 2.5 26 7.5s13.666 11.5 18.999 19.5
s9.66602 17.167 12.999 27.5s6 20.5 8 30.5zM100 240l156 310c0.666992 14.667 -1.5 27 -6.5 37s-14.833 15 -29.5 15c-19.333 0 -34 -8.66699 -44 -26s-17.333 -37.333 -22 -60z" />
    <glyph glyph-name="Ugrave" unicode="&#xd9;" horiz-adv-x="347" 
d="M367 665l-98.998 -509c-10.667 -54 -29 -95 -55 -123s-61 -42 -105 -42c-70 0 -105 36.333 -105 109c0 16 2 34.667 6 56l99 509h80l-100 -516c-2.66699 -11.333 -4 -23.333 -4 -36c0 -14.667 2.66699 -26.5 8 -35.5s14.666 -13.5 27.999 -13.5
c18.667 0 33.167 7.66699 43.5 23s18.166 36 23.499 62l100 516h80zM290.002 842l15 -137h-66l-31 137h82z" />
    <glyph glyph-name="Uacute" unicode="&#xda;" horiz-adv-x="347" 
d="M367 665l-98.998 -509c-10.667 -54 -29 -95 -55 -123s-61 -42 -105 -42c-70 0 -105 36.333 -105 109c0 16 2 34.667 6 56l99 509h80l-100 -516c-2.66699 -11.333 -4 -23.333 -4 -36c0 -14.667 2.66699 -26.5 8 -35.5s14.666 -13.5 27.999 -13.5
c18.667 0 33.167 7.66699 43.5 23s18.166 36 23.499 62l100 516h80zM349.002 842l-84 -137h-65l67 137h82z" />
    <glyph glyph-name="Ucircumflex" unicode="&#xdb;" horiz-adv-x="347" 
d="M367 665l-98.998 -509c-10.667 -54 -29 -95 -55 -123s-61 -42 -105 -42c-70 0 -105 36.333 -105 109c0 16 2 34.667 6 56l99 509h80l-100 -516c-2.66699 -11.333 -4 -23.333 -4 -36c0 -14.667 2.66699 -26.5 8 -35.5s14.666 -13.5 27.999 -13.5
c18.667 0 33.167 7.66699 43.5 23s18.166 36 23.499 62l100 516h80zM306.002 842l35 -137h-63l-16 84l-48 -84h-63l88 137h67z" />
    <glyph glyph-name="Udieresis" unicode="&#xdc;" horiz-adv-x="347" 
d="M367 665l-98.998 -509c-10.667 -54 -29 -95 -55 -123s-61 -42 -105 -42c-70 0 -105 36.333 -105 109c0 16 2 34.667 6 56l99 509h80l-100 -516c-2.66699 -11.333 -4 -23.333 -4 -36c0 -14.667 2.66699 -26.5 8 -35.5s14.666 -13.5 27.999 -13.5
c18.667 0 33.167 7.66699 43.5 23s18.166 36 23.499 62l100 516h80zM206.002 822c12 0 21.668 -3.5 29.001 -10.5s11 -16.167 11 -27.5c0 -17.333 -5.66699 -31.166 -17 -41.499s-25 -15.5 -41 -15.5c-12 0 -21.5 3.5 -28.5 10.5s-10.5 16.167 -10.5 27.5
c0 17.333 5.66699 31.166 17 41.499s24.666 15.5 39.999 15.5zM331.003 822c12 0 21.668 -3.5 29.001 -10.5s11 -16.167 11 -27.5c0 -17.333 -5.66699 -31.166 -17 -41.499s-25 -15.5 -41 -15.5c-12 0 -21.5 3.5 -28.5 10.5s-10.5 16.167 -10.5 27.5
c0 17.333 5.66699 31.166 17 41.499s24.666 15.5 39.999 15.5z" />
    <glyph glyph-name="Yacute" unicode="&#xdd;" horiz-adv-x="343" 
d="M186 207l-40 -207h-80l40 207l-24 458h82l3 -342h3l137 342h82zM346 842l-84 -137h-65l67 137h82z" />
    <glyph glyph-name="Thorn" unicode="&#xde;" horiz-adv-x="337" 
d="M295 298c-10 -54 -28.5 -95 -55.5 -123s-62.167 -42 -105.5 -42h-46l-26 -133h-80l129 665h80l-25 -133h45c68.667 0 103 -35.667 103 -107c0 -17.333 -2 -37 -6 -59zM230 373c1.33301 6.66699 2.33496 13.168 3.00195 19.501s1 12.166 1 17.499
c0 14.667 -3 26.5 -9 35.5s-16.667 13.5 -32 13.5h-42l-49 -253h42c19.333 0 34.666 8.5 45.999 25.5s19.666 37.167 24.999 60.5z" />
    <glyph glyph-name="germandbls" unicode="&#xdf;" horiz-adv-x="330" 
d="M52 -55l-22.0029 -75h-73l132 677c10 52.667 27 93 51 121s57.333 42 100 42c34 0 59 -9 75 -27s24 -44.667 24 -80c0 -8.66699 -0.333008 -17.667 -1 -27s-2 -19 -4 -29l-3 -16c-6.66699 -36 -16.667 -63.833 -30 -83.5s-30.666 -34.834 -51.999 -45.501
c23.333 -14.667 35 -42 35 -82c0 -17.333 -2 -36.333 -6 -57l-23 -118c-9.33301 -48 -25.666 -84.833 -48.999 -110.5s-53 -38.5 -89 -38.5h-18l15 73h9c11.333 0 21.5 5.33301 30.5 16s15.833 27 20.5 49l29 155c4 20 3.83301 36.833 -0.5 50.5s-14.166 20.5 -29.499 20.5
h-10l14 73h10c16.667 0 29.667 7.33301 39 22s15.666 31 18.999 49l11 57c3.33301 16.667 5 30.334 5 41.001c0 12 -2.16699 21.833 -6.5 29.5s-12.166 11.5 -23.499 11.5c-16.667 0 -29.667 -8 -39 -24s-16.333 -35.333 -21 -58z" />
    <glyph glyph-name="agrave" unicode="&#xe0;" horiz-adv-x="325" 
d="M220 429c-2 5.33301 -5.66797 11 -11.001 17s-13 9 -23 9c-16.667 0 -29.667 -7.66699 -39 -23s-16.666 -35 -21.999 -59l-46 -237c-1.33301 -7.33301 -2.33301 -14.5 -3 -21.5s-1 -13.167 -1 -18.5c0 -26 9.66699 -39 29 -39c9.33301 0 18.5 3.33301 27.5 10
s16.5 15.667 22.5 27zM176.999 522c21.333 0 37.333 -4.83203 48 -14.499s18.667 -20.834 24 -33.501l15 38h52l-80 -412c-2.66699 -13.333 -2.5 -22.833 0.5 -28.5s9.83301 -8.5 20.5 -8.5l-14 -73c-30 0 -50.667 4.83301 -62 14.5s-18.333 25.5 -21 47.5
c-11.333 -18 -24.5 -32.833 -39.5 -44.5s-32.5 -17.5 -52.5 -17.5c-23.333 0 -41.5 7.5 -54.5 22.5s-19.5 37.5 -19.5 67.5c0 8.66699 0.666992 18 2 28s3 20.667 5 32l44 230c10 52.667 26 91.167 48 115.5s50 36.5 84 36.5zM246.999 687.001l15 -137h-66l-31 137h82z" />
    <glyph glyph-name="aacute" unicode="&#xe1;" horiz-adv-x="325" 
d="M220 429c-2 5.33301 -5.66797 11 -11.001 17s-13 9 -23 9c-16.667 0 -29.667 -7.66699 -39 -23s-16.666 -35 -21.999 -59l-46 -237c-1.33301 -7.33301 -2.33301 -14.5 -3 -21.5s-1 -13.167 -1 -18.5c0 -26 9.66699 -39 29 -39c9.33301 0 18.5 3.33301 27.5 10
s16.5 15.667 22.5 27zM176.999 522c21.333 0 37.333 -4.83203 48 -14.499s18.667 -20.834 24 -33.501l15 38h52l-80 -412c-2.66699 -13.333 -2.5 -22.833 0.5 -28.5s9.83301 -8.5 20.5 -8.5l-14 -73c-30 0 -50.667 4.83301 -62 14.5s-18.333 25.5 -21 47.5
c-11.333 -18 -24.5 -32.833 -39.5 -44.5s-32.5 -17.5 -52.5 -17.5c-23.333 0 -41.5 7.5 -54.5 22.5s-19.5 37.5 -19.5 67.5c0 8.66699 0.666992 18 2 28s3 20.667 5 32l44 230c10 52.667 26 91.167 48 115.5s50 36.5 84 36.5zM305.999 687.001l-84 -137h-65l67 137h82z" />
    <glyph glyph-name="acircumflex" unicode="&#xe2;" horiz-adv-x="325" 
d="M220 429c-2 5.33301 -5.66797 11 -11.001 17s-13 9 -23 9c-16.667 0 -29.667 -7.66699 -39 -23s-16.666 -35 -21.999 -59l-46 -237c-1.33301 -7.33301 -2.33301 -14.5 -3 -21.5s-1 -13.167 -1 -18.5c0 -26 9.66699 -39 29 -39c9.33301 0 18.5 3.33301 27.5 10
s16.5 15.667 22.5 27zM176.999 522c21.333 0 37.333 -4.83203 48 -14.499s18.667 -20.834 24 -33.501l15 38h52l-80 -412c-2.66699 -13.333 -2.5 -22.833 0.5 -28.5s9.83301 -8.5 20.5 -8.5l-14 -73c-30 0 -50.667 4.83301 -62 14.5s-18.333 25.5 -21 47.5
c-11.333 -18 -24.5 -32.833 -39.5 -44.5s-32.5 -17.5 -52.5 -17.5c-23.333 0 -41.5 7.5 -54.5 22.5s-19.5 37.5 -19.5 67.5c0 8.66699 0.666992 18 2 28s3 20.667 5 32l44 230c10 52.667 26 91.167 48 115.5s50 36.5 84 36.5zM262.999 687.001l35 -137h-63l-16 84l-48 -84
h-63l88 137h67z" />
    <glyph glyph-name="atilde" unicode="&#xe3;" horiz-adv-x="325" 
d="M220 429c-2 5.33301 -5.66797 11 -11.001 17s-13 9 -23 9c-16.667 0 -29.667 -7.66699 -39 -23s-16.666 -35 -21.999 -59l-46 -237c-1.33301 -7.33301 -2.33301 -14.5 -3 -21.5s-1 -13.167 -1 -18.5c0 -26 9.66699 -39 29 -39c9.33301 0 18.5 3.33301 27.5 10
s16.5 15.667 22.5 27zM176.999 522c21.333 0 37.333 -4.83203 48 -14.499s18.667 -20.834 24 -33.501l15 38h52l-80 -412c-2.66699 -13.333 -2.5 -22.833 0.5 -28.5s9.83301 -8.5 20.5 -8.5l-14 -73c-30 0 -50.667 4.83301 -62 14.5s-18.333 25.5 -21 47.5
c-11.333 -18 -24.5 -32.833 -39.5 -44.5s-32.5 -17.5 -52.5 -17.5c-23.333 0 -41.5 7.5 -54.5 22.5s-19.5 37.5 -19.5 67.5c0 8.66699 0.666992 18 2 28s3 20.667 5 32l44 230c10 52.667 26 91.167 48 115.5s50 36.5 84 36.5zM94.999 567.001
c2.66699 18.667 6.82812 34.501 12.4951 47.501s12.334 23.5 20.001 31.5s15.834 13.667 24.501 17s17.334 5 26.001 5c10.667 0 19.834 -2 27.501 -6s14.167 -8.16699 19.5 -12.5l15 -12.5c4.66699 -4 10 -6 16 -6c5.33301 0 10.166 2.33301 14.499 7
s7.16602 13.667 8.49902 27l1 5h60l-1 -5c-7.33301 -38 -18.666 -64.667 -33.999 -80s-31.333 -23 -48 -23c-10 0 -18.667 2.16699 -26 6.5s-13.833 9 -19.5 14l-16 14c-5 4.33301 -10.167 6.5 -15.5 6.5s-10.666 -2.33301 -15.999 -7s-8.66602 -14.334 -9.99902 -29.001v-5
h-60z" />
    <glyph glyph-name="adieresis" unicode="&#xe4;" horiz-adv-x="325" 
d="M220 429c-2 5.33301 -5.66797 11 -11.001 17s-13 9 -23 9c-16.667 0 -29.667 -7.66699 -39 -23s-16.666 -35 -21.999 -59l-46 -237c-1.33301 -7.33301 -2.33301 -14.5 -3 -21.5s-1 -13.167 -1 -18.5c0 -26 9.66699 -39 29 -39c9.33301 0 18.5 3.33301 27.5 10
s16.5 15.667 22.5 27zM176.999 522c21.333 0 37.333 -4.83203 48 -14.499s18.667 -20.834 24 -33.501l15 38h52l-80 -412c-2.66699 -13.333 -2.5 -22.833 0.5 -28.5s9.83301 -8.5 20.5 -8.5l-14 -73c-30 0 -50.667 4.83301 -62 14.5s-18.333 25.5 -21 47.5
c-11.333 -18 -24.5 -32.833 -39.5 -44.5s-32.5 -17.5 -52.5 -17.5c-23.333 0 -41.5 7.5 -54.5 22.5s-19.5 37.5 -19.5 67.5c0 8.66699 0.666992 18 2 28s3 20.667 5 32l44 230c10 52.667 26 91.167 48 115.5s50 36.5 84 36.5zM163.999 667.001
c12 0 21.668 -3.5 29.001 -10.5s11 -16.167 11 -27.5c0 -17.333 -5.66699 -31.166 -17 -41.499s-25 -15.5 -41 -15.5c-12 0 -21.5 3.5 -28.5 10.5s-10.5 16.167 -10.5 27.5c0 17.333 5.66699 31.166 17 41.499s24.666 15.5 39.999 15.5zM289 667.001
c12 0 21.668 -3.5 29.001 -10.5s11 -16.167 11 -27.5c0 -17.333 -5.66699 -31.166 -17 -41.499s-25 -15.5 -41 -15.5c-12 0 -21.5 3.5 -28.5 10.5s-10.5 16.167 -10.5 27.5c0 17.333 5.66699 31.166 17 41.499s24.666 15.5 39.999 15.5z" />
    <glyph glyph-name="aring" unicode="&#xe5;" horiz-adv-x="325" 
d="M220 429c-2 5.33301 -5.66797 11 -11.001 17s-13 9 -23 9c-16.667 0 -29.667 -7.66699 -39 -23s-16.666 -35 -21.999 -59l-46 -237c-1.33301 -7.33301 -2.33301 -14.5 -3 -21.5s-1 -13.167 -1 -18.5c0 -26 9.66699 -39 29 -39c9.33301 0 18.5 3.33301 27.5 10
s16.5 15.667 22.5 27zM176.999 522c21.333 0 37.333 -4.83203 48 -14.499s18.667 -20.834 24 -33.501l15 38h52l-80 -412c-2.66699 -13.333 -2.5 -22.833 0.5 -28.5s9.83301 -8.5 20.5 -8.5l-14 -73c-30 0 -50.667 4.83301 -62 14.5s-18.333 25.5 -21 47.5
c-11.333 -18 -24.5 -32.833 -39.5 -44.5s-32.5 -17.5 -52.5 -17.5c-23.333 0 -41.5 7.5 -54.5 22.5s-19.5 37.5 -19.5 67.5c0 8.66699 0.666992 18 2 28s3 20.667 5 32l44 230c10 52.667 26 91.167 48 115.5s50 36.5 84 36.5zM182.999 619.001
c0 -8 2.33398 -14.832 7.00098 -20.499s11.667 -8.5 21 -8.5c11.333 0 20.833 4.16699 28.5 12.5s11.5 18.166 11.5 29.499c0 8 -2.33301 14.667 -7 20s-11.334 8 -20.001 8c-11.333 0 -21 -4 -29 -12s-12 -17.667 -12 -29zM135 613.002
c0 12.667 2.83398 24.832 8.50098 36.499s13 21.667 22 30s19.5 15 31.5 20s24 7.5 36 7.5c20 0 36.167 -6.66699 48.5 -20s18.5 -29.666 18.5 -48.999c0 -12.667 -2.83301 -24.667 -8.5 -36s-13 -21.333 -22 -30s-19.333 -15.667 -31 -21s-23.834 -8 -36.501 -8
c-20 0 -36.167 6.83301 -48.5 20.5s-18.5 30.167 -18.5 49.5z" />
    <glyph glyph-name="ae" unicode="&#xe6;" horiz-adv-x="466" 
d="M178 234c-33.333 -2 -56.168 -8.5 -68.501 -19.5s-20.833 -28.833 -25.5 -53.5l-5 -25c-3.33301 -18.667 -5 -32.667 -5 -42c0 -25.333 9.66699 -38 29 -38c8.66699 0 17.334 3.5 26.001 10.5s16 16.167 22 27.5zM237.998 139
c-1.33301 -8 -2.50195 -15.5039 -3.50195 -22.5039s-1.5 -13.5 -1.5 -19.5c0 -12 2.16699 -21.667 6.5 -29s12.166 -11 23.499 -11c16 0 28.167 7.83301 36.5 23.5s15.166 35.167 20.499 58.5l5 23h78l-3 -16c-10.667 -51.333 -27.667 -90.166 -51 -116.499
s-53.666 -39.5 -90.999 -39.5c-39.333 0 -65.666 17.333 -78.999 52c-15.333 -17.333 -32 -30.333 -50 -39s-36.333 -13 -55 -13c-53.333 0 -80 30 -80 90c0 12.667 1.66699 28.334 5 47.001l3 21c4 20.667 9.83301 39.167 17.5 55.5s18.5 30.333 32.5 42
s32 20.834 54 27.501s49 10.667 81 12l17 88c2.66699 12.667 4 25.667 4 39c0 12.667 -2 23.167 -6 31.5s-11.667 12.5 -23 12.5c-14 0 -25.5 -6.83301 -34.5 -20.5s-15.5 -33.167 -19.5 -58.5l-3 -15h-73l3 15c3.33301 20.667 8.83301 39.834 16.5 57.501
s17.334 33 29.001 46s25 23.167 40 30.5s31.5 11 49.5 11c20 0 35.833 -4.5 47.5 -13.5s20.834 -22.167 27.501 -39.5c11.333 17.333 24.5 30.5 39.5 39.5s33.167 13.5 54.5 13.5c30 0 53 -9 69 -27s24 -42.333 24 -73c0 -6 -0.333008 -12.333 -1 -19
s-1.66699 -13.667 -3 -21l-7 -33c-8 -40 -27.5 -68.833 -58.5 -86.5s-72.5 -28.167 -124.5 -31.5zM266.996 289.996c25.333 2.66699 45.835 8.5 61.502 17.5s26.5 27.167 32.5 54.5l6 27c4 18 4.16699 33.5 0.5 46.5s-12.834 19.5 -27.501 19.5
c-16.667 0 -29.334 -8 -38.001 -24s-15 -35.333 -19 -58z" />
    <glyph glyph-name="ccedilla" unicode="&#xe7;" horiz-adv-x="309" 
d="M199 324l10.001 48.9971c1.33301 7.33301 2.5 14.333 3.5 21s1.5 13 1.5 19c0 12.667 -2.33301 22.834 -7 30.501s-12.667 11.5 -24 11.5c-17.333 0 -30.333 -7.83301 -39 -23.5s-15.334 -35.5 -20.001 -59.5l-45 -231c-3.33301 -16.667 -5 -30.667 -5 -42
c0 -12.667 2.33301 -22.834 7 -30.501s12.667 -11.5 24 -11.5c17.333 0 30 7.66699 38 23s14.667 35 20 59l10 49h76l-7 -37c-9.33301 -49.333 -24.833 -87.666 -46.5 -114.999s-52.167 -42.333 -91.5 -45l-5 -30h6c17.333 0 31.333 -4.5 42 -13.5s16 -24.167 16 -45.5
c0 -34.667 -9.16699 -61.667 -27.5 -81s-42.833 -29 -73.5 -29c-24.667 0 -41.667 6.83301 -51 20.5s-13 34.834 -11 63.501v2h50v-2c-1.33301 -24 5.66699 -36 21 -36c12 0 21.167 4.66699 27.5 14s9.5 21.666 9.5 36.999c0 10.667 -2.83301 18 -8.5 22s-14.167 6 -25.5 6
h-28l14 75c-42.667 10 -64 42.667 -64 98c0 20.667 2.33301 41.667 7 63l40 203c10 52.667 27.167 93.167 51.5 121.5s57.833 42.5 100.5 42.5c33.333 0 57.5 -8.33301 72.5 -25s22.5 -41 22.5 -73c0 -9.33301 -0.5 -19.166 -1.5 -29.499s-2.83301 -21.166 -5.5 -32.499
l-8 -38h-76z" />
    <glyph glyph-name="egrave" unicode="&#xe8;" horiz-adv-x="317" 
d="M110 293c25.333 2 45.832 7.33203 61.499 15.999s26.5 26.334 32.5 53.001l6 27c3.33301 18 3.33301 33.5 0 46.5s-12.666 19.5 -27.999 19.5c-16.667 0 -29.167 -8 -37.5 -24s-14.833 -35.333 -19.5 -58zM167.999 161.999l78.999 0.00292969l-3 -16
c-10.667 -50 -28 -88.5 -52 -115.5s-57.333 -40.5 -100 -40.5c-34 0 -58.667 8.33301 -74 25s-23 41 -23 73c0 18.667 2.66699 40.667 8 66l39 203c10.667 53.333 28 94.166 52 122.499s57.667 42.5 101 42.5c32 0 56.167 -9 72.5 -27s24.5 -42.333 24.5 -73
c0 -14 -1.33301 -27.333 -4 -40l-7 -33c-5.33301 -24 -14 -43.333 -26 -58s-26.167 -26.334 -42.5 -35.001s-34.5 -14.834 -54.5 -18.501s-40.333 -6.5 -61 -8.5l-18 -90c-1.33301 -7.33301 -2.33301 -14.5 -3 -21.5s-1 -13.5 -1 -19.5c0 -12.667 2 -22.667 6 -30
s11.667 -11 23 -11c17.333 0 30.333 7.83301 39 23.5s15.334 35.167 20.001 58.5zM244.998 687.002l15 -137h-66l-31 137h82z" />
    <glyph glyph-name="eacute" unicode="&#xe9;" horiz-adv-x="317" 
d="M110 293c25.333 2 45.832 7.33203 61.499 15.999s26.5 26.334 32.5 53.001l6 27c3.33301 18 3.33301 33.5 0 46.5s-12.666 19.5 -27.999 19.5c-16.667 0 -29.167 -8 -37.5 -24s-14.833 -35.333 -19.5 -58zM167.999 161.999l78.999 0.00292969l-3 -16
c-10.667 -50 -28 -88.5 -52 -115.5s-57.333 -40.5 -100 -40.5c-34 0 -58.667 8.33301 -74 25s-23 41 -23 73c0 18.667 2.66699 40.667 8 66l39 203c10.667 53.333 28 94.166 52 122.499s57.667 42.5 101 42.5c32 0 56.167 -9 72.5 -27s24.5 -42.333 24.5 -73
c0 -14 -1.33301 -27.333 -4 -40l-7 -33c-5.33301 -24 -14 -43.333 -26 -58s-26.167 -26.334 -42.5 -35.001s-34.5 -14.834 -54.5 -18.501s-40.333 -6.5 -61 -8.5l-18 -90c-1.33301 -7.33301 -2.33301 -14.5 -3 -21.5s-1 -13.5 -1 -19.5c0 -12.667 2 -22.667 6 -30
s11.667 -11 23 -11c17.333 0 30.333 7.83301 39 23.5s15.334 35.167 20.001 58.5zM303.998 687.002l-84 -137h-65l67 137h82z" />
    <glyph glyph-name="ecircumflex" unicode="&#xea;" horiz-adv-x="317" 
d="M110 293c25.333 2 45.832 7.33203 61.499 15.999s26.5 26.334 32.5 53.001l6 27c3.33301 18 3.33301 33.5 0 46.5s-12.666 19.5 -27.999 19.5c-16.667 0 -29.167 -8 -37.5 -24s-14.833 -35.333 -19.5 -58zM167.999 161.999l78.999 0.00292969l-3 -16
c-10.667 -50 -28 -88.5 -52 -115.5s-57.333 -40.5 -100 -40.5c-34 0 -58.667 8.33301 -74 25s-23 41 -23 73c0 18.667 2.66699 40.667 8 66l39 203c10.667 53.333 28 94.166 52 122.499s57.667 42.5 101 42.5c32 0 56.167 -9 72.5 -27s24.5 -42.333 24.5 -73
c0 -14 -1.33301 -27.333 -4 -40l-7 -33c-5.33301 -24 -14 -43.333 -26 -58s-26.167 -26.334 -42.5 -35.001s-34.5 -14.834 -54.5 -18.501s-40.333 -6.5 -61 -8.5l-18 -90c-1.33301 -7.33301 -2.33301 -14.5 -3 -21.5s-1 -13.5 -1 -19.5c0 -12.667 2 -22.667 6 -30
s11.667 -11 23 -11c17.333 0 30.333 7.83301 39 23.5s15.334 35.167 20.001 58.5zM260.998 687.002l35 -137h-63l-16 84l-48 -84h-63l88 137h67z" />
    <glyph glyph-name="edieresis" unicode="&#xeb;" horiz-adv-x="317" 
d="M110 293c25.333 2 45.832 7.33203 61.499 15.999s26.5 26.334 32.5 53.001l6 27c3.33301 18 3.33301 33.5 0 46.5s-12.666 19.5 -27.999 19.5c-16.667 0 -29.167 -8 -37.5 -24s-14.833 -35.333 -19.5 -58zM167.999 161.999l78.999 0.00292969l-3 -16
c-10.667 -50 -28 -88.5 -52 -115.5s-57.333 -40.5 -100 -40.5c-34 0 -58.667 8.33301 -74 25s-23 41 -23 73c0 18.667 2.66699 40.667 8 66l39 203c10.667 53.333 28 94.166 52 122.499s57.667 42.5 101 42.5c32 0 56.167 -9 72.5 -27s24.5 -42.333 24.5 -73
c0 -14 -1.33301 -27.333 -4 -40l-7 -33c-5.33301 -24 -14 -43.333 -26 -58s-26.167 -26.334 -42.5 -35.001s-34.5 -14.834 -54.5 -18.501s-40.333 -6.5 -61 -8.5l-18 -90c-1.33301 -7.33301 -2.33301 -14.5 -3 -21.5s-1 -13.5 -1 -19.5c0 -12.667 2 -22.667 6 -30
s11.667 -11 23 -11c17.333 0 30.333 7.83301 39 23.5s15.334 35.167 20.001 58.5zM156.998 667.002c12 0 21.668 -3.5 29.001 -10.5s11 -16.167 11 -27.5c0 -17.333 -5.66699 -31.166 -17 -41.499s-25 -15.5 -41 -15.5c-12 0 -21.5 3.5 -28.5 10.5s-10.5 16.167 -10.5 27.5
c0 17.333 5.66699 31.166 17 41.499s24.666 15.5 39.999 15.5zM281.999 667.002c12 0 21.668 -3.5 29.001 -10.5s11 -16.167 11 -27.5c0 -17.333 -5.66699 -31.166 -17 -41.499s-25 -15.5 -41 -15.5c-12 0 -21.5 3.5 -28.5 10.5s-10.5 16.167 -10.5 27.5
c0 17.333 5.66699 31.166 17 41.499s24.666 15.5 39.999 15.5z" />
    <glyph glyph-name="igrave" unicode="&#xec;" horiz-adv-x="172" 
d="M81 512h71l-5 -75l-85 -437h-80zM173 687l15 -137h-66l-31 137h82z" />
    <glyph glyph-name="iacute" unicode="&#xed;" horiz-adv-x="172" 
d="M81 512h71l-5 -75l-85 -437h-80zM232 687l-84 -137h-65l67 137h82z" />
    <glyph glyph-name="icircumflex" unicode="&#xee;" horiz-adv-x="172" 
d="M81 512h71l-5 -75l-85 -437h-80zM189 687l35 -137h-63l-16 84l-48 -84h-63l88 137h67z" />
    <glyph glyph-name="idieresis" unicode="&#xef;" horiz-adv-x="172" 
d="M81 512h71l-5 -75l-85 -437h-80zM89 667c12 0 21.668 -3.5 29.001 -10.5s11 -16.167 11 -27.5c0 -17.333 -5.66699 -31.166 -17 -41.499s-25 -15.5 -41 -15.5c-12 0 -21.5 3.5 -28.5 10.5s-10.5 16.167 -10.5 27.5c0 17.333 5.66699 31.166 17 41.499
s24.666 15.5 39.999 15.5zM214.001 667c12 0 21.668 -3.5 29.001 -10.5s11 -16.167 11 -27.5c0 -17.333 -5.66699 -31.166 -17 -41.499s-25 -15.5 -41 -15.5c-12 0 -21.5 3.5 -28.5 10.5s-10.5 16.167 -10.5 27.5c0 17.333 5.66699 31.166 17 41.499
s24.666 15.5 39.999 15.5z" />
    <glyph glyph-name="eth" unicode="&#xf0;" horiz-adv-x="319" 
d="M173 573l41.001 25.0029c-6 8.66699 -13.167 15.334 -21.5 20.001s-19.166 7 -32.499 7h-6l10 50h6c20 0 37.5 -3.83301 52.5 -11.5s27.5 -18.167 37.5 -31.5l47 32l16 -25l-46 -31c15.333 -32 23 -72.333 23 -121c0 -38 -4.66699 -80.333 -14 -127l-40 -207
c-10 -52.667 -27.333 -93 -52 -121s-58.667 -42 -102 -42c-33.333 0 -57.666 8.5 -72.999 25.5s-23 42.167 -23 75.5c0 9.33301 0.666992 19.166 2 29.499s3 21.166 5 32.499l40 206c11.333 54.667 28.666 95.5 51.999 122.5s51.666 40.5 84.999 40.5
c18 0 32.167 -3.83301 42.5 -11.5s18.166 -16.167 23.499 -25.5c0.666992 15.333 0 30.666 -2 45.999s-6 29.666 -12 42.999l-42 -26zM208.001 373.003c3.33301 16.667 5 30.667 5 42c0 12 -2.16699 21.667 -6.5 29s-12.166 11 -23.499 11c-16.667 0 -29.334 -8 -38.001 -24
s-15 -35.333 -19 -58l-45 -234c-3.33301 -16.667 -5 -30.667 -5 -42c0 -12 2 -21.667 6 -29s11.667 -11 23 -11c17.333 0 30.333 8 39 24s15 35.333 19 58z" />
    <glyph glyph-name="ntilde" unicode="&#xf1;" horiz-adv-x="332" 
d="M147 466c9.33301 15.333 21.832 28.501 37.499 39.501s33.5 16.5 53.5 16.5c22.667 0 39 -6.66699 49 -20s15 -34 15 -62c0 -10.667 -0.5 -22.334 -1.5 -35.001s-3.16699 -26.334 -6.5 -41.001l-71 -364h-73l8 75l57 298c1.33301 8 2.5 15.667 3.5 23s1.5 14 1.5 20
c0 12 -2 21.5 -6 28.5s-11.333 10.5 -22 10.5s-20.167 -4.16699 -28.5 -12.5s-15.166 -18.166 -20.499 -29.499l-81 -413h-80l99 512h69zM98.999 567.001c2.66699 18.667 6.82812 34.501 12.4951 47.501s12.334 23.5 20.001 31.5s15.834 13.667 24.501 17s17.334 5 26.001 5
c10.667 0 19.834 -2 27.501 -6s14.167 -8.16699 19.5 -12.5l15 -12.5c4.66699 -4 10 -6 16 -6c5.33301 0 10.166 2.33301 14.499 7s7.16602 13.667 8.49902 27l1 5h60l-1 -5c-7.33301 -38 -18.666 -64.667 -33.999 -80s-31.333 -23 -48 -23c-10 0 -18.667 2.16699 -26 6.5
s-13.833 9 -19.5 14l-16 14c-5 4.33301 -10.167 6.5 -15.5 6.5s-10.666 -2.33301 -15.999 -7s-8.66602 -14.334 -9.99902 -29.001v-5h-60z" />
    <glyph glyph-name="ograve" unicode="&#xf2;" horiz-adv-x="319" 
d="M246 153c-10 -52.667 -27.334 -92.999 -52.001 -120.999s-58.667 -42 -102 -42c-33.333 0 -57.666 8.5 -72.999 25.5s-23 42.167 -23 75.5c0 9.33301 0.666992 19.166 2 29.499s3 21.166 5 32.499l40 206c10 52.667 27.167 93 51.5 121s57.833 42 100.5 42
c34 0 58.833 -8.66699 74.5 -26s23.5 -42.666 23.5 -75.999c0 -9.33301 -0.666992 -19 -2 -29s-3 -20.667 -5 -32zM207.999 373.001c3.33301 16.667 5 30.667 5 42c0 12 -2.16699 21.667 -6.5 29s-12.166 11 -23.499 11c-16.667 0 -29.334 -8 -38.001 -24
s-15 -35.333 -19 -58l-45 -234c-3.33301 -16.667 -5 -30.667 -5 -42c0 -12 2 -21.667 6 -29s11.667 -11 23 -11c17.333 0 30.333 8 39 24s15 35.333 19 58zM245.999 687.001l15 -137h-66l-31 137h82z" />
    <glyph glyph-name="oacute" unicode="&#xf3;" horiz-adv-x="319" 
d="M246 153c-10 -52.667 -27.334 -92.999 -52.001 -120.999s-58.667 -42 -102 -42c-33.333 0 -57.666 8.5 -72.999 25.5s-23 42.167 -23 75.5c0 9.33301 0.666992 19.166 2 29.499s3 21.166 5 32.499l40 206c10 52.667 27.167 93 51.5 121s57.833 42 100.5 42
c34 0 58.833 -8.66699 74.5 -26s23.5 -42.666 23.5 -75.999c0 -9.33301 -0.666992 -19 -2 -29s-3 -20.667 -5 -32zM207.999 373.001c3.33301 16.667 5 30.667 5 42c0 12 -2.16699 21.667 -6.5 29s-12.166 11 -23.499 11c-16.667 0 -29.334 -8 -38.001 -24
s-15 -35.333 -19 -58l-45 -234c-3.33301 -16.667 -5 -30.667 -5 -42c0 -12 2 -21.667 6 -29s11.667 -11 23 -11c17.333 0 30.333 8 39 24s15 35.333 19 58zM304.999 687.001l-84 -137h-65l67 137h82z" />
    <glyph glyph-name="ocircumflex" unicode="&#xf4;" horiz-adv-x="319" 
d="M246 153c-10 -52.667 -27.334 -92.999 -52.001 -120.999s-58.667 -42 -102 -42c-33.333 0 -57.666 8.5 -72.999 25.5s-23 42.167 -23 75.5c0 9.33301 0.666992 19.166 2 29.499s3 21.166 5 32.499l40 206c10 52.667 27.167 93 51.5 121s57.833 42 100.5 42
c34 0 58.833 -8.66699 74.5 -26s23.5 -42.666 23.5 -75.999c0 -9.33301 -0.666992 -19 -2 -29s-3 -20.667 -5 -32zM207.999 373.001c3.33301 16.667 5 30.667 5 42c0 12 -2.16699 21.667 -6.5 29s-12.166 11 -23.499 11c-16.667 0 -29.334 -8 -38.001 -24
s-15 -35.333 -19 -58l-45 -234c-3.33301 -16.667 -5 -30.667 -5 -42c0 -12 2 -21.667 6 -29s11.667 -11 23 -11c17.333 0 30.333 8 39 24s15 35.333 19 58zM261.999 687.001l35 -137h-63l-16 84l-48 -84h-63l88 137h67z" />
    <glyph glyph-name="otilde" unicode="&#xf5;" horiz-adv-x="319" 
d="M246 153c-10 -52.667 -27.334 -92.999 -52.001 -120.999s-58.667 -42 -102 -42c-33.333 0 -57.666 8.5 -72.999 25.5s-23 42.167 -23 75.5c0 9.33301 0.666992 19.166 2 29.499s3 21.166 5 32.499l40 206c10 52.667 27.167 93 51.5 121s57.833 42 100.5 42
c34 0 58.833 -8.66699 74.5 -26s23.5 -42.666 23.5 -75.999c0 -9.33301 -0.666992 -19 -2 -29s-3 -20.667 -5 -32zM207.999 373.001c3.33301 16.667 5 30.667 5 42c0 12 -2.16699 21.667 -6.5 29s-12.166 11 -23.499 11c-16.667 0 -29.334 -8 -38.001 -24
s-15 -35.333 -19 -58l-45 -234c-3.33301 -16.667 -5 -30.667 -5 -42c0 -12 2 -21.667 6 -29s11.667 -11 23 -11c17.333 0 30.333 8 39 24s15 35.333 19 58zM92.999 567.001c2.66699 18.667 6.82812 34.501 12.4951 47.501s12.334 23.5 20.001 31.5s15.834 13.667 24.501 17
s17.334 5 26.001 5c10.667 0 19.834 -2 27.501 -6s14.167 -8.16699 19.5 -12.5l15 -12.5c4.66699 -4 10 -6 16 -6c5.33301 0 10.166 2.33301 14.499 7s7.16602 13.667 8.49902 27l1 5h60l-1 -5c-7.33301 -38 -18.666 -64.667 -33.999 -80s-31.333 -23 -48 -23
c-10 0 -18.667 2.16699 -26 6.5s-13.833 9 -19.5 14l-16 14c-5 4.33301 -10.167 6.5 -15.5 6.5s-10.666 -2.33301 -15.999 -7s-8.66602 -14.334 -9.99902 -29.001v-5h-60z" />
    <glyph glyph-name="odieresis" unicode="&#xf6;" horiz-adv-x="319" 
d="M246 153c-10 -52.667 -27.334 -92.999 -52.001 -120.999s-58.667 -42 -102 -42c-33.333 0 -57.666 8.5 -72.999 25.5s-23 42.167 -23 75.5c0 9.33301 0.666992 19.166 2 29.499s3 21.166 5 32.499l40 206c10 52.667 27.167 93 51.5 121s57.833 42 100.5 42
c34 0 58.833 -8.66699 74.5 -26s23.5 -42.666 23.5 -75.999c0 -9.33301 -0.666992 -19 -2 -29s-3 -20.667 -5 -32zM207.999 373.001c3.33301 16.667 5 30.667 5 42c0 12 -2.16699 21.667 -6.5 29s-12.166 11 -23.499 11c-16.667 0 -29.334 -8 -38.001 -24
s-15 -35.333 -19 -58l-45 -234c-3.33301 -16.667 -5 -30.667 -5 -42c0 -12 2 -21.667 6 -29s11.667 -11 23 -11c17.333 0 30.333 8 39 24s15 35.333 19 58zM161.999 667.001c12 0 21.668 -3.5 29.001 -10.5s11 -16.167 11 -27.5c0 -17.333 -5.66699 -31.166 -17 -41.499
s-25 -15.5 -41 -15.5c-12 0 -21.5 3.5 -28.5 10.5s-10.5 16.167 -10.5 27.5c0 17.333 5.66699 31.166 17 41.499s24.666 15.5 39.999 15.5zM287 667.001c12 0 21.668 -3.5 29.001 -10.5s11 -16.167 11 -27.5c0 -17.333 -5.66699 -31.166 -17 -41.499s-25 -15.5 -41 -15.5
c-12 0 -21.5 3.5 -28.5 10.5s-10.5 16.167 -10.5 27.5c0 17.333 5.66699 31.166 17 41.499s24.666 15.5 39.999 15.5z" />
    <glyph glyph-name="divide" unicode="&#xf7;" horiz-adv-x="322" 
d="M80 172c0 17.333 6 31.666 18 42.999s26.667 17 44 17c13.333 0 23.666 -3.83301 30.999 -11.5s11 -17.834 11 -30.501c0 -17.333 -6 -31.666 -18 -42.999s-26.667 -17 -44 -17c-13.333 0 -23.666 3.83301 -30.999 11.5s-11 17.834 -11 30.501zM126 412
c0 17.333 6 31.666 18 42.999s26.667 17 44 17c13.333 0 23.666 -3.83301 30.999 -11.5s11 -17.834 11 -30.501c0 -17.333 -6 -31.666 -18 -42.999s-26.667 -17 -44 -17c-13.333 0 -23.666 3.83301 -30.999 11.5s-11 17.834 -11 30.501zM35 338h254l-14 -74h-254z" />
    <glyph glyph-name="oslash" unicode="&#xf8;" horiz-adv-x="319" 
d="M246 153c-10 -52.667 -27.332 -93 -51.999 -121s-58.667 -42 -102 -42c-30.667 0 -54.334 7.66699 -71.001 23l-23 -40l-28 16l32 56c-4 12.667 -6 28 -6 46c0 9.33301 0.5 19.166 1.5 29.499s2.83301 21.166 5.5 32.499l40 206c10 52.667 27.167 93 51.5 121
s57.833 42 100.5 42c31.333 0 55 -8 71 -24l23 39l29 -15l-32 -55c2 -7.33301 3.66699 -14.666 5 -21.999s2 -15.666 2 -24.999s-0.666992 -19 -2 -29s-3 -20.667 -5 -32zM196.001 313l-120 -206c-1.33301 -14.667 0 -26.667 4 -36s12.333 -14 25 -14
c17.333 0 30.333 8 39 24s15 35.333 19 58zM92.001 200l121 206c1.33301 14.667 -0.166992 26.5 -4.5 35.5s-12.833 13.5 -25.5 13.5c-16.667 0 -29.167 -8 -37.5 -24s-14.833 -35.333 -19.5 -58z" />
    <glyph glyph-name="ugrave" unicode="&#xf9;" horiz-adv-x="333" 
d="M78 512l79 -0.000976562l-72 -373c-1.33301 -8 -2.5 -15.833 -3.5 -23.5s-1.5 -14.5 -1.5 -20.5c0 -12 2 -21.333 6 -28s11.667 -10 23 -10c9.33301 0 18.166 3.66699 26.499 11s15.5 16 21.5 26l82 418h80l-81 -414c-2 -11.333 -1.83301 -20 0.5 -26
s9.16602 -9 20.499 -9l-14 -73c-29.333 0 -49.666 5 -60.999 15s-18.666 26 -21.999 48c-11.333 -19.333 -24.333 -34.666 -39 -45.999s-32.667 -17 -54 -17c-47.333 0 -71 29.667 -71 89c0 9.33301 0.666992 19 2 29s3 20.667 5 32zM252 686.999l15 -137h-66l-31 137h82z
" />
    <glyph glyph-name="uacute" unicode="&#xfa;" horiz-adv-x="333" 
d="M78 512l79 -0.000976562l-72 -373c-1.33301 -8 -2.5 -15.833 -3.5 -23.5s-1.5 -14.5 -1.5 -20.5c0 -12 2 -21.333 6 -28s11.667 -10 23 -10c9.33301 0 18.166 3.66699 26.499 11s15.5 16 21.5 26l82 418h80l-81 -414c-2 -11.333 -1.83301 -20 0.5 -26
s9.16602 -9 20.499 -9l-14 -73c-29.333 0 -49.666 5 -60.999 15s-18.666 26 -21.999 48c-11.333 -19.333 -24.333 -34.666 -39 -45.999s-32.667 -17 -54 -17c-47.333 0 -71 29.667 -71 89c0 9.33301 0.666992 19 2 29s3 20.667 5 32zM311 686.999l-84 -137h-65l67 137h82z
" />
    <glyph glyph-name="ucircumflex" unicode="&#xfb;" horiz-adv-x="333" 
d="M78 512l79 -0.000976562l-72 -373c-1.33301 -8 -2.5 -15.833 -3.5 -23.5s-1.5 -14.5 -1.5 -20.5c0 -12 2 -21.333 6 -28s11.667 -10 23 -10c9.33301 0 18.166 3.66699 26.499 11s15.5 16 21.5 26l82 418h80l-81 -414c-2 -11.333 -1.83301 -20 0.5 -26
s9.16602 -9 20.499 -9l-14 -73c-29.333 0 -49.666 5 -60.999 15s-18.666 26 -21.999 48c-11.333 -19.333 -24.333 -34.666 -39 -45.999s-32.667 -17 -54 -17c-47.333 0 -71 29.667 -71 89c0 9.33301 0.666992 19 2 29s3 20.667 5 32zM268 686.999l35 -137h-63l-16 84
l-48 -84h-63l88 137h67z" />
    <glyph glyph-name="udieresis" unicode="&#xfc;" horiz-adv-x="333" 
d="M78 512l79 -0.000976562l-72 -373c-1.33301 -8 -2.5 -15.833 -3.5 -23.5s-1.5 -14.5 -1.5 -20.5c0 -12 2 -21.333 6 -28s11.667 -10 23 -10c9.33301 0 18.166 3.66699 26.499 11s15.5 16 21.5 26l82 418h80l-81 -414c-2 -11.333 -1.83301 -20 0.5 -26
s9.16602 -9 20.499 -9l-14 -73c-29.333 0 -49.666 5 -60.999 15s-18.666 26 -21.999 48c-11.333 -19.333 -24.333 -34.666 -39 -45.999s-32.667 -17 -54 -17c-47.333 0 -71 29.667 -71 89c0 9.33301 0.666992 19 2 29s3 20.667 5 32zM168 666.999
c12 0 21.668 -3.5 29.001 -10.5s11 -16.167 11 -27.5c0 -17.333 -5.66699 -31.166 -17 -41.499s-25 -15.5 -41 -15.5c-12 0 -21.5 3.5 -28.5 10.5s-10.5 16.167 -10.5 27.5c0 17.333 5.66699 31.166 17 41.499s24.666 15.5 39.999 15.5zM293.001 666.999
c12 0 21.668 -3.5 29.001 -10.5s11 -16.167 11 -27.5c0 -17.333 -5.66699 -31.166 -17 -41.499s-25 -15.5 -41 -15.5c-12 0 -21.5 3.5 -28.5 10.5s-10.5 16.167 -10.5 27.5c0 17.333 5.66699 31.166 17 41.499s24.666 15.5 39.999 15.5z" />
    <glyph glyph-name="yacute" unicode="&#xfd;" horiz-adv-x="298" 
d="M56 512l80.002 -0.000976562l-25 -377h3l122 377h79l-212 -565c-8 -22.667 -18 -43.5 -30 -62.5s-25.833 -35.5 -41.5 -49.5s-33.334 -25 -53.001 -33s-41.5 -12 -65.5 -12l14 74c18 0 37.167 7.33301 57.5 22s36.166 37.334 47.499 68.001l13 36zM294.002 686.999
l-84 -137h-65l67 137h82z" />
    <glyph glyph-name="thorn" unicode="&#xfe;" horiz-adv-x="328" 
d="M78 81c1.33301 -5.33301 4.83398 -10.667 10.501 -16s13.167 -8 22.5 -8c29.333 0 49.666 28.333 60.999 85l46 237c1.33301 6 2.33301 11.833 3 17.5s1 11.167 1 16.5c0 12 -2.33301 22 -7 30s-13 12 -25 12c-10 0 -19 -4 -27 -12s-14.667 -16.667 -20 -26z
M21.001 -210.001h-79.999l179 920h71l-6 -75l-33 -169c9.33301 16 21.166 29.333 35.499 40s30.166 16 47.499 16c45.333 0 68 -29 68 -87c0 -20 -2.33301 -41.667 -7 -65l-41 -216c-10.667 -52.667 -27.5 -93.167 -50.5 -121.5s-51.5 -42.5 -85.5 -42.5
c-14 0 -25.167 2.5 -33.5 7.5s-15.166 11.5 -20.499 19.5z" />
    <glyph glyph-name="ydieresis" unicode="&#xff;" horiz-adv-x="298" 
d="M56 512l80.002 -0.000976562l-25 -377h3l122 377h79l-212 -565c-8 -22.667 -18 -43.5 -30 -62.5s-25.833 -35.5 -41.5 -49.5s-33.334 -25 -53.001 -33s-41.5 -12 -65.5 -12l14 74c18 0 37.167 7.33301 57.5 22s36.166 37.334 47.499 68.001l13 36zM151.002 666.999
c12 0 21.668 -3.5 29.001 -10.5s11 -16.167 11 -27.5c0 -17.333 -5.66699 -31.166 -17 -41.499s-25 -15.5 -41 -15.5c-12 0 -21.5 3.5 -28.5 10.5s-10.5 16.167 -10.5 27.5c0 17.333 5.66699 31.166 17 41.499s24.666 15.5 39.999 15.5zM276.003 666.999
c12 0 21.668 -3.5 29.001 -10.5s11 -16.167 11 -27.5c0 -17.333 -5.66699 -31.166 -17 -41.499s-25 -15.5 -41 -15.5c-12 0 -21.5 3.5 -28.5 10.5s-10.5 16.167 -10.5 27.5c0 17.333 5.66699 31.166 17 41.499s24.666 15.5 39.999 15.5z" />
    <glyph glyph-name="Amacron" unicode="&#x100;" horiz-adv-x="345" 
d="M-50 0l240 665h95l-20 -665h-83l6 142h-111l-48 -142h-79zM101 216h94l16 319h-4zM175 809h179l-13 -68h-179z" />
    <glyph glyph-name="amacron" unicode="&#x101;" horiz-adv-x="325" 
d="M220 429c-2 5.33301 -5.66797 11 -11.001 17s-13 9 -23 9c-16.667 0 -29.667 -7.66699 -39 -23s-16.666 -35 -21.999 -59l-46 -237c-1.33301 -7.33301 -2.33301 -14.5 -3 -21.5s-1 -13.167 -1 -18.5c0 -26 9.66699 -39 29 -39c9.33301 0 18.5 3.33301 27.5 10
s16.5 15.667 22.5 27zM176.999 522c21.333 0 37.333 -4.83203 48 -14.499s18.667 -20.834 24 -33.501l15 38h52l-80 -412c-2.66699 -13.333 -2.5 -22.833 0.5 -28.5s9.83301 -8.5 20.5 -8.5l-14 -73c-30 0 -50.667 4.83301 -62 14.5s-18.333 25.5 -21 47.5
c-11.333 -18 -24.5 -32.833 -39.5 -44.5s-32.5 -17.5 -52.5 -17.5c-23.333 0 -41.5 7.5 -54.5 22.5s-19.5 37.5 -19.5 67.5c0 8.66699 0.666992 18 2 28s3 20.667 5 32l44 230c10 52.667 26 91.167 48 115.5s50 36.5 84 36.5zM134.999 654.001h179l-13 -68h-179z" />
    <glyph glyph-name="Abreve" unicode="&#x102;" horiz-adv-x="345" 
d="M-50 0l240 665h95l-20 -665h-83l6 142h-111l-48 -142h-79zM101 216h94l16 319h-4zM361 826l-2 -12c-5.33301 -29.333 -17.666 -52.833 -36.999 -70.5s-44.333 -26.5 -75 -26.5c-31.333 0 -53.333 8.83301 -66 26.5s-16.334 41.167 -11.001 70.5l2 12h64l-2 -12
c-4 -24.667 4 -37 24 -37c21.333 0 34 12.333 38 37l2 12h63z" />
    <glyph glyph-name="abreve" unicode="&#x103;" horiz-adv-x="325" 
d="M220 429c-2 5.33301 -5.66797 11 -11.001 17s-13 9 -23 9c-16.667 0 -29.667 -7.66699 -39 -23s-16.666 -35 -21.999 -59l-46 -237c-1.33301 -7.33301 -2.33301 -14.5 -3 -21.5s-1 -13.167 -1 -18.5c0 -26 9.66699 -39 29 -39c9.33301 0 18.5 3.33301 27.5 10
s16.5 15.667 22.5 27zM176.999 522c21.333 0 37.333 -4.83203 48 -14.499s18.667 -20.834 24 -33.501l15 38h52l-80 -412c-2.66699 -13.333 -2.5 -22.833 0.5 -28.5s9.83301 -8.5 20.5 -8.5l-14 -73c-30 0 -50.667 4.83301 -62 14.5s-18.333 25.5 -21 47.5
c-11.333 -18 -24.5 -32.833 -39.5 -44.5s-32.5 -17.5 -52.5 -17.5c-23.333 0 -41.5 7.5 -54.5 22.5s-19.5 37.5 -19.5 67.5c0 8.66699 0.666992 18 2 28s3 20.667 5 32l44 230c10 52.667 26 91.167 48 115.5s50 36.5 84 36.5zM318.999 671.001l-2 -12
c-5.33301 -29.333 -17.666 -52.833 -36.999 -70.5s-44.333 -26.5 -75 -26.5c-31.333 0 -53.333 8.83301 -66 26.5s-16.334 41.167 -11.001 70.5l2 12h64l-2 -12c-4 -24.667 4 -37 24 -37c21.333 0 34 12.333 38 37l2 12h63z" />
    <glyph glyph-name="Aogonek" unicode="&#x104;" horiz-adv-x="345" 
d="M-50 0l239.999 665h95l-20 -665h-20c-30.667 -17.333 -55 -37.5 -73 -60.5s-27 -46.167 -27 -69.5c0 -14.667 5.33301 -22 16 -22c7.33301 0 13.666 2.33301 18.999 7s8.66602 13.667 9.99902 27l1 8h50l-1 -8c-3.33301 -22.667 -12.666 -42.667 -27.999 -60
s-35.666 -26 -60.999 -26c-21.333 0 -37.166 5.66699 -47.499 17s-15.5 26.333 -15.5 45c0 32 9 60.167 27 84.5s40.333 44.833 67 61.5l6 138h-111l-48 -142h-79zM100.999 216h94l16 319h-4z" />
    <glyph glyph-name="aogonek" unicode="&#x105;" horiz-adv-x="325" 
d="M177 522c21.333 0 37.333 -4.83203 48 -14.499s18.667 -20.834 24 -33.501l15 38h52l-80 -412c-2.66699 -13.333 -2.5 -22.833 0.5 -28.5s9.83301 -8.5 20.5 -8.5l-14 -73c-14.667 0 -26.334 1 -35.001 3c-27.333 -16.667 -48.833 -35.834 -64.5 -57.501
s-23.5 -43.5 -23.5 -65.5c0 -14.667 5.33301 -22 16 -22c7.33301 0 13.666 2.33301 18.999 7s8.66602 13.667 9.99902 27l1 8h50l-1 -8c-3.33301 -22.667 -12.666 -42.667 -27.999 -60s-35.666 -26 -60.999 -26c-21.333 0 -37.166 5.66699 -47.499 17s-15.5 26.333 -15.5 45
c0 35.333 10.667 65.833 32 91.5s47.333 46.834 78 63.501c-6.66699 9.33301 -11 22.333 -13 39c-11.333 -18 -24.5 -32.833 -39.5 -44.5s-32.5 -17.5 -52.5 -17.5c-48.667 0 -73 30.333 -73 91c0 17.333 2 37 6 59l44 230c10 52.667 26 91.167 48 115.5s50 36.5 84 36.5z
M220 429.001c-2 5.33301 -5.66797 11 -11.001 17s-13 9 -23 9c-16.667 0 -29.667 -7.66699 -39 -23s-16.666 -35 -21.999 -59l-46 -237c-1.33301 -7.33301 -2.33301 -14.5 -3 -21.5s-1 -13.167 -1 -18.5c0 -26 9.66699 -39 29 -39c9.33301 0 18.5 3.33301 27.5 10
s16.5 15.667 22.5 27z" />
    <glyph glyph-name="Cacute" unicode="&#x106;" horiz-adv-x="325" 
d="M246 481l5.99805 35c3.33301 15.333 5 28.333 5 39c0 13.333 -2.83301 24.5 -8.5 33.5s-15.167 13.5 -28.5 13.5c-18 0 -32.167 -7.66699 -42.5 -23s-18.166 -36.333 -23.499 -63l-71 -365c-2.66699 -12.667 -4 -25.667 -4 -39c0 -14 2.66699 -25.5 8 -34.5
s14.666 -13.5 27.999 -13.5c18.667 0 33.334 8.5 44.001 25.5s18 36.5 22 58.5l7 36h80l-6 -31c-10 -52 -28.5 -92.167 -55.5 -120.5s-62.167 -42.5 -105.5 -42.5c-34.667 0 -60.334 9.16699 -77.001 27.5s-25 45.166 -25 80.499c0 18 2 37.667 6 59l68 352
c10.667 54 29.334 95.167 56.001 123.5s61.334 42.5 104.001 42.5c34.667 0 60.667 -9.66699 78 -29s26 -46.666 26 -81.999c0 -16 -2 -34 -6 -54l-5 -29h-80zM340.998 842l-84 -137h-65l67 137h82z" />
    <glyph glyph-name="cacute" unicode="&#x107;" horiz-adv-x="309" 
d="M199 324l10 49c1.33301 7.33301 2.5 14.333 3.5 21s1.5 13 1.5 19c0 12.667 -2.33301 22.834 -7 30.501s-12.667 11.5 -24 11.5c-17.333 0 -30.333 -7.83301 -39 -23.5s-15.334 -35.5 -20.001 -59.5l-45 -231c-3.33301 -16.667 -5 -30.667 -5 -42
c0 -12.667 2.33301 -22.834 7 -30.501s12.667 -11.5 24 -11.5c17.333 0 30 7.66699 38 23s14.667 35 20 59l10 49h76l-7 -37c-11.333 -52 -28.333 -91.833 -51 -119.5s-55.667 -41.5 -99 -41.5c-33.333 0 -57.666 8.83301 -72.999 26.5s-23 43.167 -23 76.5
c0 9.33301 0.666992 19.166 2 29.499s3 21.166 5 32.499l40 203c10 52.667 27.167 93.167 51.5 121.5s57.833 42.5 100.5 42.5c33.333 0 57.5 -8.33301 72.5 -25s22.5 -41 22.5 -73c0 -9.33301 -0.5 -19.166 -1.5 -29.499s-2.83301 -21.166 -5.5 -32.499l-8 -38h-76z
M300 687l-84 -137h-65l67 137h82z" />
    <glyph glyph-name="Ccircumflex" unicode="&#x108;" horiz-adv-x="325" 
d="M246 481l5.99805 35c3.33301 15.333 5 28.333 5 39c0 13.333 -2.83301 24.5 -8.5 33.5s-15.167 13.5 -28.5 13.5c-18 0 -32.167 -7.66699 -42.5 -23s-18.166 -36.333 -23.499 -63l-71 -365c-2.66699 -12.667 -4 -25.667 -4 -39c0 -14 2.66699 -25.5 8 -34.5
s14.666 -13.5 27.999 -13.5c18.667 0 33.334 8.5 44.001 25.5s18 36.5 22 58.5l7 36h80l-6 -31c-10 -52 -28.5 -92.167 -55.5 -120.5s-62.167 -42.5 -105.5 -42.5c-34.667 0 -60.334 9.16699 -77.001 27.5s-25 45.166 -25 80.499c0 18 2 37.667 6 59l68 352
c10.667 54 29.334 95.167 56.001 123.5s61.334 42.5 104.001 42.5c34.667 0 60.667 -9.66699 78 -29s26 -46.666 26 -81.999c0 -16 -2 -34 -6 -54l-5 -29h-80zM297.998 842l35 -137h-63l-16 84l-48 -84h-63l88 137h67z" />
    <glyph glyph-name="ccircumflex" unicode="&#x109;" horiz-adv-x="309" 
d="M199 324l10 49c1.33301 7.33301 2.5 14.333 3.5 21s1.5 13 1.5 19c0 12.667 -2.33301 22.834 -7 30.501s-12.667 11.5 -24 11.5c-17.333 0 -30.333 -7.83301 -39 -23.5s-15.334 -35.5 -20.001 -59.5l-45 -231c-3.33301 -16.667 -5 -30.667 -5 -42
c0 -12.667 2.33301 -22.834 7 -30.501s12.667 -11.5 24 -11.5c17.333 0 30 7.66699 38 23s14.667 35 20 59l10 49h76l-7 -37c-11.333 -52 -28.333 -91.833 -51 -119.5s-55.667 -41.5 -99 -41.5c-33.333 0 -57.666 8.83301 -72.999 26.5s-23 43.167 -23 76.5
c0 9.33301 0.666992 19.166 2 29.499s3 21.166 5 32.499l40 203c10 52.667 27.167 93.167 51.5 121.5s57.833 42.5 100.5 42.5c33.333 0 57.5 -8.33301 72.5 -25s22.5 -41 22.5 -73c0 -9.33301 -0.5 -19.166 -1.5 -29.499s-2.83301 -21.166 -5.5 -32.499l-8 -38h-76z
M260 687l35 -137h-63l-16 84l-48 -84h-63l88 137h67z" />
    <glyph glyph-name="Cdotaccent" unicode="&#x10a;" horiz-adv-x="325" 
d="M246 481l5.99805 35c3.33301 15.333 5 28.333 5 39c0 13.333 -2.83301 24.5 -8.5 33.5s-15.167 13.5 -28.5 13.5c-18 0 -32.167 -7.66699 -42.5 -23s-18.166 -36.333 -23.499 -63l-71 -365c-2.66699 -12.667 -4 -25.667 -4 -39c0 -14 2.66699 -25.5 8 -34.5
s14.666 -13.5 27.999 -13.5c18.667 0 33.334 8.5 44.001 25.5s18 36.5 22 58.5l7 36h80l-6 -31c-10 -52 -28.5 -92.167 -55.5 -120.5s-62.167 -42.5 -105.5 -42.5c-34.667 0 -60.334 9.16699 -77.001 27.5s-25 45.166 -25 80.499c0 18 2 37.667 6 59l68 352
c10.667 54 29.334 95.167 56.001 123.5s61.334 42.5 104.001 42.5c34.667 0 60.667 -9.66699 78 -29s26 -46.666 26 -81.999c0 -16 -2 -34 -6 -54l-5 -29h-80zM260.998 822c12 0 21.667 -3.49805 29 -10.498s11 -16.167 11 -27.5c0 -17.333 -5.83301 -31.333 -17.5 -42
s-25.5 -16 -41.5 -16c-12 0 -21.667 3.66699 -29 11s-11 16.666 -11 27.999c0 17.333 5.83301 31.166 17.5 41.499s25.5 15.5 41.5 15.5z" />
    <glyph glyph-name="cdotaccent" unicode="&#x10b;" horiz-adv-x="309" 
d="M199 324l10 49c1.33301 7.33301 2.5 14.333 3.5 21s1.5 13 1.5 19c0 12.667 -2.33301 22.834 -7 30.501s-12.667 11.5 -24 11.5c-17.333 0 -30.333 -7.83301 -39 -23.5s-15.334 -35.5 -20.001 -59.5l-45 -231c-3.33301 -16.667 -5 -30.667 -5 -42
c0 -12.667 2.33301 -22.834 7 -30.501s12.667 -11.5 24 -11.5c17.333 0 30 7.66699 38 23s14.667 35 20 59l10 49h76l-7 -37c-11.333 -52 -28.333 -91.833 -51 -119.5s-55.667 -41.5 -99 -41.5c-33.333 0 -57.666 8.83301 -72.999 26.5s-23 43.167 -23 76.5
c0 9.33301 0.666992 19.166 2 29.499s3 21.166 5 32.499l40 203c10 52.667 27.167 93.167 51.5 121.5s57.833 42.5 100.5 42.5c33.333 0 57.5 -8.33301 72.5 -25s22.5 -41 22.5 -73c0 -9.33301 -0.5 -19.166 -1.5 -29.499s-2.83301 -21.166 -5.5 -32.499l-8 -38h-76z
M223 667c12 0 21.667 -3.49805 29 -10.498s11 -16.167 11 -27.5c0 -17.333 -5.83301 -31.333 -17.5 -42s-25.5 -16 -41.5 -16c-12 0 -21.667 3.66699 -29 11s-11 16.666 -11 27.999c0 17.333 5.83301 31.166 17.5 41.499s25.5 15.5 41.5 15.5z" />
    <glyph glyph-name="Ccaron" unicode="&#x10c;" horiz-adv-x="325" 
d="M246 481l5.99805 35c3.33301 15.333 5 28.333 5 39c0 13.333 -2.83301 24.5 -8.5 33.5s-15.167 13.5 -28.5 13.5c-18 0 -32.167 -7.66699 -42.5 -23s-18.166 -36.333 -23.499 -63l-71 -365c-2.66699 -12.667 -4 -25.667 -4 -39c0 -14 2.66699 -25.5 8 -34.5
s14.666 -13.5 27.999 -13.5c18.667 0 33.334 8.5 44.001 25.5s18 36.5 22 58.5l7 36h80l-6 -31c-10 -52 -28.5 -92.167 -55.5 -120.5s-62.167 -42.5 -105.5 -42.5c-34.667 0 -60.334 9.16699 -77.001 27.5s-25 45.166 -25 80.499c0 18 2 37.667 6 59l68 352
c10.667 54 29.334 95.167 56.001 123.5s61.334 42.5 104.001 42.5c34.667 0 60.667 -9.66699 78 -29s26 -46.666 26 -81.999c0 -16 -2 -34 -6 -54l-5 -29h-80zM205.998 705l-34 137h60l16 -85l48 85h60l-86 -137h-64z" />
    <glyph glyph-name="ccaron" unicode="&#x10d;" horiz-adv-x="309" 
d="M199 324l10 49c1.33301 7.33301 2.5 14.333 3.5 21s1.5 13 1.5 19c0 12.667 -2.33301 22.834 -7 30.501s-12.667 11.5 -24 11.5c-17.333 0 -30.333 -7.83301 -39 -23.5s-15.334 -35.5 -20.001 -59.5l-45 -231c-3.33301 -16.667 -5 -30.667 -5 -42
c0 -12.667 2.33301 -22.834 7 -30.501s12.667 -11.5 24 -11.5c17.333 0 30 7.66699 38 23s14.667 35 20 59l10 49h76l-7 -37c-11.333 -52 -28.333 -91.833 -51 -119.5s-55.667 -41.5 -99 -41.5c-33.333 0 -57.666 8.83301 -72.999 26.5s-23 43.167 -23 76.5
c0 9.33301 0.666992 19.166 2 29.499s3 21.166 5 32.499l40 203c10 52.667 27.167 93.167 51.5 121.5s57.833 42.5 100.5 42.5c33.333 0 57.5 -8.33301 72.5 -25s22.5 -41 22.5 -73c0 -9.33301 -0.5 -19.166 -1.5 -29.499s-2.83301 -21.166 -5.5 -32.499l-8 -38h-76z
M165 550l-34 137h60l16 -85l48 85h60l-86 -137h-64z" />
    <glyph glyph-name="Dcaron" unicode="&#x10e;" horiz-adv-x="349" 
d="M276 167c-10.667 -54.667 -29.333 -96.1689 -56 -124.502s-61.667 -42.5 -105 -42.5h-133l129 665h133c69.333 0 104 -36 104 -108c0 -9.33301 -0.666992 -18.666 -2 -27.999s-3 -19.666 -5 -30.999zM263.001 506.998c2 10.667 3 21.333 3 32
c0 14.667 -2.83301 26.667 -8.5 36s-15.167 14 -28.5 14h-52l-101 -516h52c9.33301 0 17.666 2.5 24.999 7.5s13.833 11.667 19.5 20s10.334 17.5 14.001 27.5s6.5 20 8.5 30zM215.001 704.997l-34 137h60l16 -85l48 85h60l-86 -137h-64z" />
    <glyph glyph-name="dcaron" unicode="&#x10f;" horiz-adv-x="388" 
d="M220 429c-2 5.33301 -5.66699 11 -11 17s-13 9 -23 9c-16.667 0 -29.667 -7.66699 -39 -23s-16.333 -35 -21 -59l-46 -237c-1.33301 -8 -2.5 -15.333 -3.5 -22s-1.5 -13 -1.5 -19c0 -25.333 9.66699 -38 29 -38c9.33301 0 18.5 3.33301 27.5 10s16.5 15.667 22.5 27z
M235 98c-2 -12.667 -1.50098 -21.667 1.49902 -27s9.83301 -8 20.5 -8l-14 -73c-30 0 -50.667 4.83301 -62 14.5s-18.333 25.5 -21 47.5c-11.333 -18 -24.5 -32.833 -39.5 -44.5s-33.167 -17.5 -54.5 -17.5c-23.333 0 -41.166 7.5 -53.499 22.5s-18.5 37.5 -18.5 67.5
c0 8.66699 0.666992 18 2 28s3 20.667 5 32l44 230c10.667 54 26.5 92.833 47.5 116.5s46.5 35.5 76.5 35.5c18 0 31.833 -4 41.5 -12s16.167 -17.333 19.5 -28l44 228h73l-8 -75zM402.999 563h-41l42 134h63z" />
    <glyph glyph-name="Dcroat" unicode="&#x110;" horiz-adv-x="354" 
d="M19 369h39.001l58 296h133c68.667 0 103 -36 103 -108c0 -17.333 -2 -37 -6 -59l-65 -331c-10.667 -54.667 -29.334 -96.167 -56.001 -124.5s-61.667 -42.5 -105 -42.5h-133l58 295h-40zM268.001 507c2 10.667 3 21.333 3 32c0 14.667 -2.83301 26.667 -8.5 36
s-15.167 14 -28.5 14h-52l-44 -220h52l-14 -74h-51l-44 -222h52c9.33301 0 17.666 2.5 24.999 7.5s13.833 11.667 19.5 20s10.334 17.5 14.001 27.5s6.5 20 8.5 30z" />
    <glyph glyph-name="dcroat" unicode="&#x111;" horiz-adv-x="330" 
d="M338 629h38.001l-10 -49h-38l-93 -482c-4.66699 -23.333 2.66602 -35 21.999 -35l-14 -73c-30 0 -50.667 4.83301 -62 14.5s-18.333 25.5 -21 47.5c-11.333 -18 -24.5 -32.833 -39.5 -44.5s-32.5 -17.5 -52.5 -17.5c-48.667 0 -73 30.333 -73 91c0 17.333 2 37 6 59
l44 230c10 52.667 25.667 91.167 47 115.5s47.333 36.5 78 36.5c17.333 0 30.833 -4 40.5 -12s16.167 -17.333 19.5 -28l19 98h-98l9 49h98l16 81h73l-8 -75zM220.001 429c-2 5.33301 -5.66797 11 -11.001 17s-13 9 -23 9c-16.667 0 -29.667 -7.66699 -39 -23
s-16.666 -35 -21.999 -59l-46 -237c-1.33301 -7.33301 -2.33301 -14.5 -3 -21.5s-1 -13.167 -1 -18.5c0 -26 9.66699 -39 29 -39c9.33301 0 18.5 3.33301 27.5 10s16.5 15.667 22.5 27z" />
    <glyph glyph-name="Emacron" unicode="&#x112;" horiz-adv-x="293" 
d="M320 589h-143l-38 -196h118l-15 -73h-118l-48 -247h143l-13 -73h-224l129 665h224zM157 809h179l-13 -68h-179z" />
    <glyph glyph-name="emacron" unicode="&#x113;" horiz-adv-x="317" 
d="M110 293c25.333 2 45.832 7.33203 61.499 15.999s26.5 26.334 32.5 53.001l6 27c3.33301 18 3.33301 33.5 0 46.5s-12.666 19.5 -27.999 19.5c-16.667 0 -29.167 -8 -37.5 -24s-14.833 -35.333 -19.5 -58zM167.999 161.999l78.999 0.00292969l-3 -16
c-10.667 -50 -28 -88.5 -52 -115.5s-57.333 -40.5 -100 -40.5c-34 0 -58.667 8.33301 -74 25s-23 41 -23 73c0 18.667 2.66699 40.667 8 66l39 203c10.667 53.333 28 94.166 52 122.499s57.667 42.5 101 42.5c32 0 56.167 -9 72.5 -27s24.5 -42.333 24.5 -73
c0 -14 -1.33301 -27.333 -4 -40l-7 -33c-5.33301 -24 -14 -43.333 -26 -58s-26.167 -26.334 -42.5 -35.001s-34.5 -14.834 -54.5 -18.501s-40.333 -6.5 -61 -8.5l-18 -90c-1.33301 -7.33301 -2.33301 -14.5 -3 -21.5s-1 -13.5 -1 -19.5c0 -12.667 2 -22.667 6 -30
s11.667 -11 23 -11c17.333 0 30.333 7.83301 39 23.5s15.334 35.167 20.001 58.5zM126.998 654.002h179l-13 -68h-179z" />
    <glyph glyph-name="Ebreve" unicode="&#x114;" horiz-adv-x="293" 
d="M320 589h-143l-38 -196h118l-15 -73h-118l-48 -247h143l-13 -73h-224l129 665h224zM343 826l-2 -12c-5.33301 -29.333 -17.666 -52.833 -36.999 -70.5s-44.333 -26.5 -75 -26.5c-31.333 0 -53.333 8.83301 -66 26.5s-16.334 41.167 -11.001 70.5l2 12h64l-2 -12
c-4 -24.667 4 -37 24 -37c21.333 0 34 12.333 38 37l2 12h63z" />
    <glyph glyph-name="ebreve" unicode="&#x115;" horiz-adv-x="317" 
d="M110 293c25.333 2 45.832 7.33203 61.499 15.999s26.5 26.334 32.5 53.001l6 27c3.33301 18 3.33301 33.5 0 46.5s-12.666 19.5 -27.999 19.5c-16.667 0 -29.167 -8 -37.5 -24s-14.833 -35.333 -19.5 -58zM167.999 161.999l78.999 0.00292969l-3 -16
c-10.667 -50 -28 -88.5 -52 -115.5s-57.333 -40.5 -100 -40.5c-34 0 -58.667 8.33301 -74 25s-23 41 -23 73c0 18.667 2.66699 40.667 8 66l39 203c10.667 53.333 28 94.166 52 122.499s57.667 42.5 101 42.5c32 0 56.167 -9 72.5 -27s24.5 -42.333 24.5 -73
c0 -14 -1.33301 -27.333 -4 -40l-7 -33c-5.33301 -24 -14 -43.333 -26 -58s-26.167 -26.334 -42.5 -35.001s-34.5 -14.834 -54.5 -18.501s-40.333 -6.5 -61 -8.5l-18 -90c-1.33301 -7.33301 -2.33301 -14.5 -3 -21.5s-1 -13.5 -1 -19.5c0 -12.667 2 -22.667 6 -30
s11.667 -11 23 -11c17.333 0 30.333 7.83301 39 23.5s15.334 35.167 20.001 58.5zM312.998 671.002l-2 -12c-5.33301 -29.333 -17.666 -52.833 -36.999 -70.5s-44.333 -26.5 -75 -26.5c-31.333 0 -53.333 8.83301 -66 26.5s-16.334 41.167 -11.001 70.5l2 12h64l-2 -12
c-4 -24.667 4 -37 24 -37c21.333 0 34 12.333 38 37l2 12h63z" />
    <glyph glyph-name="Edotaccent" unicode="&#x116;" horiz-adv-x="293" 
d="M320 589h-143l-38 -196h118l-15 -73h-118l-48 -247h143l-13 -73h-224l129 665h224zM250 822c12 0 21.667 -3.49805 29 -10.498s11 -16.167 11 -27.5c0 -17.333 -5.83301 -31.333 -17.5 -42s-25.5 -16 -41.5 -16c-12 0 -21.667 3.66699 -29 11s-11 16.666 -11 27.999
c0 17.333 5.83301 31.166 17.5 41.499s25.5 15.5 41.5 15.5z" />
    <glyph glyph-name="edotaccent" unicode="&#x117;" horiz-adv-x="317" 
d="M110 293c25.333 2 45.832 7.33203 61.499 15.999s26.5 26.334 32.5 53.001l6 27c3.33301 18 3.33301 33.5 0 46.5s-12.666 19.5 -27.999 19.5c-16.667 0 -29.167 -8 -37.5 -24s-14.833 -35.333 -19.5 -58zM167.999 161.999l78.999 0.00292969l-3 -16
c-10.667 -50 -28 -88.5 -52 -115.5s-57.333 -40.5 -100 -40.5c-34 0 -58.667 8.33301 -74 25s-23 41 -23 73c0 18.667 2.66699 40.667 8 66l39 203c10.667 53.333 28 94.166 52 122.499s57.667 42.5 101 42.5c32 0 56.167 -9 72.5 -27s24.5 -42.333 24.5 -73
c0 -14 -1.33301 -27.333 -4 -40l-7 -33c-5.33301 -24 -14 -43.333 -26 -58s-26.167 -26.334 -42.5 -35.001s-34.5 -14.834 -54.5 -18.501s-40.333 -6.5 -61 -8.5l-18 -90c-1.33301 -7.33301 -2.33301 -14.5 -3 -21.5s-1 -13.5 -1 -19.5c0 -12.667 2 -22.667 6 -30
s11.667 -11 23 -11c17.333 0 30.333 7.83301 39 23.5s15.334 35.167 20.001 58.5zM219.998 667.002c12 0 21.667 -3.49805 29 -10.498s11 -16.167 11 -27.5c0 -17.333 -5.83301 -31.333 -17.5 -42s-25.5 -16 -41.5 -16c-12 0 -21.667 3.66699 -29 11s-11 16.666 -11 27.999
c0 17.333 5.83301 31.166 17.5 41.499s25.5 15.5 41.5 15.5z" />
    <glyph glyph-name="Eogonek" unicode="&#x118;" horiz-adv-x="293" 
d="M320 589l-143.003 0.000976562l-38 -196h118l-15 -73h-118l-48 -247h143l-13 -73h-18c-30.667 -17.333 -55.167 -37.5 -73.5 -60.5s-27.5 -46.167 -27.5 -69.5c0 -14.667 5.66699 -22 17 -22c6.66699 0 12.834 2.33301 18.501 7s9.16699 13.667 10.5 27l1 8h50l-1 -8
c-3.33301 -22.667 -12.666 -42.667 -27.999 -60s-35.666 -26 -60.999 -26c-21.333 0 -37.333 5.66699 -48 17s-16 26.333 -16 45c0 31.333 8.5 58.666 25.5 81.999s38.167 43.333 63.5 60h-137l129 665h224z" />
    <glyph glyph-name="eogonek" unicode="&#x119;" horiz-adv-x="317" 
d="M169 162l78.9971 0.00390625l-3 -16c-14 -66.667 -40.667 -112.667 -80 -138c-30 -19.333 -53.5 -41.333 -70.5 -66s-25.5 -48.667 -25.5 -72c0 -14.667 5.33301 -22 16 -22c7.33301 0 13.5 2.66699 18.5 8s8.5 14.666 10.5 27.999l1 6h50l-1 -8
c-3.33301 -22.667 -12.666 -42.667 -27.999 -60s-35.666 -26 -60.999 -26c-21.333 0 -37.166 5.66699 -47.499 17s-15.5 26.333 -15.5 45c0 28 7 53 21 75s31.667 41 53 57c-32 1.33301 -54.833 10.333 -68.5 27s-20.5 40.667 -20.5 72c0 20.667 2.33301 42.334 7 65.001
l39 203c10.667 53.333 28 94.166 52 122.499s57.667 42.5 101 42.5c32 0 56.167 -9 72.5 -27s24.5 -42.333 24.5 -73c0 -14 -1.33301 -27.333 -4 -40l-7 -33c-5.33301 -24 -14 -43.333 -26 -58s-26.167 -26.334 -42.5 -35.001s-34.5 -14.834 -54.5 -18.501
s-40.333 -6.5 -61 -8.5l-18 -90c-3.33301 -16.667 -5 -30.334 -5 -41.001c0 -12 2.16699 -21.833 6.5 -29.5s12.166 -11.5 23.499 -11.5c17.333 0 30.333 7.83301 39 23.5s15.334 35.167 20.001 58.5zM110.997 293.004c25.333 2 45.832 7.33203 61.499 15.999
s26.5 26.334 32.5 53.001l6 27c3.33301 18 3.33301 33.5 0 46.5s-12.666 19.5 -27.999 19.5c-16.667 0 -29.167 -8 -37.5 -24s-14.833 -35.333 -19.5 -58z" />
    <glyph glyph-name="Ecaron" unicode="&#x11a;" horiz-adv-x="293" 
d="M320 589h-143l-38 -196h118l-15 -73h-118l-48 -247h143l-13 -73h-224l129 665h224zM195 705l-34 137h60l16 -85l48 85h60l-86 -137h-64z" />
    <glyph glyph-name="ecaron" unicode="&#x11b;" horiz-adv-x="317" 
d="M110 293c25.333 2 45.832 7.33203 61.499 15.999s26.5 26.334 32.5 53.001l6 27c3.33301 18 3.33301 33.5 0 46.5s-12.666 19.5 -27.999 19.5c-16.667 0 -29.167 -8 -37.5 -24s-14.833 -35.333 -19.5 -58zM167.999 161.999l78.999 0.00292969l-3 -16
c-10.667 -50 -28 -88.5 -52 -115.5s-57.333 -40.5 -100 -40.5c-34 0 -58.667 8.33301 -74 25s-23 41 -23 73c0 18.667 2.66699 40.667 8 66l39 203c10.667 53.333 28 94.166 52 122.499s57.667 42.5 101 42.5c32 0 56.167 -9 72.5 -27s24.5 -42.333 24.5 -73
c0 -14 -1.33301 -27.333 -4 -40l-7 -33c-5.33301 -24 -14 -43.333 -26 -58s-26.167 -26.334 -42.5 -35.001s-34.5 -14.834 -54.5 -18.501s-40.333 -6.5 -61 -8.5l-18 -90c-1.33301 -7.33301 -2.33301 -14.5 -3 -21.5s-1 -13.5 -1 -19.5c0 -12.667 2 -22.667 6 -30
s11.667 -11 23 -11c17.333 0 30.333 7.83301 39 23.5s15.334 35.167 20.001 58.5zM164.998 550.002l-34 137h60l16 -85l48 85h60l-86 -137h-64z" />
    <glyph glyph-name="Gcircumflex" unicode="&#x11c;" horiz-adv-x="336" 
d="M170 307l14 73h128l-44 -226c-10 -53.333 -28.833 -94 -56.5 -122s-63.5 -42 -107.5 -42c-34.667 0 -60.834 9.33301 -78.501 28s-26.5 46 -26.5 82c0 16 2 34.667 6 56l68 353c10.667 54 29.667 95.167 57 123.5s62.666 42.5 105.999 42.5
c70.667 0 106 -37.333 106 -112c0 -10 -0.666992 -20.5 -2 -31.5s-3.33301 -23.167 -6 -36.5l-2 -14h-80l6 35c3.33301 13.333 5 25 5 35c0 14 -3 26 -9 36s-16.333 15 -31 15c-9.33301 0 -17.833 -2.5 -25.5 -7.5s-14.167 -11.5 -19.5 -19.5s-10 -17.167 -14 -27.5
s-7 -20.833 -9 -31.5l-72 -367c-2.66699 -11.333 -4 -23.333 -4 -36c0 -14 2.83301 -25.667 8.5 -35s15.834 -14 30.501 -14c10 0 18.833 2.33301 26.5 7s14.334 11 20.001 19s10.5 17 14.5 27s7 20.333 9 31l30 159h-48zM297 842l35 -137h-63l-16 84l-48 -84h-63l88 137h67
z" />
    <glyph glyph-name="gcircumflex" unicode="&#x11d;" horiz-adv-x="325" 
d="M219 428c-1.33301 7.33301 -4.99902 13.668 -10.999 19.001s-13.667 8 -23 8c-16 0 -28.667 -7.66699 -38 -23s-16.333 -35 -21 -59l-46 -234c-1.33301 -8 -2.5 -15.5 -3.5 -22.5s-1.5 -13.5 -1.5 -19.5c0 -12 2.16699 -21.667 6.5 -29s12.166 -11 23.499 -11
c10 0 19.167 3.66699 27.5 11s15.833 16.666 22.5 27.999zM41.001 -64.998l-2 -9.99902c-4 -21.333 -3.66699 -38 1 -50s13.667 -18 27 -18c17.333 0 30 7.66699 38 23s14.333 35.333 19 60l21 105c-10 -16.667 -21.667 -30 -35 -40s-29 -15 -47 -15
c-23.333 0 -40.666 6.33301 -51.999 19s-17 33.667 -17 63c0 23.333 3.33301 50.666 10 81.999l39 204c10 52.667 26.333 93.167 49 121.5s51.667 42.5 87 42.5c21.333 0 37.166 -4.83301 47.499 -14.5s17.833 -20.834 22.5 -33.501l15 38h52l-109 -558
c-10 -53.333 -27.333 -94 -52 -122s-58 -42 -100 -42c-32 0 -56.667 7.66699 -74 23s-26 38 -26 68c0 10.667 1.66699 24.334 5 41.001l2 13h79zM265.001 687.003l35 -137h-63l-16 84l-48 -84h-63l88 137h67z" />
    <glyph glyph-name="Gbreve" unicode="&#x11e;" horiz-adv-x="336" 
d="M170 307l14 73h128l-44 -226c-10 -53.333 -28.833 -94 -56.5 -122s-63.5 -42 -107.5 -42c-34.667 0 -60.834 9.33301 -78.501 28s-26.5 46 -26.5 82c0 16 2 34.667 6 56l68 353c10.667 54 29.667 95.167 57 123.5s62.666 42.5 105.999 42.5
c70.667 0 106 -37.333 106 -112c0 -10 -0.666992 -20.5 -2 -31.5s-3.33301 -23.167 -6 -36.5l-2 -14h-80l6 35c3.33301 13.333 5 25 5 35c0 14 -3 26 -9 36s-16.333 15 -31 15c-9.33301 0 -17.833 -2.5 -25.5 -7.5s-14.167 -11.5 -19.5 -19.5s-10 -17.167 -14 -27.5
s-7 -20.833 -9 -31.5l-72 -367c-2.66699 -11.333 -4 -23.333 -4 -36c0 -14 2.83301 -25.667 8.5 -35s15.834 -14 30.501 -14c10 0 18.833 2.33301 26.5 7s14.334 11 20.001 19s10.5 17 14.5 27s7 20.333 9 31l30 159h-48zM354 826l-2 -12
c-5.33301 -29.333 -17.666 -52.833 -36.999 -70.5s-44.333 -26.5 -75 -26.5c-31.333 0 -53.333 8.83301 -66 26.5s-16.334 41.167 -11.001 70.5l2 12h64l-2 -12c-4 -24.667 4 -37 24 -37c21.333 0 34 12.333 38 37l2 12h63z" />
    <glyph glyph-name="gbreve" unicode="&#x11f;" horiz-adv-x="325" 
d="M219 428c-1.33301 7.33301 -4.99902 13.668 -10.999 19.001s-13.667 8 -23 8c-16 0 -28.667 -7.66699 -38 -23s-16.333 -35 -21 -59l-46 -234c-1.33301 -8 -2.5 -15.5 -3.5 -22.5s-1.5 -13.5 -1.5 -19.5c0 -12 2.16699 -21.667 6.5 -29s12.166 -11 23.499 -11
c10 0 19.167 3.66699 27.5 11s15.833 16.666 22.5 27.999zM41.001 -64.998l-2 -9.99902c-4 -21.333 -3.66699 -38 1 -50s13.667 -18 27 -18c17.333 0 30 7.66699 38 23s14.333 35.333 19 60l21 105c-10 -16.667 -21.667 -30 -35 -40s-29 -15 -47 -15
c-23.333 0 -40.666 6.33301 -51.999 19s-17 33.667 -17 63c0 23.333 3.33301 50.666 10 81.999l39 204c10 52.667 26.333 93.167 49 121.5s51.667 42.5 87 42.5c21.333 0 37.166 -4.83301 47.499 -14.5s17.833 -20.834 22.5 -33.501l15 38h52l-109 -558
c-10 -53.333 -27.333 -94 -52 -122s-58 -42 -100 -42c-32 0 -56.667 7.66699 -74 23s-26 38 -26 68c0 10.667 1.66699 24.334 5 41.001l2 13h79zM321.001 671.003l-2 -12c-5.33301 -29.333 -17.666 -52.833 -36.999 -70.5s-44.333 -26.5 -75 -26.5
c-31.333 0 -53.333 8.83301 -66 26.5s-16.334 41.167 -11.001 70.5l2 12h64l-2 -12c-4 -24.667 4 -37 24 -37c21.333 0 34 12.333 38 37l2 12h63z" />
    <glyph glyph-name="Gdotaccent" unicode="&#x120;" horiz-adv-x="336" 
d="M170 307l14 73h128l-44 -226c-10 -53.333 -28.833 -94 -56.5 -122s-63.5 -42 -107.5 -42c-34.667 0 -60.834 9.33301 -78.501 28s-26.5 46 -26.5 82c0 16 2 34.667 6 56l68 353c10.667 54 29.667 95.167 57 123.5s62.666 42.5 105.999 42.5
c70.667 0 106 -37.333 106 -112c0 -10 -0.666992 -20.5 -2 -31.5s-3.33301 -23.167 -6 -36.5l-2 -14h-80l6 35c3.33301 13.333 5 25 5 35c0 14 -3 26 -9 36s-16.333 15 -31 15c-9.33301 0 -17.833 -2.5 -25.5 -7.5s-14.167 -11.5 -19.5 -19.5s-10 -17.167 -14 -27.5
s-7 -20.833 -9 -31.5l-72 -367c-2.66699 -11.333 -4 -23.333 -4 -36c0 -14 2.83301 -25.667 8.5 -35s15.834 -14 30.501 -14c10 0 18.833 2.33301 26.5 7s14.334 11 20.001 19s10.5 17 14.5 27s7 20.333 9 31l30 159h-48zM260 822c12 0 21.667 -3.49805 29 -10.498
s11 -16.167 11 -27.5c0 -17.333 -5.83301 -31.333 -17.5 -42s-25.5 -16 -41.5 -16c-12 0 -21.667 3.66699 -29 11s-11 16.666 -11 27.999c0 17.333 5.83301 31.166 17.5 41.499s25.5 15.5 41.5 15.5z" />
    <glyph glyph-name="gdotaccent" unicode="&#x121;" horiz-adv-x="325" 
d="M219 428c-1.33301 7.33301 -4.99902 13.668 -10.999 19.001s-13.667 8 -23 8c-16 0 -28.667 -7.66699 -38 -23s-16.333 -35 -21 -59l-46 -234c-1.33301 -8 -2.5 -15.5 -3.5 -22.5s-1.5 -13.5 -1.5 -19.5c0 -12 2.16699 -21.667 6.5 -29s12.166 -11 23.499 -11
c10 0 19.167 3.66699 27.5 11s15.833 16.666 22.5 27.999zM41.001 -64.998l-2 -9.99902c-4 -21.333 -3.66699 -38 1 -50s13.667 -18 27 -18c17.333 0 30 7.66699 38 23s14.333 35.333 19 60l21 105c-10 -16.667 -21.667 -30 -35 -40s-29 -15 -47 -15
c-23.333 0 -40.666 6.33301 -51.999 19s-17 33.667 -17 63c0 23.333 3.33301 50.666 10 81.999l39 204c10 52.667 26.333 93.167 49 121.5s51.667 42.5 87 42.5c21.333 0 37.166 -4.83301 47.499 -14.5s17.833 -20.834 22.5 -33.501l15 38h52l-109 -558
c-10 -53.333 -27.333 -94 -52 -122s-58 -42 -100 -42c-32 0 -56.667 7.66699 -74 23s-26 38 -26 68c0 10.667 1.66699 24.334 5 41.001l2 13h79zM228.001 667.003c12 0 21.667 -3.49805 29 -10.498s11 -16.167 11 -27.5c0 -17.333 -5.83301 -31.333 -17.5 -42
s-25.5 -16 -41.5 -16c-12 0 -21.667 3.66699 -29 11s-11 16.666 -11 27.999c0 17.333 5.83301 31.166 17.5 41.499s25.5 15.5 41.5 15.5z" />
    <glyph glyph-name="Gcommaaccent" unicode="&#x122;" horiz-adv-x="336" 
d="M170 307l14 73h128l-44 -226c-10 -53.333 -28.833 -94 -56.5 -122s-63.5 -42 -107.5 -42c-34.667 0 -60.834 9.33301 -78.501 28s-26.5 46 -26.5 82c0 16 2 34.667 6 56l68 353c10.667 54 29.667 95.167 57 123.5s62.666 42.5 105.999 42.5
c70.667 0 106 -37.333 106 -112c0 -10 -0.666992 -20.5 -2 -31.5s-3.33301 -23.167 -6 -36.5l-2 -14h-80l6 35c3.33301 13.333 5 25 5 35c0 14 -3 26 -9 36s-16.333 15 -31 15c-9.33301 0 -17.833 -2.5 -25.5 -7.5s-14.167 -11.5 -19.5 -19.5s-10 -17.167 -14 -27.5
s-7 -20.833 -9 -31.5l-72 -367c-2.66699 -11.333 -4 -23.333 -4 -36c0 -14 2.83301 -25.667 8.5 -35s15.834 -14 30.501 -14c10 0 18.833 2.33301 26.5 7s14.334 11 20.001 19s10.5 17 14.5 27s7 20.333 9 31l30 159h-48zM69 -168h-58l50 128h76z" />
    <glyph glyph-name="gcommaaccent" unicode="&#x123;" horiz-adv-x="325" 
d="M219 428c-1.33301 7.33301 -4.99902 13.668 -10.999 19.001s-13.667 8 -23 8c-16 0 -28.667 -7.66699 -38 -23s-16.333 -35 -21 -59l-46 -234c-1.33301 -8 -2.5 -15.5 -3.5 -22.5s-1.5 -13.5 -1.5 -19.5c0 -12 2.16699 -21.667 6.5 -29s12.166 -11 23.499 -11
c10 0 19.167 3.66699 27.5 11s15.833 16.666 22.5 27.999zM41.001 -64.998l-2 -9.99902c-4 -21.333 -3.66699 -38 1 -50s13.667 -18 27 -18c17.333 0 30 7.66699 38 23s14.333 35.333 19 60l21 105c-10 -16.667 -21.667 -30 -35 -40s-29 -15 -47 -15
c-23.333 0 -40.666 6.33301 -51.999 19s-17 33.667 -17 63c0 23.333 3.33301 50.666 10 81.999l39 204c10 52.667 26.333 93.167 49 121.5s51.667 42.5 87 42.5c21.333 0 37.166 -4.83301 47.499 -14.5s17.833 -20.834 22.5 -33.501l15 38h52l-109 -558
c-10 -53.333 -27.333 -94 -52 -122s-58 -42 -100 -42c-32 0 -56.667 7.66699 -74 23s-26 38 -26 68c0 10.667 1.66699 24.334 5 41.001l2 13h79zM239.001 683.003h53l-39 -128h-76z" />
    <glyph glyph-name="Hcircumflex" unicode="&#x124;" horiz-adv-x="364" 
d="M167 0l61 316h-110l-61 -316h-80l129 665h80l-53 -276h109l54 276h80l-129 -665h-80zM314 842l35 -137h-63l-16 84l-48 -84h-63l88 137h67z" />
    <glyph glyph-name="hcircumflex" unicode="&#x125;" horiz-adv-x="332" 
d="M153 467c9.33301 13.333 20.999 25.834 34.999 37.501s30.667 17.5 50 17.5c22.667 0 39 -6.66699 49 -20s15 -34 15 -62c0 -10.667 -0.5 -22.334 -1.5 -35.001s-3.16699 -26.334 -6.5 -41.001l-71 -364h-73l8 75l57 298c1.33301 8 2.5 15.667 3.5 23s1.5 14 1.5 20
c0 12 -2 21.5 -6 28.5s-11.333 10.5 -22 10.5s-20.167 -4.16699 -28.5 -12.5s-15.166 -18.166 -20.499 -29.499l-81 -413h-80l138 710h71l-5 -75zM278.999 877.001l35 -137h-63l-16 84l-48 -84h-63l88 137h67z" />
    <glyph glyph-name="Hbar" unicode="&#x126;" horiz-adv-x="364" 
d="M167 0l61 316h-109l-62 -316h-80l129 665h80l-24 -123h110l24 123h80l-129 -665h-80zM242 389l17 86h-110l-16 -86h109z" />
    <glyph glyph-name="hbar" unicode="&#x127;" horiz-adv-x="332" 
d="M185 629l110.999 0.000976562l-10 -49h-111l-22 -113c9.33301 13.333 21 25.833 35 37.5s30.667 17.5 50 17.5c22.667 0 39 -6.66699 49 -20s15 -34 15 -62c0 -10.667 -0.5 -22.334 -1.5 -35.001s-3.16699 -26.334 -6.5 -41.001l-71 -364h-73l8 75l57 298
c1.33301 8 2.5 15.667 3.5 23s1.5 14 1.5 20c0 12 -2 21.5 -6 28.5s-11.333 10.5 -22 10.5s-20.167 -4.16699 -28.5 -12.5s-15.166 -18.166 -20.499 -29.499l-81 -413h-80l112 580h-30l10 49h30l16 81h71l-5 -75z" />
    <glyph glyph-name="Itilde" unicode="&#x128;" horiz-adv-x="174" 
d="M-18 0l129 665h80l-129 -665h-80zM50 722c2.66699 18.667 6.82812 34.501 12.4951 47.501s12.334 23.5 20.001 31.5s15.834 13.667 24.501 17s17.334 5 26.001 5c10.667 0 19.834 -2 27.501 -6s14.167 -8.16699 19.5 -12.5l15 -12.5c4.66699 -4 10 -6 16 -6
c5.33301 0 10.166 2.33301 14.499 7s7.16602 13.667 8.49902 27l1 5h60l-1 -5c-7.33301 -38 -18.666 -64.667 -33.999 -80s-31.333 -23 -48 -23c-10 0 -18.667 2.16699 -26 6.5s-13.833 9 -19.5 14l-16 14c-5 4.33301 -10.167 6.5 -15.5 6.5s-10.666 -2.33301 -15.999 -7
s-8.66602 -14.334 -9.99902 -29.001v-5h-60z" />
    <glyph glyph-name="itilde" unicode="&#x129;" horiz-adv-x="172" 
d="M81 512h71l-5 -75l-85 -437h-80zM20 567c2.66699 18.667 6.82812 34.501 12.4951 47.501s12.334 23.5 20.001 31.5s15.834 13.667 24.501 17s17.334 5 26.001 5c10.667 0 19.834 -2 27.501 -6s14.167 -8.16699 19.5 -12.5l15 -12.5c4.66699 -4 10 -6 16 -6
c5.33301 0 10.166 2.33301 14.499 7s7.16602 13.667 8.49902 27l1 5h60l-1 -5c-7.33301 -38 -18.666 -64.667 -33.999 -80s-31.333 -23 -48 -23c-10 0 -18.667 2.16699 -26 6.5s-13.833 9 -19.5 14l-16 14c-5 4.33301 -10.167 6.5 -15.5 6.5s-10.666 -2.33301 -15.999 -7
s-8.66602 -14.334 -9.99902 -29.001v-5h-60z" />
    <glyph glyph-name="Imacron" unicode="&#x12a;" horiz-adv-x="174" 
d="M-18 0l129 665h80l-129 -665h-80zM89 809h179l-13 -68h-179z" />
    <glyph glyph-name="imacron" unicode="&#x12b;" horiz-adv-x="172" 
d="M81 512h71l-5 -75l-85 -437h-80zM59 654h179l-13 -68h-179z" />
    <glyph glyph-name="Ibreve" unicode="&#x12c;" horiz-adv-x="174" 
d="M-18 0l129 665h80l-129 -665h-80zM275 826l-2 -12c-5.33301 -29.333 -17.666 -52.833 -36.999 -70.5s-44.333 -26.5 -75 -26.5c-31.333 0 -53.333 8.83301 -66 26.5s-16.334 41.167 -11.001 70.5l2 12h64l-2 -12c-4 -24.667 4 -37 24 -37c21.333 0 34 12.333 38 37l2 12
h63z" />
    <glyph glyph-name="ibreve" unicode="&#x12d;" horiz-adv-x="172" 
d="M81 512h71l-5 -75l-85 -437h-80zM245 671l-2 -12c-5.33301 -29.333 -17.666 -52.833 -36.999 -70.5s-44.333 -26.5 -75 -26.5c-31.333 0 -53.333 8.83301 -66 26.5s-16.334 41.167 -11.001 70.5l2 12h64l-2 -12c-4 -24.667 4 -37 24 -37c21.333 0 34 12.333 38 37l2 12
h63z" />
    <glyph glyph-name="Iogonek" unicode="&#x12e;" horiz-adv-x="174" 
d="M44 0c-30.667 -17.333 -54.999 -37.5 -72.999 -60.5s-27 -46.167 -27 -69.5c0 -14.667 5.66699 -22 17 -22c6.66699 0 12.667 2.33301 18 7s8.66602 13.667 9.99902 27l1 8h50l-1 -8c-3.33301 -22.667 -12.5 -42.667 -27.5 -60s-35.5 -26 -61.5 -26
c-21.333 0 -37.166 5.66699 -47.499 17s-15.5 26.333 -15.5 45c0 32.667 9.16699 61.167 27.5 85.5s41.166 44.833 68.499 61.5l128 660h80l-129 -665h-18z" />
    <glyph glyph-name="iogonek" unicode="&#x12f;" horiz-adv-x="172" 
d="M81 512l70.999 0.000976562l-5 -75l-85 -437h-11c-30.667 -17.333 -55 -37.5 -73 -60.5s-27 -46.167 -27 -69.5c0 -14.667 5.33301 -22 16 -22c7.33301 0 13.666 2.33301 18.999 7s8.66602 13.667 9.99902 27l1 8h50l-1 -8c-3.33301 -22.667 -12.666 -42.667 -27.999 -60
s-35.666 -26 -60.999 -26c-21.333 0 -37.166 5.66699 -47.499 17s-15.5 26.333 -15.5 45c0 31.333 8.33301 58.666 25 81.999s37.667 43.333 63 60zM149.999 661.001c12 0 21.668 -3.5 29.001 -10.5s11 -16.167 11 -27.5c0 -17.333 -5.66699 -31.166 -17 -41.499
s-25 -15.5 -41 -15.5c-12 0 -21.5 3.5 -28.5 10.5s-10.5 16.167 -10.5 27.5c0 17.333 5.66699 31.166 17 41.499s24.666 15.5 39.999 15.5z" />
    <glyph glyph-name="Idotaccent" unicode="&#x130;" horiz-adv-x="174" 
d="M-18 0l129 665h80l-129 -665h-80zM182 822c12 0 21.667 -3.49805 29 -10.498s11 -16.167 11 -27.5c0 -17.333 -5.83301 -31.333 -17.5 -42s-25.5 -16 -41.5 -16c-12 0 -21.667 3.66699 -29 11s-11 16.666 -11 27.999c0 17.333 5.83301 31.166 17.5 41.499
s25.5 15.5 41.5 15.5z" />
    <glyph glyph-name="dotlessi" unicode="&#x131;" horiz-adv-x="172" 
d="M81 512h71l-5 -75l-85 -437h-80z" />
    <glyph glyph-name="IJ" unicode="&#x132;" horiz-adv-x="393" 
d="M-18 0l129 665h80l-129 -665h-80zM143 63c28.667 1.33301 49.833 10.668 63.5 28.001s22.5 36.666 26.5 57.999l101 516h79l-98 -508c-20 -106 -82 -162 -186 -168z" />
    <glyph glyph-name="ij" unicode="&#x133;" horiz-adv-x="340" 
d="M81 512h71l-5 -75l-85 -437h-80zM150 661c12 0 21.668 -3.5 29.001 -10.5s11 -16.167 11 -27.5c0 -17.333 -5.66699 -31.166 -17 -41.499s-25 -15.5 -41 -15.5c-12 0 -21.5 3.5 -28.5 10.5s-10.5 16.167 -10.5 27.5c0 17.333 5.66699 31.166 17 41.499
s24.666 15.5 39.999 15.5zM318.001 512l-5.99805 -74.999l-91 -470c-12.667 -66 -32.834 -112 -60.501 -138s-62.834 -39 -105.501 -39l14 74c22 0 38 8.66699 48 26s18 40.666 24 69.999l106 552h71zM316.003 661.001c12 0 21.667 -3.5 29 -10.5s11 -16.167 11 -27.5
c0 -17.333 -5.66699 -31.166 -17 -41.499s-25 -15.5 -41 -15.5c-12 0 -21.5 3.5 -28.5 10.5s-10.5 16.167 -10.5 27.5c0 17.333 5.5 31.166 16.5 41.499s24.5 15.5 40.5 15.5z" />
    <glyph glyph-name="Jcircumflex" unicode="&#x134;" horiz-adv-x="219" 
d="M-31 63c28.667 1.33301 49.833 10.668 63.5 28.001s22.5 36.666 26.5 57.999l101 516h79l-98 -508c-20 -106 -82 -162 -186 -168zM266.999 842.002l35 -137h-63l-16 84l-48 -84h-63l88 137h67z" />
    <glyph glyph-name="jcircumflex" unicode="&#x135;" horiz-adv-x="176" 
d="M152 512l-5.99805 -75l-91 -470c-12.667 -66 -32.834 -112 -60.501 -138s-62.834 -39 -105.501 -39l14 74c22 0 38 8.5 48 25.5s17.667 40.167 23 69.5l107 553h71zM190.002 687l35 -137h-63l-16 84l-48 -84h-63l88 137h67z" />
    <glyph glyph-name="Kcommaaccent" unicode="&#x136;" horiz-adv-x="350" 
d="M221 376l55 -376h-85l-38 299l-46 -68l-45 -231h-80l129 665h80l-62 -321l185 321h85zM87 -168h-58l50 128h76z" />
    <glyph glyph-name="kcommaaccent" unicode="&#x137;" horiz-adv-x="322" 
d="M212 328l28 -328h-80l-15 256l-45 -62l-38 -194h-80l138 710h71l-5 -75l-69 -351l144 228h81zM73 -168h-58l50 128h76z" />
    <glyph glyph-name="Lacute" unicode="&#x139;" horiz-adv-x="300" 
d="M191 665l-115 -592h155l-13 -73h-236l129 665h80zM295 842l-84 -137h-65l67 137h82z" />
    <glyph glyph-name="lacute" unicode="&#x13a;" horiz-adv-x="172" 
d="M186 635l-124 -635h-73l7 75l124 635h71zM276 877l-84 -137h-65l67 137h82z" />
    <glyph glyph-name="Lcommaaccent" unicode="&#x13b;" horiz-adv-x="300" 
d="M191 665l-115 -592h155l-13 -73h-236l129 665h80zM62 -168h-58l50 128h76z" />
    <glyph glyph-name="lcommaaccent" unicode="&#x13c;" horiz-adv-x="172" 
d="M186 635l-124 -635h-73l7 75l124 635h71zM-10 -168h-58l50 128h76z" />
    <glyph glyph-name="Lcaron" unicode="&#x13d;" horiz-adv-x="300" 
d="M191 665l-115 -592h155l-13 -73h-236l129 665h80zM268 543h-41l42 134h63z" />
    <glyph glyph-name="lcaron" unicode="&#x13e;" horiz-adv-x="231" 
d="M186 635l-124 -635h-73l7 75l124 635h71zM245 563h-41l42 134h63z" />
    <glyph glyph-name="Ldot" unicode="&#x13f;" horiz-adv-x="300" 
d="M191 665l-115 -592h155l-13 -73h-236l129 665h80zM180 342c0 17.333 6.16797 31.666 18.501 42.999s27.166 17 44.499 17c12.667 0 22.667 -3.83301 30 -11.5s11 -17.834 11 -30.501c0 -17.333 -5.83301 -31.666 -17.5 -42.999s-26.167 -17 -43.5 -17
c-13.333 0 -23.833 3.83301 -31.5 11.5s-11.5 17.834 -11.5 30.501z" />
    <glyph glyph-name="ldot" unicode="&#x140;" horiz-adv-x="262" 
d="M186 635l-124 -635h-73l7 75l124 635h71zM166 342c0 17.333 6.16797 31.666 18.501 42.999s27.166 17 44.499 17c12.667 0 22.667 -3.83301 30 -11.5s11 -17.834 11 -30.501c0 -17.333 -5.83301 -31.666 -17.5 -42.999s-26.167 -17 -43.5 -17
c-13.333 0 -23.833 3.83301 -31.5 11.5s-11.5 17.834 -11.5 30.501z" />
    <glyph glyph-name="Lslash" unicode="&#x141;" horiz-adv-x="298" 
d="M191 665l-56 -286l122 64l-15 -80l-122 -65l-44 -225h155l-13 -73h-236l49 251l-45 -23l15 81l46 24l64 332h80z" />
    <glyph glyph-name="lslash" unicode="&#x142;" horiz-adv-x="184" 
d="M192 635l-41 -208l51 27l-14 -72l-51 -27l-69 -355h-73l7 75l45 233l-48 -25l14 71l48 25l65 331h71z" />
    <glyph glyph-name="Nacute" unicode="&#x143;" horiz-adv-x="370" 
d="M258 0h-84l-26 497h-4l-96 -497h-66l129 665h85l24 -512h3l99 512h65zM360 842l-84 -137h-65l67 137h82z" />
    <glyph glyph-name="nacute" unicode="&#x144;" horiz-adv-x="332" 
d="M147 466c9.33301 15.333 21.832 28.501 37.499 39.501s33.5 16.5 53.5 16.5c22.667 0 39 -6.66699 49 -20s15 -34 15 -62c0 -10.667 -0.5 -22.334 -1.5 -35.001s-3.16699 -26.334 -6.5 -41.001l-71 -364h-73l8 75l57 298c1.33301 8 2.5 15.667 3.5 23s1.5 14 1.5 20
c0 12 -2 21.5 -6 28.5s-11.333 10.5 -22 10.5s-20.167 -4.16699 -28.5 -12.5s-15.166 -18.166 -20.499 -29.499l-81 -413h-80l99 512h69zM310.999 687.001l-84 -137h-65l67 137h82z" />
    <glyph glyph-name="Ncommaaccent" unicode="&#x145;" horiz-adv-x="370" 
d="M258 0h-84l-26 497h-4l-96 -497h-66l129 665h85l24 -512h3l99 512h65zM89 -168h-58l50 128h76z" />
    <glyph glyph-name="ncommaaccent" unicode="&#x146;" horiz-adv-x="332" 
d="M147 466c9.33301 15.333 21.832 28.501 37.499 39.501s33.5 16.5 53.5 16.5c22.667 0 39 -6.66699 49 -20s15 -34 15 -62c0 -10.667 -0.5 -22.334 -1.5 -35.001s-3.16699 -26.334 -6.5 -41.001l-71 -364h-73l8 75l57 298c1.33301 8 2.5 15.667 3.5 23s1.5 14 1.5 20
c0 12 -2 21.5 -6 28.5s-11.333 10.5 -22 10.5s-20.167 -4.16699 -28.5 -12.5s-15.166 -18.166 -20.499 -29.499l-81 -413h-80l99 512h69zM69.999 -167.999h-58l50 128h76z" />
    <glyph glyph-name="Ncaron" unicode="&#x147;" horiz-adv-x="370" 
d="M258 0h-84l-26 497h-4l-96 -497h-66l129 665h85l24 -512h3l99 512h65zM225 705l-34 137h60l16 -85l48 85h60l-86 -137h-64z" />
    <glyph glyph-name="ncaron" unicode="&#x148;" horiz-adv-x="332" 
d="M147 466c9.33301 15.333 21.832 28.501 37.499 39.501s33.5 16.5 53.5 16.5c22.667 0 39 -6.66699 49 -20s15 -34 15 -62c0 -10.667 -0.5 -22.334 -1.5 -35.001s-3.16699 -26.334 -6.5 -41.001l-71 -364h-73l8 75l57 298c1.33301 8 2.5 15.667 3.5 23s1.5 14 1.5 20
c0 12 -2 21.5 -6 28.5s-11.333 10.5 -22 10.5s-20.167 -4.16699 -28.5 -12.5s-15.166 -18.166 -20.499 -29.499l-81 -413h-80l99 512h69zM175.999 550.001l-34 137h60l16 -85l48 85h60l-86 -137h-64z" />
    <glyph glyph-name="Omacron" unicode="&#x14c;" 
d="M262 156c-10 -54 -28.334 -95.167 -55.001 -123.5s-62 -42.5 -106 -42.5c-34.667 0 -60.334 9.16699 -77.001 27.5s-25 45.166 -25 80.499c0 17.333 2 37 6 59l68 352c10.667 53.333 29.334 94.333 56.001 123s61.334 43 104.001 43c35.333 0 61.5 -9.66699 78.5 -29
s25.5 -46.666 25.5 -81.999c0 -17.333 -2 -36.333 -6 -57zM251.999 516c3.33301 14.667 5.00195 27.667 5.00195 39c0 13.333 -2.66699 24.5 -8 33.5s-15 13.5 -29 13.5c-19.333 0 -34 -8.66699 -44 -26s-17.333 -37.333 -22 -60l-71 -365
c-1.33301 -6.66699 -2.33301 -13.334 -3 -20.001s-1 -13 -1 -19c0 -13.333 2.5 -24.666 7.5 -33.999s14.5 -14 28.5 -14c10 0 18.667 2.5 26 7.5s13.666 11.5 18.999 19.5s9.66602 17.167 12.999 27.5s6 20.5 8 30.5zM171.001 809h179l-13 -68h-179z" />
    <glyph glyph-name="omacron" unicode="&#x14d;" horiz-adv-x="319" 
d="M246 153c-10 -52.667 -27.334 -92.999 -52.001 -120.999s-58.667 -42 -102 -42c-33.333 0 -57.666 8.5 -72.999 25.5s-23 42.167 -23 75.5c0 9.33301 0.666992 19.166 2 29.499s3 21.166 5 32.499l40 206c10 52.667 27.167 93 51.5 121s57.833 42 100.5 42
c34 0 58.833 -8.66699 74.5 -26s23.5 -42.666 23.5 -75.999c0 -9.33301 -0.666992 -19 -2 -29s-3 -20.667 -5 -32zM207.999 373.001c3.33301 16.667 5 30.667 5 42c0 12 -2.16699 21.667 -6.5 29s-12.166 11 -23.499 11c-16.667 0 -29.334 -8 -38.001 -24
s-15 -35.333 -19 -58l-45 -234c-3.33301 -16.667 -5 -30.667 -5 -42c0 -12 2 -21.667 6 -29s11.667 -11 23 -11c17.333 0 30.333 8 39 24s15 35.333 19 58zM131.999 654.001h179l-13 -68h-179z" />
    <glyph glyph-name="Obreve" unicode="&#x14e;" 
d="M262 156c-10 -54 -28.334 -95.167 -55.001 -123.5s-62 -42.5 -106 -42.5c-34.667 0 -60.334 9.16699 -77.001 27.5s-25 45.166 -25 80.499c0 17.333 2 37 6 59l68 352c10.667 53.333 29.334 94.333 56.001 123s61.334 43 104.001 43c35.333 0 61.5 -9.66699 78.5 -29
s25.5 -46.666 25.5 -81.999c0 -17.333 -2 -36.333 -6 -57zM251.999 516c3.33301 14.667 5.00195 27.667 5.00195 39c0 13.333 -2.66699 24.5 -8 33.5s-15 13.5 -29 13.5c-19.333 0 -34 -8.66699 -44 -26s-17.333 -37.333 -22 -60l-71 -365
c-1.33301 -6.66699 -2.33301 -13.334 -3 -20.001s-1 -13 -1 -19c0 -13.333 2.5 -24.666 7.5 -33.999s14.5 -14 28.5 -14c10 0 18.667 2.5 26 7.5s13.666 11.5 18.999 19.5s9.66602 17.167 12.999 27.5s6 20.5 8 30.5zM357.001 826l-2 -12
c-5.33301 -29.333 -17.666 -52.833 -36.999 -70.5s-44.333 -26.5 -75 -26.5c-31.333 0 -53.333 8.83301 -66 26.5s-16.334 41.167 -11.001 70.5l2 12h64l-2 -12c-4 -24.667 4 -37 24 -37c21.333 0 34 12.333 38 37l2 12h63z" />
    <glyph glyph-name="obreve" unicode="&#x14f;" horiz-adv-x="319" 
d="M246 153c-10 -52.667 -27.334 -92.999 -52.001 -120.999s-58.667 -42 -102 -42c-33.333 0 -57.666 8.5 -72.999 25.5s-23 42.167 -23 75.5c0 9.33301 0.666992 19.166 2 29.499s3 21.166 5 32.499l40 206c10 52.667 27.167 93 51.5 121s57.833 42 100.5 42
c34 0 58.833 -8.66699 74.5 -26s23.5 -42.666 23.5 -75.999c0 -9.33301 -0.666992 -19 -2 -29s-3 -20.667 -5 -32zM207.999 373.001c3.33301 16.667 5 30.667 5 42c0 12 -2.16699 21.667 -6.5 29s-12.166 11 -23.499 11c-16.667 0 -29.334 -8 -38.001 -24
s-15 -35.333 -19 -58l-45 -234c-3.33301 -16.667 -5 -30.667 -5 -42c0 -12 2 -21.667 6 -29s11.667 -11 23 -11c17.333 0 30.333 8 39 24s15 35.333 19 58zM317.999 671.001l-2 -12c-5.33301 -29.333 -17.666 -52.833 -36.999 -70.5s-44.333 -26.5 -75 -26.5
c-31.333 0 -53.333 8.83301 -66 26.5s-16.334 41.167 -11.001 70.5l2 12h64l-2 -12c-4 -24.667 4 -37 24 -37c21.333 0 34 12.333 38 37l2 12h63z" />
    <glyph glyph-name="Ohungarumlaut" unicode="&#x150;" 
d="M262 156c-10 -54 -28.334 -95.167 -55.001 -123.5s-62 -42.5 -106 -42.5c-34.667 0 -60.334 9.16699 -77.001 27.5s-25 45.166 -25 80.499c0 17.333 2 37 6 59l68 352c10.667 53.333 29.334 94.333 56.001 123s61.334 43 104.001 43c35.333 0 61.5 -9.66699 78.5 -29
s25.5 -46.666 25.5 -81.999c0 -17.333 -2 -36.333 -6 -57zM251.999 516c3.33301 14.667 5.00195 27.667 5.00195 39c0 13.333 -2.66699 24.5 -8 33.5s-15 13.5 -29 13.5c-19.333 0 -34 -8.66699 -44 -26s-17.333 -37.333 -22 -60l-71 -365
c-1.33301 -6.66699 -2.33301 -13.334 -3 -20.001s-1 -13 -1 -19c0 -13.333 2.5 -24.666 7.5 -33.999s14.5 -14 28.5 -14c10 0 18.667 2.5 26 7.5s13.666 11.5 18.999 19.5s9.66602 17.167 12.999 27.5s6 20.5 8 30.5zM414.001 842l-93 -137h-62l76 137h79zM297.001 842
l-86 -137h-63l71 137h78z" />
    <glyph glyph-name="ohungarumlaut" unicode="&#x151;" horiz-adv-x="319" 
d="M246 153c-10 -52.667 -27.334 -92.999 -52.001 -120.999s-58.667 -42 -102 -42c-33.333 0 -57.666 8.5 -72.999 25.5s-23 42.167 -23 75.5c0 9.33301 0.666992 19.166 2 29.499s3 21.166 5 32.499l40 206c10 52.667 27.167 93 51.5 121s57.833 42 100.5 42
c34 0 58.833 -8.66699 74.5 -26s23.5 -42.666 23.5 -75.999c0 -9.33301 -0.666992 -19 -2 -29s-3 -20.667 -5 -32zM207.999 373.001c3.33301 16.667 5 30.667 5 42c0 12 -2.16699 21.667 -6.5 29s-12.166 11 -23.499 11c-16.667 0 -29.334 -8 -38.001 -24
s-15 -35.333 -19 -58l-45 -234c-3.33301 -16.667 -5 -30.667 -5 -42c0 -12 2 -21.667 6 -29s11.667 -11 23 -11c17.333 0 30.333 8 39 24s15 35.333 19 58zM372.999 687.001l-93 -137h-62l76 137h79zM255.999 687.001l-86 -137h-63l71 137h78z" />
    <glyph glyph-name="OE" unicode="&#x152;" horiz-adv-x="463" 
d="M490 589h-142.999l-39 -196h119l-14 -73h-119l-48 -247h144l-14 -73h-206l7 34c-11.333 -13.333 -24 -24 -38 -32s-31.667 -12 -53 -12c-28 0 -49.833 9.16699 -65.5 27.5s-23.5 45.5 -23.5 81.5c0 16.667 2 35.667 6 57l69 353c10 54 27.833 95.167 53.5 123.5
s56.5 42.5 92.5 42.5c21.333 0 37.666 -4.33301 48.999 -13s20 -19 26 -31l6 34h206zM115.001 64c18.667 0 33.167 8.00098 43.5 24.001s17.5 35.333 21.5 58l72 370c1.33301 6.66699 2.33301 13.167 3 19.5s1 12.5 1 18.5c0 13.333 -2.5 24.666 -7.5 33.999
s-14.5 14 -28.5 14c-10 0 -18.5 -2.5 -25.5 -7.5s-13.167 -11.5 -18.5 -19.5s-9.66602 -17.167 -12.999 -27.5s-6 -20.833 -8 -31.5l-71 -367c-3.33301 -15.333 -5 -28.666 -5 -39.999c0 -12.667 2.66699 -23.334 8 -32.001s14.666 -13 27.999 -13z" />
    <glyph glyph-name="oe" unicode="&#x153;" horiz-adv-x="461" 
d="M263 469c12.667 17.333 26.332 30.5039 40.999 39.5039s31.667 13.5 51 13.5c32 0 55.833 -9.16699 71.5 -27.5s23.5 -42.166 23.5 -71.499c0 -6.66699 -0.5 -13.334 -1.5 -20.001s-2.16699 -13.667 -3.5 -21l-6 -33c-5.33301 -24 -13.833 -43.333 -25.5 -58
s-25.834 -26.334 -42.501 -35.001s-35 -14.834 -55 -18.501s-40.333 -6.5 -61 -8.5l-17 -90c-1.33301 -7.33301 -2.33301 -14.5 -3 -21.5s-1 -13.5 -1 -19.5c0 -12.667 2 -22.667 6 -30s11.667 -11 23 -11c16.667 0 29.167 7.83301 37.5 23.5s15.166 35.167 20.499 58.5
l4 23h79l-3 -15c-11.333 -50.667 -28.666 -89.5 -51.999 -116.5s-54 -40.5 -92 -40.5c-37.333 0 -63 17.333 -77 52c-13.333 -16 -27.666 -28.667 -42.999 -38s-34 -14 -56 -14c-56.667 0 -85 33.333 -85 100c0 9.33301 0.666992 19.166 2 29.499s3 21.166 5 32.499l39 207
c10 52.667 27.667 93 53 121s56.333 42 93 42c20.667 0 36.834 -4.5 48.501 -13.5s20.5 -22.167 26.5 -39.5zM202.998 373.004c3.33301 16.667 5 30.999 5 42.999s-2 21.667 -6 29s-11.667 11 -23 11c-16 0 -28.167 -8.16699 -36.5 -24.5s-14.833 -36.166 -19.5 -59.499
l-44 -233c-1.33301 -7.33301 -2.33301 -14.333 -3 -21s-1 -13 -1 -19c0 -12.667 2 -23 6 -31s11.667 -12 23 -12c16 0 28.167 8.16699 36.5 24.5s14.5 35.833 18.5 58.5zM267.998 293.003c25.333 2 45.832 7.33203 61.499 15.999s26.167 26.334 31.5 53.001l6 27
c4 18 4.33301 33.5 1 46.5s-12.666 19.5 -27.999 19.5c-16.667 0 -29.167 -8 -37.5 -24s-14.833 -35.333 -19.5 -58z" />
    <glyph glyph-name="Racute" unicode="&#x154;" horiz-adv-x="347" 
d="M333 474c-7.33301 -36 -19 -66.832 -35 -92.499s-35.333 -44.834 -58 -57.501l25 -324h-84l-12 302h-48l-59 -302h-80l129 665h130c69.333 0 104 -35.667 104 -107c0 -19.333 -2.33301 -39.333 -7 -60zM260 506.001c2 10.667 3.00098 21.334 3.00098 32.001
c0 15.333 -3.16699 27.666 -9.5 36.999s-17.166 14 -32.499 14h-44l-42 -214h44c19.333 0 34.666 7.83301 45.999 23.5s19.666 36.5 24.999 62.5zM347.001 842.001l-84 -137h-65l67 137h82z" />
    <glyph glyph-name="racute" unicode="&#x155;" horiz-adv-x="242" 
d="M81 512h69.001l-2 -46c8 13.333 19.333 26 34 38s30.667 18 48 18c9.33301 0 16.666 -1 21.999 -3s10.666 -5 15.999 -9l-34 -73c-9.33301 6 -18.666 9 -27.999 9c-12.667 0 -24.5 -4 -35.5 -12s-20.833 -17.667 -29.5 -29l-79 -405h-80zM274.001 687l-84 -137h-65
l67 137h82z" />
    <glyph glyph-name="Rcommaaccent" unicode="&#x156;" horiz-adv-x="347" 
d="M333 474c-7.33301 -36 -19 -66.832 -35 -92.499s-35.333 -44.834 -58 -57.501l25 -324h-84l-12 302h-48l-59 -302h-80l129 665h130c69.333 0 104 -35.667 104 -107c0 -19.333 -2.33301 -39.333 -7 -60zM260 506.001c2 10.667 3.00098 21.334 3.00098 32.001
c0 15.333 -3.16699 27.666 -9.5 36.999s-17.166 14 -32.499 14h-44l-42 -214h44c19.333 0 34.666 7.83301 45.999 23.5s19.666 36.5 24.999 62.5zM83.001 -167.999h-58l50 128h76z" />
    <glyph glyph-name="rcommaaccent" unicode="&#x157;" horiz-adv-x="242" 
d="M81 512h69.001l-2 -46c8 13.333 19.333 26 34 38s30.667 18 48 18c9.33301 0 16.666 -1 21.999 -3s10.666 -5 15.999 -9l-34 -73c-9.33301 6 -18.666 9 -27.999 9c-12.667 0 -24.5 -4 -35.5 -12s-20.833 -17.667 -29.5 -29l-79 -405h-80zM-13.999 -168h-58l50 128h76z
" />
    <glyph glyph-name="Rcaron" unicode="&#x158;" horiz-adv-x="347" 
d="M333 474c-7.33301 -36 -19 -66.832 -35 -92.499s-35.333 -44.834 -58 -57.501l25 -324h-84l-12 302h-48l-59 -302h-80l129 665h130c69.333 0 104 -35.667 104 -107c0 -19.333 -2.33301 -39.333 -7 -60zM260 506.001c2 10.667 3.00098 21.334 3.00098 32.001
c0 15.333 -3.16699 27.666 -9.5 36.999s-17.166 14 -32.499 14h-44l-42 -214h44c19.333 0 34.666 7.83301 45.999 23.5s19.666 36.5 24.999 62.5zM212.001 705.001l-34 137h60l16 -85l48 85h60l-86 -137h-64z" />
    <glyph glyph-name="rcaron" unicode="&#x159;" horiz-adv-x="242" 
d="M81 512h69.001l-2 -46c8 13.333 19.333 26 34 38s30.667 18 48 18c9.33301 0 16.666 -1 21.999 -3s10.666 -5 15.999 -9l-34 -73c-9.33301 6 -18.666 9 -27.999 9c-12.667 0 -24.5 -4 -35.5 -12s-20.833 -17.667 -29.5 -29l-79 -405h-80zM141.001 550l-34 137h60l16 -85
l48 85h60l-86 -137h-64z" />
    <glyph glyph-name="Sacute" unicode="&#x15a;" horiz-adv-x="311" 
d="M65 523c4 20.667 10.166 40.3291 18.499 58.9961s19 34.834 32 48.501s28.333 24.5 46 32.5s37.834 12 60.501 12c32 0 56.667 -8.66699 74 -26s26 -44 26 -80c0 -16.667 -2 -36 -6 -58l-5 -29h-80l7 36c1.33301 6.66699 2.33301 13.167 3 19.5s1 12.5 1 18.5
c0 13.333 -2.5 24.333 -7.5 33s-14.167 13 -27.5 13c-17.333 0 -31.166 -7.83301 -41.499 -23.5s-17.5 -34.167 -21.5 -55.5l-5 -27c-4 -20.667 -3 -38.834 3 -54.501s18.333 -32.5 37 -50.5c21.333 -21.333 40 -44.166 56 -68.499s24 -53.5 24 -87.5
c0 -14 -1.33301 -27.333 -4 -40l-10 -52c-4 -19.333 -10.167 -38.166 -18.5 -56.499s-19 -34.666 -32 -48.999s-28.333 -25.833 -46 -34.5s-37.5 -13 -59.5 -13c-35.333 0 -60.833 9.33301 -76.5 28s-23.5 45 -23.5 79c0 18 2 38 6 60l5 26h80l-7 -33
c-3.33301 -15.333 -5 -29.333 -5 -42c0 -13.333 2.33301 -24.166 7 -32.499s13.667 -12.5 27 -12.5c17.333 0 31.166 8.16699 41.499 24.5s17.5 35.166 21.5 56.499l7 38c2 10.667 3 20.667 3 30c0 20.667 -4.33301 39.334 -13 56.001s-20.667 33 -36 49
c-21.333 20.667 -38.833 41 -52.5 61s-20.5 43.667 -20.5 71c0 5.33301 0.333008 10.833 1 16.5s1.66699 11.5 3 17.5zM330.999 841.995l-84 -137h-65l67 137h82z" />
    <glyph glyph-name="sacute" unicode="&#x15b;" horiz-adv-x="291" 
d="M72 158l-1.99805 -9.99805c-4 -18 -6 -34.667 -6 -50c0 -12 2 -21.833 6 -29.5s11.333 -11.5 22 -11.5c8.66699 0 16.667 2.83301 24 8.5s13.666 13 18.999 22s9.33301 19 12 30s4 21.833 4 32.5c0 16.667 -4 32.5 -12 47.5s-22.333 30.167 -43 45.5
c-19.333 15.333 -34.5 32.5 -45.5 51.5s-16.5 41.5 -16.5 67.5c0 19.333 3.16699 38.5 9.5 57.5s15.833 36.167 28.5 51.5s28.167 27.666 46.5 36.999s39.166 14 62.499 14c63.333 0 95 -33.667 95 -101c0 -16.667 -2 -34.334 -6 -53.001l-2 -11h-78l3 18
c3.33301 15.333 5 28.666 5 39.999s-2.16699 20.833 -6.5 28.5s-12.166 11.5 -23.499 11.5c-10 0 -18.333 -2.33301 -25 -7s-12.167 -10.667 -16.5 -18s-7.5 -15.5 -9.5 -24.5s-3 -17.833 -3 -26.5c0 -17.333 5 -32.666 15 -45.999s24.667 -26.666 44 -39.999
c20.667 -15.333 35.667 -33.5 45 -54.5s14 -43.167 14 -66.5c0 -20 -3 -40.667 -9 -62s-15.333 -41 -28 -59s-28.334 -32.667 -47.001 -44s-40.667 -17 -66 -17c-32.667 0 -57 8.66699 -73 26s-24 42.666 -24 75.999c0 16 2 34.667 6 56l2 10h79zM291.002 687.002l-84 -137
h-65l67 137h82z" />
    <glyph glyph-name="Scircumflex" unicode="&#x15c;" horiz-adv-x="311" 
d="M65 523c4 20.667 10.166 40.3291 18.499 58.9961s19 34.834 32 48.501s28.333 24.5 46 32.5s37.834 12 60.501 12c32 0 56.667 -8.66699 74 -26s26 -44 26 -80c0 -16.667 -2 -36 -6 -58l-5 -29h-80l7 36c1.33301 6.66699 2.33301 13.167 3 19.5s1 12.5 1 18.5
c0 13.333 -2.5 24.333 -7.5 33s-14.167 13 -27.5 13c-17.333 0 -31.166 -7.83301 -41.499 -23.5s-17.5 -34.167 -21.5 -55.5l-5 -27c-4 -20.667 -3 -38.834 3 -54.501s18.333 -32.5 37 -50.5c21.333 -21.333 40 -44.166 56 -68.499s24 -53.5 24 -87.5
c0 -14 -1.33301 -27.333 -4 -40l-10 -52c-4 -19.333 -10.167 -38.166 -18.5 -56.499s-19 -34.666 -32 -48.999s-28.333 -25.833 -46 -34.5s-37.5 -13 -59.5 -13c-35.333 0 -60.833 9.33301 -76.5 28s-23.5 45 -23.5 79c0 18 2 38 6 60l5 26h80l-7 -33
c-3.33301 -15.333 -5 -29.333 -5 -42c0 -13.333 2.33301 -24.166 7 -32.499s13.667 -12.5 27 -12.5c17.333 0 31.166 8.16699 41.499 24.5s17.5 35.166 21.5 56.499l7 38c2 10.667 3 20.667 3 30c0 20.667 -4.33301 39.334 -13 56.001s-20.667 33 -36 49
c-21.333 20.667 -38.833 41 -52.5 61s-20.5 43.667 -20.5 71c0 5.33301 0.333008 10.833 1 16.5s1.66699 11.5 3 17.5zM287.999 841.995l35 -137h-63l-16 84l-48 -84h-63l88 137h67z" />
    <glyph glyph-name="scircumflex" unicode="&#x15d;" horiz-adv-x="291" 
d="M72 158l-1.99805 -9.99805c-4 -18 -6 -34.667 -6 -50c0 -12 2 -21.833 6 -29.5s11.333 -11.5 22 -11.5c8.66699 0 16.667 2.83301 24 8.5s13.666 13 18.999 22s9.33301 19 12 30s4 21.833 4 32.5c0 16.667 -4 32.5 -12 47.5s-22.333 30.167 -43 45.5
c-19.333 15.333 -34.5 32.5 -45.5 51.5s-16.5 41.5 -16.5 67.5c0 19.333 3.16699 38.5 9.5 57.5s15.833 36.167 28.5 51.5s28.167 27.666 46.5 36.999s39.166 14 62.499 14c63.333 0 95 -33.667 95 -101c0 -16.667 -2 -34.334 -6 -53.001l-2 -11h-78l3 18
c3.33301 15.333 5 28.666 5 39.999s-2.16699 20.833 -6.5 28.5s-12.166 11.5 -23.499 11.5c-10 0 -18.333 -2.33301 -25 -7s-12.167 -10.667 -16.5 -18s-7.5 -15.5 -9.5 -24.5s-3 -17.833 -3 -26.5c0 -17.333 5 -32.666 15 -45.999s24.667 -26.666 44 -39.999
c20.667 -15.333 35.667 -33.5 45 -54.5s14 -43.167 14 -66.5c0 -20 -3 -40.667 -9 -62s-15.333 -41 -28 -59s-28.334 -32.667 -47.001 -44s-40.667 -17 -66 -17c-32.667 0 -57 8.66699 -73 26s-24 42.666 -24 75.999c0 16 2 34.667 6 56l2 10h79zM248.002 687.002l35 -137
h-63l-16 84l-48 -84h-63l88 137h67z" />
    <glyph glyph-name="Scedilla" unicode="&#x15e;" horiz-adv-x="311" 
d="M65 523c4 20.667 10.168 40.3301 18.501 58.9971s19 34.834 32 48.501s28.333 24.5 46 32.5s37.834 12 60.501 12c32 0 56.667 -8.66699 74 -26s26 -44 26 -80c0 -16.667 -2 -36 -6 -58l-5 -29h-80l7 36c1.33301 6.66699 2.33301 13.167 3 19.5s1 12.5 1 18.5
c0 13.333 -2.5 24.333 -7.5 33s-14.167 13 -27.5 13c-17.333 0 -31.166 -7.83301 -41.499 -23.5s-17.5 -34.167 -21.5 -55.5l-5 -27c-4 -20.667 -3 -38.834 3 -54.501s18.333 -32.5 37 -50.5c21.333 -21.333 40 -44.166 56 -68.499s24 -53.5 24 -87.5
c0 -14 -1.33301 -27.333 -4 -40l-10 -52c-3.33301 -18 -8.83301 -35.667 -16.5 -53s-17.334 -33 -29.001 -47s-25.5 -25.667 -41.5 -35s-34 -15 -54 -17l-5 -30h7c17.333 0 31.333 -4.5 42 -13.5s16 -24.167 16 -45.5c0 -34.667 -9.33301 -61.667 -28 -81
s-43.334 -29 -74.001 -29c-24 0 -40.667 6.83301 -50 20.5s-13.333 34.834 -12 63.501v2h50v-2c-0.666992 -11.333 0.5 -20.166 3.5 -26.499s9.16699 -9.5 18.5 -9.5c11.333 0 20.333 4.66699 27 14s10 21.666 10 36.999c0 10.667 -2.83301 18 -8.5 22s-14.167 6 -25.5 6
h-28l13 74c-25.333 4.66699 -43.5 16.167 -54.5 34.5s-16.5 41.833 -16.5 70.5c0 18 2 37.667 6 59l5 26h80l-7 -33c-3.33301 -15.333 -5 -29.333 -5 -42c0 -13.333 2.33301 -24.166 7 -32.499s13.667 -12.5 27 -12.5c17.333 0 31.166 8.16699 41.499 24.5
s17.5 35.166 21.5 56.499l7 38c2 10.667 3 20.667 3 30c0 20.667 -4.33301 39.334 -13 56.001s-20.667 33 -36 49c-21.333 20.667 -38.833 41 -52.5 61s-20.5 43.667 -20.5 71c0 5.33301 0.333008 10.833 1 16.5s1.66699 11.5 3 17.5z" />
    <glyph glyph-name="scedilla" unicode="&#x15f;" horiz-adv-x="291" 
d="M72 158l-2 -10.001c-4 -18 -6 -34.667 -6 -50c0 -12 2 -21.833 6 -29.5s11.333 -11.5 22 -11.5c8.66699 0 16.667 2.83301 24 8.5s13.666 13 18.999 22s9.33301 19 12 30s4 21.833 4 32.5c0 16.667 -4 32.5 -12 47.5s-22.333 30.167 -43 45.5
c-19.333 15.333 -34.5 32.5 -45.5 51.5s-16.5 41.5 -16.5 67.5c0 19.333 3.16699 38.5 9.5 57.5s15.833 36.167 28.5 51.5s28.167 27.666 46.5 36.999s39.166 14 62.499 14c63.333 0 95 -33.667 95 -101c0 -16.667 -2 -34.334 -6 -53.001l-2 -11h-78l3 18
c3.33301 15.333 5 28.666 5 39.999s-2.16699 20.833 -6.5 28.5s-12.166 11.5 -23.499 11.5c-10 0 -18.333 -2.33301 -25 -7s-12.167 -10.667 -16.5 -18s-7.5 -15.5 -9.5 -24.5s-3 -17.833 -3 -26.5c0 -17.333 5 -32.666 15 -45.999s24.667 -26.666 44 -39.999
c20.667 -15.333 35.667 -33.5 45 -54.5s14 -43.167 14 -66.5c0 -19.333 -2.83301 -39.166 -8.5 -59.499s-14.167 -39.166 -25.5 -56.499s-25.666 -32 -42.999 -44s-37.333 -19 -60 -21l-5 -30h6c17.333 0 31.333 -4.5 42 -13.5s16 -24.167 16 -45.5
c0 -34.667 -9.33301 -61.667 -28 -81s-43 -29 -73 -29c-24.667 0 -41.667 6.83301 -51 20.5s-13 34.834 -11 63.501v2h50v-2c-2 -24 5 -36 21 -36c12 0 21.167 4.66699 27.5 14s9.5 21.666 9.5 36.999c0 10.667 -2.83301 18 -8.5 22s-14.167 6 -25.5 6h-28l14 74
c-44 10 -66 43 -66 99c0 16 2 34.667 6 56l2 10h79z" />
    <glyph glyph-name="Scaron" unicode="&#x160;" horiz-adv-x="311" 
d="M65 523c4 20.667 10.166 40.3291 18.499 58.9961s19 34.834 32 48.501s28.333 24.5 46 32.5s37.834 12 60.501 12c32 0 56.667 -8.66699 74 -26s26 -44 26 -80c0 -16.667 -2 -36 -6 -58l-5 -29h-80l7 36c1.33301 6.66699 2.33301 13.167 3 19.5s1 12.5 1 18.5
c0 13.333 -2.5 24.333 -7.5 33s-14.167 13 -27.5 13c-17.333 0 -31.166 -7.83301 -41.499 -23.5s-17.5 -34.167 -21.5 -55.5l-5 -27c-4 -20.667 -3 -38.834 3 -54.501s18.333 -32.5 37 -50.5c21.333 -21.333 40 -44.166 56 -68.499s24 -53.5 24 -87.5
c0 -14 -1.33301 -27.333 -4 -40l-10 -52c-4 -19.333 -10.167 -38.166 -18.5 -56.499s-19 -34.666 -32 -48.999s-28.333 -25.833 -46 -34.5s-37.5 -13 -59.5 -13c-35.333 0 -60.833 9.33301 -76.5 28s-23.5 45 -23.5 79c0 18 2 38 6 60l5 26h80l-7 -33
c-3.33301 -15.333 -5 -29.333 -5 -42c0 -13.333 2.33301 -24.166 7 -32.499s13.667 -12.5 27 -12.5c17.333 0 31.166 8.16699 41.499 24.5s17.5 35.166 21.5 56.499l7 38c2 10.667 3 20.667 3 30c0 20.667 -4.33301 39.334 -13 56.001s-20.667 33 -36 49
c-21.333 20.667 -38.833 41 -52.5 61s-20.5 43.667 -20.5 71c0 5.33301 0.333008 10.833 1 16.5s1.66699 11.5 3 17.5zM195.999 704.995l-34 137h60l16 -85l48 85h60l-86 -137h-64z" />
    <glyph glyph-name="scaron" unicode="&#x161;" horiz-adv-x="291" 
d="M72 158l-1.99805 -9.99805c-4 -18 -6 -34.667 -6 -50c0 -12 2 -21.833 6 -29.5s11.333 -11.5 22 -11.5c8.66699 0 16.667 2.83301 24 8.5s13.666 13 18.999 22s9.33301 19 12 30s4 21.833 4 32.5c0 16.667 -4 32.5 -12 47.5s-22.333 30.167 -43 45.5
c-19.333 15.333 -34.5 32.5 -45.5 51.5s-16.5 41.5 -16.5 67.5c0 19.333 3.16699 38.5 9.5 57.5s15.833 36.167 28.5 51.5s28.167 27.666 46.5 36.999s39.166 14 62.499 14c63.333 0 95 -33.667 95 -101c0 -16.667 -2 -34.334 -6 -53.001l-2 -11h-78l3 18
c3.33301 15.333 5 28.666 5 39.999s-2.16699 20.833 -6.5 28.5s-12.166 11.5 -23.499 11.5c-10 0 -18.333 -2.33301 -25 -7s-12.167 -10.667 -16.5 -18s-7.5 -15.5 -9.5 -24.5s-3 -17.833 -3 -26.5c0 -17.333 5 -32.666 15 -45.999s24.667 -26.666 44 -39.999
c20.667 -15.333 35.667 -33.5 45 -54.5s14 -43.167 14 -66.5c0 -20 -3 -40.667 -9 -62s-15.333 -41 -28 -59s-28.334 -32.667 -47.001 -44s-40.667 -17 -66 -17c-32.667 0 -57 8.66699 -73 26s-24 42.666 -24 75.999c0 16 2 34.667 6 56l2 10h79zM146.002 550.002l-34 137
h60l16 -85l48 85h60l-86 -137h-64z" />
    <glyph glyph-name="uni0162" unicode="&#x162;" horiz-adv-x="312" 
d="M49 0l115 589h-100l14 76h284l-14 -76h-104l-115 -589h-80zM60 -168h-58l50 128h76z" />
    <glyph glyph-name="uni0163" unicode="&#x163;" horiz-adv-x="237" 
d="M165 8c-11.333 -6 -22.167 -10.5 -32.5 -13.5s-22.166 -4.5 -35.499 -4.5c-33.333 0 -57.5 8.5 -72.5 25.5s-22.5 41.833 -22.5 74.5c0 20 2.33301 41.333 7 64l89 458h71l-5 -72l-6 -28h91l-13 -67h-92l-58 -298c-1.33301 -6 -2.33301 -12.167 -3 -18.5
s-1 -12.5 -1 -18.5c0 -13.333 2.5 -24.5 7.5 -33.5s14.5 -13.5 28.5 -13.5c13.333 0 26.666 3.66699 39.999 11zM37.999 -168h-58l50 128h76z" />
    <glyph glyph-name="Tcaron" unicode="&#x164;" horiz-adv-x="312" 
d="M49 0l115 589h-100l14 76h284l-14 -76h-104l-115 -589h-80zM196 705l-34 137h60l16 -85l48 85h60l-86 -137h-64z" />
    <glyph glyph-name="tcaron" unicode="&#x165;" horiz-adv-x="245" 
d="M165 8c-11.333 -6 -22.167 -10.5 -32.5 -13.5s-22.166 -4.5 -35.499 -4.5c-33.333 0 -57.5 8.5 -72.5 25.5s-22.5 41.833 -22.5 74.5c0 20 2.33301 41.333 7 64l89 458h71l-5 -72l-6 -28h91l-13 -67h-92l-58 -298c-1.33301 -6 -2.33301 -12.167 -3 -18.5
s-1 -12.5 -1 -18.5c0 -13.333 2.5 -24.5 7.5 -33.5s14.5 -13.5 28.5 -13.5c13.333 0 26.666 3.66699 39.999 11zM242.999 575h-41l42 134h63z" />
    <glyph glyph-name="Tbar" unicode="&#x166;" horiz-adv-x="312" 
d="M66 427h66l32 162h-100l14 76h284l-14 -76h-104l-32 -162h73l-12 -67h-74l-70 -360h-80l70 360h-66z" />
    <glyph glyph-name="tbar" unicode="&#x167;" horiz-adv-x="237" 
d="M165 8c-11.333 -6 -22.167 -10.5 -32.5 -13.5s-22.166 -4.5 -35.499 -4.5c-33.333 0 -57.5 8.5 -72.5 25.5s-22.5 41.833 -22.5 74.5c0 20 2.33301 41.333 7 64l89 458h71l-5 -72l-6 -28h91l-13 -67h-92l-20 -104h95l-11 -61h-96l-26 -133
c-1.33301 -6 -2.33301 -12.167 -3 -18.5s-1 -12.5 -1 -18.5c0 -13.333 2.5 -24.5 7.5 -33.5s14.5 -13.5 28.5 -13.5c13.333 0 26.666 3.66699 39.999 11z" />
    <glyph glyph-name="Utilde" unicode="&#x168;" horiz-adv-x="347" 
d="M367 665l-98.998 -509c-10.667 -54 -29 -95 -55 -123s-61 -42 -105 -42c-70 0 -105 36.333 -105 109c0 16 2 34.667 6 56l99 509h80l-100 -516c-2.66699 -11.333 -4 -23.333 -4 -36c0 -14.667 2.66699 -26.5 8 -35.5s14.666 -13.5 27.999 -13.5
c18.667 0 33.167 7.66699 43.5 23s18.166 36 23.499 62l100 516h80zM137.002 722c2.66699 18.667 6.82812 34.501 12.4951 47.501s12.334 23.5 20.001 31.5s15.834 13.667 24.501 17s17.334 5 26.001 5c10.667 0 19.834 -2 27.501 -6s14.167 -8.16699 19.5 -12.5l15 -12.5
c4.66699 -4 10 -6 16 -6c5.33301 0 10.166 2.33301 14.499 7s7.16602 13.667 8.49902 27l1 5h60l-1 -5c-7.33301 -38 -18.666 -64.667 -33.999 -80s-31.333 -23 -48 -23c-10 0 -18.667 2.16699 -26 6.5s-13.833 9 -19.5 14l-16 14c-5 4.33301 -10.167 6.5 -15.5 6.5
s-10.666 -2.33301 -15.999 -7s-8.66602 -14.334 -9.99902 -29.001v-5h-60z" />
    <glyph glyph-name="utilde" unicode="&#x169;" horiz-adv-x="333" 
d="M78 512l79 -0.000976562l-72 -373c-1.33301 -8 -2.5 -15.833 -3.5 -23.5s-1.5 -14.5 -1.5 -20.5c0 -12 2 -21.333 6 -28s11.667 -10 23 -10c9.33301 0 18.166 3.66699 26.499 11s15.5 16 21.5 26l82 418h80l-81 -414c-2 -11.333 -1.83301 -20 0.5 -26
s9.16602 -9 20.499 -9l-14 -73c-29.333 0 -49.666 5 -60.999 15s-18.666 26 -21.999 48c-11.333 -19.333 -24.333 -34.666 -39 -45.999s-32.667 -17 -54 -17c-47.333 0 -71 29.667 -71 89c0 9.33301 0.666992 19 2 29s3 20.667 5 32zM99 566.999
c2.66699 18.667 6.82812 34.501 12.4951 47.501s12.334 23.5 20.001 31.5s15.834 13.667 24.501 17s17.334 5 26.001 5c10.667 0 19.834 -2 27.501 -6s14.167 -8.16699 19.5 -12.5l15 -12.5c4.66699 -4 10 -6 16 -6c5.33301 0 10.166 2.33301 14.499 7
s7.16602 13.667 8.49902 27l1 5h60l-1 -5c-7.33301 -38 -18.666 -64.667 -33.999 -80s-31.333 -23 -48 -23c-10 0 -18.667 2.16699 -26 6.5s-13.833 9 -19.5 14l-16 14c-5 4.33301 -10.167 6.5 -15.5 6.5s-10.666 -2.33301 -15.999 -7s-8.66602 -14.334 -9.99902 -29.001v-5
h-60z" />
    <glyph glyph-name="Umacron" unicode="&#x16a;" horiz-adv-x="347" 
d="M367 665l-98.998 -509c-10.667 -54 -29 -95 -55 -123s-61 -42 -105 -42c-70 0 -105 36.333 -105 109c0 16 2 34.667 6 56l99 509h80l-100 -516c-2.66699 -11.333 -4 -23.333 -4 -36c0 -14.667 2.66699 -26.5 8 -35.5s14.666 -13.5 27.999 -13.5
c18.667 0 33.167 7.66699 43.5 23s18.166 36 23.499 62l100 516h80zM176.002 809h179l-13 -68h-179z" />
    <glyph glyph-name="umacron" unicode="&#x16b;" horiz-adv-x="333" 
d="M78 512l79 -0.000976562l-72 -373c-1.33301 -8 -2.5 -15.833 -3.5 -23.5s-1.5 -14.5 -1.5 -20.5c0 -12 2 -21.333 6 -28s11.667 -10 23 -10c9.33301 0 18.166 3.66699 26.499 11s15.5 16 21.5 26l82 418h80l-81 -414c-2 -11.333 -1.83301 -20 0.5 -26
s9.16602 -9 20.499 -9l-14 -73c-29.333 0 -49.666 5 -60.999 15s-18.666 26 -21.999 48c-11.333 -19.333 -24.333 -34.666 -39 -45.999s-32.667 -17 -54 -17c-47.333 0 -71 29.667 -71 89c0 9.33301 0.666992 19 2 29s3 20.667 5 32zM138 653.999h179l-13 -68h-179z" />
    <glyph glyph-name="Ubreve" unicode="&#x16c;" horiz-adv-x="347" 
d="M367 665l-98.998 -509c-10.667 -54 -29 -95 -55 -123s-61 -42 -105 -42c-70 0 -105 36.333 -105 109c0 16 2 34.667 6 56l99 509h80l-100 -516c-2.66699 -11.333 -4 -23.333 -4 -36c0 -14.667 2.66699 -26.5 8 -35.5s14.666 -13.5 27.999 -13.5
c18.667 0 33.167 7.66699 43.5 23s18.166 36 23.499 62l100 516h80zM362.002 826l-2 -12c-5.33301 -29.333 -17.666 -52.833 -36.999 -70.5s-44.333 -26.5 -75 -26.5c-31.333 0 -53.333 8.83301 -66 26.5s-16.334 41.167 -11.001 70.5l2 12h64l-2 -12
c-4 -24.667 4 -37 24 -37c21.333 0 34 12.333 38 37l2 12h63z" />
    <glyph glyph-name="ubreve" unicode="&#x16d;" horiz-adv-x="333" 
d="M78 512l79 -0.000976562l-72 -373c-1.33301 -8 -2.5 -15.833 -3.5 -23.5s-1.5 -14.5 -1.5 -20.5c0 -12 2 -21.333 6 -28s11.667 -10 23 -10c9.33301 0 18.166 3.66699 26.499 11s15.5 16 21.5 26l82 418h80l-81 -414c-2 -11.333 -1.83301 -20 0.5 -26
s9.16602 -9 20.499 -9l-14 -73c-29.333 0 -49.666 5 -60.999 15s-18.666 26 -21.999 48c-11.333 -19.333 -24.333 -34.666 -39 -45.999s-32.667 -17 -54 -17c-47.333 0 -71 29.667 -71 89c0 9.33301 0.666992 19 2 29s3 20.667 5 32zM324 670.999l-2 -12
c-5.33301 -29.333 -17.666 -52.833 -36.999 -70.5s-44.333 -26.5 -75 -26.5c-31.333 0 -53.333 8.83301 -66 26.5s-16.334 41.167 -11.001 70.5l2 12h64l-2 -12c-4 -24.667 4 -37 24 -37c21.333 0 34 12.333 38 37l2 12h63z" />
    <glyph glyph-name="Uring" unicode="&#x16e;" horiz-adv-x="347" 
d="M367 665l-98.998 -509c-10.667 -54 -29 -95 -55 -123s-61 -42 -105 -42c-70 0 -105 36.333 -105 109c0 16 2 34.667 6 56l99 509h80l-100 -516c-2.66699 -11.333 -4 -23.333 -4 -36c0 -14.667 2.66699 -26.5 8 -35.5s14.666 -13.5 27.999 -13.5
c18.667 0 33.167 7.66699 43.5 23s18.166 36 23.499 62l100 516h80zM226.002 774c0 -8 2.33398 -14.832 7.00098 -20.499s11.667 -8.5 21 -8.5c11.333 0 20.833 4.16699 28.5 12.5s11.5 18.166 11.5 29.499c0 8 -2.33301 14.667 -7 20s-11.334 8 -20.001 8
c-11.333 0 -21 -4 -29 -12s-12 -17.667 -12 -29zM178.003 768.001c0 12.667 2.83398 24.832 8.50098 36.499s13 21.667 22 30s19.5 15 31.5 20s24 7.5 36 7.5c20 0 36.167 -6.66699 48.5 -20s18.5 -29.666 18.5 -48.999c0 -12.667 -2.83301 -24.667 -8.5 -36
s-13 -21.333 -22 -30s-19.333 -15.667 -31 -21s-23.834 -8 -36.501 -8c-20 0 -36.167 6.83301 -48.5 20.5s-18.5 30.167 -18.5 49.5z" />
    <glyph glyph-name="uring" unicode="&#x16f;" horiz-adv-x="333" 
d="M78 512l79 -0.000976562l-72 -373c-1.33301 -8 -2.5 -15.833 -3.5 -23.5s-1.5 -14.5 -1.5 -20.5c0 -12 2 -21.333 6 -28s11.667 -10 23 -10c9.33301 0 18.166 3.66699 26.499 11s15.5 16 21.5 26l82 418h80l-81 -414c-2 -11.333 -1.83301 -20 0.5 -26
s9.16602 -9 20.499 -9l-14 -73c-29.333 0 -49.666 5 -60.999 15s-18.666 26 -21.999 48c-11.333 -19.333 -24.333 -34.666 -39 -45.999s-32.667 -17 -54 -17c-47.333 0 -71 29.667 -71 89c0 9.33301 0.666992 19 2 29s3 20.667 5 32zM188 618.999
c0 -8 2.33398 -14.832 7.00098 -20.499s11.667 -8.5 21 -8.5c11.333 0 20.833 4.16699 28.5 12.5s11.5 18.166 11.5 29.499c0 8 -2.33301 14.667 -7 20s-11.334 8 -20.001 8c-11.333 0 -21 -4 -29 -12s-12 -17.667 -12 -29zM140.001 613
c0 12.667 2.83398 24.832 8.50098 36.499s13 21.667 22 30s19.5 15 31.5 20s24 7.5 36 7.5c20 0 36.167 -6.66699 48.5 -20s18.5 -29.666 18.5 -48.999c0 -12.667 -2.83301 -24.667 -8.5 -36s-13 -21.333 -22 -30s-19.333 -15.667 -31 -21s-23.834 -8 -36.501 -8
c-20 0 -36.167 6.83301 -48.5 20.5s-18.5 30.167 -18.5 49.5z" />
    <glyph glyph-name="Uhungarumlaut" unicode="&#x170;" horiz-adv-x="347" 
d="M367 665l-98.998 -509c-10.667 -54 -29 -95 -55 -123s-61 -42 -105 -42c-70 0 -105 36.333 -105 109c0 16 2 34.667 6 56l99 509h80l-100 -516c-2.66699 -11.333 -4 -23.333 -4 -36c0 -14.667 2.66699 -26.5 8 -35.5s14.666 -13.5 27.999 -13.5
c18.667 0 33.167 7.66699 43.5 23s18.166 36 23.499 62l100 516h80zM417.002 842l-93 -137h-62l76 137h79zM300.002 842l-86 -137h-63l71 137h78z" />
    <glyph glyph-name="uhungarumlaut" unicode="&#x171;" horiz-adv-x="333" 
d="M78 512l79 -0.000976562l-72 -373c-1.33301 -8 -2.5 -15.833 -3.5 -23.5s-1.5 -14.5 -1.5 -20.5c0 -12 2 -21.333 6 -28s11.667 -10 23 -10c9.33301 0 18.166 3.66699 26.499 11s15.5 16 21.5 26l82 418h80l-81 -414c-2 -11.333 -1.83301 -20 0.5 -26
s9.16602 -9 20.499 -9l-14 -73c-29.333 0 -49.666 5 -60.999 15s-18.666 26 -21.999 48c-11.333 -19.333 -24.333 -34.666 -39 -45.999s-32.667 -17 -54 -17c-47.333 0 -71 29.667 -71 89c0 9.33301 0.666992 19 2 29s3 20.667 5 32zM379 686.999l-93 -137h-62l76 137h79z
M262 686.999l-86 -137h-63l71 137h78z" />
    <glyph glyph-name="Uogonek" unicode="&#x172;" horiz-adv-x="347" 
d="M367 665l-98.9971 -508.997c-8 -38.667 -19.5 -70.334 -34.5 -95.001s-33.5 -43.667 -55.5 -57c-30 -18.667 -53.5 -39.834 -70.5 -63.501s-25.5 -47.167 -25.5 -70.5c0 -14.667 5.66699 -22 17 -22c6.66699 0 12.667 2.33301 18 7s8.66602 13.667 9.99902 27l1 8h50
l-1 -8c-3.33301 -22.667 -12.5 -42.667 -27.5 -60s-35.5 -26 -61.5 -26c-21.333 0 -37.166 5.66699 -47.499 17s-15.5 26.333 -15.5 45c0 28 7.16699 53.167 21.5 75.5s32.166 41.5 53.499 57.5c-64.667 3.33301 -97 39.666 -97 108.999c0 17.333 2 36 6 56l99 509h80
l-100 -516c-2.66699 -11.333 -4 -23.333 -4 -36c0 -14.667 2.66699 -26.5 8 -35.5s14.666 -13.5 27.999 -13.5c18.667 0 33.167 7.66699 43.5 23s18.166 36 23.499 62l100 516h80z" />
    <glyph glyph-name="uogonek" unicode="&#x173;" horiz-adv-x="333" 
d="M78 512h79l-72 -373c-1.33301 -8 -2.5 -15.833 -3.5 -23.5s-1.5 -14.5 -1.5 -20.5c0 -12 2 -21.333 6 -28s11.667 -10 23 -10c9.33301 0 18.166 3.66699 26.499 11s15.5 16 21.5 26l82 418h80l-81 -414c-2 -11.333 -1.83301 -20 0.5 -26s9.16602 -9 20.499 -9l-14 -73
c-13.333 0 -24.333 1 -33 3c-27.333 -16.667 -48.666 -35.834 -63.999 -57.501s-23 -43.5 -23 -65.5c0 -14.667 5.33301 -22 16 -22c7.33301 0 13.666 2.33301 18.999 7s8.66602 13.667 9.99902 27l1 8h50l-1 -8c-3.33301 -22.667 -12.666 -42.667 -27.999 -60
s-35.666 -26 -60.999 -26c-21.333 0 -37.166 5.66699 -47.499 17s-15.5 26.333 -15.5 45c0 35.333 10.5 65.666 31.5 90.999s46.5 46.333 76.5 63c-7.33301 8.66699 -12 22.334 -14 41.001c-11.333 -19.333 -24.333 -34.666 -39 -45.999s-32.667 -17 -54 -17
c-47.333 0 -71 29.667 -71 89c0 9.33301 0.666992 19 2 29s3 20.667 5 32z" />
    <glyph glyph-name="Wcircumflex" unicode="&#x174;" horiz-adv-x="473" 
d="M327 665l-34 -511h4l142 511h80l-207 -665h-80l24 448h-3l-150 -448h-75l54 665h80l-60 -511h3l166 511h56zM368 842l35 -137h-63l-16 84l-48 -84h-63l88 137h67z" />
    <glyph glyph-name="wcircumflex" unicode="&#x175;" horiz-adv-x="466" 
d="M235 512h65l-17 -364h3l115 364h80l-175 -512h-78l10 349h-5l-126 -349h-78l25 512h80l-29 -364h3zM335 687l35 -137h-63l-16 84l-48 -84h-63l88 137h67z" />
    <glyph glyph-name="Ycircumflex" unicode="&#x176;" horiz-adv-x="343" 
d="M186 207l-40 -207h-80l40 207l-24 458h82l3 -342h3l137 342h82zM303 842l35 -137h-63l-16 84l-48 -84h-63l88 137h67z" />
    <glyph glyph-name="ycircumflex" unicode="&#x177;" horiz-adv-x="298" 
d="M56 512l80.002 -0.000976562l-25 -377h3l122 377h79l-212 -565c-8 -22.667 -18 -43.5 -30 -62.5s-25.833 -35.5 -41.5 -49.5s-33.334 -25 -53.001 -33s-41.5 -12 -65.5 -12l14 74c18 0 37.167 7.33301 57.5 22s36.166 37.334 47.499 68.001l13 36zM251.002 686.999
l35 -137h-63l-16 84l-48 -84h-63l88 137h67z" />
    <glyph glyph-name="Ydieresis" unicode="&#x178;" horiz-adv-x="343" 
d="M186 207l-40 -207h-80l40 207l-24 458h82l3 -342h3l137 342h82zM203 822c12 0 21.668 -3.5 29.001 -10.5s11 -16.167 11 -27.5c0 -17.333 -5.66699 -31.166 -17 -41.499s-25 -15.5 -41 -15.5c-12 0 -21.5 3.5 -28.5 10.5s-10.5 16.167 -10.5 27.5
c0 17.333 5.66699 31.166 17 41.499s24.666 15.5 39.999 15.5zM328.001 822c12 0 21.668 -3.5 29.001 -10.5s11 -16.167 11 -27.5c0 -17.333 -5.66699 -31.166 -17 -41.499s-25 -15.5 -41 -15.5c-12 0 -21.5 3.5 -28.5 10.5s-10.5 16.167 -10.5 27.5
c0 17.333 5.66699 31.166 17 41.499s24.666 15.5 39.999 15.5z" />
    <glyph glyph-name="Zacute" unicode="&#x179;" horiz-adv-x="289" 
d="M75 589l14 76h243l-16 -88l-271 -504h168l-14 -73h-243l17 88l270 501h-168zM320 842l-84 -137h-65l67 137h82z" />
    <glyph glyph-name="zacute" unicode="&#x17a;" horiz-adv-x="248" 
d="M48 439l13 73h199l-16 -82l-200 -357h126l-14 -73h-199l15 81l201 358h-125zM269 687l-84 -137h-65l67 137h82z" />
    <glyph glyph-name="Zdotaccent" unicode="&#x17b;" horiz-adv-x="289" 
d="M75 589l14 76h243l-16 -88l-271 -504h168l-14 -73h-243l17 88l270 501h-168zM241 822c12 0 21.667 -3.49805 29 -10.498s11 -16.167 11 -27.5c0 -17.333 -5.83301 -31.333 -17.5 -42s-25.5 -16 -41.5 -16c-12 0 -21.667 3.66699 -29 11s-11 16.666 -11 27.999
c0 17.333 5.83301 31.166 17.5 41.499s25.5 15.5 41.5 15.5z" />
    <glyph glyph-name="zdotaccent" unicode="&#x17c;" horiz-adv-x="248" 
d="M48 439l13 73h199l-16 -82l-200 -357h126l-14 -73h-199l15 81l201 358h-125zM189 667c12 0 21.667 -3.49805 29 -10.498s11 -16.167 11 -27.5c0 -17.333 -5.83301 -31.333 -17.5 -42s-25.5 -16 -41.5 -16c-12 0 -21.667 3.66699 -29 11s-11 16.666 -11 27.999
c0 17.333 5.83301 31.166 17.5 41.499s25.5 15.5 41.5 15.5z" />
    <glyph glyph-name="Zcaron" unicode="&#x17d;" horiz-adv-x="289" 
d="M75 589l14 76h243l-16 -88l-271 -504h168l-14 -73h-243l17 88l270 501h-168zM185 705l-34 137h60l16 -85l48 85h60l-86 -137h-64z" />
    <glyph glyph-name="zcaron" unicode="&#x17e;" horiz-adv-x="248" 
d="M48 439l13 73h199l-16 -82l-200 -357h126l-14 -73h-199l15 81l201 358h-125zM134 550l-34 137h60l16 -85l48 85h60l-86 -137h-64z" />
    <glyph glyph-name="florin" unicode="&#x192;" horiz-adv-x="390" 
d="M202 163c-11.333 -58.667 -30.499 -102.168 -57.499 -130.501s-60.833 -42.5 -101.5 -42.5c-24 0 -42.667 4.5 -56 13.5s-24 20.167 -32 33.5l57 47c3.33301 -7.33301 8 -13.666 14 -18.999s14 -8 24 -8c20 0 35.167 9.33301 45.5 28s17.833 40 22.5 64l68 353
c23.333 115.333 75.666 173 156.999 173c25.333 0 44.666 -4.5 57.999 -13.5s24.333 -20.167 33 -33.5l-58 -49c-3.33301 7.33301 -7.66602 14 -12.999 20s-13.333 9 -24 9c-20 0 -34.833 -8.83301 -44.5 -26.5s-17.167 -38.5 -22.5 -62.5l-26 -132h92l-13 -67h-92z" />
    <glyph glyph-name="uni0218" unicode="&#x218;" horiz-adv-x="311" 
d="M65 523c4 20.667 10.166 40.3291 18.499 58.9961s19 34.834 32 48.501s28.333 24.5 46 32.5s37.834 12 60.501 12c32 0 56.667 -8.66699 74 -26s26 -44 26 -80c0 -16.667 -2 -36 -6 -58l-5 -29h-80l7 36c1.33301 6.66699 2.33301 13.167 3 19.5s1 12.5 1 18.5
c0 13.333 -2.5 24.333 -7.5 33s-14.167 13 -27.5 13c-17.333 0 -31.166 -7.83301 -41.499 -23.5s-17.5 -34.167 -21.5 -55.5l-5 -27c-4 -20.667 -3 -38.834 3 -54.501s18.333 -32.5 37 -50.5c21.333 -21.333 40 -44.166 56 -68.499s24 -53.5 24 -87.5
c0 -14 -1.33301 -27.333 -4 -40l-10 -52c-4 -19.333 -10.167 -38.166 -18.5 -56.499s-19 -34.666 -32 -48.999s-28.333 -25.833 -46 -34.5s-37.5 -13 -59.5 -13c-35.333 0 -60.833 9.33301 -76.5 28s-23.5 45 -23.5 79c0 18 2 38 6 60l5 26h80l-7 -33
c-3.33301 -15.333 -5 -29.333 -5 -42c0 -13.333 2.33301 -24.166 7 -32.499s13.667 -12.5 27 -12.5c17.333 0 31.166 8.16699 41.499 24.5s17.5 35.166 21.5 56.499l7 38c2 10.667 3 20.667 3 30c0 20.667 -4.33301 39.334 -13 56.001s-20.667 33 -36 49
c-21.333 20.667 -38.833 41 -52.5 61s-20.5 43.667 -20.5 71c0 5.33301 0.333008 10.833 1 16.5s1.66699 11.5 3 17.5zM59.999 -168.005h-58l50 128h76z" />
    <glyph glyph-name="uni0219" unicode="&#x219;" horiz-adv-x="291" 
d="M72 158l-1.99805 -9.99805c-4 -18 -6 -34.667 -6 -50c0 -12 2 -21.833 6 -29.5s11.333 -11.5 22 -11.5c8.66699 0 16.667 2.83301 24 8.5s13.666 13 18.999 22s9.33301 19 12 30s4 21.833 4 32.5c0 16.667 -4 32.5 -12 47.5s-22.333 30.167 -43 45.5
c-19.333 15.333 -34.5 32.5 -45.5 51.5s-16.5 41.5 -16.5 67.5c0 19.333 3.16699 38.5 9.5 57.5s15.833 36.167 28.5 51.5s28.167 27.666 46.5 36.999s39.166 14 62.499 14c63.333 0 95 -33.667 95 -101c0 -16.667 -2 -34.334 -6 -53.001l-2 -11h-78l3 18
c3.33301 15.333 5 28.666 5 39.999s-2.16699 20.833 -6.5 28.5s-12.166 11.5 -23.499 11.5c-10 0 -18.333 -2.33301 -25 -7s-12.167 -10.667 -16.5 -18s-7.5 -15.5 -9.5 -24.5s-3 -17.833 -3 -26.5c0 -17.333 5 -32.666 15 -45.999s24.667 -26.666 44 -39.999
c20.667 -15.333 35.667 -33.5 45 -54.5s14 -43.167 14 -66.5c0 -20 -3 -40.667 -9 -62s-15.333 -41 -28 -59s-28.334 -32.667 -47.001 -44s-40.667 -17 -66 -17c-32.667 0 -57 8.66699 -73 26s-24 42.666 -24 75.999c0 16 2 34.667 6 56l2 10h79zM50.002 -167.998h-58
l50 128h76z" />
    <glyph glyph-name="uni021A" unicode="&#x21a;" horiz-adv-x="312" 
d="M49 0l115 589h-100l14 76h284l-14 -76h-104l-115 -589h-80zM60 -168h-58l50 128h76z" />
    <glyph glyph-name="uni021B" unicode="&#x21b;" horiz-adv-x="237" 
d="M165 8c-11.333 -6 -22.167 -10.5 -32.5 -13.5s-22.166 -4.5 -35.499 -4.5c-33.333 0 -57.5 8.5 -72.5 25.5s-22.5 41.833 -22.5 74.5c0 20 2.33301 41.333 7 64l89 458h71l-5 -72l-6 -28h91l-13 -67h-92l-58 -298c-1.33301 -6 -2.33301 -12.167 -3 -18.5
s-1 -12.5 -1 -18.5c0 -13.333 2.5 -24.5 7.5 -33.5s14.5 -13.5 28.5 -13.5c13.333 0 26.666 3.66699 39.999 11zM37.999 -168h-58l50 128h76z" />
    <glyph glyph-name="dotlessj" unicode="&#x237;" horiz-adv-x="174" 
d="M152 512l-5.99805 -75l-91 -470c-12.667 -66 -32.834 -112 -60.501 -138s-62.834 -39 -105.501 -39l14 74c22 0 38 8.5 48 25.5s17.667 40.167 23 69.5l107 553h71z" />
    <glyph glyph-name="circumflex" unicode="&#x2c6;" horiz-adv-x="350" 
d="M277 687l35 -137h-63l-16 84l-48 -84h-63l88 137h67z" />
    <glyph glyph-name="caron" unicode="&#x2c7;" horiz-adv-x="350" 
d="M185 550l-34 137h60l16 -85l48 85h60l-86 -137h-64z" />
    <glyph glyph-name="breve" unicode="&#x2d8;" horiz-adv-x="350" 
d="M333 671l-2 -12c-5.33301 -29.333 -17.666 -52.833 -36.999 -70.5s-44.333 -26.5 -75 -26.5c-31.333 0 -53.333 8.83301 -66 26.5s-16.334 41.167 -11.001 70.5l2 12h64l-2 -12c-4 -24.667 4 -37 24 -37c21.333 0 34 12.333 38 37l2 12h63z" />
    <glyph glyph-name="dotaccent" unicode="&#x2d9;" horiz-adv-x="350" 
d="M240 667c12 0 21.667 -3.49805 29 -10.498s11 -16.167 11 -27.5c0 -17.333 -5.83301 -31.333 -17.5 -42s-25.5 -16 -41.5 -16c-12 0 -21.667 3.66699 -29 11s-11 16.666 -11 27.999c0 17.333 5.83301 31.166 17.5 41.499s25.5 15.5 41.5 15.5z" />
    <glyph glyph-name="ring" unicode="&#x2da;" horiz-adv-x="350" 
d="M197 619c0 -8 2.33398 -14.832 7.00098 -20.499s11.667 -8.5 21 -8.5c11.333 0 20.833 4.16699 28.5 12.5s11.5 18.166 11.5 29.499c0 8 -2.33301 14.667 -7 20s-11.334 8 -20.001 8c-11.333 0 -21 -4 -29 -12s-12 -17.667 -12 -29zM149.001 613.001
c0 12.667 2.83398 24.832 8.50098 36.499s13 21.667 22 30s19.5 15 31.5 20s24 7.5 36 7.5c20 0 36.167 -6.66699 48.5 -20s18.5 -29.666 18.5 -48.999c0 -12.667 -2.83301 -24.667 -8.5 -36s-13 -21.333 -22 -30s-19.333 -15.667 -31 -21s-23.834 -8 -36.501 -8
c-20 0 -36.167 6.83301 -48.5 20.5s-18.5 30.167 -18.5 49.5z" />
    <glyph glyph-name="ogonek" unicode="&#x2db;" horiz-adv-x="350" 
d="M194 0c-30.667 -17.333 -55 -37.499 -73 -60.499s-27 -46.167 -27 -69.5c0 -14.667 5.66699 -22 17 -22c6.66699 0 12.667 2.33301 18 7s8.66602 13.667 9.99902 27l1 8h50l-1 -8c-3.33301 -22.667 -12.5 -42.667 -27.5 -60s-35.5 -26 -61.5 -26
c-21.333 0 -37.166 5.66699 -47.499 17s-15.5 26.333 -15.5 45c0 20.667 4 39.667 12 57s18.5 33.166 31.5 47.499s28 27 45 38s34.833 20.5 53.5 28.5z" />
    <glyph glyph-name="tilde" unicode="&#x2dc;" horiz-adv-x="350" 
d="M108 567c2.66699 18.667 6.82812 34.501 12.4951 47.501s12.334 23.5 20.001 31.5s15.834 13.667 24.501 17s17.334 5 26.001 5c10.667 0 19.834 -2 27.501 -6s14.167 -8.16699 19.5 -12.5l15 -12.5c4.66699 -4 10 -6 16 -6c5.33301 0 10.166 2.33301 14.499 7
s7.16602 13.667 8.49902 27l1 5h60l-1 -5c-7.33301 -38 -18.666 -64.667 -33.999 -80s-31.333 -23 -48 -23c-10 0 -18.667 2.16699 -26 6.5s-13.833 9 -19.5 14l-16 14c-5 4.33301 -10.167 6.5 -15.5 6.5s-10.666 -2.33301 -15.999 -7s-8.66602 -14.334 -9.99902 -29.001v-5
h-60z" />
    <glyph glyph-name="hungarumlaut" unicode="&#x2dd;" horiz-adv-x="350" 
d="M392 687l-93 -137h-62l76 137h79zM275 687l-86 -137h-63l71 137h78z" />
    <glyph glyph-name="uni0394" unicode="&#x394;" horiz-adv-x="312" 
d="M173 73l19 446l-155 -446h136zM191 665h58l-6 -580l-16 -85h-272l16 86z" />
    <glyph glyph-name="uni03A9" unicode="&#x3a9;" 
d="M271 208c-13.333 -66 -45.6699 -110.999 -97.0029 -134.999h70l-13 -73h-113l15 78c14 12.667 25.667 30.334 35 53.001s16.666 46.334 21.999 71.001l61 315c1.33301 6 2.33301 12 3 18s1 11.667 1 17c0 14 -2.66699 25.833 -8 35.5s-15 14.5 -29 14.5
c-9.33301 0 -17.666 -2.5 -24.999 -7.5s-13.666 -11.5 -18.999 -19.5s-9.66602 -17 -12.999 -27s-6 -20.333 -8 -31l-61 -315c-1.33301 -8 -2.5 -17 -3.5 -27s-1.5 -20.333 -1.5 -31c0 -13.333 0.833008 -25.833 2.5 -37.5s4.83398 -21.167 9.50098 -28.5l-15 -78h-111
l14 73h70c-15.333 9.33301 -27.166 22.166 -35.499 38.499s-12.5 36.166 -12.5 59.499c0 6 0.333008 12 1 18s1.66699 12.333 3 19l59 301c10.667 54 29.167 95.167 55.5 123.5s61.166 42.5 104.499 42.5c35.333 0 61.5 -9.33301 78.5 -28s25.5 -46 25.5 -82
c0 -16.667 -2 -35.334 -6 -56.001z" />
    <glyph glyph-name="pi" unicode="&#x3c0;" horiz-adv-x="403" 
d="M257 0h-80l86 439h-81l-86 -439h-80l86 439h-53l13 73h347l-13 -73h-53z" />
    <glyph glyph-name="Wgrave" unicode="&#x1e80;" horiz-adv-x="473" 
d="M327 665l-34 -511h4l142 511h80l-207 -665h-80l24 448h-3l-150 -448h-75l54 665h80l-60 -511h3l166 511h56zM352 842l15 -137h-66l-31 137h82z" />
    <glyph glyph-name="wgrave" unicode="&#x1e81;" horiz-adv-x="466" 
d="M235 512h65l-17 -364h3l115 364h80l-175 -512h-78l10 349h-5l-126 -349h-78l25 512h80l-29 -364h3zM319 687l15 -137h-66l-31 137h82z" />
    <glyph glyph-name="Wacute" unicode="&#x1e82;" horiz-adv-x="473" 
d="M327 665l-34 -511h4l142 511h80l-207 -665h-80l24 448h-3l-150 -448h-75l54 665h80l-60 -511h3l166 511h56zM411 842l-84 -137h-65l67 137h82z" />
    <glyph glyph-name="wacute" unicode="&#x1e83;" horiz-adv-x="466" 
d="M235 512h65l-17 -364h3l115 364h80l-175 -512h-78l10 349h-5l-126 -349h-78l25 512h80l-29 -364h3zM378 687l-84 -137h-65l67 137h82z" />
    <glyph glyph-name="Wdieresis" unicode="&#x1e84;" horiz-adv-x="473" 
d="M327 665l-34 -511h4l142 511h80l-207 -665h-80l24 448h-3l-150 -448h-75l54 665h80l-60 -511h3l166 511h56zM268 822c12 0 21.668 -3.5 29.001 -10.5s11 -16.167 11 -27.5c0 -17.333 -5.66699 -31.166 -17 -41.499s-25 -15.5 -41 -15.5c-12 0 -21.5 3.5 -28.5 10.5
s-10.5 16.167 -10.5 27.5c0 17.333 5.66699 31.166 17 41.499s24.666 15.5 39.999 15.5zM393.001 822c12 0 21.668 -3.5 29.001 -10.5s11 -16.167 11 -27.5c0 -17.333 -5.66699 -31.166 -17 -41.499s-25 -15.5 -41 -15.5c-12 0 -21.5 3.5 -28.5 10.5
s-10.5 16.167 -10.5 27.5c0 17.333 5.66699 31.166 17 41.499s24.666 15.5 39.999 15.5z" />
    <glyph glyph-name="wdieresis" unicode="&#x1e85;" horiz-adv-x="466" 
d="M235 512h65l-17 -364h3l115 364h80l-175 -512h-78l10 349h-5l-126 -349h-78l25 512h80l-29 -364h3zM235 667c12 0 21.668 -3.5 29.001 -10.5s11 -16.167 11 -27.5c0 -17.333 -5.66699 -31.166 -17 -41.499s-25 -15.5 -41 -15.5c-12 0 -21.5 3.5 -28.5 10.5
s-10.5 16.167 -10.5 27.5c0 17.333 5.66699 31.166 17 41.499s24.666 15.5 39.999 15.5zM360.001 667c12 0 21.668 -3.5 29.001 -10.5s11 -16.167 11 -27.5c0 -17.333 -5.66699 -31.166 -17 -41.499s-25 -15.5 -41 -15.5c-12 0 -21.5 3.5 -28.5 10.5
s-10.5 16.167 -10.5 27.5c0 17.333 5.66699 31.166 17 41.499s24.666 15.5 39.999 15.5z" />
    <glyph glyph-name="Ygrave" unicode="&#x1ef2;" horiz-adv-x="343" 
d="M186 207l-40 -207h-80l40 207l-24 458h82l3 -342h3l137 342h82zM287 842l15 -137h-66l-31 137h82z" />
    <glyph glyph-name="ygrave" unicode="&#x1ef3;" horiz-adv-x="298" 
d="M56 512l80.002 -0.000976562l-25 -377h3l122 377h79l-212 -565c-8 -22.667 -18 -43.5 -30 -62.5s-25.833 -35.5 -41.5 -49.5s-33.334 -25 -53.001 -33s-41.5 -12 -65.5 -12l14 74c18 0 37.167 7.33301 57.5 22s36.166 37.334 47.499 68.001l13 36zM235.002 686.999
l15 -137h-66l-31 137h82z" />
    <glyph glyph-name="endash" unicode="&#x2013;" horiz-adv-x="500" 
d="M54 357h400l-14 -75h-400z" />
    <glyph glyph-name="emdash" unicode="&#x2014;" horiz-adv-x="1000" 
d="M54 357h900l-14 -75h-900z" />
    <glyph glyph-name="quoteleft" unicode="&#x2018;" horiz-adv-x="180" 
d="M146 681h53l-57 -218h-75z" />
    <glyph glyph-name="quoteright" unicode="&#x2019;" horiz-adv-x="178" 
d="M124 463h-53l56 218h76z" />
    <glyph glyph-name="quotesinglbase" unicode="&#x201a;" horiz-adv-x="179" 
d="M6 -156h-53l52 193h75z" />
    <glyph glyph-name="quotedblleft" unicode="&#x201c;" horiz-adv-x="304" 
d="M146 681h53l-57 -218h-75zM270 681h53l-57 -218h-75z" />
    <glyph glyph-name="quotedblright" unicode="&#x201d;" horiz-adv-x="302" 
d="M124 463h-53l56 218h76zM248 463h-53l56 218h76z" />
    <glyph glyph-name="quotedblbase" unicode="&#x201e;" horiz-adv-x="303" 
d="M6 -156h-53l52 193h75zM130 -156h-53l52 193h75z" />
    <glyph glyph-name="dagger" unicode="&#x2020;" horiz-adv-x="290" 
d="M70 525h72l36 185h80l-36 -185h71l-14 -74h-72l-87 -451h-80l87 451h-71z" />
    <glyph glyph-name="daggerdbl" unicode="&#x2021;" horiz-adv-x="290" 
d="M70 525h72l36 185h80l-36 -185h71l-14 -74h-72l-37 -192h72l-14 -73h-72l-36 -186h-80l36 186h-72l14 73h72l37 192h-71z" />
    <glyph glyph-name="bullet" unicode="&#x2022;" horiz-adv-x="255" 
d="M37 313c0 32 10.5 57.666 31.5 76.999s46.167 29 75.5 29c21.333 0 38.666 -6.66699 51.999 -20s20 -30.666 20 -51.999c0 -32 -10.5 -57.667 -31.5 -77s-46.167 -29 -75.5 -29c-21.333 0 -38.666 6.5 -51.999 19.5s-20 30.5 -20 52.5z" />
    <glyph glyph-name="ellipsis" unicode="&#x2026;" horiz-adv-x="529" 
d="M-24 37c0 17.333 6 31.666 18 42.999s26.667 17 44 17c13.333 0 23.666 -3.83301 30.999 -11.5s11 -17.834 11 -30.501c0 -17.333 -6 -31.666 -18 -42.999s-26.667 -17 -44 -17c-13.333 0 -23.666 3.83301 -30.999 11.5s-11 17.834 -11 30.501zM157 37
c0 17.333 6 31.666 18 42.999s26.667 17 44 17c13.333 0 23.666 -3.83301 30.999 -11.5s11 -17.834 11 -30.501c0 -17.333 -6 -31.666 -18 -42.999s-26.667 -17 -44 -17c-13.333 0 -23.666 3.83301 -30.999 11.5s-11 17.834 -11 30.501zM337 37c0 17.333 6 31.666 18 42.999
s26.667 17 44 17c13.333 0 23.666 -3.83301 30.999 -11.5s11 -17.834 11 -30.501c0 -17.333 -6 -31.666 -18 -42.999s-26.667 -17 -44 -17c-13.333 0 -23.666 3.83301 -30.999 11.5s-11 17.834 -11 30.501z" />
    <glyph glyph-name="perthousand" unicode="&#x2030;" horiz-adv-x="895" 
d="M233 377c-6.66699 -32.667 -19.668 -59.667 -39.001 -81s-46.333 -32 -81 -32c-28 0 -48.333 7.33301 -61 22s-19 33.667 -19 57c0 5.33301 0.333008 10.833 1 16.5s1.66699 11.5 3 17.5l35 185c6 32.667 18.833 59.667 38.5 81s46.834 32 81.501 32
c28 0 48.167 -7.33301 60.5 -22s18.5 -33.667 18.5 -57c0 -10.667 -1 -22 -3 -34zM200.999 568c2.66699 12.667 2.66895 23.5 0.00195312 32.5s-9.66699 13.5 -21 13.5s-20 -4.5 -26 -13.5s-10.333 -19.833 -13 -32.5l-38 -197
c-2.66699 -12.667 -2.83398 -23.5 -0.500977 -32.5s9.16602 -13.5 20.499 -13.5c12 0 21 4.5 27 13.5s10.333 19.833 13 32.5zM153.001 0h-68l407 665h68zM573.001 107c-6.66699 -32.667 -19.668 -59.667 -39.001 -81s-46.333 -32 -81 -32c-28 0 -48.333 7.33301 -61 22
s-19 33.667 -19 57c0 5.33301 0.333008 10.833 1 16.5s1.66699 11.5 3 17.5l35 185c6 32.667 18.833 59.667 38.5 81s46.834 32 81.501 32c28 0 48.167 -7.33301 60.5 -22s18.5 -33.667 18.5 -57c0 -10.667 -1 -22 -3 -34zM541 298
c2.66699 12.667 2.66895 23.5 0.00195312 32.5s-9.66699 13.5 -21 13.5s-20 -4.5 -26 -13.5s-10.333 -19.833 -13 -32.5l-38 -197c-2.66699 -12.667 -2.83398 -23.5 -0.500977 -32.5s9.16602 -13.5 20.499 -13.5c12 0 21 4.5 27 13.5s10.333 19.833 13 32.5zM825.002 107
c-6.66699 -32.667 -19.668 -59.667 -39.001 -81s-46.333 -32 -81 -32c-28 0 -48.333 7.33301 -61 22s-19 33.667 -19 57c0 5.33301 0.333008 10.833 1 16.5s1.66699 11.5 3 17.5l35 185c6 32.667 18.833 59.667 38.5 81s46.834 32 81.501 32c28 0 48.167 -7.33301 60.5 -22
s18.5 -33.667 18.5 -57c0 -10.667 -1 -22 -3 -34zM793.001 298c2.66699 12.667 2.66895 23.5 0.00195312 32.5s-9.66699 13.5 -21 13.5s-20 -4.5 -26 -13.5s-10.333 -19.833 -13 -32.5l-38 -197c-2.66699 -12.667 -2.83398 -23.5 -0.500977 -32.5
s9.16602 -13.5 20.499 -13.5c12 0 21 4.5 27 13.5s10.333 19.833 13 32.5z" />
    <glyph glyph-name="guilsinglleft" unicode="&#x2039;" horiz-adv-x="237" 
d="M184 475l42 -56l-129 -126l80 -127l-64 -55l-92 145l14 74z" />
    <glyph glyph-name="guilsinglright" unicode="&#x203a;" horiz-adv-x="237" 
d="M37 110l-43 56l130 127l-81 126l64 55l92 -144l-14 -74z" />
    <glyph glyph-name="fraction" unicode="&#x2044;" horiz-adv-x="141" 
d="M-99 0h-68l407 665h68z" />
    <glyph glyph-name="zerosuperior" unicode="&#x2070;" horiz-adv-x="252" 
d="M233 377c-6.66699 -32.667 -19.668 -59.667 -39.001 -81s-46.333 -32 -81 -32c-28 0 -48.333 7.33301 -61 22s-19 33.667 -19 57c0 5.33301 0.333008 10.833 1 16.5s1.66699 11.5 3 17.5l35 185c6 32.667 18.833 59.667 38.5 81s46.834 32 81.501 32
c28 0 48.167 -7.33301 60.5 -22s18.5 -33.667 18.5 -57c0 -10.667 -1 -22 -3 -34zM200.999 568c2.66699 12.667 2.66895 23.5 0.00195312 32.5s-9.66699 13.5 -21 13.5s-20 -4.5 -26 -13.5s-10.333 -19.833 -13 -32.5l-38 -197
c-2.66699 -12.667 -2.83398 -23.5 -0.500977 -32.5s9.16602 -13.5 20.499 -13.5c12 0 21 4.5 27 13.5s10.333 19.833 13 32.5z" />
    <glyph glyph-name="foursuperior" unicode="&#x2074;" horiz-adv-x="252" 
d="M161 344h-136l14 75l150 250h68l-158 -264h74l13 69h62l-40 -204h-62z" />
    <glyph glyph-name="fivesuperior" unicode="&#x2075;" horiz-adv-x="252" 
d="M92 669h191.999l-12 -61h-126l-19 -96c7.33301 9.33301 16.5 17 27.5 23s23.167 9 36.5 9c16.667 0 30.167 -5.33301 40.5 -16s15.5 -28 15.5 -52c0 -13.333 -1.33301 -26.666 -4 -39.999l-11 -59c-7.33301 -34 -21.166 -61.333 -41.499 -82s-46.5 -31 -78.5 -31
c-32.667 0 -55.334 9.5 -68.001 28.5s-16 43.5 -10 73.5l4 19h68l-3 -13c-2.66699 -13.333 -3 -24.5 -1 -33.5s8.66699 -13.5 20 -13.5s20.333 4.5 27 13.5s11.334 19.833 14.001 32.5l14 70c2 11.333 1.66699 21.166 -1 29.499s-9 12.5 -19 12.5
c-9.33301 0 -17 -3.16699 -23 -9.5s-10.667 -13.5 -14 -21.5h-69z" />
    <glyph glyph-name="sixsuperior" unicode="&#x2076;" horiz-adv-x="252" 
d="M200 562l1.00098 5c2.66699 12 2.66699 22.833 0 32.5s-9.66699 14.5 -21 14.5s-20 -4.5 -26 -13.5s-10.333 -19.833 -13 -32.5l-17 -88c6.66699 11.333 15.334 21 26.001 29s23.667 12 39 12c17.333 0 30.833 -5.66699 40.5 -17s14.5 -28 14.5 -50
c0 -9.33301 -1 -20 -3 -32l-9 -45c-6 -32.667 -18.667 -59.667 -38 -81s-46.333 -32 -81 -32c-28 0 -48.333 7.33301 -61 22s-19 33.667 -19 57c0 5.33301 0.333008 10.833 1 16.5s1.66699 11.5 3 17.5l35 184c6.66699 34 19.667 61.5 39 82.5s46.333 31.5 81 31.5
c17.333 0 31.666 -2.83301 42.999 -8.5s20 -13.167 26 -22.5s9.66699 -20.5 11 -33.5s0.666016 -26.5 -2.00098 -40.5l-2 -8h-68zM123.001 325c12 0 21.002 4.5 27.002 13.5s10.333 19.5 13 31.5l9 47c2.66699 12.667 2.66699 23.5 0 32.5s-9.66699 13.5 -21 13.5
s-20 -4.5 -26 -13.5s-10.333 -19.833 -13 -32.5l-9 -46c-2.66699 -12.667 -2.83398 -23.5 -0.500977 -32.5s9.16602 -13.5 20.499 -13.5z" />
    <glyph glyph-name="sevensuperior" unicode="&#x2077;" horiz-adv-x="252" 
d="M23 270l190 338h-137l12 61h204l-14 -71l-184 -328h-71z" />
    <glyph glyph-name="eightsuperior" unicode="&#x2078;" horiz-adv-x="252" 
d="M76 581c5.33301 28.667 18.166 51.502 38.499 68.502s45.833 25.5 76.5 25.5c16 0 29.667 -2.66699 41 -8s20.166 -12.333 26.499 -21s10.5 -18.834 12.5 -30.501s2 -23.5 0 -35.5l-3 -16c-4 -20.667 -12 -37.167 -24 -49.5s-27.333 -25.166 -46 -38.499
c13.333 -12.667 23.5 -26.334 30.5 -41.001s8.16699 -34 3.5 -58l-3 -17c-6 -28.667 -18.667 -51.834 -38 -69.501s-45.333 -26.5 -78 -26.5c-16.667 0 -30.667 2.66699 -42 8s-20.166 12.333 -26.499 21s-10.5 18.834 -12.5 30.501s-1.66699 23.834 1 36.501l3 16
c4.66699 23.333 13.334 42.666 26.001 57.999s27.667 29.333 45 42c-13.333 13.333 -23.5 26.166 -30.5 38.499s-8.5 28.5 -4.5 48.5zM102 368.002c-2 -11.333 -1.83203 -21.333 0.500977 -30s9.16602 -13 20.499 -13s20.166 4.16699 26.499 12.5s10.5 18.166 12.5 29.499
l4 19c2.66699 20.667 -3.66602 39.334 -18.999 56.001c-11.333 -8 -20.5 -16.167 -27.5 -24.5s-11.5 -18.833 -13.5 -31.5zM139.001 560.002c-2.66699 -12 -2.33496 -21.501 0.998047 -28.501s9.66602 -15.167 18.999 -24.5c12.667 9.33301 21.834 17.333 27.501 24
s9.83398 15.667 12.501 27l3 14c1.33301 10.667 0.833008 20.334 -1.5 29.001s-9.16602 13 -20.499 13s-20 -4 -26 -12s-10 -17.667 -12 -29z" />
    <glyph glyph-name="ninesuperior" unicode="&#x2079;" horiz-adv-x="252" 
d="M104 377l-1.99805 -8.00098c-2 -12 -1.83301 -22.333 0.5 -31s9.16602 -13 20.499 -13s20.166 4.5 26.499 13.5s10.833 20.167 13.5 33.5l17 85c-6 -9.33301 -14.5 -18.166 -25.5 -26.499s-23.5 -12.5 -37.5 -12.5c-18 0 -32 5.5 -42 16.5s-15 27.5 -15 49.5
c0 9.33301 1 20 3 32l9 46c6 32.667 18.833 59.667 38.5 81s46.5 32 80.5 32c28 0 48.5 -7.33301 61.5 -22s19.5 -33.667 19.5 -57c0 -5.33301 -0.333008 -10.666 -1 -15.999s-1.66699 -11 -3 -17l-36 -186c-6 -32 -18.667 -58.833 -38 -80.5s-46.333 -32.5 -81 -32.5
c-34 0 -57 10.167 -69 30.5s-15.333 45.166 -10 74.499l2 8h68zM180.002 613.999c-11.333 0 -19.998 -4.49902 -25.998 -13.499s-10.333 -19.833 -13 -32.5l-8 -44c-2.66699 -12.667 -2.83398 -23.834 -0.500977 -33.501s9.16602 -14.5 20.499 -14.5
c10 0 18.667 5.33301 26 16s12 21.667 14 33l8 42c2.66699 13.333 2.66699 24.5 0 33.5s-9.66699 13.5 -21 13.5z" />
    <glyph glyph-name="zeroinferior" unicode="&#x2080;" horiz-adv-x="252" 
d="M181 107c-6.66699 -32.667 -19.668 -59.667 -39.001 -81s-46.333 -32 -81 -32c-28 0 -48.333 7.33301 -61 22s-19 33.667 -19 57c0 5.33301 0.333008 10.833 1 16.5s1.66699 11.5 3 17.5l35 185c6 32.667 18.833 59.667 38.5 81s46.834 32 81.501 32
c28 0 48.167 -7.33301 60.5 -22s18.5 -33.667 18.5 -57c0 -10.667 -1 -22 -3 -34zM148.999 298c2.66699 12.667 2.66895 23.5 0.00195312 32.5s-9.66699 13.5 -21 13.5s-20 -4.5 -26 -13.5s-10.333 -19.833 -13 -32.5l-38 -197
c-2.66699 -12.667 -2.83398 -23.5 -0.500977 -32.5s9.16602 -13.5 20.499 -13.5c12 0 21 4.5 27 13.5s10.333 19.833 13 32.5z" />
    <glyph glyph-name="oneinferior" unicode="&#x2081;" horiz-adv-x="252" 
d="M63 0l64 324l-78 -50l-30 52l112 73h78l-78 -399h-68z" />
    <glyph glyph-name="twoinferior" unicode="&#x2082;" horiz-adv-x="252" 
d="M19 287l2.00293 13c5.33301 31.333 17.666 56.666 36.999 75.999s47 29 83 29c35.333 0 58.666 -8.83301 69.999 -26.5s14.666 -40.5 9.99902 -68.5l-3 -12c-3.33301 -18.667 -12.333 -39 -27 -61s-34.334 -47 -59.001 -75l-83 -101h122l-11 -61h-192l14 68l74 92
c29.333 33.333 51.333 59.833 66 79.5s23.667 37.834 27 54.501l2 8c4.66699 28 -2.66602 42 -21.999 42c-12 0 -21 -4 -27 -12s-10.667 -19 -14 -33l-2 -12h-67z" />
    <glyph glyph-name="threeinferior" unicode="&#x2083;" horiz-adv-x="252" 
d="M149 301c2.66699 13.333 2.5 23.834 -0.5 31.501s-10.167 11.5 -21.5 11.5s-20 -4.33301 -26 -13s-10.667 -19.667 -14 -33l-1 -7h-68l2 9c6 32 18.833 57.5 38.5 76.5s46.167 28.5 79.5 28.5s56.5 -9 69.5 -27s16.833 -39.667 11.5 -65l-4 -21
c-4 -20 -11.167 -36.5 -21.5 -49.5s-22.166 -22.5 -35.499 -28.5v-3c11.333 -6 19.333 -16.167 24 -30.5s5 -31.5 1 -51.5l-5 -29c-6.66699 -32.667 -20 -58.5 -40 -77.5s-46.333 -28.5 -79 -28.5c-27.333 0 -47.833 6.5 -61.5 19.5s-20.5 31.167 -20.5 54.5
c0 9.33301 1 19 3 29l3 16h68l-2 -10c-2.66699 -14 -2.83398 -25.5 -0.500977 -34.5s9.5 -13.5 21.5 -13.5c11.333 0 20.166 4.5 26.499 13.5s10.833 20.167 13.5 33.5l6 28c2.66699 14 2 25.667 -2 35s-12.667 14 -26 14h-30l11 58h24c15.333 0 27.333 5.16699 36 15.5
s14.334 22.166 17.001 35.499z" />
    <glyph glyph-name="fourinferior" unicode="&#x2084;" horiz-adv-x="252" 
d="M109 74h-136l14 75l150 250h68l-158 -264h74l13 69h62l-40 -204h-62z" />
    <glyph glyph-name="fiveinferior" unicode="&#x2085;" horiz-adv-x="252" 
d="M40 399h191.999l-12 -61h-126l-19 -96c7.33301 9.33301 16.5 17 27.5 23s23.167 9 36.5 9c16.667 0 30.167 -5.33301 40.5 -16s15.5 -28 15.5 -52c0 -13.333 -1.33301 -26.666 -4 -39.999l-11 -59c-7.33301 -34 -21.166 -61.333 -41.499 -82s-46.5 -31 -78.5 -31
c-32.667 0 -55.334 9.5 -68.001 28.5s-16 43.5 -10 73.5l4 19h68l-3 -13c-2.66699 -13.333 -3 -24.5 -1 -33.5s8.66699 -13.5 20 -13.5s20.333 4.5 27 13.5s11.334 19.833 14.001 32.5l14 70c2 11.333 1.66699 21.166 -1 29.499s-9 12.5 -19 12.5
c-9.33301 0 -17 -3.16699 -23 -9.5s-10.667 -13.5 -14 -21.5h-69z" />
    <glyph glyph-name="sixinferior" unicode="&#x2086;" horiz-adv-x="252" 
d="M148 292l1.00098 5c2.66699 12 2.66699 22.833 0 32.5s-9.66699 14.5 -21 14.5s-20 -4.5 -26 -13.5s-10.333 -19.833 -13 -32.5l-17 -88c6.66699 11.333 15.334 21 26.001 29s23.667 12 39 12c17.333 0 30.833 -5.66699 40.5 -17s14.5 -28 14.5 -50
c0 -9.33301 -1 -20 -3 -32l-9 -45c-6 -32.667 -18.667 -59.667 -38 -81s-46.333 -32 -81 -32c-28 0 -48.333 7.33301 -61 22s-19 33.667 -19 57c0 5.33301 0.333008 10.833 1 16.5s1.66699 11.5 3 17.5l35 184c6.66699 34 19.667 61.5 39 82.5s46.333 31.5 81 31.5
c17.333 0 31.666 -2.83301 42.999 -8.5s20 -13.167 26 -22.5s9.66699 -20.5 11 -33.5s0.666016 -26.5 -2.00098 -40.5l-2 -8h-68zM71.001 55c12 0 21.002 4.5 27.002 13.5s10.333 19.5 13 31.5l9 47c2.66699 12.667 2.66699 23.5 0 32.5s-9.66699 13.5 -21 13.5
s-20 -4.5 -26 -13.5s-10.333 -19.833 -13 -32.5l-9 -46c-2.66699 -12.667 -2.83398 -23.5 -0.500977 -32.5s9.16602 -13.5 20.499 -13.5z" />
    <glyph glyph-name="seveninferior" unicode="&#x2087;" horiz-adv-x="252" 
d="M-29 0l190 338h-137l12 61h204l-14 -71l-184 -328h-71z" />
    </font>
</defs>
</svg>
