<?xml version="1.0" standalone="no"?>
<!DOCTYPE svg PUBLIC "-//W3C//DTD SVG 1.1//EN" "http://www.w3.org/Graphics/SVG/1.1/DTD/svg11.dtd" >
<svg>
<metadata>
Created by FontForge 20090914 at Sun Aug 10 12:59:23 2014
 By www-data
Copyright (c) 2013 by FONTYOU. All rights reserved. www.fontyou.com
</metadata>
<defs>
<font id="MarianinaCnFY-Bold" horiz-adv-x="336" >
  <font-face 
    font-family="MarianinaCnFY-Bold"
    font-weight="400"
    font-stretch="normal"
    units-per-em="1000"
    panose-1="2 0 8 6 0 0 0 2 0 4"
    ascent="772"
    descent="-228"
    x-height="516"
    cap-height="665"
    bbox="-110 -214 950 879"
    underline-thickness="50"
    underline-position="-50"
    unicode-range="U+000D-U+FB04"
  />
<missing-glyph horiz-adv-x="602" 
d="M305 435c10.667 19.333 24.498 35 41.498 47s35.833 18 56.5 18c28.667 0 52.334 -9.83301 71.001 -29.5s28 -44.834 28 -75.501c0 -20 -4.5 -41.667 -13.5 -65s-22 -46.666 -39 -69.999s-38 -45.833 -63 -67.5s-53.5 -40.834 -85.5 -57.501
c-32 16.667 -60.5 35.834 -85.5 57.501s-46 44.167 -63 67.5s-30 46.666 -39 69.999s-13.5 45 -13.5 65c0 30.667 9.33301 55.834 28 75.501s42.334 29.5 71.001 29.5c20.667 0 39.5 -6 56.5 -18s30.833 -27.667 41.5 -47h8z" />
    <glyph glyph-name="f_f" unicode="ff" horiz-adv-x="467" 
d="M143 432v-432h-102v530c0 120 43.667 180 131 180c28 0 50 -4.66699 66 -14s29.667 -21 41 -35l-59 -58c-4 6 -9 11.333 -15 16s-12.667 7 -20 7c-16 0 -27 -7.5 -33 -22.5s-9 -32.833 -9 -53.5v-34h84v-84h-84zM373 432v-432h-103v530c0 120 43.667 180 131 180
c28.667 0 51 -4.66699 67 -14s29.667 -21 41 -35l-60 -58c-4 6 -8.83301 11.333 -14.5 16s-12.5 7 -20.5 7c-16 0 -26.833 -7.5 -32.5 -22.5s-8.5 -32.833 -8.5 -53.5v-34h84v-84h-84z" />
    <glyph glyph-name="fi" unicode="fi" horiz-adv-x="413" 
d="M143 432v-432h-102v530c0 120 43.667 180 131 180c28 0 50 -4.66699 66 -14s29.667 -21 41 -35l-59 -58c-4 6 -9 11.333 -15 16s-12.667 7 -20 7c-16 0 -27 -7.5 -33 -22.5s-9 -32.833 -9 -53.5v-34h84v-84h-84zM274 516h89l11 -85v-431h-100v516zM324 670
c16.667 0 30.167 -5.16699 40.5 -15.5s15.5 -23.833 15.5 -40.5c0 -17.333 -5.16699 -31 -15.5 -41s-23.833 -15 -40.5 -15s-30.167 5 -40.5 15s-15.5 23.667 -15.5 41c0 16.667 5.16699 30.167 15.5 40.5s23.833 15.5 40.5 15.5z" />
    <glyph glyph-name="fl" unicode="fl" horiz-adv-x="409" 
d="M370 625l-0.000976562 -625.001h-91l-9 85v567l-50 -49c-4 6 -9 11.333 -15 16s-12.667 7 -20 7c-16 0 -27 -7.5 -33 -22.5s-9 -32.833 -9 -53.5v-34h84v-84h-84v-432h-102v530c0 120 43.667 180 131 180c24.667 0 44.334 -3.66699 59.001 -11s27.667 -16.666 39 -27.999
v39h89z" />
    <glyph glyph-name="f_f_i" unicode="ffi" horiz-adv-x="642" 
d="M143 432v-432h-102v530c0 120 43.667 180 131 180c28 0 50 -4.66699 66 -14s29.667 -21 41 -35l-59 -58c-4 6 -9 11.333 -15 16s-12.667 7 -20 7c-16 0 -27 -7.5 -33 -22.5s-9 -32.833 -9 -53.5v-34h84v-84h-84zM372 432v-432h-102v530c0 120 43.667 180 131 180
c28 0 50 -4.66699 66 -14s29.667 -21 41 -35l-59 -58c-4 6 -9 11.333 -15 16s-12.667 7 -20 7c-16 0 -27 -7.5 -33 -22.5s-9 -32.833 -9 -53.5v-34h84v-84h-84zM503 516h89l11 -85v-431h-100v516zM553 670c16.667 0 30.167 -5.16699 40.5 -15.5s15.5 -23.833 15.5 -40.5
c0 -17.333 -5.16699 -31 -15.5 -41s-23.833 -15 -40.5 -15s-30.167 5 -40.5 15s-15.5 23.667 -15.5 41c0 16.667 5.16699 30.167 15.5 40.5s23.833 15.5 40.5 15.5z" />
    <glyph glyph-name="f_f_l" unicode="ffl" horiz-adv-x="638" 
d="M143 432v-432h-102v530c0 120 43.667 180 131 180c28 0 50 -4.66699 66 -14s29.667 -21 41 -35l-59 -58c-4 6 -9 11.333 -15 16s-12.667 7 -20 7c-16 0 -27 -7.5 -33 -22.5s-9 -32.833 -9 -53.5v-34h84v-84h-84zM599 625l-0.000976562 -625h-91l-9 85v566l-50 -48
c-4 6 -8.83301 11.333 -14.5 16s-12.5 7 -20.5 7c-16 0 -26.833 -7.5 -32.5 -22.5s-8.5 -32.833 -8.5 -53.5v-34h84v-84h-84v-432h-103v530c0 120 43.667 180 131 180c24.667 0 44.334 -3.5 59.001 -10.5s27.667 -16.167 39 -27.5v38h90z" />
    <glyph glyph-name=".notdef" horiz-adv-x="602" 
d="M305 435c10.667 19.333 24.498 35 41.498 47s35.833 18 56.5 18c28.667 0 52.334 -9.83301 71.001 -29.5s28 -44.834 28 -75.501c0 -20 -4.5 -41.667 -13.5 -65s-22 -46.666 -39 -69.999s-38 -45.833 -63 -67.5s-53.5 -40.834 -85.5 -57.501
c-32 16.667 -60.5 35.834 -85.5 57.501s-46 44.167 -63 67.5s-30 46.666 -39 69.999s-13.5 45 -13.5 65c0 30.667 9.33301 55.834 28 75.501s42.334 29.5 71.001 29.5c20.667 0 39.5 -6 56.5 -18s30.833 -27.667 41.5 -47h8z" />
    <glyph glyph-name=".null" horiz-adv-x="0" 
 />
    <glyph glyph-name=".null" horiz-adv-x="0" 
 />
    <glyph glyph-name="nonmarkingreturn" unicode="&#xd;" horiz-adv-x="0" 
 />
    <glyph glyph-name="space" unicode=" " horiz-adv-x="120" 
 />
    <glyph glyph-name="exclam" unicode="!" horiz-adv-x="224" 
d="M163 665v-486h-93l-9 86v400h102zM50 56c0 17.333 5.83301 31.833 17.5 43.5s26.167 17.5 43.5 17.5s31.833 -5.83301 43.5 -17.5s17.5 -26.167 17.5 -43.5s-5.83301 -31.833 -17.5 -43.5s-26.167 -17.5 -43.5 -17.5s-31.833 5.83301 -43.5 17.5s-17.5 26.167 -17.5 43.5
z" />
    <glyph glyph-name="quotedbl" unicode="&#x22;" horiz-adv-x="313" 
d="M127 445h-74l-13 238h100zM259 445h-74l-13 238h100z" />
    <glyph glyph-name="numbersign" unicode="#" horiz-adv-x="503" 
d="M88 496h75l44 169h87l-44 -169h85l44 169h87l-44 -169h54v-80h-75l-41 -157h54v-80h-75l-46 -179h-87l46 179h-84l-47 -179h-87l46 179h-54v80h75l41 157h-54v80zM188 259h85l41 157h-85z" />
    <glyph glyph-name="dollar" unicode="$" horiz-adv-x="327" 
d="M32 517c0 31.333 6.5 60.6719 19.5 88.0049s33.833 47 62.5 59v66h100v-63c26 -8.66699 46 -26.334 60 -53.001s21 -64.334 21 -113.001v-34h-100v44c0 8.66699 -0.5 17.334 -1.5 26.001s-2.66699 16.334 -5 23.001s-5.66602 12.167 -9.99902 16.5s-9.5 6.5 -15.5 6.5
c-11.333 0 -19 -7 -23 -21s-6 -30 -6 -48c0 -12 0.333008 -22.833 1 -32.5s2.66699 -19 6 -28s8.5 -18 15.5 -27s16.833 -18.833 29.5 -29.5c16 -14 30.833 -28.167 44.5 -42.5s25.167 -29.833 34.5 -46.5s16.666 -35.5 21.999 -56.5s8 -44.833 8 -71.5v-26
c0 -16 -1.33301 -31.833 -4 -47.5s-7.33398 -30.5 -14.001 -44.5s-15.167 -26.5 -25.5 -37.5s-22.833 -19.167 -37.5 -24.5v-65h-100v66c-28.667 10.667 -49.5 30.167 -62.5 58.5s-19.5 64.166 -19.5 107.499v31h102v-44c0 -8.66699 0.333008 -17.334 1 -26.001
s2.16699 -16.334 4.5 -23.001s5.5 -12.167 9.5 -16.5s9.33301 -6.5 16 -6.5c10.667 0 18.334 7 23.001 21s7 30 7 48c0 36.667 -4 66.167 -12 88.5s-23 43.166 -45 62.499l-41.5 40c-13 12.667 -24.167 25.667 -33.5 39s-16.833 27.666 -22.5 42.999s-8.5 32.333 -8.5 51v42
z" />
    <glyph glyph-name="percent" unicode="%" horiz-adv-x="653" 
d="M234 384c0 -16.667 -1.83301 -32.334 -5.5 -47.001s-9.83398 -27.334 -18.501 -38.001s-19.667 -19.167 -33 -25.5s-29.333 -9.5 -48 -9.5c-19.333 0 -35.666 3.16699 -48.999 9.5s-24.333 14.833 -33 25.5s-15 23.334 -19 38.001s-6 30.334 -6 47.001v171
c0 16.667 2 32.334 6 47.001s10.333 27.334 19 38.001s19.667 19.167 33 25.5s29.666 9.5 48.999 9.5c18.667 0 34.667 -3.16699 48 -9.5s24.333 -14.833 33 -25.5s14.834 -23.334 18.501 -38.001s5.5 -30.334 5.5 -47.001v-171zM150 562c0 11.333 -1.5 20.5 -4.5 27.5
s-8.83301 10.5 -17.5 10.5s-14.667 -3.5 -18 -10.5s-5 -16.167 -5 -27.5v-185c0 -11.333 1.66699 -20.5 5 -27.5s9.33301 -10.5 18 -10.5s14.5 3.5 17.5 10.5s4.5 16.167 4.5 27.5v185zM230 0h-84l278 665h84zM632 114c0 -16.667 -1.83301 -32.334 -5.5 -47.001
s-9.83398 -27.334 -18.501 -38.001s-19.667 -19.167 -33 -25.5s-29.333 -9.5 -48 -9.5c-19.333 0 -35.666 3.16699 -48.999 9.5s-24.333 14.833 -33 25.5s-15 23.334 -19 38.001s-6 30.334 -6 47.001v171c0 16.667 2 32.334 6 47.001s10.333 27.334 19 38.001
s19.667 19.167 33 25.5s29.666 9.5 48.999 9.5c18.667 0 34.667 -3.16699 48 -9.5s24.333 -14.833 33 -25.5s14.834 -23.334 18.501 -38.001s5.5 -30.334 5.5 -47.001v-171zM548 292c0 11.333 -1.5 20.5 -4.5 27.5s-8.83301 10.5 -17.5 10.5s-14.667 -3.5 -18 -10.5
s-5 -16.167 -5 -27.5v-185c0 -11.333 1.66699 -20.5 5 -27.5s9.33301 -10.5 18 -10.5s14.5 3.5 17.5 10.5s4.5 16.167 4.5 27.5v185z" />
    <glyph glyph-name="ampersand" unicode="&#x26;" horiz-adv-x="370" 
d="M223 32c-10 -13.333 -20.6641 -23.667 -31.9971 -31s-27 -11 -47 -11c-35.333 0 -62.166 12.167 -80.499 36.5s-27.5 63.833 -27.5 118.5v42c0 34.667 5.16699 63.334 15.5 86.001s25.166 43.667 44.499 63c-6.66699 6.66699 -13.5 15.5 -20.5 26.5
s-13.5 23.333 -19.5 37s-10.833 28.834 -14.5 45.501s-5.5 34.667 -5.5 54v19c0 47.333 12.167 85.333 36.5 114s57.833 43 100.5 43c23.333 0 43.333 -4.16699 60 -12.5s30.5 -19.333 41.5 -33s19.167 -29.334 24.5 -47.001s8 -35.834 8 -54.501v-30
c0 -18 -1.16699 -34.5 -3.5 -49.5s-6.5 -29.333 -12.5 -43s-14.5 -27.167 -25.5 -40.5s-24.833 -27 -41.5 -41c-14 -11.333 -26.333 -22 -37 -32s-19.834 -20.333 -27.501 -31s-13.5 -22.167 -17.5 -34.5s-6 -26.833 -6 -43.5v-29c0 -8.66699 0.666992 -17.167 2 -25.5
s3.33301 -16 6 -23s6.33398 -12.667 11.001 -17s10.334 -6.5 17.001 -6.5c13.333 0 22.5 7.33301 27.5 22s7.5 31.667 7.5 51v66h100v-63c0 -24.667 1.16699 -47.167 3.5 -67.5s6.16602 -38 11.499 -53s12.666 -26.667 21.999 -35s20.666 -12.5 33.999 -12.5v-92
c-46.667 0 -81.834 11.5 -105.501 34.5s-39.167 56.167 -46.5 99.5h-3zM136.003 480.999c0 -19.333 3.83398 -35.998 11.501 -49.998s15.167 -24 22.5 -30c15.333 16 25.333 31.167 30 45.5s7 29.833 7 46.5v18c0 18 -2.16699 34.5 -6.5 49.5s-13.833 22.5 -28.5 22.5
c-7.33301 0 -13.333 -2.16699 -18 -6.5s-8.33398 -9.83301 -11.001 -16.5s-4.5 -14.334 -5.5 -23.001s-1.5 -17.334 -1.5 -26.001v-30z" />
    <glyph glyph-name="quotesingle" unicode="'" horiz-adv-x="180" 
d="M127 445h-74l-13 238h100z" />
    <glyph glyph-name="parenleft" unicode="(" horiz-adv-x="270" 
d="M53 578c0 30.667 3.16699 59.166 9.5 85.499s16.833 48.833 31.5 67.5s33.667 33.334 57 44.001s51.666 16 84.999 16h14v-92h-14c-55.333 0 -83 -44.667 -83 -134v-456c0 -88 27.667 -132 83 -132h14v-92h-14c-33.333 0 -61.666 4.83301 -84.999 14.5
s-42.333 23.5 -57 41.5s-25.167 39.5 -31.5 64.5s-9.5 53.167 -9.5 84.5v488z" />
    <glyph glyph-name="parenright" unicode=")" horiz-adv-x="270" 
d="M217 90c0 -31.333 -3.33301 -59.5 -10 -84.5s-17.167 -46.5 -31.5 -64.5s-33.166 -31.833 -56.499 -41.5s-51.666 -14.5 -84.999 -14.5h-14v92h14c55.333 0 83 44 83 132v450c0 44 -6.66699 78.333 -20 103s-34.333 37 -63 37h-14v92h14
c33.333 0 61.666 -5.66699 84.999 -17s42.166 -27 56.499 -47s24.833 -43.5 31.5 -70.5s10 -55.833 10 -86.5v-480z" />
    <glyph glyph-name="asterisk" unicode="*" horiz-adv-x="304" 
d="M25 575l77 34v4l-77 31l34 58l63 -54l7 5l-11 84h68l-14 -83l6 -5l68 53l34 -58l-79 -34v-8l79 -27l-34 -59l-67 55l-6 -11l13 -79h-68l13 84l-8 -5l-64 -44z" />
    <glyph glyph-name="plus" unicode="+" horiz-adv-x="326" 
d="M32 347h85v85h92v-85h85v-92h-85v-85h-92v85h-85v92z" />
    <glyph glyph-name="comma" unicode="," horiz-adv-x="173" 
d="M80 -114h-62l30 221h100z" />
    <glyph glyph-name="hyphen" unicode="-" horiz-adv-x="245" 
d="M40 364h165v-92h-165v92z" />
    <glyph glyph-name="period" unicode="." horiz-adv-x="173" 
d="M25 56c0 18 5.66699 32.667 17 44s26 17 44 17s32.667 -5.66699 44 -17s17 -26 17 -44s-5.66699 -32.667 -17 -44s-26 -17 -44 -17s-32.667 5.66699 -44 17s-17 26 -17 44z" />
    <glyph glyph-name="slash" unicode="/" horiz-adv-x="296" 
d="M90 -89h-88l204 799h88z" />
    <glyph glyph-name="zero" unicode="0" 
d="M304 162c0 -56 -11.333 -98.667 -34 -128s-57 -44 -103 -44s-79.833 14.667 -101.5 44s-32.5 72 -32.5 128v341c0 56 11 98.667 33 128s56 44 102 44s80.167 -14.667 102.5 -44s33.5 -72 33.5 -128v-341zM204 511c0 8.66699 -0.49707 17.335 -1.49707 26.002
s-2.83301 16.334 -5.5 23.001s-6.33398 12.167 -11.001 16.5s-10.667 6.5 -18 6.5s-13.333 -2.16699 -18 -6.5s-8.33398 -9.83301 -11.001 -16.5s-4.33398 -14.334 -5.00098 -23.001s-1 -17.334 -1 -26.001v-356c0 -8.66699 0.333008 -17.334 1 -26.001
s2.16699 -16.5 4.5 -23.5s5.83301 -12.667 10.5 -17s10.667 -6.5 18 -6.5c14.667 0 24.5 7.66699 29.5 23s7.5 32 7.5 50v356z" />
    <glyph glyph-name="one" unicode="1" horiz-adv-x="300" 
d="M148 0v556l-78 -81l-62 67l123 123h117v-665h-100z" />
    <glyph glyph-name="two" unicode="2" horiz-adv-x="331" 
d="M28 487l0.000976562 23.998c0 53.333 11.667 94 35 122s57.666 42 102.999 42c48.667 0 83.5 -13.5 104.5 -40.5s31.5 -67.5 31.5 -121.5v-25c0 -31.333 -7 -63.833 -21 -97.5s-31.333 -70.167 -52 -109.5l-101 -189h174v-92h-274v103l85 158l41 77
c11.333 22 20.5 41.833 27.5 59.5s12.167 33.834 15.5 48.501s5 29.334 5 44.001v20c0 24 -2.66699 42.167 -8 54.5s-15 18.5 -29 18.5s-23.667 -6 -29 -18s-8 -29.333 -8 -52v-26h-100z" />
    <glyph glyph-name="three" unicode="3" horiz-adv-x="330" 
d="M198 510c0 8.66699 -0.501953 17.334 -1.50195 26.001s-3 16.5 -6 23.5s-6.83301 12.667 -11.5 17s-10.667 6.5 -18 6.5s-13.5 -2.16699 -18.5 -6.5s-8.83301 -10 -11.5 -17s-4.5 -14.833 -5.5 -23.5s-1.5 -17.334 -1.5 -26.001v-22h-100v15c0 56 11.333 98.667 34 128
s57 44 103 44s80.333 -13.167 103 -39.5s34 -60.5 34 -102.5v-47c0 -32 -6.16699 -58.833 -18.5 -80.5s-28.166 -37.834 -47.499 -48.501v-5c18.667 -10.667 34.334 -27.667 47.001 -51s19 -51 19 -83v-74c0 -26.667 -3.83301 -49.667 -11.5 -69
s-17.834 -35.166 -30.501 -47.499s-27.167 -21.5 -43.5 -27.5s-33.5 -9 -51.5 -9c-91.333 0 -137 54.333 -137 163v23h100v-22c0 -8 0.5 -16.333 1.5 -25s2.83301 -16.5 5.5 -23.5s6.33398 -12.833 11.001 -17.5s11 -7 19 -7c7.33301 0 13.5 2.33301 18.5 7
s8.83301 10.5 11.5 17.5s4.5 14.833 5.5 23.5s1.5 17 1.5 25v65c0 26 -5.16699 46.833 -15.5 62.5s-29.166 23.5 -56.499 23.5h-25v92h25c27.333 0 46.166 7.66699 56.499 23s15.5 36.333 15.5 63v26z" />
    <glyph glyph-name="four" unicode="4" horiz-adv-x="335" 
d="M200 142h-179v109l135 414h100l-141 -432h85v97h100v-330h-100v142z" />
    <glyph glyph-name="five" unicode="5" horiz-adv-x="338" 
d="M32 665l272.996 -0.000976562v-95h-173v-143c6.66699 11.333 15.334 20.833 26.001 28.5s24.667 11.5 42 11.5c36.667 0 63.334 -14.167 80.001 -42.5s25 -74.166 25 -137.499v-125c0 -56 -11.333 -98.667 -34 -128s-57 -44 -103 -44s-80.167 14.333 -102.5 43
s-33.5 68.334 -33.5 119.001v25h100v-23c0 -8.66699 0.5 -17.334 1.5 -26.001s2.83301 -16.334 5.5 -23.001s6.33398 -12.167 11.001 -16.5s10.667 -6.5 18 -6.5c14.667 0 24.5 7.5 29.5 22.5s7.5 31.5 7.5 49.5v149c0 18 -2.5 34.667 -7.5 50s-14.167 23 -27.5 23
s-22.666 -7.16699 -27.999 -21.5s-8.33301 -30.166 -9 -47.499h-101v358z" />
    <glyph glyph-name="six" unicode="6" horiz-adv-x="339" 
d="M206 479l0.000976562 32.001c0 18.667 -2.5 35.334 -7.5 50.001s-14.833 22 -29.5 22c-7.33301 0 -13.333 -2.16699 -18 -6.5s-8.33398 -9.83301 -11.001 -16.5s-4.5 -14.334 -5.5 -23.001s-1.5 -17.334 -1.5 -26.001v-145c6 15.333 15 28.166 27 38.499
s28.333 15.5 49 15.5c64.667 0 97 -55.333 97 -166v-93c0 -55.333 -11.333 -97.666 -34 -126.999s-57 -44 -103 -44s-80.167 14.667 -102.5 44s-33.5 72 -33.5 128v341c0 56.667 11.333 99.5 34 128.5s56.667 43.5 102 43.5c46 0 80.333 -13.167 103 -39.5
s34 -69.833 34 -130.5v-26h-100zM169.001 82.001c14.667 0 24.5 7.33398 29.5 22.001s7.5 31.334 7.5 50.001v102c0 8.66699 -0.5 17.334 -1.5 26.001s-3 16.334 -6 23.001s-6.83301 12.167 -11.5 16.5s-10.667 6.5 -18 6.5s-13.333 -2.16699 -18 -6.5
s-8.33398 -9.83301 -11.001 -16.5s-4.5 -14.334 -5.5 -23.001s-1.5 -17.334 -1.5 -26.001v-102c0 -8.66699 0.5 -17.334 1.5 -26.001s2.83301 -16.334 5.5 -23.001s6.33398 -12.167 11.001 -16.5s10.667 -6.5 18 -6.5z" />
    <glyph glyph-name="seven" unicode="7" horiz-adv-x="314" 
d="M36 0l163 570h-179v95h269v-109l-153 -556h-100z" />
    <glyph glyph-name="eight" unicode="8" horiz-adv-x="339" 
d="M33 525c0 48.667 11.167 85.834 33.5 111.501s56.5 38.5 102.5 38.5s80.333 -12 103 -36s34 -57.667 34 -101v-51c0 -32.667 -6.16699 -59.5 -18.5 -80.5s-31.166 -42.167 -56.499 -63.5c23.333 -21.333 41.666 -44.5 54.999 -69.5s20 -57.167 20 -96.5v-37
c0 -48 -12.333 -85 -37 -111s-58 -39 -100 -39c-44 0 -77.667 12.167 -101 36.5s-35 57.833 -35 100.5v51c0 39.333 6.33301 71.333 19 96s30.667 47.667 54 69c-24.667 21.333 -43 42.666 -55 63.999s-18 48.333 -18 81v37zM133 150c0 -17.333 2.33203 -33 6.99902 -47
s14.334 -21 29.001 -21s24.5 7 29.5 21s7.5 29.667 7.5 47v49c0 15.333 -2.66699 30 -8 44s-15 27.667 -29 41c-14 -13.333 -23.5 -26.5 -28.5 -39.5s-7.5 -28.167 -7.5 -45.5v-49zM132.999 493c0 -18 2.16895 -33.667 6.50195 -47s14.166 -27 29.499 -41
c15.333 14 25.333 27.333 30 40s7 28.667 7 48v22c0 8.66699 -0.5 17 -1.5 25s-2.83301 15.167 -5.5 21.5s-6.5 11.5 -11.5 15.5s-11.167 6 -18.5 6c-14.667 0 -24.334 -7 -29.001 -21s-7 -29.667 -7 -47v-22z" />
    <glyph glyph-name="nine" unicode="9" horiz-adv-x="339" 
d="M135 186l0.000976562 -32c0 -18.667 2 -35.334 6 -50.001s13.333 -22 28 -22c15.333 0 25.333 7.33301 30 22s7 31.334 7 50.001v145c-6.66699 -15.333 -15.834 -28.166 -27.501 -38.499s-28.167 -15.5 -49.5 -15.5c-64 0 -96 55.333 -96 166v93
c0 55.333 11.167 97.666 33.5 126.999s56.5 44 102.5 44s80.333 -14.667 103 -44s34 -72 34 -128v-341c0 -56 -11.333 -98.667 -34 -128s-57 -44 -103 -44s-80.167 13.167 -102.5 39.5s-33.5 68.833 -33.5 127.5v29h102zM170.001 583
c-7.33301 0 -13.3311 -2.00098 -17.998 -6.00098s-8.33398 -9.33301 -11.001 -16s-4.33398 -14.334 -5.00098 -23.001s-1 -17.667 -1 -27v-102c0 -8.66699 0.5 -17.334 1.5 -26.001s2.66699 -16.334 5 -23.001s5.83301 -12.167 10.5 -16.5s10.667 -6.5 18 -6.5
c6.66699 0 12.334 2.16699 17.001 6.5s8.5 9.83301 11.5 16.5s5 14.334 6 23.001s1.5 17.334 1.5 26.001v102c0 8.66699 -0.5 17.334 -1.5 26.001s-2.83301 16.334 -5.5 23.001s-6.33398 12.167 -11.001 16.5s-10.667 6.5 -18 6.5z" />
    <glyph glyph-name="colon" unicode=":" horiz-adv-x="173" 
d="M25 56c0 18 5.66699 32.667 17 44s26 17 44 17s32.667 -5.66699 44 -17s17 -26 17 -44s-5.66699 -32.667 -17 -44s-26 -17 -44 -17s-32.667 5.66699 -44 17s-17 26 -17 44zM25 441c0 18 5.66699 32.667 17 44s26 17 44 17s32.667 -5.66699 44 -17s17 -26 17 -44
s-5.66699 -32.667 -17 -44s-26 -17 -44 -17s-32.667 5.66699 -44 17s-17 26 -17 44z" />
    <glyph glyph-name="semicolon" unicode=";" horiz-adv-x="183" 
d="M35 441c0 18 5.66699 32.667 17 44s26 17 44 17s32.667 -5.66699 44 -17s17 -26 17 -44s-5.66699 -32.667 -17 -44s-26 -17 -44 -17s-32.667 5.66699 -44 17s-17 26 -17 44zM76 -114h-62l30 221h100z" />
    <glyph glyph-name="less" unicode="&#x3c;" horiz-adv-x="326" 
d="M31 354l262 120v-100l-158 -62l158 -62v-100l-262 120v84z" />
    <glyph glyph-name="equal" unicode="=" horiz-adv-x="326" 
d="M32 419h262v-92h-262v92zM32 277h262v-92h-262v92z" />
    <glyph glyph-name="greater" unicode="&#x3e;" horiz-adv-x="326" 
d="M295 270l-262 -120v100l158 62l-158 62v100l262 -120v-84z" />
    <glyph glyph-name="question" unicode="?" horiz-adv-x="330" 
d="M35 476l-0.00195312 55.999c0 42 11.167 76.333 33.5 103s55.5 40 99.5 40c42 0 73.667 -11.5 95 -34.5s32 -53.833 32 -92.5v-54c0 -14 -0.666992 -26.833 -2 -38.5s-4 -23.167 -8 -34.5s-9.83301 -22.666 -17.5 -33.999s-17.5 -23.333 -29.5 -36
c-9.33301 -10 -16.5 -19.5 -21.5 -28.5s-8.66699 -18.667 -11 -29s-3.66602 -22 -3.99902 -35s-0.5 -28.833 -0.5 -47.5v-32h-100v38c0 22.667 0.333008 42.167 1 58.5s2.83398 31 6.50098 44s9 25.167 16 36.5s16.5 23.666 28.5 36.999c10 10 17.667 19.667 23 29
s9.5 18.333 12.5 27s4.83301 17.334 5.5 26.001s1 17.667 1 27v38c0 13.333 -2.5 23.833 -7.5 31.5s-12.167 11.5 -21.5 11.5c-20.667 0 -31 -19 -31 -57v-50h-100zM91.998 55.999c0 17.333 5.83301 31.833 17.5 43.5s26.167 17.5 43.5 17.5s31.833 -5.83301 43.5 -17.5
s17.5 -26.167 17.5 -43.5s-5.83301 -31.833 -17.5 -43.5s-26.167 -17.5 -43.5 -17.5s-31.833 5.83301 -43.5 17.5s-17.5 26.167 -17.5 43.5z" />
    <glyph glyph-name="at" unicode="@" horiz-adv-x="612" 
d="M304 217c-10.667 0 -17.999 -4.33301 -21.999 -13s-6 -22 -6 -40c0 -34.667 8.33301 -52 25 -52c7.33301 0 13.666 3.33301 18.999 10s9 16.667 11 30v51c-3.33301 3.33301 -7.33301 6.5 -12 9.5s-9.66699 4.5 -15 4.5zM315.001 -128l-16 0.000976562
c-89.333 0 -155.333 21.833 -198 65.5s-64 108.834 -64 195.501v221c0 36.667 5 71.667 15 105s25.833 62.666 47.5 87.999s49.834 45.666 84.501 60.999s76.667 23 126 23c48.667 0 90 -7.83301 124 -23.5s61.333 -36.5 82 -62.5s35.667 -55.667 45 -89s14 -67.333 14 -102
v-167c0 -48 -11 -84.5 -33 -109.5s-51 -37.5 -87 -37.5c-22 0 -40.667 3.83301 -56 11.5s-29 20.167 -41 37.5c-8.66699 -15.333 -19.834 -27.333 -33.501 -36s-29.834 -13 -48.501 -13c-30 0 -52.833 9.33301 -68.5 28s-23.5 49.667 -23.5 93c0 23.333 2.16699 43 6.5 59
s10.333 28.833 18 38.5s16.834 16.5 27.501 20.5s22.334 6 35.001 6c14.667 0 26.5 -2.5 35.5 -7.5s17.167 -11.833 24.5 -20.5v56c0 24 -1.66699 41.833 -5 53.5s-10.666 17.5 -21.999 17.5c-10 0 -17.167 -4 -21.5 -12s-6.5 -22.667 -6.5 -44v-9h-88v8c0 16 2 32.333 6 49
s10.5 31.667 19.5 45s21 24.333 36 33s33.833 13 56.5 13c33.333 0 61.166 -11.833 83.499 -35.5s33.5 -60.5 33.5 -110.5v-151c0 -20 2.66699 -34 8 -42s13.666 -12 24.999 -12c23.333 0 35 18.333 35 55v180c0 24.667 -3.16699 49.167 -9.5 73.5
s-16.666 46.333 -30.999 66s-33.333 35.5 -57 47.5s-52.834 18 -87.501 18c-34 0 -62.833 -5.66699 -86.5 -17s-42.667 -26.333 -57 -45s-24.833 -40 -31.5 -64s-10 -49 -10 -75v-216c0 -60 14 -106.833 42 -140.5s73.667 -50.5 137 -50.5h15v-76z" />
    <glyph glyph-name="A" unicode="A" horiz-adv-x="352" 
d="M10 0l108 665h117l107 -665h-104l-17 121h-96l-17 -121h-98zM135 213h76l-37 284h-3z" />
    <glyph glyph-name="B" unicode="B" horiz-adv-x="345" 
d="M315 172c0 -56.667 -11.332 -99.5 -33.999 -128.5s-57 -43.5 -103 -43.5h-137v665h125c44.667 0 79.167 -12.833 103.5 -38.5s36.5 -66.834 36.5 -123.501v-25c0 -27.333 -3.5 -50 -10.5 -68s-15.5 -33 -25.5 -45c17.333 -15.333 29.166 -34.666 35.499 -57.999
s9.5 -48.333 9.5 -75v-60zM215.001 239c0 8 -0.667969 16.3311 -2.00098 24.998s-3.33301 16.5 -6 23.5s-6.16699 12.833 -10.5 17.5s-9.5 7 -15.5 7h-40v-220h37c6.66699 0 12.334 2.16699 17.001 6.5s8.5 9.83301 11.5 16.5s5.16699 14.334 6.5 23.001s2 17.334 2 26.001
v75zM206 513.998c0 20 -3.16699 34.334 -9.5 43.001s-16.5 13 -30.5 13h-25v-170h25c13.333 0 23.333 4.66699 30 14s10 24.666 10 45.999v54z" />
    <glyph glyph-name="C" unicode="C" horiz-adv-x="330" 
d="M206 467l-0.000976562 43.998c0 18 -2.5 34.5 -7.5 49.5s-14.5 22.5 -28.5 22.5c-6.66699 0 -12.167 -2.16699 -16.5 -6.5s-7.83301 -10 -10.5 -17s-4.66699 -14.667 -6 -23s-2 -16.833 -2 -25.5v-357c0 -8 0.666992 -16.333 2 -25s3.33301 -16.5 6 -23.5
s6.16699 -12.667 10.5 -17s9.83301 -6.5 16.5 -6.5s12.334 2.16699 17.001 6.5s8.5 9.83301 11.5 16.5s5 14.334 6 23.001s1.5 17.334 1.5 26.001v44h101v-12c0 -69.333 -11.833 -119.333 -35.5 -150s-57.5 -46 -101.5 -46c-46 0 -80 14.667 -102 44s-33 72 -33 128v341
c0 56 11 98.667 33 128s56 44 102 44c45.333 0 79.5 -15 102.5 -45s34.5 -78.333 34.5 -145v-18h-101z" />
    <glyph glyph-name="D" unicode="D" horiz-adv-x="354" 
d="M319 172c0 -56.667 -11.333 -99.5 -34 -128.5s-57 -43.5 -103 -43.5h-141v665h141c46 0 80.333 -14.5 103 -43.5s34 -71.833 34 -128.5v-321zM219 505c0 17.333 -3 32.499 -9 45.499s-16.333 19.5 -31 19.5h-38v-478h38c14 0 24.167 6.83301 30.5 20.5
s9.5 30.834 9.5 51.501v341z" />
    <glyph glyph-name="E" unicode="E" horiz-adv-x="297" 
d="M276 570h-135v-168h110v-92h-110v-218h135v-92h-235v665h235v-95z" />
    <glyph glyph-name="F" unicode="F" horiz-adv-x="296" 
d="M41 0v665h235v-95h-135v-168h110v-92h-110v-310h-100z" />
    <glyph glyph-name="G" unicode="G" horiz-adv-x="343" 
d="M173 293l-0.00195312 92.002h139v-223c0 -56 -11.833 -98.667 -35.5 -128s-58.5 -44 -104.5 -44s-80.667 14.667 -104 44s-35 72 -35 128v341c0 56 11.5 98.667 34.5 128s57.5 44 103.5 44c46.667 0 81.834 -15.167 105.501 -45.5s35.5 -79.5 35.5 -147.5v-15h-100v44
c0 18 -2.83301 34.5 -8.5 49.5s-16.167 22.5 -31.5 22.5s-25.666 -7.33301 -30.999 -22s-8 -31.334 -8 -50.001v-356c0 -8.66699 0.5 -17.334 1.5 -26.001s3 -16.5 6 -23.5s7 -12.667 12 -17s11.167 -6.5 18.5 -6.5c15.333 0 26 7.5 32 22.5s9 31.833 9 50.5v138h-39z" />
    <glyph glyph-name="H" unicode="H" horiz-adv-x="366" 
d="M225 0v304h-84v-304h-100v665h100v-269h84v269h100v-665h-100z" />
    <glyph glyph-name="I" unicode="I" horiz-adv-x="182" 
d="M41 0v665h100v-665h-100z" />
    <glyph glyph-name="J" unicode="J" horiz-adv-x="229" 
d="M21 81c14 0.666992 25.502 3.16602 34.502 7.49902s16.167 10 21.5 17s9.16602 14.667 11.499 23s3.5 16.833 3.5 25.5v511h100v-503c0 -53.333 -14.333 -94.666 -43 -123.999s-71.334 -46 -128.001 -50v93z" />
    <glyph glyph-name="K" unicode="K" horiz-adv-x="360" 
d="M230 371l123 -371h-106l-85 273l-21 -49v-224h-100v665h100v-285l100 285h105z" />
    <glyph glyph-name="L" unicode="L" horiz-adv-x="307" 
d="M141 665v-573h151v-92h-251v665h100z" />
    <glyph glyph-name="M" unicode="M" horiz-adv-x="450" 
d="M41 0v665h109l78 -390h3l77 390h101v-665h-86v426h-3l-67 -326h-52l-71 326h-3v-426h-86z" />
    <glyph glyph-name="N" unicode="N" horiz-adv-x="372" 
d="M331 0h-100l-106 443h-3v-443h-81v665h100l106 -463h3v463h81v-665z" />
    <glyph glyph-name="O" unicode="O" 
d="M304 162c0 -56 -11.333 -98.667 -34 -128s-57 -44 -103 -44s-79.833 14.667 -101.5 44s-32.5 72 -32.5 128v341c0 56 11 98.667 33 128s56 44 102 44s80.167 -14.667 102.5 -44s33.5 -72 33.5 -128v-341zM204 511c0 8.66699 -0.5 17.335 -1.5 26.002
s-2.83301 16.334 -5.5 23.001s-6.5 12.167 -11.5 16.5s-11.167 6.5 -18.5 6.5s-13.333 -2.16699 -18 -6.5s-8.16699 -9.83301 -10.5 -16.5s-3.83301 -14.334 -4.5 -23.001s-1 -17.334 -1 -26.001v-356c0 -8.66699 0.333008 -17.334 1 -26.001s2.16699 -16.5 4.5 -23.5
s5.83301 -12.667 10.5 -17s10.667 -6.5 18 -6.5c14.667 0 24.5 7.66699 29.5 23s7.5 32 7.5 50v356z" />
    <glyph glyph-name="P" unicode="P" horiz-adv-x="341" 
d="M311 426c0 -56.667 -11.333 -99.333 -34 -128s-57 -43 -103 -43h-33v-255h-100v665h133c46 0 80.333 -14.5 103 -43.5s34 -71.833 34 -128.5v-67zM211 501.001c0 21.333 -3.16699 38.167 -9.5 50.5s-16.833 18.5 -31.5 18.5h-29v-223h29c15.333 0 26 6.83301 32 20.5
s9 31.167 9 52.5v81z" />
    <glyph glyph-name="Q" unicode="Q" 
d="M304 162c0 -85.333 -26.667 -138.665 -80 -159.998c11.333 -33.333 38 -50 80 -50v-92c-58 0 -101.5 12.5 -130.5 37.5s-47.167 58.5 -54.5 100.5c-30 9.33301 -51.833 27.666 -65.5 54.999s-20.5 63.666 -20.5 108.999v341c0 56 10.833 98.667 32.5 128
s55.5 44 101.5 44s80.333 -14.667 103 -44s34 -72 34 -128v-341zM204 511.001c0 8.66699 -0.498047 17.335 -1.49805 26.002s-2.83301 16.334 -5.5 23.001s-6.33398 12.167 -11.001 16.5s-10.667 6.5 -18 6.5c-8 0 -14.167 -2.16699 -18.5 -6.5
s-7.83301 -9.83301 -10.5 -16.5s-4.33398 -14.334 -5.00098 -23.001s-1 -17.334 -1 -26.001v-356c0 -8.66699 0.333008 -17.334 1 -26.001s2.16699 -16.5 4.5 -23.5s5.83301 -12.667 10.5 -17s10.667 -6.5 18 -6.5c14.667 0 24.5 7.66699 29.5 23s7.5 32 7.5 50v356z" />
    <glyph glyph-name="R" unicode="R" horiz-adv-x="351" 
d="M315 467c0 -34.667 -5.5 -65 -16.5 -91s-25.5 -45.667 -43.5 -59l84 -317h-105l-62 288h-31v-288h-100v665h137c46 0 80.333 -14.5 103 -43.5s34 -71.833 34 -128.5v-26zM215 501c0 21.333 -3.66699 38.167 -11 50.5s-18.333 18.5 -33 18.5h-30v-191h29
c30 0 45 24.333 45 73v49z" />
    <glyph glyph-name="S" unicode="S" horiz-adv-x="319" 
d="M24 517c0 20 2.66602 39.3359 7.99902 58.0029s13.5 35.5 24.5 50.5s25 27 42 36s37.5 13.5 61.5 13.5c42.667 0 75.834 -13.333 99.501 -40s35.5 -71.334 35.5 -134.001v-34h-100v44c0 8.66699 -0.5 17.334 -1.5 26.001s-2.66699 16.334 -5 23.001
s-5.83301 12.167 -10.5 16.5s-10.667 6.5 -18 6.5c-13.333 0 -22.333 -7 -27 -21s-7 -30 -7 -48v-23c0 -17.333 3.83301 -33.333 11.5 -48s21.167 -30 40.5 -46c15.333 -12.667 30 -25.667 44 -39s26.5 -27.833 37.5 -43.5s19.667 -32.834 26 -51.501
s9.5 -39.334 9.5 -62.001v-53c0 -19.333 -2.5 -38.333 -7.5 -57s-13 -35.5 -24 -50.5s-25 -27.167 -42 -36.5s-37.5 -14 -61.5 -14c-48 0 -82.667 16 -104 48s-32 75 -32 129v31h102v-44c0 -8.66699 0.333008 -17.334 1 -26.001s2.16699 -16.334 4.5 -23.001
s5.83301 -12.167 10.5 -16.5s10.667 -6.5 18 -6.5c13.333 0 22.5 7 27.5 21s7.5 30 7.5 48v33c0 26 -6.33301 48.333 -19 67s-28 35.667 -46 51c-31.333 26 -56.833 52 -76.5 78s-29.5 57.667 -29.5 95v42z" />
    <glyph glyph-name="T" unicode="T" horiz-adv-x="318" 
d="M107 0v570h-95v95h294v-95h-99v-570h-100z" />
    <glyph glyph-name="U" unicode="U" horiz-adv-x="348" 
d="M311 665v-504.999c0 -112.667 -45.667 -169 -137 -169s-137 56.333 -137 169v505h100v-512c0 -8 0.5 -16.333 1.5 -25s2.83301 -16.334 5.5 -23.001s6.5 -12.167 11.5 -16.5s11.167 -6.5 18.5 -6.5c14.667 0 24.5 7.5 29.5 22.5s7.5 31.167 7.5 48.5v512h100z" />
    <glyph glyph-name="V" unicode="V" horiz-adv-x="339" 
d="M233 0h-127l-92 665h100l53 -497h4l54 497h100z" />
    <glyph glyph-name="W" unicode="W" horiz-adv-x="473" 
d="M271 665l54 -466h4l30 466h100l-75 -665h-97l-52 394h-4l-53 -394h-91l-73 665h100l29 -466h3l55 466h70z" />
    <glyph glyph-name="X" unicode="X" horiz-adv-x="350" 
d="M337 0h-104l-61 245h-3l-53 -245h-102l97 338l-98 327h103l59 -246h4l53 246h103l-102 -328z" />
    <glyph glyph-name="Y" unicode="Y" horiz-adv-x="354" 
d="M227 198v-198h-100v199l-113 466h103l58 -320h3l59 320h103z" />
    <glyph glyph-name="Z" unicode="Z" horiz-adv-x="298" 
d="M22 570v95h258v-109l-168 -464h164v-92h-258v109l169 461h-165z" />
    <glyph glyph-name="bracketleft" unicode="[" horiz-adv-x="251" 
d="M45 791h179v-92h-79v-722h79v-92h-179v906z" />
    <glyph glyph-name="backslash" unicode="\" horiz-adv-x="295" 
d="M2 710h88l203 -799h-88z" />
    <glyph glyph-name="bracketright" unicode="]" horiz-adv-x="251" 
d="M206 -115h-179v92h79v722h-79v92h179v-906z" />
    <glyph glyph-name="asciicircum" unicode="^" horiz-adv-x="326" 
d="M207 456l107 -246h-106l-45 126l-45 -126h-106l107 246h88z" />
    <glyph glyph-name="underscore" unicode="_" horiz-adv-x="338" 
d="M25 -14h288v-100h-288v100z" />
    <glyph glyph-name="grave" unicode="`" horiz-adv-x="350" 
d="M204 691l38 -139h-81l-58 139h101z" />
    <glyph glyph-name="a" unicode="a" horiz-adv-x="330" 
d="M36 356v15.998c0 22 2.16699 42.5 6.5 61.5s11.5 35.333 21.5 49s22.667 24.334 38 32.001s34 11.5 56 11.5c45.333 0 78 -13.667 98 -41s30 -69 30 -125v-250c0 -10 2 -17.167 6 -21.5s11 -6.5 21 -6.5v-92c-16 0 -29.833 1 -41.5 3s-21.667 5.5 -30 10.5
s-15.5 11.5 -21.5 19.5s-11.333 18 -16 30c-7.33301 -20 -18 -35.5 -32 -46.5s-31 -16.5 -51 -16.5c-28 0 -50.5 11.667 -67.5 35s-25.5 59.333 -25.5 108v40c0 18.667 1.83301 36.334 5.5 53.001s9.5 31 17.5 43s18 21.5 30 28.5s26.333 10.5 43 10.5
c13.333 0 25 -1.83301 35 -5.5s19 -8.16699 27 -13.5v86c0 19.333 -2 35.333 -6 48s-11.667 19 -23 19c-10 0 -17.333 -5.5 -22 -16.5s-7 -28.5 -7 -52.5v-17h-92zM186 228.998c-7.33301 4.66699 -15.333 7 -24 7c-12.667 0 -21.5 -4.83301 -26.5 -14.5
s-7.5 -27.5 -7.5 -53.5v-32c0 -24 2.16699 -40.333 6.5 -49s11.5 -13 21.5 -13c13.333 0 23.333 8.33301 30 25v130z" />
    <glyph glyph-name="b" unicode="b" horiz-adv-x="332" 
d="M141 88c2 -3.33301 5.16699 -6.50098 9.5 -9.50098s9.5 -4.5 15.5 -4.5c9.33301 0 17.166 5.33301 23.499 16s9.5 28.667 9.5 54v239c0 17.333 -2.16699 31.5 -6.5 42.5s-12.166 16.5 -23.499 16.5c-7.33301 0 -13.333 -2.66699 -18 -8s-8 -11.666 -10 -18.999v-327z
M110 -0.000976562h-69.002v710h89l11 -85v-152c4.66699 15.333 12.5 28 23.5 38s25.167 15 42.5 15c28 0 50.333 -11.833 67 -35.5s25 -62.5 25 -116.5v-216c0 -54 -9.66699 -95.5 -29 -124.5s-45.333 -43.5 -78 -43.5c-19.333 0 -34.666 4.66699 -45.999 14
s-19.666 21 -24.999 35z" />
    <glyph glyph-name="c" unicode="c" horiz-adv-x="314" 
d="M191 313v62c0 21.333 -2 37.833 -6 49.5s-11.667 17.5 -23 17.5s-19 -6 -23 -18s-6 -28.333 -6 -49v-234c0 -20.667 2 -37 6 -49s11.667 -18 23 -18s19 5.83301 23 17.5s6 28.167 6 49.5v62h96v-47c0 -53.333 -9.5 -94.333 -28.5 -123s-51.5 -43 -97.5 -43
c-45.333 0 -78 14.5 -98 43.5s-30 70.5 -30 124.5v200c0 54 10 95.5 30 124.5s52.667 43.5 98 43.5c46 0 78.5 -14.333 97.5 -43s28.5 -69.667 28.5 -123v-47h-96z" />
    <glyph glyph-name="d" unicode="d" horiz-adv-x="335" 
d="M191 426c-2 3.33301 -5.00098 6.83301 -9.00098 10.5s-9.33301 5.5 -16 5.5c-12 0 -20.5 -5.83301 -25.5 -17.5s-7.5 -28.167 -7.5 -49.5v-239c0 -22 2.16699 -37.833 6.5 -47.5s11.833 -14.5 22.5 -14.5c12.667 0 22.334 8.33301 29.001 25v327zM290.999 110
c0 -10 2 -17.167 6 -21.5s11 -6.5 21 -6.5v-92c-16 0 -29.833 1 -41.5 3s-21.667 5.33301 -30 10s-15.5 11 -21.5 19s-11.333 18 -16 30c-7.33301 -18.667 -17.333 -33.667 -30 -45s-28.667 -17 -48 -17c-29.333 0 -53 12.167 -71 36.5s-27 61.833 -27 112.5v235
c0 54 8.33301 92.833 25 116.5s39.667 35.5 69 35.5c17.333 0 31.333 -3.83301 42 -11.5s18 -16.5 22 -26.5v222h92l8 -85v-515z" />
    <glyph glyph-name="e" unicode="e" horiz-adv-x="323" 
d="M133 304h58v71c0 20.667 -2 37 -6 49s-11.667 18 -23 18s-19 -6 -23 -18s-6 -28.333 -6 -49v-71zM191 168l100 -0.000976562v-16c0 -53.333 -10.333 -93.666 -31 -120.999s-53.667 -41 -99 -41c-47.333 0 -80.5 14.5 -99.5 43.5s-28.5 70.5 -28.5 124.5v200
c0 54 10 95.5 30 124.5s52.667 43.5 98 43.5c46 0 79.167 -14.5 99.5 -43.5s30.5 -70.5 30.5 -124.5v-134h-158v-83c0 -20.667 2 -37 6 -49s11.667 -18 23 -18s19 5.83301 23 17.5s6 28.167 6 49.5v27z" />
    <glyph glyph-name="f" unicode="f" horiz-adv-x="237" 
d="M143 432v-432h-102v530c0 120 43.667 180 131 180c28 0 50 -4.66699 66 -14s29.667 -21 41 -35l-59 -58c-4 6 -9 11.333 -15 16s-12.667 7 -20 7c-16 0 -27 -7.5 -33 -22.5s-9 -32.833 -9 -53.5v-34h84v-84h-84z" />
    <glyph glyph-name="g" unicode="g" horiz-adv-x="329" 
d="M191 424c-2.66699 5.33301 -6.33105 9.66602 -10.998 12.999s-10 5 -16 5c-20.667 0 -31 -22.333 -31 -67v-234c0 -20.667 2 -37 6 -49s11.667 -18 23 -18c7.33301 0 13.166 2.33301 17.499 7s8.16602 11.334 11.499 20.001v323zM133.003 -53l0.000976562 -9
c0 -42.667 9.66699 -64 29 -64c11.333 0 19 5.83301 23 17.5s6 28.167 6 49.5v102c-6 -16.667 -14.5 -29.667 -25.5 -39s-25.167 -14 -42.5 -14c-31.333 0 -54.166 12.333 -68.499 37s-21.5 68.334 -21.5 131.001v200c0 54 9.16699 95.5 27.5 124.5s44.5 43.5 78.5 43.5
c22.667 0 39.667 -4.83301 51 -14.5s20.666 -21.167 27.999 -34.5l9 39h64v-558c0 -54.667 -10.5 -96.334 -31.5 -125.001s-53.5 -43 -97.5 -43c-40.667 0 -72.334 11.667 -95.001 35s-34 60 -34 110v12h100z" />
    <glyph glyph-name="h" unicode="h" horiz-adv-x="335" 
d="M141 474c6.66699 12.667 15.5 24.5 26.5 35.5s25.5 16.5 43.5 16.5c31.333 0 53.5 -13.167 66.5 -39.5s19.5 -66.5 19.5 -120.5v-366h-92l-8 85v290c0 21.333 -2 37.833 -6 49.5s-11.333 17.5 -22 17.5c-8 0 -14 -3 -18 -9s-7.33301 -13.333 -10 -22v-411h-100v710h89
l11 -85v-151z" />
    <glyph glyph-name="i" unicode="i" horiz-adv-x="180" 
d="M41 516h89l11 -85v-431h-100v516zM91 670c16.667 0 30.167 -5.16699 40.5 -15.5s15.5 -23.833 15.5 -40.5c0 -17.333 -5.16699 -31 -15.5 -41s-23.833 -15 -40.5 -15s-30.167 5 -40.5 15s-15.5 23.667 -15.5 41c0 16.667 5.16699 30.167 15.5 40.5s23.833 15.5 40.5 15.5
z" />
    <glyph glyph-name="j" unicode="j" horiz-adv-x="182" 
d="M130 516l11 -85.001v-456c0 -36 -3.5 -65.833 -10.5 -89.5s-17 -42.5 -30 -56.5s-28.333 -24 -46 -30s-37.5 -9 -59.5 -9v92c18.667 0 31 6.83301 37 20.5s9 34.834 9 63.501v550h89zM91 669.999c16.667 0 30.167 -5.16699 40.5 -15.5s15.5 -23.833 15.5 -40.5
c0 -17.333 -5.16699 -31 -15.5 -41s-23.833 -15 -40.5 -15s-30.167 5 -40.5 15s-15.5 23.667 -15.5 41c0 16.667 5.16699 30.167 15.5 40.5s23.833 15.5 40.5 15.5z" />
    <glyph glyph-name="k" unicode="k" horiz-adv-x="330" 
d="M231 332l82 -332h-100l-50 243l-22 -49v-194h-100v710h89l11 -85v-320l79 211h98z" />
    <glyph glyph-name="l" unicode="l" horiz-adv-x="180" 
d="M141 625v-625h-92l-8 85v625h89z" />
    <glyph glyph-name="m" unicode="m" horiz-adv-x="490" 
d="M296 0h-100.001v375c0 21.333 -1.83301 37.833 -5.5 49.5s-10.834 17.5 -21.501 17.5c-8 0 -14 -3 -18 -9s-7.33301 -13.333 -10 -22v-411h-100v516h85l9 -43c4.66699 15.333 13 28 25 38s27.667 15 47 15c20.667 0 37.334 -5.33301 50.001 -16
s22.334 -25.667 29.001 -45c5.33301 15.333 14.5 29.333 27.5 42s29.167 19 48.5 19c31.333 0 54.166 -13.167 68.499 -39.5s21.5 -66.5 21.5 -120.5v-366h-92l-8 85v290c0 21.333 -1.83301 37.833 -5.5 49.5s-10.834 17.5 -21.501 17.5c-7.33301 0 -13.166 -3 -17.499 -9
s-8.16602 -13 -11.499 -21v-412z" />
    <glyph glyph-name="n" unicode="n" horiz-adv-x="335" 
d="M135 473c5.33301 14.667 14.333 27.167 27 37.5s29 15.5 49 15.5c31.333 0 53.5 -13.167 66.5 -39.5s19.5 -66.5 19.5 -120.5v-366h-91l-9 85v290c0 21.333 -2 37.833 -6 49.5s-11.333 17.5 -22 17.5c-8 0 -14 -3 -18 -9s-7.33301 -13.333 -10 -22v-411h-100v516h85z" />
    <glyph glyph-name="o" unicode="o" horiz-adv-x="324" 
d="M291 156c0 -54 -10.167 -95.167 -30.5 -123.5s-53.5 -42.5 -99.5 -42.5c-45.333 0 -78 14.167 -98 42.5s-30 69.5 -30 123.5v204c0 54 10 95.167 30 123.5s52.667 42.5 98 42.5c46 0 79.167 -14.167 99.5 -42.5s30.5 -69.5 30.5 -123.5v-204zM191 375
c0 20.667 -2 37 -6 49s-11.667 18 -23 18s-19 -6 -23 -18s-6 -28.333 -6 -49v-234c0 -20.667 2 -37 6 -49s11.667 -18 23 -18s19 6 23 18s6 28.333 6 49v234z" />
    <glyph glyph-name="p" unicode="p" horiz-adv-x="330" 
d="M39 516h85.0029l8 -43c5.33301 14.667 14.666 27.167 27.999 37.5s29.666 15.5 48.999 15.5c58.667 0 88 -53.333 88 -160v-208c0 -54 -8.5 -95.5 -25.5 -124.5s-40.5 -43.5 -70.5 -43.5c-14.667 0 -26.834 2.83301 -36.501 8.5s-18.167 12.5 -25.5 20.5v-144l-11 -85
h-89v726zM139.003 87c4.66699 -8.66699 13.334 -13 26.001 -13c21.333 0 32 22.333 32 67v234c0 20.667 -2 37 -6 49s-11.333 18 -22 18c-8 0 -14.333 -3 -19 -9s-8.33398 -13.333 -11.001 -22v-324z" />
    <glyph glyph-name="q" unicode="q" horiz-adv-x="330" 
d="M191 419c-2 3.33301 -5.16797 6.83301 -9.50098 10.5s-9.5 5.5 -15.5 5.5c-12 0 -20.5 -6 -25.5 -18s-7.5 -29.667 -7.5 -53v-223c0 -20.667 1.66699 -37 5 -49s11.333 -18 24 -18s22.334 8.33301 29.001 25v320zM190.999 23
c-7.33301 -9.33301 -15.998 -17.167 -25.998 -23.5s-22.667 -9.5 -38 -9.5c-32 0 -55.667 14.5 -71 43.5s-23 70.5 -23 124.5v200c0 54 8.33301 95.5 25 124.5s41 43.5 73 43.5c19.333 0 34.166 -4.83301 44.499 -14.5s19.166 -21.5 26.499 -35.5l7 40h82v-726h-92l-8 85
v148z" />
    <glyph glyph-name="r" unicode="r" horiz-adv-x="246" 
d="M41 516h85.001l9 -43c4.66699 11.333 12.667 23 24 35s25.666 18 42.999 18c16 0 29 -4 39 -12l-22 -91c-8 5.33301 -17.333 8 -28 8s-20.167 -2.83301 -28.5 -8.5s-15.5 -13.167 -21.5 -22.5v-400h-100v516z" />
    <glyph glyph-name="s" unicode="s" horiz-adv-x="299" 
d="M121 164l0.00292969 -11.998c0 -23.333 1.66699 -42.166 5 -56.499s11.333 -21.5 24 -21.5c10 0 17.667 5.16699 23 15.5s8 24.833 8 43.5s-4.83301 35.667 -14.5 51s-28.834 33 -57.501 53c-30 20 -52 41.5 -66 64.5s-21 52.5 -21 88.5c0 16 2.5 32.167 7.5 48.5
s12.833 31 23.5 44s24 23.5 40 31.5s35 12 57 12c41.333 0 72.5 -13.833 93.5 -41.5s31.5 -66.834 31.5 -117.501v-10h-97v19c0 19.333 -1.83301 35.166 -5.5 47.499s-11.834 18.5 -24.501 18.5c-10.667 0 -18.167 -4.83301 -22.5 -14.5s-6.5 -21.167 -6.5 -34.5
c0 -21.333 6.33301 -38.833 19 -52.5s31.667 -28.5 57 -44.5c31.333 -19.333 53 -42 65 -68s18 -54.333 18 -85c0 -17.333 -2.16699 -35 -6.5 -53s-11.5 -34.333 -21.5 -49s-22.833 -26.834 -38.5 -36.501s-34.834 -14.5 -57.501 -14.5c-44 0 -76.833 14 -98.5 42
s-32.5 69 -32.5 123v9h98z" />
    <glyph glyph-name="t" unicode="t" horiz-adv-x="243" 
d="M236 11c-11.333 -7.33301 -22.333 -12.667 -33 -16s-23.667 -5 -39 -5c-45.333 0 -77.833 14.5 -97.5 43.5s-29.5 70.5 -29.5 124.5v458h89l11 -81v-19h85v-84h-85v-280c0 -8 0.5 -16.167 1.5 -24.5s2.83301 -15.833 5.5 -22.5s6.5 -12.167 11.5 -16.5
s11.5 -6.5 19.5 -6.5c14 0 26.667 3.66699 38 11z" />
    <glyph glyph-name="u" unicode="u" 
d="M36 516l100.001 -0.000976562v-375c0 -21.333 1.83301 -37.833 5.5 -49.5s11.167 -17.5 22.5 -17.5c13.333 0 22.666 8.33301 27.999 25v417h100v-402c0 -9.33301 1.83301 -17 5.5 -23s10.834 -9 21.501 -9v-92c-32 0 -55.833 4.5 -71.5 13.5s-28.167 25.5 -37.5 49.5
c-7.33301 -19.333 -17.333 -34.666 -30 -45.999s-29.667 -17 -51 -17c-26.667 0 -48.834 11.167 -66.501 33.5s-26.5 58.833 -26.5 109.5v383z" />
    <glyph glyph-name="v" unicode="v" horiz-adv-x="314" 
d="M211 0h-108l-87 516h100l39 -403h4l40 403h100z" />
    <glyph glyph-name="w" unicode="w" horiz-adv-x="471" 
d="M196 516h79l43 -323h4l33 323h100l-73 -516h-94l-51 305h-5l-50 -305h-94l-72 516h100l30 -323h4z" />
    <glyph glyph-name="x" unicode="x" horiz-adv-x="307" 
d="M113 516l43 -164h3l35 164h100l-84 -256l83 -260h-100l-42 164h-4l-34 -164h-100l83 277l-83 239h100z" />
    <glyph glyph-name="y" unicode="y" horiz-adv-x="309" 
d="M17 516l100 0.000976562l38 -343h4l36 343h100l-103 -565c-4 -22 -10.5 -42.833 -19.5 -62.5s-20.5 -36.834 -34.5 -51.501s-31 -26.167 -51 -34.5s-43.333 -12.5 -70 -12.5v92c18 0 35.5 6.16699 52.5 18.5s27.833 32.5 32.5 60.5l6 32z" />
    <glyph glyph-name="z" unicode="z" horiz-adv-x="256" 
d="M26 424v92h209v-101l-123 -323h118v-92h-209v100l123 324h-118z" />
    <glyph glyph-name="braceleft" unicode="{" horiz-adv-x="305" 
d="M88 239c0 20 -4.16797 33.333 -12.501 40s-22.5 10 -42.5 10h-9v92h9c20 0 34.167 3.33301 42.5 10s12.5 20 12.5 40v165c0 58 15 105 45 141s76 54 138 54h14v-92h-14c-28.667 0 -49.667 -8.33301 -63 -25s-20 -47 -20 -91v-166c0 -24 -5 -42.833 -15 -56.5
s-23.667 -20.5 -41 -20.5h-13v-10h13c17.333 0 31 -7 41 -21s15 -32.667 15 -56v-168c0 -22 1.66699 -40 5 -54s8.33301 -25 15 -33s15.334 -13.5 26.001 -16.5s23 -4.5 37 -4.5h14v-92h-14c-58 0 -103 15.167 -135 45.5s-48 74.833 -48 133.5v175z" />
    <glyph glyph-name="bar" unicode="|" horiz-adv-x="252" 
d="M76 -115v906h100v-906h-100z" />
    <glyph glyph-name="braceright" unicode="}" horiz-adv-x="305" 
d="M217 431c0 -20 4.16504 -33.333 12.498 -40s22.5 -10 42.5 -10h9v-92h-9c-20 0 -34.167 -3.33301 -42.5 -10s-12.5 -20 -12.5 -40v-175c0 -58.667 -16 -103.167 -48 -133.5s-77 -45.5 -135 -45.5h-14v92h14c14 0 26.333 1.5 37 4.5s19.334 8.5 26.001 16.5
s11.667 19 15 33s5 32 5 54v168c0 24 5 42.833 15 56.5s23.667 20.5 41 20.5h13v10h-13c-17.333 0 -31 7 -41 21s-15 32.667 -15 56v166c0 44 -6.66699 74.333 -20 91s-34.333 25 -63 25h-14v92h14c62.667 0 108.834 -18 138.501 -54s44.5 -83 44.5 -141v-165z" />
    <glyph glyph-name="asciitilde" unicode="~" horiz-adv-x="326" 
d="M310 385c0 -49.333 -6.99902 -84.998 -20.999 -106.998s-33.667 -33 -59 -33c-11.333 0 -21.333 1.33301 -30 4s-17.667 6.66699 -27 12s-17.833 10.666 -25.5 15.999s-15.834 8 -24.501 8c-15.333 0 -23 -13.333 -23 -40h-84c0 24.667 2.33301 45.834 7 63.501
s11 32.167 19 43.5s17 19.666 27 24.999s20.333 8 31 8c10 0 19 -1.5 27 -4.5s16.667 -7.16699 26 -12.5c7.33301 -4 15.5 -9.16699 24.5 -15.5s17.833 -9.5 26.5 -9.5c7.33301 0 12.833 3.16699 16.5 9.5s5.5 17.166 5.5 32.499h84z" />
    <glyph glyph-name="uni00A0" unicode="&#xa0;" horiz-adv-x="120" 
 />
    <glyph glyph-name="exclamdown" unicode="&#xa1;" horiz-adv-x="224" 
d="M60 -160v502h92l9 -86v-416h-101zM172 465c0 -17.333 -5.83301 -31.833 -17.5 -43.5s-26.167 -17.5 -43.5 -17.5s-31.833 5.83301 -43.5 17.5s-17.5 26.167 -17.5 43.5s5.83301 31.833 17.5 43.5s26.167 17.5 43.5 17.5s31.833 -5.83301 43.5 -17.5
s17.5 -26.167 17.5 -43.5z" />
    <glyph glyph-name="cent" unicode="&#xa2;" horiz-adv-x="308" 
d="M105 -66v66c-27.333 9.33301 -46.833 27.5 -58.5 54.5s-17.5 61.5 -17.5 103.5v200c0 42 5.83301 76.333 17.5 103s31.167 44.667 58.5 54v67h100v-64c28 -9.33301 48 -27.5 60 -54.5s18 -61.5 18 -103.5v-47h-96v22c0 34 -1.5 60.333 -4.5 79s-11.167 28 -24.5 28
c-11.333 0 -19 -6 -23 -18s-6 -28.333 -6 -49v-234c0 -20.667 2 -37 6 -49s11.667 -18 23 -18c13.333 0 21.5 9.33301 24.5 28s4.5 45 4.5 79v22h96v-47c0 -42.667 -6 -77.5 -18 -104.5s-32 -44.833 -60 -53.5v-64h-100z" />
    <glyph glyph-name="sterling" unicode="&#xa3;" horiz-adv-x="369" 
d="M32 323h40v180c0 56 11 98.667 33 128s56 44 102 44c45.333 0 79.5 -15 102.5 -45s34.5 -78.333 34.5 -145v-18h-101v48c0 18 -2.5 33.833 -7.5 47.5s-14.5 20.5 -28.5 20.5c-13.333 0 -22.5 -7 -27.5 -21s-7.5 -29.667 -7.5 -47v-192h103v-92h-103v-139h172v-92h-312v92
h40v139h-40v92z" />
    <glyph glyph-name="currency" unicode="&#xa4;" horiz-adv-x="349" 
d="M304 292c0 -30.667 -2.00195 -57.168 -6.00195 -79.501s-11.667 -41.166 -23 -56.499l45 -107h-90l-28 64c-9.33301 -2 -18.666 -3 -27.999 -3c-10.667 0 -20 1 -28 3l-27 -64h-90l44 107c-9.33301 13.333 -16.333 27.5 -21 42.5s-7 35.5 -7 61.5v50
c0 30 2 56.167 6 78.5s11.667 41.5 23 57.5l-45 107h89l28 -65c4 1.33301 8.33301 2.33301 13 3s9.66699 1 15 1s10.333 -0.333008 15 -1s9.33398 -1.66699 14.001 -3l28 65h89l-45 -108c19.333 -27.333 29 -67 29 -119v-34zM203.998 309.999c0 31.333 -1.5 55.5 -4.5 72.5
s-11.167 25.5 -24.5 25.5s-21.666 -8.5 -24.999 -25.5s-5 -41.167 -5 -72.5v-18c0 -32 1.66699 -56.333 5 -73s11.666 -25 24.999 -25c11.333 0 19 6 23 18s6 28.333 6 49v49z" />
    <glyph glyph-name="yen" unicode="&#xa5;" horiz-adv-x="376" 
d="M53 337h69l-97 328h103l58 -274h3l59 274h103l-103 -328h75v-67h-85v-41h85v-67h-85v-162h-100v162h-85v67h85v41h-85v67z" />
    <glyph glyph-name="brokenbar" unicode="&#xa6;" horiz-adv-x="252" 
d="M176 397h-100v394h100v-394zM176 279v-394h-100v394h100z" />
    <glyph glyph-name="section" unicode="&#xa7;" horiz-adv-x="318" 
d="M124 402c-8 -6.66699 -12.001 -16.002 -12.001 -28.002c0 -13.333 5.33301 -26.666 16 -39.999s27 -28 49 -44l15 -11c3.33301 4.66699 6 9.33398 8 14.001s3 10 3 16c0 13.333 -5.66699 27.5 -17 42.5s-27.666 29.167 -48.999 42.5zM61.999 459.998
c-8.66699 11.333 -16.1699 24.165 -22.5029 38.498s-9.5 32.166 -9.5 53.499c0 16.667 2.5 33.334 7.5 50.001s12.5 31.667 22.5 45s23 24 39 32s35 12 57 12c86.667 0 130 -53.667 130 -161v-13h-98v12c0 23.333 -1.83301 42.166 -5.5 56.499s-11.834 21.5 -24.501 21.5
c-11.333 0 -19.333 -4.83301 -24 -14.5s-7 -22.167 -7 -37.5c0 -11.333 1.16699 -20.833 3.5 -28.5s6.5 -15 12.5 -22s14 -14.333 24 -22s22.667 -16.834 38 -27.501c30.667 -21.333 52.167 -43.166 64.5 -65.499s18.5 -48.5 18.5 -78.5
c0 -19.333 -3.16699 -36.5 -9.5 -51.5s-13.833 -28.167 -22.5 -39.5c10.667 -15.333 18.334 -30.833 23.001 -46.5s7 -31.167 7 -46.5c0 -19.333 -2.66699 -37.166 -8 -53.499s-13.166 -30.833 -23.499 -43.5s-23.166 -22.5 -38.499 -29.5s-32.666 -10.5 -51.999 -10.5
c-88 0 -132 52.667 -132 158v16h97v-12c0 -23.333 2 -42.166 6 -56.499s12.333 -21.5 25 -21.5c11.333 0 19.333 4.83301 24 14.5s7 21.5 7 35.5c0 10.667 -1.16699 19.834 -3.5 27.501s-6.5 15.167 -12.5 22.5s-14 15 -24 23l-38 29c-28.667 20 -49.667 41.5 -63 64.5
s-20 49.5 -20 79.5c0 21.333 3 38.833 9 52.5s13.667 26.167 23 37.5z" />
    <glyph glyph-name="dieresis" unicode="&#xa8;" horiz-adv-x="342" 
d="M103 678c16.667 0 30.167 -5.16699 40.5 -15.5s15.5 -23.833 15.5 -40.5c0 -17.333 -5.16699 -31 -15.5 -41s-23.833 -15 -40.5 -15c-16 0 -29.333 5 -40 15s-16 23.667 -16 41c0 16.667 5.33301 30.167 16 40.5s24 15.5 40 15.5zM239 678
c16.667 0 30.167 -5.16699 40.5 -15.5s15.5 -23.833 15.5 -40.5c0 -17.333 -5.16699 -31 -15.5 -41s-23.833 -15 -40.5 -15c-16 0 -29.333 5 -40 15s-16 23.667 -16 41c0 16.667 5.33301 30.167 16 40.5s24 15.5 40 15.5z" />
    <glyph glyph-name="copyright" unicode="&#xa9;" horiz-adv-x="588" 
d="M551 227c0 -85.333 -20.499 -151.169 -61.499 -197.502s-106.167 -69.5 -195.5 -69.5s-154.5 23.333 -195.5 70s-61.5 112.334 -61.5 197.001v200c0 36.667 4.5 71.667 13.5 105s23.833 62.833 44.5 88.5s47.167 46.167 79.5 61.5s72.166 23 119.499 23
c46.667 0 86.334 -7.83301 119.001 -23.5s59.167 -36.5 79.5 -62.5s35.166 -55.667 44.499 -89s14 -67.666 14 -102.999v-200zM467.001 423.997c0 24.667 -3.00098 49.3311 -9.00098 73.998s-15.833 46.667 -29.5 66s-31.5 35 -53.5 47s-49 18 -81 18
s-59.167 -5.66699 -81.5 -17s-40.166 -26.333 -53.499 -45s-23 -40 -29 -64s-9 -49 -9 -75v-194c0 -29.333 3.16699 -56.166 9.5 -80.499s16.333 -45.166 30 -62.499s31.5 -30.833 53.5 -40.5s48.667 -14.5 80 -14.5s58 4.83301 80 14.5s39.833 23.167 53.5 40.5
s23.667 38 30 62s9.5 50.667 9.5 80v191zM324 376.994v46c0 19.333 -2 34.666 -6 45.999s-11.667 17 -23 17s-19.166 -5.66699 -23.499 -17s-6.5 -26.666 -6.5 -45.999v-181c0 -19.333 2.16699 -34.833 6.5 -46.5s12.166 -17.5 23.499 -17.5s19 5.66699 23 17s6 27 6 47v45
h85v-32c0 -49.333 -8.66699 -87.333 -26 -114s-47 -40 -89 -40s-71.667 13.5 -89 40.5s-26 65.5 -26 115.5v150c0 50 8.5 88.5 25.5 115.5s46.5 40.5 88.5 40.5c42.667 0 72.667 -13.167 90 -39.5s26 -64.5 26 -114.5v-32h-85z" />
    <glyph glyph-name="ordfeminine" unicode="&#xaa;" horiz-adv-x="218" 
d="M25 571l0.000976562 9.99902c0 27.333 5.83301 49.833 17.5 67.5s31.834 26.5 60.501 26.5c30 0 51.5 -8.33301 64.5 -25s19.5 -42 19.5 -76v-147c0 -5.33301 1.16699 -9.33301 3.5 -12s7.16602 -4 14.499 -4v-59c-22 0.666992 -38.167 3.5 -48.5 8.5
s-19.166 14.833 -26.499 29.5c-4.66699 -11.333 -10.834 -20.5 -18.501 -27.5s-17.834 -10.5 -30.501 -10.5c-18.667 0 -33.834 7.16699 -45.501 21.5s-17.5 36.5 -17.5 66.5v23c0 22.667 4.83301 42 14.5 58s25.167 24 46.5 24c9.33301 0 17 -1.16699 23 -3.5
s11.333 -5.16602 16 -8.49902v51c0 24.667 -5.33301 37 -16 37c-5.33301 0 -9.16602 -3 -11.499 -9s-3.5 -16 -3.5 -30v-11h-62zM118.001 494.999c-2.66699 2 -6.66602 3 -11.999 3c-6.66699 0 -11.5 -2.5 -14.5 -7.5s-4.5 -15.167 -4.5 -30.5v-17
c0 -13.333 1.16699 -22.833 3.5 -28.5s6.16602 -8.5 11.499 -8.5c6.66699 0 12 4.33301 16 13v76z" />
    <glyph glyph-name="guillemotleft" unicode="&#xab;" horiz-adv-x="411" 
d="M155 483l66 -68l-102 -122l102 -122l-66 -69l-122 145v92zM324 483l66 -68l-102 -122l102 -122l-66 -69l-122 145v92z" />
    <glyph glyph-name="logicalnot" unicode="&#xac;" horiz-adv-x="326" 
d="M32 377h262v-176h-92v84h-170v92z" />
    <glyph glyph-name="uni00AD" unicode="&#xad;" horiz-adv-x="245" 
 />
    <glyph glyph-name="registered" unicode="&#xae;" horiz-adv-x="482" 
d="M447 385c0 -33.333 -4 -63.833 -12 -91.5s-20.333 -51.5 -37 -71.5s-38 -35.667 -64 -47s-57 -17 -93 -17s-67 5.66699 -93 17s-47.333 27 -64 47s-29 43.833 -37 71.5s-12 58.167 -12 91.5v96c0 32.667 4 62.834 12 90.501s20.333 51.667 37 72s38 36.166 64 47.499
s57 17 93 17s67 -5.66699 93 -17s47.333 -27.166 64 -47.499s29 -44.333 37 -72s12 -57.834 12 -90.501v-96zM371 477c0 31.333 -2.66699 57.334 -8 78.001s-13.5 37.167 -24.5 49.5s-24.667 21 -41 26s-35.166 7.5 -56.499 7.5c-22 0 -41.167 -2.5 -57.5 -7.5
s-30 -13.667 -41 -26s-19.167 -28.833 -24.5 -49.5s-8 -46.334 -8 -77.001v-90c0 -30.667 2.66699 -56.334 8 -77.001s13.5 -37.167 24.5 -49.5s24.667 -21 41 -26s35.5 -7.5 57.5 -7.5c21.333 0 40.166 2.5 56.499 7.5s30 13.667 41 26s19.167 28.833 24.5 49.5
s8 46.334 8 77.001v89zM319 490.001c0 -30 -8.33301 -51.333 -25 -64l35 -137h-62l-26 125h-13v-125h-59v295h75c24 0 42.5 -7.5 55.5 -22.5s19.5 -34.833 19.5 -59.5v-12zM260 502.001c0 19.333 -6.66699 29 -20 29h-12v-75h12c7.33301 0 12.5 1.83301 15.5 5.5
s4.5 11.167 4.5 22.5v18z" />
    <glyph glyph-name="macron" unicode="&#xaf;" horiz-adv-x="350" 
d="M79 665h192v-84h-192v84z" />
    <glyph glyph-name="degree" unicode="&#xb0;" horiz-adv-x="243" 
d="M85 628c0 -11.333 3.33301 -20.5 10 -27.5s15.667 -10.5 27 -10.5s20.333 3.5 27 10.5s10 16.167 10 27.5s-3.33301 20.5 -10 27.5s-15.667 10.5 -27 10.5s-20.333 -3.5 -27 -10.5s-10 -16.167 -10 -27.5zM15 628c0 14.667 2.83301 28.5 8.5 41.5
s13.334 24.333 23.001 34s21 17.167 34 22.5s26.833 8 41.5 8s28.5 -2.66699 41.5 -8s24.333 -12.833 34 -22.5s17.167 -21 22.5 -34s8 -26.833 8 -41.5s-2.66699 -28.5 -8 -41.5s-12.833 -24.333 -22.5 -34s-21 -17.334 -34 -23.001s-26.833 -8.5 -41.5 -8.5
s-28.5 2.83301 -41.5 8.5s-24.333 13.334 -34 23.001s-17.334 21 -23.001 34s-8.5 26.833 -8.5 41.5z" />
    <glyph glyph-name="plusminus" unicode="&#xb1;" horiz-adv-x="326" 
d="M32 377h85v55h92v-55h85v-92h-85v-55h-92v55h-85v92zM32 205h262v-92h-262v92z" />
    <glyph glyph-name="twosuperior" unicode="&#xb2;" horiz-adv-x="256" 
d="M21 549v15.001c0 31.333 8.16699 57.666 24.5 78.999s44.166 32 83.499 32c38.667 0 66 -9 82 -27s24 -42 24 -72v-11c0 -18 -5.33301 -38.167 -16 -60.5s-26 -47.166 -46 -74.499l-58 -85h120v-75h-206v83l50 73c24 33.333 42 59.666 54 78.999s18 37 18 53v7
c0 23.333 -7.33301 35 -22 35c-9.33301 0 -15.666 -3.16699 -18.999 -9.5s-5 -15.833 -5 -28.5v-13h-84z" />
    <glyph glyph-name="threesuperior" unicode="&#xb3;" horiz-adv-x="256" 
d="M150 566c0 10 -1.66602 18.1689 -4.99902 24.502s-9.33301 9.5 -18 9.5s-14.667 -3.5 -18 -10.5s-5 -16.167 -5 -27.5v-6h-84v7c0 34 9 61.167 27 81.5s45 30.5 81 30.5s62.667 -9.33301 80 -28s26 -40.334 26 -65.001v-20c0 -18.667 -3.83301 -34.667 -11.5 -48
s-17.5 -23.333 -29.5 -30v-3c12 -6.66699 21.833 -16.834 29.5 -30.501s11.5 -30.167 11.5 -49.5v-29c0 -32 -8.66699 -58 -26 -78s-44 -30 -80 -30s-63 9.5 -81 28.5s-27 45.5 -27 79.5v17h84v-12c0 -11.333 1.66699 -20.5 5 -27.5s9.33301 -10.5 18 -10.5
s14.667 3.5 18 10.5s5 16.167 5 27.5v23c0 14 -2.33301 24.333 -7 31s-13.334 10 -26.001 10h-32v72h24c15.333 0 26 4 32 12s9 18.667 9 32v9z" />
    <glyph glyph-name="acute" unicode="&#xb4;" horiz-adv-x="350" 
d="M264 691l-58 -139h-82l39 139h101z" />
    <glyph glyph-name="mu" unicode="&#xb5;" horiz-adv-x="329" 
d="M133 516l-0.000976562 -382.001c0 -17.333 1.83301 -31.666 5.5 -42.999s11.167 -17 22.5 -17c13.333 0 22.666 8.33301 27.999 25v417h100v-406c0 -9.33301 1.83301 -16.333 5.5 -21s10.834 -7 21.501 -7v-92c-21.333 0 -38.333 3.16699 -51 9.5
s-22.334 18.5 -29.001 36.5c-10.667 -30.667 -30.667 -46 -60 -46c-9.33301 0 -17.666 2 -24.999 6s-12.666 9 -15.999 15v-136l-11 -85h-89v726h98z" />
    <glyph glyph-name="paragraph" unicode="&#xb6;" horiz-adv-x="375" 
d="M234 0v665h100v-665h-100zM191 0h-20v357h-27c-36 0 -61.333 12.833 -76 38.5s-22 63.167 -22 112.5v6c0 49.333 7.33301 86.833 22 112.5s40 38.5 76 38.5h47v-665z" />
    <glyph glyph-name="periodcentered" unicode="&#xb7;" horiz-adv-x="212" 
d="M45 355c0 18 5.66699 32.667 17 44s26 17 44 17s32.667 -5.66699 44 -17s17 -26 17 -44s-5.66699 -32.667 -17 -44s-26 -17 -44 -17s-32.667 5.66699 -44 17s-17 26 -17 44z" />
    <glyph glyph-name="cedilla" unicode="&#xb8;" horiz-adv-x="350" 
d="M141 0l52 -0.000976562v-33h6c20.667 0 38.5 -6.16699 53.5 -18.5s22.5 -34.166 22.5 -65.499c0 -32 -8 -56.167 -24 -72.5s-38 -24.5 -66 -24.5c-27.333 0 -48.166 7.5 -62.499 22.5s-21.5 37.5 -21.5 67.5v2h60v-2c0 -9.33301 2.16699 -17 6.5 -23s10.166 -9 17.499 -9
c16 0 24 12 24 36c0 14 -3.16699 23.667 -9.5 29s-16.5 8 -30.5 8h-28v83z" />
    <glyph glyph-name="onesuperior" unicode="&#xb9;" horiz-adv-x="256" 
d="M124 270v305l-61 -49l-49 66l98 77h96v-399h-84z" />
    <glyph glyph-name="ordmasculine" unicode="&#xba;" horiz-adv-x="205" 
d="M187 453c0 -32.667 -6.66699 -57.667 -20 -75s-35 -26 -65 -26s-51.5 8.66699 -64.5 26s-19.5 42.333 -19.5 75v121c0 33.333 6.5 58.5 19.5 75.5s34.5 25.5 64.5 25.5s51.667 -8.5 65 -25.5s20 -42.167 20 -75.5v-121zM118 584c0 24.667 -5.33301 37 -16 37
c-6 0 -10 -3.33301 -12 -10s-3 -15.667 -3 -27v-141c0 -11.333 1 -20.333 3 -27s6 -10 12 -10c10.667 0 16 12.333 16 37v141z" />
    <glyph glyph-name="guillemotright" unicode="&#xbb;" horiz-adv-x="411" 
d="M87 102l-66 69l102 122l-102 122l66 68l122 -144v-92zM256 102l-66 69l102 122l-102 122l66 68l122 -144v-92z" />
    <glyph glyph-name="onequarter" unicode="&#xbc;" horiz-adv-x="653" 
d="M124 270v305l-61 -49l-49 66l98 77h96v-399h-84zM240 0h-84l278 665h84zM555 68h-138v91l94 240h83l-98 -256h59v63h76v-206h-76v68z" />
    <glyph glyph-name="onehalf" unicode="&#xbd;" horiz-adv-x="653" 
d="M124 270v305l-61 -49l-49 66l98 77h96v-399h-84zM230 0h-84l278 665h84zM419 279v15.001c0 31.333 8.16699 57.666 24.5 78.999s44.166 32 83.499 32c38.667 0 66 -9 82 -27s24 -42 24 -72v-11c0 -18 -5.33301 -38.167 -16 -60.5s-26 -47.166 -46 -74.499l-58 -85h120
v-75h-206v83l50 73c24 33.333 42 59.666 54 78.999s18 37 18 53v7c0 23.333 -7.33301 35 -22 35c-9.33301 0 -15.666 -3.16699 -18.999 -9.5s-5 -15.833 -5 -28.5v-13h-84z" />
    <glyph glyph-name="threequarters" unicode="&#xbe;" horiz-adv-x="653" 
d="M150 566c0 10 -1.66602 18.1689 -4.99902 24.502s-9.33301 9.5 -18 9.5s-14.667 -3.5 -18 -10.5s-5 -16.167 -5 -27.5v-6h-84v7c0 34 9 61.167 27 81.5s45 30.5 81 30.5s62.667 -9.33301 80 -28s26 -40.334 26 -65.001v-20c0 -18.667 -3.83301 -34.667 -11.5 -48
s-17.5 -23.333 -29.5 -30v-3c12 -6.66699 21.833 -16.834 29.5 -30.501s11.5 -30.167 11.5 -49.5v-29c0 -32 -8.66699 -58 -26 -78s-44 -30 -80 -30s-63 9.5 -81 28.5s-27 45.5 -27 79.5v17h84v-12c0 -11.333 1.66699 -20.5 5 -27.5s9.33301 -10.5 18 -10.5
s14.667 3.5 18 10.5s5 16.167 5 27.5v23c0 14 -2.33301 24.333 -7 31s-13.334 10 -26.001 10h-32v72h24c15.333 0 26 4 32 12s9 18.667 9 32v9zM242.001 0.00195312h-84l278 665h84zM555.001 68.002h-138v91l94 240h83l-98 -256h59v63h76v-206h-76v68z" />
    <glyph glyph-name="questiondown" unicode="&#xbf;" horiz-adv-x="329" 
d="M295 29v-56c0 -42 -11 -76.333 -33 -103s-55.333 -40 -100 -40c-42 0 -73.667 11.5 -95 34.5s-32 53.833 -32 92.5v70c0 14 0.666992 26.833 2 38.5s4 23.167 8 34.5s9.83301 22.5 17.5 33.5s17.834 23.167 30.501 36.5c9.33301 10 16.5 19.5 21.5 28.5
s8.66699 18.667 11 29s3.66602 22 3.99902 35s0.5 28.833 0.5 47.5v32h100v-38c0 -22.667 -0.5 -42.167 -1.5 -58.5s-3.16699 -31 -6.5 -44s-8.5 -25.167 -15.5 -36.5s-16.833 -23.666 -29.5 -36.999c-9.33301 -10 -16.833 -19.667 -22.5 -29s-10 -18.333 -13 -27
s-4.83301 -17.334 -5.5 -26.001s-1 -17.667 -1 -27v-54c0 -13.333 2.5 -23.833 7.5 -31.5s12.167 -11.5 21.5 -11.5c20.667 0 31 19 31 57v50h100zM238 465c0 -17.333 -5.83301 -31.833 -17.5 -43.5s-26.167 -17.5 -43.5 -17.5s-31.833 5.83301 -43.5 17.5
s-17.5 26.167 -17.5 43.5s5.83301 31.833 17.5 43.5s26.167 17.5 43.5 17.5s31.833 -5.83301 43.5 -17.5s17.5 -26.167 17.5 -43.5z" />
    <glyph glyph-name="Agrave" unicode="&#xc0;" horiz-adv-x="352" 
d="M10 0l108 665h117l107 -665h-104l-17 121h-96l-17 -121h-98zM135 213h76l-37 284h-3zM205 846l38 -139h-81l-58 139h101z" />
    <glyph glyph-name="Aacute" unicode="&#xc1;" horiz-adv-x="352" 
d="M10 0l108 665h117l107 -665h-104l-17 121h-96l-17 -121h-98zM135 213h76l-37 284h-3zM265 846l-58 -139h-82l39 139h101z" />
    <glyph glyph-name="Acircumflex" unicode="&#xc2;" horiz-adv-x="352" 
d="M10 0l108 665h117l107 -665h-104l-17 121h-96l-17 -121h-98zM135 213h76l-37 284h-3zM217 846l65 -139h-78l-28 74l-28 -74h-78l65 139h82z" />
    <glyph glyph-name="Atilde" unicode="&#xc3;" horiz-adv-x="352" 
d="M10 0l108 665h117l107 -665h-104l-17 121h-96l-17 -121h-98zM135 213h76l-37 284h-3zM56 719c0 39.333 7.16504 67.5 21.498 84.5s30.833 25.5 49.5 25.5c11.333 0 21 -1.66699 29 -5s14.833 -6.83301 20.5 -10.5l16 -10.5c5 -3.33301 10.167 -5 15.5 -5
c4.66699 0 8.33398 2 11.001 6s4 11 4 21v7h73v-7c0 -40 -6.66699 -68.667 -20 -86s-29.666 -26 -48.999 -26c-10 0 -19 1.83301 -27 5.5s-15.167 7.66699 -21.5 12l-17.5 12c-5.33301 3.66699 -10.333 5.5 -15 5.5c-5.33301 0 -9.5 -2 -12.5 -6s-4.5 -11.667 -4.5 -23v-6
h-73v6z" />
    <glyph glyph-name="Adieresis" unicode="&#xc4;" horiz-adv-x="352" 
d="M10 0l108 665h117l107 -665h-104l-17 121h-96l-17 -121h-98zM135 213h76l-37 284h-3zM108 833c16.667 0 30.167 -5.16699 40.5 -15.5s15.5 -23.833 15.5 -40.5c0 -17.333 -5.16699 -31 -15.5 -41s-23.833 -15 -40.5 -15c-16 0 -29.333 5 -40 15s-16 23.667 -16 41
c0 16.667 5.33301 30.167 16 40.5s24 15.5 40 15.5zM244 833c16.667 0 30.167 -5.16699 40.5 -15.5s15.5 -23.833 15.5 -40.5c0 -17.333 -5.16699 -31 -15.5 -41s-23.833 -15 -40.5 -15c-16 0 -29.333 5 -40 15s-16 23.667 -16 41c0 16.667 5.33301 30.167 16 40.5
s24 15.5 40 15.5z" />
    <glyph glyph-name="Aring" unicode="&#xc5;" horiz-adv-x="352" 
d="M10 0l108 665h117l107 -665h-104l-17 121h-96l-17 -121h-98zM135 213h76l-37 284h-3zM147 785c0 -8.66699 2.66699 -15.834 8 -21.501s12.333 -8.5 21 -8.5s15.5 2.83301 20.5 8.5s7.5 12.834 7.5 21.501c0 8 -2.5 14.833 -7.5 20.5s-11.833 8.5 -20.5 8.5
s-15.667 -2.83301 -21 -8.5s-8 -12.5 -8 -20.5zM90 785c0 12 2.33301 23.167 7 33.5s10.834 19.333 18.501 27s16.667 13.667 27 18s21.5 6.5 33.5 6.5c24 0 44.167 -8.33301 60.5 -25s24.5 -36.667 24.5 -60c0 -12 -2.16699 -23.167 -6.5 -33.5s-10.333 -19.5 -18 -27.5
s-16.667 -14.333 -27 -19s-21.5 -7 -33.5 -7s-23.167 2.33301 -33.5 7s-19.333 11 -27 19s-13.834 17.167 -18.501 27.5s-7 21.5 -7 33.5z" />
    <glyph glyph-name="AE" unicode="&#xc6;" horiz-adv-x="503" 
d="M247 123h-100l-39 -123h-100l215 665h259v-95h-135v-168h110v-92h-110v-218h135v-92h-235v123zM247 215v252h-4l-72 -252h76z" />
    <glyph glyph-name="Ccedilla" unicode="&#xc7;" horiz-adv-x="330" 
d="M142 -7c-36 5.33301 -62.834 22.3311 -80.501 50.998s-26.5 68 -26.5 118v341c0 56 11 98.667 33 128s56 44 102 44c45.333 0 79.5 -15 102.5 -45s34.5 -78.333 34.5 -145v-18h-101v44c0 18 -2.5 34.5 -7.5 49.5s-14.5 22.5 -28.5 22.5
c-6.66699 0 -12.167 -2.16699 -16.5 -6.5s-7.83301 -10 -10.5 -17s-4.66699 -14.667 -6 -23s-2 -16.833 -2 -25.5v-357c0 -8 0.666992 -16.333 2 -25s3.33301 -16.5 6 -23.5s6.16699 -12.667 10.5 -17s9.83301 -6.5 16.5 -6.5s12.334 2.16699 17.001 6.5
s8.5 9.83301 11.5 16.5s5 14.334 6 23.001s1.5 17.334 1.5 26.001v44h101v-12c0 -62.667 -9.83301 -109.334 -29.5 -140.001s-47.5 -48.667 -83.5 -54v-25h5c20.667 0 38.5 -6.16699 53.5 -18.5s22.5 -34.166 22.5 -65.499c0 -32 -7.83301 -56.167 -23.5 -72.5
s-37.5 -24.5 -65.5 -24.5c-56 0 -84 30 -84 90v2h60v-2c0 -9.33301 2 -17 6 -23s10 -9 18 -9c16 0 24 12 24 36c0 14 -3.33301 23.667 -10 29s-16.667 8 -30 8h-28v76z" />
    <glyph glyph-name="Egrave" unicode="&#xc8;" horiz-adv-x="297" 
d="M276 570h-135v-168h110v-92h-110v-218h135v-92h-235v665h235v-95zM182 846l38 -139h-81l-58 139h101z" />
    <glyph glyph-name="Eacute" unicode="&#xc9;" horiz-adv-x="297" 
d="M276 570h-135v-168h110v-92h-110v-218h135v-92h-235v665h235v-95zM242 846l-58 -139h-82l39 139h101z" />
    <glyph glyph-name="Ecircumflex" unicode="&#xca;" horiz-adv-x="297" 
d="M276 570h-135v-168h110v-92h-110v-218h135v-92h-235v665h235v-95zM194 846l65 -139h-78l-28 74l-28 -74h-78l65 139h82z" />
    <glyph glyph-name="Edieresis" unicode="&#xcb;" horiz-adv-x="297" 
d="M276 570h-135v-168h110v-92h-110v-218h135v-92h-235v665h235v-95zM85 833c16.667 0 30.167 -5.16699 40.5 -15.5s15.5 -23.833 15.5 -40.5c0 -17.333 -5.16699 -31 -15.5 -41s-23.833 -15 -40.5 -15c-16 0 -29.333 5 -40 15s-16 23.667 -16 41
c0 16.667 5.33301 30.167 16 40.5s24 15.5 40 15.5zM221 833c16.667 0 30.167 -5.16699 40.5 -15.5s15.5 -23.833 15.5 -40.5c0 -17.333 -5.16699 -31 -15.5 -41s-23.833 -15 -40.5 -15c-16 0 -29.333 5 -40 15s-16 23.667 -16 41c0 16.667 5.33301 30.167 16 40.5
s24 15.5 40 15.5z" />
    <glyph glyph-name="Igrave" unicode="&#xcc;" horiz-adv-x="182" 
d="M41 0v665h100v-665h-100zM120 846l38 -139h-81l-58 139h101z" />
    <glyph glyph-name="Iacute" unicode="&#xcd;" horiz-adv-x="182" 
d="M41 0v665h100v-665h-100zM180 846l-58 -139h-82l39 139h101z" />
    <glyph glyph-name="Icircumflex" unicode="&#xce;" horiz-adv-x="182" 
d="M41 0v665h100v-665h-100zM132 846l65 -139h-78l-28 74l-28 -74h-78l65 139h82z" />
    <glyph glyph-name="Idieresis" unicode="&#xcf;" horiz-adv-x="182" 
d="M41 0v665h100v-665h-100zM23 833c16.667 0 30.167 -5.16699 40.5 -15.5s15.5 -23.833 15.5 -40.5c0 -17.333 -5.16699 -31 -15.5 -41s-23.833 -15 -40.5 -15c-16 0 -29.333 5 -40 15s-16 23.667 -16 41c0 16.667 5.33301 30.167 16 40.5s24 15.5 40 15.5zM159 833
c16.667 0 30.167 -5.16699 40.5 -15.5s15.5 -23.833 15.5 -40.5c0 -17.333 -5.16699 -31 -15.5 -41s-23.833 -15 -40.5 -15c-16 0 -29.333 5 -40 15s-16 23.667 -16 41c0 16.667 5.33301 30.167 16 40.5s24 15.5 40 15.5z" />
    <glyph glyph-name="Eth" unicode="&#xd0;" horiz-adv-x="359" 
d="M9 378h37v287h141c46 0 80.333 -14.5 103 -43.5s34 -71.833 34 -128.5v-321c0 -56.667 -11.333 -99.5 -34 -128.5s-57 -43.5 -103 -43.5h-141v286h-37v92zM224 505c0 17.333 -3.16699 32.499 -9.5 45.499s-16.5 19.5 -30.5 19.5h-38v-192h41v-92h-41v-194h38
c14 0 24.167 6.83301 30.5 20.5s9.5 30.834 9.5 51.501v341z" />
    <glyph glyph-name="Ntilde" unicode="&#xd1;" horiz-adv-x="372" 
d="M331 0h-100l-106 443h-3v-443h-81v665h100l106 -463h3v463h81v-665zM66 719c0 39.333 7.16504 67.5 21.498 84.5s30.833 25.5 49.5 25.5c11.333 0 21 -1.66699 29 -5s14.833 -6.83301 20.5 -10.5l16 -10.5c5 -3.33301 10.167 -5 15.5 -5c4.66699 0 8.33398 2 11.001 6
s4 11 4 21v7h73v-7c0 -40 -6.66699 -68.667 -20 -86s-29.666 -26 -48.999 -26c-10 0 -19 1.83301 -27 5.5s-15.167 7.66699 -21.5 12l-17.5 12c-5.33301 3.66699 -10.333 5.5 -15 5.5c-5.33301 0 -9.5 -2 -12.5 -6s-4.5 -11.667 -4.5 -23v-6h-73v6z" />
    <glyph glyph-name="Ograve" unicode="&#xd2;" 
d="M304 162c0 -56 -11.333 -98.667 -34 -128s-57 -44 -103 -44s-79.833 14.667 -101.5 44s-32.5 72 -32.5 128v341c0 56 11 98.667 33 128s56 44 102 44s80.167 -14.667 102.5 -44s33.5 -72 33.5 -128v-341zM204 511c0 8.66699 -0.5 17.335 -1.5 26.002
s-2.83301 16.334 -5.5 23.001s-6.5 12.167 -11.5 16.5s-11.167 6.5 -18.5 6.5s-13.333 -2.16699 -18 -6.5s-8.16699 -9.83301 -10.5 -16.5s-3.83301 -14.334 -4.5 -23.001s-1 -17.334 -1 -26.001v-356c0 -8.66699 0.333008 -17.334 1 -26.001s2.16699 -16.5 4.5 -23.5
s5.83301 -12.667 10.5 -17s10.667 -6.5 18 -6.5c14.667 0 24.5 7.66699 29.5 23s7.5 32 7.5 50v356zM198 846.001l38 -139h-81l-58 139h101z" />
    <glyph glyph-name="Oacute" unicode="&#xd3;" 
d="M304 162c0 -56 -11.333 -98.667 -34 -128s-57 -44 -103 -44s-79.833 14.667 -101.5 44s-32.5 72 -32.5 128v341c0 56 11 98.667 33 128s56 44 102 44s80.167 -14.667 102.5 -44s33.5 -72 33.5 -128v-341zM204 511c0 8.66699 -0.5 17.335 -1.5 26.002
s-2.83301 16.334 -5.5 23.001s-6.5 12.167 -11.5 16.5s-11.167 6.5 -18.5 6.5s-13.333 -2.16699 -18 -6.5s-8.16699 -9.83301 -10.5 -16.5s-3.83301 -14.334 -4.5 -23.001s-1 -17.334 -1 -26.001v-356c0 -8.66699 0.333008 -17.334 1 -26.001s2.16699 -16.5 4.5 -23.5
s5.83301 -12.667 10.5 -17s10.667 -6.5 18 -6.5c14.667 0 24.5 7.66699 29.5 23s7.5 32 7.5 50v356zM258 846.001l-58 -139h-82l39 139h101z" />
    <glyph glyph-name="Ocircumflex" unicode="&#xd4;" 
d="M304 162c0 -56 -11.333 -98.667 -34 -128s-57 -44 -103 -44s-79.833 14.667 -101.5 44s-32.5 72 -32.5 128v341c0 56 11 98.667 33 128s56 44 102 44s80.167 -14.667 102.5 -44s33.5 -72 33.5 -128v-341zM204 511c0 8.66699 -0.5 17.335 -1.5 26.002
s-2.83301 16.334 -5.5 23.001s-6.5 12.167 -11.5 16.5s-11.167 6.5 -18.5 6.5s-13.333 -2.16699 -18 -6.5s-8.16699 -9.83301 -10.5 -16.5s-3.83301 -14.334 -4.5 -23.001s-1 -17.334 -1 -26.001v-356c0 -8.66699 0.333008 -17.334 1 -26.001s2.16699 -16.5 4.5 -23.5
s5.83301 -12.667 10.5 -17s10.667 -6.5 18 -6.5c14.667 0 24.5 7.66699 29.5 23s7.5 32 7.5 50v356zM210 846.001l65 -139h-78l-28 74l-28 -74h-78l65 139h82z" />
    <glyph glyph-name="Otilde" unicode="&#xd5;" 
d="M304 162c0 -56 -11.333 -98.667 -34 -128s-57 -44 -103 -44s-79.833 14.667 -101.5 44s-32.5 72 -32.5 128v341c0 56 11 98.667 33 128s56 44 102 44s80.167 -14.667 102.5 -44s33.5 -72 33.5 -128v-341zM204 511c0 8.66699 -0.5 17.335 -1.5 26.002
s-2.83301 16.334 -5.5 23.001s-6.5 12.167 -11.5 16.5s-11.167 6.5 -18.5 6.5s-13.333 -2.16699 -18 -6.5s-8.16699 -9.83301 -10.5 -16.5s-3.83301 -14.334 -4.5 -23.001s-1 -17.334 -1 -26.001v-356c0 -8.66699 0.333008 -17.334 1 -26.001s2.16699 -16.5 4.5 -23.5
s5.83301 -12.667 10.5 -17s10.667 -6.5 18 -6.5c14.667 0 24.5 7.66699 29.5 23s7.5 32 7.5 50v356zM49 719.001c0 39.333 7.16504 67.5 21.498 84.5s30.833 25.5 49.5 25.5c11.333 0 21 -1.66699 29 -5s14.833 -6.83301 20.5 -10.5l16 -10.5c5 -3.33301 10.167 -5 15.5 -5
c4.66699 0 8.33398 2 11.001 6s4 11 4 21v7h73v-7c0 -40 -6.66699 -68.667 -20 -86s-29.666 -26 -48.999 -26c-10 0 -19 1.83301 -27 5.5s-15.167 7.66699 -21.5 12l-17.5 12c-5.33301 3.66699 -10.333 5.5 -15 5.5c-5.33301 0 -9.5 -2 -12.5 -6s-4.5 -11.667 -4.5 -23v-6
h-73v6z" />
    <glyph glyph-name="Odieresis" unicode="&#xd6;" 
d="M304 162c0 -56 -11.333 -98.667 -34 -128s-57 -44 -103 -44s-79.833 14.667 -101.5 44s-32.5 72 -32.5 128v341c0 56 11 98.667 33 128s56 44 102 44s80.167 -14.667 102.5 -44s33.5 -72 33.5 -128v-341zM204 511c0 8.66699 -0.5 17.335 -1.5 26.002
s-2.83301 16.334 -5.5 23.001s-6.5 12.167 -11.5 16.5s-11.167 6.5 -18.5 6.5s-13.333 -2.16699 -18 -6.5s-8.16699 -9.83301 -10.5 -16.5s-3.83301 -14.334 -4.5 -23.001s-1 -17.334 -1 -26.001v-356c0 -8.66699 0.333008 -17.334 1 -26.001s2.16699 -16.5 4.5 -23.5
s5.83301 -12.667 10.5 -17s10.667 -6.5 18 -6.5c14.667 0 24.5 7.66699 29.5 23s7.5 32 7.5 50v356zM101 833.001c16.667 0 30.167 -5.16699 40.5 -15.5s15.5 -23.833 15.5 -40.5c0 -17.333 -5.16699 -31 -15.5 -41s-23.833 -15 -40.5 -15c-16 0 -29.333 5 -40 15
s-16 23.667 -16 41c0 16.667 5.33301 30.167 16 40.5s24 15.5 40 15.5zM237 833.001c16.667 0 30.167 -5.16699 40.5 -15.5s15.5 -23.833 15.5 -40.5c0 -17.333 -5.16699 -31 -15.5 -41s-23.833 -15 -40.5 -15c-16 0 -29.333 5 -40 15s-16 23.667 -16 41
c0 16.667 5.33301 30.167 16 40.5s24 15.5 40 15.5z" />
    <glyph glyph-name="multiply" unicode="&#xd7;" horiz-adv-x="326" 
d="M38 241l60 60l-60 61l65 64l60 -60l60 60l65 -64l-60 -61l60 -60l-65 -65l-60 60l-60 -60z" />
    <glyph glyph-name="Oslash" unicode="&#xd8;" horiz-adv-x="339" 
d="M304 162c0 -56 -11.333 -98.668 -34 -128.001s-57 -44 -103 -44c-16 0 -30.333 1.83301 -43 5.5s-24 8.83398 -34 15.501l-15 -46l-42 14l23 71c-15.333 26.667 -23 64 -23 112v341c0 56 11 98.667 33 128s56 44 102 44c32.667 0 59.667 -8 81 -24l16 49l42 -14l-24 -75
c14 -28 21 -64 21 -108v-341zM133 288.999l71 221.002c0 18 -2.5 34.667 -7.5 50s-14.833 23 -29.5 23c-7.33301 0 -13.333 -2.16699 -18 -6.5s-8.16699 -9.83301 -10.5 -16.5s-3.83301 -14.334 -4.5 -23.001s-1 -17.334 -1 -26.001v-222zM204 366.001l-70.999 -221
c0.666992 -16 3.16699 -30.5 7.5 -43.5s13.166 -19.5 26.499 -19.5c14.667 0 24.5 7.66699 29.5 23s7.5 32 7.5 50v211z" />
    <glyph glyph-name="Ugrave" unicode="&#xd9;" horiz-adv-x="348" 
d="M311 665v-504.999c0 -112.667 -45.667 -169 -137 -169s-137 56.333 -137 169v505h100v-512c0 -8 0.5 -16.333 1.5 -25s2.83301 -16.334 5.5 -23.001s6.5 -12.167 11.5 -16.5s11.167 -6.5 18.5 -6.5c14.667 0 24.5 7.5 29.5 22.5s7.5 31.167 7.5 48.5v512h100z
M203 846.001l38 -139h-81l-58 139h101z" />
    <glyph glyph-name="Uacute" unicode="&#xda;" horiz-adv-x="348" 
d="M311 665v-504.999c0 -112.667 -45.667 -169 -137 -169s-137 56.333 -137 169v505h100v-512c0 -8 0.5 -16.333 1.5 -25s2.83301 -16.334 5.5 -23.001s6.5 -12.167 11.5 -16.5s11.167 -6.5 18.5 -6.5c14.667 0 24.5 7.5 29.5 22.5s7.5 31.167 7.5 48.5v512h100z
M263 846.001l-58 -139h-82l39 139h101z" />
    <glyph glyph-name="Ucircumflex" unicode="&#xdb;" horiz-adv-x="348" 
d="M311 665v-504.999c0 -112.667 -45.667 -169 -137 -169s-137 56.333 -137 169v505h100v-512c0 -8 0.5 -16.333 1.5 -25s2.83301 -16.334 5.5 -23.001s6.5 -12.167 11.5 -16.5s11.167 -6.5 18.5 -6.5c14.667 0 24.5 7.5 29.5 22.5s7.5 31.167 7.5 48.5v512h100z
M215 846.001l65 -139h-78l-28 74l-28 -74h-78l65 139h82z" />
    <glyph glyph-name="Udieresis" unicode="&#xdc;" horiz-adv-x="348" 
d="M311 665v-504.999c0 -112.667 -45.667 -169 -137 -169s-137 56.333 -137 169v505h100v-512c0 -8 0.5 -16.333 1.5 -25s2.83301 -16.334 5.5 -23.001s6.5 -12.167 11.5 -16.5s11.167 -6.5 18.5 -6.5c14.667 0 24.5 7.5 29.5 22.5s7.5 31.167 7.5 48.5v512h100z
M106 833.001c16.667 0 30.167 -5.16699 40.5 -15.5s15.5 -23.833 15.5 -40.5c0 -17.333 -5.16699 -31 -15.5 -41s-23.833 -15 -40.5 -15c-16 0 -29.333 5 -40 15s-16 23.667 -16 41c0 16.667 5.33301 30.167 16 40.5s24 15.5 40 15.5zM242 833.001
c16.667 0 30.167 -5.16699 40.5 -15.5s15.5 -23.833 15.5 -40.5c0 -17.333 -5.16699 -31 -15.5 -41s-23.833 -15 -40.5 -15c-16 0 -29.333 5 -40 15s-16 23.667 -16 41c0 16.667 5.33301 30.167 16 40.5s24 15.5 40 15.5z" />
    <glyph glyph-name="Yacute" unicode="&#xdd;" horiz-adv-x="354" 
d="M227 198v-198h-100v199l-113 466h103l58 -320h3l59 320h103zM266 846l-58 -139h-82l39 139h101z" />
    <glyph glyph-name="Thorn" unicode="&#xde;" horiz-adv-x="343" 
d="M314 298c0 -56 -11.333 -98.333 -34 -127s-57 -43 -103 -43h-34v-128h-102v665h102v-127h34c46 0 80.333 -14.667 103 -44s34 -72 34 -128v-68zM214 373c0 21.333 -3.16699 38.833 -9.5 52.5s-17.166 20.5 -32.499 20.5h-29v-226h29c15.333 0 26.166 6.66699 32.499 20
s9.5 31 9.5 53v80z" />
    <glyph glyph-name="germandbls" unicode="&#xdf;" horiz-adv-x="335" 
d="M141 -45l-9.00098 -85.001h-91v674c0 54 10 95.167 30 123.5s52.667 42.5 98 42.5c46 0 79.833 -14.167 101.5 -42.5s32.5 -69.5 32.5 -123.5v-15c0 -36 -4.33301 -63 -13 -81s-22.334 -32.667 -41.001 -44c18.667 -11.333 32.334 -28.666 41.001 -51.999
s13 -52.333 13 -87v-120c0 -49.333 -10 -86.166 -30 -110.499s-48.667 -36.5 -86 -36.5h-17v92h6c8 0 14.5 3.33301 19.5 10s7.5 17.667 7.5 33v164c0 17.333 -2.5 30.666 -7.5 39.999s-13.833 14 -26.5 14h-6v92h6c13.333 0 22.333 5 27 15s7 22.667 7 38v63
c0 20.667 -2.16699 37 -6.5 49s-12.166 18 -23.499 18s-19.5 -6 -24.5 -18s-7.5 -28.333 -7.5 -49v-604z" />
    <glyph glyph-name="agrave" unicode="&#xe0;" horiz-adv-x="330" 
d="M36 356v15.998c0 22 2.16699 42.5 6.5 61.5s11.5 35.333 21.5 49s22.667 24.334 38 32.001s34 11.5 56 11.5c45.333 0 78 -13.667 98 -41s30 -69 30 -125v-250c0 -10 2 -17.167 6 -21.5s11 -6.5 21 -6.5v-92c-16 0 -29.833 1 -41.5 3s-21.667 5.5 -30 10.5
s-15.5 11.5 -21.5 19.5s-11.333 18 -16 30c-7.33301 -20 -18 -35.5 -32 -46.5s-31 -16.5 -51 -16.5c-28 0 -50.5 11.667 -67.5 35s-25.5 59.333 -25.5 108v40c0 18.667 1.83301 36.334 5.5 53.001s9.5 31 17.5 43s18 21.5 30 28.5s26.333 10.5 43 10.5
c13.333 0 25 -1.83301 35 -5.5s19 -8.16699 27 -13.5v86c0 19.333 -2 35.333 -6 48s-11.667 19 -23 19c-10 0 -17.333 -5.5 -22 -16.5s-7 -28.5 -7 -52.5v-17h-92zM186 228.998c-7.33301 4.66699 -15.333 7 -24 7c-12.667 0 -21.5 -4.83301 -26.5 -14.5
s-7.5 -27.5 -7.5 -53.5v-32c0 -24 2.16699 -40.333 6.5 -49s11.5 -13 21.5 -13c13.333 0 23.333 8.33301 30 25v130zM193 690.998l38 -139h-81l-58 139h101z" />
    <glyph glyph-name="aacute" unicode="&#xe1;" horiz-adv-x="330" 
d="M36 356v15.998c0 22 2.16699 42.5 6.5 61.5s11.5 35.333 21.5 49s22.667 24.334 38 32.001s34 11.5 56 11.5c45.333 0 78 -13.667 98 -41s30 -69 30 -125v-250c0 -10 2 -17.167 6 -21.5s11 -6.5 21 -6.5v-92c-16 0 -29.833 1 -41.5 3s-21.667 5.5 -30 10.5
s-15.5 11.5 -21.5 19.5s-11.333 18 -16 30c-7.33301 -20 -18 -35.5 -32 -46.5s-31 -16.5 -51 -16.5c-28 0 -50.5 11.667 -67.5 35s-25.5 59.333 -25.5 108v40c0 18.667 1.83301 36.334 5.5 53.001s9.5 31 17.5 43s18 21.5 30 28.5s26.333 10.5 43 10.5
c13.333 0 25 -1.83301 35 -5.5s19 -8.16699 27 -13.5v86c0 19.333 -2 35.333 -6 48s-11.667 19 -23 19c-10 0 -17.333 -5.5 -22 -16.5s-7 -28.5 -7 -52.5v-17h-92zM186 228.998c-7.33301 4.66699 -15.333 7 -24 7c-12.667 0 -21.5 -4.83301 -26.5 -14.5
s-7.5 -27.5 -7.5 -53.5v-32c0 -24 2.16699 -40.333 6.5 -49s11.5 -13 21.5 -13c13.333 0 23.333 8.33301 30 25v130zM253 690.998l-58 -139h-82l39 139h101z" />
    <glyph glyph-name="acircumflex" unicode="&#xe2;" horiz-adv-x="330" 
d="M36 356v15.998c0 22 2.16699 42.5 6.5 61.5s11.5 35.333 21.5 49s22.667 24.334 38 32.001s34 11.5 56 11.5c45.333 0 78 -13.667 98 -41s30 -69 30 -125v-250c0 -10 2 -17.167 6 -21.5s11 -6.5 21 -6.5v-92c-16 0 -29.833 1 -41.5 3s-21.667 5.5 -30 10.5
s-15.5 11.5 -21.5 19.5s-11.333 18 -16 30c-7.33301 -20 -18 -35.5 -32 -46.5s-31 -16.5 -51 -16.5c-28 0 -50.5 11.667 -67.5 35s-25.5 59.333 -25.5 108v40c0 18.667 1.83301 36.334 5.5 53.001s9.5 31 17.5 43s18 21.5 30 28.5s26.333 10.5 43 10.5
c13.333 0 25 -1.83301 35 -5.5s19 -8.16699 27 -13.5v86c0 19.333 -2 35.333 -6 48s-11.667 19 -23 19c-10 0 -17.333 -5.5 -22 -16.5s-7 -28.5 -7 -52.5v-17h-92zM186 228.998c-7.33301 4.66699 -15.333 7 -24 7c-12.667 0 -21.5 -4.83301 -26.5 -14.5
s-7.5 -27.5 -7.5 -53.5v-32c0 -24 2.16699 -40.333 6.5 -49s11.5 -13 21.5 -13c13.333 0 23.333 8.33301 30 25v130zM205 690.998l65 -139h-78l-28 74l-28 -74h-78l65 139h82z" />
    <glyph glyph-name="atilde" unicode="&#xe3;" horiz-adv-x="330" 
d="M36 356v15.998c0 22 2.16699 42.5 6.5 61.5s11.5 35.333 21.5 49s22.667 24.334 38 32.001s34 11.5 56 11.5c45.333 0 78 -13.667 98 -41s30 -69 30 -125v-250c0 -10 2 -17.167 6 -21.5s11 -6.5 21 -6.5v-92c-16 0 -29.833 1 -41.5 3s-21.667 5.5 -30 10.5
s-15.5 11.5 -21.5 19.5s-11.333 18 -16 30c-7.33301 -20 -18 -35.5 -32 -46.5s-31 -16.5 -51 -16.5c-28 0 -50.5 11.667 -67.5 35s-25.5 59.333 -25.5 108v40c0 18.667 1.83301 36.334 5.5 53.001s9.5 31 17.5 43s18 21.5 30 28.5s26.333 10.5 43 10.5
c13.333 0 25 -1.83301 35 -5.5s19 -8.16699 27 -13.5v86c0 19.333 -2 35.333 -6 48s-11.667 19 -23 19c-10 0 -17.333 -5.5 -22 -16.5s-7 -28.5 -7 -52.5v-17h-92zM186 228.998c-7.33301 4.66699 -15.333 7 -24 7c-12.667 0 -21.5 -4.83301 -26.5 -14.5
s-7.5 -27.5 -7.5 -53.5v-32c0 -24 2.16699 -40.333 6.5 -49s11.5 -13 21.5 -13c13.333 0 23.333 8.33301 30 25v130zM45 563.998c0 39.333 7.16504 67.5 21.498 84.5s30.833 25.5 49.5 25.5c11.333 0 21 -1.66699 29 -5s14.833 -6.83301 20.5 -10.5l16 -10.5
c5 -3.33301 10.167 -5 15.5 -5c4.66699 0 8.33398 2 11.001 6s4 11 4 21v7h73v-7c0 -40 -6.66699 -68.667 -20 -86s-29.666 -26 -48.999 -26c-10 0 -19 1.83301 -27 5.5s-15.167 7.66699 -21.5 12l-17.5 12c-5.33301 3.66699 -10.333 5.5 -15 5.5
c-5.33301 0 -9.5 -2 -12.5 -6s-4.5 -11.667 -4.5 -23v-6h-73v6z" />
    <glyph glyph-name="adieresis" unicode="&#xe4;" horiz-adv-x="330" 
d="M36 356v15.998c0 22 2.16699 42.5 6.5 61.5s11.5 35.333 21.5 49s22.667 24.334 38 32.001s34 11.5 56 11.5c45.333 0 78 -13.667 98 -41s30 -69 30 -125v-250c0 -10 2 -17.167 6 -21.5s11 -6.5 21 -6.5v-92c-16 0 -29.833 1 -41.5 3s-21.667 5.5 -30 10.5
s-15.5 11.5 -21.5 19.5s-11.333 18 -16 30c-7.33301 -20 -18 -35.5 -32 -46.5s-31 -16.5 -51 -16.5c-28 0 -50.5 11.667 -67.5 35s-25.5 59.333 -25.5 108v40c0 18.667 1.83301 36.334 5.5 53.001s9.5 31 17.5 43s18 21.5 30 28.5s26.333 10.5 43 10.5
c13.333 0 25 -1.83301 35 -5.5s19 -8.16699 27 -13.5v86c0 19.333 -2 35.333 -6 48s-11.667 19 -23 19c-10 0 -17.333 -5.5 -22 -16.5s-7 -28.5 -7 -52.5v-17h-92zM186 228.998c-7.33301 4.66699 -15.333 7 -24 7c-12.667 0 -21.5 -4.83301 -26.5 -14.5
s-7.5 -27.5 -7.5 -53.5v-32c0 -24 2.16699 -40.333 6.5 -49s11.5 -13 21.5 -13c13.333 0 23.333 8.33301 30 25v130zM96 677.998c16.667 0 30.167 -5.16699 40.5 -15.5s15.5 -23.833 15.5 -40.5c0 -17.333 -5.16699 -31 -15.5 -41s-23.833 -15 -40.5 -15
c-16 0 -29.333 5 -40 15s-16 23.667 -16 41c0 16.667 5.33301 30.167 16 40.5s24 15.5 40 15.5zM232 677.998c16.667 0 30.167 -5.16699 40.5 -15.5s15.5 -23.833 15.5 -40.5c0 -17.333 -5.16699 -31 -15.5 -41s-23.833 -15 -40.5 -15c-16 0 -29.333 5 -40 15
s-16 23.667 -16 41c0 16.667 5.33301 30.167 16 40.5s24 15.5 40 15.5z" />
    <glyph glyph-name="aring" unicode="&#xe5;" horiz-adv-x="330" 
d="M36 356v15.998c0 22 2.16699 42.5 6.5 61.5s11.5 35.333 21.5 49s22.667 24.334 38 32.001s34 11.5 56 11.5c45.333 0 78 -13.667 98 -41s30 -69 30 -125v-250c0 -10 2 -17.167 6 -21.5s11 -6.5 21 -6.5v-92c-16 0 -29.833 1 -41.5 3s-21.667 5.5 -30 10.5
s-15.5 11.5 -21.5 19.5s-11.333 18 -16 30c-7.33301 -20 -18 -35.5 -32 -46.5s-31 -16.5 -51 -16.5c-28 0 -50.5 11.667 -67.5 35s-25.5 59.333 -25.5 108v40c0 18.667 1.83301 36.334 5.5 53.001s9.5 31 17.5 43s18 21.5 30 28.5s26.333 10.5 43 10.5
c13.333 0 25 -1.83301 35 -5.5s19 -8.16699 27 -13.5v86c0 19.333 -2 35.333 -6 48s-11.667 19 -23 19c-10 0 -17.333 -5.5 -22 -16.5s-7 -28.5 -7 -52.5v-17h-92zM186 228.998c-7.33301 4.66699 -15.333 7 -24 7c-12.667 0 -21.5 -4.83301 -26.5 -14.5
s-7.5 -27.5 -7.5 -53.5v-32c0 -24 2.16699 -40.333 6.5 -49s11.5 -13 21.5 -13c13.333 0 23.333 8.33301 30 25v130zM135 629.998c0 -8.66699 2.66699 -15.834 8 -21.501s12.333 -8.5 21 -8.5s15.5 2.83301 20.5 8.5s7.5 12.834 7.5 21.501c0 8 -2.5 14.833 -7.5 20.5
s-11.833 8.5 -20.5 8.5s-15.667 -2.83301 -21 -8.5s-8 -12.5 -8 -20.5zM78 629.998c0 12 2.33301 23.167 7 33.5s10.834 19.333 18.501 27s16.667 13.667 27 18s21.5 6.5 33.5 6.5c24 0 44.167 -8.33301 60.5 -25s24.5 -36.667 24.5 -60c0 -12 -2.16699 -23.167 -6.5 -33.5
s-10.333 -19.5 -18 -27.5s-16.667 -14.333 -27 -19s-21.5 -7 -33.5 -7s-23.167 2.33301 -33.5 7s-19.333 11 -27 19s-13.834 17.167 -18.501 27.5s-7 21.5 -7 33.5z" />
    <glyph glyph-name="ae" unicode="&#xe6;" horiz-adv-x="476" 
d="M186 229c-7.33301 4.66699 -15.333 7 -24 7c-12.667 0 -21.5 -4.83301 -26.5 -14.5s-7.5 -27.5 -7.5 -53.5v-28c0 -24 2.16699 -41 6.5 -51s11.5 -15 21.5 -15c13.333 0 23.333 8.33301 30 25v130zM286 141c0 -20.667 1.99902 -37.002 5.99902 -49.002s11.667 -18 23 -18
s19.166 5.83301 23.499 17.5s6.5 28.167 6.5 49.5v27h99v-16c0 -53.333 -10 -93.666 -30 -120.999s-50 -41 -90 -41c-18 0 -34.833 4 -50.5 12s-28.5 19.333 -38.5 34c-14 -16.667 -29.167 -28.5 -45.5 -35.5s-33.833 -10.5 -52.5 -10.5c-34 0 -60.667 11.667 -80 35
s-29 59.333 -29 108v39c0 38.667 8 71 24 97s42 39 78 39c10 0 20 -1.16699 30 -3.5s18.667 -6.16602 26 -11.499v82c0 19.333 -2 35.333 -6 48s-11.667 19 -23 19c-10 0 -17.333 -5.5 -22 -16.5s-7 -28.5 -7 -52.5v-17h-92v16c0 44.667 9.5 81.5 28.5 110.5
s47.167 43.5 84.5 43.5c20 0 36.833 -3.83301 50.5 -11.5s25.834 -19.167 36.501 -34.5c8.66699 14.667 20.334 26 35.001 34s32.667 12 54 12c38 0 67.333 -14.5 88 -43.5s31 -70.5 31 -124.5v-134h-158v-83zM343.999 374.998c0 20.667 -2 37 -6 49s-11.667 18 -23 18
s-19 -6 -23 -18s-6 -28.333 -6 -49v-71h58v71z" />
    <glyph glyph-name="ccedilla" unicode="&#xe7;" horiz-adv-x="314" 
d="M127 -6c-33.333 6.66699 -57.332 23.832 -71.999 51.499s-22 65.167 -22 112.5v200c0 54 10 95.5 30 124.5s52.667 43.5 98 43.5c46 0 78.5 -14.333 97.5 -43s28.5 -69.667 28.5 -123v-47h-96v62c0 21.333 -2 37.833 -6 49.5s-11.667 17.5 -23 17.5s-19 -6 -23 -18
s-6 -28.333 -6 -49v-234c0 -20.667 2 -37 6 -49s11.667 -18 23 -18s19 5.83301 23 17.5s6 28.167 6 49.5v62h96v-47c0 -50 -8.33301 -89 -25 -117s-44.334 -44 -83.001 -48v-24h6c20.667 0 38.334 -6.16699 53.001 -18.5s22 -34.166 22 -65.499
c0 -32 -7.83301 -56.167 -23.5 -72.5s-37.5 -24.5 -65.5 -24.5c-56 0 -84 30 -84 90v2h60v-2c0 -9.33301 2.16699 -17 6.5 -23s10.166 -9 17.499 -9c16 0 24 12 24 36c0 14 -3.16699 23.667 -9.5 29s-16.5 8 -30.5 8h-28v77z" />
    <glyph glyph-name="egrave" unicode="&#xe8;" horiz-adv-x="323" 
d="M133 304h58v71c0 20.667 -2 37 -6 49s-11.667 18 -23 18s-19 -6 -23 -18s-6 -28.333 -6 -49v-71zM191 168l100 -0.000976562v-16c0 -53.333 -10.333 -93.666 -31 -120.999s-53.667 -41 -99 -41c-47.333 0 -80.5 14.5 -99.5 43.5s-28.5 70.5 -28.5 124.5v200
c0 54 10 95.5 30 124.5s52.667 43.5 98 43.5c46 0 79.167 -14.5 99.5 -43.5s30.5 -70.5 30.5 -124.5v-134h-158v-83c0 -20.667 2 -37 6 -49s11.667 -18 23 -18s19 5.83301 23 17.5s6 28.167 6 49.5v27zM190 690.999l38 -139h-81l-58 139h101z" />
    <glyph glyph-name="eacute" unicode="&#xe9;" horiz-adv-x="323" 
d="M133 304h58v71c0 20.667 -2 37 -6 49s-11.667 18 -23 18s-19 -6 -23 -18s-6 -28.333 -6 -49v-71zM191 168l100 -0.000976562v-16c0 -53.333 -10.333 -93.666 -31 -120.999s-53.667 -41 -99 -41c-47.333 0 -80.5 14.5 -99.5 43.5s-28.5 70.5 -28.5 124.5v200
c0 54 10 95.5 30 124.5s52.667 43.5 98 43.5c46 0 79.167 -14.5 99.5 -43.5s30.5 -70.5 30.5 -124.5v-134h-158v-83c0 -20.667 2 -37 6 -49s11.667 -18 23 -18s19 5.83301 23 17.5s6 28.167 6 49.5v27zM250 690.999l-58 -139h-82l39 139h101z" />
    <glyph glyph-name="ecircumflex" unicode="&#xea;" horiz-adv-x="323" 
d="M133 304h58v71c0 20.667 -2 37 -6 49s-11.667 18 -23 18s-19 -6 -23 -18s-6 -28.333 -6 -49v-71zM191 168l100 -0.000976562v-16c0 -53.333 -10.333 -93.666 -31 -120.999s-53.667 -41 -99 -41c-47.333 0 -80.5 14.5 -99.5 43.5s-28.5 70.5 -28.5 124.5v200
c0 54 10 95.5 30 124.5s52.667 43.5 98 43.5c46 0 79.167 -14.5 99.5 -43.5s30.5 -70.5 30.5 -124.5v-134h-158v-83c0 -20.667 2 -37 6 -49s11.667 -18 23 -18s19 5.83301 23 17.5s6 28.167 6 49.5v27zM202 690.999l65 -139h-78l-28 74l-28 -74h-78l65 139h82z" />
    <glyph glyph-name="edieresis" unicode="&#xeb;" horiz-adv-x="323" 
d="M133 304h58v71c0 20.667 -2 37 -6 49s-11.667 18 -23 18s-19 -6 -23 -18s-6 -28.333 -6 -49v-71zM191 168l100 -0.000976562v-16c0 -53.333 -10.333 -93.666 -31 -120.999s-53.667 -41 -99 -41c-47.333 0 -80.5 14.5 -99.5 43.5s-28.5 70.5 -28.5 124.5v200
c0 54 10 95.5 30 124.5s52.667 43.5 98 43.5c46 0 79.167 -14.5 99.5 -43.5s30.5 -70.5 30.5 -124.5v-134h-158v-83c0 -20.667 2 -37 6 -49s11.667 -18 23 -18s19 5.83301 23 17.5s6 28.167 6 49.5v27zM93 677.999c16.667 0 30.167 -5.16699 40.5 -15.5
s15.5 -23.833 15.5 -40.5c0 -17.333 -5.16699 -31 -15.5 -41s-23.833 -15 -40.5 -15c-16 0 -29.333 5 -40 15s-16 23.667 -16 41c0 16.667 5.33301 30.167 16 40.5s24 15.5 40 15.5zM229 677.999c16.667 0 30.167 -5.16699 40.5 -15.5s15.5 -23.833 15.5 -40.5
c0 -17.333 -5.16699 -31 -15.5 -41s-23.833 -15 -40.5 -15c-16 0 -29.333 5 -40 15s-16 23.667 -16 41c0 16.667 5.33301 30.167 16 40.5s24 15.5 40 15.5z" />
    <glyph glyph-name="igrave" unicode="&#xec;" horiz-adv-x="182" 
d="M41 516h91l11 -85v-431h-102v516zM120 691l38 -139h-81l-58 139h101z" />
    <glyph glyph-name="iacute" unicode="&#xed;" horiz-adv-x="182" 
d="M41 516h91l11 -85v-431h-102v516zM180 691l-58 -139h-82l39 139h101z" />
    <glyph glyph-name="icircumflex" unicode="&#xee;" horiz-adv-x="182" 
d="M41 516h91l11 -85v-431h-102v516zM132 691l65 -139h-78l-28 74l-28 -74h-78l65 139h82z" />
    <glyph glyph-name="idieresis" unicode="&#xef;" horiz-adv-x="182" 
d="M41 516h91l11 -85v-431h-102v516zM23 678c16.667 0 30.167 -5.16699 40.5 -15.5s15.5 -23.833 15.5 -40.5c0 -17.333 -5.16699 -31 -15.5 -41s-23.833 -15 -40.5 -15c-16 0 -29.333 5 -40 15s-16 23.667 -16 41c0 16.667 5.33301 30.167 16 40.5s24 15.5 40 15.5z
M159 678c16.667 0 30.167 -5.16699 40.5 -15.5s15.5 -23.833 15.5 -40.5c0 -17.333 -5.16699 -31 -15.5 -41s-23.833 -15 -40.5 -15c-16 0 -29.333 5 -40 15s-16 23.667 -16 41c0 16.667 5.33301 30.167 16 40.5s24 15.5 40 15.5z" />
    <glyph glyph-name="eth" unicode="&#xf0;" horiz-adv-x="324" 
d="M130 572l24 18c-14.667 11.333 -30.667 17 -48 17h-5v68h6c38.667 0 72 -13 100 -39l43 35l25 -29l-43 -35c20 -28 34.833 -63.167 44.5 -105.5s14.5 -89.5 14.5 -141.5v-203c0 -54 -10.167 -95.333 -30.5 -124s-53.5 -43 -99.5 -43c-45.333 0 -78 14.167 -98 42.5
s-30 69.5 -30 123.5v209c0 54 10.333 94.333 31 121s46 40 76 40c19.333 0 34.333 -3.66699 45 -11s19.667 -15.333 27 -24c-1.33301 12 -4.5 24.5 -9.5 37.5s-11.5 24.833 -19.5 35.5l-28 -21zM191 379c0 20.667 -2 36.332 -6 46.999s-11.667 16 -23 16
s-19 -5.16699 -23 -15.5s-6 -26.166 -6 -47.499v-242c0 -20.667 2 -36.334 6 -47.001s11.667 -16 23 -16s19 5.33301 23 16s6 26.334 6 47.001v242z" />
    <glyph glyph-name="ntilde" unicode="&#xf1;" horiz-adv-x="335" 
d="M135 473c5.33301 14.667 14.333 27.167 27 37.5s29 15.5 49 15.5c31.333 0 53.5 -13.167 66.5 -39.5s19.5 -66.5 19.5 -120.5v-366h-91l-9 85v290c0 21.333 -2 37.833 -6 49.5s-11.333 17.5 -22 17.5c-8 0 -14 -3 -18 -9s-7.33301 -13.333 -10 -22v-411h-100v516h85z
M48 564c0 39.333 7.16504 67.5 21.498 84.5s30.833 25.5 49.5 25.5c11.333 0 21 -1.66699 29 -5s14.833 -6.83301 20.5 -10.5l16 -10.5c5 -3.33301 10.167 -5 15.5 -5c4.66699 0 8.33398 2 11.001 6s4 11 4 21v7h73v-7c0 -40 -6.66699 -68.667 -20 -86
s-29.666 -26 -48.999 -26c-10 0 -19 1.83301 -27 5.5s-15.167 7.66699 -21.5 12l-17.5 12c-5.33301 3.66699 -10.333 5.5 -15 5.5c-5.33301 0 -9.5 -2 -12.5 -6s-4.5 -11.667 -4.5 -23v-6h-73v6z" />
    <glyph glyph-name="ograve" unicode="&#xf2;" horiz-adv-x="324" 
d="M291 156c0 -54 -10.167 -95.167 -30.5 -123.5s-53.5 -42.5 -99.5 -42.5c-45.333 0 -78 14.167 -98 42.5s-30 69.5 -30 123.5v204c0 54 10 95.167 30 123.5s52.667 42.5 98 42.5c46 0 79.167 -14.167 99.5 -42.5s30.5 -69.5 30.5 -123.5v-204zM191 375
c0 20.667 -2 37 -6 49s-11.667 18 -23 18s-19 -6 -23 -18s-6 -28.333 -6 -49v-234c0 -20.667 2 -37 6 -49s11.667 -18 23 -18s19 6 23 18s6 28.333 6 49v234zM191 691l38 -139h-81l-58 139h101z" />
    <glyph glyph-name="oacute" unicode="&#xf3;" horiz-adv-x="324" 
d="M291 156c0 -54 -10.167 -95.167 -30.5 -123.5s-53.5 -42.5 -99.5 -42.5c-45.333 0 -78 14.167 -98 42.5s-30 69.5 -30 123.5v204c0 54 10 95.167 30 123.5s52.667 42.5 98 42.5c46 0 79.167 -14.167 99.5 -42.5s30.5 -69.5 30.5 -123.5v-204zM191 375
c0 20.667 -2 37 -6 49s-11.667 18 -23 18s-19 -6 -23 -18s-6 -28.333 -6 -49v-234c0 -20.667 2 -37 6 -49s11.667 -18 23 -18s19 6 23 18s6 28.333 6 49v234zM251 691l-58 -139h-82l39 139h101z" />
    <glyph glyph-name="ocircumflex" unicode="&#xf4;" horiz-adv-x="324" 
d="M291 156c0 -54 -10.167 -95.167 -30.5 -123.5s-53.5 -42.5 -99.5 -42.5c-45.333 0 -78 14.167 -98 42.5s-30 69.5 -30 123.5v204c0 54 10 95.167 30 123.5s52.667 42.5 98 42.5c46 0 79.167 -14.167 99.5 -42.5s30.5 -69.5 30.5 -123.5v-204zM191 375
c0 20.667 -2 37 -6 49s-11.667 18 -23 18s-19 -6 -23 -18s-6 -28.333 -6 -49v-234c0 -20.667 2 -37 6 -49s11.667 -18 23 -18s19 6 23 18s6 28.333 6 49v234zM203 691l65 -139h-78l-28 74l-28 -74h-78l65 139h82z" />
    <glyph glyph-name="otilde" unicode="&#xf5;" horiz-adv-x="324" 
d="M291 156c0 -54 -10.167 -95.167 -30.5 -123.5s-53.5 -42.5 -99.5 -42.5c-45.333 0 -78 14.167 -98 42.5s-30 69.5 -30 123.5v204c0 54 10 95.167 30 123.5s52.667 42.5 98 42.5c46 0 79.167 -14.167 99.5 -42.5s30.5 -69.5 30.5 -123.5v-204zM191 375
c0 20.667 -2 37 -6 49s-11.667 18 -23 18s-19 -6 -23 -18s-6 -28.333 -6 -49v-234c0 -20.667 2 -37 6 -49s11.667 -18 23 -18s19 6 23 18s6 28.333 6 49v234zM42 564c0 39.333 7.16504 67.5 21.498 84.5s30.833 25.5 49.5 25.5c11.333 0 21 -1.66699 29 -5
s14.833 -6.83301 20.5 -10.5l16 -10.5c5 -3.33301 10.167 -5 15.5 -5c4.66699 0 8.33398 2 11.001 6s4 11 4 21v7h73v-7c0 -40 -6.66699 -68.667 -20 -86s-29.666 -26 -48.999 -26c-10 0 -19 1.83301 -27 5.5s-15.167 7.66699 -21.5 12l-17.5 12
c-5.33301 3.66699 -10.333 5.5 -15 5.5c-5.33301 0 -9.5 -2 -12.5 -6s-4.5 -11.667 -4.5 -23v-6h-73v6z" />
    <glyph glyph-name="odieresis" unicode="&#xf6;" horiz-adv-x="324" 
d="M291 156c0 -54 -10.167 -95.167 -30.5 -123.5s-53.5 -42.5 -99.5 -42.5c-45.333 0 -78 14.167 -98 42.5s-30 69.5 -30 123.5v204c0 54 10 95.167 30 123.5s52.667 42.5 98 42.5c46 0 79.167 -14.167 99.5 -42.5s30.5 -69.5 30.5 -123.5v-204zM191 375
c0 20.667 -2 37 -6 49s-11.667 18 -23 18s-19 -6 -23 -18s-6 -28.333 -6 -49v-234c0 -20.667 2 -37 6 -49s11.667 -18 23 -18s19 6 23 18s6 28.333 6 49v234zM94 678c16.667 0 30.167 -5.16699 40.5 -15.5s15.5 -23.833 15.5 -40.5c0 -17.333 -5.16699 -31 -15.5 -41
s-23.833 -15 -40.5 -15c-16 0 -29.333 5 -40 15s-16 23.667 -16 41c0 16.667 5.33301 30.167 16 40.5s24 15.5 40 15.5zM230 678c16.667 0 30.167 -5.16699 40.5 -15.5s15.5 -23.833 15.5 -40.5c0 -17.333 -5.16699 -31 -15.5 -41s-23.833 -15 -40.5 -15
c-16 0 -29.333 5 -40 15s-16 23.667 -16 41c0 16.667 5.33301 30.167 16 40.5s24 15.5 40 15.5z" />
    <glyph glyph-name="divide" unicode="&#xf7;" horiz-adv-x="326" 
d="M102 168c0 18 5.66699 32.667 17 44s26 17 44 17s32.667 -5.66699 44 -17s17 -26 17 -44s-5.66699 -32.667 -17 -44s-26 -17 -44 -17s-32.667 5.66699 -44 17s-17 26 -17 44zM102 434c0 18 5.66699 32.667 17 44s26 17 44 17s32.667 -5.66699 44 -17s17 -26 17 -44
s-5.66699 -32.667 -17 -44s-26 -17 -44 -17s-32.667 5.66699 -44 17s-17 26 -17 44zM32 347h262v-92h-262v92z" />
    <glyph glyph-name="oslash" unicode="&#xf8;" horiz-adv-x="324" 
d="M291 156c0 -54 -10.167 -95.167 -30.5 -123.5s-53.5 -42.5 -99.5 -42.5c-32 0 -58.333 7.66699 -79 23l-15 -38l-38 16l24 58c-13.333 26 -20 61.667 -20 107v204c0 54 10 95.167 30 123.5s52.667 42.5 98 42.5c32 0 58.333 -7.66699 79 -23l15 37l38 -16l-23 -56
c14 -27.333 21 -63.333 21 -108v-204zM191 276l-58 -141c0 -19.333 2 -34.333 6 -45s11.667 -16 23 -16s19 6 23 18s6 28.333 6 49v135zM133 244l58 140c-0.666992 18 -3.16699 32.167 -7.5 42.5s-11.5 15.5 -21.5 15.5c-11.333 0 -19 -6 -23 -18s-6 -28.333 -6 -49v-131z
" />
    <glyph glyph-name="ugrave" unicode="&#xf9;" 
d="M36 516l100.001 -0.000976562v-375c0 -21.333 1.83301 -37.833 5.5 -49.5s11.167 -17.5 22.5 -17.5c13.333 0 22.666 8.33301 27.999 25v417h100v-402c0 -9.33301 1.83301 -17 5.5 -23s10.834 -9 21.501 -9v-92c-32 0 -55.833 4.5 -71.5 13.5s-28.167 25.5 -37.5 49.5
c-7.33301 -19.333 -17.333 -34.666 -30 -45.999s-29.667 -17 -51 -17c-26.667 0 -48.834 11.167 -66.501 33.5s-26.5 58.833 -26.5 109.5v383zM197.001 690.999l38 -139h-81l-58 139h101z" />
    <glyph glyph-name="uacute" unicode="&#xfa;" 
d="M36 516l100.001 -0.000976562v-375c0 -21.333 1.83301 -37.833 5.5 -49.5s11.167 -17.5 22.5 -17.5c13.333 0 22.666 8.33301 27.999 25v417h100v-402c0 -9.33301 1.83301 -17 5.5 -23s10.834 -9 21.501 -9v-92c-32 0 -55.833 4.5 -71.5 13.5s-28.167 25.5 -37.5 49.5
c-7.33301 -19.333 -17.333 -34.666 -30 -45.999s-29.667 -17 -51 -17c-26.667 0 -48.834 11.167 -66.501 33.5s-26.5 58.833 -26.5 109.5v383zM257.001 690.999l-58 -139h-82l39 139h101z" />
    <glyph glyph-name="ucircumflex" unicode="&#xfb;" 
d="M36 516l100.001 -0.000976562v-375c0 -21.333 1.83301 -37.833 5.5 -49.5s11.167 -17.5 22.5 -17.5c13.333 0 22.666 8.33301 27.999 25v417h100v-402c0 -9.33301 1.83301 -17 5.5 -23s10.834 -9 21.501 -9v-92c-32 0 -55.833 4.5 -71.5 13.5s-28.167 25.5 -37.5 49.5
c-7.33301 -19.333 -17.333 -34.666 -30 -45.999s-29.667 -17 -51 -17c-26.667 0 -48.834 11.167 -66.501 33.5s-26.5 58.833 -26.5 109.5v383zM209.001 690.999l65 -139h-78l-28 74l-28 -74h-78l65 139h82z" />
    <glyph glyph-name="udieresis" unicode="&#xfc;" 
d="M36 516l100.001 -0.000976562v-375c0 -21.333 1.83301 -37.833 5.5 -49.5s11.167 -17.5 22.5 -17.5c13.333 0 22.666 8.33301 27.999 25v417h100v-402c0 -9.33301 1.83301 -17 5.5 -23s10.834 -9 21.501 -9v-92c-32 0 -55.833 4.5 -71.5 13.5s-28.167 25.5 -37.5 49.5
c-7.33301 -19.333 -17.333 -34.666 -30 -45.999s-29.667 -17 -51 -17c-26.667 0 -48.834 11.167 -66.501 33.5s-26.5 58.833 -26.5 109.5v383zM100.001 677.999c16.667 0 30.167 -5.16699 40.5 -15.5s15.5 -23.833 15.5 -40.5c0 -17.333 -5.16699 -31 -15.5 -41
s-23.833 -15 -40.5 -15c-16 0 -29.333 5 -40 15s-16 23.667 -16 41c0 16.667 5.33301 30.167 16 40.5s24 15.5 40 15.5zM236.001 677.999c16.667 0 30.167 -5.16699 40.5 -15.5s15.5 -23.833 15.5 -40.5c0 -17.333 -5.16699 -31 -15.5 -41s-23.833 -15 -40.5 -15
c-16 0 -29.333 5 -40 15s-16 23.667 -16 41c0 16.667 5.33301 30.167 16 40.5s24 15.5 40 15.5z" />
    <glyph glyph-name="yacute" unicode="&#xfd;" horiz-adv-x="309" 
d="M17 516l100 0.000976562l38 -343h4l36 343h100l-103 -565c-4 -22 -10.5 -42.833 -19.5 -62.5s-20.5 -36.834 -34.5 -51.501s-31 -26.167 -51 -34.5s-43.333 -12.5 -70 -12.5v92c18 0 35.5 6.16699 52.5 18.5s27.833 32.5 32.5 60.5l6 32zM249 691.001l-58 -139h-82
l39 139h101z" />
    <glyph glyph-name="thorn" unicode="&#xfe;" horiz-adv-x="332" 
d="M141 88c2 -3.33301 5.16699 -6.50098 9.5 -9.50098s9.5 -4.5 15.5 -4.5c9.33301 0 17.166 5.33301 23.499 16s9.5 28.667 9.5 54v239c0 17.333 -2.16699 31.5 -6.5 42.5s-12.166 16.5 -23.499 16.5c-7.33301 0 -13.333 -2.66699 -18 -8s-8 -11.666 -10 -18.999v-327z
M141 -210.001h-100v920h89l11 -85v-152c4.66699 15.333 13 28 25 38s26.333 15 43 15c28 0 50 -11.833 66 -35.5s24 -62.5 24 -116.5v-222c0 -54 -9.33301 -94.5 -28 -121.5s-43 -40.5 -73 -40.5c-25.333 0 -44.333 7 -57 21v-221z" />
    <glyph glyph-name="ydieresis" unicode="&#xff;" horiz-adv-x="309" 
d="M17 516l100 0.000976562l38 -343h4l36 343h100l-103 -565c-4 -22 -10.5 -42.833 -19.5 -62.5s-20.5 -36.834 -34.5 -51.501s-31 -26.167 -51 -34.5s-43.333 -12.5 -70 -12.5v92c18 0 35.5 6.16699 52.5 18.5s27.833 32.5 32.5 60.5l6 32zM87 678.001
c16.667 0 30.167 -5.16699 40.5 -15.5s15.5 -23.833 15.5 -40.5c0 -17.333 -5.16699 -31 -15.5 -41s-23.833 -15 -40.5 -15c-16 0 -29.333 5 -40 15s-16 23.667 -16 41c0 16.667 5.33301 30.167 16 40.5s24 15.5 40 15.5zM223 678.001c16.667 0 30.167 -5.16699 40.5 -15.5
s15.5 -23.833 15.5 -40.5c0 -17.333 -5.16699 -31 -15.5 -41s-23.833 -15 -40.5 -15c-16 0 -29.333 5 -40 15s-16 23.667 -16 41c0 16.667 5.33301 30.167 16 40.5s24 15.5 40 15.5z" />
    <glyph glyph-name="Amacron" unicode="&#x100;" horiz-adv-x="352" 
d="M10 0l108 665h117l107 -665h-104l-17 121h-96l-17 -121h-98zM135 213h76l-37 284h-3zM80 820h192v-84h-192v84z" />
    <glyph glyph-name="amacron" unicode="&#x101;" horiz-adv-x="330" 
d="M36 356v15.998c0 22 2.16699 42.5 6.5 61.5s11.5 35.333 21.5 49s22.667 24.334 38 32.001s34 11.5 56 11.5c45.333 0 78 -13.667 98 -41s30 -69 30 -125v-250c0 -10 2 -17.167 6 -21.5s11 -6.5 21 -6.5v-92c-16 0 -29.833 1 -41.5 3s-21.667 5.5 -30 10.5
s-15.5 11.5 -21.5 19.5s-11.333 18 -16 30c-7.33301 -20 -18 -35.5 -32 -46.5s-31 -16.5 -51 -16.5c-28 0 -50.5 11.667 -67.5 35s-25.5 59.333 -25.5 108v40c0 18.667 1.83301 36.334 5.5 53.001s9.5 31 17.5 43s18 21.5 30 28.5s26.333 10.5 43 10.5
c13.333 0 25 -1.83301 35 -5.5s19 -8.16699 27 -13.5v86c0 19.333 -2 35.333 -6 48s-11.667 19 -23 19c-10 0 -17.333 -5.5 -22 -16.5s-7 -28.5 -7 -52.5v-17h-92zM186 228.998c-7.33301 4.66699 -15.333 7 -24 7c-12.667 0 -21.5 -4.83301 -26.5 -14.5
s-7.5 -27.5 -7.5 -53.5v-32c0 -24 2.16699 -40.333 6.5 -49s11.5 -13 21.5 -13c13.333 0 23.333 8.33301 30 25v130zM69 664.998h192v-84h-192v84z" />
    <glyph glyph-name="Abreve" unicode="&#x102;" horiz-adv-x="352" 
d="M10 0l108 665h117l107 -665h-104l-17 121h-96l-17 -121h-98zM135 213h76l-37 284h-3zM278 831v-12c0 -32 -8.5 -57.667 -25.5 -77s-42.833 -29 -77.5 -29c-34 0 -59.667 9.66699 -77 29s-26 45 -26 77v12h78v-12c0 -12 2.16699 -20.5 6.5 -25.5s10.5 -7.5 18.5 -7.5
s14.167 2.5 18.5 7.5s6.5 13.5 6.5 25.5v12h78z" />
    <glyph glyph-name="abreve" unicode="&#x103;" horiz-adv-x="330" 
d="M36 356v15.998c0 22 2.16699 42.5 6.5 61.5s11.5 35.333 21.5 49s22.667 24.334 38 32.001s34 11.5 56 11.5c45.333 0 78 -13.667 98 -41s30 -69 30 -125v-250c0 -10 2 -17.167 6 -21.5s11 -6.5 21 -6.5v-92c-16 0 -29.833 1 -41.5 3s-21.667 5.5 -30 10.5
s-15.5 11.5 -21.5 19.5s-11.333 18 -16 30c-7.33301 -20 -18 -35.5 -32 -46.5s-31 -16.5 -51 -16.5c-28 0 -50.5 11.667 -67.5 35s-25.5 59.333 -25.5 108v40c0 18.667 1.83301 36.334 5.5 53.001s9.5 31 17.5 43s18 21.5 30 28.5s26.333 10.5 43 10.5
c13.333 0 25 -1.83301 35 -5.5s19 -8.16699 27 -13.5v86c0 19.333 -2 35.333 -6 48s-11.667 19 -23 19c-10 0 -17.333 -5.5 -22 -16.5s-7 -28.5 -7 -52.5v-17h-92zM186 228.998c-7.33301 4.66699 -15.333 7 -24 7c-12.667 0 -21.5 -4.83301 -26.5 -14.5
s-7.5 -27.5 -7.5 -53.5v-32c0 -24 2.16699 -40.333 6.5 -49s11.5 -13 21.5 -13c13.333 0 23.333 8.33301 30 25v130zM267 675.998v-12c0 -32 -8.5 -57.667 -25.5 -77s-42.833 -29 -77.5 -29c-34 0 -59.667 9.66699 -77 29s-26 45 -26 77v12h78v-12
c0 -12 2.16699 -20.5 6.5 -25.5s10.5 -7.5 18.5 -7.5s14.167 2.5 18.5 7.5s6.5 13.5 6.5 25.5v12h78z" />
    <glyph glyph-name="Aogonek" unicode="&#x104;" horiz-adv-x="352" 
d="M10 0l108 664.999h117l107 -665h-28c-22 -15.333 -39.5 -32.833 -52.5 -52.5s-19.5 -41.167 -19.5 -64.5c0 -19.333 6 -29 18 -29c5.33301 0 9.66602 2 12.999 6s5 12 5 24v10h60v-10c0 -11.333 -1.5 -22.5 -4.5 -33.5s-7.66699 -20.833 -14 -29.5
s-14.666 -15.667 -24.999 -21s-22.5 -8 -36.5 -8c-27.333 0 -48 7.83301 -62 23.5s-21 36.167 -21 61.5c0 28 6 52.333 18 73s26.667 38.334 44 53.001l-16 118h-96l-17 -121h-98zM135 212.999h76l-37 284h-3z" />
    <glyph glyph-name="aogonek" unicode="&#x105;" horiz-adv-x="330" 
d="M36 356l0.00292969 15.9951c0 22 2.16699 42.5 6.5 61.5s11.5 35.333 21.5 49s22.667 24.334 38 32.001s34 11.5 56 11.5c45.333 0 78 -13.667 98 -41s30 -69 30 -125v-250c0 -10 2 -17.167 6 -21.5s11 -6.5 21 -6.5v-92c-14 0 -26.333 1 -37 3
c-18.667 -15.333 -33.5 -32.166 -44.5 -50.499s-16.5 -38.166 -16.5 -59.499c0 -10.667 1.66699 -18.167 5 -22.5s7.66602 -6.5 12.999 -6.5s9.66602 2 12.999 6s5 12 5 24v10h60v-10c0 -11.333 -1.5 -22.5 -4.5 -33.5s-7.66699 -20.833 -14 -29.5s-14.5 -15.667 -24.5 -21
s-22 -8 -36 -8c-28 0 -48.833 7.83301 -62.5 23.5s-20.5 36.167 -20.5 61.5c0 32 7.66699 59.167 23 81.5s33.666 40.833 54.999 55.5c-9.33301 9.33301 -17 22.333 -23 39c-8 -19.333 -18.333 -34.666 -31 -45.999s-28.667 -17 -48 -17c-28.667 0 -52 11.667 -70 35
s-27 59.333 -27 108v40c0 18.667 1.83301 36.334 5.5 53.001s9.5 31 17.5 43s18 21.5 30 28.5s26.333 10.5 43 10.5c13.333 0 25 -1.83301 35 -5.5s19 -8.16699 27 -13.5v86c0 19.333 -2 35.333 -6 48s-11.667 19 -23 19c-10 0 -17.333 -5.5 -22 -16.5s-7 -28.5 -7 -52.5
v-17h-92zM186.003 228.995c-7.33301 4.66699 -15.333 7 -24 7c-12.667 0 -21.5 -4.83301 -26.5 -14.5s-7.5 -27.5 -7.5 -53.5v-28c0 -24 2.16699 -41 6.5 -51s11.5 -15 21.5 -15c13.333 0 23.333 8.33301 30 25v130z" />
    <glyph glyph-name="Cacute" unicode="&#x106;" horiz-adv-x="330" 
d="M206 467l-0.000976562 43.998c0 18 -2.5 34.5 -7.5 49.5s-14.5 22.5 -28.5 22.5c-6.66699 0 -12.167 -2.16699 -16.5 -6.5s-7.83301 -10 -10.5 -17s-4.66699 -14.667 -6 -23s-2 -16.833 -2 -25.5v-357c0 -8 0.666992 -16.333 2 -25s3.33301 -16.5 6 -23.5
s6.16699 -12.667 10.5 -17s9.83301 -6.5 16.5 -6.5s12.334 2.16699 17.001 6.5s8.5 9.83301 11.5 16.5s5 14.334 6 23.001s1.5 17.334 1.5 26.001v44h101v-12c0 -69.333 -11.833 -119.333 -35.5 -150s-57.5 -46 -101.5 -46c-46 0 -80 14.667 -102 44s-33 72 -33 128v341
c0 56 11 98.667 33 128s56 44 102 44c45.333 0 79.5 -15 102.5 -45s34.5 -78.333 34.5 -145v-18h-101zM255.999 845.998l-58 -139h-82l39 139h101z" />
    <glyph glyph-name="cacute" unicode="&#x107;" horiz-adv-x="314" 
d="M191 313v62c0 21.333 -2 37.833 -6 49.5s-11.667 17.5 -23 17.5s-19 -6 -23 -18s-6 -28.333 -6 -49v-234c0 -20.667 2 -37 6 -49s11.667 -18 23 -18s19 5.83301 23 17.5s6 28.167 6 49.5v62h96v-47c0 -53.333 -9.5 -94.333 -28.5 -123s-51.5 -43 -97.5 -43
c-45.333 0 -78 14.5 -98 43.5s-30 70.5 -30 124.5v200c0 54 10 95.5 30 124.5s52.667 43.5 98 43.5c46 0 78.5 -14.333 97.5 -43s28.5 -69.667 28.5 -123v-47h-96zM247 691l-58 -139h-82l39 139h101z" />
    <glyph glyph-name="Ccircumflex" unicode="&#x108;" horiz-adv-x="330" 
d="M206 467l-0.000976562 43.998c0 18 -2.5 34.5 -7.5 49.5s-14.5 22.5 -28.5 22.5c-6.66699 0 -12.167 -2.16699 -16.5 -6.5s-7.83301 -10 -10.5 -17s-4.66699 -14.667 -6 -23s-2 -16.833 -2 -25.5v-357c0 -8 0.666992 -16.333 2 -25s3.33301 -16.5 6 -23.5
s6.16699 -12.667 10.5 -17s9.83301 -6.5 16.5 -6.5s12.334 2.16699 17.001 6.5s8.5 9.83301 11.5 16.5s5 14.334 6 23.001s1.5 17.334 1.5 26.001v44h101v-12c0 -69.333 -11.833 -119.333 -35.5 -150s-57.5 -46 -101.5 -46c-46 0 -80 14.667 -102 44s-33 72 -33 128v341
c0 56 11 98.667 33 128s56 44 102 44c45.333 0 79.5 -15 102.5 -45s34.5 -78.333 34.5 -145v-18h-101zM207.999 845.998l65 -139h-78l-28 74l-28 -74h-78l65 139h82z" />
    <glyph glyph-name="ccircumflex" unicode="&#x109;" horiz-adv-x="314" 
d="M191 313v62c0 21.333 -2 37.833 -6 49.5s-11.667 17.5 -23 17.5s-19 -6 -23 -18s-6 -28.333 -6 -49v-234c0 -20.667 2 -37 6 -49s11.667 -18 23 -18s19 5.83301 23 17.5s6 28.167 6 49.5v62h96v-47c0 -53.333 -9.5 -94.333 -28.5 -123s-51.5 -43 -97.5 -43
c-45.333 0 -78 14.5 -98 43.5s-30 70.5 -30 124.5v200c0 54 10 95.5 30 124.5s52.667 43.5 98 43.5c46 0 78.5 -14.333 97.5 -43s28.5 -69.667 28.5 -123v-47h-96zM203 691l65 -139h-78l-28 74l-28 -74h-78l65 139h82z" />
    <glyph glyph-name="Cdotaccent" unicode="&#x10a;" horiz-adv-x="330" 
d="M206 467l-0.000976562 43.998c0 18 -2.5 34.5 -7.5 49.5s-14.5 22.5 -28.5 22.5c-6.66699 0 -12.167 -2.16699 -16.5 -6.5s-7.83301 -10 -10.5 -17s-4.66699 -14.667 -6 -23s-2 -16.833 -2 -25.5v-357c0 -8 0.666992 -16.333 2 -25s3.33301 -16.5 6 -23.5
s6.16699 -12.667 10.5 -17s9.83301 -6.5 16.5 -6.5s12.334 2.16699 17.001 6.5s8.5 9.83301 11.5 16.5s5 14.334 6 23.001s1.5 17.334 1.5 26.001v44h101v-12c0 -69.333 -11.833 -119.333 -35.5 -150s-57.5 -46 -101.5 -46c-46 0 -80 14.667 -102 44s-33 72 -33 128v341
c0 56 11 98.667 33 128s56 44 102 44c45.333 0 79.5 -15 102.5 -45s34.5 -78.333 34.5 -145v-18h-101zM171.999 832.998c16.667 0 30.167 -5.16699 40.5 -15.5s15.5 -23.833 15.5 -40.5c0 -17.333 -5.16699 -31.166 -15.5 -41.499s-23.833 -15.5 -40.5 -15.5
s-30.167 5.16699 -40.5 15.5s-15.5 24.166 -15.5 41.499c0 16.667 5.16699 30.167 15.5 40.5s23.833 15.5 40.5 15.5z" />
    <glyph glyph-name="cdotaccent" unicode="&#x10b;" horiz-adv-x="314" 
d="M191 313v62c0 21.333 -2 37.833 -6 49.5s-11.667 17.5 -23 17.5s-19 -6 -23 -18s-6 -28.333 -6 -49v-234c0 -20.667 2 -37 6 -49s11.667 -18 23 -18s19 5.83301 23 17.5s6 28.167 6 49.5v62h96v-47c0 -53.333 -9.5 -94.333 -28.5 -123s-51.5 -43 -97.5 -43
c-45.333 0 -78 14.5 -98 43.5s-30 70.5 -30 124.5v200c0 54 10 95.5 30 124.5s52.667 43.5 98 43.5c46 0 78.5 -14.333 97.5 -43s28.5 -69.667 28.5 -123v-47h-96zM162 678c16.667 0 30.167 -5.16699 40.5 -15.5s15.5 -23.833 15.5 -40.5
c0 -17.333 -5.16699 -31.166 -15.5 -41.499s-23.833 -15.5 -40.5 -15.5s-30.167 5.16699 -40.5 15.5s-15.5 24.166 -15.5 41.499c0 16.667 5.16699 30.167 15.5 40.5s23.833 15.5 40.5 15.5z" />
    <glyph glyph-name="Ccaron" unicode="&#x10c;" horiz-adv-x="330" 
d="M206 467l-0.000976562 43.998c0 18 -2.5 34.5 -7.5 49.5s-14.5 22.5 -28.5 22.5c-6.66699 0 -12.167 -2.16699 -16.5 -6.5s-7.83301 -10 -10.5 -17s-4.66699 -14.667 -6 -23s-2 -16.833 -2 -25.5v-357c0 -8 0.666992 -16.333 2 -25s3.33301 -16.5 6 -23.5
s6.16699 -12.667 10.5 -17s9.83301 -6.5 16.5 -6.5s12.334 2.16699 17.001 6.5s8.5 9.83301 11.5 16.5s5 14.334 6 23.001s1.5 17.334 1.5 26.001v44h101v-12c0 -69.333 -11.833 -119.333 -35.5 -150s-57.5 -46 -101.5 -46c-46 0 -80 14.667 -102 44s-33 72 -33 128v341
c0 56 11 98.667 33 128s56 44 102 44c45.333 0 79.5 -15 102.5 -45s34.5 -78.333 34.5 -145v-18h-101zM127.999 706.998l-63 139h74l28 -75l28 75h74l-63 -139h-78z" />
    <glyph glyph-name="ccaron" unicode="&#x10d;" horiz-adv-x="314" 
d="M191 313v62c0 21.333 -2 37.833 -6 49.5s-11.667 17.5 -23 17.5s-19 -6 -23 -18s-6 -28.333 -6 -49v-234c0 -20.667 2 -37 6 -49s11.667 -18 23 -18s19 5.83301 23 17.5s6 28.167 6 49.5v62h96v-47c0 -53.333 -9.5 -94.333 -28.5 -123s-51.5 -43 -97.5 -43
c-45.333 0 -78 14.5 -98 43.5s-30 70.5 -30 124.5v200c0 54 10 95.5 30 124.5s52.667 43.5 98 43.5c46 0 78.5 -14.333 97.5 -43s28.5 -69.667 28.5 -123v-47h-96zM119 552l-63 139h74l28 -75l28 75h74l-63 -139h-78z" />
    <glyph glyph-name="Dcaron" unicode="&#x10e;" horiz-adv-x="354" 
d="M319 172c0 -56.667 -11.333 -99.5 -34 -128.5s-57 -43.5 -103 -43.5h-141v665h141c46 0 80.333 -14.5 103 -43.5s34 -71.833 34 -128.5v-321zM219 505c0 17.333 -3 32.499 -9 45.499s-16.333 19.5 -31 19.5h-38v-478h38c14 0 24.167 6.83301 30.5 20.5
s9.5 30.834 9.5 51.501v341zM138 706.999l-63 139h74l28 -75l28 75h74l-63 -139h-78z" />
    <glyph glyph-name="dcaron" unicode="&#x10f;" horiz-adv-x="404" 
d="M191 426c-2 3.33301 -5.00098 6.83301 -9.00098 10.5s-9.33301 5.5 -16 5.5c-12 0 -20.5 -5.83301 -25.5 -17.5s-7.5 -28.167 -7.5 -49.5v-239c0 -22 2.16699 -37.833 6.5 -47.5s11.833 -14.5 22.5 -14.5c12.667 0 22.334 8.33301 29.001 25v327zM290.999 110
c0 -10 2 -17.167 6 -21.5s11 -6.5 21 -6.5v-92c-16 0 -29.833 1 -41.5 3s-21.667 5.33301 -30 10s-15.5 11 -21.5 19s-11.333 18 -16 30c-7.33301 -18.667 -17.333 -33.667 -30 -45s-28.667 -17 -48 -17c-29.333 0 -53 12.167 -71 36.5s-27 61.833 -27 112.5v235
c0 54 8.33301 92.833 25 116.5s39.667 35.5 69 35.5c17.333 0 31.333 -3.83301 42 -11.5s18 -16.5 22 -26.5v222h92l8 -85v-515zM372.999 559h-52l16 142h76z" />
    <glyph glyph-name="Dcroat" unicode="&#x110;" horiz-adv-x="359" 
d="M9 378h37v287h141c46 0 80.333 -14.5 103 -43.5s34 -71.833 34 -128.5v-321c0 -56.667 -11.333 -99.5 -34 -128.5s-57 -43.5 -103 -43.5h-141v286h-37v92zM224 505c0 17.333 -3.16699 32.499 -9.5 45.499s-16.5 19.5 -30.5 19.5h-38v-192h41v-92h-41v-194h38
c14 0 24.167 6.83301 30.5 20.5s9.5 30.834 9.5 51.501v341z" />
    <glyph glyph-name="dcroat" unicode="&#x111;" horiz-adv-x="335" 
d="M85 632h106v78h92l7 -78h28v-59h-27v-463c0 -10 2 -17.167 6 -21.5s11 -6.5 21 -6.5v-92c-16 0 -29.833 1 -41.5 3s-21.667 5.33301 -30 10s-15.5 11 -21.5 19s-11.333 18 -16 30c-7.33301 -18.667 -17.333 -33.667 -30 -45s-28.667 -17 -48 -17
c-29.333 0 -53 12.167 -71 36.5s-27 61.833 -27 112.5v235c0 54 8.33301 92.833 25 116.5s39.667 35.5 69 35.5c17.333 0 31.333 -3.83301 42 -11.5s18 -16.5 22 -26.5v85h-106v59zM191 426c-2 3.33301 -5.00098 6.83301 -9.00098 10.5s-9.33301 5.5 -16 5.5
c-12 0 -20.5 -5.83301 -25.5 -17.5s-7.5 -28.167 -7.5 -49.5v-239c0 -22 2.16699 -37.833 6.5 -47.5s11.833 -14.5 22.5 -14.5c12.667 0 22.334 8.33301 29.001 25v327z" />
    <glyph glyph-name="Emacron" unicode="&#x112;" horiz-adv-x="297" 
d="M276 570h-135v-168h110v-92h-110v-218h135v-92h-235v665h235v-95zM57 820h192v-84h-192v84z" />
    <glyph glyph-name="emacron" unicode="&#x113;" horiz-adv-x="323" 
d="M133 304h58v71c0 20.667 -2 37 -6 49s-11.667 18 -23 18s-19 -6 -23 -18s-6 -28.333 -6 -49v-71zM191 168l100 -0.000976562v-16c0 -53.333 -10.333 -93.666 -31 -120.999s-53.667 -41 -99 -41c-47.333 0 -80.5 14.5 -99.5 43.5s-28.5 70.5 -28.5 124.5v200
c0 54 10 95.5 30 124.5s52.667 43.5 98 43.5c46 0 79.167 -14.5 99.5 -43.5s30.5 -70.5 30.5 -124.5v-134h-158v-83c0 -20.667 2 -37 6 -49s11.667 -18 23 -18s19 5.83301 23 17.5s6 28.167 6 49.5v27zM65 664.999h192v-84h-192v84z" />
    <glyph glyph-name="Ebreve" unicode="&#x114;" horiz-adv-x="297" 
d="M276 570h-135v-168h110v-92h-110v-218h135v-92h-235v665h235v-95zM255 831v-12c0 -32 -8.5 -57.667 -25.5 -77s-42.833 -29 -77.5 -29c-34 0 -59.667 9.66699 -77 29s-26 45 -26 77v12h78v-12c0 -12 2.16699 -20.5 6.5 -25.5s10.5 -7.5 18.5 -7.5s14.167 2.5 18.5 7.5
s6.5 13.5 6.5 25.5v12h78z" />
    <glyph glyph-name="ebreve" unicode="&#x115;" horiz-adv-x="323" 
d="M133 304h58v71c0 20.667 -2 37 -6 49s-11.667 18 -23 18s-19 -6 -23 -18s-6 -28.333 -6 -49v-71zM191 168l100 -0.000976562v-16c0 -53.333 -10.333 -93.666 -31 -120.999s-53.667 -41 -99 -41c-47.333 0 -80.5 14.5 -99.5 43.5s-28.5 70.5 -28.5 124.5v200
c0 54 10 95.5 30 124.5s52.667 43.5 98 43.5c46 0 79.167 -14.5 99.5 -43.5s30.5 -70.5 30.5 -124.5v-134h-158v-83c0 -20.667 2 -37 6 -49s11.667 -18 23 -18s19 5.83301 23 17.5s6 28.167 6 49.5v27zM263 675.999v-12c0 -32 -8.5 -57.667 -25.5 -77s-42.833 -29 -77.5 -29
c-34 0 -59.667 9.66699 -77 29s-26 45 -26 77v12h78v-12c0 -12 2.16699 -20.5 6.5 -25.5s10.5 -7.5 18.5 -7.5s14.167 2.5 18.5 7.5s6.5 13.5 6.5 25.5v12h78z" />
    <glyph glyph-name="Edotaccent" unicode="&#x116;" horiz-adv-x="297" 
d="M276 570h-135v-168h110v-92h-110v-218h135v-92h-235v665h235v-95zM153 833c16.667 0 30.167 -5.16699 40.5 -15.5s15.5 -23.833 15.5 -40.5c0 -17.333 -5.16699 -31.166 -15.5 -41.499s-23.833 -15.5 -40.5 -15.5s-30.167 5.16699 -40.5 15.5s-15.5 24.166 -15.5 41.499
c0 16.667 5.16699 30.167 15.5 40.5s23.833 15.5 40.5 15.5z" />
    <glyph glyph-name="edotaccent" unicode="&#x117;" horiz-adv-x="323" 
d="M133 304h58v71c0 20.667 -2 37 -6 49s-11.667 18 -23 18s-19 -6 -23 -18s-6 -28.333 -6 -49v-71zM191 168l100 -0.000976562v-16c0 -53.333 -10.333 -93.666 -31 -120.999s-53.667 -41 -99 -41c-47.333 0 -80.5 14.5 -99.5 43.5s-28.5 70.5 -28.5 124.5v200
c0 54 10 95.5 30 124.5s52.667 43.5 98 43.5c46 0 79.167 -14.5 99.5 -43.5s30.5 -70.5 30.5 -124.5v-134h-158v-83c0 -20.667 2 -37 6 -49s11.667 -18 23 -18s19 5.83301 23 17.5s6 28.167 6 49.5v27zM161 677.999c16.667 0 30.167 -5.16699 40.5 -15.5
s15.5 -23.833 15.5 -40.5c0 -17.333 -5.16699 -31.166 -15.5 -41.499s-23.833 -15.5 -40.5 -15.5s-30.167 5.16699 -40.5 15.5s-15.5 24.166 -15.5 41.499c0 16.667 5.16699 30.167 15.5 40.5s23.833 15.5 40.5 15.5z" />
    <glyph glyph-name="Eogonek" unicode="&#x118;" horiz-adv-x="297" 
d="M276 570h-135v-168h110v-92h-110v-218h135v-92h-24c-22 -15.333 -39.5 -32.833 -52.5 -52.5s-19.5 -41.167 -19.5 -64.5c0 -19.333 6 -29 18 -29c5.33301 0 9.66602 2 12.999 6s5 12 5 24v10h60v-10c0 -11.333 -1.5 -22.5 -4.5 -33.5s-7.66699 -20.833 -14 -29.5
s-14.666 -15.667 -24.999 -21s-22.5 -8 -36.5 -8c-27.333 0 -48 7.83301 -62 23.5s-21 36.167 -21 61.5c0 27.333 5.5 51 16.5 71s25.167 37.333 42.5 52h-131v665h235v-95z" />
    <glyph glyph-name="eogonek" unicode="&#x119;" horiz-adv-x="323" 
d="M191 168h100.001v-16c0 -34.667 -4.66699 -63.834 -14 -87.501s-22.666 -43.167 -39.999 -58.5c-20 -18 -35.667 -37.167 -47 -57.5s-17 -42.166 -17 -65.499c0 -10.667 1.66699 -18.167 5 -22.5s7.66602 -6.5 12.999 -6.5s9.66602 2 12.999 6s5 12 5 24v10h60v-10
c0 -11.333 -1.5 -22.5 -4.5 -33.5s-7.66699 -20.833 -14 -29.5s-14.5 -15.667 -24.5 -21s-22 -8 -36 -8c-28 0 -48.833 7.83301 -62.5 23.5s-20.5 36.167 -20.5 61.5c0 24.667 4.5 46.167 13.5 64.5s20.5 34.5 34.5 48.5c-45.333 1.33301 -77 16.333 -95 45
s-27 69.667 -27 123v200c0 54 10 95.5 30 124.5s52.667 43.5 98 43.5c46 0 79.167 -14.5 99.5 -43.5s30.5 -70.5 30.5 -124.5v-134h-158v-83c0 -20.667 2 -37 6 -49s11.667 -18 23 -18s19 5.83301 23 17.5s6 28.167 6 49.5v27zM133.001 304h58v71c0 20.667 -2 37 -6 49
s-11.667 18 -23 18s-19 -6 -23 -18s-6 -28.333 -6 -49v-71z" />
    <glyph glyph-name="Ecaron" unicode="&#x11a;" horiz-adv-x="297" 
d="M276 570h-135v-168h110v-92h-110v-218h135v-92h-235v665h235v-95zM114 707l-63 139h74l28 -75l28 75h74l-63 -139h-78z" />
    <glyph glyph-name="ecaron" unicode="&#x11b;" horiz-adv-x="323" 
d="M133 304h58v71c0 20.667 -2 37 -6 49s-11.667 18 -23 18s-19 -6 -23 -18s-6 -28.333 -6 -49v-71zM191 168l100 -0.000976562v-16c0 -53.333 -10.333 -93.666 -31 -120.999s-53.667 -41 -99 -41c-47.333 0 -80.5 14.5 -99.5 43.5s-28.5 70.5 -28.5 124.5v200
c0 54 10 95.5 30 124.5s52.667 43.5 98 43.5c46 0 79.167 -14.5 99.5 -43.5s30.5 -70.5 30.5 -124.5v-134h-158v-83c0 -20.667 2 -37 6 -49s11.667 -18 23 -18s19 5.83301 23 17.5s6 28.167 6 49.5v27zM122 551.999l-63 139h74l28 -75l28 75h74l-63 -139h-78z" />
    <glyph glyph-name="Gcircumflex" unicode="&#x11c;" horiz-adv-x="343" 
d="M173 293l-0.00195312 92.002h139v-223c0 -56 -11.833 -98.667 -35.5 -128s-58.5 -44 -104.5 -44s-80.667 14.667 -104 44s-35 72 -35 128v341c0 56 11.5 98.667 34.5 128s57.5 44 103.5 44c46.667 0 81.834 -15.167 105.501 -45.5s35.5 -79.5 35.5 -147.5v-15h-100v44
c0 18 -2.83301 34.5 -8.5 49.5s-16.167 22.5 -31.5 22.5s-25.666 -7.33301 -30.999 -22s-8 -31.334 -8 -50.001v-356c0 -8.66699 0.5 -17.334 1.5 -26.001s3 -16.5 6 -23.5s7 -12.667 12 -17s11.167 -6.5 18.5 -6.5c15.333 0 26 7.5 32 22.5s9 31.833 9 50.5v138h-39z
M212.998 846.002l65 -139h-78l-28 74l-28 -74h-78l65 139h82z" />
    <glyph glyph-name="gcircumflex" unicode="&#x11d;" horiz-adv-x="329" 
d="M191 424c-2.66699 5.33301 -6.33105 9.66602 -10.998 12.999s-10 5 -16 5c-20.667 0 -31 -22.333 -31 -67v-234c0 -20.667 2 -37 6 -49s11.667 -18 23 -18c7.33301 0 13.166 2.33301 17.499 7s8.16602 11.334 11.499 20.001v323zM133.003 -53l0.000976562 -9
c0 -42.667 9.66699 -64 29 -64c11.333 0 19 5.83301 23 17.5s6 28.167 6 49.5v102c-6 -16.667 -14.5 -29.667 -25.5 -39s-25.167 -14 -42.5 -14c-31.333 0 -54.166 12.333 -68.499 37s-21.5 68.334 -21.5 131.001v200c0 54 9.16699 95.5 27.5 124.5s44.5 43.5 78.5 43.5
c22.667 0 39.667 -4.83301 51 -14.5s20.666 -21.167 27.999 -34.5l9 39h64v-558c0 -54.667 -10.5 -96.334 -31.5 -125.001s-53.5 -43 -97.5 -43c-40.667 0 -72.334 11.667 -95.001 35s-34 60 -34 110v12h100zM206.004 691l65 -139h-78l-28 74l-28 -74h-78l65 139h82z" />
    <glyph glyph-name="Gbreve" unicode="&#x11e;" horiz-adv-x="343" 
d="M173 293l-0.00195312 92.002h139v-223c0 -56 -11.833 -98.667 -35.5 -128s-58.5 -44 -104.5 -44s-80.667 14.667 -104 44s-35 72 -35 128v341c0 56 11.5 98.667 34.5 128s57.5 44 103.5 44c46.667 0 81.834 -15.167 105.501 -45.5s35.5 -79.5 35.5 -147.5v-15h-100v44
c0 18 -2.83301 34.5 -8.5 49.5s-16.167 22.5 -31.5 22.5s-25.666 -7.33301 -30.999 -22s-8 -31.334 -8 -50.001v-356c0 -8.66699 0.5 -17.334 1.5 -26.001s3 -16.5 6 -23.5s7 -12.667 12 -17s11.167 -6.5 18.5 -6.5c15.333 0 26 7.5 32 22.5s9 31.833 9 50.5v138h-39z
M273.998 831.002v-12c0 -32 -8.5 -57.667 -25.5 -77s-42.833 -29 -77.5 -29c-34 0 -59.667 9.66699 -77 29s-26 45 -26 77v12h78v-12c0 -12 2.16699 -20.5 6.5 -25.5s10.5 -7.5 18.5 -7.5s14.167 2.5 18.5 7.5s6.5 13.5 6.5 25.5v12h78z" />
    <glyph glyph-name="gbreve" unicode="&#x11f;" horiz-adv-x="329" 
d="M191 424c-2.66699 5.33301 -6.33105 9.66602 -10.998 12.999s-10 5 -16 5c-20.667 0 -31 -22.333 -31 -67v-234c0 -20.667 2 -37 6 -49s11.667 -18 23 -18c7.33301 0 13.166 2.33301 17.499 7s8.16602 11.334 11.499 20.001v323zM133.003 -53l0.000976562 -9
c0 -42.667 9.66699 -64 29 -64c11.333 0 19 5.83301 23 17.5s6 28.167 6 49.5v102c-6 -16.667 -14.5 -29.667 -25.5 -39s-25.167 -14 -42.5 -14c-31.333 0 -54.166 12.333 -68.499 37s-21.5 68.334 -21.5 131.001v200c0 54 9.16699 95.5 27.5 124.5s44.5 43.5 78.5 43.5
c22.667 0 39.667 -4.83301 51 -14.5s20.666 -21.167 27.999 -34.5l9 39h64v-558c0 -54.667 -10.5 -96.334 -31.5 -125.001s-53.5 -43 -97.5 -43c-40.667 0 -72.334 11.667 -95.001 35s-34 60 -34 110v12h100zM267.004 676v-12c0 -32 -8.5 -57.667 -25.5 -77
s-42.833 -29 -77.5 -29c-34 0 -59.667 9.66699 -77 29s-26 45 -26 77v12h78v-12c0 -12 2.16699 -20.5 6.5 -25.5s10.5 -7.5 18.5 -7.5s14.167 2.5 18.5 7.5s6.5 13.5 6.5 25.5v12h78z" />
    <glyph glyph-name="Gdotaccent" unicode="&#x120;" horiz-adv-x="343" 
d="M173 293l-0.00195312 92.002h139v-223c0 -56 -11.833 -98.667 -35.5 -128s-58.5 -44 -104.5 -44s-80.667 14.667 -104 44s-35 72 -35 128v341c0 56 11.5 98.667 34.5 128s57.5 44 103.5 44c46.667 0 81.834 -15.167 105.501 -45.5s35.5 -79.5 35.5 -147.5v-15h-100v44
c0 18 -2.83301 34.5 -8.5 49.5s-16.167 22.5 -31.5 22.5s-25.666 -7.33301 -30.999 -22s-8 -31.334 -8 -50.001v-356c0 -8.66699 0.5 -17.334 1.5 -26.001s3 -16.5 6 -23.5s7 -12.667 12 -17s11.167 -6.5 18.5 -6.5c15.333 0 26 7.5 32 22.5s9 31.833 9 50.5v138h-39z
M171.998 833.002c16.667 0 30.167 -5.16699 40.5 -15.5s15.5 -23.833 15.5 -40.5c0 -17.333 -5.16699 -31.166 -15.5 -41.499s-23.833 -15.5 -40.5 -15.5s-30.167 5.16699 -40.5 15.5s-15.5 24.166 -15.5 41.499c0 16.667 5.16699 30.167 15.5 40.5s23.833 15.5 40.5 15.5z
" />
    <glyph glyph-name="gdotaccent" unicode="&#x121;" horiz-adv-x="329" 
d="M191 424c-2.66699 5.33301 -6.33105 9.66602 -10.998 12.999s-10 5 -16 5c-20.667 0 -31 -22.333 -31 -67v-234c0 -20.667 2 -37 6 -49s11.667 -18 23 -18c7.33301 0 13.166 2.33301 17.499 7s8.16602 11.334 11.499 20.001v323zM133.003 -53l0.000976562 -9
c0 -42.667 9.66699 -64 29 -64c11.333 0 19 5.83301 23 17.5s6 28.167 6 49.5v102c-6 -16.667 -14.5 -29.667 -25.5 -39s-25.167 -14 -42.5 -14c-31.333 0 -54.166 12.333 -68.499 37s-21.5 68.334 -21.5 131.001v200c0 54 9.16699 95.5 27.5 124.5s44.5 43.5 78.5 43.5
c22.667 0 39.667 -4.83301 51 -14.5s20.666 -21.167 27.999 -34.5l9 39h64v-558c0 -54.667 -10.5 -96.334 -31.5 -125.001s-53.5 -43 -97.5 -43c-40.667 0 -72.334 11.667 -95.001 35s-34 60 -34 110v12h100zM165.004 678c16.667 0 30.167 -5.16699 40.5 -15.5
s15.5 -23.833 15.5 -40.5c0 -17.333 -5.16699 -31.166 -15.5 -41.499s-23.833 -15.5 -40.5 -15.5s-30.167 5.16699 -40.5 15.5s-15.5 24.166 -15.5 41.499c0 16.667 5.16699 30.167 15.5 40.5s23.833 15.5 40.5 15.5z" />
    <glyph glyph-name="Gcommaaccent" unicode="&#x122;" horiz-adv-x="343" 
d="M173 293l-0.00195312 92.002h139v-223c0 -56 -11.833 -98.667 -35.5 -128s-58.5 -44 -104.5 -44s-80.667 14.667 -104 44s-35 72 -35 128v341c0 56 11.5 98.667 34.5 128s57.5 44 103.5 44c46.667 0 81.834 -15.167 105.501 -45.5s35.5 -79.5 35.5 -147.5v-15h-100v44
c0 18 -2.83301 34.5 -8.5 49.5s-16.167 22.5 -31.5 22.5s-25.666 -7.33301 -30.999 -22s-8 -31.334 -8 -50.001v-356c0 -8.66699 0.5 -17.334 1.5 -26.001s3 -16.5 6 -23.5s7 -12.667 12 -17s11.167 -6.5 18.5 -6.5c15.333 0 26 7.5 32 22.5s9 31.833 9 50.5v138h-39z
M178.998 -173.998h-73l29 134h92z" />
    <glyph glyph-name="gcommaaccent" unicode="&#x123;" horiz-adv-x="329" 
d="M191 424c-2.66699 5.33301 -6.33105 9.66602 -10.998 12.999s-10 5 -16 5c-20.667 0 -31 -22.333 -31 -67v-234c0 -20.667 2 -37 6 -49s11.667 -18 23 -18c7.33301 0 13.166 2.33301 17.499 7s8.16602 11.334 11.499 20.001v323zM133.003 -53l0.000976562 -9
c0 -42.667 9.66699 -64 29 -64c11.333 0 19 5.83301 23 17.5s6 28.167 6 49.5v102c-6 -16.667 -14.5 -29.667 -25.5 -39s-25.167 -14 -42.5 -14c-31.333 0 -54.166 12.333 -68.499 37s-21.5 68.334 -21.5 131.001v200c0 54 9.16699 95.5 27.5 124.5s44.5 43.5 78.5 43.5
c22.667 0 39.667 -4.83301 51 -14.5s20.666 -21.167 27.999 -34.5l9 39h64v-558c0 -54.667 -10.5 -96.334 -31.5 -125.001s-53.5 -43 -97.5 -43c-40.667 0 -72.334 11.667 -95.001 35s-34 60 -34 110v12h100zM170.004 689h66l-13 -134h-93z" />
    <glyph glyph-name="Hcircumflex" unicode="&#x124;" horiz-adv-x="366" 
d="M225 0v304h-84v-304h-100v665h100v-269h84v269h100v-665h-100zM224 846l65 -139h-78l-28 74l-28 -74h-78l65 139h82z" />
    <glyph glyph-name="hcircumflex" unicode="&#x125;" horiz-adv-x="335" 
d="M141 474c6.66699 12.667 15.5 24.5 26.5 35.5s25.5 16.5 43.5 16.5c31.333 0 53.5 -13.167 66.5 -39.5s19.5 -66.5 19.5 -120.5v-366h-92l-8 85v290c0 21.333 -2 37.833 -6 49.5s-11.333 17.5 -22 17.5c-8 0 -14 -3 -18 -9s-7.33301 -13.333 -10 -22v-411h-100v710h89
l11 -85v-151zM188 879l65 -139h-78l-28 74l-28 -74h-78l65 139h82z" />
    <glyph glyph-name="Hbar" unicode="&#x126;" horiz-adv-x="366" 
d="M225 0v304h-84v-304h-100v665h100v-109h84v109h100v-665h-100zM225 396v77h-84v-77h84z" />
    <glyph glyph-name="hbar" unicode="&#x127;" horiz-adv-x="335" 
d="M11 632h30v78h89l10 -78h112v-59h-111v-99c6.66699 12.667 15.5 24.5 26.5 35.5s25.5 16.5 43.5 16.5c31.333 0 53.5 -13.167 66.5 -39.5s19.5 -66.5 19.5 -120.5v-366h-92l-8 85v290c0 21.333 -2 37.833 -6 49.5s-11.333 17.5 -22 17.5c-8 0 -14 -3 -18 -9
s-7.33301 -13.333 -10 -22v-411h-100v573h-30v59z" />
    <glyph glyph-name="Itilde" unicode="&#x128;" horiz-adv-x="182" 
d="M41 0v665h100v-665h-100zM-29 719c0 39.333 7.16504 67.5 21.498 84.5s30.833 25.5 49.5 25.5c11.333 0 21 -1.66699 29 -5s14.833 -6.83301 20.5 -10.5l16 -10.5c5 -3.33301 10.167 -5 15.5 -5c4.66699 0 8.33398 2 11.001 6s4 11 4 21v7h73v-7
c0 -40 -6.66699 -68.667 -20 -86s-29.666 -26 -48.999 -26c-10 0 -19 1.83301 -27 5.5s-15.167 7.66699 -21.5 12l-17.5 12c-5.33301 3.66699 -10.333 5.5 -15 5.5c-5.33301 0 -9.5 -2 -12.5 -6s-4.5 -11.667 -4.5 -23v-6h-73v6z" />
    <glyph glyph-name="itilde" unicode="&#x129;" horiz-adv-x="182" 
d="M41 516h91l11 -85v-431h-102v516zM-29 564c0 39.333 7.16504 67.5 21.498 84.5s30.833 25.5 49.5 25.5c11.333 0 21 -1.66699 29 -5s14.833 -6.83301 20.5 -10.5l16 -10.5c5 -3.33301 10.167 -5 15.5 -5c4.66699 0 8.33398 2 11.001 6s4 11 4 21v7h73v-7
c0 -40 -6.66699 -68.667 -20 -86s-29.666 -26 -48.999 -26c-10 0 -19 1.83301 -27 5.5s-15.167 7.66699 -21.5 12l-17.5 12c-5.33301 3.66699 -10.333 5.5 -15 5.5c-5.33301 0 -9.5 -2 -12.5 -6s-4.5 -11.667 -4.5 -23v-6h-73v6z" />
    <glyph glyph-name="Imacron" unicode="&#x12a;" horiz-adv-x="182" 
d="M41 0v665h100v-665h-100zM-5 820h192v-84h-192v84z" />
    <glyph glyph-name="imacron" unicode="&#x12b;" horiz-adv-x="182" 
d="M41 516h91l11 -85v-431h-102v516zM-5 665h192v-84h-192v84z" />
    <glyph glyph-name="Ibreve" unicode="&#x12c;" horiz-adv-x="182" 
d="M41 0v665h100v-665h-100zM193 831v-12c0 -32 -8.5 -57.667 -25.5 -77s-42.833 -29 -77.5 -29c-34 0 -59.667 9.66699 -77 29s-26 45 -26 77v12h78v-12c0 -12 2.16699 -20.5 6.5 -25.5s10.5 -7.5 18.5 -7.5s14.167 2.5 18.5 7.5s6.5 13.5 6.5 25.5v12h78z" />
    <glyph glyph-name="ibreve" unicode="&#x12d;" horiz-adv-x="182" 
d="M41 516h91l11 -85v-431h-102v516zM193 676v-12c0 -32 -8.5 -57.667 -25.5 -77s-42.833 -29 -77.5 -29c-34 0 -59.667 9.66699 -77 29s-26 45 -26 77v12h78v-12c0 -12 2.16699 -20.5 6.5 -25.5s10.5 -7.5 18.5 -7.5s14.167 2.5 18.5 7.5s6.5 13.5 6.5 25.5v12h78z" />
    <glyph glyph-name="Iogonek" unicode="&#x12e;" horiz-adv-x="182" 
d="M117 0c-21.333 -15.333 -38.666 -32.834 -51.999 -52.501s-20 -41.167 -20 -64.5c0 -19.333 6 -29 18 -29c5.33301 0 9.66602 2 12.999 6s5 12 5 24v10h60v-10c0 -11.333 -1.5 -22.5 -4.5 -33.5s-7.66699 -20.833 -14 -29.5s-14.5 -15.667 -24.5 -21s-22.333 -8 -37 -8
c-27.333 0 -47.833 7.83301 -61.5 23.5s-20.5 36.167 -20.5 61.5c0 28 5.83301 52.333 17.5 73s26.5 38.334 44.5 53.001v662h100v-665h-24z" />
    <glyph glyph-name="iogonek" unicode="&#x12f;" horiz-adv-x="180" 
d="M117 0c-21.333 -15.333 -38.666 -32.834 -51.999 -52.501s-20 -41.167 -20 -64.5c0 -19.333 6 -29 18 -29c5.33301 0 9.66602 2 12.999 6s5 12 5 24v10h60v-10c0 -11.333 -1.5 -22.5 -4.5 -33.5s-7.66699 -20.833 -14 -29.5s-14.5 -15.667 -24.5 -21s-22.333 -8 -37 -8
c-27.333 0 -47.833 7.83301 -61.5 23.5s-20.5 36.167 -20.5 61.5c0 28 5.83301 52.333 17.5 73s26.5 38.334 44.5 53.001v513h89l11 -85v-431h-24zM91 669.999c16.667 0 30.167 -5.16699 40.5 -15.5s15.5 -23.833 15.5 -40.5c0 -17.333 -5.16699 -31 -15.5 -41
s-23.833 -15 -40.5 -15s-30.167 5 -40.5 15s-15.5 23.667 -15.5 41c0 16.667 5.16699 30.167 15.5 40.5s23.833 15.5 40.5 15.5z" />
    <glyph glyph-name="Idotaccent" unicode="&#x130;" horiz-adv-x="182" 
d="M41 0v665h100v-665h-100zM91 833c16.667 0 30.167 -5.16699 40.5 -15.5s15.5 -23.833 15.5 -40.5c0 -17.333 -5.16699 -31.166 -15.5 -41.499s-23.833 -15.5 -40.5 -15.5s-30.167 5.16699 -40.5 15.5s-15.5 24.166 -15.5 41.499c0 16.667 5.16699 30.167 15.5 40.5
s23.833 15.5 40.5 15.5z" />
    <glyph glyph-name="dotlessi" unicode="&#x131;" horiz-adv-x="182" 
d="M41 516h91l11 -85v-431h-102v516z" />
    <glyph glyph-name="IJ" unicode="&#x132;" horiz-adv-x="411" 
d="M41 0v665h100v-665h-100zM203 81c14 0.666992 25.502 3.16602 34.502 7.49902s16.167 10 21.5 17s9.16602 14.667 11.499 23s3.5 16.833 3.5 25.5v511h100v-503c0 -53.333 -14.333 -94.666 -43 -123.999s-71.334 -46 -128.001 -50v93z" />
    <glyph glyph-name="ij" unicode="&#x133;" horiz-adv-x="354" 
d="M41 516h89l11 -85v-431h-100v516zM91 670c16.667 0 30.167 -5.16699 40.5 -15.5s15.5 -23.833 15.5 -40.5c0 -17.333 -5.16699 -31 -15.5 -41s-23.833 -15 -40.5 -15s-30.167 5 -40.5 15s-15.5 23.667 -15.5 41c0 16.667 5.16699 30.167 15.5 40.5s23.833 15.5 40.5 15.5
zM302 516l11 -85.001v-456c0 -36 -3.5 -65.833 -10.5 -89.5s-17 -42.5 -30 -56.5s-28.333 -24 -46 -30s-37.5 -9 -59.5 -9v92c18.667 0 31 6.83301 37 20.5s9 34.834 9 63.501v550h89zM263 669.999c16.667 0 30.167 -5.16699 40.5 -15.5s15.5 -23.833 15.5 -40.5
c0 -17.333 -5.16699 -31 -15.5 -41s-23.833 -15 -40.5 -15s-30.167 5 -40.5 15s-15.5 23.667 -15.5 41c0 16.667 5.16699 30.167 15.5 40.5s23.833 15.5 40.5 15.5z" />
    <glyph glyph-name="Jcircumflex" unicode="&#x134;" horiz-adv-x="229" 
d="M21 81c14 0.666992 25.502 3.16602 34.502 7.49902s16.167 10 21.5 17s9.16602 14.667 11.499 23s3.5 16.833 3.5 25.5v511h100v-503c0 -53.333 -14.333 -94.666 -43 -123.999s-71.334 -46 -128.001 -50v93zM183.002 845.999l65 -139h-78l-28 74l-28 -74h-78l65 139h82z
" />
    <glyph glyph-name="jcircumflex" unicode="&#x135;" horiz-adv-x="184" 
d="M130 516l11 -85.001v-456c0 -36 -3.5 -65.833 -10.5 -89.5s-17 -42.5 -30 -56.5s-28.333 -24 -46 -30s-37.5 -9 -59.5 -9v92c18.667 0 31 6.83301 37 20.5s9 34.834 9 63.501v550h89zM134 690.999l65 -139h-78l-28 74l-28 -74h-78l65 139h82z" />
    <glyph glyph-name="Kcommaaccent" unicode="&#x136;" horiz-adv-x="360" 
d="M230 371l123 -371h-106l-85 273l-21 -49v-224h-100v665h100v-285l100 285h105zM187 -174h-73l29 134h92z" />
    <glyph glyph-name="kcommaaccent" unicode="&#x137;" horiz-adv-x="330" 
d="M231 332l82 -332h-100l-50 243l-22 -49v-194h-100v710h89l11 -85v-320l79 211h98zM176 -174h-73l29 134h92z" />
    <glyph glyph-name="Lacute" unicode="&#x139;" horiz-adv-x="308" 
d="M141 665v-573h151v-92h-251v665h100zM203 846l-58 -139h-82l39 139h101z" />
    <glyph glyph-name="lacute" unicode="&#x13a;" horiz-adv-x="180" 
d="M141 625v-625h-92l-8 85v625h89zM183 879l-58 -139h-82l39 139h101z" />
    <glyph glyph-name="Lcommaaccent" unicode="&#x13b;" horiz-adv-x="308" 
d="M141 665v-573h151v-92h-251v665h100zM165 -174h-73l29 134h92z" />
    <glyph glyph-name="lcommaaccent" unicode="&#x13c;" horiz-adv-x="180" 
d="M141 625v-625h-92l-8 85v625h89zM97 -174h-73l29 134h92z" />
    <glyph glyph-name="Lcaron" unicode="&#x13d;" horiz-adv-x="308" 
d="M141 665v-573h151v-92h-251v665h100zM237 539h-52l16 142h76z" />
    <glyph glyph-name="lcaron" unicode="&#x13e;" horiz-adv-x="249" 
d="M141 625v-625h-92l-8 85v625h89zM218 559h-52l16 142h76z" />
    <glyph glyph-name="Ldot" unicode="&#x13f;" horiz-adv-x="308" 
d="M141 665v-573h151v-92h-251v665h100zM176 355c0 18 5.66699 32.667 17 44s26 17 44 17s32.667 -5.66699 44 -17s17 -26 17 -44s-5.66699 -32.667 -17 -44s-26 -17 -44 -17s-32.667 5.66699 -44 17s-17 26 -17 44z" />
    <glyph glyph-name="ldot" unicode="&#x140;" horiz-adv-x="291" 
d="M141 625v-625h-92l-8 85v625h89zM165 355c0 18 5.66699 32.667 17 44s26 17 44 17s32.667 -5.66699 44 -17s17 -26 17 -44s-5.66699 -32.667 -17 -44s-26 -17 -44 -17s-32.667 5.66699 -44 17s-17 26 -17 44z" />
    <glyph glyph-name="Lslash" unicode="&#x141;" horiz-adv-x="317" 
d="M-1 307l52 30v328h100v-271l121 70v-101l-121 -70v-201h151v-92h-251v235l-52 -30v102z" />
    <glyph glyph-name="lslash" unicode="&#x142;" horiz-adv-x="190" 
d="M4 363l42 24v323h89l11 -85v-179l45 27v-100l-45 -27v-346h-92l-8 85v202l-42 -24v100z" />
    <glyph glyph-name="Nacute" unicode="&#x143;" horiz-adv-x="372" 
d="M331 0h-100l-106 443h-3v-443h-81v665h100l106 -463h3v463h81v-665zM275 846l-58 -139h-82l39 139h101z" />
    <glyph glyph-name="nacute" unicode="&#x144;" horiz-adv-x="335" 
d="M135 473c5.33301 14.667 14.333 27.167 27 37.5s29 15.5 49 15.5c31.333 0 53.5 -13.167 66.5 -39.5s19.5 -66.5 19.5 -120.5v-366h-91l-9 85v290c0 21.333 -2 37.833 -6 49.5s-11.333 17.5 -22 17.5c-8 0 -14 -3 -18 -9s-7.33301 -13.333 -10 -22v-411h-100v516h85z
M257 691l-58 -139h-82l39 139h101z" />
    <glyph glyph-name="Ncommaaccent" unicode="&#x145;" horiz-adv-x="372" 
d="M331 0h-100l-106 443h-3v-443h-81v665h100l106 -463h3v463h81v-665zM193 -174h-73l29 134h92z" />
    <glyph glyph-name="ncommaaccent" unicode="&#x146;" horiz-adv-x="335" 
d="M135 473c5.33301 14.667 14.333 27.167 27 37.5s29 15.5 49 15.5c31.333 0 53.5 -13.167 66.5 -39.5s19.5 -66.5 19.5 -120.5v-366h-91l-9 85v290c0 21.333 -2 37.833 -6 49.5s-11.333 17.5 -22 17.5c-8 0 -14 -3 -18 -9s-7.33301 -13.333 -10 -22v-411h-100v516h85z
M175 -174h-73l29 134h92z" />
    <glyph glyph-name="Ncaron" unicode="&#x147;" horiz-adv-x="372" 
d="M331 0h-100l-106 443h-3v-443h-81v665h100l106 -463h3v463h81v-665zM147 707l-63 139h74l28 -75l28 75h74l-63 -139h-78z" />
    <glyph glyph-name="ncaron" unicode="&#x148;" horiz-adv-x="335" 
d="M135 473c5.33301 14.667 14.333 27.167 27 37.5s29 15.5 49 15.5c31.333 0 53.5 -13.167 66.5 -39.5s19.5 -66.5 19.5 -120.5v-366h-91l-9 85v290c0 21.333 -2 37.833 -6 49.5s-11.333 17.5 -22 17.5c-8 0 -14 -3 -18 -9s-7.33301 -13.333 -10 -22v-411h-100v516h85z
M129 552l-63 139h74l28 -75l28 75h74l-63 -139h-78z" />
    <glyph glyph-name="Omacron" unicode="&#x14c;" 
d="M304 162c0 -56 -11.333 -98.667 -34 -128s-57 -44 -103 -44s-79.833 14.667 -101.5 44s-32.5 72 -32.5 128v341c0 56 11 98.667 33 128s56 44 102 44s80.167 -14.667 102.5 -44s33.5 -72 33.5 -128v-341zM204 511c0 8.66699 -0.5 17.335 -1.5 26.002
s-2.83301 16.334 -5.5 23.001s-6.5 12.167 -11.5 16.5s-11.167 6.5 -18.5 6.5s-13.333 -2.16699 -18 -6.5s-8.16699 -9.83301 -10.5 -16.5s-3.83301 -14.334 -4.5 -23.001s-1 -17.334 -1 -26.001v-356c0 -8.66699 0.333008 -17.334 1 -26.001s2.16699 -16.5 4.5 -23.5
s5.83301 -12.667 10.5 -17s10.667 -6.5 18 -6.5c14.667 0 24.5 7.66699 29.5 23s7.5 32 7.5 50v356zM73 820.001h192v-84h-192v84z" />
    <glyph glyph-name="omacron" unicode="&#x14d;" horiz-adv-x="324" 
d="M291 156c0 -54 -10.167 -95.167 -30.5 -123.5s-53.5 -42.5 -99.5 -42.5c-45.333 0 -78 14.167 -98 42.5s-30 69.5 -30 123.5v204c0 54 10 95.167 30 123.5s52.667 42.5 98 42.5c46 0 79.167 -14.167 99.5 -42.5s30.5 -69.5 30.5 -123.5v-204zM191 375
c0 20.667 -2 37 -6 49s-11.667 18 -23 18s-19 -6 -23 -18s-6 -28.333 -6 -49v-234c0 -20.667 2 -37 6 -49s11.667 -18 23 -18s19 6 23 18s6 28.333 6 49v234zM66 665h192v-84h-192v84z" />
    <glyph glyph-name="Obreve" unicode="&#x14e;" 
d="M304 162c0 -56 -11.333 -98.667 -34 -128s-57 -44 -103 -44s-79.833 14.667 -101.5 44s-32.5 72 -32.5 128v341c0 56 11 98.667 33 128s56 44 102 44s80.167 -14.667 102.5 -44s33.5 -72 33.5 -128v-341zM204 511c0 8.66699 -0.5 17.335 -1.5 26.002
s-2.83301 16.334 -5.5 23.001s-6.5 12.167 -11.5 16.5s-11.167 6.5 -18.5 6.5s-13.333 -2.16699 -18 -6.5s-8.16699 -9.83301 -10.5 -16.5s-3.83301 -14.334 -4.5 -23.001s-1 -17.334 -1 -26.001v-356c0 -8.66699 0.333008 -17.334 1 -26.001s2.16699 -16.5 4.5 -23.5
s5.83301 -12.667 10.5 -17s10.667 -6.5 18 -6.5c14.667 0 24.5 7.66699 29.5 23s7.5 32 7.5 50v356zM271 831.001v-12c0 -32 -8.5 -57.667 -25.5 -77s-42.833 -29 -77.5 -29c-34 0 -59.667 9.66699 -77 29s-26 45 -26 77v12h78v-12c0 -12 2.16699 -20.5 6.5 -25.5
s10.5 -7.5 18.5 -7.5s14.167 2.5 18.5 7.5s6.5 13.5 6.5 25.5v12h78z" />
    <glyph glyph-name="obreve" unicode="&#x14f;" horiz-adv-x="324" 
d="M291 156c0 -54 -10.167 -95.167 -30.5 -123.5s-53.5 -42.5 -99.5 -42.5c-45.333 0 -78 14.167 -98 42.5s-30 69.5 -30 123.5v204c0 54 10 95.167 30 123.5s52.667 42.5 98 42.5c46 0 79.167 -14.167 99.5 -42.5s30.5 -69.5 30.5 -123.5v-204zM191 375
c0 20.667 -2 37 -6 49s-11.667 18 -23 18s-19 -6 -23 -18s-6 -28.333 -6 -49v-234c0 -20.667 2 -37 6 -49s11.667 -18 23 -18s19 6 23 18s6 28.333 6 49v234zM264 676v-12c0 -32 -8.5 -57.667 -25.5 -77s-42.833 -29 -77.5 -29c-34 0 -59.667 9.66699 -77 29s-26 45 -26 77
v12h78v-12c0 -12 2.16699 -20.5 6.5 -25.5s10.5 -7.5 18.5 -7.5s14.167 2.5 18.5 7.5s6.5 13.5 6.5 25.5v12h78z" />
    <glyph glyph-name="Ohungarumlaut" unicode="&#x150;" 
d="M304 162c0 -56 -11.333 -98.667 -34 -128s-57 -44 -103 -44s-79.833 14.667 -101.5 44s-32.5 72 -32.5 128v341c0 56 11 98.667 33 128s56 44 102 44s80.167 -14.667 102.5 -44s33.5 -72 33.5 -128v-341zM204 511c0 8.66699 -0.5 17.335 -1.5 26.002
s-2.83301 16.334 -5.5 23.001s-6.5 12.167 -11.5 16.5s-11.167 6.5 -18.5 6.5s-13.333 -2.16699 -18 -6.5s-8.16699 -9.83301 -10.5 -16.5s-3.83301 -14.334 -4.5 -23.001s-1 -17.334 -1 -26.001v-356c0 -8.66699 0.333008 -17.334 1 -26.001s2.16699 -16.5 4.5 -23.5
s5.83301 -12.667 10.5 -17s10.667 -6.5 18 -6.5c14.667 0 24.5 7.66699 29.5 23s7.5 32 7.5 50v356zM329 846.001l-70 -139h-78l51 139h97zM201 846.001l-62 -139h-77l42 139h97z" />
    <glyph glyph-name="ohungarumlaut" unicode="&#x151;" horiz-adv-x="324" 
d="M291 156c0 -54 -10.167 -95.167 -30.5 -123.5s-53.5 -42.5 -99.5 -42.5c-45.333 0 -78 14.167 -98 42.5s-30 69.5 -30 123.5v204c0 54 10 95.167 30 123.5s52.667 42.5 98 42.5c46 0 79.167 -14.167 99.5 -42.5s30.5 -69.5 30.5 -123.5v-204zM191 375
c0 20.667 -2 37 -6 49s-11.667 18 -23 18s-19 -6 -23 -18s-6 -28.333 -6 -49v-234c0 -20.667 2 -37 6 -49s11.667 -18 23 -18s19 6 23 18s6 28.333 6 49v234zM322 691l-70 -139h-78l51 139h97zM194 691l-62 -139h-77l42 139h97z" />
    <glyph glyph-name="OE" unicode="&#x152;" horiz-adv-x="462" 
d="M441 570l-134.998 0.00195312v-168h110v-92h-110v-218h135v-92h-211v32c-8.66699 -12.667 -18.834 -22.834 -30.501 -30.501s-28.5 -11.5 -50.5 -11.5c-37.333 0 -66 14.667 -86 44s-30 72 -30 128v341c0 56 10.833 98.667 32.5 128s49.5 44 83.5 44
c22 0 39.167 -4.33301 51.5 -13s22.166 -18.334 29.499 -29.001v32h211v-95zM170.002 82.002c14.667 0 24.334 7.50098 29.001 22.501s7 31.167 7 48.5v358c0 8.66699 -0.5 17.334 -1.5 26.001s-2.83301 16.334 -5.5 23.001s-6.33398 12.167 -11.001 16.5
s-10.667 6.5 -18 6.5s-13.333 -2.16699 -18 -6.5s-8.16699 -9.83301 -10.5 -16.5s-4 -14.334 -5 -23.001s-1.5 -17.334 -1.5 -26.001v-356c0 -8.66699 0.5 -17.334 1.5 -26.001s2.66699 -16.5 5 -23.5s5.83301 -12.667 10.5 -17s10.667 -6.5 18 -6.5z" />
    <glyph glyph-name="oe" unicode="&#x153;" horiz-adv-x="481" 
d="M241 480c11.333 15.333 24.168 26.832 38.501 34.499s31.5 11.5 51.5 11.5c40 0 69.667 -14.5 89 -43.5s29 -70.5 29 -124.5v-134h-158v-83c0 -20.667 2 -37 6 -49s11.667 -18 23 -18s19.166 5.83301 23.499 17.5s6.5 28.167 6.5 49.5v27h99v-16
c0 -53.333 -8.5 -93.666 -25.5 -120.999s-47.833 -41 -92.5 -41c-37.333 0 -67.333 15.333 -90 46c-12 -14.667 -24.833 -26 -38.5 -34s-31.5 -12 -53.5 -12c-38.667 0 -67.667 14.167 -87 42.5s-29 69.5 -29 123.5v204c0 54 10.833 95.167 32.5 123.5s51.5 42.5 89.5 42.5
c20 0 36.833 -3.83301 50.5 -11.5s25.5 -19.167 35.5 -34.5zM191.002 374.999c0 20.667 -2 37 -6 49s-11.667 18 -23 18s-19 -6 -23 -18s-6 -28.333 -6 -49v-234c0 -20.667 2 -37 6 -49s11.667 -18 23 -18s19 6 23 18s6 28.333 6 49v234zM291.002 303.999h58v71
c0 20.667 -2 37 -6 49s-11.667 18 -23 18s-19 -5.83301 -23 -17.5s-6 -28.167 -6 -49.5v-71z" />
    <glyph glyph-name="Racute" unicode="&#x154;" horiz-adv-x="351" 
d="M315 467c0 -34.667 -5.5 -65 -16.5 -91s-25.5 -45.667 -43.5 -59l84 -317h-105l-62 288h-31v-288h-100v665h137c46 0 80.333 -14.5 103 -43.5s34 -71.833 34 -128.5v-26zM215 501c0 21.333 -3.66699 38.167 -11 50.5s-18.333 18.5 -33 18.5h-30v-191h29
c30 0 45 24.333 45 73v49zM264 846.001l-58 -139h-82l39 139h101z" />
    <glyph glyph-name="racute" unicode="&#x155;" horiz-adv-x="250" 
d="M41 516h85.001l9 -43c4.66699 11.333 12.667 23 24 35s25.666 18 42.999 18c16 0 29 -4 39 -12l-22 -91c-8 5.33301 -17.333 8 -28 8s-20.167 -2.83301 -28.5 -8.5s-15.5 -13.167 -21.5 -22.5v-400h-100v516zM229.001 691l-58 -139h-82l39 139h101z" />
    <glyph glyph-name="Rcommaaccent" unicode="&#x156;" horiz-adv-x="351" 
d="M315 467c0 -34.667 -5.5 -65 -16.5 -91s-25.5 -45.667 -43.5 -59l84 -317h-105l-62 288h-31v-288h-100v665h137c46 0 80.333 -14.5 103 -43.5s34 -71.833 34 -128.5v-26zM215 501c0 21.333 -3.66699 38.167 -11 50.5s-18.333 18.5 -33 18.5h-30v-191h29
c30 0 45 24.333 45 73v49zM182 -173.999h-73l29 134h92z" />
    <glyph glyph-name="rcommaaccent" unicode="&#x157;" horiz-adv-x="250" 
d="M41 516h85.001l9 -43c4.66699 11.333 12.667 23 24 35s25.666 18 42.999 18c16 0 29 -4 39 -12l-22 -91c-8 5.33301 -17.333 8 -28 8s-20.167 -2.83301 -28.5 -8.5s-15.5 -13.167 -21.5 -22.5v-400h-100v516zM91.001 -174h-73l29 134h92z" />
    <glyph glyph-name="Rcaron" unicode="&#x158;" horiz-adv-x="351" 
d="M315 467c0 -34.667 -5.5 -65 -16.5 -91s-25.5 -45.667 -43.5 -59l84 -317h-105l-62 288h-31v-288h-100v665h137c46 0 80.333 -14.5 103 -43.5s34 -71.833 34 -128.5v-26zM215 501c0 21.333 -3.66699 38.167 -11 50.5s-18.333 18.5 -33 18.5h-30v-191h29
c30 0 45 24.333 45 73v49zM136 707.001l-63 139h74l28 -75l28 75h74l-63 -139h-78z" />
    <glyph glyph-name="rcaron" unicode="&#x159;" horiz-adv-x="250" 
d="M41 516h85.001l9 -43c4.66699 11.333 12.667 23 24 35s25.666 18 42.999 18c16 0 29 -4 39 -12l-22 -91c-8 5.33301 -17.333 8 -28 8s-20.167 -2.83301 -28.5 -8.5s-15.5 -13.167 -21.5 -22.5v-400h-100v516zM97.001 552l-63 139h74l28 -75l28 75h74l-63 -139h-78z" />
    <glyph glyph-name="Sacute" unicode="&#x15a;" horiz-adv-x="319" 
d="M24 517c0 20 2.66602 39.3359 7.99902 58.0029s13.5 35.5 24.5 50.5s25 27 42 36s37.5 13.5 61.5 13.5c42.667 0 75.834 -13.333 99.501 -40s35.5 -71.334 35.5 -134.001v-34h-100v44c0 8.66699 -0.5 17.334 -1.5 26.001s-2.66699 16.334 -5 23.001
s-5.83301 12.167 -10.5 16.5s-10.667 6.5 -18 6.5c-13.333 0 -22.333 -7 -27 -21s-7 -30 -7 -48v-23c0 -17.333 3.83301 -33.333 11.5 -48s21.167 -30 40.5 -46c15.333 -12.667 30 -25.667 44 -39s26.5 -27.833 37.5 -43.5s19.667 -32.834 26 -51.501
s9.5 -39.334 9.5 -62.001v-53c0 -19.333 -2.5 -38.333 -7.5 -57s-13 -35.5 -24 -50.5s-25 -27.167 -42 -36.5s-37.5 -14 -61.5 -14c-48 0 -82.667 16 -104 48s-32 75 -32 129v31h102v-44c0 -8.66699 0.333008 -17.334 1 -26.001s2.16699 -16.334 4.5 -23.001
s5.83301 -12.167 10.5 -16.5s10.667 -6.5 18 -6.5c13.333 0 22.5 7 27.5 21s7.5 30 7.5 48v33c0 26 -6.33301 48.333 -19 67s-28 35.667 -46 51c-31.333 26 -56.833 52 -76.5 78s-29.5 57.667 -29.5 95v42zM248.999 846.003l-58 -139h-82l39 139h101z" />
    <glyph glyph-name="sacute" unicode="&#x15b;" horiz-adv-x="299" 
d="M121 164l0.00292969 -11.998c0 -23.333 1.66699 -42.166 5 -56.499s11.333 -21.5 24 -21.5c10 0 17.667 5.16699 23 15.5s8 24.833 8 43.5s-4.83301 35.667 -14.5 51s-28.834 33 -57.501 53c-30 20 -52 41.5 -66 64.5s-21 52.5 -21 88.5c0 16 2.5 32.167 7.5 48.5
s12.833 31 23.5 44s24 23.5 40 31.5s35 12 57 12c41.333 0 72.5 -13.833 93.5 -41.5s31.5 -66.834 31.5 -117.501v-10h-97v19c0 19.333 -1.83301 35.166 -5.5 47.499s-11.834 18.5 -24.501 18.5c-10.667 0 -18.167 -4.83301 -22.5 -14.5s-6.5 -21.167 -6.5 -34.5
c0 -21.333 6.33301 -38.833 19 -52.5s31.667 -28.5 57 -44.5c31.333 -19.333 53 -42 65 -68s18 -54.333 18 -85c0 -17.333 -2.16699 -35 -6.5 -53s-11.5 -34.333 -21.5 -49s-22.833 -26.834 -38.5 -36.501s-34.834 -14.5 -57.501 -14.5c-44 0 -76.833 14 -98.5 42
s-32.5 69 -32.5 123v9h98zM239.003 691.002l-58 -139h-82l39 139h101z" />
    <glyph glyph-name="Scircumflex" unicode="&#x15c;" horiz-adv-x="319" 
d="M24 517c0 20 2.66602 39.3359 7.99902 58.0029s13.5 35.5 24.5 50.5s25 27 42 36s37.5 13.5 61.5 13.5c42.667 0 75.834 -13.333 99.501 -40s35.5 -71.334 35.5 -134.001v-34h-100v44c0 8.66699 -0.5 17.334 -1.5 26.001s-2.66699 16.334 -5 23.001
s-5.83301 12.167 -10.5 16.5s-10.667 6.5 -18 6.5c-13.333 0 -22.333 -7 -27 -21s-7 -30 -7 -48v-23c0 -17.333 3.83301 -33.333 11.5 -48s21.167 -30 40.5 -46c15.333 -12.667 30 -25.667 44 -39s26.5 -27.833 37.5 -43.5s19.667 -32.834 26 -51.501
s9.5 -39.334 9.5 -62.001v-53c0 -19.333 -2.5 -38.333 -7.5 -57s-13 -35.5 -24 -50.5s-25 -27.167 -42 -36.5s-37.5 -14 -61.5 -14c-48 0 -82.667 16 -104 48s-32 75 -32 129v31h102v-44c0 -8.66699 0.333008 -17.334 1 -26.001s2.16699 -16.334 4.5 -23.001
s5.83301 -12.167 10.5 -16.5s10.667 -6.5 18 -6.5c13.333 0 22.5 7 27.5 21s7.5 30 7.5 48v33c0 26 -6.33301 48.333 -19 67s-28 35.667 -46 51c-31.333 26 -56.833 52 -76.5 78s-29.5 57.667 -29.5 95v42zM200.999 846.003l65 -139h-78l-28 74l-28 -74h-78l65 139h82z" />
    <glyph glyph-name="scircumflex" unicode="&#x15d;" horiz-adv-x="299" 
d="M121 164l0.00292969 -11.998c0 -23.333 1.66699 -42.166 5 -56.499s11.333 -21.5 24 -21.5c10 0 17.667 5.16699 23 15.5s8 24.833 8 43.5s-4.83301 35.667 -14.5 51s-28.834 33 -57.501 53c-30 20 -52 41.5 -66 64.5s-21 52.5 -21 88.5c0 16 2.5 32.167 7.5 48.5
s12.833 31 23.5 44s24 23.5 40 31.5s35 12 57 12c41.333 0 72.5 -13.833 93.5 -41.5s31.5 -66.834 31.5 -117.501v-10h-97v19c0 19.333 -1.83301 35.166 -5.5 47.499s-11.834 18.5 -24.501 18.5c-10.667 0 -18.167 -4.83301 -22.5 -14.5s-6.5 -21.167 -6.5 -34.5
c0 -21.333 6.33301 -38.833 19 -52.5s31.667 -28.5 57 -44.5c31.333 -19.333 53 -42 65 -68s18 -54.333 18 -85c0 -17.333 -2.16699 -35 -6.5 -53s-11.5 -34.333 -21.5 -49s-22.833 -26.834 -38.5 -36.501s-34.834 -14.5 -57.501 -14.5c-44 0 -76.833 14 -98.5 42
s-32.5 69 -32.5 123v9h98zM191.003 691.002l65 -139h-78l-28 74l-28 -74h-78l65 139h82z" />
    <glyph glyph-name="Scedilla" unicode="&#x15e;" horiz-adv-x="319" 
d="M129 -7c-36.667 6.66699 -63.3359 25.335 -80.0029 56.002s-25 70 -25 118v31h102v-44c0 -8.66699 0.333008 -17.334 1 -26.001s2.16699 -16.334 4.5 -23.001s5.83301 -12.167 10.5 -16.5s10.667 -6.5 18 -6.5c13.333 0 22.5 7 27.5 21s7.5 30 7.5 48v33
c0 26 -6.33301 48.333 -19 67s-28 35.667 -46 51c-31.333 26 -56.833 52 -76.5 78s-29.5 57.667 -29.5 95v42c0 20 2.66699 39.333 8 58s13.5 35.5 24.5 50.5s25 27 42 36s37.5 13.5 61.5 13.5c42.667 0 75.834 -13.333 99.501 -40s35.5 -71.334 35.5 -134.001v-34h-100v44
c0 8.66699 -0.5 17.334 -1.5 26.001s-2.66699 16.334 -5 23.001s-5.83301 12.167 -10.5 16.5s-10.667 6.5 -18 6.5c-13.333 0 -22.333 -7 -27 -21s-7 -30 -7 -48v-23c0 -17.333 3.83301 -33.333 11.5 -48s21.167 -30 40.5 -46c15.333 -12.667 30 -25.667 44 -39
s26.5 -27.833 37.5 -43.5s19.667 -32.834 26 -51.501s9.5 -39.334 9.5 -62.001v-53c0 -17.333 -2.16699 -34.833 -6.5 -52.5s-11.166 -33.667 -20.499 -48s-21.166 -26.5 -35.499 -36.5s-31.5 -16.333 -51.5 -19v-25h6c20.667 0 38.5 -6.16699 53.5 -18.5
s22.5 -34.166 22.5 -65.499c0 -32 -8 -56.167 -24 -72.5s-38 -24.5 -66 -24.5c-27.333 0 -48.166 7.5 -62.499 22.5s-21.5 37.5 -21.5 67.5v2h60v-2c0 -9.33301 2.16699 -17 6.5 -23s10.166 -9 17.499 -9c16 0 24 12 24 36c0 14 -3.16699 23.667 -9.5 29s-16.5 8 -30.5 8
h-28v76z" />
    <glyph glyph-name="scedilla" unicode="&#x15f;" horiz-adv-x="299" 
d="M116 -5c-32 7.33301 -55.498 24.499 -70.498 51.499s-22.5 63.167 -22.5 108.5v9h98v-12c0 -23.333 1.66699 -42.166 5 -56.499s11.333 -21.5 24 -21.5c10 0 17.667 5.16699 23 15.5s8 24.833 8 43.5s-4.83301 35.667 -14.5 51s-28.834 33 -57.501 53
c-30 20 -52 41.5 -66 64.5s-21 52.5 -21 88.5c0 16 2.5 32.167 7.5 48.5s12.833 31 23.5 44s24 23.5 40 31.5s35 12 57 12c41.333 0 72.5 -13.833 93.5 -41.5s31.5 -66.834 31.5 -117.501v-10h-97v19c0 19.333 -1.83301 35.166 -5.5 47.499s-11.834 18.5 -24.501 18.5
c-10.667 0 -18.167 -4.83301 -22.5 -14.5s-6.5 -21.167 -6.5 -34.5c0 -21.333 6.33301 -38.833 19 -52.5s31.667 -28.5 57 -44.5c31.333 -19.333 53 -42 65 -68s18 -54.333 18 -85c0 -16 -2 -32.667 -6 -50s-10.5 -33.166 -19.5 -47.499s-20.333 -26.5 -34 -36.5
s-30.5 -16 -50.5 -18v-24h6c20.667 0 38.5 -6.16699 53.5 -18.5s22.5 -34.166 22.5 -65.499c0 -32 -8 -56.167 -24 -72.5s-38 -24.5 -66 -24.5c-27.333 0 -48.166 7.5 -62.499 22.5s-21.5 37.5 -21.5 67.5v2h60v-2c0 -9.33301 2.16699 -17 6.5 -23s10.166 -9 17.499 -9
c16 0 24 12 24 36c0 14 -3.16699 23.667 -9.5 29s-16.5 8 -30.5 8h-28v78z" />
    <glyph glyph-name="Scaron" unicode="&#x160;" horiz-adv-x="319" 
d="M24 517c0 20 2.66602 39.3359 7.99902 58.0029s13.5 35.5 24.5 50.5s25 27 42 36s37.5 13.5 61.5 13.5c42.667 0 75.834 -13.333 99.501 -40s35.5 -71.334 35.5 -134.001v-34h-100v44c0 8.66699 -0.5 17.334 -1.5 26.001s-2.66699 16.334 -5 23.001
s-5.83301 12.167 -10.5 16.5s-10.667 6.5 -18 6.5c-13.333 0 -22.333 -7 -27 -21s-7 -30 -7 -48v-23c0 -17.333 3.83301 -33.333 11.5 -48s21.167 -30 40.5 -46c15.333 -12.667 30 -25.667 44 -39s26.5 -27.833 37.5 -43.5s19.667 -32.834 26 -51.501
s9.5 -39.334 9.5 -62.001v-53c0 -19.333 -2.5 -38.333 -7.5 -57s-13 -35.5 -24 -50.5s-25 -27.167 -42 -36.5s-37.5 -14 -61.5 -14c-48 0 -82.667 16 -104 48s-32 75 -32 129v31h102v-44c0 -8.66699 0.333008 -17.334 1 -26.001s2.16699 -16.334 4.5 -23.001
s5.83301 -12.167 10.5 -16.5s10.667 -6.5 18 -6.5c13.333 0 22.5 7 27.5 21s7.5 30 7.5 48v33c0 26 -6.33301 48.333 -19 67s-28 35.667 -46 51c-31.333 26 -56.833 52 -76.5 78s-29.5 57.667 -29.5 95v42zM120.999 707.003l-63 139h74l28 -75l28 75h74l-63 -139h-78z" />
    <glyph glyph-name="scaron" unicode="&#x161;" horiz-adv-x="299" 
d="M121 164l0.00292969 -11.998c0 -23.333 1.66699 -42.166 5 -56.499s11.333 -21.5 24 -21.5c10 0 17.667 5.16699 23 15.5s8 24.833 8 43.5s-4.83301 35.667 -14.5 51s-28.834 33 -57.501 53c-30 20 -52 41.5 -66 64.5s-21 52.5 -21 88.5c0 16 2.5 32.167 7.5 48.5
s12.833 31 23.5 44s24 23.5 40 31.5s35 12 57 12c41.333 0 72.5 -13.833 93.5 -41.5s31.5 -66.834 31.5 -117.501v-10h-97v19c0 19.333 -1.83301 35.166 -5.5 47.499s-11.834 18.5 -24.501 18.5c-10.667 0 -18.167 -4.83301 -22.5 -14.5s-6.5 -21.167 -6.5 -34.5
c0 -21.333 6.33301 -38.833 19 -52.5s31.667 -28.5 57 -44.5c31.333 -19.333 53 -42 65 -68s18 -54.333 18 -85c0 -17.333 -2.16699 -35 -6.5 -53s-11.5 -34.333 -21.5 -49s-22.833 -26.834 -38.5 -36.501s-34.834 -14.5 -57.501 -14.5c-44 0 -76.833 14 -98.5 42
s-32.5 69 -32.5 123v9h98zM111.003 552.002l-63 139h74l28 -75l28 75h74l-63 -139h-78z" />
    <glyph glyph-name="uni0162" unicode="&#x162;" horiz-adv-x="318" 
d="M107 0v570h-95v95h294v-95h-99v-570h-100zM166 -174h-73l29 134h92z" />
    <glyph glyph-name="uni0163" unicode="&#x163;" horiz-adv-x="243" 
d="M236 11c-11.333 -7.33301 -22.333 -12.667 -33 -16s-23.667 -5 -39 -5c-45.333 0 -77.833 14.5 -97.5 43.5s-29.5 70.5 -29.5 124.5v458h89l11 -81v-19h85v-84h-85v-280c0 -8 0.5 -16.167 1.5 -24.5s2.83301 -15.833 5.5 -22.5s6.5 -12.167 11.5 -16.5
s11.5 -6.5 19.5 -6.5c14 0 26.667 3.66699 38 11zM143 -174.001h-73l29 134h92z" />
    <glyph glyph-name="Tcaron" unicode="&#x164;" horiz-adv-x="318" 
d="M107 0v570h-95v95h294v-95h-99v-570h-100zM120 707l-63 139h74l28 -75l28 75h74l-63 -139h-78z" />
    <glyph glyph-name="tcaron" unicode="&#x165;" horiz-adv-x="254" 
d="M236 11c-11.333 -7.33301 -22.333 -12.667 -33 -16s-23.667 -5 -39 -5c-45.333 0 -77.833 14.5 -97.5 43.5s-29.5 70.5 -29.5 124.5v458h89l11 -81v-19h85v-84h-85v-280c0 -8 0.5 -16.167 1.5 -24.5s2.83301 -15.833 5.5 -22.5s6.5 -12.167 11.5 -16.5
s11.5 -6.5 19.5 -6.5c14 0 26.667 3.66699 38 11zM211 574.999h-52l16 142h76z" />
    <glyph glyph-name="Tbar" unicode="&#x166;" horiz-adv-x="318" 
d="M41 427h66v143h-95v95h294v-95h-99v-143h67v-84h-67v-343h-100v343h-66v84z" />
    <glyph glyph-name="tbar" unicode="&#x167;" horiz-adv-x="243" 
d="M236 11c-11.333 -7.33301 -22.333 -12.667 -33 -16s-23.667 -5 -39 -5c-45.333 0 -77.833 14.5 -97.5 43.5s-29.5 70.5 -29.5 124.5v458h89l11 -81v-19h85v-84h-85v-91h85v-75h-85v-114c0 -8 0.5 -16.167 1.5 -24.5s2.83301 -15.833 5.5 -22.5s6.5 -12.167 11.5 -16.5
s11.5 -6.5 19.5 -6.5c14 0 26.667 3.66699 38 11z" />
    <glyph glyph-name="Utilde" unicode="&#x168;" horiz-adv-x="348" 
d="M311 665v-504.999c0 -112.667 -45.667 -169 -137 -169s-137 56.333 -137 169v505h100v-512c0 -8 0.5 -16.333 1.5 -25s2.83301 -16.334 5.5 -23.001s6.5 -12.167 11.5 -16.5s11.167 -6.5 18.5 -6.5c14.667 0 24.5 7.5 29.5 22.5s7.5 31.167 7.5 48.5v512h100zM54 719.001
c0 39.333 7.16504 67.5 21.498 84.5s30.833 25.5 49.5 25.5c11.333 0 21 -1.66699 29 -5s14.833 -6.83301 20.5 -10.5l16 -10.5c5 -3.33301 10.167 -5 15.5 -5c4.66699 0 8.33398 2 11.001 6s4 11 4 21v7h73v-7c0 -40 -6.66699 -68.667 -20 -86s-29.666 -26 -48.999 -26
c-10 0 -19 1.83301 -27 5.5s-15.167 7.66699 -21.5 12l-17.5 12c-5.33301 3.66699 -10.333 5.5 -15 5.5c-5.33301 0 -9.5 -2 -12.5 -6s-4.5 -11.667 -4.5 -23v-6h-73v6z" />
    <glyph glyph-name="utilde" unicode="&#x169;" 
d="M36 516l100.001 -0.000976562v-375c0 -21.333 1.83301 -37.833 5.5 -49.5s11.167 -17.5 22.5 -17.5c13.333 0 22.666 8.33301 27.999 25v417h100v-402c0 -9.33301 1.83301 -17 5.5 -23s10.834 -9 21.501 -9v-92c-32 0 -55.833 4.5 -71.5 13.5s-28.167 25.5 -37.5 49.5
c-7.33301 -19.333 -17.333 -34.666 -30 -45.999s-29.667 -17 -51 -17c-26.667 0 -48.834 11.167 -66.501 33.5s-26.5 58.833 -26.5 109.5v383zM48.001 563.999c0 39.333 7.16504 67.5 21.498 84.5s30.833 25.5 49.5 25.5c11.333 0 21 -1.66699 29 -5
s14.833 -6.83301 20.5 -10.5l16 -10.5c5 -3.33301 10.167 -5 15.5 -5c4.66699 0 8.33398 2 11.001 6s4 11 4 21v7h73v-7c0 -40 -6.66699 -68.667 -20 -86s-29.666 -26 -48.999 -26c-10 0 -19 1.83301 -27 5.5s-15.167 7.66699 -21.5 12l-17.5 12
c-5.33301 3.66699 -10.333 5.5 -15 5.5c-5.33301 0 -9.5 -2 -12.5 -6s-4.5 -11.667 -4.5 -23v-6h-73v6z" />
    <glyph glyph-name="Umacron" unicode="&#x16a;" horiz-adv-x="348" 
d="M311 665v-504.999c0 -112.667 -45.667 -169 -137 -169s-137 56.333 -137 169v505h100v-512c0 -8 0.5 -16.333 1.5 -25s2.83301 -16.334 5.5 -23.001s6.5 -12.167 11.5 -16.5s11.167 -6.5 18.5 -6.5c14.667 0 24.5 7.5 29.5 22.5s7.5 31.167 7.5 48.5v512h100zM78 820.001
h192v-84h-192v84z" />
    <glyph glyph-name="umacron" unicode="&#x16b;" 
d="M36 516l100.001 -0.000976562v-375c0 -21.333 1.83301 -37.833 5.5 -49.5s11.167 -17.5 22.5 -17.5c13.333 0 22.666 8.33301 27.999 25v417h100v-402c0 -9.33301 1.83301 -17 5.5 -23s10.834 -9 21.501 -9v-92c-32 0 -55.833 4.5 -71.5 13.5s-28.167 25.5 -37.5 49.5
c-7.33301 -19.333 -17.333 -34.666 -30 -45.999s-29.667 -17 -51 -17c-26.667 0 -48.834 11.167 -66.501 33.5s-26.5 58.833 -26.5 109.5v383zM72.001 664.999h192v-84h-192v84z" />
    <glyph glyph-name="Ubreve" unicode="&#x16c;" horiz-adv-x="348" 
d="M311 665v-504.999c0 -112.667 -45.667 -169 -137 -169s-137 56.333 -137 169v505h100v-512c0 -8 0.5 -16.333 1.5 -25s2.83301 -16.334 5.5 -23.001s6.5 -12.167 11.5 -16.5s11.167 -6.5 18.5 -6.5c14.667 0 24.5 7.5 29.5 22.5s7.5 31.167 7.5 48.5v512h100z
M276 831.001v-12c0 -32 -8.5 -57.667 -25.5 -77s-42.833 -29 -77.5 -29c-34 0 -59.667 9.66699 -77 29s-26 45 -26 77v12h78v-12c0 -12 2.16699 -20.5 6.5 -25.5s10.5 -7.5 18.5 -7.5s14.167 2.5 18.5 7.5s6.5 13.5 6.5 25.5v12h78z" />
    <glyph glyph-name="ubreve" unicode="&#x16d;" 
d="M36 516l100.001 -0.000976562v-375c0 -21.333 1.83301 -37.833 5.5 -49.5s11.167 -17.5 22.5 -17.5c13.333 0 22.666 8.33301 27.999 25v417h100v-402c0 -9.33301 1.83301 -17 5.5 -23s10.834 -9 21.501 -9v-92c-32 0 -55.833 4.5 -71.5 13.5s-28.167 25.5 -37.5 49.5
c-7.33301 -19.333 -17.333 -34.666 -30 -45.999s-29.667 -17 -51 -17c-26.667 0 -48.834 11.167 -66.501 33.5s-26.5 58.833 -26.5 109.5v383zM270.001 675.999v-12c0 -32 -8.5 -57.667 -25.5 -77s-42.833 -29 -77.5 -29c-34 0 -59.667 9.66699 -77 29s-26 45 -26 77v12h78
v-12c0 -12 2.16699 -20.5 6.5 -25.5s10.5 -7.5 18.5 -7.5s14.167 2.5 18.5 7.5s6.5 13.5 6.5 25.5v12h78z" />
    <glyph glyph-name="Uring" unicode="&#x16e;" horiz-adv-x="348" 
d="M311 665v-504.999c0 -112.667 -45.667 -169 -137 -169s-137 56.333 -137 169v505h100v-512c0 -8 0.5 -16.333 1.5 -25s2.83301 -16.334 5.5 -23.001s6.5 -12.167 11.5 -16.5s11.167 -6.5 18.5 -6.5c14.667 0 24.5 7.5 29.5 22.5s7.5 31.167 7.5 48.5v512h100z
M145 785.001c0 -8.66699 2.66699 -15.834 8 -21.501s12.333 -8.5 21 -8.5s15.5 2.83301 20.5 8.5s7.5 12.834 7.5 21.501c0 8 -2.5 14.833 -7.5 20.5s-11.833 8.5 -20.5 8.5s-15.667 -2.83301 -21 -8.5s-8 -12.5 -8 -20.5zM88 785.001c0 12 2.33301 23.167 7 33.5
s10.834 19.333 18.501 27s16.667 13.667 27 18s21.5 6.5 33.5 6.5c24 0 44.167 -8.33301 60.5 -25s24.5 -36.667 24.5 -60c0 -12 -2.16699 -23.167 -6.5 -33.5s-10.333 -19.5 -18 -27.5s-16.667 -14.333 -27 -19s-21.5 -7 -33.5 -7s-23.167 2.33301 -33.5 7
s-19.333 11 -27 19s-13.834 17.167 -18.501 27.5s-7 21.5 -7 33.5z" />
    <glyph glyph-name="uring" unicode="&#x16f;" 
d="M36 516l100.001 -0.000976562v-375c0 -21.333 1.83301 -37.833 5.5 -49.5s11.167 -17.5 22.5 -17.5c13.333 0 22.666 8.33301 27.999 25v417h100v-402c0 -9.33301 1.83301 -17 5.5 -23s10.834 -9 21.501 -9v-92c-32 0 -55.833 4.5 -71.5 13.5s-28.167 25.5 -37.5 49.5
c-7.33301 -19.333 -17.333 -34.666 -30 -45.999s-29.667 -17 -51 -17c-26.667 0 -48.834 11.167 -66.501 33.5s-26.5 58.833 -26.5 109.5v383zM139.001 629.999c0 -8.66699 2.66699 -15.834 8 -21.501s12.333 -8.5 21 -8.5s15.5 2.83301 20.5 8.5s7.5 12.834 7.5 21.501
c0 8 -2.5 14.833 -7.5 20.5s-11.833 8.5 -20.5 8.5s-15.667 -2.83301 -21 -8.5s-8 -12.5 -8 -20.5zM82.001 629.999c0 12 2.33301 23.167 7 33.5s10.834 19.333 18.501 27s16.667 13.667 27 18s21.5 6.5 33.5 6.5c24 0 44.167 -8.33301 60.5 -25s24.5 -36.667 24.5 -60
c0 -12 -2.16699 -23.167 -6.5 -33.5s-10.333 -19.5 -18 -27.5s-16.667 -14.333 -27 -19s-21.5 -7 -33.5 -7s-23.167 2.33301 -33.5 7s-19.333 11 -27 19s-13.834 17.167 -18.501 27.5s-7 21.5 -7 33.5z" />
    <glyph glyph-name="Uhungarumlaut" unicode="&#x170;" horiz-adv-x="348" 
d="M311 665v-504.999c0 -112.667 -45.667 -169 -137 -169s-137 56.333 -137 169v505h100v-512c0 -8 0.5 -16.333 1.5 -25s2.83301 -16.334 5.5 -23.001s6.5 -12.167 11.5 -16.5s11.167 -6.5 18.5 -6.5c14.667 0 24.5 7.5 29.5 22.5s7.5 31.167 7.5 48.5v512h100z
M334 846.001l-70 -139h-78l51 139h97zM206 846.001l-62 -139h-77l42 139h97z" />
    <glyph glyph-name="uhungarumlaut" unicode="&#x171;" 
d="M36 516l100.001 -0.000976562v-375c0 -21.333 1.83301 -37.833 5.5 -49.5s11.167 -17.5 22.5 -17.5c13.333 0 22.666 8.33301 27.999 25v417h100v-402c0 -9.33301 1.83301 -17 5.5 -23s10.834 -9 21.501 -9v-92c-32 0 -55.833 4.5 -71.5 13.5s-28.167 25.5 -37.5 49.5
c-7.33301 -19.333 -17.333 -34.666 -30 -45.999s-29.667 -17 -51 -17c-26.667 0 -48.834 11.167 -66.501 33.5s-26.5 58.833 -26.5 109.5v383zM328.001 690.999l-70 -139h-78l51 139h97zM200.001 690.999l-62 -139h-77l42 139h97z" />
    <glyph glyph-name="Uogonek" unicode="&#x172;" horiz-adv-x="348" 
d="M311 665l-0.00195312 -503.004c0 -41.333 -6.16699 -74.666 -18.5 -99.999s-28.5 -45.666 -48.5 -60.999c-21.333 -16.667 -37.833 -34.667 -49.5 -54s-17.5 -40.666 -17.5 -63.999c0 -19.333 6 -29 18 -29c5.33301 0 9.66602 2 12.999 6s5 12 5 24v10h60v-10
c0 -11.333 -1.5 -22.5 -4.5 -33.5s-7.66699 -20.833 -14 -29.5s-14.5 -15.667 -24.5 -21s-22.333 -8 -37 -8c-27.333 0 -47.833 7.83301 -61.5 23.5s-20.5 36.167 -20.5 61.5c0 24.667 4.5 46.5 13.5 65.5s20.833 35.5 35.5 49.5c-41.333 3.33301 -72.166 19.333 -92.499 48
s-30.5 69.334 -30.5 122.001v503h100v-511c0 -8 0.666992 -16.333 2 -25s3.5 -16.5 6.5 -23.5s6.83301 -12.667 11.5 -17s10.334 -6.5 17.001 -6.5s12.334 2.16699 17.001 6.5s8.5 10 11.5 17s5.16699 14.667 6.5 23s2 16.833 2 25.5v511h100z" />
    <glyph glyph-name="uogonek" unicode="&#x173;" 
d="M36 516l100.005 -0.00292969v-375c0 -21.333 1.83301 -37.833 5.5 -49.5s11.167 -17.5 22.5 -17.5c13.333 0 22.666 8.33301 27.999 25v417h100v-402c0 -9.33301 1.83301 -17 5.5 -23s10.834 -9 21.501 -9v-92c-14 0 -26.333 1 -37 3
c-18.667 -15.333 -33.5 -32.166 -44.5 -50.499s-16.5 -38.166 -16.5 -59.499c0 -10.667 1.66699 -18.167 5 -22.5s7.66602 -6.5 12.999 -6.5s9.66602 2 12.999 6s5 12 5 24v10h60v-10c0 -11.333 -1.5 -22.5 -4.5 -33.5s-7.66699 -20.833 -14 -29.5s-14.5 -15.667 -24.5 -21
s-22 -8 -36 -8c-28 0 -48.833 7.83301 -62.5 23.5s-20.5 36.167 -20.5 61.5c0 32 7.66699 59.167 23 81.5s33.666 40.833 54.999 55.5c-4.66699 5.33301 -8.83398 11 -12.501 17s-7.16699 13.333 -10.5 22c-7.33301 -19.333 -17.333 -34.666 -30 -45.999
s-29.667 -17 -51 -17c-26.667 0 -48.834 11.167 -66.501 33.5s-26.5 58.833 -26.5 109.5v383z" />
    <glyph glyph-name="Wcircumflex" unicode="&#x174;" horiz-adv-x="473" 
d="M271 665l54 -466h4l30 466h100l-75 -665h-97l-52 394h-4l-53 -394h-91l-73 665h100l29 -466h3l55 466h70zM277 846l65 -139h-78l-28 74l-28 -74h-78l65 139h82z" />
    <glyph glyph-name="wcircumflex" unicode="&#x175;" horiz-adv-x="471" 
d="M196 516h79l43 -323h4l33 323h100l-73 -516h-94l-51 305h-5l-50 -305h-94l-72 516h100l30 -323h4zM276 691l65 -139h-78l-28 74l-28 -74h-78l65 139h82z" />
    <glyph glyph-name="Ycircumflex" unicode="&#x176;" horiz-adv-x="354" 
d="M227 198v-198h-100v199l-113 466h103l58 -320h3l59 320h103zM218 846l65 -139h-78l-28 74l-28 -74h-78l65 139h82z" />
    <glyph glyph-name="ycircumflex" unicode="&#x177;" horiz-adv-x="309" 
d="M17 516l100 0.000976562l38 -343h4l36 343h100l-103 -565c-4 -22 -10.5 -42.833 -19.5 -62.5s-20.5 -36.834 -34.5 -51.501s-31 -26.167 -51 -34.5s-43.333 -12.5 -70 -12.5v92c18 0 35.5 6.16699 52.5 18.5s27.833 32.5 32.5 60.5l6 32zM196 691.001l65 -139h-78l-28 74
l-28 -74h-78l65 139h82z" />
    <glyph glyph-name="Ydieresis" unicode="&#x178;" horiz-adv-x="354" 
d="M227 198v-198h-100v199l-113 466h103l58 -320h3l59 320h103zM109 833c16.667 0 30.167 -5.16699 40.5 -15.5s15.5 -23.833 15.5 -40.5c0 -17.333 -5.16699 -31 -15.5 -41s-23.833 -15 -40.5 -15c-16 0 -29.333 5 -40 15s-16 23.667 -16 41
c0 16.667 5.33301 30.167 16 40.5s24 15.5 40 15.5zM245 833c16.667 0 30.167 -5.16699 40.5 -15.5s15.5 -23.833 15.5 -40.5c0 -17.333 -5.16699 -31 -15.5 -41s-23.833 -15 -40.5 -15c-16 0 -29.333 5 -40 15s-16 23.667 -16 41c0 16.667 5.33301 30.167 16 40.5
s24 15.5 40 15.5z" />
    <glyph glyph-name="Zacute" unicode="&#x179;" horiz-adv-x="298" 
d="M22 570v95h258v-109l-168 -464h164v-92h-258v109l169 461h-165zM239 846l-58 -139h-82l39 139h101z" />
    <glyph glyph-name="zacute" unicode="&#x17a;" horiz-adv-x="256" 
d="M26 424v92h209v-101l-123 -323h118v-92h-209v100l123 324h-118zM217 691l-58 -139h-82l39 139h101z" />
    <glyph glyph-name="Zdotaccent" unicode="&#x17b;" horiz-adv-x="298" 
d="M22 570v95h258v-109l-168 -464h164v-92h-258v109l169 461h-165zM150 833c16.667 0 30.167 -5.16699 40.5 -15.5s15.5 -23.833 15.5 -40.5c0 -17.333 -5.16699 -31.166 -15.5 -41.499s-23.833 -15.5 -40.5 -15.5s-30.167 5.16699 -40.5 15.5s-15.5 24.166 -15.5 41.499
c0 16.667 5.16699 30.167 15.5 40.5s23.833 15.5 40.5 15.5z" />
    <glyph glyph-name="zdotaccent" unicode="&#x17c;" horiz-adv-x="256" 
d="M26 424v92h209v-101l-123 -323h118v-92h-209v100l123 324h-118zM128 678c16.667 0 30.167 -5.16699 40.5 -15.5s15.5 -23.833 15.5 -40.5c0 -17.333 -5.16699 -31.166 -15.5 -41.499s-23.833 -15.5 -40.5 -15.5s-30.167 5.16699 -40.5 15.5s-15.5 24.166 -15.5 41.499
c0 16.667 5.16699 30.167 15.5 40.5s23.833 15.5 40.5 15.5z" />
    <glyph glyph-name="Zcaron" unicode="&#x17d;" horiz-adv-x="298" 
d="M22 570v95h258v-109l-168 -464h164v-92h-258v109l169 461h-165zM111 707l-63 139h74l28 -75l28 75h74l-63 -139h-78z" />
    <glyph glyph-name="zcaron" unicode="&#x17e;" horiz-adv-x="256" 
d="M26 424v92h209v-101l-123 -323h118v-92h-209v100l123 324h-118zM89 552l-63 139h74l28 -75l28 75h74l-63 -139h-78z" />
    <glyph glyph-name="florin" unicode="&#x192;" horiz-adv-x="392" 
d="M247 170c0 -60 -11.832 -105.001 -35.499 -135.001s-56.5 -45 -98.5 -45c-26.667 0 -47.834 4.66699 -63.501 14s-29.167 21 -40.5 35l60 58c3.33301 -6 8 -11.333 14 -16s13 -7 21 -7c15.333 0 26 7.66699 32 23s9 34 9 56v342c0 58.667 11 103.334 33 134.001
s54.667 46 98 46c28 0 50 -4.66699 66 -14s29.667 -21 41 -35l-58 -60c-3.33301 6.66699 -8 12.5 -14 17.5s-13.333 7.5 -22 7.5c-16 0 -27 -7.5 -33 -22.5s-9 -32.833 -9 -53.5v-124h84v-84h-84v-137z" />
    <glyph glyph-name="uni0218" unicode="&#x218;" horiz-adv-x="319" 
d="M24 517c0 20 2.66602 39.3359 7.99902 58.0029s13.5 35.5 24.5 50.5s25 27 42 36s37.5 13.5 61.5 13.5c42.667 0 75.834 -13.333 99.501 -40s35.5 -71.334 35.5 -134.001v-34h-100v44c0 8.66699 -0.5 17.334 -1.5 26.001s-2.66699 16.334 -5 23.001
s-5.83301 12.167 -10.5 16.5s-10.667 6.5 -18 6.5c-13.333 0 -22.333 -7 -27 -21s-7 -30 -7 -48v-23c0 -17.333 3.83301 -33.333 11.5 -48s21.167 -30 40.5 -46c15.333 -12.667 30 -25.667 44 -39s26.5 -27.833 37.5 -43.5s19.667 -32.834 26 -51.501
s9.5 -39.334 9.5 -62.001v-53c0 -19.333 -2.5 -38.333 -7.5 -57s-13 -35.5 -24 -50.5s-25 -27.167 -42 -36.5s-37.5 -14 -61.5 -14c-48 0 -82.667 16 -104 48s-32 75 -32 129v31h102v-44c0 -8.66699 0.333008 -17.334 1 -26.001s2.16699 -16.334 4.5 -23.001
s5.83301 -12.167 10.5 -16.5s10.667 -6.5 18 -6.5c13.333 0 22.5 7 27.5 21s7.5 30 7.5 48v33c0 26 -6.33301 48.333 -19 67s-28 35.667 -46 51c-31.333 26 -56.833 52 -76.5 78s-29.5 57.667 -29.5 95v42zM166.999 -173.997h-73l29 134h92z" />
    <glyph glyph-name="uni0219" unicode="&#x219;" horiz-adv-x="299" 
d="M121 164l0.00292969 -11.998c0 -23.333 1.66699 -42.166 5 -56.499s11.333 -21.5 24 -21.5c10 0 17.667 5.16699 23 15.5s8 24.833 8 43.5s-4.83301 35.667 -14.5 51s-28.834 33 -57.501 53c-30 20 -52 41.5 -66 64.5s-21 52.5 -21 88.5c0 16 2.5 32.167 7.5 48.5
s12.833 31 23.5 44s24 23.5 40 31.5s35 12 57 12c41.333 0 72.5 -13.833 93.5 -41.5s31.5 -66.834 31.5 -117.501v-10h-97v19c0 19.333 -1.83301 35.166 -5.5 47.499s-11.834 18.5 -24.501 18.5c-10.667 0 -18.167 -4.83301 -22.5 -14.5s-6.5 -21.167 -6.5 -34.5
c0 -21.333 6.33301 -38.833 19 -52.5s31.667 -28.5 57 -44.5c31.333 -19.333 53 -42 65 -68s18 -54.333 18 -85c0 -17.333 -2.16699 -35 -6.5 -53s-11.5 -34.333 -21.5 -49s-22.833 -26.834 -38.5 -36.501s-34.834 -14.5 -57.501 -14.5c-44 0 -76.833 14 -98.5 42
s-32.5 69 -32.5 123v9h98zM157.003 -173.998h-73l29 134h92z" />
    <glyph glyph-name="uni021A" unicode="&#x21a;" horiz-adv-x="318" 
d="M107 0v570h-95v95h294v-95h-99v-570h-100zM166 -174h-73l29 134h92z" />
    <glyph glyph-name="uni021B" unicode="&#x21b;" horiz-adv-x="243" 
d="M236 11c-11.333 -7.33301 -22.333 -12.667 -33 -16s-23.667 -5 -39 -5c-45.333 0 -77.833 14.5 -97.5 43.5s-29.5 70.5 -29.5 124.5v458h89l11 -81v-19h85v-84h-85v-280c0 -8 0.5 -16.167 1.5 -24.5s2.83301 -15.833 5.5 -22.5s6.5 -12.167 11.5 -16.5
s11.5 -6.5 19.5 -6.5c14 0 26.667 3.66699 38 11zM143 -174.001h-73l29 134h92z" />
    <glyph glyph-name="dotlessj" unicode="&#x237;" horiz-adv-x="182" 
d="M130 516l11 -85.001v-456c0 -36 -3.5 -65.833 -10.5 -89.5s-17 -42.5 -30 -56.5s-28.333 -24 -46 -30s-37.5 -9 -59.5 -9v92c18.667 0 31 6.83301 37 20.5s9 34.834 9 63.501v550h89z" />
    <glyph glyph-name="circumflex" unicode="&#x2c6;" horiz-adv-x="350" 
d="M216 691l65 -139h-78l-28 74l-28 -74h-78l65 139h82z" />
    <glyph glyph-name="caron" unicode="&#x2c7;" horiz-adv-x="350" 
d="M136 552l-63 139h74l28 -75l28 75h74l-63 -139h-78z" />
    <glyph glyph-name="breve" unicode="&#x2d8;" horiz-adv-x="350" 
d="M277 676v-12c0 -32 -8.5 -57.667 -25.5 -77s-42.833 -29 -77.5 -29c-34 0 -59.667 9.66699 -77 29s-26 45 -26 77v12h78v-12c0 -12 2.16699 -20.5 6.5 -25.5s10.5 -7.5 18.5 -7.5s14.167 2.5 18.5 7.5s6.5 13.5 6.5 25.5v12h78z" />
    <glyph glyph-name="dotaccent" unicode="&#x2d9;" horiz-adv-x="350" 
d="M175 678c16.667 0 30.167 -5.16699 40.5 -15.5s15.5 -23.833 15.5 -40.5c0 -17.333 -5.16699 -31.166 -15.5 -41.499s-23.833 -15.5 -40.5 -15.5s-30.167 5.16699 -40.5 15.5s-15.5 24.166 -15.5 41.499c0 16.667 5.16699 30.167 15.5 40.5s23.833 15.5 40.5 15.5z" />
    <glyph glyph-name="ring" unicode="&#x2da;" horiz-adv-x="350" 
d="M146 630c0 -8.66699 2.66699 -15.834 8 -21.501s12.333 -8.5 21 -8.5s15.5 2.83301 20.5 8.5s7.5 12.834 7.5 21.501c0 8 -2.5 14.833 -7.5 20.5s-11.833 8.5 -20.5 8.5s-15.667 -2.83301 -21 -8.5s-8 -12.5 -8 -20.5zM89 630c0 12 2.33301 23.167 7 33.5
s10.834 19.333 18.501 27s16.667 13.667 27 18s21.5 6.5 33.5 6.5c24 0 44.167 -8.33301 60.5 -25s24.5 -36.667 24.5 -60c0 -12 -2.16699 -23.167 -6.5 -33.5s-10.333 -19.5 -18 -27.5s-16.667 -14.333 -27 -19s-21.5 -7 -33.5 -7s-23.167 2.33301 -33.5 7
s-19.333 11 -27 19s-13.834 17.167 -18.501 27.5s-7 21.5 -7 33.5z" />
    <glyph glyph-name="ogonek" unicode="&#x2db;" horiz-adv-x="350" 
d="M251 0c-21.333 -15.333 -38.666 -32.833 -51.999 -52.5s-20 -41.167 -20 -64.5c0 -19.333 6 -29 18 -29c5.33301 0 9.66602 2 12.999 6s5 12 5 24v10h60v-10c0 -11.333 -1.5 -22.5 -4.5 -33.5s-7.66699 -20.833 -14 -29.5s-14.5 -15.667 -24.5 -21s-22.333 -8 -37 -8
c-27.333 0 -47.833 7.83301 -61.5 23.5s-20.5 36.167 -20.5 61.5c0 20 3.16699 38.167 9.5 54.5s14.666 31 24.999 44s22.333 24.333 36 34s27.834 18.167 42.501 25.5z" />
    <glyph glyph-name="tilde" unicode="&#x2dc;" horiz-adv-x="350" 
d="M55 564c0 39.333 7.16504 67.5 21.498 84.5s30.833 25.5 49.5 25.5c11.333 0 21 -1.66699 29 -5s14.833 -6.83301 20.5 -10.5l16 -10.5c5 -3.33301 10.167 -5 15.5 -5c4.66699 0 8.33398 2 11.001 6s4 11 4 21v7h73v-7c0 -40 -6.66699 -68.667 -20 -86
s-29.666 -26 -48.999 -26c-10 0 -19 1.83301 -27 5.5s-15.167 7.66699 -21.5 12l-17.5 12c-5.33301 3.66699 -10.333 5.5 -15 5.5c-5.33301 0 -9.5 -2 -12.5 -6s-4.5 -11.667 -4.5 -23v-6h-73v6z" />
    <glyph glyph-name="hungarumlaut" unicode="&#x2dd;" horiz-adv-x="350" 
d="M337 691l-70 -139h-78l51 139h97zM209 691l-62 -139h-77l42 139h97z" />
    <glyph glyph-name="uni0394" unicode="&#x394;" horiz-adv-x="308" 
d="M210 92l-56 385l-56 -385h112zM119 665h70l106 -559v-106h-282v106z" />
    <glyph glyph-name="uni03A9" unicode="&#x3a9;" 
d="M304 231c0 -33.333 -6.1709 -62 -18.5039 -86s-31.166 -41.667 -56.499 -53h75v-92h-124v96c4.66699 6.66699 8.5 15.667 11.5 27s5.5 23.166 7.5 35.499s3.33301 24.5 4 36.5s1 22 1 30v286c0 8.66699 -0.5 17.334 -1.5 26.001s-2.83301 16.334 -5.5 23.001
s-6.5 12.167 -11.5 16.5s-11.167 6.5 -18.5 6.5s-13.333 -2.16699 -18 -6.5s-8.16699 -9.83301 -10.5 -16.5s-3.83301 -14.334 -4.5 -23.001s-1 -17.334 -1 -26.001v-286c0 -8 0.333008 -18 1 -30s1.83398 -24.167 3.50098 -36.5s3.83398 -24.166 6.50098 -35.499
s6 -20.333 10 -27v-96h-121v92h75c-23.333 11.333 -41.666 29 -54.999 53s-20 52.667 -20 86v272c0 56 10.833 98.667 32.5 128s55.5 44 101.5 44s80.333 -14.667 103 -44s34 -72 34 -128v-272z" />
    <glyph glyph-name="pi" unicode="&#x3c0;" horiz-adv-x="409" 
d="M336 0h-100v424h-63v-424h-100v424h-49v92h361v-92h-49v-424z" />
    <glyph glyph-name="Wgrave" unicode="&#x1e80;" horiz-adv-x="473" 
d="M271 665l54 -466h4l30 466h100l-75 -665h-97l-52 394h-4l-53 -394h-91l-73 665h100l29 -466h3l55 466h70zM265 846l38 -139h-81l-58 139h101z" />
    <glyph glyph-name="wgrave" unicode="&#x1e81;" horiz-adv-x="471" 
d="M196 516h79l43 -323h4l33 323h100l-73 -516h-94l-51 305h-5l-50 -305h-94l-72 516h100l30 -323h4zM264 691l38 -139h-81l-58 139h101z" />
    <glyph glyph-name="Wacute" unicode="&#x1e82;" horiz-adv-x="473" 
d="M271 665l54 -466h4l30 466h100l-75 -665h-97l-52 394h-4l-53 -394h-91l-73 665h100l29 -466h3l55 466h70zM325 846l-58 -139h-82l39 139h101z" />
    <glyph glyph-name="wacute" unicode="&#x1e83;" horiz-adv-x="471" 
d="M196 516h79l43 -323h4l33 323h100l-73 -516h-94l-51 305h-5l-50 -305h-94l-72 516h100l30 -323h4zM324 691l-58 -139h-82l39 139h101z" />
    <glyph glyph-name="Wdieresis" unicode="&#x1e84;" horiz-adv-x="473" 
d="M271 665l54 -466h4l30 466h100l-75 -665h-97l-52 394h-4l-53 -394h-91l-73 665h100l29 -466h3l55 466h70zM168 833c16.667 0 30.167 -5.16699 40.5 -15.5s15.5 -23.833 15.5 -40.5c0 -17.333 -5.16699 -31 -15.5 -41s-23.833 -15 -40.5 -15c-16 0 -29.333 5 -40 15
s-16 23.667 -16 41c0 16.667 5.33301 30.167 16 40.5s24 15.5 40 15.5zM304 833c16.667 0 30.167 -5.16699 40.5 -15.5s15.5 -23.833 15.5 -40.5c0 -17.333 -5.16699 -31 -15.5 -41s-23.833 -15 -40.5 -15c-16 0 -29.333 5 -40 15s-16 23.667 -16 41
c0 16.667 5.33301 30.167 16 40.5s24 15.5 40 15.5z" />
    <glyph glyph-name="wdieresis" unicode="&#x1e85;" horiz-adv-x="471" 
d="M196 516h79l43 -323h4l33 323h100l-73 -516h-94l-51 305h-5l-50 -305h-94l-72 516h100l30 -323h4zM167 678c16.667 0 30.167 -5.16699 40.5 -15.5s15.5 -23.833 15.5 -40.5c0 -17.333 -5.16699 -31 -15.5 -41s-23.833 -15 -40.5 -15c-16 0 -29.333 5 -40 15
s-16 23.667 -16 41c0 16.667 5.33301 30.167 16 40.5s24 15.5 40 15.5zM303 678c16.667 0 30.167 -5.16699 40.5 -15.5s15.5 -23.833 15.5 -40.5c0 -17.333 -5.16699 -31 -15.5 -41s-23.833 -15 -40.5 -15c-16 0 -29.333 5 -40 15s-16 23.667 -16 41
c0 16.667 5.33301 30.167 16 40.5s24 15.5 40 15.5z" />
    <glyph glyph-name="Ygrave" unicode="&#x1ef2;" horiz-adv-x="354" 
d="M227 198v-198h-100v199l-113 466h103l58 -320h3l59 320h103zM206 846l38 -139h-81l-58 139h101z" />
    <glyph glyph-name="ygrave" unicode="&#x1ef3;" horiz-adv-x="309" 
d="M17 516l100 0.000976562l38 -343h4l36 343h100l-103 -565c-4 -22 -10.5 -42.833 -19.5 -62.5s-20.5 -36.834 -34.5 -51.501s-31 -26.167 -51 -34.5s-43.333 -12.5 -70 -12.5v92c18 0 35.5 6.16699 52.5 18.5s27.833 32.5 32.5 60.5l6 32zM184 691.001l38 -139h-81
l-58 139h101z" />
    <glyph glyph-name="endash" unicode="&#x2013;" horiz-adv-x="500" 
d="M50 364h400v-92h-400v92z" />
    <glyph glyph-name="emdash" unicode="&#x2014;" horiz-adv-x="1000" 
d="M50 364h900v-92h-900v92z" />
    <glyph glyph-name="quoteleft" unicode="&#x2018;" horiz-adv-x="187" 
d="M76 683h66l-13 -238h-93z" />
    <glyph glyph-name="quoteright" unicode="&#x2019;" horiz-adv-x="187" 
d="M111 445h-66l13 238h93z" />
    <glyph glyph-name="quotesinglbase" unicode="&#x201a;" horiz-adv-x="187" 
d="M111 -164h-66l13 205h93z" />
    <glyph glyph-name="quotedblleft" unicode="&#x201c;" horiz-adv-x="319" 
d="M76 683h66l-13 -238h-93zM208 683h66l-13 -238h-93z" />
    <glyph glyph-name="quotedblright" unicode="&#x201d;" horiz-adv-x="319" 
d="M111 445h-66l13 238h93zM243 445h-66l13 238h93z" />
    <glyph glyph-name="quotedblbase" unicode="&#x201e;" horiz-adv-x="319" 
d="M111 -164h-66l13 205h93zM243 -164h-66l13 205h93z" />
    <glyph glyph-name="dagger" unicode="&#x2020;" horiz-adv-x="293" 
d="M29 533h67v177h100v-177h68v-92h-68v-441h-100v441h-67v92z" />
    <glyph glyph-name="daggerdbl" unicode="&#x2021;" horiz-adv-x="293" 
d="M29 533h67v177h100v-177h68v-92h-68v-171h68v-92h-68v-178h-100v178h-67v92h67v171h-67v92z" />
    <glyph glyph-name="bullet" unicode="&#x2022;" horiz-adv-x="272" 
d="M35 331c0 31.333 9.5 56.333 28.5 75s43.167 28 72.5 28s53.5 -9.33301 72.5 -28s28.5 -43.667 28.5 -75s-9.5 -56.166 -28.5 -74.499s-43.167 -27.5 -72.5 -27.5s-53.5 9.16699 -72.5 27.5s-28.5 43.166 -28.5 74.499z" />
    <glyph glyph-name="ellipsis" unicode="&#x2026;" horiz-adv-x="540" 
d="M25 56c0 18 5.66699 32.667 17 44s26 17 44 17s32.667 -5.66699 44 -17s17 -26 17 -44s-5.66699 -32.667 -17 -44s-26 -17 -44 -17s-32.667 5.66699 -44 17s-17 26 -17 44zM209 56c0 18 5.66699 32.667 17 44s26 17 44 17s32.667 -5.66699 44 -17s17 -26 17 -44
s-5.66699 -32.667 -17 -44s-26 -17 -44 -17s-32.667 5.66699 -44 17s-17 26 -17 44zM393 56c0 18 5.66699 32.667 17 44s26 17 44 17s32.667 -5.66699 44 -17s17 -26 17 -44s-5.66699 -32.667 -17 -44s-26 -17 -44 -17s-32.667 5.66699 -44 17s-17 26 -17 44z" />
    <glyph glyph-name="perthousand" unicode="&#x2030;" horiz-adv-x="893" 
d="M234 384c0 -16.667 -1.83301 -32.334 -5.5 -47.001s-9.83398 -27.334 -18.501 -38.001s-19.667 -19.167 -33 -25.5s-29.333 -9.5 -48 -9.5c-19.333 0 -35.666 3.16699 -48.999 9.5s-24.333 14.833 -33 25.5s-15 23.334 -19 38.001s-6 30.334 -6 47.001v171
c0 16.667 2 32.334 6 47.001s10.333 27.334 19 38.001s19.667 19.167 33 25.5s29.666 9.5 48.999 9.5c18.667 0 34.667 -3.16699 48 -9.5s24.333 -14.833 33 -25.5s14.834 -23.334 18.501 -38.001s5.5 -30.334 5.5 -47.001v-171zM150 562c0 11.333 -1.5 20.5 -4.5 27.5
s-8.83301 10.5 -17.5 10.5s-14.667 -3.5 -18 -10.5s-5 -16.167 -5 -27.5v-185c0 -11.333 1.66699 -20.5 5 -27.5s9.33301 -10.5 18 -10.5s14.5 3.5 17.5 10.5s4.5 16.167 4.5 27.5v185zM622 111c0 -16.667 -1.83301 -32.334 -5.5 -47.001s-9.83398 -27.334 -18.501 -38.001
s-19.667 -19.167 -33 -25.5s-29.333 -9.5 -48 -9.5c-19.333 0 -35.666 3.16699 -48.999 9.5s-24.333 14.833 -33 25.5s-15 23.334 -19 38.001s-6 30.334 -6 47.001v171c0 16.667 2 32.334 6 47.001s10.333 27.334 19 38.001s19.667 19.167 33 25.5s29.666 9.5 48.999 9.5
c18.667 0 34.667 -3.16699 48 -9.5s24.333 -14.833 33 -25.5s14.834 -23.334 18.501 -38.001s5.5 -30.334 5.5 -47.001v-171zM538 289c0 11.333 -1.5 20.5 -4.5 27.5s-8.83301 10.5 -17.5 10.5s-14.667 -3.5 -18 -10.5s-5 -16.167 -5 -27.5v-185
c0 -11.333 1.66699 -20.5 5 -27.5s9.33301 -10.5 18 -10.5s14.5 3.5 17.5 10.5s4.5 16.167 4.5 27.5v185zM225 0h-84l278 665h84zM871 111c0 -16.667 -1.83301 -32.334 -5.5 -47.001s-9.83398 -27.334 -18.501 -38.001s-19.667 -19.167 -33 -25.5s-29.333 -9.5 -48 -9.5
c-19.333 0 -35.666 3.16699 -48.999 9.5s-24.333 14.833 -33 25.5s-15 23.334 -19 38.001s-6 30.334 -6 47.001v171c0 16.667 2 32.334 6 47.001s10.333 27.334 19 38.001s19.667 19.167 33 25.5s29.666 9.5 48.999 9.5c18.667 0 34.667 -3.16699 48 -9.5
s24.333 -14.833 33 -25.5s14.834 -23.334 18.501 -38.001s5.5 -30.334 5.5 -47.001v-171zM787 289c0 11.333 -1.5 20.5 -4.5 27.5s-8.83301 10.5 -17.5 10.5s-14.667 -3.5 -18 -10.5s-5 -16.167 -5 -27.5v-185c0 -11.333 1.66699 -20.5 5 -27.5s9.33301 -10.5 18 -10.5
s14.5 3.5 17.5 10.5s4.5 16.167 4.5 27.5v185z" />
    <glyph glyph-name="guilsinglleft" unicode="&#x2039;" horiz-adv-x="242" 
d="M155 483l66 -68l-102 -122l102 -122l-66 -69l-122 145v92z" />
    <glyph glyph-name="guilsinglright" unicode="&#x203a;" horiz-adv-x="242" 
d="M87 102l-66 69l102 122l-102 122l66 68l122 -144v-92z" />
    <glyph glyph-name="fraction" unicode="&#x2044;" horiz-adv-x="142" 
d="M-26 0h-84l278 665h84z" />
    <glyph glyph-name="zerosuperior" unicode="&#x2070;" horiz-adv-x="256" 
d="M234 384c0 -16.667 -1.83301 -32.334 -5.5 -47.001s-9.83398 -27.334 -18.501 -38.001s-19.667 -19.167 -33 -25.5s-29.333 -9.5 -48 -9.5c-19.333 0 -35.666 3.16699 -48.999 9.5s-24.333 14.833 -33 25.5s-15 23.334 -19 38.001s-6 30.334 -6 47.001v171
c0 16.667 2 32.334 6 47.001s10.333 27.334 19 38.001s19.667 19.167 33 25.5s29.666 9.5 48.999 9.5c18.667 0 34.667 -3.16699 48 -9.5s24.333 -14.833 33 -25.5s14.834 -23.334 18.501 -38.001s5.5 -30.334 5.5 -47.001v-171zM150 562c0 11.333 -1.5 20.5 -4.5 27.5
s-8.83301 10.5 -17.5 10.5s-14.667 -3.5 -18 -10.5s-5 -16.167 -5 -27.5v-185c0 -11.333 1.66699 -20.5 5 -27.5s9.33301 -10.5 18 -10.5s14.5 3.5 17.5 10.5s4.5 16.167 4.5 27.5v185z" />
    <glyph glyph-name="foursuperior" unicode="&#x2074;" horiz-adv-x="256" 
d="M157 338h-138v91l94 240h83l-98 -256h59v63h76v-206h-76v68z" />
    <glyph glyph-name="fivesuperior" unicode="&#x2075;" horiz-adv-x="256" 
d="M21 669h207v-75h-127v-75c12 18 30.333 27 55 27c22 0 40.5 -8.5 55.5 -25.5s22.5 -46.5 22.5 -88.5v-48c0 -34 -9.16699 -62.5 -27.5 -85.5s-44.833 -34.5 -79.5 -34.5c-35.333 0 -61.833 10 -79.5 30s-26.5 45.333 -26.5 76v22h84v-15c0 -11.333 1.5 -20.5 4.5 -27.5
s9.16699 -10.5 18.5 -10.5c8 0 13.667 3.5 17 10.5s5 16.167 5 27.5v60c0 10 -1.66699 18.167 -5 24.5s-8.66602 9.5 -15.999 9.5s-12.833 -2.5 -16.5 -7.5s-5.83398 -11.167 -6.50098 -18.5h-85v224z" />
    <glyph glyph-name="sixsuperior" unicode="&#x2076;" horiz-adv-x="256" 
d="M150 555l0.00390625 6.99902c0 11.333 -1.5 20.5 -4.5 27.5s-8.83301 10.5 -17.5 10.5s-14.667 -3.5 -18 -10.5s-5 -16.167 -5 -27.5v-81c4 12 10.667 22 20 30s21.666 12 36.999 12c21.333 0 38.666 -8.33301 51.999 -25s20 -42 20 -76v-38
c0 -16.667 -1.83301 -32.334 -5.5 -47.001s-9.83398 -27.334 -18.501 -38.001s-19.667 -19.167 -33 -25.5s-29.333 -9.5 -48 -9.5c-19.333 0 -35.666 3.16699 -48.999 9.5s-24.333 14.833 -33 25.5s-15 23.334 -19 38.001s-6 30.334 -6 47.001v171
c0 16.667 2 32.334 6 47.001s10.333 27.334 19 38.001s19.667 19.167 33 25.5s29.666 9.5 48.999 9.5c18.667 0 34.667 -3 48 -9s24.166 -14.167 32.499 -24.5s14.5 -22.333 18.5 -36s6 -27.834 6 -42.501v-8h-84zM128.004 338.999c8.66699 0 14.5 3.5 17.5 10.5
s4.5 16.167 4.5 27.5v36c0 11.333 -1.5 20.5 -4.5 27.5s-8.83301 10.5 -17.5 10.5s-14.667 -3.5 -18 -10.5s-5 -16.167 -5 -27.5v-36c0 -11.333 1.66699 -20.5 5 -27.5s9.33301 -10.5 18 -10.5z" />
    <glyph glyph-name="sevensuperior" unicode="&#x2077;" horiz-adv-x="256" 
d="M30 270l123 324h-134v75h217v-87l-118 -312h-88z" />
    <glyph glyph-name="eightsuperior" unicode="&#x2078;" horiz-adv-x="256" 
d="M22 576c0 30 9.33496 53.9971 28.002 71.9971s45 27 79 27s60 -10 78 -30s27 -43.333 27 -70v-13c0 -19.333 -4.33301 -35.166 -13 -47.499s-21.334 -25.166 -38.001 -38.499c15.333 -12.667 27.666 -26.5 36.999 -41.5s14 -34.167 14 -57.5v-14
c0 -29.333 -8.5 -53.166 -25.5 -71.499s-43.5 -27.5 -79.5 -27.5c-18 0 -33.667 2.66699 -47 8s-24.5 12.5 -33.5 21.5s-15.667 19.5 -20 31.5s-6.5 24.333 -6.5 37v15c0 23.333 4.33301 42.5 13 57.5s20.667 28.833 36 41.5c-15.333 13.333 -27.333 26.333 -36 39
s-13 28.667 -13 48v13zM105.002 374.997c0 -10.667 1.49902 -19.334 4.49902 -26.001s9.16699 -10 18.5 -10c8.66699 0 14.5 3.33301 17.5 10s4.5 15.334 4.5 26.001v14c0 8 -1.5 15.667 -4.5 23s-8.5 15 -16.5 23c-9.33301 -7.33301 -15.666 -14.5 -18.999 -21.5
s-5 -15.167 -5 -24.5v-14zM105.001 557.997c0 -10.667 1.66699 -18.834 5 -24.501s9.66602 -12.5 18.999 -20.5c8.66699 8 14.334 14.833 17.001 20.5s4 13.834 4 24.501v9c0 9.33301 -1.5 17.166 -4.5 23.499s-8.83301 9.5 -17.5 9.5s-14.667 -3.16699 -18 -9.5
s-5 -14.166 -5 -23.499v-9z" />
    <glyph glyph-name="ninesuperior" unicode="&#x2079;" horiz-adv-x="256" 
d="M105 384v-6.99805c0 -11.333 1.5 -20.5 4.5 -27.5s9.16699 -10.5 18.5 -10.5c8.66699 0 14.5 3.5 17.5 10.5s4.5 16.167 4.5 27.5v75c-4 -9.33301 -10.5 -17.666 -19.5 -24.999s-20.167 -11 -33.5 -11c-22 0 -40 8.33301 -54 25s-21 42 -21 76v38
c0 16.667 2 32.334 6 47.001s10.333 27.334 19 38.001s19.667 19.167 33 25.5s29.333 9.5 48 9.5s34.667 -3.16699 48 -9.5s24.333 -14.833 33 -25.5s15 -23.334 19 -38.001s6 -30.334 6 -47.001v-171c0 -16.667 -1.83301 -32.334 -5.5 -47.001
s-9.83398 -27.334 -18.501 -38.001s-19.667 -19.167 -33 -25.5s-29.333 -9.5 -48 -9.5c-19.333 0 -35.666 3.16699 -48.999 9.5s-24.333 14.666 -33 24.999s-15 22.333 -19 36s-6 28.167 -6 43.5v6h83zM128 600.002c-9.33301 0 -15.498 -3.5 -18.498 -10.5
s-4.5 -16.167 -4.5 -27.5v-33c0 -10 1.66699 -19.333 5 -28s9.66602 -13 18.999 -13c7.33301 0 12.666 4.33301 15.999 13s5 18 5 28v33c0 11.333 -1.5 20.5 -4.5 27.5s-8.83301 10.5 -17.5 10.5z" />
    <glyph glyph-name="zeroinferior" unicode="&#x2080;" horiz-adv-x="256" 
d="M234 114c0 -16.667 -1.83301 -32.334 -5.5 -47.001s-9.83398 -27.334 -18.501 -38.001s-19.667 -19.167 -33 -25.5s-29.333 -9.5 -48 -9.5c-19.333 0 -35.666 3.16699 -48.999 9.5s-24.333 14.833 -33 25.5s-15 23.334 -19 38.001s-6 30.334 -6 47.001v171
c0 16.667 2 32.334 6 47.001s10.333 27.334 19 38.001s19.667 19.167 33 25.5s29.666 9.5 48.999 9.5c18.667 0 34.667 -3.16699 48 -9.5s24.333 -14.833 33 -25.5s14.834 -23.334 18.501 -38.001s5.5 -30.334 5.5 -47.001v-171zM150 292c0 11.333 -1.5 20.5 -4.5 27.5
s-8.83301 10.5 -17.5 10.5s-14.667 -3.5 -18 -10.5s-5 -16.167 -5 -27.5v-185c0 -11.333 1.66699 -20.5 5 -27.5s9.33301 -10.5 18 -10.5s14.5 3.5 17.5 10.5s4.5 16.167 4.5 27.5v185z" />
    <glyph glyph-name="oneinferior" unicode="&#x2081;" horiz-adv-x="256" 
d="M125 0v305l-61 -49l-49 66l98 77h96v-399h-84z" />
    <glyph glyph-name="twoinferior" unicode="&#x2082;" horiz-adv-x="256" 
d="M20 279v15.001c0 31.333 8.16699 57.666 24.5 78.999s44.166 32 83.499 32c38.667 0 66 -9 82 -27s24 -42 24 -72v-11c0 -18 -5.33301 -38.167 -16 -60.5s-26 -47.166 -46 -74.499l-58 -85h120v-75h-206v83l50 73c24 33.333 42 59.666 54 78.999s18 37 18 53v7
c0 23.333 -7.33301 35 -22 35c-9.33301 0 -15.666 -3.16699 -18.999 -9.5s-5 -15.833 -5 -28.5v-13h-84z" />
    <glyph glyph-name="threeinferior" unicode="&#x2083;" horiz-adv-x="256" 
d="M150 296c0 10 -1.66602 18.1689 -4.99902 24.502s-9.33301 9.5 -18 9.5s-14.667 -3.5 -18 -10.5s-5 -16.167 -5 -27.5v-6h-84v7c0 34 9 61.167 27 81.5s45 30.5 81 30.5s62.667 -9.33301 80 -28s26 -40.334 26 -65.001v-20c0 -18.667 -3.83301 -34.667 -11.5 -48
s-17.5 -23.333 -29.5 -30v-3c12 -6.66699 21.833 -16.834 29.5 -30.501s11.5 -30.167 11.5 -49.5v-29c0 -32 -8.66699 -58 -26 -78s-44 -30 -80 -30s-63 9.5 -81 28.5s-27 45.5 -27 79.5v17h84v-12c0 -11.333 1.66699 -20.5 5 -27.5s9.33301 -10.5 18 -10.5
s14.667 3.5 18 10.5s5 16.167 5 27.5v23c0 14 -2.33301 24.333 -7 31s-13.334 10 -26.001 10h-32v72h24c15.333 0 26 4 32 12s9 18.667 9 32v9z" />
    <glyph glyph-name="fourinferior" unicode="&#x2084;" horiz-adv-x="256" 
d="M157 68h-138v91l94 240h83l-98 -256h59v63h76v-206h-76v68z" />
    <glyph glyph-name="fiveinferior" unicode="&#x2085;" horiz-adv-x="256" 
d="M21 399h207v-75h-127v-75c12 18 30.333 27 55 27c22 0 40.5 -8.5 55.5 -25.5s22.5 -46.5 22.5 -88.5v-48c0 -34 -9.16699 -62.5 -27.5 -85.5s-44.833 -34.5 -79.5 -34.5c-35.333 0 -61.833 10 -79.5 30s-26.5 45.333 -26.5 76v22h84v-15c0 -11.333 1.5 -20.5 4.5 -27.5
s9.16699 -10.5 18.5 -10.5c8 0 13.667 3.5 17 10.5s5 16.167 5 27.5v60c0 10 -1.66699 18.167 -5 24.5s-8.66602 9.5 -15.999 9.5s-12.833 -2.5 -16.5 -7.5s-5.83398 -11.167 -6.50098 -18.5h-85v224z" />
    <glyph glyph-name="sixinferior" unicode="&#x2086;" horiz-adv-x="256" 
d="M150 285l0.00390625 6.99902c0 11.333 -1.5 20.5 -4.5 27.5s-8.83301 10.5 -17.5 10.5s-14.667 -3.5 -18 -10.5s-5 -16.167 -5 -27.5v-81c4 12 10.667 22 20 30s21.666 12 36.999 12c21.333 0 38.666 -8.33301 51.999 -25s20 -42 20 -76v-38
c0 -16.667 -1.83301 -32.334 -5.5 -47.001s-9.83398 -27.334 -18.501 -38.001s-19.667 -19.167 -33 -25.5s-29.333 -9.5 -48 -9.5c-19.333 0 -35.666 3.16699 -48.999 9.5s-24.333 14.833 -33 25.5s-15 23.334 -19 38.001s-6 30.334 -6 47.001v171
c0 16.667 2 32.334 6 47.001s10.333 27.334 19 38.001s19.667 19.167 33 25.5s29.666 9.5 48.999 9.5c18.667 0 34.667 -3 48 -9s24.166 -14.167 32.499 -24.5s14.5 -22.333 18.5 -36s6 -27.834 6 -42.501v-8h-84zM128.004 68.999c8.66699 0 14.5 3.5 17.5 10.5
s4.5 16.167 4.5 27.5v36c0 11.333 -1.5 20.5 -4.5 27.5s-8.83301 10.5 -17.5 10.5s-14.667 -3.5 -18 -10.5s-5 -16.167 -5 -27.5v-36c0 -11.333 1.66699 -20.5 5 -27.5s9.33301 -10.5 18 -10.5z" />
    <glyph glyph-name="seveninferior" unicode="&#x2087;" horiz-adv-x="256" 
d="M30 0l123 324h-134v75h217v-87l-118 -312h-88z" />
    <glyph glyph-name="eightinferior" unicode="&#x2088;" horiz-adv-x="256" 
d="M22 306c0 30 9.33496 53.9971 28.002 71.9971s45 27 79 27s60 -10 78 -30s27 -43.333 27 -70v-13c0 -19.333 -4.33301 -35.166 -13 -47.499s-21.334 -25.166 -38.001 -38.499c15.333 -12.667 27.666 -26.5 36.999 -41.5s14 -34.167 14 -57.5v-14
c0 -29.333 -8.5 -53.166 -25.5 -71.499s-43.5 -27.5 -79.5 -27.5c-18 0 -33.667 2.66699 -47 8s-24.5 12.5 -33.5 21.5s-15.667 19.5 -20 31.5s-6.5 24.333 -6.5 37v15c0 23.333 4.33301 42.5 13 57.5s20.667 28.833 36 41.5c-15.333 13.333 -27.333 26.333 -36 39
s-13 28.667 -13 48v13zM105.002 104.997c0 -10.667 1.49902 -19.334 4.49902 -26.001s9.16699 -10 18.5 -10c8.66699 0 14.5 3.33301 17.5 10s4.5 15.334 4.5 26.001v14c0 8 -1.5 15.667 -4.5 23s-8.5 15 -16.5 23c-9.33301 -7.33301 -15.666 -14.5 -18.999 -21.5
s-5 -15.167 -5 -24.5v-14zM105.001 287.997c0 -10.667 1.66699 -18.834 5 -24.501s9.66602 -12.5 18.999 -20.5c8.66699 8 14.334 14.833 17.001 20.5s4 13.834 4 24.501v9c0 9.33301 -1.5 17.166 -4.5 23.499s-8.83301 9.5 -17.5 9.5s-14.667 -3.16699 -18 -9.5
s-5 -14.166 -5 -23.499v-9z" />
    <glyph glyph-name="nineinferior" unicode="&#x2089;" horiz-adv-x="256" 
d="M105 114v-6.99805c0 -11.333 1.5 -20.5 4.5 -27.5s9.16699 -10.5 18.5 -10.5c8.66699 0 14.5 3.5 17.5 10.5s4.5 16.167 4.5 27.5v75c-4 -9.33301 -10.5 -17.666 -19.5 -24.999s-20.167 -11 -33.5 -11c-22 0 -40 8.33301 -54 25s-21 42 -21 76v38
c0 16.667 2 32.334 6 47.001s10.333 27.334 19 38.001s19.667 19.167 33 25.5s29.333 9.5 48 9.5s34.667 -3.16699 48 -9.5s24.333 -14.833 33 -25.5s15 -23.334 19 -38.001s6 -30.334 6 -47.001v-171c0 -16.667 -1.83301 -32.334 -5.5 -47.001
s-9.83398 -27.334 -18.501 -38.001s-19.667 -19.167 -33 -25.5s-29.333 -9.5 -48 -9.5c-19.333 0 -35.666 3.16699 -48.999 9.5s-24.333 14.666 -33 24.999s-15 22.333 -19 36s-6 28.167 -6 43.5v6h83zM128 330.002c-9.33301 0 -15.498 -3.5 -18.498 -10.5
s-4.5 -16.167 -4.5 -27.5v-33c0 -10 1.66699 -19.333 5 -28s9.66602 -13 18.999 -13c7.33301 0 12.666 4.33301 15.999 13s5 18 5 28v33c0 11.333 -1.5 20.5 -4.5 27.5s-8.83301 10.5 -17.5 10.5z" />
    <glyph glyph-name="Euro" unicode="&#x20ac;" horiz-adv-x="366" 
d="M235 475l-0.00292969 35.998c0 18 -2.66699 34.5 -8 49.5s-14.666 22.5 -27.999 22.5c-6.66699 0 -12.334 -2.16699 -17.001 -6.5s-8.33398 -10 -11.001 -17s-4.5 -14.667 -5.5 -23s-1.5 -16.833 -1.5 -25.5v-91h125v-68h-125v-40h125v-68h-125v-90
c0 -8 0.5 -16.333 1.5 -25s2.83301 -16.5 5.5 -23.5s6.33398 -12.667 11.001 -17s10.334 -6.5 17.001 -6.5s12.334 2.16699 17.001 6.5s8.33398 9.83301 11.001 16.5s4.66699 14.334 6 23.001s2 17.334 2 26.001v36h101v-4c0 -69.333 -11.833 -119.333 -35.5 -150
s-57.5 -46 -101.5 -46c-46 0 -80 14.667 -102 44s-33 72 -33 128v82h-45v68h45v40h-45v68h45v83c0 56 11 98.667 33 128s56 44 102 44c44.667 0 78.667 -15 102 -45s35 -78.333 35 -145v-10h-101z" />
    <glyph glyph-name="uni2113" unicode="&#x2113;" horiz-adv-x="424" 
d="M15 214l38.999 28.5049c12.667 9.66699 24.667 19.5 36 29.5c2.66699 53.333 10.834 106.166 24.501 158.499s31 99.166 52 140.499s44.833 74.833 71.5 100.5s54.667 38.5 84 38.5c15.333 0 27.833 -2.83301 37.5 -8.5s17.334 -12.834 23.001 -21.501
s9.5 -18.5 11.5 -29.5s3 -21.5 3 -31.5c0 -62.667 -20.5 -125.334 -61.5 -188.001s-97.167 -125 -168.5 -187c0 -52 3.5 -93.333 10.5 -124s18.167 -46 33.5 -46c14 0 28 8.66699 42 26s27.333 38.666 40 63.999l63 -39c-9.33301 -18 -19.333 -35 -30 -51
s-22.334 -30.333 -35.001 -43s-26.5 -22.667 -41.5 -30s-30.833 -11 -47.5 -11c-34.667 0 -61 16.667 -79 50s-28.667 81.333 -32 144c-6 -4.66699 -12 -9 -18 -13s-11.667 -8.33301 -17 -13zM301.999 627.005c-9.33301 0 -19.832 -7.66602 -31.499 -22.999
s-23.334 -35.833 -35.001 -61.5s-22.667 -54.834 -33 -87.501s-18.5 -66 -24.5 -100c48 49.333 83.5 94.833 106.5 136.5s34.5 76.167 34.5 103.5c0 21.333 -5.66699 32 -17 32z" />
    <glyph glyph-name="trademark" unicode="&#x2122;" horiz-adv-x="439" 
d="M57 419v198h-42v48h136v-48h-42v-198h-52zM179 419v246h76l37 -134h2l37 134h75v-246h-49v188h-2l-47 -157h-31l-46 157h-2v-188h-50z" />
    <glyph glyph-name="Omega" unicode="&#x2126;" 
d="M304 231c0 -33.333 -6.1709 -62 -18.5039 -86s-31.166 -41.667 -56.499 -53h75v-92h-124v96c4.66699 6.66699 8.5 15.667 11.5 27s5.5 23.166 7.5 35.499s3.33301 24.5 4 36.5s1 22 1 30v286c0 8.66699 -0.5 17.334 -1.5 26.001s-2.83301 16.334 -5.5 23.001
s-6.5 12.167 -11.5 16.5s-11.167 6.5 -18.5 6.5s-13.333 -2.16699 -18 -6.5s-8.16699 -9.83301 -10.5 -16.5s-3.83301 -14.334 -4.5 -23.001s-1 -17.334 -1 -26.001v-286c0 -8 0.333008 -18 1 -30s1.83398 -24.167 3.50098 -36.5s3.83398 -24.166 6.50098 -35.499
s6 -20.333 10 -27v-96h-121v92h75c-23.333 11.333 -41.666 29 -54.999 53s-20 52.667 -20 86v272c0 56 10.833 98.667 32.5 128s55.5 44 101.5 44s80.333 -14.667 103 -44s34 -72 34 -128v-272z" />
    <glyph glyph-name="estimated" unicode="&#x212e;" horiz-adv-x="833" 
d="M207 302c-3.33301 0 -5.00195 -1.33203 -5.00195 -3.99902v-176c0 -8 2.66699 -14.667 8 -20c28 -30 60.833 -53.5 98.5 -70.5s78.5 -25.5 122.5 -25.5c46.667 0 89.834 9.66699 129.501 29s73.834 45.333 102.501 78h52c-32.667 -38 -73.667 -68.5 -123 -91.5
s-103.333 -34.5 -162 -34.5c-50 0 -96.833 8.5 -140.5 25.5s-81.667 40.167 -114 69.5s-58 63.666 -77 102.999s-28.5 81.333 -28.5 126s9.5 86.667 28.5 126s44.667 73.666 77 102.999s70.333 52.5 114 69.5s90.5 25.5 140.5 25.5s96.833 -8.5 140.5 -25.5
s81.667 -40.167 114 -69.5s58 -63.666 77 -102.999s28.5 -81.333 28.5 -126v-9h-583zM657.998 503.001c0 8 -3 15 -9 21c-28 28 -60.667 50.333 -98 67s-77.333 25 -120 25c-43.333 0 -83.833 -8.5 -121.5 -25.5s-70.5 -40.167 -98.5 -69.5c-6 -6 -9 -13.333 -9 -22v-174
c0 -3.33301 1.66699 -5 5 -5h447c2.66699 0 4 1.66699 4 5v178z" />
    <glyph glyph-name="onethird" unicode="&#x2153;" horiz-adv-x="653" 
d="M124 270v305l-61 -49l-49 66l98 77h96v-399h-84zM228 0h-84l278 665h84zM548 296c0 10 -1.66602 18.1689 -4.99902 24.502s-9.33301 9.5 -18 9.5s-14.667 -3.5 -18 -10.5s-5 -16.167 -5 -27.5v-6h-84v7c0 34 9 61.167 27 81.5s45 30.5 81 30.5s62.667 -9.33301 80 -28
s26 -40.334 26 -65.001v-20c0 -18.667 -3.83301 -34.667 -11.5 -48s-17.5 -23.333 -29.5 -30v-3c12 -6.66699 21.833 -16.834 29.5 -30.501s11.5 -30.167 11.5 -49.5v-29c0 -32 -8.66699 -58 -26 -78s-44 -30 -80 -30s-63 9.5 -81 28.5s-27 45.5 -27 79.5v17h84v-12
c0 -11.333 1.66699 -20.5 5 -27.5s9.33301 -10.5 18 -10.5s14.667 3.5 18 10.5s5 16.167 5 27.5v23c0 14 -2.33301 24.333 -7 31s-13.334 10 -26.001 10h-32v72h24c15.333 0 26 4 32 12s9 18.667 9 32v9z" />
    <glyph glyph-name="twothirds" unicode="&#x2154;" horiz-adv-x="653" 
d="M21 549v15.001c0 31.333 8.16699 57.666 24.5 78.999s44.166 32 83.499 32c38.667 0 66 -9 82 -27s24 -42 24 -72v-11c0 -18 -5.33301 -38.167 -16 -60.5s-26 -47.166 -46 -74.499l-58 -85h120v-75h-206v83l50 73c24 33.333 42 59.666 54 78.999s18 37 18 53v7
c0 23.333 -7.33301 35 -22 35c-9.33301 0 -15.666 -3.16699 -18.999 -9.5s-5 -15.833 -5 -28.5v-13h-84zM236 0.000976562h-84l278 665h84zM548 296.001c0 10 -1.66602 18.1689 -4.99902 24.502s-9.33301 9.5 -18 9.5s-14.667 -3.5 -18 -10.5s-5 -16.167 -5 -27.5v-6h-84v7
c0 34 9 61.167 27 81.5s45 30.5 81 30.5s62.667 -9.33301 80 -28s26 -40.334 26 -65.001v-20c0 -18.667 -3.83301 -34.667 -11.5 -48s-17.5 -23.333 -29.5 -30v-3c12 -6.66699 21.833 -16.834 29.5 -30.501s11.5 -30.167 11.5 -49.5v-29c0 -32 -8.66699 -58 -26 -78
s-44 -30 -80 -30s-63 9.5 -81 28.5s-27 45.5 -27 79.5v17h84v-12c0 -11.333 1.66699 -20.5 5 -27.5s9.33301 -10.5 18 -10.5s14.667 3.5 18 10.5s5 16.167 5 27.5v23c0 14 -2.33301 24.333 -7 31s-13.334 10 -26.001 10h-32v72h24c15.333 0 26 4 32 12s9 18.667 9 32v9z" />
    <glyph glyph-name="oneeighth" unicode="&#x215b;" horiz-adv-x="653" 
d="M124 270v305l-61 -49l-49 66l98 77h96v-399h-84zM228 0h-84l278 665h84zM420 306c0 30 9.33496 53.9971 28.002 71.9971s45 27 79 27s60 -10 78 -30s27 -43.333 27 -70v-13c0 -19.333 -4.33301 -35.166 -13 -47.499s-21.334 -25.166 -38.001 -38.499
c15.333 -12.667 27.666 -26.5 36.999 -41.5s14 -34.167 14 -57.5v-14c0 -29.333 -8.5 -53.166 -25.5 -71.499s-43.5 -27.5 -79.5 -27.5c-18 0 -33.667 2.66699 -47 8s-24.5 12.5 -33.5 21.5s-15.667 19.5 -20 31.5s-6.5 24.333 -6.5 37v15c0 23.333 4.33301 42.5 13 57.5
s20.667 28.833 36 41.5c-15.333 13.333 -27.333 26.333 -36 39s-13 28.667 -13 48v13zM503.002 104.997c0 -10.667 1.49902 -19.334 4.49902 -26.001s9.16699 -10 18.5 -10c8.66699 0 14.5 3.33301 17.5 10s4.5 15.334 4.5 26.001v14c0 8 -1.5 15.667 -4.5 23
s-8.5 15 -16.5 23c-9.33301 -7.33301 -15.666 -14.5 -18.999 -21.5s-5 -15.167 -5 -24.5v-14zM503.001 287.997c0 -10.667 1.66699 -18.834 5 -24.501s9.66602 -12.5 18.999 -20.5c8.66699 8 14.334 14.833 17.001 20.5s4 13.834 4 24.501v9
c0 9.33301 -1.5 17.166 -4.5 23.499s-8.83301 9.5 -17.5 9.5s-14.667 -3.16699 -18 -9.5s-5 -14.166 -5 -23.499v-9z" />
    <glyph glyph-name="threeeighths" unicode="&#x215c;" horiz-adv-x="653" 
d="M150 566c0 10 -1.66602 18.1689 -4.99902 24.502s-9.33301 9.5 -18 9.5s-14.667 -3.5 -18 -10.5s-5 -16.167 -5 -27.5v-6h-84v7c0 34 9 61.167 27 81.5s45 30.5 81 30.5s62.667 -9.33301 80 -28s26 -40.334 26 -65.001v-20c0 -18.667 -3.83301 -34.667 -11.5 -48
s-17.5 -23.333 -29.5 -30v-3c12 -6.66699 21.833 -16.834 29.5 -30.501s11.5 -30.167 11.5 -49.5v-29c0 -32 -8.66699 -58 -26 -78s-44 -30 -80 -30s-63 9.5 -81 28.5s-27 45.5 -27 79.5v17h84v-12c0 -11.333 1.66699 -20.5 5 -27.5s9.33301 -10.5 18 -10.5
s14.667 3.5 18 10.5s5 16.167 5 27.5v23c0 14 -2.33301 24.333 -7 31s-13.334 10 -26.001 10h-32v72h24c15.333 0 26 4 32 12s9 18.667 9 32v9zM230.001 0.00195312h-84l278 665h84zM420.001 306.002c0 30 9.33496 53.9971 28.002 71.9971s45 27 79 27s60 -10 78 -30
s27 -43.333 27 -70v-13c0 -19.333 -4.33301 -35.166 -13 -47.499s-21.334 -25.166 -38.001 -38.499c15.333 -12.667 27.666 -26.5 36.999 -41.5s14 -34.167 14 -57.5v-14c0 -29.333 -8.5 -53.166 -25.5 -71.499s-43.5 -27.5 -79.5 -27.5c-18 0 -33.667 2.66699 -47 8
s-24.5 12.5 -33.5 21.5s-15.667 19.5 -20 31.5s-6.5 24.333 -6.5 37v15c0 23.333 4.33301 42.5 13 57.5s20.667 28.833 36 41.5c-15.333 13.333 -27.333 26.333 -36 39s-13 28.667 -13 48v13zM503.003 104.999c0 -10.667 1.49902 -19.334 4.49902 -26.001
s9.16699 -10 18.5 -10c8.66699 0 14.5 3.33301 17.5 10s4.5 15.334 4.5 26.001v14c0 8 -1.5 15.667 -4.5 23s-8.5 15 -16.5 23c-9.33301 -7.33301 -15.666 -14.5 -18.999 -21.5s-5 -15.167 -5 -24.5v-14zM503.002 287.999c0 -10.667 1.66699 -18.834 5 -24.501
s9.66602 -12.5 18.999 -20.5c8.66699 8 14.334 14.833 17.001 20.5s4 13.834 4 24.501v9c0 9.33301 -1.5 17.166 -4.5 23.499s-8.83301 9.5 -17.5 9.5s-14.667 -3.16699 -18 -9.5s-5 -14.166 -5 -23.499v-9z" />
    <glyph glyph-name="fiveeighths" unicode="&#x215d;" horiz-adv-x="653" 
d="M21 669h207v-75h-127v-75c12 18 30.333 27 55 27c22 0 40.5 -8.5 55.5 -25.5s22.5 -46.5 22.5 -88.5v-48c0 -34 -9.16699 -62.5 -27.5 -85.5s-44.833 -34.5 -79.5 -34.5c-35.333 0 -61.833 10 -79.5 30s-26.5 45.333 -26.5 76v22h84v-15c0 -11.333 1.5 -20.5 4.5 -27.5
s9.16699 -10.5 18.5 -10.5c8 0 13.667 3.5 17 10.5s5 16.167 5 27.5v60c0 10 -1.66699 18.167 -5 24.5s-8.66602 9.5 -15.999 9.5s-12.833 -2.5 -16.5 -7.5s-5.83398 -11.167 -6.50098 -18.5h-85v224zM230 0h-84l278 665h84zM420 306c0 30 9.33496 53.9971 28.002 71.9971
s45 27 79 27s60 -10 78 -30s27 -43.333 27 -70v-13c0 -19.333 -4.33301 -35.166 -13 -47.499s-21.334 -25.166 -38.001 -38.499c15.333 -12.667 27.666 -26.5 36.999 -41.5s14 -34.167 14 -57.5v-14c0 -29.333 -8.5 -53.166 -25.5 -71.499s-43.5 -27.5 -79.5 -27.5
c-18 0 -33.667 2.66699 -47 8s-24.5 12.5 -33.5 21.5s-15.667 19.5 -20 31.5s-6.5 24.333 -6.5 37v15c0 23.333 4.33301 42.5 13 57.5s20.667 28.833 36 41.5c-15.333 13.333 -27.333 26.333 -36 39s-13 28.667 -13 48v13zM503.002 104.997
c0 -10.667 1.49902 -19.334 4.49902 -26.001s9.16699 -10 18.5 -10c8.66699 0 14.5 3.33301 17.5 10s4.5 15.334 4.5 26.001v14c0 8 -1.5 15.667 -4.5 23s-8.5 15 -16.5 23c-9.33301 -7.33301 -15.666 -14.5 -18.999 -21.5s-5 -15.167 -5 -24.5v-14zM503.001 287.997
c0 -10.667 1.66699 -18.834 5 -24.501s9.66602 -12.5 18.999 -20.5c8.66699 8 14.334 14.833 17.001 20.5s4 13.834 4 24.501v9c0 9.33301 -1.5 17.166 -4.5 23.499s-8.83301 9.5 -17.5 9.5s-14.667 -3.16699 -18 -9.5s-5 -14.166 -5 -23.499v-9z" />
    <glyph glyph-name="seveneighths" unicode="&#x215e;" horiz-adv-x="653" 
d="M30 270l123 324h-134v75h217v-87l-118 -312h-88zM200 0h-84l278 665h84zM420 306c0 30 9.33496 53.9971 28.002 71.9971s45 27 79 27s60 -10 78 -30s27 -43.333 27 -70v-13c0 -19.333 -4.33301 -35.166 -13 -47.499s-21.334 -25.166 -38.001 -38.499
c15.333 -12.667 27.666 -26.5 36.999 -41.5s14 -34.167 14 -57.5v-14c0 -29.333 -8.5 -53.166 -25.5 -71.499s-43.5 -27.5 -79.5 -27.5c-18 0 -33.667 2.66699 -47 8s-24.5 12.5 -33.5 21.5s-15.667 19.5 -20 31.5s-6.5 24.333 -6.5 37v15c0 23.333 4.33301 42.5 13 57.5
s20.667 28.833 36 41.5c-15.333 13.333 -27.333 26.333 -36 39s-13 28.667 -13 48v13zM503.002 104.997c0 -10.667 1.49902 -19.334 4.49902 -26.001s9.16699 -10 18.5 -10c8.66699 0 14.5 3.33301 17.5 10s4.5 15.334 4.5 26.001v14c0 8 -1.5 15.667 -4.5 23
s-8.5 15 -16.5 23c-9.33301 -7.33301 -15.666 -14.5 -18.999 -21.5s-5 -15.167 -5 -24.5v-14zM503.001 287.997c0 -10.667 1.66699 -18.834 5 -24.501s9.66602 -12.5 18.999 -20.5c8.66699 8 14.334 14.833 17.001 20.5s4 13.834 4 24.501v9
c0 9.33301 -1.5 17.166 -4.5 23.499s-8.83301 9.5 -17.5 9.5s-14.667 -3.16699 -18 -9.5s-5 -14.166 -5 -23.499v-9z" />
    <glyph glyph-name="partialdiff" unicode="&#x2202;" horiz-adv-x="340" 
d="M33 495l0.0117188 6.99902c0 23.333 3 45.5 9 66.5s14.5 39.333 25.5 55s24.5 28.167 40.5 37.5s34.333 14 55 14c27.333 0 50.166 -6.5 68.499 -19.5s33.166 -33 44.499 -60s19.5 -61.667 24.5 -104s7.5 -92.5 7.5 -150.5c0 -65.333 -3.33301 -120.333 -10 -165
s-16.334 -80.834 -29.001 -108.501s-27.834 -47.5 -45.501 -59.5s-37.834 -18 -60.501 -18c-18 0 -34.833 3.5 -50.5 10.5s-29.334 18.667 -41.001 35s-21 38 -28 65s-10.5 60.167 -10.5 99.5c0 40 3.16699 74 9.5 102s14.666 50.667 24.999 68s22.5 30 36.5 38s29 12 45 12
s29.167 -3.33301 39.5 -10s19.166 -16.667 26.499 -30c-0.666992 42.667 -2.33398 77.334 -5.00098 104.001s-6.33398 47.334 -11.001 62.001s-9.83398 24.5 -15.501 29.5s-11.834 7.5 -18.501 7.5c-8 0 -14.667 -2.33301 -20 -7s-9.5 -11 -12.5 -19s-5 -16.833 -6 -26.5
s-1.5 -19.5 -1.5 -29.5v-6h-92zM169.012 81.999c9.33301 0 16.667 4.83301 22 14.5s9.5 23.5 12.5 41.5s4.83301 39.667 5.5 65s1 53.333 1 84c-7.33301 27.333 -19.666 41 -36.999 41c-14.667 0 -25 -9.66699 -31 -29s-9 -49.333 -9 -90c0 -39.333 2.16699 -70.333 6.5 -93
s14.166 -34 29.499 -34z" />
    <glyph glyph-name="Delta" unicode="&#x2206;" horiz-adv-x="308" 
d="M210 92l-56 385l-56 -385h112zM119 665h70l106 -559v-106h-282v106z" />
    <glyph glyph-name="product" unicode="&#x220f;" horiz-adv-x="437" 
d="M356 -80h-100v653h-75v-653h-100v653h-57v92h389v-92h-57v-653z" />
    <glyph glyph-name="summation" unicode="&#x2211;" horiz-adv-x="274" 
d="M256 12v-92h-232v110l105 262l-105 263v110h232v-92h-135l93 -235v-92l-93 -234h135z" />
    <glyph glyph-name="minus" unicode="&#x2212;" horiz-adv-x="326" 
d="M32 347h262v-92h-262v92z" />
    <glyph glyph-name="uni2215" unicode="&#x2215;" horiz-adv-x="142" 
d="M-26 0h-84l278 665h84z" />
    <glyph glyph-name="radical" unicode="&#x221a;" horiz-adv-x="348" 
d="M151 0l-72 263l-43 -14l-23 79l121 39l53 -227l62 525h84l-92 -665h-90z" />
    <glyph glyph-name="infinity" unicode="&#x221e;" horiz-adv-x="492" 
d="M246 284c-21.333 -24.667 -40.333 -40.167 -57 -46.5s-33.667 -9.5 -51 -9.5h-18c-12 0 -24.333 1.83301 -37 5.5s-24.167 9.5 -34.5 17.5s-18.833 18.667 -25.5 32s-10 29.666 -10 48.999s3.33301 35.666 10 48.999s15.167 24 25.5 32s21.833 13.833 34.5 17.5
s25 5.5 37 5.5h18c17.333 0 34.333 -3.16699 51 -9.5s35.667 -21.833 57 -46.5c21.333 24.667 40.333 40.167 57 46.5s33.667 9.5 51 9.5h18c12 0 24.333 -1.83301 37 -5.5s24.167 -9.5 34.5 -17.5s18.833 -18.667 25.5 -32s10 -29.666 10 -48.999
s-3.33301 -35.666 -10 -48.999s-15.167 -24 -25.5 -32s-21.833 -13.833 -34.5 -17.5s-25 -5.5 -37 -5.5h-18c-17.333 0 -34.333 3.16699 -51 9.5s-35.667 21.833 -57 46.5zM133 289c6 0 11.499 0.5 16.499 1.5s9.83301 3 14.5 6s9.83398 7.33301 15.501 13
s12.167 13.167 19.5 22.5c-7.33301 9.33301 -13.833 16.833 -19.5 22.5s-11 10 -16 13s-9.83301 5 -14.5 6s-10 1.5 -16 1.5h-8c-10 0 -19.167 -3.66699 -27.5 -11s-12.5 -18 -12.5 -32s4.16699 -24.667 12.5 -32s17.5 -11 27.5 -11h8zM366.999 288
c10 0 19.332 3.5 27.999 10.5s13 17.833 13 32.5s-4.33301 25.667 -13 33s-18 11 -28 11h-8c-11.333 0 -21.666 -2.66699 -30.999 -8s-21.333 -17.333 -36 -36c7.33301 -9.33301 13.833 -16.833 19.5 -22.5s11 -10 16 -13s10 -5 15 -6s10.5 -1.5 16.5 -1.5h8z" />
    <glyph glyph-name="integral" unicode="&#x222b;" horiz-adv-x="261" 
d="M239 591c-38 0 -56.999 -28 -56.999 -84v-337c0 -60 -14 -105 -42 -135s-67.333 -45 -118 -45v84c19.333 0 33.666 7.66699 42.999 23s14 34 14 56v342c0 120 53.333 180 160 180v-84z" />
    <glyph glyph-name="approxequal" unicode="&#x2248;" horiz-adv-x="326" 
d="M310 288c0 -49.333 -6.99902 -84.998 -20.999 -106.998s-33.667 -33 -59 -33c-11.333 0 -21.333 1.33301 -30 4s-17.667 6.66699 -27 12s-17.833 10.666 -25.5 15.999s-15.834 8 -24.501 8c-15.333 0 -23 -13.333 -23 -40h-84c0 24.667 2.33301 45.834 7 63.501
s11 32.167 19 43.5s17 19.666 27 24.999s20.333 8 31 8c10 0 19 -1.5 27 -4.5s16.667 -7.16699 26 -12.5c7.33301 -4 15.5 -9.16699 24.5 -15.5s17.833 -9.5 26.5 -9.5c7.33301 0 12.833 3.16699 16.5 9.5s5.5 17.166 5.5 32.499h84zM310.001 451.002
c0 -49.333 -6.99902 -84.998 -20.999 -106.998s-33.667 -33 -59 -33c-11.333 0 -21.333 1.33301 -30 4s-17.667 6.66699 -27 12s-17.833 10.666 -25.5 15.999s-15.834 8 -24.501 8c-15.333 0 -23 -13.333 -23 -40h-84c0 24.667 2.33301 45.834 7 63.501s11 32.167 19 43.5
s17 19.666 27 24.999s20.333 8 31 8c10 0 19 -1.5 27 -4.5s16.667 -7.16699 26 -12.5c7.33301 -4 15.5 -9.16699 24.5 -15.5s17.833 -9.5 26.5 -9.5c7.33301 0 12.833 3.16699 16.5 9.5s5.5 17.166 5.5 32.499h84z" />
    <glyph glyph-name="notequal" unicode="&#x2260;" horiz-adv-x="326" 
d="M32 419h123l27 83h88l-27 -83h51v-92h-79l-17 -50h96v-92h-124l-26 -83h-88l26 83h-50v92h78l17 50h-95v92z" />
    <glyph glyph-name="lessequal" unicode="&#x2264;" horiz-adv-x="326" 
d="M32 414l262 88v-100l-142 -30l142 -30v-100l-262 88v84zM32 223h262v-92h-262v92z" />
    <glyph glyph-name="greaterequal" unicode="&#x2265;" horiz-adv-x="326" 
d="M294 330l-262 -88v100l142 30l-142 30v100l262 -88v-84zM32 223h262v-92h-262v92z" />
    <glyph glyph-name="lozenge" unicode="&#x25ca;" horiz-adv-x="268" 
d="M134 150l46 182l-46 182l-46 -182zM95 612h78l90 -280l-90 -280h-78l-90 280z" />
    <glyph glyph-name="heart" unicode="&#x2665;" horiz-adv-x="602" 
d="M305 435c10.667 19.333 24.498 35 41.498 47s35.833 18 56.5 18c28.667 0 52.334 -9.83301 71.001 -29.5s28 -44.834 28 -75.501c0 -20 -4.5 -41.667 -13.5 -65s-22 -46.666 -39 -69.999s-38 -45.833 -63 -67.5s-53.5 -40.834 -85.5 -57.501
c-32 16.667 -60.5 35.834 -85.5 57.501s-46 44.167 -63 67.5s-30 46.666 -39 69.999s-13.5 45 -13.5 65c0 30.667 9.33301 55.834 28 75.501s42.334 29.5 71.001 29.5c20.667 0 39.5 -6 56.5 -18s30.833 -27.667 41.5 -47h8z" />
    <glyph glyph-name="zeroslash" unicode="&#xe01a;" 
d="M304 162c0 -56 -11.333 -98.667 -34 -128s-57 -44 -103 -44s-79.833 14.667 -101.5 44s-32.5 72 -32.5 128v341c0 56 11 98.667 33 128s56 44 102 44s80.167 -14.667 102.5 -44s33.5 -72 33.5 -128v-341zM133 295l71.0029 215.002c0 18 -2.33301 34.667 -7 50
s-14.334 23 -29.001 23c-7.33301 0 -13.333 -2.16699 -18 -6.5s-8.33398 -9.83301 -11.001 -16.5s-4.33398 -14.334 -5.00098 -23.001s-1 -17.334 -1 -26.001v-216zM204.003 367.002l-71 -216.001c0 -8.66699 0.333008 -17.167 1 -25.5s2.33398 -15.666 5.00098 -21.999
s6.16699 -11.5 10.5 -15.5s10.166 -6 17.499 -6c14.667 0 24.5 7.66699 29.5 23s7.5 32 7.5 50v212z" />
    <glyph glyph-name="numbersign.plf" unicode="&#xe020;" horiz-adv-x="503" 
d="M88 496h75l44 169h87l-44 -169h85l44 169h87l-44 -169h54v-80h-75l-41 -157h54v-80h-75l-46 -179h-87l46 179h-84l-47 -179h-87l46 179h-54v80h75l41 157h-54v80zM188 259h85l41 157h-85z" />
    <glyph glyph-name="Euro.plf" unicode="&#xe021;" horiz-adv-x="366" 
d="M235 475l-0.00292969 35.998c0 18 -2.66699 34.5 -8 49.5s-14.666 22.5 -27.999 22.5c-6.66699 0 -12.334 -2.16699 -17.001 -6.5s-8.33398 -10 -11.001 -17s-4.5 -14.667 -5.5 -23s-1.5 -16.833 -1.5 -25.5v-91h125v-68h-125v-40h125v-68h-125v-90
c0 -8 0.5 -16.333 1.5 -25s2.83301 -16.5 5.5 -23.5s6.33398 -12.667 11.001 -17s10.334 -6.5 17.001 -6.5s12.334 2.16699 17.001 6.5s8.33398 9.83301 11.001 16.5s4.66699 14.334 6 23.001s2 17.334 2 26.001v36h101v-4c0 -69.333 -11.833 -119.333 -35.5 -150
s-57.5 -46 -101.5 -46c-46 0 -80 14.667 -102 44s-33 72 -33 128v82h-45v68h45v40h-45v68h45v83c0 56 11 98.667 33 128s56 44 102 44c44.667 0 78.667 -15 102 -45s35 -78.333 35 -145v-10h-101z" />
    <glyph glyph-name="dollar.plf" unicode="&#xe022;" horiz-adv-x="327" 
d="M32 517c0 31.333 6.5 60.6719 19.5 88.0049s33.833 47 62.5 59v66h100v-63c26 -8.66699 46 -26.334 60 -53.001s21 -64.334 21 -113.001v-34h-100v44c0 8.66699 -0.5 17.334 -1.5 26.001s-2.66699 16.334 -5 23.001s-5.66602 12.167 -9.99902 16.5s-9.5 6.5 -15.5 6.5
c-11.333 0 -19 -7 -23 -21s-6 -30 -6 -48c0 -12 0.333008 -22.833 1 -32.5s2.66699 -19 6 -28s8.5 -18 15.5 -27s16.833 -18.833 29.5 -29.5c16 -14 30.833 -28.167 44.5 -42.5s25.167 -29.833 34.5 -46.5s16.666 -35.5 21.999 -56.5s8 -44.833 8 -71.5v-26
c0 -16 -1.33301 -31.833 -4 -47.5s-7.33398 -30.5 -14.001 -44.5s-15.167 -26.5 -25.5 -37.5s-22.833 -19.167 -37.5 -24.5v-65h-100v66c-28.667 10.667 -49.5 30.167 -62.5 58.5s-19.5 64.166 -19.5 107.499v31h102v-44c0 -8.66699 0.333008 -17.334 1 -26.001
s2.16699 -16.334 4.5 -23.001s5.5 -12.167 9.5 -16.5s9.33301 -6.5 16 -6.5c10.667 0 18.334 7 23.001 21s7 30 7 48c0 36.667 -4 66.167 -12 88.5s-23 43.166 -45 62.499l-41.5 40c-13 12.667 -24.167 25.667 -33.5 39s-16.833 27.666 -22.5 42.999s-8.5 32.333 -8.5 51v42
z" />
    <glyph glyph-name="yen.plf" unicode="&#xe023;" horiz-adv-x="376" 
d="M53 337h69l-97 328h103l58 -274h3l59 274h103l-103 -328h75v-67h-85v-41h85v-67h-85v-162h-100v162h-85v67h85v41h-85v67z" />
    <glyph glyph-name="sterling.plf" unicode="&#xe024;" horiz-adv-x="369" 
d="M32 323h40v180c0 56 11 98.667 33 128s56 44 102 44c45.333 0 79.5 -15 102.5 -45s34.5 -78.333 34.5 -145v-18h-101v48c0 18 -2.5 33.833 -7.5 47.5s-14.5 20.5 -28.5 20.5c-13.333 0 -22.5 -7 -27.5 -21s-7.5 -29.667 -7.5 -47v-192h103v-92h-103v-139h172v-92h-312v92
h40v139h-40v92z" />
    <glyph glyph-name="cent.plf" unicode="&#xe025;" horiz-adv-x="308" 
d="M105 -66v66c-27.333 9.33301 -46.833 27.5 -58.5 54.5s-17.5 61.5 -17.5 103.5v200c0 42 5.83301 76.333 17.5 103s31.167 44.667 58.5 54v67h100v-64c28 -9.33301 48 -27.5 60 -54.5s18 -61.5 18 -103.5v-47h-96v22c0 34 -1.5 60.333 -4.5 79s-11.167 28 -24.5 28
c-11.333 0 -19 -6 -23 -18s-6 -28.333 -6 -49v-234c0 -20.667 2 -37 6 -49s11.667 -18 23 -18c13.333 0 21.5 9.33301 24.5 28s4.5 45 4.5 79v22h96v-47c0 -42.667 -6 -77.5 -18 -104.5s-32 -44.833 -60 -53.5v-64h-100z" />
    <glyph glyph-name="florin.plf" unicode="&#xe026;" horiz-adv-x="392" 
d="M247 170c0 -60 -11.832 -105.001 -35.499 -135.001s-56.5 -45 -98.5 -45c-26.667 0 -47.834 4.66699 -63.501 14s-29.167 21 -40.5 35l60 58c3.33301 -6 8 -11.333 14 -16s13 -7 21 -7c15.333 0 26 7.66699 32 23s9 34 9 56v342c0 58.667 11 103.334 33 134.001
s54.667 46 98 46c28 0 50 -4.66699 66 -14s29.667 -21 41 -35l-58 -60c-3.33301 6.66699 -8 12.5 -14 17.5s-13.333 7.5 -22 7.5c-16 0 -27 -7.5 -33 -22.5s-9 -32.833 -9 -53.5v-124h84v-84h-84v-137z" />
    <glyph glyph-name="zero.plf" unicode="&#xe027;" 
d="M304 162c0 -56 -11.333 -98.667 -34 -128s-57 -44 -103 -44s-79.833 14.667 -101.5 44s-32.5 72 -32.5 128v341c0 56 11 98.667 33 128s56 44 102 44s80.167 -14.667 102.5 -44s33.5 -72 33.5 -128v-341zM204 511c0 8.66699 -0.49707 17.335 -1.49707 26.002
s-2.83301 16.334 -5.5 23.001s-6.33398 12.167 -11.001 16.5s-10.667 6.5 -18 6.5s-13.333 -2.16699 -18 -6.5s-8.33398 -9.83301 -11.001 -16.5s-4.33398 -14.334 -5.00098 -23.001s-1 -17.334 -1 -26.001v-356c0 -8.66699 0.333008 -17.334 1 -26.001
s2.16699 -16.5 4.5 -23.5s5.83301 -12.667 10.5 -17s10.667 -6.5 18 -6.5c14.667 0 24.5 7.66699 29.5 23s7.5 32 7.5 50v356z" />
    <glyph glyph-name="one.plf" unicode="&#xe028;" horiz-adv-x="300" 
d="M148 0v556l-78 -81l-62 67l123 123h117v-665h-100z" />
    <glyph glyph-name="two.plf" unicode="&#xe029;" horiz-adv-x="331" 
d="M28 487l0.000976562 23.998c0 53.333 11.667 94 35 122s57.666 42 102.999 42c48.667 0 83.5 -13.5 104.5 -40.5s31.5 -67.5 31.5 -121.5v-25c0 -31.333 -7 -63.833 -21 -97.5s-31.333 -70.167 -52 -109.5l-101 -189h174v-92h-274v103l85 158l41 77
c11.333 22 20.5 41.833 27.5 59.5s12.167 33.834 15.5 48.501s5 29.334 5 44.001v20c0 24 -2.66699 42.167 -8 54.5s-15 18.5 -29 18.5s-23.667 -6 -29 -18s-8 -29.333 -8 -52v-26h-100z" />
    </font>
</defs>
</svg>
