<?xml version="1.0" standalone="no"?>
<!DOCTYPE svg PUBLIC "-//W3C//DTD SVG 1.1//EN" "http://www.w3.org/Graphics/SVG/1.1/DTD/svg11.dtd" >
<svg>
<metadata>
Created by FontForge 20090914 at Sun Aug 10 12:58:50 2014
 By www-data
Copyright (c) 2013 by FONTYOU. All rights reserved. www.fontyou.com
</metadata>
<defs>
<font id="MarianinaCnFY-Black" horiz-adv-x="339" >
  <font-face 
    font-family="MarianinaCnFY-Black"
    font-weight="400"
    font-stretch="normal"
    units-per-em="1000"
    panose-1="2 0 10 6 0 0 0 2 0 4"
    ascent="772"
    descent="-228"
    x-height="520"
    cap-height="665"
    bbox="-110 -219.998 950 881"
    underline-thickness="50"
    underline-position="-50"
    unicode-range="U+000D-U+FB04"
  />
<missing-glyph horiz-adv-x="602" 
d="M305 435c10.667 19.333 24.498 35 41.498 47s35.833 18 56.5 18c28.667 0 52.334 -9.83301 71.001 -29.5s28 -44.834 28 -75.501c0 -20 -4.5 -41.667 -13.5 -65s-22 -46.666 -39 -69.999s-38 -45.833 -63 -67.5s-53.5 -40.834 -85.5 -57.501
c-32 16.667 -60.5 35.834 -85.5 57.501s-46 44.167 -63 67.5s-30 46.666 -39 69.999s-13.5 45 -13.5 65c0 30.667 9.33301 55.834 28 75.501s42.334 29.5 71.001 29.5c20.667 0 39.5 -6 56.5 -18s30.833 -27.667 41.5 -47h8z" />
    <glyph glyph-name="f_f" unicode="ff" horiz-adv-x="480" 
d="M158 420l0.000976562 -420.001h-123v524c0 62.667 11.833 109.334 35.5 140.001s58.167 46 103.5 46c31.333 0 55.166 -4.83301 71.499 -14.5s30.833 -21.5 43.5 -35.5l-70 -70c-3.33301 4.66699 -7.5 9.16699 -12.5 13.5s-10.5 6.5 -16.5 6.5
c-11.333 0 -19.5 -6 -24.5 -18s-7.5 -27.333 -7.5 -46v-26h76v-100h-76zM393.001 419.999l0.000976562 -420.001h-123v524c0 62.667 11.833 109.334 35.5 140.001s58.167 46 103.5 46c31.333 0 55.166 -4.83301 71.499 -14.5s30.833 -21.5 43.5 -35.5l-70 -70
c-3.33301 4.66699 -7.5 9.16699 -12.5 13.5s-10.5 6.5 -16.5 6.5c-11.333 0 -19.5 -6 -24.5 -18s-7.5 -27.333 -7.5 -46v-26h76v-100h-76z" />
    <glyph glyph-name="fi" unicode="fi" horiz-adv-x="422" 
d="M330 679c19.333 0 35 -6.00098 47 -18.001s18 -27.667 18 -47s-6 -35 -18 -47s-27.667 -18 -47 -18s-35 6 -47 18s-18 27.667 -18 47c0 9.33301 1.66699 18.333 5 27l-51 -51c-3.33301 4.66699 -7.5 9.16699 -12.5 13.5s-10.5 6.5 -16.5 6.5
c-11.333 0 -19.5 -6 -24.5 -18s-7.5 -27.333 -7.5 -46v-26h76v-100h-76v-420h-123v524c0 62.667 11.833 109.334 35.5 140.001s58.167 46 103.5 46c30 0 53.167 -4.5 69.5 -13.5s30.5 -20.167 42.5 -33.5c12 10.667 26.667 16 44 16zM270 519.999h107l13 -95v-425h-120v520z
" />
    <glyph glyph-name="fl" unicode="fl" horiz-adv-x="422" 
d="M390 615v-615.001h-110l-10 95v546l-51 -51c-3.33301 4.66699 -7.5 9.16699 -12.5 13.5s-10.5 6.5 -16.5 6.5c-11.333 0 -19.5 -6 -24.5 -18s-7.5 -27.333 -7.5 -46v-26h76v-100h-76v-420h-123v524c0 62.667 11.833 109.334 35.5 140.001s58.167 46 103.5 46
c23.333 0 42.333 -2.83301 57 -8.5s27.667 -13.167 39 -22.5v31h107z" />
    <glyph glyph-name="f_f_i" unicode="ffi" horiz-adv-x="657" 
d="M158 420l0.000976562 -420.001h-123v524c0 62.667 11.833 109.334 35.5 140.001s58.167 46 103.5 46c31.333 0 55.166 -4.83301 71.499 -14.5s30.833 -21.5 43.5 -35.5l-70 -70c-3.33301 4.66699 -7.5 9.16699 -12.5 13.5s-10.5 6.5 -16.5 6.5
c-11.333 0 -19.5 -6 -24.5 -18s-7.5 -27.333 -7.5 -46v-26h76v-100h-76zM565.001 678.999c19.333 0 35 -6.00098 47 -18.001s18 -27.667 18 -47s-6 -35 -18 -47s-27.667 -18 -47 -18s-35 6 -47 18s-18 27.667 -18 47c0 9.33301 1.66699 18.333 5 27l-51 -51
c-3.33301 4.66699 -7.5 9.16699 -12.5 13.5s-10.5 6.5 -16.5 6.5c-11.333 0 -19.5 -6 -24.5 -18s-7.5 -27.333 -7.5 -46v-26h76v-100h-76v-420h-123v524c0 62.667 11.833 109.334 35.5 140.001s58.167 46 103.5 46c30 0 53.167 -4.5 69.5 -13.5s30.5 -20.167 42.5 -33.5
c12 10.667 26.667 16 44 16zM505.001 519.998h107l13 -95v-425h-120v520z" />
    <glyph glyph-name="f_f_l" unicode="ffl" horiz-adv-x="657" 
d="M625 615v-615.001h-110l-10 95v546l-51 -51c-3.33301 4.66699 -7.5 9.16699 -12.5 13.5s-10.5 6.5 -16.5 6.5c-11.333 0 -19.5 -6 -24.5 -18s-7.5 -27.333 -7.5 -46v-26h76v-100h-76v-420h-123v524c0 62.667 11.833 109.334 35.5 140.001s58.167 46 103.5 46
c23.333 0 42.333 -2.83301 57 -8.5s27.667 -13.167 39 -22.5v31h107zM158 419.999l0.000976562 -420.001h-123v524c0 62.667 11.833 109.334 35.5 140.001s58.167 46 103.5 46c31.333 0 55.166 -4.83301 71.499 -14.5s30.833 -21.5 43.5 -35.5l-70 -70
c-3.33301 4.66699 -7.5 9.16699 -12.5 13.5s-10.5 6.5 -16.5 6.5c-11.333 0 -19.5 -6 -24.5 -18s-7.5 -27.333 -7.5 -46v-26h76v-100h-76z" />
    <glyph glyph-name=".notdef" horiz-adv-x="602" 
d="M305 435c10.667 19.333 24.498 35 41.498 47s35.833 18 56.5 18c28.667 0 52.334 -9.83301 71.001 -29.5s28 -44.834 28 -75.501c0 -20 -4.5 -41.667 -13.5 -65s-22 -46.666 -39 -69.999s-38 -45.833 -63 -67.5s-53.5 -40.834 -85.5 -57.501
c-32 16.667 -60.5 35.834 -85.5 57.501s-46 44.167 -63 67.5s-30 46.666 -39 69.999s-13.5 45 -13.5 65c0 30.667 9.33301 55.834 28 75.501s42.334 29.5 71.001 29.5c20.667 0 39.5 -6 56.5 -18s30.833 -27.667 41.5 -47h8z" />
    <glyph glyph-name=".null" horiz-adv-x="0" 
 />
    <glyph glyph-name=".null" horiz-adv-x="0" 
 />
    <glyph glyph-name="nonmarkingreturn" unicode="&#xd;" horiz-adv-x="0" 
 />
    <glyph glyph-name="space" unicode=" " horiz-adv-x="110" 
 />
    <glyph glyph-name="exclam" unicode="!" horiz-adv-x="222" 
d="M172 665v-474h-112l-10 95v379h122zM39 66c0 20.667 6.66699 37.667 20 51s30.333 20 51 20s37.667 -6.66699 51 -20s20 -30.333 20 -51s-6.66699 -37.667 -20 -51s-30.333 -20 -51 -20s-37.667 6.66699 -51 20s-20 30.333 -20 51z" />
    <glyph glyph-name="quotedbl" unicode="&#x22;" horiz-adv-x="336" 
d="M140 427h-90l-15 258h120zM286 427h-90l-15 258h120z" />
    <glyph glyph-name="numbersign" unicode="#" horiz-adv-x="523" 
d="M86 500h76l43 165h105l-43 -165h73l43 165h105l-43 -165h51v-95h-76l-35 -135h51v-95h-76l-45 -175h-105l45 175h-73l-45 -175h-105l45 175h-51v95h76l35 135h-51v95zM207 270h73l35 135h-73z" />
    <glyph glyph-name="dollar" unicode="$" horiz-adv-x="332" 
d="M27 511c0 32 6.33301 61.5 19 88.5s33 47.5 61 61.5v69h120v-65c25.333 -10 44.666 -28.667 57.999 -56s20 -66 20 -116v-41h-120v53c0 15.333 -1.33301 29.166 -4 41.499s-7.66699 18.5 -15 18.5c-8 0 -12.667 -6.16699 -14 -18.5s-2 -26.166 -2 -41.499
c0 -10 0.333008 -19 1 -27s2.33398 -16 5.00098 -24s7 -16.167 13 -24.5s14.667 -17.166 26 -26.499c16.667 -14.667 31.834 -29.334 45.501 -44.001s25.167 -30.667 34.5 -48s16.666 -36.666 21.999 -57.999s8 -46 8 -74v-25c0 -30.667 -6 -60.334 -18 -89.001
s-32 -49.667 -60 -63v-67h-120v68c-28 12.667 -48.333 34 -61 64s-19 66.333 -19 109v37h123v-53c0 -7.33301 0.166992 -14.666 0.5 -21.999s1 -13.833 2 -19.5s2.66699 -10.167 5 -13.5s5.83301 -5 10.5 -5c7.33301 0 12 6.16699 14 18.5s3 26.166 3 41.499
c0 32.667 -3.83301 58.5 -11.5 77.5s-19.5 36.167 -35.5 51.5l-43 42c-13.333 13.333 -25 27 -35 41s-18 28.667 -24 44s-9 32.333 -9 51v44z" />
    <glyph glyph-name="percent" unicode="%" horiz-adv-x="678" 
d="M245 391c0 -17.333 -2 -33.666 -6 -48.999s-10.5 -28.833 -19.5 -40.5s-20.833 -20.834 -35.5 -27.501s-32.334 -10 -53.001 -10s-38.334 3.33301 -53.001 10s-26.667 15.834 -36 27.501s-16.166 25.167 -20.499 40.5s-6.5 31.666 -6.5 48.999v157
c0 17.333 2.16699 33.666 6.5 48.999s11.166 28.833 20.499 40.5s21.333 20.834 36 27.501s32.334 10 53.001 10s38.334 -3.33301 53.001 -10s26.5 -15.834 35.5 -27.501s15.5 -25.167 19.5 -40.5s6 -31.666 6 -48.999v-157zM145 555c0 10 -1 17.5 -3 22.5s-6 7.5 -12 7.5
s-10 -2.5 -12 -7.5s-3 -12.5 -3 -22.5v-171c0 -10 1 -17.5 3 -22.5s6 -7.5 12 -7.5s10 2.5 12 7.5s3 12.5 3 22.5v171zM250 0h-100l278 665h100zM663 121c0 -17.333 -2 -33.666 -6 -48.999s-10.5 -28.833 -19.5 -40.5s-20.833 -20.834 -35.5 -27.501
s-32.334 -10 -53.001 -10s-38.334 3.33301 -53.001 10s-26.667 15.834 -36 27.501s-16.166 25.167 -20.499 40.5s-6.5 31.666 -6.5 48.999v157c0 17.333 2.16699 33.666 6.5 48.999s11.166 28.833 20.499 40.5s21.333 20.834 36 27.501s32.334 10 53.001 10
s38.334 -3.33301 53.001 -10s26.5 -15.834 35.5 -27.501s15.5 -25.167 19.5 -40.5s6 -31.666 6 -48.999v-157zM563 285c0 10 -1 17.5 -3 22.5s-6 7.5 -12 7.5s-10 -2.5 -12 -7.5s-3 -12.5 -3 -22.5v-171c0 -10 1 -17.5 3 -22.5s6 -7.5 12 -7.5s10 2.5 12 7.5s3 12.5 3 22.5
v171z" />
    <glyph glyph-name="ampersand" unicode="&#x26;" horiz-adv-x="367" 
d="M210 20c-11.333 -10.667 -22.332 -18.3311 -32.999 -22.998s-24.667 -7 -42 -7c-34.667 0 -61.334 12 -80.001 36s-28 64.333 -28 121v44c0 32.667 4.83301 60.167 14.5 82.5s23.5 43.166 41.5 62.499c-12 14 -24.333 35.167 -37 63.5s-19 61.5 -19 99.5v17
c0 23.333 3.5 44.666 10.5 63.999s16.667 36 29 50s27.5 25 45.5 33s38 12 60 12c24.667 0 45.834 -4.33301 63.501 -13s32.167 -20 43.5 -34s19.666 -29.833 24.999 -47.5s8 -35.5 8 -53.5v-30c0 -17.333 -0.833008 -33.5 -2.5 -48.5s-5.16699 -29.333 -10.5 -43
s-13.166 -27.167 -23.499 -40.5s-23.833 -27.333 -40.5 -42l-37.5 -33c-11 -10 -20.333 -20.167 -28 -30.5s-13.334 -21.333 -17.001 -33s-5.5 -24.834 -5.5 -39.501v-28c0 -13.333 1.66699 -26.5 5 -39.5s9.33301 -19.5 18 -19.5c9.33301 0 15.333 6.33301 18 19s4 26 4 40
v62h120v-56c0 -24.667 0.833008 -47.167 2.5 -67.5s4.66699 -37.666 9 -51.999s10.5 -25.5 18.5 -33.5s18 -12 30 -12v-110c-48 0 -84.333 10.333 -109 31s-41 53.667 -49 99h-4zM147.001 478.003c0 -15.333 2.33301 -28.001 7 -38.001s9.66699 -17.667 15 -23
c10 13.333 16.333 25.833 19 37.5s4 23.834 4 36.501v14c0 15.333 -1 29.166 -3 41.499s-8.33301 18.5 -19 18.5s-17.167 -6.16699 -19.5 -18.5s-3.5 -26.166 -3.5 -41.499v-27z" />
    <glyph glyph-name="quotesingle" unicode="'" horiz-adv-x="190" 
d="M140 427h-90l-15 258h120z" />
    <glyph glyph-name="parenleft" unicode="(" horiz-adv-x="280" 
d="M45 567c0 32.667 3.66699 62.832 11 90.499s19 51.667 35 72s36.833 36.333 62.5 48s57.167 17.5 94.5 17.5h12v-110h-12c-55.333 0 -83 -44.667 -83 -134v-429c0 -88 27.667 -132 83 -132h12v-110h-12c-37.333 0 -68.833 5.33301 -94.5 16s-46.5 25.5 -62.5 44.5
s-27.667 41.833 -35 68.5s-11 56.334 -11 89.001v469z" />
    <glyph glyph-name="parenright" unicode=")" horiz-adv-x="280" 
d="M235 98c0 -32.667 -3.66699 -62.3301 -11 -88.9971s-19 -49.5 -35 -68.5s-36.833 -33.833 -62.5 -44.5s-57.167 -16 -94.5 -16h-12v110h12c55.333 0 83 44 83 132v421c0 44 -6.66699 78.667 -20 104s-34.333 38 -63 38h-12v110h12c37.333 0 68.833 -6.33301 94.5 -19
s46.5 -29.834 62.5 -51.501s27.667 -46.834 35 -75.501s11 -59.334 11 -92.001v-459z" />
    <glyph glyph-name="asterisk" unicode="*" horiz-adv-x="308" 
d="M21 579l73 31v5l-73 26l40 69l57 -54l8 7l-12 78h80l-16 -77l7 -6l62 52l40 -69l-75 -30v-9l75 -23l-40 -69l-61 54l-7 -13l15 -72h-80l15 78l-10 -6l-58 -41z" />
    <glyph glyph-name="plus" unicode="+" horiz-adv-x="330" 
d="M30 356h80v80h110v-80h80v-110h-80v-80h-110v80h-80v110z" />
    <glyph glyph-name="comma" unicode="," horiz-adv-x="178" 
d="M85 -114h-75l32 241h119z" />
    <glyph glyph-name="hyphen" unicode="-" horiz-adv-x="256" 
d="M40 371h176v-110h-176v110z" />
    <glyph glyph-name="period" unicode="." horiz-adv-x="178" 
d="M18 66c0 21.333 6.5 38.5 19.5 51.5s30.167 19.5 51.5 19.5s38.5 -6.5 51.5 -19.5s19.5 -30.167 19.5 -51.5s-6.5 -38.5 -19.5 -51.5s-30.167 -19.5 -51.5 -19.5s-38.5 6.5 -51.5 19.5s-19.5 30.167 -19.5 51.5z" />
    <glyph glyph-name="slash" unicode="/" horiz-adv-x="309" 
d="M105 -89h-105l204 799h105z" />
    <glyph glyph-name="zero" unicode="0" 
d="M312 167c0 -57.333 -12 -101.166 -36 -131.499s-60 -45.5 -108 -45.5s-83.5 15.167 -106.5 45.5s-34.5 74.166 -34.5 131.499v331c0 57.333 11.667 101.166 35 131.499s59 45.5 107 45.5s83.833 -15.167 107.5 -45.5s35.5 -74.166 35.5 -131.499v-331zM192 505
c0 15.333 -1.16895 29.166 -3.50195 41.499s-8.83301 18.5 -19.5 18.5s-17 -6.16699 -19 -18.5s-3 -26.166 -3 -41.499v-344c0 -15.333 0.833008 -29.166 2.5 -41.499s7.83398 -18.5 18.501 -18.5s17.334 6.16699 20.001 18.5s4 26.166 4 41.499v344z" />
    <glyph glyph-name="one" unicode="1" horiz-adv-x="316" 
d="M151 0v534l-71 -81l-75 80l126 132h140v-665h-120z" />
    <glyph glyph-name="two" unicode="2" horiz-adv-x="338" 
d="M25 477l-0.00195312 29c0 54.667 12.333 96.5 37 125.5s60.667 43.5 108 43.5c51.333 0 88 -14.333 110 -43s33 -71.334 33 -128.001v-24c0 -30 -7 -61.667 -21 -95s-31 -68 -51 -104l-96 -171h168v-110h-288v123l76 132c17.333 30 31.833 56 43.5 78
s21.167 41.667 28.5 59s12.5 33 15.5 47s4.5 28.333 4.5 43v18c0 20.667 -1.66699 36.667 -5 48s-9.66602 17 -18.999 17s-15.666 -4.66699 -18.999 -14s-5 -23.666 -5 -42.999v-31h-120z" />
    <glyph glyph-name="three" unicode="3" horiz-adv-x="335" 
d="M188 504c0 14 -1.49902 27.499 -4.49902 40.499s-9.5 19.5 -19.5 19.5c-10.667 0 -17.334 -6.16699 -20.001 -18.5s-4 -26.166 -4 -41.499v-22h-120v16c0 57.333 12 101.166 36 131.499s60 45.5 108 45.5c24 0 45 -3.66699 63 -11s33 -17.166 45 -29.499s21 -27 27 -44
s9 -35.5 9 -55.5v-51c0 -30.667 -6.16699 -56.5 -18.5 -77.5s-27.833 -37.167 -46.5 -48.5v-6c18 -11.333 33.333 -28.5 46 -51.5s19 -49.833 19 -80.5v-75c0 -27.333 -4.16699 -50.833 -12.5 -70.5s-19.333 -35.667 -33 -48s-29 -21.333 -46 -27s-34.5 -8.5 -52.5 -8.5
c-96 0 -144 55.667 -144 167v26h120v-23c0 -6.66699 0.166992 -13.5 0.5 -20.5s1.33301 -13.5 3 -19.5s4.16699 -10.833 7.5 -14.5s7.66602 -5.5 12.999 -5.5s9.5 1.83301 12.5 5.5s5.33301 8.5 7 14.5s2.83398 12.5 3.50098 19.5s1 13.833 1 20.5v59
c0 26 -4.83301 45.333 -14.5 58s-28.167 19 -55.5 19h-22v110h22c27.333 0 45.833 6.16699 55.5 18.5s14.5 31.833 14.5 58.5v20z" />
    <glyph glyph-name="four" unicode="4" horiz-adv-x="345" 
d="M195 137h-175v130l121 398h120l-128 -418h62v83h120v-330h-120v137z" />
    <glyph glyph-name="five" unicode="5" horiz-adv-x="342" 
d="M27 665h288.001v-114h-168v-109c6.66699 9.33301 14.667 17 24 23s21.666 9 36.999 9c38.667 0 66.167 -14.5 82.5 -43.5s24.5 -77.167 24.5 -144.5v-119c0 -57.333 -12 -101.166 -36 -131.499s-60.333 -45.5 -109 -45.5c-48 0 -83.833 14.667 -107.5 44
s-35.5 70 -35.5 122v28h120v-24c0 -15.333 1.16699 -29.166 3.5 -41.499s8.83301 -18.5 19.5 -18.5s17.5 6.16699 20.5 18.5s4.5 26.166 4.5 41.499v144c0 15.333 -1.5 29.166 -4.5 41.499s-9.83301 18.5 -20.5 18.5s-17.167 -6.66699 -19.5 -20s-3.5 -29 -3.5 -47h-120v368
z" />
    <glyph glyph-name="six" unicode="6" horiz-adv-x="342" 
d="M195 467l0.000976562 37.999c0 15.333 -1.5 29.166 -4.5 41.499s-9.83301 18.5 -20.5 18.5s-17.167 -6.16699 -19.5 -18.5s-3.5 -26.166 -3.5 -41.499v-132c6.66699 14.667 15.5 26.834 26.5 36.501s26.833 14.5 47.5 14.5c62.667 0 94 -56.667 94 -170v-87
c0 -57.333 -11.833 -101.166 -35.5 -131.499s-59.834 -45.5 -108.501 -45.5s-84.834 15.167 -108.501 45.5s-35.5 74.166 -35.5 131.499v331c0 58 12 102 36 132s60 45 108 45c48.667 0 84.834 -13.5 108.501 -40.5s35.5 -72.5 35.5 -136.5v-31h-120zM170.001 99.999
c10.667 0 17.5 6.16699 20.5 18.5s4.5 26.166 4.5 41.499v94c0 15.333 -1.66699 29.166 -5 41.499s-10 18.5 -20 18.5s-16.333 -6.16699 -19 -18.5s-4 -26.166 -4 -41.499v-94c0 -15.333 1.16699 -29.166 3.5 -41.499s8.83301 -18.5 19.5 -18.5z" />
    <glyph glyph-name="seven" unicode="7" horiz-adv-x="323" 
d="M32 0l158 551h-170v114h278v-130l-146 -535h-120z" />
    <glyph glyph-name="eight" unicode="8" horiz-adv-x="342" 
d="M27 520c0 50 11.833 88.333 35.5 115s59.834 40 108.501 40s84.834 -12.167 108.501 -36.5s35.5 -58.5 35.5 -102.5v-49c0 -32.667 -5.5 -59.5 -16.5 -80.5s-29.167 -42.167 -54.5 -63.5c23.333 -21.333 41 -44.333 53 -69s18 -56.667 18 -96v-33
c0 -50 -13 -88.333 -39 -115s-61 -40 -105 -40c-46 0 -81.5 12.5 -106.5 37.5s-37.5 58.833 -37.5 101.5v49c0 39.333 5.66699 71.333 17 96s28.666 47.667 51.999 69c-24.667 21.333 -42.334 42.5 -53.001 63.5s-16 47.833 -16 80.5v33zM147 160
c0 -15.333 1.33105 -29.167 3.99805 -41.5s9.33398 -18.5 20.001 -18.5s17.334 6.16699 20.001 18.5s4 26.166 4 41.499v47c0 9.33301 -1 19.333 -3 30s-9 22.334 -21 35.001c-12 -12 -19 -23 -21 -33s-3 -20.667 -3 -32v-47zM146.998 491.999
c0 -15.333 1.00195 -28.666 3.00195 -39.999s9 -23 21 -35c12 12 19 23.667 21 35s3 24.666 3 39.999v13c0 15.333 -1.33301 29.166 -4 41.499s-9.33398 18.5 -20.001 18.5s-17.334 -6.16699 -20.001 -18.5s-4 -26.166 -4 -41.499v-13z" />
    <glyph glyph-name="nine" unicode="9" horiz-adv-x="342" 
d="M150 198l-0.00488281 -37.998c0 -15.333 0.833008 -29.166 2.5 -41.499s7.83398 -18.5 18.501 -18.5s17.334 6.16699 20.001 18.5s4 26.166 4 41.499v132c-6.66699 -14.667 -15.5 -26.834 -26.5 -36.501s-26.833 -14.5 -47.5 -14.5c-62.667 0 -94 56.667 -94 170v87
c0 57.333 11.833 101.166 35.5 131.499s59.834 45.5 108.501 45.5s84.834 -15.167 108.501 -45.5s35.5 -74.166 35.5 -131.499v-331c0 -58 -12 -102 -36 -132s-60 -45 -108 -45c-49.333 0 -85.666 13.667 -108.999 41s-35 71.666 -35 132.999v34h123zM171.995 565.002
c-10.667 0 -17 -6.16699 -19 -18.5s-3 -26.166 -3 -41.499v-94c0 -15.333 1.16699 -29.166 3.5 -41.499s8.5 -18.5 18.5 -18.5s16.333 6.16699 19 18.5s4 26.166 4 41.499v94c0 15.333 -1.16699 29.166 -3.5 41.499s-8.83301 18.5 -19.5 18.5z" />
    <glyph glyph-name="colon" unicode=":" horiz-adv-x="178" 
d="M18 66c0 21.333 6.5 38.5 19.5 51.5s30.167 19.5 51.5 19.5s38.5 -6.5 51.5 -19.5s19.5 -30.167 19.5 -51.5s-6.5 -38.5 -19.5 -51.5s-30.167 -19.5 -51.5 -19.5s-38.5 6.5 -51.5 19.5s-19.5 30.167 -19.5 51.5zM18 443c0 21.333 6.5 38.5 19.5 51.5
s30.167 19.5 51.5 19.5s38.5 -6.5 51.5 -19.5s19.5 -30.167 19.5 -51.5s-6.5 -38.5 -19.5 -51.5s-30.167 -19.5 -51.5 -19.5s-38.5 6.5 -51.5 19.5s-19.5 30.167 -19.5 51.5z" />
    <glyph glyph-name="semicolon" unicode=";" horiz-adv-x="190" 
d="M30 443c0 21.333 6.5 38.5 19.5 51.5s30.167 19.5 51.5 19.5s38.5 -6.5 51.5 -19.5s19.5 -30.167 19.5 -51.5s-6.5 -38.5 -19.5 -51.5s-30.167 -19.5 -51.5 -19.5s-38.5 6.5 -51.5 19.5s-19.5 30.167 -19.5 51.5zM80 -114h-75l32 241h119z" />
    <glyph glyph-name="less" unicode="&#x3c;" horiz-adv-x="330" 
d="M30 362l270 120v-120l-145 -50l145 -50v-120l-270 120v100z" />
    <glyph glyph-name="equal" unicode="=" horiz-adv-x="330" 
d="M30 433h270v-110h-270v110zM30 281h270v-110h-270v110z" />
    <glyph glyph-name="greater" unicode="&#x3e;" horiz-adv-x="330" 
d="M300 262l-270 -120v120l145 50l-145 50v120l270 -120v-100z" />
    <glyph glyph-name="question" unicode="?" horiz-adv-x="334" 
d="M30 470v61.9971c0 20 2.83301 38.833 8.5 56.5s14.334 32.834 26.001 45.501s26.334 22.667 44.001 30s38.167 11 61.5 11c44 0 77.333 -11.5 100 -34.5s34 -54.5 34 -94.5v-59c0 -25.333 -3 -48.5 -9 -69.5s-20.667 -44.5 -44 -70.5
c-9.33301 -10 -16.333 -19.167 -21 -27.5s-8 -17.166 -10 -26.499s-3.16699 -20.333 -3.5 -33s-0.5 -28 -0.5 -46v-23h-120v29c0 22.667 0.333008 41.834 1 57.501s2.66699 29.834 6 42.501s8.16602 24.667 14.499 36s15.5 23.666 27.5 36.999
c17.333 20 28.166 37.833 32.499 53.5s6.5 32.5 6.5 50.5v40c0 18.667 -5.66699 28 -17 28s-17 -13.667 -17 -41v-54h-120zM88 65.9971c0 20.667 6.66699 37.667 20 51s30.333 20 51 20s37.667 -6.66699 51 -20s20 -30.333 20 -51s-6.66699 -37.667 -20 -51
s-30.333 -20 -51 -20s-37.667 6.66699 -51 20s-20 30.333 -20 51z" />
    <glyph glyph-name="at" unicode="@" horiz-adv-x="632" 
d="M314 209c-11.333 0 -16.998 -13.666 -16.998 -40.999c0 -16.667 1.5 -28 4.5 -34s7.16699 -9 12.5 -9c3.33301 0 6.66602 2.16699 9.99902 6.5s5.66602 11.833 6.99902 22.5v43c-2 3.33301 -4.5 6.16602 -7.5 8.49902s-6.16699 3.5 -9.5 3.5zM326.002 -129.999
l-17.002 -0.00195312c-95.333 0 -165.666 23.833 -210.999 71.5s-68 117.167 -68 208.5v192c0 38 5.16699 74.667 15.5 110s27 66.5 50 93.5s53 48.667 90 65s81.833 24.5 134.5 24.5s97 -8.5 133 -25.5s65 -39.167 87 -66.5s37.833 -58.5 47.5 -93.5
s14.5 -70.833 14.5 -107.5v-142c0 -52 -12.333 -91.667 -37 -119s-56.334 -41 -95.001 -41c-23.333 0 -43.166 3.5 -59.499 10.5s-31.5 18.5 -45.5 34.5c-18.667 -30 -46.334 -45 -83.001 -45c-30 0 -53.333 9.33301 -70 28s-25 50.334 -25 95.001
c0 24 2.16699 44.167 6.5 60.5s10.333 29.333 18 39s16.834 16.5 27.501 20.5s22.667 6 36 6c14 0 25.167 -2.5 33.5 -7.5s15.833 -11.833 22.5 -20.5v52c0 22.667 -1 37.834 -3 45.501s-6.66699 11.5 -14 11.5c-6 0 -10.333 -2.5 -13 -7.5s-4 -16.5 -4 -34.5v-9h-105v8
c0 16 2.16699 32.5 6.5 49.5s11.333 32.333 21 46s22.334 24.834 38.001 33.501s35.167 13 58.5 13c16.667 0 32.5 -2.66699 47.5 -8s28.167 -13.833 39.5 -25.5s20.5 -26.667 27.5 -45s10.5 -40.166 10.5 -65.499v-142c0 -21.333 2.5 -35.5 7.5 -42.5
s12.5 -10.5 22.5 -10.5s17.667 4 23 12s8 21.333 8 40v156c0 24.667 -3.16699 49.5 -9.5 74.5s-16.666 47.167 -30.999 66.5s-33.5 35.166 -57.5 47.499s-53.667 18.5 -89 18.5c-34 0 -62.833 -5.66699 -86.5 -17s-42.667 -26.333 -57 -45s-24.833 -40.167 -31.5 -64.5
s-10 -49.5 -10 -75.5v-185c0 -60.667 13.667 -108.834 41 -144.501s73.666 -53.5 138.999 -53.5h16v-90z" />
    <glyph glyph-name="A" unicode="A" horiz-adv-x="358" 
d="M5 0l105 665h140l103 -665h-125l-12 100h-81l-12 -100h-118zM147 210h57l-27 250h-4z" />
    <glyph glyph-name="B" unicode="B" horiz-adv-x="348" 
d="M323 177c0 -58 -12.001 -102 -36.001 -132s-60 -45 -108 -45h-144v665h133c46.667 0 82.834 -13.333 108.501 -40s38.5 -69 38.5 -127v-25c0 -23.333 -2.83301 -44 -8.5 -62s-12.5 -33.333 -20.5 -46c14 -17.333 23.667 -37 29 -59s8 -45.667 8 -71v-58zM202.999 242
c0 6.66699 -0.330078 13.5 -0.99707 20.5s-1.83398 13.5 -3.50098 19.5s-3.83398 10.833 -6.50098 14.5s-6 5.5 -10 5.5h-27v-192h24c9.33301 0 15.666 6.33301 18.999 19s5 26 5 40v73zM195.002 509c0 17.333 -2.16895 28.667 -6.50195 34s-11.166 8 -20.499 8h-13v-144h13
c8.66699 0 15.334 2.83301 20.001 8.5s7 18.167 7 37.5v56z" />
    <glyph glyph-name="C" unicode="C" horiz-adv-x="336" 
d="M195 452l-0.00195312 54.0039c0 15.333 -1.5 29 -4.5 41s-9.16699 18 -18.5 18c-8.66699 0 -14.5 -6.5 -17.5 -19.5s-4.5 -26.167 -4.5 -39.5v-346c0 -13.333 1.5 -26.5 4.5 -39.5s8.83301 -19.5 17.5 -19.5c9.33301 0 15.5 6 18.5 18s4.5 25.667 4.5 41v53h121v-14
c0 -37.333 -3.16699 -69.333 -9.5 -96s-15.666 -48.334 -27.999 -65.001s-27.5 -28.834 -45.5 -36.501s-38.333 -11.5 -61 -11.5c-48 0 -83.667 15.167 -107 45.5s-35 74.166 -35 131.499v331c0 57.333 11.667 101.166 35 131.499s59 45.5 107 45.5
c46.667 0 82.334 -15.5 107.001 -46.5s37 -82.5 37 -154.5v-22h-121z" />
    <glyph glyph-name="D" unicode="D" horiz-adv-x="358" 
d="M328 177c0 -58 -12 -102 -36 -132s-60 -45 -108 -45h-149v665h149c48 0 84 -15 108 -45s36 -74 36 -132v-311zM208 501c0 14 -2.16699 25.833 -6.5 35.5s-11.166 14.5 -20.499 14.5h-26v-441h26c9.33301 0 16.166 5.33301 20.499 16s6.5 25 6.5 43v332z" />
    <glyph glyph-name="E" unicode="E" horiz-adv-x="301" 
d="M281 551h-126v-141h102v-110h-102v-190h126v-110h-246v665h246v-114z" />
    <glyph glyph-name="F" unicode="F" horiz-adv-x="301" 
d="M35 0v665h246v-114h-126v-141h102v-110h-102v-300h-120z" />
    <glyph glyph-name="G" unicode="G" horiz-adv-x="349" 
d="M172 279l0.000976562 110.001h150v-222c0 -57.333 -12.667 -101.166 -38 -131.499s-62 -45.5 -110 -45.5s-84.5 15.167 -109.5 45.5s-37.5 74.166 -37.5 131.499v331c0 57.333 12.333 101.166 37 131.499s61 45.5 109 45.5c50 0 87.333 -16 112 -48s37 -84.667 37 -158
v-17h-120v53c0 15.333 -2 29.166 -6 41.499s-11.333 18.5 -22 18.5s-17.834 -6.16699 -21.501 -18.5s-5.5 -26.166 -5.5 -41.499v-344c0 -15.333 1.66699 -29.166 5 -41.499s10.333 -18.5 21 -18.5s18.167 6.16699 22.5 18.5s6.5 26.166 6.5 41.499v118h-30z" />
    <glyph glyph-name="H" unicode="H" horiz-adv-x="368" 
d="M213 0v292h-58v-292h-120v665h120v-263h58v263h120v-665h-120z" />
    <glyph glyph-name="I" unicode="I" horiz-adv-x="190" 
d="M35 0v665h120v-665h-120z" />
    <glyph glyph-name="J" unicode="J" horiz-adv-x="239" 
d="M20 99c26.667 1.33301 44.834 8.33301 54.501 21s14.5 26 14.5 40v505h120v-498c0 -54.667 -15.833 -97.167 -47.5 -127.5s-78.834 -47.5 -141.501 -51.5v111z" />
    <glyph glyph-name="K" unicode="K" horiz-adv-x="370" 
d="M246 366l119 -366h-127l-74 249l-9 -26v-223h-120v665h120v-256l76 256h127z" />
    <glyph glyph-name="L" unicode="L" horiz-adv-x="316" 
d="M155 665v-555h146v-110h-266v665h120z" />
    <glyph glyph-name="M" unicode="M" horiz-adv-x="449" 
d="M35 0v665h127l66 -340h4l65 340h117v-665h-102v368h-4l-50 -251h-61l-56 251h-4v-368h-102z" />
    <glyph glyph-name="N" unicode="N" horiz-adv-x="374" 
d="M339 0h-116l-88 390h-4v-390h-96v665h116l88 -415h4v415h96v-665z" />
    <glyph glyph-name="O" unicode="O" 
d="M312 167c0 -57.333 -12 -101.166 -36 -131.499s-60 -45.5 -108 -45.5s-83.5 15.167 -106.5 45.5s-34.5 74.166 -34.5 131.499v331c0 57.333 11.667 101.166 35 131.499s59 45.5 107 45.5s83.833 -15.167 107.5 -45.5s35.5 -74.166 35.5 -131.499v-331zM192 505
c0 15.333 -1.33301 29.166 -4 41.499s-9.33398 18.5 -20.001 18.5s-16.834 -6.16699 -18.501 -18.5s-2.5 -26.166 -2.5 -41.499v-344c0 -15.333 0.833008 -29.166 2.5 -41.499s7.83398 -18.5 18.501 -18.5s17.334 6.16699 20.001 18.5s4 26.166 4 41.499v344z" />
    <glyph glyph-name="P" unicode="P" horiz-adv-x="345" 
d="M320 420c0 -116.667 -48 -175 -144 -175h-21v-245h-120v665h141c48 0 84 -15 108 -45s36 -74 36 -132v-68zM200 495c0 37.333 -9.99902 56.001 -29.999 56.001h-15v-196h15c11.333 0 19.166 5.16699 23.499 15.5s6.5 25.166 6.5 44.499v80z" />
    <glyph glyph-name="Q" unicode="Q" 
d="M312 167c0 -82.667 -24.668 -136.667 -74.001 -162c14.667 -23.333 39.334 -35 74.001 -35v-110c-62 0 -108.5 12.5 -139.5 37.5s-51.167 59.167 -60.5 102.5c-30 10.667 -51.667 30 -65 58s-20 64.333 -20 109v331c0 57.333 11.5 101.166 34.5 131.499
s58.5 45.5 106.5 45.5s84 -15.167 108 -45.5s36 -74.166 36 -131.499v-331zM191.999 505c0 7.33301 -0.169922 14.666 -0.50293 21.999s-1.33301 13.833 -3 19.5s-4 10.167 -7 13.5s-7.16699 5 -12.5 5s-9.5 -1.66699 -12.5 -5s-5.16699 -7.83301 -6.5 -13.5
s-2.16602 -12.167 -2.49902 -19.5s-0.5 -14.666 -0.5 -21.999v-344c0 -15.333 0.833008 -29.166 2.5 -41.499s7.83398 -18.5 18.501 -18.5s17.334 6.16699 20.001 18.5s4 26.166 4 41.499v344z" />
    <glyph glyph-name="R" unicode="R" horiz-adv-x="355" 
d="M323 460c0 -34 -5.16699 -63.832 -15.5 -89.499s-23.833 -45.834 -40.5 -60.501l80 -310h-125l-53 274h-14v-274h-120v665h144c48 0 84 -15 108 -45s36 -74 36 -132v-28zM203 495.001c0 37.333 -11 56.001 -33 56.001h-15v-167h14c11.333 0 19.833 4.16699 25.5 12.5
s8.5 24.166 8.5 47.499v51z" />
    <glyph glyph-name="S" unicode="S" horiz-adv-x="328" 
d="M20 511c0 20.667 2.83203 41.002 8.49902 61.002s14.334 37.5 26.001 52.5s26.5 27.167 44.5 36.5s39.667 14 65 14c44.667 0 79.834 -13.833 105.501 -41.5s38.5 -74.5 38.5 -140.5v-41h-120v53c0 15.333 -1.33301 29.166 -4 41.499s-9.33398 18.5 -20.001 18.5
s-16.834 -6.16699 -18.501 -18.5s-2.5 -26.166 -2.5 -41.499v-19c0 -14 3.16699 -27.667 9.5 -41s18.166 -27.333 35.499 -42c15.333 -12.667 30.166 -25.667 44.499 -39s27.166 -28 38.499 -44s20.333 -33.5 27 -52.5s10 -39.833 10 -62.5v-51
c0 -20 -2.66699 -39.667 -8 -59s-13.833 -36.833 -25.5 -52.5s-26.667 -28.334 -45 -38.001s-40.166 -14.5 -65.499 -14.5s-47.166 4.5 -65.499 13.5s-33.333 21.5 -45 37.5s-20.167 35.5 -25.5 58.5s-8 48.5 -8 76.5v37h123v-53c0 -15.333 0.833008 -29.166 2.5 -41.499
s7.83398 -18.5 18.501 -18.5s17.334 6.16699 20.001 18.5s4 26.166 4 41.499v26c0 23.333 -6 43.333 -18 60s-25 31 -39 43c-32 26.667 -58.5 53.667 -79.5 81s-31.5 59.666 -31.5 96.999v44z" />
    <glyph glyph-name="T" unicode="T" horiz-adv-x="323" 
d="M100 0v551h-90v114h303v-114h-93v-551h-120z" />
    <glyph glyph-name="U" unicode="U" horiz-adv-x="348" 
d="M318 665l-0.00195312 -500.001c0 -57.333 -12 -100.666 -36 -129.999s-60 -44 -108 -44s-84 14.667 -108 44s-36 72.666 -36 129.999v500h120v-507c0 -13.333 1.33301 -26.166 4 -38.499s9.33398 -18.5 20.001 -18.5s17.334 6 20.001 18s4 25 4 39v507h120z" />
    <glyph glyph-name="V" unicode="V" horiz-adv-x="347" 
d="M249 0h-151l-88 665h120l41 -460h4l42 460h120z" />
    <glyph glyph-name="W" unicode="W" horiz-adv-x="473" 
d="M278 665l43 -421h4l18 421h120l-72 -665h-114l-42 340h-4l-42 -340h-107l-72 665h120l18 -421h4l43 421h83z" />
    <glyph glyph-name="X" unicode="X" horiz-adv-x="365" 
d="M355 0h-125l-51 229h-4l-41 -229h-123l94 340l-95 325h124l48 -231h4l43 231h123l-100 -328z" />
    <glyph glyph-name="Y" unicode="Y" horiz-adv-x="365" 
d="M242 190v-190h-120v191l-112 474h124l46 -298h4l47 298h124z" />
    <glyph glyph-name="Z" unicode="Z" horiz-adv-x="307" 
d="M19 551v114h273v-130l-164 -425h160v-110h-273v130l165 421h-161z" />
    <glyph glyph-name="bracketleft" unicode="[" horiz-adv-x="257" 
d="M35 795h197v-110h-77v-695h77v-110h-197v915z" />
    <glyph glyph-name="backslash" unicode="\" horiz-adv-x="308" 
d="M0 710h105l203 -799h-105z" />
    <glyph glyph-name="bracketright" unicode="]" horiz-adv-x="257" 
d="M222 -120h-197v110h77v695h-77v110h197v-915z" />
    <glyph glyph-name="asciicircum" unicode="^" horiz-adv-x="330" 
d="M217 460l108 -250h-127l-33 104l-33 -104h-127l108 250h104z" />
    <glyph glyph-name="underscore" unicode="_" horiz-adv-x="350" 
d="M25 -10h300v-120h-300v120z" />
    <glyph glyph-name="grave" unicode="`" horiz-adv-x="350" 
d="M215 695l36 -141h-98l-58 141h120z" />
    <glyph glyph-name="a" unicode="a" horiz-adv-x="335" 
d="M33 351v16.998c0 24 2.33301 45.833 7 65.5s12 36.667 22 51s23 25.5 39 33.5s35.667 12 59 12c48 0 82.667 -13.833 104 -41.5s32 -70.5 32 -128.5v-237c0 -8 1.83301 -13.833 5.5 -17.5s10.5 -5.5 20.5 -5.5v-110c-18 0 -33.5 0.833008 -46.5 2.5
s-24.167 4.83398 -33.5 9.50098s-17.5 11 -24.5 19s-13.5 18.333 -19.5 31c-7.33301 -19.333 -17.833 -34.5 -31.5 -45.5s-30.5 -16.5 -50.5 -16.5c-27.333 0 -49.833 12 -67.5 36s-26.5 61.333 -26.5 112v38c0 19.333 2 37.5 6 54.5s10 31.667 18 44s18 22 30 29
s26 10.5 42 10.5c13.333 0 24.5 -1.66699 33.5 -5s17.167 -7.66602 24.5 -12.999v81c0 35.333 -5.66699 53 -17 53c-5.33301 0 -9.5 -4.33301 -12.5 -13s-4.5 -24.667 -4.5 -48v-18h-109zM176 224.998c-3.33301 2.66699 -7.33301 4 -12 4
c-7.33301 0 -12.833 -3.5 -16.5 -10.5s-5.5 -21.5 -5.5 -43.5v-38c0 -20.667 1.66699 -33.667 5 -39s7.33301 -8 12 -8c2.66699 0 5.5 0.833008 8.5 2.5s5.83301 5.5 8.5 11.5v121z" />
    <glyph glyph-name="b" unicode="b" horiz-adv-x="336" 
d="M155 95c3.33301 -3.33301 7.33203 -4.99902 11.999 -4.99902s9.5 3.66699 14.5 11s7.5 22.666 7.5 45.999v240c0 28.667 -6.33301 43 -19 43c-4 0 -7.16699 -1.66699 -9.5 -5s-4.16602 -7 -5.49902 -11v-319zM116.999 0.000976562l-81.998 -0.000976562v710h107l13 -95
v-135c3.33301 14 10.333 25.833 21 35.5s24 14.5 40 14.5c13.333 0 25.666 -2.83301 36.999 -8.5s21.166 -14.5 29.499 -26.5s14.833 -27.667 19.5 -47s7 -42.666 7 -69.999v-216c0 -55.333 -10.333 -97.833 -31 -127.5s-47 -44.5 -79 -44.5
c-18.667 0 -33.5 4.66699 -44.5 14s-19.167 21.333 -24.5 36z" />
    <glyph glyph-name="c" unicode="c" horiz-adv-x="319" 
d="M181 302v75c0 35.333 -5.66699 53 -17 53s-17 -17.667 -17 -53v-234c0 -35.333 5.66699 -53 17 -53s17 17.667 17 53v75h115v-56c0 -55.333 -10.167 -97.833 -30.5 -127.5s-54.5 -44.5 -102.5 -44.5s-82.667 14.833 -104 44.5s-32 72.167 -32 127.5v196
c0 55.333 10.667 97.833 32 127.5s56 44.5 104 44.5s82.167 -14.833 102.5 -44.5s30.5 -72.167 30.5 -127.5v-56h-115z" />
    <glyph glyph-name="d" unicode="d" horiz-adv-x="340" 
d="M181 423l-4.5 4.5c-1.66699 1.66699 -4.16699 2.5 -7.5 2.5c-14.667 0 -22 -17.667 -22 -53v-240c0 -20.667 1.66699 -33.667 5 -39s7.33301 -8 12 -8c2.66699 0 5.5 0.833008 8.5 2.5s5.83301 5.5 8.5 11.5v319zM301 123c0 -8 1.83496 -13.834 5.50195 -17.501
s10.5 -5.5 20.5 -5.5v-110c-18 0 -33.5 0.833008 -46.5 2.5s-24.167 4.83398 -33.5 9.50098s-17.5 11 -24.5 19s-13.5 18.333 -19.5 31c-7.33301 -19.333 -17 -34.5 -29 -45.5s-27.667 -16.5 -47 -16.5c-28.667 0 -52.5 12 -71.5 36s-28.5 61.333 -28.5 112v240
c0 54.667 8.66699 93.667 26 117s39.666 35 66.999 35c16.667 0 30.167 -3.5 40.5 -10.5s17.166 -15.167 20.499 -24.5v215h110l10 -95v-492z" />
    <glyph glyph-name="e" unicode="e" horiz-adv-x="328" 
d="M147 309h34v68c0 35.333 -5.66699 53 -17 53s-17 -17.667 -17 -53v-68zM181 175h120v-19c0 -54.667 -11 -96 -33 -124s-57 -42 -105 -42c-50.667 0 -86 14.833 -106 44.5s-30 72.167 -30 127.5v196c0 55.333 10.667 97.833 32 127.5s56 44.5 104 44.5
s83 -14.833 105 -44.5s33 -72.167 33 -127.5v-144h-154v-71c0 -35.333 5.66699 -53 17 -53s17 17.667 17 53v32z" />
    <glyph glyph-name="f" unicode="f" horiz-adv-x="245" 
d="M158 420l0.000976562 -420.001h-123v524c0 62.667 11.833 109.334 35.5 140.001s58.167 46 103.5 46c31.333 0 55.166 -4.83301 71.499 -14.5s30.833 -21.5 43.5 -35.5l-70 -70c-3.33301 4.66699 -7.5 9.16699 -12.5 13.5s-10.5 6.5 -16.5 6.5
c-11.333 0 -19.5 -6 -24.5 -18s-7.5 -27.333 -7.5 -46v-26h76v-100h-76z" />
    <glyph glyph-name="g" unicode="g" horiz-adv-x="333" 
d="M181 420c-4 6.66699 -8.66797 10 -14.001 10c-13.333 0 -20 -17.667 -20 -53v-234c0 -35.333 5.66699 -53 17 -53c6.66699 0 12.334 5.66699 17.001 17v313zM146.999 -40l-0.000976562 -9c0 -22 1.33301 -37.667 4 -47s7 -14 13 -14c11.333 0 17 17.667 17 53v97
c-5.33301 -15.333 -13 -27.5 -23 -36.5s-23.667 -13.5 -41 -13.5c-15.333 0 -28.666 2.83301 -39.999 8.5s-20.666 15 -27.999 28s-12.833 30.5 -16.5 52.5s-5.5 49.667 -5.5 83v196c0 55.333 9.66699 97.833 29 127.5s46 44.5 80 44.5c22.667 0 39.667 -4.66699 51 -14
s20.666 -21.333 27.999 -36l9 40h77v-559c0 -56 -11.333 -98.5 -34 -127.5s-57 -43.5 -103 -43.5c-44 0 -77.833 12.5 -101.5 37.5s-35.5 64.5 -35.5 118.5v14h120z" />
    <glyph glyph-name="h" unicode="h" horiz-adv-x="338" 
d="M155 482c6 11.333 14.168 22.166 24.501 32.499s23.833 15.5 40.5 15.5c32 0 54.333 -13.167 67 -39.5s19 -67.166 19 -122.499v-368h-110l-10 95v282c0 35.333 -5.66699 53 -17 53c-4.66699 0 -7.83398 -2 -9.50098 -6s-3.16699 -9 -4.5 -15v-409h-120v710h107l13 -95
v-133z" />
    <glyph glyph-name="i" unicode="i" horiz-adv-x="187" 
d="M35 520h107l13 -95v-425h-120v520zM95 679c19.333 0 35 -6 47 -18s18 -27.667 18 -47s-6 -35 -18 -47s-27.667 -18 -47 -18s-35 6 -47 18s-18 27.667 -18 47s6 35 18 47s27.667 18 47 18z" />
    <glyph glyph-name="j" unicode="j" horiz-adv-x="190" 
d="M142 520l13 -95v-443c0 -38 -4.16699 -69.5 -12.5 -94.5s-19.666 -44.667 -33.999 -59s-31.333 -24.333 -51 -30s-40.834 -8.5 -63.501 -8.5v110c15.333 0 26 5.16699 32 15.5s9 29.5 9 57.5v547h107zM95 679c19.333 0 35 -6 47 -18s18 -27.667 18 -47s-6 -35 -18 -47
s-27.667 -18 -47 -18s-35 6 -47 18s-18 27.667 -18 47s6 35 18 47s27.667 18 47 18z" />
    <glyph glyph-name="k" unicode="k" horiz-adv-x="338" 
d="M247 336l74 -336h-120l-35 229l-11 -34v-195h-120v710h107l13 -95v-289l56 194h117z" />
    <glyph glyph-name="l" unicode="l" horiz-adv-x="187" 
d="M155 615v-615h-110l-10 95v615h107z" />
    <glyph glyph-name="m" unicode="m" horiz-adv-x="489" 
d="M306 0l-119.998 -0.000976562v377c0 35.333 -5.66699 53 -17 53c-4.66699 0 -7.83398 -2 -9.50098 -6s-3.16699 -9 -4.5 -15v-409h-120v520h102l10 -40c4 14 11.667 25.833 23 35.5s26.666 14.5 45.999 14.5c20.667 0 37.167 -5.33301 49.5 -16s21.833 -24.667 28.5 -42
c5.33301 13.333 14 26.333 26 39s27.667 19 47 19c31.333 0 54.166 -13.167 68.499 -39.5s21.5 -67.166 21.5 -122.499v-368h-110l-10 95v282c0 35.333 -5 53 -15 53c-4.66699 0 -8.16699 -2 -10.5 -6s-4.16602 -9 -5.49902 -15v-409z" />
    <glyph glyph-name="n" unicode="n" horiz-adv-x="338" 
d="M147 480c5.33301 13.333 14.001 24.999 26.001 34.999s27.667 15 47 15c32 0 54.333 -13.167 67 -39.5s19 -67.166 19 -122.499v-368h-110l-10 95v282c0 35.333 -5.66699 53 -17 53c-4.66699 0 -7.83398 -2 -9.50098 -6s-3.16699 -9 -4.5 -15v-409h-120v520h102z" />
    <glyph glyph-name="o" unicode="o" horiz-adv-x="328" 
d="M301 160c0 -55.333 -11 -97.5 -33 -126.5s-57 -43.5 -105 -43.5s-82.667 14.5 -104 43.5s-32 71.167 -32 126.5v200c0 55.333 10.667 97.5 32 126.5s56 43.5 104 43.5s83 -14.5 105 -43.5s33 -71.167 33 -126.5v-200zM181 377c0 35.333 -5.66699 53 -17 53
s-17 -17.667 -17 -53v-234c0 -35.333 5.66699 -53 17 -53s17 17.667 17 53v234z" />
    <glyph glyph-name="p" unicode="p" horiz-adv-x="333" 
d="M32 520l102.001 -0.000976562l10 -40c5.33301 13.333 14.166 25 26.499 35s28.166 15 47.499 15c30 0 52.167 -13.167 66.5 -39.5s21.5 -67.166 21.5 -122.499v-206c0 -55.333 -8.66699 -97.833 -26 -127.5s-40.666 -44.5 -69.999 -44.5c-13.333 0 -24.5 2.33301 -33.5 7
s-17.167 10.667 -24.5 18v-130l-13 -95h-107v730zM152.001 94.999c3.33301 -3.33301 8.00098 -5 14.001 -5c13.333 0 20 17.667 20 53v234c0 35.333 -5.66699 53 -17 53c-4.66699 0 -8.33398 -2 -11.001 -6s-4.66699 -9 -6 -15v-314z" />
    <glyph glyph-name="q" unicode="q" horiz-adv-x="333" 
d="M181 414c-1.33301 1.33301 -3.00098 2.83301 -5.00098 4.5s-4.33301 2.5 -7 2.5c-7.33301 0 -12.833 -4.5 -16.5 -13.5s-5.5 -23.5 -5.5 -43.5v-221c0 -18.667 1 -32.167 3 -40.5s6.66699 -12.5 14 -12.5c3.33301 0 6.33301 0.833008 9 2.5s5.33398 5.5 8.00098 11.5v310
zM180.999 15c-7.33301 -7.33301 -15.668 -13.333 -25.001 -18s-20.666 -7 -33.999 -7c-32 0 -55.833 14.833 -71.5 44.5s-23.5 72.167 -23.5 127.5v196c0 55.333 8.5 97.833 25.5 127.5s41.5 44.5 73.5 44.5c19.333 0 33.833 -4.83301 43.5 -14.5s18.167 -21.5 25.5 -35.5
l7 40h99v-730h-110l-10 95v130z" />
    <glyph glyph-name="r" unicode="r" horiz-adv-x="254" 
d="M35 520h102l10 -40c2 4.66699 4.83301 10 8.5 16s8 11.5 13 16.5s11 9.16699 18 12.5s14.833 5 23.5 5c16 0 29 -4 39 -12l-25 -109c-8 5.33301 -16.667 8 -26 8s-17.333 -2 -24 -6s-13 -9.33301 -19 -16v-395h-120v520z" />
    <glyph glyph-name="s" unicode="s" horiz-adv-x="307" 
d="M136 169l0.00488281 -12.002c0 -22 1.16699 -38.667 3.5 -50s7.16602 -17 14.499 -17c13.333 0 20 16 20 48c0 8 -1 15.5 -3 22.5s-5.5 14 -10.5 21s-12 14.333 -21 22s-20.833 16.5 -35.5 26.5c-30 20.667 -52 42.834 -66 66.501s-21 53.834 -21 90.501
c0 16.667 2.83301 33.5 8.5 50.5s14.167 32.333 25.5 46s25.666 24.834 42.999 33.501s37.666 13 60.999 13c43.333 0 76.166 -14.167 98.499 -42.5s33.5 -68.5 33.5 -120.5v-10h-117v22c0 16 -1.16699 28.5 -3.5 37.5s-7.16602 13.5 -14.499 13.5
c-6.66699 0 -11.334 -3.66699 -14.001 -11s-4 -17.333 -4 -30c0 -20.667 6.5 -36.834 19.5 -48.501s31.833 -25.167 56.5 -40.5c30.667 -19.333 51.667 -42 63 -68s17 -53.667 17 -83c0 -17.333 -2.33301 -35.5 -7 -54.5s-12.334 -36.167 -23.001 -51.5
s-24.167 -28 -40.5 -38s-36.5 -15 -60.5 -15c-46.667 0 -81.667 14.5 -105 43.5s-35 71.167 -35 126.5v9h117z" />
    <glyph glyph-name="t" unicode="t" horiz-adv-x="249" 
d="M244 14c-12.667 -8 -24.833 -14 -36.5 -18s-26.167 -6 -43.5 -6c-48 0 -82.333 14.833 -103 44.5s-31 72.167 -31 127.5v458h107l13 -90v-10h79v-100h-79v-264c0 -6.66699 0.333008 -13.334 1 -20.001s2 -12.667 4 -18s4.83301 -9.66602 8.5 -12.999s8.5 -5 14.5 -5
c12.667 0 25.667 4.33301 39 13z" />
    <glyph glyph-name="u" unicode="u" horiz-adv-x="340" 
d="M30 520l120 -0.000976562v-377c0 -18.667 1 -32.167 3 -40.5s6.33301 -12.5 13 -12.5s11.667 4.66699 15 14v416h120v-392c0 -8 1.83301 -14.667 5.5 -20s10.5 -8 20.5 -8v-110c-18 0 -33.333 0.833008 -46 2.5s-23.834 4.83398 -33.501 9.50098s-18 11 -25 19
s-13.5 18.333 -19.5 31c-7.33301 -19.333 -17 -34.5 -29 -45.5s-29 -16.5 -51 -16.5c-12.667 0 -24.667 2.5 -36 7.5s-21.166 13.167 -29.499 24.5s-15 26 -20 44s-7.5 39.667 -7.5 65v389z" />
    <glyph glyph-name="v" unicode="v" horiz-adv-x="324" 
d="M226 0h-128l-86 520h120l28 -383h4l28 383h120z" />
    <glyph glyph-name="w" unicode="w" horiz-adv-x="476" 
d="M192 520h92l33 -283h4l23 283h120l-71 -520h-110l-43 261h-6l-42 -261h-110l-70 520h120l19 -283h4z" />
    <glyph glyph-name="x" unicode="x" horiz-adv-x="322" 
d="M130 520l34 -148h4l24 148h120l-83 -258l81 -262h-120l-32 147h-4l-24 -147h-120l82 283l-82 237h120z" />
    <glyph glyph-name="y" unicode="y" horiz-adv-x="320" 
d="M12 520h119.999l28 -309h4l24 309h120l-102 -565c-4 -22 -10.667 -43 -20 -63s-21.666 -37.5 -36.999 -52.5s-34 -27 -56 -36s-48 -13.5 -78 -13.5v110c17.333 0 34.5 5.5 51.5 16.5s27.5 28.167 31.5 51.5l5 28z" />
    <glyph glyph-name="z" unicode="z" horiz-adv-x="264" 
d="M25 410v110h219v-120l-114 -290h110v-110h-220v120l114 290h-109z" />
    <glyph glyph-name="braceleft" unicode="{" horiz-adv-x="319" 
d="M84 228c0 20 -4.50098 33.3301 -13.501 39.9971s-23.5 10 -43.5 10h-7v110h7c20 0 34.5 3.33301 43.5 10s13.5 20 13.5 40v152c0 30 4.16699 57.5 12.5 82.5s21 46.667 38 65s38.167 32.5 63.5 42.5s55 15 89 15h12v-110h-12c-28.667 0 -49.667 -7.66699 -63 -23
s-20 -45 -20 -89v-150c0 -27.333 -5.33301 -48.166 -16 -62.499s-25.334 -21.5 -44.001 -21.5h-15v-12h15c18.667 0 33.334 -7.5 44.001 -22.5s16 -35.5 16 -61.5v-151c0 -22 1.66699 -39.667 5 -53s8.33301 -23.666 15 -30.999s15.334 -12.166 26.001 -14.499
s23 -3.5 37 -3.5h12v-110h-12c-62.667 0 -112.167 15.667 -148.5 47s-54.5 77.333 -54.5 138v163z" />
    <glyph glyph-name="bar" unicode="|" horiz-adv-x="260" 
d="M70 -120v915h120v-915h-120z" />
    <glyph glyph-name="braceright" unicode="}" horiz-adv-x="319" 
d="M235 438c0 -20 4.49805 -33.3301 13.498 -39.9971s23.5 -10 43.5 -10h7v-110h-7c-20 0 -34.5 -3.33301 -43.5 -10s-13.5 -20 -13.5 -40v-163c0 -60.667 -18.167 -106.667 -54.5 -138s-85.833 -47 -148.5 -47h-12v110h12c14 0 26.333 1.16699 37 3.5
s19.334 7.16602 26.001 14.499s11.667 17.666 15 30.999s5 31 5 53v151c0 27.333 5.33301 48.166 16 62.499s25.334 21.5 44.001 21.5h15v12h-15c-18.667 0 -33.334 7.5 -44.001 22.5s-16 35.5 -16 61.5v150c0 44 -6.66699 73.667 -20 89s-34.333 23 -63 23h-12v110h12
c34 0 63.833 -5 89.5 -15s46.834 -24.167 63.501 -42.5s29.167 -40 37.5 -65s12.5 -52.5 12.5 -82.5v-152z" />
    <glyph glyph-name="asciitilde" unicode="~" horiz-adv-x="330" 
d="M320 395c0 -53.333 -7.16504 -92.333 -21.498 -117s-35.5 -37 -63.5 -37c-20.667 0 -40 4.33301 -58 13c-8.66699 4 -16.834 8.33301 -24.501 13s-15.167 7 -22.5 7c-6 0 -10.833 -3.16699 -14.5 -9.5s-5.5 -14.166 -5.5 -23.499h-100c0 26.667 2.5 49.667 7.5 69
s11.833 35.333 20.5 48s18.5 22 29.5 28s22.167 9 33.5 9c9.33301 0 17.833 -1 25.5 -3s16.5 -5.66699 26.5 -11l23.5 -13.5c9.66699 -5.66699 18.167 -8.5 25.5 -8.5c5.33301 0 9.66602 2.66699 12.999 8s5 14.666 5 27.999h100z" />
    <glyph glyph-name="uni00A0" unicode="&#xa0;" horiz-adv-x="110" 
 />
    <glyph glyph-name="exclamdown" unicode="&#xa1;" horiz-adv-x="222" 
d="M48 -160v494h112l10 -95v-399h-122zM181 459c0 -20.667 -6.66699 -37.667 -20 -51s-30.333 -20 -51 -20s-37.667 6.66699 -51 20s-20 30.333 -20 51s6.66699 37.667 20 51s30.333 20 51 20s37.667 -6.66699 51 -20s20 -30.333 20 -51z" />
    <glyph glyph-name="cent" unicode="&#xa2;" horiz-adv-x="311" 
d="M95 -65v67c-25.333 11.333 -43.833 30.5 -55.5 57.5s-17.5 61.167 -17.5 102.5v196c0 40.667 5.83301 74.5 17.5 101.5s30.167 46.167 55.5 57.5v68h120v-65c27.333 -11.333 46.833 -30.666 58.5 -57.999s17.5 -62 17.5 -104v-56h-115v25c0 34.667 -0.5 60.5 -1.5 77.5
s-6.16699 25.5 -15.5 25.5c-11.333 0 -17 -17.667 -17 -53v-234c0 -35.333 5.66699 -53 17 -53c9.33301 0 14.5 8.33301 15.5 25s1.5 42.667 1.5 78v25h115v-56c0 -42.667 -5.83301 -77.834 -17.5 -105.501s-31.167 -46.5 -58.5 -56.5v-65h-120z" />
    <glyph glyph-name="sterling" unicode="&#xa3;" horiz-adv-x="376" 
d="M30 336l39.999 0.000976562v162c0 57.333 11.667 101.166 35 131.499s59 45.5 107 45.5c46.667 0 82.334 -15.5 107.001 -46.5s37 -82.5 37 -154.5v-22h-121v59c0 15.333 -1.5 28.166 -4.5 38.499s-9.16699 15.5 -18.5 15.5c-8.66699 0 -14.5 -5.66699 -17.5 -17
s-4.5 -23.666 -4.5 -36.999v-175h91v-110h-91v-116h166v-110h-326v110h40v116h-40v110z" />
    <glyph glyph-name="currency" unicode="&#xa4;" horiz-adv-x="360" 
d="M317 290c0 -30.667 -1.83203 -57.168 -5.49902 -79.501s-10.834 -41.833 -21.501 -58.5l50 -117h-107l-30 66c-4 -0.666992 -8 -1 -12 -1h-12h-12c-4 0 -7.66699 0.333008 -11 1l-29 -66h-107l49 117c-4.66699 6.66699 -8.66699 13.334 -12 20.001s-6 13.667 -8 21
s-3.5 15.5 -4.5 24.5s-1.5 19.833 -1.5 32.5v60c0 30.667 1.66699 57 5 79s10.333 41.667 21 59l-49 117h107l29 -67c3.33301 0.666992 7 1.16699 11 1.5s8 0.5 12 0.5c4.66699 0 9 -0.166992 13 -0.5s8 -0.833008 12 -1.5l29 67h107l-50 -118c18 -28 27 -67 27 -117v-40z
M197.001 308.999c0 32 -0.666992 55.167 -2 69.5s-6.33301 21.5 -15 21.5s-13.667 -7.16699 -15 -21.5s-2 -37.5 -2 -69.5v-18c0 -32 0.666992 -55.167 2 -69.5s6.33301 -21.5 15 -21.5c11.333 0 17 17.667 17 53v56z" />
    <glyph glyph-name="yen" unicode="&#xa5;" horiz-adv-x="385" 
d="M52 340h62l-94 325h124l46 -258h4l47 258h124l-101 -325h68v-80h-80v-30h80v-80h-80v-150h-120v150h-80v80h80v30h-80v80z" />
    <glyph glyph-name="brokenbar" unicode="&#xa6;" horiz-adv-x="260" 
d="M190 395h-120v400h120v-400zM190 280v-400h-120v400h120z" />
    <glyph glyph-name="section" unicode="&#xa7;" horiz-adv-x="323" 
d="M127 391c-2.66699 -3.33301 -3.99902 -7.99902 -3.99902 -13.999c0 -20.667 20 -45.334 60 -74.001l11 -8c1.33301 3.33301 2.16602 5.83301 2.49902 7.5s0.5 4.16699 0.5 7.5c0 10.667 -5.5 23 -16.5 37s-26.167 27 -45.5 39zM53.001 460.001
c-7.33301 11.333 -13.832 23.501 -19.499 36.501s-8.5 30.167 -8.5 51.5c0 18 2.5 35.667 7.5 53s13 33 24 47s25 25.333 42 34s37.167 13 60.5 13c91.333 0 137 -55.333 137 -166v-13h-117v12c0 22 -1.16699 38.667 -3.5 50s-7.16602 17 -14.499 17
c-13.333 0 -20 -15 -20 -45c0 -8.66699 1 -16.334 3 -23.001s5.66699 -13.167 11 -19.5s12.666 -13 21.999 -20l35 -25.5c32.667 -22.667 55.167 -45.834 67.5 -69.501s18.5 -50.167 18.5 -79.5c0 -17.333 -2.66699 -33.666 -8 -48.999s-12 -28.666 -20 -39.999
c10 -16 16.833 -31.5 20.5 -46.5s5.5 -29.167 5.5 -42.5c0 -20 -3 -38.833 -9 -56.5s-14.5 -33 -25.5 -46s-24.5 -23.333 -40.5 -31s-34 -11.5 -54 -11.5c-46.667 0 -81.667 13.167 -105 39.5s-35 67.166 -35 122.499v17h117v-12c0 -22 1.16699 -38.667 3.5 -50
s7.16602 -17 14.499 -17c6.66699 0 11.667 3.66699 15 11s5 17.666 5 30.999c0 8 -1 15.333 -3 22s-5.66699 13.334 -11 20.001s-12.5 14 -21.5 22s-20.833 17 -35.5 27c-30 21.333 -51.833 44 -65.5 68s-20.5 51 -20.5 81c0 20 2.33301 36.5 7 49.5s11.667 25.833 21 38.5z
" />
    <glyph glyph-name="dieresis" unicode="&#xa8;" horiz-adv-x="340" 
d="M97 689c19.333 0 35 -6 47 -18s18 -27.667 18 -47s-6 -35 -18 -47s-27.667 -18 -47 -18s-35 6 -47 18s-18 27.667 -18 47s6 35 18 47s27.667 18 47 18zM244 689c19.333 0 35 -6 47 -18s18 -27.667 18 -47s-6 -35 -18 -47s-27.667 -18 -47 -18s-35 6 -47 18
s-18 27.667 -18 47s6 35 18 47s27.667 18 47 18z" />
    <glyph glyph-name="copyright" unicode="&#xa9;" horiz-adv-x="602" 
d="M572 234c0 -91.333 -21.6641 -160.667 -64.9971 -208s-112.333 -71 -207 -71s-163.334 23.833 -206.001 71.5s-64 117.167 -64 208.5v182c0 38 4.66699 74.667 14 110s24.666 66.5 45.999 93.5s49.166 48.667 83.499 65s76.5 24.5 126.5 24.5s92.333 -8.5 127 -25.5
s62.667 -39.167 84 -66.5s36.833 -58.5 46.5 -93.5s14.5 -70.833 14.5 -107.5v-183zM472.003 412.999c0 24.667 -3 49.502 -9 74.502s-15.667 47.167 -29 66.5s-31 35.166 -53 47.499s-49 18.5 -81 18.5s-58.833 -5.66699 -80.5 -17s-39.167 -26.333 -52.5 -45
s-22.833 -40.167 -28.5 -64.5s-8.5 -49.5 -8.5 -75.5v-175c0 -60.667 13 -108.834 39 -144.501s69.667 -53.5 131 -53.5s105.333 17.833 132 53.5s40 83.5 40 143.5v171zM319.003 366.001v55c0 17.333 -1.5 29.666 -4.5 36.999s-7.16699 11 -12.5 11
s-9.66602 -3.66699 -12.999 -11s-5 -19.666 -5 -36.999v-178c0 -17.333 1.66699 -29.666 5 -36.999s7.66602 -11 12.999 -11s9.5 3.66699 12.5 11s4.5 19.666 4.5 36.999v55h101v-38c0 -50 -8.83301 -88.667 -26.5 -116s-48.5 -41 -92.5 -41s-74.833 13.667 -92.5 41
s-26.5 66 -26.5 116v144c0 50 8.66699 88.667 26 116s48 41 92 41s75 -13.667 93 -41s27 -66 27 -116v-38h-101z" />
    <glyph glyph-name="ordfeminine" unicode="&#xaa;" horiz-adv-x="223" 
d="M23 566l0.000976562 10.002c0 29.333 6.33301 53.166 19 71.499s34 27.5 64 27.5c32 0 55 -8.33301 69 -25s21 -42.667 21 -78v-140c0 -4.66699 1 -8 3 -10s6.66699 -3 14 -3v-69c-24 0 -41.833 2.33301 -53.5 7s-21.834 14.667 -30.501 30
c-9.33301 -24.667 -25.666 -37 -48.999 -37c-18.667 0 -34.167 7.16699 -46.5 21.5s-18.5 37.166 -18.5 68.499v22c0 24 5 44 15 60s25.667 24 47 24c9.33301 0 16.833 -1 22.5 -3s10.5 -4.66699 14.5 -8v48c0 19.333 -3 29 -9 29c-2.66699 0 -4.83398 -2.33301 -6.50098 -7
s-2.5 -14 -2.5 -28v-11h-73zM114.001 490.002c-1.33301 1.33301 -3 2.00195 -5 2.00195c-4 0 -7.16699 -1.83301 -9.5 -5.5s-3.5 -11.834 -3.5 -24.501v-21c0 -11.333 1 -18.833 3 -22.5s4 -5.5 6 -5.5c1.33301 0 2.83301 0.166992 4.5 0.5s3.16699 2.16602 4.5 5.49902v71z
" />
    <glyph glyph-name="guillemotleft" unicode="&#xab;" horiz-adv-x="426" 
d="M153 493l79 -83l-99 -117l99 -117l-79 -83l-123 145v110zM332 493l79 -83l-99 -117l99 -117l-79 -83l-123 145v110z" />
    <glyph glyph-name="logicalnot" unicode="&#xac;" horiz-adv-x="330" 
d="M30 386h270v-192h-110v82h-160v110z" />
    <glyph glyph-name="uni00AD" unicode="&#xad;" horiz-adv-x="256" 
 />
    <glyph glyph-name="registered" unicode="&#xae;" horiz-adv-x="504" 
d="M474 385c0 -35.333 -4.33301 -67.8359 -13 -97.5029s-22 -55.167 -40 -76.5s-41 -38.166 -69 -50.499s-61.333 -18.5 -100 -18.5s-72 6.16699 -100 18.5s-51 29.333 -69 51s-31.333 47.334 -40 77.001s-13 61.834 -13 96.501v87c0 34.667 4.33301 66.667 13 96
s22 54.833 40 76.5s41 38.667 69 51s61.333 18.5 100 18.5s72 -6.16699 100 -18.5s51 -29.333 69 -51s31.333 -47.167 40 -76.5s13 -61.333 13 -96v-87zM385 466.997c0 32.667 -3 59.668 -9 81.001s-14.667 38.166 -26 50.499s-25.166 20.833 -41.499 25.5
s-35.166 7 -56.499 7s-40.166 -2.33301 -56.499 -7s-30.166 -13.167 -41.499 -25.5s-20 -29 -26 -50s-9 -47.833 -9 -80.5v-79c0 -32.667 3 -59.667 9 -81s14.667 -38.166 26 -50.499s25.166 -20.833 41.499 -25.5s35.166 -7 56.499 -7s40.166 2.33301 56.499 7
s30.166 13.167 41.499 25.5s20 29.166 26 50.499s9 48.333 9 81v78zM337 482.998c0 -30.667 -7.66699 -52.668 -23 -66.001l34 -134h-73l-23 120h-8v-120h-69v298h82c25.333 0 45 -8.16699 59 -24.5s21 -37.166 21 -62.499v-11zM268 491.997c0 18 -5.33301 27 -16 27h-8v-69
h8c5.33301 0 9.33301 1.66699 12 5s4 10.333 4 21v16z" />
    <glyph glyph-name="macron" unicode="&#xaf;" horiz-adv-x="350" 
d="M72 675h205v-100h-205v100z" />
    <glyph glyph-name="degree" unicode="&#xb0;" horiz-adv-x="245" 
d="M92 628c0 -20.667 10.333 -31 31 -31s31 10.333 31 31s-10.333 31 -31 31s-31 -10.333 -31 -31zM10 628c0 16 3 30.833 9 44.5s14.167 25.5 24.5 35.5s22.333 17.833 36 23.5s28.167 8.5 43.5 8.5c32 0 58.667 -10.667 80 -32s32 -48 32 -80
c0 -15.333 -2.83301 -29.833 -8.5 -43.5s-13.5 -25.667 -23.5 -36s-21.833 -18.5 -35.5 -24.5s-28.5 -9 -44.5 -9c-15.333 0 -29.833 3 -43.5 9s-25.667 14.167 -36 24.5s-18.5 22.333 -24.5 36s-9 28.167 -9 43.5z" />
    <glyph glyph-name="plusminus" unicode="&#xb1;" horiz-adv-x="330" 
d="M30 386h80v50h110v-50h80v-110h-80v-50h-110v50h-80v110zM30 204h270v-110h-270v110z" />
    <glyph glyph-name="twosuperior" unicode="&#xb2;" horiz-adv-x="260" 
d="M15 541l0.00195312 17.001c0 16 2 31.167 6 45.5s10.667 26.666 20 36.999s21.166 18.666 35.499 24.999s32.166 9.5 53.499 9.5c42 0 71.667 -9.5 89 -28.5s26 -44.167 26 -75.5v-10c0 -35.333 -21.667 -79.666 -65 -132.999l-53 -68h118v-90h-220v98l43 55
c26 33.333 45.333 59.5 58 78.5s19 36.167 19 51.5v4c0 18.667 -5 28 -15 28s-15 -10 -15 -30v-14h-100z" />
    <glyph glyph-name="threesuperior" unicode="&#xb3;" horiz-adv-x="260" 
d="M145 561c0 8 -0.99707 13.999 -2.99707 17.999s-6 6 -12 6s-10 -2.5 -12 -7.5s-3 -12.5 -3 -22.5v-4h-100v7c0 34.667 9.5 62.834 28.5 84.501s48.167 32.5 87.5 32.5c19.333 0 36.166 -2.66699 50.499 -8s26.166 -12.5 35.499 -21.5s16.333 -19 21 -30s7 -22.5 7 -34.5
v-20c0 -18 -3.83301 -33.5 -11.5 -46.5s-17.167 -22.833 -28.5 -29.5v-4c11.333 -7.33301 20.833 -17.666 28.5 -30.999s11.5 -29.333 11.5 -48v-25c0 -33.333 -9.33301 -60.5 -28 -81.5s-47.334 -31.5 -86.001 -31.5s-67.667 10.167 -87 30.5s-29 47.5 -29 81.5v20h100v-12
c0 -10 1 -17.5 3 -22.5s6 -7.5 12 -7.5s10 2.5 12 7.5s3 12.5 3 22.5v16c0 13.333 -1.83301 22.166 -5.5 26.499s-11.167 6.5 -22.5 6.5h-34v86h24c14.667 0 24.667 3 30 9s8 15.333 8 28v5z" />
    <glyph glyph-name="acute" unicode="&#xb4;" horiz-adv-x="350" 
d="M276 695l-58 -141h-98l36 141h120z" />
    <glyph glyph-name="mu" unicode="&#xb5;" horiz-adv-x="330" 
d="M145 520l0.000976562 -377c0 -18.667 1 -32.167 3 -40.5s6.33301 -12.5 13 -12.5s11.667 4.66699 15 14v416h120v-397c0 -8 1.83301 -13.833 5.5 -17.5s10.5 -5.5 20.5 -5.5v-110c-22 0 -40 2.33301 -54 7s-25 16 -33 34c-8.66699 -27.333 -26.334 -41 -53.001 -41
c-8.66699 0 -16 1.5 -22 4.5s-10.333 6.5 -13 10.5v-120l-13 -95h-107v730h118z" />
    <glyph glyph-name="paragraph" unicode="&#xb6;" horiz-adv-x="388" 
d="M233 0v665h120v-665h-120zM190 0h-20v357h-27c-36 0 -61.333 12.833 -76 38.5s-22 63.167 -22 112.5v6c0 49.333 7.33301 86.833 22 112.5s40 38.5 76 38.5h47v-665z" />
    <glyph glyph-name="periodcentered" unicode="&#xb7;" horiz-adv-x="178" 
d="M18 359c0 21.333 6.5 38.5 19.5 51.5s30.167 19.5 51.5 19.5s38.5 -6.5 51.5 -19.5s19.5 -30.167 19.5 -51.5s-6.5 -38.5 -19.5 -51.5s-30.167 -19.5 -51.5 -19.5s-38.5 6.5 -51.5 19.5s-19.5 30.167 -19.5 51.5z" />
    <glyph glyph-name="cedilla" unicode="&#xb8;" horiz-adv-x="350" 
d="M136 0l60 0.00195312v-28h5c10.667 0 20.834 -1.5 30.501 -4.5s18.167 -8 25.5 -15s13.166 -16 17.499 -27s6.5 -24.833 6.5 -41.5c0 -34 -8.66699 -59.833 -26 -77.5s-41 -26.5 -71 -26.5s-52.5 8.16699 -67.5 24.5s-22.5 40.166 -22.5 71.499v2h70v-2
c0 -7.33301 1.66699 -13.833 5 -19.5s8.33301 -8.5 15 -8.5c13.333 0 20 11 20 33c0 13.333 -3.16699 22.166 -9.5 26.499s-16.5 6.5 -30.5 6.5h-28v86z" />
    <glyph glyph-name="onesuperior" unicode="&#xb9;" horiz-adv-x="260" 
d="M120 270v287l-54 -48l-58 78l99 82h113v-399h-100z" />
    <glyph glyph-name="ordmasculine" unicode="&#xba;" horiz-adv-x="211" 
d="M196 453c0 -34 -7.16699 -59.667 -21.5 -77s-37.5 -26 -69.5 -26s-55 8.66699 -69 26s-21 43 -21 77v119c0 34 7 59.667 21 77s37 26 69 26s55.167 -8.66699 69.5 -26s21.5 -43 21.5 -77v-119zM114 583c0 19.333 -3 29 -9 29s-9 -9.66699 -9 -29v-141
c0 -19.333 3 -29 9 -29s9 9.66699 9 29v141z" />
    <glyph glyph-name="guillemotright" unicode="&#xbb;" horiz-adv-x="426" 
d="M94 93l-79 83l99 117l-99 117l79 83l123 -145v-110zM273 93l-79 83l99 117l-99 117l79 83l123 -145v-110z" />
    <glyph glyph-name="onequarter" unicode="&#xbc;" horiz-adv-x="678" 
d="M120 270v287l-54 -48l-58 78l99 82h113v-399h-100zM260 0h-100l278 665h100zM573 61h-140v109l86 229h99l-91 -248h46v57h90v-208h-90v61z" />
    <glyph glyph-name="onehalf" unicode="&#xbd;" horiz-adv-x="678" 
d="M120 270v287l-54 -48l-58 78l99 82h113v-399h-100zM250 0h-100l278 665h100zM433 271l0.00195312 17.001c0 16 2 31.167 6 45.5s10.667 26.666 20 36.999s21.166 18.666 35.499 24.999s32.166 9.5 53.499 9.5c42 0 71.667 -9.5 89 -28.5s26 -44.167 26 -75.5v-10
c0 -35.333 -21.667 -79.666 -65 -132.999l-53 -68h118v-90h-220v98l43 55c26 33.333 45.333 59.5 58 78.5s19 36.167 19 51.5v4c0 18.667 -5 28 -15 28s-15 -10 -15 -30v-14h-100z" />
    <glyph glyph-name="threequarters" unicode="&#xbe;" horiz-adv-x="678" 
d="M145 561c0 8 -0.99707 13.999 -2.99707 17.999s-6 6 -12 6s-10 -2.5 -12 -7.5s-3 -12.5 -3 -22.5v-4h-100v7c0 34.667 9.5 62.834 28.5 84.501s48.167 32.5 87.5 32.5c19.333 0 36.166 -2.66699 50.499 -8s26.166 -12.5 35.499 -21.5s16.333 -19 21 -30s7 -22.5 7 -34.5
v-20c0 -18 -3.83301 -33.5 -11.5 -46.5s-17.167 -22.833 -28.5 -29.5v-4c11.333 -7.33301 20.833 -17.666 28.5 -30.999s11.5 -29.333 11.5 -48v-25c0 -33.333 -9.33301 -60.5 -28 -81.5s-47.334 -31.5 -86.001 -31.5s-67.667 10.167 -87 30.5s-29 47.5 -29 81.5v20h100v-12
c0 -10 1 -17.5 3 -22.5s6 -7.5 12 -7.5s10 2.5 12 7.5s3 12.5 3 22.5v16c0 13.333 -1.83301 22.166 -5.5 26.499s-11.167 6.5 -22.5 6.5h-34v86h24c14.667 0 24.667 3 30 9s8 15.333 8 28v5zM260.003 -0.000976562h-100l278 665h100zM573.003 60.999h-140v109l86 229h99
l-91 -248h46v57h90v-208h-90v61z" />
    <glyph glyph-name="questiondown" unicode="&#xbf;" horiz-adv-x="334" 
d="M304 35v-61.9971c0 -20 -2.83301 -38.833 -8.5 -56.5s-14.334 -32.834 -26.001 -45.501s-26.334 -22.667 -44.001 -30s-38.167 -11 -61.5 -11c-44 0 -77.333 11.5 -100 34.5s-34 54.5 -34 94.5v79c0 25.333 3 48.5 9 69.5s20.667 44.5 44 70.5
c8.66699 10 15.5 19.167 20.5 27.5s8.5 17.166 10.5 26.499s3.16699 20.333 3.5 33s0.5 28 0.5 46v23h120v-29c0 -22.667 -0.333008 -41.834 -1 -57.501s-2.66699 -29.834 -6 -42.501s-8.16602 -24.667 -14.499 -36s-15.5 -23.666 -27.5 -36.999
c-17.333 -20 -28.166 -37.833 -32.499 -53.5s-6.5 -32.5 -6.5 -50.5v-60c0 -18.667 5.66699 -28 17 -28s17 13.667 17 41v54h120zM246 459.003c0 -20.667 -6.66699 -37.667 -20 -51s-30.333 -20 -51 -20s-37.667 6.66699 -51 20s-20 30.333 -20 51s6.66699 37.667 20 51
s30.333 20 51 20s37.667 -6.66699 51 -20s20 -30.333 20 -51z" />
    <glyph glyph-name="Agrave" unicode="&#xc0;" horiz-adv-x="358" 
d="M5 0l105 665h140l103 -665h-125l-12 100h-81l-12 -100h-118zM147 210h57l-27 250h-4zM219 850l36 -141h-98l-58 141h120z" />
    <glyph glyph-name="Aacute" unicode="&#xc1;" horiz-adv-x="358" 
d="M5 0l105 665h140l103 -665h-125l-12 100h-81l-12 -100h-118zM147 210h57l-27 250h-4zM280 850l-58 -141h-98l36 141h120z" />
    <glyph glyph-name="Acircumflex" unicode="&#xc2;" horiz-adv-x="358" 
d="M5 0l105 665h140l103 -665h-125l-12 100h-81l-12 -100h-118zM147 210h57l-27 250h-4zM227 850l69 -141h-93l-24 64l-24 -64h-93l69 141h96z" />
    <glyph glyph-name="Atilde" unicode="&#xc3;" horiz-adv-x="358" 
d="M5 0l105 665h140l103 -665h-125l-12 100h-81l-12 -100h-118zM147 210h57l-27 250h-4zM51 716c0 41.333 7.83398 71.5 23.501 90.5s33.834 28.5 54.501 28.5c12 0 22 -1.33301 30 -4s14.667 -5.5 20 -8.5l14.5 -8c4.33301 -2.33301 9.16602 -3.5 14.499 -3.5
c8.66699 0 13 6.33301 13 19v8h86v-8c0 -41.333 -7.33301 -71.833 -22 -91.5s-32.334 -29.5 -53.001 -29.5c-10 0 -19 1.5 -27 4.5s-15 6.5 -21 10.5s-11.5 7.5 -16.5 10.5s-9.83301 4.5 -14.5 4.5c-10.667 0 -16 -7.66699 -16 -23v-7h-86v7z" />
    <glyph glyph-name="Adieresis" unicode="&#xc4;" horiz-adv-x="358" 
d="M5 0l105 665h140l103 -665h-125l-12 100h-81l-12 -100h-118zM147 210h57l-27 250h-4zM106 844c19.333 0 35 -6 47 -18s18 -27.667 18 -47s-6 -35 -18 -47s-27.667 -18 -47 -18s-35 6 -47 18s-18 27.667 -18 47s6 35 18 47s27.667 18 47 18zM253 844
c19.333 0 35 -6 47 -18s18 -27.667 18 -47s-6 -35 -18 -47s-27.667 -18 -47 -18s-35 6 -47 18s-18 27.667 -18 47s6 35 18 47s27.667 18 47 18z" />
    <glyph glyph-name="Aring" unicode="&#xc5;" horiz-adv-x="358" 
d="M5 0l105 665h140l103 -665h-125l-12 100h-81l-12 -100h-118zM147 210h57l-27 250h-4zM155 789c0 -7.33301 2.16699 -13.333 6.5 -18s10.166 -7 17.499 -7s13 2.33301 17 7s6 10.667 6 18s-2 13.166 -6 17.499s-9.66699 6.5 -17 6.5s-13.166 -2.16699 -17.499 -6.5
s-6.5 -10.166 -6.5 -17.499zM88 789c0 25.333 9 46.666 27 63.999s39.333 26 64 26c25.333 0 46.666 -8.66699 63.999 -26s26 -38.666 26 -63.999c0 -24.667 -8.66699 -46 -26 -64s-38.666 -27 -63.999 -27c-12 0 -23.5 2.5 -34.5 7.5s-20.667 11.667 -29 20s-15 18 -20 29
s-7.5 22.5 -7.5 34.5z" />
    <glyph glyph-name="AE" unicode="&#xc6;" horiz-adv-x="510" 
d="M244 100h-88l-31 -100h-120l212 665h273v-114h-126v-141h102v-110h-102v-190h126v-110h-246v100zM244 210v210h-4l-56 -210h60z" />
    <glyph glyph-name="Ccedilla" unicode="&#xc7;" horiz-adv-x="336" 
d="M139 -7c-37.333 6.66699 -64.835 24.8359 -82.502 54.5029s-26.5 69.5 -26.5 119.5v331c0 57.333 11.667 101.166 35 131.499s59 45.5 107 45.5c46.667 0 82.334 -15.5 107.001 -46.5s37 -82.5 37 -154.5v-22h-121v54c0 15.333 -1.5 29 -4.5 41s-9.16699 18 -18.5 18
c-8.66699 0 -14.5 -6.5 -17.5 -19.5s-4.5 -26.167 -4.5 -39.5v-346c0 -13.333 1.5 -26.5 4.5 -39.5s8.83301 -19.5 17.5 -19.5c9.33301 0 15.5 6 18.5 18s4.5 25.667 4.5 41v53h121v-14c0 -67.333 -10.167 -117.333 -30.5 -150s-49.166 -51.667 -86.499 -57v-20h5
c10.667 0 20.834 -1.5 30.501 -4.5s18.167 -8 25.5 -15s13.166 -16 17.499 -27s6.5 -24.833 6.5 -41.5c0 -34 -8.66699 -59.833 -26 -77.5s-41 -26.5 -71 -26.5s-52.5 8.16699 -67.5 24.5s-22.5 40.166 -22.5 71.499v2h70v-2c0 -7.33301 1.66699 -13.833 5 -19.5
s8.33301 -8.5 15 -8.5c13.333 0 20 11 20 33c0 13.333 -3.16699 22.166 -9.5 26.499s-16.5 6.5 -30.5 6.5h-28v79z" />
    <glyph glyph-name="Egrave" unicode="&#xc8;" horiz-adv-x="301" 
d="M281 551h-126v-141h102v-110h-102v-190h126v-110h-246v665h246v-114zM191 850l36 -141h-98l-58 141h120z" />
    <glyph glyph-name="Eacute" unicode="&#xc9;" horiz-adv-x="301" 
d="M281 551h-126v-141h102v-110h-102v-190h126v-110h-246v665h246v-114zM252 850l-58 -141h-98l36 141h120z" />
    <glyph glyph-name="Ecircumflex" unicode="&#xca;" horiz-adv-x="301" 
d="M281 551h-126v-141h102v-110h-102v-190h126v-110h-246v665h246v-114zM199 850l69 -141h-93l-24 64l-24 -64h-93l69 141h96z" />
    <glyph glyph-name="Edieresis" unicode="&#xcb;" horiz-adv-x="301" 
d="M281 551h-126v-141h102v-110h-102v-190h126v-110h-246v665h246v-114zM78 844c19.333 0 35 -6 47 -18s18 -27.667 18 -47s-6 -35 -18 -47s-27.667 -18 -47 -18s-35 6 -47 18s-18 27.667 -18 47s6 35 18 47s27.667 18 47 18zM225 844c19.333 0 35 -6 47 -18
s18 -27.667 18 -47s-6 -35 -18 -47s-27.667 -18 -47 -18s-35 6 -47 18s-18 27.667 -18 47s6 35 18 47s27.667 18 47 18z" />
    <glyph glyph-name="Igrave" unicode="&#xcc;" horiz-adv-x="190" 
d="M35 0v665h120v-665h-120zM135 850l36 -141h-98l-58 141h120z" />
    <glyph glyph-name="Iacute" unicode="&#xcd;" horiz-adv-x="190" 
d="M35 0v665h120v-665h-120zM196 850l-58 -141h-98l36 141h120z" />
    <glyph glyph-name="Icircumflex" unicode="&#xce;" horiz-adv-x="190" 
d="M35 0v665h120v-665h-120zM143 850l69 -141h-93l-24 64l-24 -64h-93l69 141h96z" />
    <glyph glyph-name="Idieresis" unicode="&#xcf;" horiz-adv-x="190" 
d="M35 0v665h120v-665h-120zM22 844c19.333 0 35 -6 47 -18s18 -27.667 18 -47s-6 -35 -18 -47s-27.667 -18 -47 -18s-35 6 -47 18s-18 27.667 -18 47s6 35 18 47s27.667 18 47 18zM169 844c19.333 0 35 -6 47 -18s18 -27.667 18 -47s-6 -35 -18 -47s-27.667 -18 -47 -18
s-35 6 -47 18s-18 27.667 -18 47s6 35 18 47s27.667 18 47 18z" />
    <glyph glyph-name="Eth" unicode="&#xd0;" horiz-adv-x="363" 
d="M5 387h35v278h149c48 0 84 -15 108 -45s36 -74 36 -132v-311c0 -58 -12 -102 -36 -132s-60 -45 -108 -45h-149v277h-35v110zM213 501c0 14 -2.16699 25.833 -6.5 35.5s-11.166 14.5 -20.499 14.5h-26v-164h31v-110h-31v-167h26c9.33301 0 16.166 5.33301 20.499 16
s6.5 25 6.5 43v332z" />
    <glyph glyph-name="Ntilde" unicode="&#xd1;" horiz-adv-x="374" 
d="M339 0h-116l-88 390h-4v-390h-96v665h116l88 -415h4v415h96v-665zM59 716c0 41.333 7.83398 71.5 23.501 90.5s33.834 28.5 54.501 28.5c12 0 22 -1.33301 30 -4s14.667 -5.5 20 -8.5l14.5 -8c4.33301 -2.33301 9.16602 -3.5 14.499 -3.5c8.66699 0 13 6.33301 13 19v8
h86v-8c0 -41.333 -7.33301 -71.833 -22 -91.5s-32.334 -29.5 -53.001 -29.5c-10 0 -19 1.5 -27 4.5s-15 6.5 -21 10.5s-11.5 7.5 -16.5 10.5s-9.83301 4.5 -14.5 4.5c-10.667 0 -16 -7.66699 -16 -23v-7h-86v7z" />
    <glyph glyph-name="Ograve" unicode="&#xd2;" 
d="M312 167c0 -57.333 -12 -101.166 -36 -131.499s-60 -45.5 -108 -45.5s-83.5 15.167 -106.5 45.5s-34.5 74.166 -34.5 131.499v331c0 57.333 11.667 101.166 35 131.499s59 45.5 107 45.5s83.833 -15.167 107.5 -45.5s35.5 -74.166 35.5 -131.499v-331zM192 505
c0 15.333 -1.33301 29.166 -4 41.499s-9.33398 18.5 -20.001 18.5s-16.834 -6.16699 -18.501 -18.5s-2.5 -26.166 -2.5 -41.499v-344c0 -15.333 0.833008 -29.166 2.5 -41.499s7.83398 -18.5 18.501 -18.5s17.334 6.16699 20.001 18.5s4 26.166 4 41.499v344zM210 850
l36 -141h-98l-58 141h120z" />
    <glyph glyph-name="Oacute" unicode="&#xd3;" 
d="M312 167c0 -57.333 -12 -101.166 -36 -131.499s-60 -45.5 -108 -45.5s-83.5 15.167 -106.5 45.5s-34.5 74.166 -34.5 131.499v331c0 57.333 11.667 101.166 35 131.499s59 45.5 107 45.5s83.833 -15.167 107.5 -45.5s35.5 -74.166 35.5 -131.499v-331zM192 505
c0 15.333 -1.33301 29.166 -4 41.499s-9.33398 18.5 -20.001 18.5s-16.834 -6.16699 -18.501 -18.5s-2.5 -26.166 -2.5 -41.499v-344c0 -15.333 0.833008 -29.166 2.5 -41.499s7.83398 -18.5 18.501 -18.5s17.334 6.16699 20.001 18.5s4 26.166 4 41.499v344zM271 850
l-58 -141h-98l36 141h120z" />
    <glyph glyph-name="Ocircumflex" unicode="&#xd4;" 
d="M312 167c0 -57.333 -12 -101.166 -36 -131.499s-60 -45.5 -108 -45.5s-83.5 15.167 -106.5 45.5s-34.5 74.166 -34.5 131.499v331c0 57.333 11.667 101.166 35 131.499s59 45.5 107 45.5s83.833 -15.167 107.5 -45.5s35.5 -74.166 35.5 -131.499v-331zM192 505
c0 15.333 -1.33301 29.166 -4 41.499s-9.33398 18.5 -20.001 18.5s-16.834 -6.16699 -18.501 -18.5s-2.5 -26.166 -2.5 -41.499v-344c0 -15.333 0.833008 -29.166 2.5 -41.499s7.83398 -18.5 18.501 -18.5s17.334 6.16699 20.001 18.5s4 26.166 4 41.499v344zM218 850
l69 -141h-93l-24 64l-24 -64h-93l69 141h96z" />
    <glyph glyph-name="Otilde" unicode="&#xd5;" 
d="M312 167c0 -57.333 -12 -101.166 -36 -131.499s-60 -45.5 -108 -45.5s-83.5 15.167 -106.5 45.5s-34.5 74.166 -34.5 131.499v331c0 57.333 11.667 101.166 35 131.499s59 45.5 107 45.5s83.833 -15.167 107.5 -45.5s35.5 -74.166 35.5 -131.499v-331zM192 505
c0 15.333 -1.33301 29.166 -4 41.499s-9.33398 18.5 -20.001 18.5s-16.834 -6.16699 -18.501 -18.5s-2.5 -26.166 -2.5 -41.499v-344c0 -15.333 0.833008 -29.166 2.5 -41.499s7.83398 -18.5 18.501 -18.5s17.334 6.16699 20.001 18.5s4 26.166 4 41.499v344zM42 716
c0 41.333 7.83398 71.5 23.501 90.5s33.834 28.5 54.501 28.5c12 0 22 -1.33301 30 -4s14.667 -5.5 20 -8.5l14.5 -8c4.33301 -2.33301 9.16602 -3.5 14.499 -3.5c8.66699 0 13 6.33301 13 19v8h86v-8c0 -41.333 -7.33301 -71.833 -22 -91.5s-32.334 -29.5 -53.001 -29.5
c-10 0 -19 1.5 -27 4.5s-15 6.5 -21 10.5s-11.5 7.5 -16.5 10.5s-9.83301 4.5 -14.5 4.5c-10.667 0 -16 -7.66699 -16 -23v-7h-86v7z" />
    <glyph glyph-name="Odieresis" unicode="&#xd6;" 
d="M312 167c0 -57.333 -12 -101.166 -36 -131.499s-60 -45.5 -108 -45.5s-83.5 15.167 -106.5 45.5s-34.5 74.166 -34.5 131.499v331c0 57.333 11.667 101.166 35 131.499s59 45.5 107 45.5s83.833 -15.167 107.5 -45.5s35.5 -74.166 35.5 -131.499v-331zM192 505
c0 15.333 -1.33301 29.166 -4 41.499s-9.33398 18.5 -20.001 18.5s-16.834 -6.16699 -18.501 -18.5s-2.5 -26.166 -2.5 -41.499v-344c0 -15.333 0.833008 -29.166 2.5 -41.499s7.83398 -18.5 18.501 -18.5s17.334 6.16699 20.001 18.5s4 26.166 4 41.499v344zM97 844
c19.333 0 35 -6 47 -18s18 -27.667 18 -47s-6 -35 -18 -47s-27.667 -18 -47 -18s-35 6 -47 18s-18 27.667 -18 47s6 35 18 47s27.667 18 47 18zM244 844c19.333 0 35 -6 47 -18s18 -27.667 18 -47s-6 -35 -18 -47s-27.667 -18 -47 -18s-35 6 -47 18s-18 27.667 -18 47
s6 35 18 47s27.667 18 47 18z" />
    <glyph glyph-name="multiply" unicode="&#xd7;" horiz-adv-x="330" 
d="M31 244l56 57l-56 57l77 77l57 -56l57 56l77 -77l-56 -57l56 -57l-77 -77l-57 56l-57 -56z" />
    <glyph glyph-name="Oslash" unicode="&#xd8;" horiz-adv-x="342" 
d="M312 167c0 -57.333 -12 -101.167 -36 -131.5s-60 -45.5 -108 -45.5c-30 0 -56 6.33301 -78 19l-14 -44l-49 16l24 71c-16 28.667 -24 67 -24 115v331c0 57.333 11.667 101.166 35 131.499s59 45.5 107 45.5c32.667 0 60 -7.33301 82 -22l16 47l49 -16l-26 -77
c14.667 -27.333 22 -63.666 22 -108.999v-331zM147 339.999l45.002 135v30c0 15.333 -1.33301 29.166 -4 41.499s-9.33398 18.5 -20.001 18.5s-16.834 -6.16699 -18.501 -18.5s-2.5 -26.166 -2.5 -41.499v-165zM192.002 311.999l-45.002 -134v-17
c0 -15.333 0.833008 -29.166 2.5 -41.499s7.83398 -18.5 18.501 -18.5s17.334 6.16699 20.001 18.5s4 26.166 4 41.499v151z" />
    <glyph glyph-name="Ugrave" unicode="&#xd9;" horiz-adv-x="348" 
d="M318 665l-0.00195312 -500.001c0 -57.333 -12 -100.666 -36 -129.999s-60 -44 -108 -44s-84 14.667 -108 44s-36 72.666 -36 129.999v500h120v-507c0 -13.333 1.33301 -26.166 4 -38.499s9.33398 -18.5 20.001 -18.5s17.334 6 20.001 18s4 25 4 39v507h120z
M213.998 849.999l36 -141h-98l-58 141h120z" />
    <glyph glyph-name="Uacute" unicode="&#xda;" horiz-adv-x="348" 
d="M318 665l-0.00195312 -500.001c0 -57.333 -12 -100.666 -36 -129.999s-60 -44 -108 -44s-84 14.667 -108 44s-36 72.666 -36 129.999v500h120v-507c0 -13.333 1.33301 -26.166 4 -38.499s9.33398 -18.5 20.001 -18.5s17.334 6 20.001 18s4 25 4 39v507h120z
M274.998 849.999l-58 -141h-98l36 141h120z" />
    <glyph glyph-name="Ucircumflex" unicode="&#xdb;" horiz-adv-x="348" 
d="M318 665l-0.00195312 -500.001c0 -57.333 -12 -100.666 -36 -129.999s-60 -44 -108 -44s-84 14.667 -108 44s-36 72.666 -36 129.999v500h120v-507c0 -13.333 1.33301 -26.166 4 -38.499s9.33398 -18.5 20.001 -18.5s17.334 6 20.001 18s4 25 4 39v507h120z
M221.998 849.999l69 -141h-93l-24 64l-24 -64h-93l69 141h96z" />
    <glyph glyph-name="Udieresis" unicode="&#xdc;" horiz-adv-x="348" 
d="M318 665l-0.00195312 -500.001c0 -57.333 -12 -100.666 -36 -129.999s-60 -44 -108 -44s-84 14.667 -108 44s-36 72.666 -36 129.999v500h120v-507c0 -13.333 1.33301 -26.166 4 -38.499s9.33398 -18.5 20.001 -18.5s17.334 6 20.001 18s4 25 4 39v507h120z
M100.998 843.999c19.333 0 35 -6 47 -18s18 -27.667 18 -47s-6 -35 -18 -47s-27.667 -18 -47 -18s-35 6 -47 18s-18 27.667 -18 47s6 35 18 47s27.667 18 47 18zM247.998 843.999c19.333 0 35 -6 47 -18s18 -27.667 18 -47s-6 -35 -18 -47s-27.667 -18 -47 -18s-35 6 -47 18
s-18 27.667 -18 47s6 35 18 47s27.667 18 47 18z" />
    <glyph glyph-name="Yacute" unicode="&#xdd;" horiz-adv-x="365" 
d="M242 190v-190h-120v191l-112 474h124l46 -298h4l47 298h124zM283 850l-58 -141h-98l36 141h120z" />
    <glyph glyph-name="Thorn" unicode="&#xde;" horiz-adv-x="348" 
d="M323 298c0 -116.667 -48 -175 -144 -175h-21v-123h-123v665h123v-122h21c48 0 84 -15 108 -45s36 -74 36 -132v-68zM203 373c0 19.333 -2.16699 34.168 -6.5 44.501s-12.166 15.5 -23.499 15.5h-15v-200h15c11.333 0 19.166 5.16699 23.499 15.5s6.5 25.166 6.5 44.499
v80z" />
    <glyph glyph-name="germandbls" unicode="&#xdf;" horiz-adv-x="340" 
d="M155 -35l-10 -95h-110v670c0 55.333 10.667 97.5 32 126.5s56 43.5 104 43.5s83.667 -14.5 107 -43.5s35 -71.167 35 -126.5v-13c0 -35.333 -3.83301 -61.5 -11.5 -78.5s-20.834 -31.167 -39.501 -42.5c18.667 -11.333 31.834 -28.666 39.501 -51.999
s11.5 -52.333 11.5 -87v-122c0 -50 -10.667 -86.667 -32 -110s-51 -35 -89 -35h-17v110h3c10 0 15 7.33301 15 22v173c0 15.333 -1.5 25.333 -4.5 30s-8.83301 7 -17.5 7h-2v110h2c9.33301 0 15.333 2.66699 18 8s4 14.666 4 27.999v69c0 35.333 -5.66699 53 -17 53
c-6 0 -11 -4.16699 -15 -12.5s-6 -21.833 -6 -40.5v-592z" />
    <glyph glyph-name="agrave" unicode="&#xe0;" horiz-adv-x="335" 
d="M33 351v16.998c0 24 2.33301 45.833 7 65.5s12 36.667 22 51s23 25.5 39 33.5s35.667 12 59 12c48 0 82.667 -13.833 104 -41.5s32 -70.5 32 -128.5v-237c0 -8 1.83301 -13.833 5.5 -17.5s10.5 -5.5 20.5 -5.5v-110c-18 0 -33.5 0.833008 -46.5 2.5
s-24.167 4.83398 -33.5 9.50098s-17.5 11 -24.5 19s-13.5 18.333 -19.5 31c-7.33301 -19.333 -17.833 -34.5 -31.5 -45.5s-30.5 -16.5 -50.5 -16.5c-27.333 0 -49.833 12 -67.5 36s-26.5 61.333 -26.5 112v38c0 19.333 2 37.5 6 54.5s10 31.667 18 44s18 22 30 29
s26 10.5 42 10.5c13.333 0 24.5 -1.66699 33.5 -5s17.167 -7.66602 24.5 -12.999v81c0 35.333 -5.66699 53 -17 53c-5.33301 0 -9.5 -4.33301 -12.5 -13s-4.5 -24.667 -4.5 -48v-18h-109zM176 224.998c-3.33301 2.66699 -7.33301 4 -12 4
c-7.33301 0 -12.833 -3.5 -16.5 -10.5s-5.5 -21.5 -5.5 -43.5v-38c0 -20.667 1.66699 -33.667 5 -39s7.33301 -8 12 -8c2.66699 0 5.5 0.833008 8.5 2.5s5.83301 5.5 8.5 11.5v121zM208 694.998l36 -141h-98l-58 141h120z" />
    <glyph glyph-name="aacute" unicode="&#xe1;" horiz-adv-x="335" 
d="M33 351v16.998c0 24 2.33301 45.833 7 65.5s12 36.667 22 51s23 25.5 39 33.5s35.667 12 59 12c48 0 82.667 -13.833 104 -41.5s32 -70.5 32 -128.5v-237c0 -8 1.83301 -13.833 5.5 -17.5s10.5 -5.5 20.5 -5.5v-110c-18 0 -33.5 0.833008 -46.5 2.5
s-24.167 4.83398 -33.5 9.50098s-17.5 11 -24.5 19s-13.5 18.333 -19.5 31c-7.33301 -19.333 -17.833 -34.5 -31.5 -45.5s-30.5 -16.5 -50.5 -16.5c-27.333 0 -49.833 12 -67.5 36s-26.5 61.333 -26.5 112v38c0 19.333 2 37.5 6 54.5s10 31.667 18 44s18 22 30 29
s26 10.5 42 10.5c13.333 0 24.5 -1.66699 33.5 -5s17.167 -7.66602 24.5 -12.999v81c0 35.333 -5.66699 53 -17 53c-5.33301 0 -9.5 -4.33301 -12.5 -13s-4.5 -24.667 -4.5 -48v-18h-109zM176 224.998c-3.33301 2.66699 -7.33301 4 -12 4
c-7.33301 0 -12.833 -3.5 -16.5 -10.5s-5.5 -21.5 -5.5 -43.5v-38c0 -20.667 1.66699 -33.667 5 -39s7.33301 -8 12 -8c2.66699 0 5.5 0.833008 8.5 2.5s5.83301 5.5 8.5 11.5v121zM269 694.998l-58 -141h-98l36 141h120z" />
    <glyph glyph-name="acircumflex" unicode="&#xe2;" horiz-adv-x="335" 
d="M33 351v16.998c0 24 2.33301 45.833 7 65.5s12 36.667 22 51s23 25.5 39 33.5s35.667 12 59 12c48 0 82.667 -13.833 104 -41.5s32 -70.5 32 -128.5v-237c0 -8 1.83301 -13.833 5.5 -17.5s10.5 -5.5 20.5 -5.5v-110c-18 0 -33.5 0.833008 -46.5 2.5
s-24.167 4.83398 -33.5 9.50098s-17.5 11 -24.5 19s-13.5 18.333 -19.5 31c-7.33301 -19.333 -17.833 -34.5 -31.5 -45.5s-30.5 -16.5 -50.5 -16.5c-27.333 0 -49.833 12 -67.5 36s-26.5 61.333 -26.5 112v38c0 19.333 2 37.5 6 54.5s10 31.667 18 44s18 22 30 29
s26 10.5 42 10.5c13.333 0 24.5 -1.66699 33.5 -5s17.167 -7.66602 24.5 -12.999v81c0 35.333 -5.66699 53 -17 53c-5.33301 0 -9.5 -4.33301 -12.5 -13s-4.5 -24.667 -4.5 -48v-18h-109zM176 224.998c-3.33301 2.66699 -7.33301 4 -12 4
c-7.33301 0 -12.833 -3.5 -16.5 -10.5s-5.5 -21.5 -5.5 -43.5v-38c0 -20.667 1.66699 -33.667 5 -39s7.33301 -8 12 -8c2.66699 0 5.5 0.833008 8.5 2.5s5.83301 5.5 8.5 11.5v121zM216 694.998l69 -141h-93l-24 64l-24 -64h-93l69 141h96z" />
    <glyph glyph-name="atilde" unicode="&#xe3;" horiz-adv-x="335" 
d="M33 351v16.998c0 24 2.33301 45.833 7 65.5s12 36.667 22 51s23 25.5 39 33.5s35.667 12 59 12c48 0 82.667 -13.833 104 -41.5s32 -70.5 32 -128.5v-237c0 -8 1.83301 -13.833 5.5 -17.5s10.5 -5.5 20.5 -5.5v-110c-18 0 -33.5 0.833008 -46.5 2.5
s-24.167 4.83398 -33.5 9.50098s-17.5 11 -24.5 19s-13.5 18.333 -19.5 31c-7.33301 -19.333 -17.833 -34.5 -31.5 -45.5s-30.5 -16.5 -50.5 -16.5c-27.333 0 -49.833 12 -67.5 36s-26.5 61.333 -26.5 112v38c0 19.333 2 37.5 6 54.5s10 31.667 18 44s18 22 30 29
s26 10.5 42 10.5c13.333 0 24.5 -1.66699 33.5 -5s17.167 -7.66602 24.5 -12.999v81c0 35.333 -5.66699 53 -17 53c-5.33301 0 -9.5 -4.33301 -12.5 -13s-4.5 -24.667 -4.5 -48v-18h-109zM176 224.998c-3.33301 2.66699 -7.33301 4 -12 4
c-7.33301 0 -12.833 -3.5 -16.5 -10.5s-5.5 -21.5 -5.5 -43.5v-38c0 -20.667 1.66699 -33.667 5 -39s7.33301 -8 12 -8c2.66699 0 5.5 0.833008 8.5 2.5s5.83301 5.5 8.5 11.5v121zM40 560.998c0 41.333 7.83398 71.5 23.501 90.5s33.834 28.5 54.501 28.5
c12 0 22 -1.33301 30 -4s14.667 -5.5 20 -8.5l14.5 -8c4.33301 -2.33301 9.16602 -3.5 14.499 -3.5c8.66699 0 13 6.33301 13 19v8h86v-8c0 -41.333 -7.33301 -71.833 -22 -91.5s-32.334 -29.5 -53.001 -29.5c-10 0 -19 1.5 -27 4.5s-15 6.5 -21 10.5s-11.5 7.5 -16.5 10.5
s-9.83301 4.5 -14.5 4.5c-10.667 0 -16 -7.66699 -16 -23v-7h-86v7z" />
    <glyph glyph-name="adieresis" unicode="&#xe4;" horiz-adv-x="335" 
d="M33 351v16.998c0 24 2.33301 45.833 7 65.5s12 36.667 22 51s23 25.5 39 33.5s35.667 12 59 12c48 0 82.667 -13.833 104 -41.5s32 -70.5 32 -128.5v-237c0 -8 1.83301 -13.833 5.5 -17.5s10.5 -5.5 20.5 -5.5v-110c-18 0 -33.5 0.833008 -46.5 2.5
s-24.167 4.83398 -33.5 9.50098s-17.5 11 -24.5 19s-13.5 18.333 -19.5 31c-7.33301 -19.333 -17.833 -34.5 -31.5 -45.5s-30.5 -16.5 -50.5 -16.5c-27.333 0 -49.833 12 -67.5 36s-26.5 61.333 -26.5 112v38c0 19.333 2 37.5 6 54.5s10 31.667 18 44s18 22 30 29
s26 10.5 42 10.5c13.333 0 24.5 -1.66699 33.5 -5s17.167 -7.66602 24.5 -12.999v81c0 35.333 -5.66699 53 -17 53c-5.33301 0 -9.5 -4.33301 -12.5 -13s-4.5 -24.667 -4.5 -48v-18h-109zM176 224.998c-3.33301 2.66699 -7.33301 4 -12 4
c-7.33301 0 -12.833 -3.5 -16.5 -10.5s-5.5 -21.5 -5.5 -43.5v-38c0 -20.667 1.66699 -33.667 5 -39s7.33301 -8 12 -8c2.66699 0 5.5 0.833008 8.5 2.5s5.83301 5.5 8.5 11.5v121zM95 688.998c19.333 0 35 -6 47 -18s18 -27.667 18 -47s-6 -35 -18 -47s-27.667 -18 -47 -18
s-35 6 -47 18s-18 27.667 -18 47s6 35 18 47s27.667 18 47 18zM242 688.998c19.333 0 35 -6 47 -18s18 -27.667 18 -47s-6 -35 -18 -47s-27.667 -18 -47 -18s-35 6 -47 18s-18 27.667 -18 47s6 35 18 47s27.667 18 47 18z" />
    <glyph glyph-name="aring" unicode="&#xe5;" horiz-adv-x="335" 
d="M33 351v16.998c0 24 2.33301 45.833 7 65.5s12 36.667 22 51s23 25.5 39 33.5s35.667 12 59 12c48 0 82.667 -13.833 104 -41.5s32 -70.5 32 -128.5v-237c0 -8 1.83301 -13.833 5.5 -17.5s10.5 -5.5 20.5 -5.5v-110c-18 0 -33.5 0.833008 -46.5 2.5
s-24.167 4.83398 -33.5 9.50098s-17.5 11 -24.5 19s-13.5 18.333 -19.5 31c-7.33301 -19.333 -17.833 -34.5 -31.5 -45.5s-30.5 -16.5 -50.5 -16.5c-27.333 0 -49.833 12 -67.5 36s-26.5 61.333 -26.5 112v38c0 19.333 2 37.5 6 54.5s10 31.667 18 44s18 22 30 29
s26 10.5 42 10.5c13.333 0 24.5 -1.66699 33.5 -5s17.167 -7.66602 24.5 -12.999v81c0 35.333 -5.66699 53 -17 53c-5.33301 0 -9.5 -4.33301 -12.5 -13s-4.5 -24.667 -4.5 -48v-18h-109zM176 224.998c-3.33301 2.66699 -7.33301 4 -12 4
c-7.33301 0 -12.833 -3.5 -16.5 -10.5s-5.5 -21.5 -5.5 -43.5v-38c0 -20.667 1.66699 -33.667 5 -39s7.33301 -8 12 -8c2.66699 0 5.5 0.833008 8.5 2.5s5.83301 5.5 8.5 11.5v121zM144 633.998c0 -7.33301 2.16699 -13.333 6.5 -18s10.166 -7 17.499 -7s13 2.33301 17 7
s6 10.667 6 18s-2 13.166 -6 17.499s-9.66699 6.5 -17 6.5s-13.166 -2.16699 -17.499 -6.5s-6.5 -10.166 -6.5 -17.499zM77 633.998c0 25.333 9 46.666 27 63.999s39.333 26 64 26c25.333 0 46.666 -8.66699 63.999 -26s26 -38.666 26 -63.999
c0 -24.667 -8.66699 -46 -26 -64s-38.666 -27 -63.999 -27c-12 0 -23.5 2.5 -34.5 7.5s-20.667 11.667 -29 20s-15 18 -20 29s-7.5 22.5 -7.5 34.5z" />
    <glyph glyph-name="ae" unicode="&#xe6;" horiz-adv-x="477" 
d="M176 225c-3.33301 2.66699 -7.33301 4.00098 -12 4.00098c-7.33301 0 -12.833 -3.5 -16.5 -10.5s-5.5 -21.5 -5.5 -43.5v-34c0 -20.667 1.66699 -34.334 5 -41.001s7.33301 -10 12 -10c2.66699 0 5.5 0.833008 8.5 2.5s5.83301 5.5 8.5 11.5v121zM296 143.001
c0 -35.333 5.66895 -53 17.002 -53s17 17.667 17 53v32h120v-19c0 -110.667 -42 -166 -126 -166c-16.667 0 -33 3.66699 -49 11s-29 17 -39 29c-15.333 -15.333 -31.333 -25.833 -48 -31.5s-34 -8.5 -52 -8.5c-34 0 -61.5 12 -82.5 36s-31.5 61.333 -31.5 112v38
c0 19.333 2 37.5 6 54.5s10.167 31.667 18.5 44s19 22 32 29s28.5 10.5 46.5 10.5c20.667 0 37.667 -4.33301 51 -13v76c0 35.333 -5.66699 53 -17 53c-5.33301 0 -9.5 -4.33301 -12.5 -13s-4.5 -24.667 -4.5 -48v-18h-109v17c0 48 10 87 30 117s48.667 45 86 45
c19.333 0 35.833 -3.16699 49.5 -9.5s26.167 -16.5 37.5 -30.5c9.33301 12.667 21.166 22.5 35.499 29.5s32.166 10.5 53.499 10.5c38.667 0 69.167 -14.833 91.5 -44.5s33.5 -72.167 33.5 -127.5v-144h-154v-71zM330.002 377.001c0 35.333 -5.66699 53 -17 53
s-17 -17.667 -17 -53v-68h34v68z" />
    <glyph glyph-name="ccedilla" unicode="&#xe7;" horiz-adv-x="319" 
d="M123 -6c-34 8 -58.5 26.334 -73.5 55.001s-22.5 66.334 -22.5 113.001v196c0 55.333 10.667 97.833 32 127.5s56 44.5 104 44.5s82.167 -14.833 102.5 -44.5s30.5 -72.167 30.5 -127.5v-56h-115v75c0 35.333 -5.66699 53 -17 53s-17 -17.667 -17 -53v-234
c0 -35.333 5.66699 -53 17 -53s17 17.667 17 53v75h115v-56c0 -51.333 -8.66699 -91.5 -26 -120.5s-46.333 -45.833 -87 -50.5v-19h5c10.667 0 20.834 -1.5 30.501 -4.5s18.167 -8 25.5 -15s13.166 -16 17.499 -27s6.5 -24.833 6.5 -41.5c0 -34 -8.66699 -59.833 -26 -77.5
s-41 -26.5 -71 -26.5s-52.5 8.16699 -67.5 24.5s-22.5 40.166 -22.5 71.499v2h70v-2c0 -7.33301 1.66699 -13.833 5 -19.5s8.33301 -8.5 15 -8.5c13.333 0 20 11 20 33c0 13.333 -3.16699 22.166 -9.5 26.499s-16.5 6.5 -30.5 6.5h-28v80z" />
    <glyph glyph-name="egrave" unicode="&#xe8;" horiz-adv-x="328" 
d="M147 309h34v68c0 35.333 -5.66699 53 -17 53s-17 -17.667 -17 -53v-68zM181 175h120v-19c0 -54.667 -11 -96 -33 -124s-57 -42 -105 -42c-50.667 0 -86 14.833 -106 44.5s-30 72.167 -30 127.5v196c0 55.333 10.667 97.833 32 127.5s56 44.5 104 44.5
s83 -14.833 105 -44.5s33 -72.167 33 -127.5v-144h-154v-71c0 -35.333 5.66699 -53 17 -53s17 17.667 17 53v32zM204 695l36 -141h-98l-58 141h120z" />
    <glyph glyph-name="eacute" unicode="&#xe9;" horiz-adv-x="328" 
d="M147 309h34v68c0 35.333 -5.66699 53 -17 53s-17 -17.667 -17 -53v-68zM181 175h120v-19c0 -54.667 -11 -96 -33 -124s-57 -42 -105 -42c-50.667 0 -86 14.833 -106 44.5s-30 72.167 -30 127.5v196c0 55.333 10.667 97.833 32 127.5s56 44.5 104 44.5
s83 -14.833 105 -44.5s33 -72.167 33 -127.5v-144h-154v-71c0 -35.333 5.66699 -53 17 -53s17 17.667 17 53v32zM265 695l-58 -141h-98l36 141h120z" />
    <glyph glyph-name="ecircumflex" unicode="&#xea;" horiz-adv-x="328" 
d="M147 309h34v68c0 35.333 -5.66699 53 -17 53s-17 -17.667 -17 -53v-68zM181 175h120v-19c0 -54.667 -11 -96 -33 -124s-57 -42 -105 -42c-50.667 0 -86 14.833 -106 44.5s-30 72.167 -30 127.5v196c0 55.333 10.667 97.833 32 127.5s56 44.5 104 44.5
s83 -14.833 105 -44.5s33 -72.167 33 -127.5v-144h-154v-71c0 -35.333 5.66699 -53 17 -53s17 17.667 17 53v32zM212 695l69 -141h-93l-24 64l-24 -64h-93l69 141h96z" />
    <glyph glyph-name="edieresis" unicode="&#xeb;" horiz-adv-x="328" 
d="M147 309h34v68c0 35.333 -5.66699 53 -17 53s-17 -17.667 -17 -53v-68zM181 175h120v-19c0 -54.667 -11 -96 -33 -124s-57 -42 -105 -42c-50.667 0 -86 14.833 -106 44.5s-30 72.167 -30 127.5v196c0 55.333 10.667 97.833 32 127.5s56 44.5 104 44.5
s83 -14.833 105 -44.5s33 -72.167 33 -127.5v-144h-154v-71c0 -35.333 5.66699 -53 17 -53s17 17.667 17 53v32zM91 689c19.333 0 35 -6 47 -18s18 -27.667 18 -47s-6 -35 -18 -47s-27.667 -18 -47 -18s-35 6 -47 18s-18 27.667 -18 47s6 35 18 47s27.667 18 47 18zM238 689
c19.333 0 35 -6 47 -18s18 -27.667 18 -47s-6 -35 -18 -47s-27.667 -18 -47 -18s-35 6 -47 18s-18 27.667 -18 47s6 35 18 47s27.667 18 47 18z" />
    <glyph glyph-name="igrave" unicode="&#xec;" horiz-adv-x="190" 
d="M35 520h110l13 -95v-425h-123v520zM135 695l36 -141h-98l-58 141h120z" />
    <glyph glyph-name="iacute" unicode="&#xed;" horiz-adv-x="190" 
d="M35 520h110l13 -95v-425h-123v520zM196 695l-58 -141h-98l36 141h120z" />
    <glyph glyph-name="icircumflex" unicode="&#xee;" horiz-adv-x="190" 
d="M35 520h110l13 -95v-425h-123v520zM143 695l69 -141h-93l-24 64l-24 -64h-93l69 141h96z" />
    <glyph glyph-name="idieresis" unicode="&#xef;" horiz-adv-x="190" 
d="M35 520h110l13 -95v-425h-123v520zM22 689c19.333 0 35 -6 47 -18s18 -27.667 18 -47s-6 -35 -18 -47s-27.667 -18 -47 -18s-35 6 -47 18s-18 27.667 -18 47s6 35 18 47s27.667 18 47 18zM169 689c19.333 0 35 -6 47 -18s18 -27.667 18 -47s-6 -35 -18 -47
s-27.667 -18 -47 -18s-35 6 -47 18s-18 27.667 -18 47s6 35 18 47s27.667 18 47 18z" />
    <glyph glyph-name="eth" unicode="&#xf0;" horiz-adv-x="328" 
d="M133 571l16.002 14c-13.333 6.66699 -26.666 10 -39.999 10h-5v80h6c20 0 38.333 -3.16699 55 -9.5s32 -15.166 46 -26.499l42 37l29 -33l-42 -36c20.667 -28 36 -63.167 46 -105.5s15 -89.5 15 -141.5v-199c0 -55.333 -11 -97.666 -33 -126.999s-57 -44 -105 -44
s-82.667 14.5 -104 43.5s-32 71.167 -32 126.5v207c0 27.333 3 51.166 9 71.499s14.167 37.333 24.5 51s22.166 23.834 35.499 30.501s27 10 41 10c19.333 0 34.166 -3.5 44.499 -10.5s19.166 -14.5 26.499 -22.5c-1.33301 9.33301 -4 19.166 -8 29.499
s-9.66699 20.166 -17 29.499l-21 -18zM181.002 382c0 18.667 -1.33301 31.334 -4 38.001s-7 10 -13 10s-10.333 -3.33301 -13 -10s-4 -19.334 -4 -38.001v-244c0 -18.667 1.33301 -31.334 4 -38.001s7 -10 13 -10s10.333 3.33301 13 10s4 19.334 4 38.001v244z" />
    <glyph glyph-name="ntilde" unicode="&#xf1;" horiz-adv-x="338" 
d="M147 480c5.33301 13.333 14.001 24.999 26.001 34.999s27.667 15 47 15c32 0 54.333 -13.167 67 -39.5s19 -67.166 19 -122.499v-368h-110l-10 95v282c0 35.333 -5.66699 53 -17 53c-4.66699 0 -7.83398 -2 -9.50098 -6s-3.16699 -9 -4.5 -15v-409h-120v520h102z
M41.001 560.999c0 41.333 7.83398 71.5 23.501 90.5s33.834 28.5 54.501 28.5c12 0 22 -1.33301 30 -4s14.667 -5.5 20 -8.5l14.5 -8c4.33301 -2.33301 9.16602 -3.5 14.499 -3.5c8.66699 0 13 6.33301 13 19v8h86v-8c0 -41.333 -7.33301 -71.833 -22 -91.5
s-32.334 -29.5 -53.001 -29.5c-10 0 -19 1.5 -27 4.5s-15 6.5 -21 10.5s-11.5 7.5 -16.5 10.5s-9.83301 4.5 -14.5 4.5c-10.667 0 -16 -7.66699 -16 -23v-7h-86v7z" />
    <glyph glyph-name="ograve" unicode="&#xf2;" horiz-adv-x="328" 
d="M301 160c0 -55.333 -11 -97.5 -33 -126.5s-57 -43.5 -105 -43.5s-82.667 14.5 -104 43.5s-32 71.167 -32 126.5v200c0 55.333 10.667 97.5 32 126.5s56 43.5 104 43.5s83 -14.5 105 -43.5s33 -71.167 33 -126.5v-200zM181 377c0 35.333 -5.66699 53 -17 53
s-17 -17.667 -17 -53v-234c0 -35.333 5.66699 -53 17 -53s17 17.667 17 53v234zM204 695l36 -141h-98l-58 141h120z" />
    <glyph glyph-name="oacute" unicode="&#xf3;" horiz-adv-x="328" 
d="M301 160c0 -55.333 -11 -97.5 -33 -126.5s-57 -43.5 -105 -43.5s-82.667 14.5 -104 43.5s-32 71.167 -32 126.5v200c0 55.333 10.667 97.5 32 126.5s56 43.5 104 43.5s83 -14.5 105 -43.5s33 -71.167 33 -126.5v-200zM181 377c0 35.333 -5.66699 53 -17 53
s-17 -17.667 -17 -53v-234c0 -35.333 5.66699 -53 17 -53s17 17.667 17 53v234zM265 695l-58 -141h-98l36 141h120z" />
    <glyph glyph-name="ocircumflex" unicode="&#xf4;" horiz-adv-x="328" 
d="M301 160c0 -55.333 -11 -97.5 -33 -126.5s-57 -43.5 -105 -43.5s-82.667 14.5 -104 43.5s-32 71.167 -32 126.5v200c0 55.333 10.667 97.5 32 126.5s56 43.5 104 43.5s83 -14.5 105 -43.5s33 -71.167 33 -126.5v-200zM181 377c0 35.333 -5.66699 53 -17 53
s-17 -17.667 -17 -53v-234c0 -35.333 5.66699 -53 17 -53s17 17.667 17 53v234zM212 695l69 -141h-93l-24 64l-24 -64h-93l69 141h96z" />
    <glyph glyph-name="otilde" unicode="&#xf5;" horiz-adv-x="328" 
d="M301 160c0 -55.333 -11 -97.5 -33 -126.5s-57 -43.5 -105 -43.5s-82.667 14.5 -104 43.5s-32 71.167 -32 126.5v200c0 55.333 10.667 97.5 32 126.5s56 43.5 104 43.5s83 -14.5 105 -43.5s33 -71.167 33 -126.5v-200zM181 377c0 35.333 -5.66699 53 -17 53
s-17 -17.667 -17 -53v-234c0 -35.333 5.66699 -53 17 -53s17 17.667 17 53v234zM36 561c0 41.333 7.83398 71.5 23.501 90.5s33.834 28.5 54.501 28.5c12 0 22 -1.33301 30 -4s14.667 -5.5 20 -8.5l14.5 -8c4.33301 -2.33301 9.16602 -3.5 14.499 -3.5
c8.66699 0 13 6.33301 13 19v8h86v-8c0 -41.333 -7.33301 -71.833 -22 -91.5s-32.334 -29.5 -53.001 -29.5c-10 0 -19 1.5 -27 4.5s-15 6.5 -21 10.5s-11.5 7.5 -16.5 10.5s-9.83301 4.5 -14.5 4.5c-10.667 0 -16 -7.66699 -16 -23v-7h-86v7z" />
    <glyph glyph-name="odieresis" unicode="&#xf6;" horiz-adv-x="328" 
d="M301 160c0 -55.333 -11 -97.5 -33 -126.5s-57 -43.5 -105 -43.5s-82.667 14.5 -104 43.5s-32 71.167 -32 126.5v200c0 55.333 10.667 97.5 32 126.5s56 43.5 104 43.5s83 -14.5 105 -43.5s33 -71.167 33 -126.5v-200zM181 377c0 35.333 -5.66699 53 -17 53
s-17 -17.667 -17 -53v-234c0 -35.333 5.66699 -53 17 -53s17 17.667 17 53v234zM91 689c19.333 0 35 -6 47 -18s18 -27.667 18 -47s-6 -35 -18 -47s-27.667 -18 -47 -18s-35 6 -47 18s-18 27.667 -18 47s6 35 18 47s27.667 18 47 18zM238 689c19.333 0 35 -6 47 -18
s18 -27.667 18 -47s-6 -35 -18 -47s-27.667 -18 -47 -18s-35 6 -47 18s-18 27.667 -18 47s6 35 18 47s27.667 18 47 18z" />
    <glyph glyph-name="divide" unicode="&#xf7;" horiz-adv-x="330" 
d="M94 155c0 21.333 6.5 38.5 19.5 51.5s30.167 19.5 51.5 19.5s38.5 -6.5 51.5 -19.5s19.5 -30.167 19.5 -51.5s-6.5 -38.5 -19.5 -51.5s-30.167 -19.5 -51.5 -19.5s-38.5 6.5 -51.5 19.5s-19.5 30.167 -19.5 51.5zM94 447c0 21.333 6.5 38.5 19.5 51.5
s30.167 19.5 51.5 19.5s38.5 -6.5 51.5 -19.5s19.5 -30.167 19.5 -51.5s-6.5 -38.5 -19.5 -51.5s-30.167 -19.5 -51.5 -19.5s-38.5 6.5 -51.5 19.5s-19.5 30.167 -19.5 51.5zM30 356h270v-110h-270v110z" />
    <glyph glyph-name="oslash" unicode="&#xf8;" horiz-adv-x="328" 
d="M301 160c0 -55.333 -11 -97.5 -33 -126.5s-57 -43.5 -105 -43.5c-32.667 0 -60 7.33301 -82 22l-15 -34l-44 18l25 57c-13.333 26 -20 61.667 -20 107v200c0 55.333 10.667 97.5 32 126.5s56 43.5 104 43.5c32.667 0 60 -7.33301 82 -22l15 34l44 -18l-25 -56
c14.667 -27.333 22 -63.333 22 -108v-200zM181 242l-34 -78v-21c0 -35.333 5.66699 -53 17 -53s17 17.667 17 53v99zM147 283l34 78v16c0 35.333 -5.66699 53 -17 53s-17 -17.667 -17 -53v-94z" />
    <glyph glyph-name="ugrave" unicode="&#xf9;" horiz-adv-x="340" 
d="M30 520l120 -0.000976562v-377c0 -18.667 1 -32.167 3 -40.5s6.33301 -12.5 13 -12.5s11.667 4.66699 15 14v416h120v-392c0 -8 1.83301 -14.667 5.5 -20s10.5 -8 20.5 -8v-110c-18 0 -33.333 0.833008 -46 2.5s-23.834 4.83398 -33.501 9.50098s-18 11 -25 19
s-13.5 18.333 -19.5 31c-7.33301 -19.333 -17 -34.5 -29 -45.5s-29 -16.5 -51 -16.5c-12.667 0 -24.667 2.5 -36 7.5s-21.166 13.167 -29.499 24.5s-15 26 -20 44s-7.5 39.667 -7.5 65v389zM210 694.999l36 -141h-98l-58 141h120z" />
    <glyph glyph-name="uacute" unicode="&#xfa;" horiz-adv-x="340" 
d="M30 520l120 -0.000976562v-377c0 -18.667 1 -32.167 3 -40.5s6.33301 -12.5 13 -12.5s11.667 4.66699 15 14v416h120v-392c0 -8 1.83301 -14.667 5.5 -20s10.5 -8 20.5 -8v-110c-18 0 -33.333 0.833008 -46 2.5s-23.834 4.83398 -33.501 9.50098s-18 11 -25 19
s-13.5 18.333 -19.5 31c-7.33301 -19.333 -17 -34.5 -29 -45.5s-29 -16.5 -51 -16.5c-12.667 0 -24.667 2.5 -36 7.5s-21.166 13.167 -29.499 24.5s-15 26 -20 44s-7.5 39.667 -7.5 65v389zM271 694.999l-58 -141h-98l36 141h120z" />
    <glyph glyph-name="ucircumflex" unicode="&#xfb;" horiz-adv-x="340" 
d="M30 520l120 -0.000976562v-377c0 -18.667 1 -32.167 3 -40.5s6.33301 -12.5 13 -12.5s11.667 4.66699 15 14v416h120v-392c0 -8 1.83301 -14.667 5.5 -20s10.5 -8 20.5 -8v-110c-18 0 -33.333 0.833008 -46 2.5s-23.834 4.83398 -33.501 9.50098s-18 11 -25 19
s-13.5 18.333 -19.5 31c-7.33301 -19.333 -17 -34.5 -29 -45.5s-29 -16.5 -51 -16.5c-12.667 0 -24.667 2.5 -36 7.5s-21.166 13.167 -29.499 24.5s-15 26 -20 44s-7.5 39.667 -7.5 65v389zM218 694.999l69 -141h-93l-24 64l-24 -64h-93l69 141h96z" />
    <glyph glyph-name="udieresis" unicode="&#xfc;" horiz-adv-x="340" 
d="M30 520l120 -0.000976562v-377c0 -18.667 1 -32.167 3 -40.5s6.33301 -12.5 13 -12.5s11.667 4.66699 15 14v416h120v-392c0 -8 1.83301 -14.667 5.5 -20s10.5 -8 20.5 -8v-110c-18 0 -33.333 0.833008 -46 2.5s-23.834 4.83398 -33.501 9.50098s-18 11 -25 19
s-13.5 18.333 -19.5 31c-7.33301 -19.333 -17 -34.5 -29 -45.5s-29 -16.5 -51 -16.5c-12.667 0 -24.667 2.5 -36 7.5s-21.166 13.167 -29.499 24.5s-15 26 -20 44s-7.5 39.667 -7.5 65v389zM97 688.999c19.333 0 35 -6 47 -18s18 -27.667 18 -47s-6 -35 -18 -47
s-27.667 -18 -47 -18s-35 6 -47 18s-18 27.667 -18 47s6 35 18 47s27.667 18 47 18zM244 688.999c19.333 0 35 -6 47 -18s18 -27.667 18 -47s-6 -35 -18 -47s-27.667 -18 -47 -18s-35 6 -47 18s-18 27.667 -18 47s6 35 18 47s27.667 18 47 18z" />
    <glyph glyph-name="yacute" unicode="&#xfd;" horiz-adv-x="320" 
d="M12 520h119.999l28 -309h4l24 309h120l-102 -565c-4 -22 -10.667 -43 -20 -63s-21.666 -37.5 -36.999 -52.5s-34 -27 -56 -36s-48 -13.5 -78 -13.5v110c17.333 0 34.5 5.5 51.5 16.5s27.5 28.167 31.5 51.5l5 28zM260.999 695l-58 -141h-98l36 141h120z" />
    <glyph glyph-name="thorn" unicode="&#xfe;" horiz-adv-x="336" 
d="M155 95c3.33301 -3.33301 7.33203 -4.99902 11.999 -4.99902s9.5 3.66699 14.5 11s7.5 22.666 7.5 45.999v240c0 28.667 -6.33301 43 -19 43c-4 0 -7.16699 -1.66699 -9.5 -5s-4.16602 -7 -5.49902 -11v-319zM154.999 -209.999h-120v920h107l13 -95v-135
c3.33301 14 10.833 25.833 22.5 35.5s25.5 14.5 41.5 14.5c27.333 0 49.166 -11.5 65.499 -34.5s24.5 -62.167 24.5 -117.5v-224c0 -55.333 -10 -96.5 -30 -123.5s-44 -40.5 -72 -40.5c-23.333 0 -40.666 5.33301 -51.999 16v-216z" />
    <glyph glyph-name="ydieresis" unicode="&#xff;" horiz-adv-x="320" 
d="M12 520h119.999l28 -309h4l24 309h120l-102 -565c-4 -22 -10.667 -43 -20 -63s-21.666 -37.5 -36.999 -52.5s-34 -27 -56 -36s-48 -13.5 -78 -13.5v110c17.333 0 34.5 5.5 51.5 16.5s27.5 28.167 31.5 51.5l5 28zM86.999 689c19.333 0 35 -6 47 -18s18 -27.667 18 -47
s-6 -35 -18 -47s-27.667 -18 -47 -18s-35 6 -47 18s-18 27.667 -18 47s6 35 18 47s27.667 18 47 18zM233.999 689c19.333 0 35 -6 47 -18s18 -27.667 18 -47s-6 -35 -18 -47s-27.667 -18 -47 -18s-35 6 -47 18s-18 27.667 -18 47s6 35 18 47s27.667 18 47 18z" />
    <glyph glyph-name="Amacron" unicode="&#x100;" horiz-adv-x="358" 
d="M5 0l105 665h140l103 -665h-125l-12 100h-81l-12 -100h-118zM147 210h57l-27 250h-4zM76 830h205v-100h-205v100z" />
    <glyph glyph-name="amacron" unicode="&#x101;" horiz-adv-x="335" 
d="M33 351v16.998c0 24 2.33301 45.833 7 65.5s12 36.667 22 51s23 25.5 39 33.5s35.667 12 59 12c48 0 82.667 -13.833 104 -41.5s32 -70.5 32 -128.5v-237c0 -8 1.83301 -13.833 5.5 -17.5s10.5 -5.5 20.5 -5.5v-110c-18 0 -33.5 0.833008 -46.5 2.5
s-24.167 4.83398 -33.5 9.50098s-17.5 11 -24.5 19s-13.5 18.333 -19.5 31c-7.33301 -19.333 -17.833 -34.5 -31.5 -45.5s-30.5 -16.5 -50.5 -16.5c-27.333 0 -49.833 12 -67.5 36s-26.5 61.333 -26.5 112v38c0 19.333 2 37.5 6 54.5s10 31.667 18 44s18 22 30 29
s26 10.5 42 10.5c13.333 0 24.5 -1.66699 33.5 -5s17.167 -7.66602 24.5 -12.999v81c0 35.333 -5.66699 53 -17 53c-5.33301 0 -9.5 -4.33301 -12.5 -13s-4.5 -24.667 -4.5 -48v-18h-109zM176 224.998c-3.33301 2.66699 -7.33301 4 -12 4
c-7.33301 0 -12.833 -3.5 -16.5 -10.5s-5.5 -21.5 -5.5 -43.5v-38c0 -20.667 1.66699 -33.667 5 -39s7.33301 -8 12 -8c2.66699 0 5.5 0.833008 8.5 2.5s5.83301 5.5 8.5 11.5v121zM65 674.998h205v-100h-205v100z" />
    <glyph glyph-name="Abreve" unicode="&#x102;" horiz-adv-x="358" 
d="M5 0l105 665h140l103 -665h-125l-12 100h-81l-12 -100h-118zM147 210h57l-27 250h-4zM289 837v-12c0 -34 -9 -61.833 -27 -83.5s-46 -32.5 -84 -32.5s-66.167 10.833 -84.5 32.5s-27.5 49.5 -27.5 83.5v12h93v-12c0 -11.333 1.66699 -19 5 -23s8 -6 14 -6s10.667 2 14 6
s5 11.667 5 23v12h92z" />
    <glyph glyph-name="abreve" unicode="&#x103;" horiz-adv-x="335" 
d="M33 351v16.998c0 24 2.33301 45.833 7 65.5s12 36.667 22 51s23 25.5 39 33.5s35.667 12 59 12c48 0 82.667 -13.833 104 -41.5s32 -70.5 32 -128.5v-237c0 -8 1.83301 -13.833 5.5 -17.5s10.5 -5.5 20.5 -5.5v-110c-18 0 -33.5 0.833008 -46.5 2.5
s-24.167 4.83398 -33.5 9.50098s-17.5 11 -24.5 19s-13.5 18.333 -19.5 31c-7.33301 -19.333 -17.833 -34.5 -31.5 -45.5s-30.5 -16.5 -50.5 -16.5c-27.333 0 -49.833 12 -67.5 36s-26.5 61.333 -26.5 112v38c0 19.333 2 37.5 6 54.5s10 31.667 18 44s18 22 30 29
s26 10.5 42 10.5c13.333 0 24.5 -1.66699 33.5 -5s17.167 -7.66602 24.5 -12.999v81c0 35.333 -5.66699 53 -17 53c-5.33301 0 -9.5 -4.33301 -12.5 -13s-4.5 -24.667 -4.5 -48v-18h-109zM176 224.998c-3.33301 2.66699 -7.33301 4 -12 4
c-7.33301 0 -12.833 -3.5 -16.5 -10.5s-5.5 -21.5 -5.5 -43.5v-38c0 -20.667 1.66699 -33.667 5 -39s7.33301 -8 12 -8c2.66699 0 5.5 0.833008 8.5 2.5s5.83301 5.5 8.5 11.5v121zM278 681.998v-12c0 -34 -9 -61.833 -27 -83.5s-46 -32.5 -84 -32.5
s-66.167 10.833 -84.5 32.5s-27.5 49.5 -27.5 83.5v12h93v-12c0 -11.333 1.66699 -19 5 -23s8 -6 14 -6s10.667 2 14 6s5 11.667 5 23v12h92z" />
    <glyph glyph-name="Aogonek" unicode="&#x104;" horiz-adv-x="358" 
d="M5 0l105 665.002h140l103 -665h-34c-20 -16.667 -36.333 -34.334 -49 -53.001s-19 -39 -19 -61c0 -10 1.33301 -16.667 4 -20s6 -5 10 -5s7.33301 1.5 10 4.5s4 9.83301 4 20.5v12h70v-12c0 -11.333 -1.5 -22.833 -4.5 -34.5s-8 -22.334 -15 -32.001
s-15.833 -17.5 -26.5 -23.5s-24 -9 -40 -9c-30 0 -52.5 8.5 -67.5 25.5s-22.5 38.833 -22.5 65.5c0 28 5.16699 51.833 15.5 71.5s23.5 36.5 39.5 50.5l-12 100h-81l-12 -100h-118zM147 210.002h57l-27 250h-4z" />
    <glyph glyph-name="aogonek" unicode="&#x105;" horiz-adv-x="335" 
d="M33 351l-0.000976562 16.999c0 24 2.33301 45.833 7 65.5s12 36.667 22 51s23 25.5 39 33.5s35.667 12 59 12c48 0 82.667 -13.833 104 -41.5s32 -70.5 32 -128.5v-237c0 -8 1.83301 -13.833 5.5 -17.5s10.5 -5.5 20.5 -5.5v-110c-7.33301 0 -14.5 0.166992 -21.5 0.5
s-13.167 0.833008 -18.5 1.5c-17.333 -15.333 -31.333 -31.666 -42 -48.999s-16 -36.333 -16 -57c0 -10 1.33301 -16.667 4 -20s6 -5 10 -5s7.33301 1.5 10 4.5s4 9.83301 4 20.5v12h70v-12c0 -11.333 -1.5 -22.833 -4.5 -34.5s-8 -22.334 -15 -32.001
s-15.833 -17.5 -26.5 -23.5s-24 -9 -40 -9c-30 0 -52.5 8.5 -67.5 25.5s-22.5 38.833 -22.5 65.5c0 33.333 7.33301 61 22 83s32.334 40.333 53.001 55c-8 8 -15.667 20 -23 36c-7.33301 -19.333 -17 -34.5 -29 -45.5s-27.667 -16.5 -47 -16.5c-28.667 0 -52.5 12 -71.5 36
s-28.5 61.333 -28.5 112v38c0 19.333 2 37.5 6 54.5s10 31.667 18 44s18 22 30 29s26 10.5 42 10.5c13.333 0 24.5 -1.66699 33.5 -5s17.167 -7.66602 24.5 -12.999v81c0 35.333 -5.66699 53 -17 53c-5.33301 0 -9.5 -4.33301 -12.5 -13s-4.5 -24.667 -4.5 -48v-18h-109z
M175.999 224.999c-3.33301 2.66699 -7.33301 4.00098 -12 4.00098c-7.33301 0 -12.833 -3.5 -16.5 -10.5s-5.5 -21.5 -5.5 -43.5v-34c0 -20.667 1.66699 -34.334 5 -41.001s7.33301 -10 12 -10c2.66699 0 5.5 0.833008 8.5 2.5s5.83301 5.5 8.5 11.5v121z" />
    <glyph glyph-name="Cacute" unicode="&#x106;" horiz-adv-x="336" 
d="M195 452l-0.00195312 54.0039c0 15.333 -1.5 29 -4.5 41s-9.16699 18 -18.5 18c-8.66699 0 -14.5 -6.5 -17.5 -19.5s-4.5 -26.167 -4.5 -39.5v-346c0 -13.333 1.5 -26.5 4.5 -39.5s8.83301 -19.5 17.5 -19.5c9.33301 0 15.5 6 18.5 18s4.5 25.667 4.5 41v53h121v-14
c0 -37.333 -3.16699 -69.333 -9.5 -96s-15.666 -48.334 -27.999 -65.001s-27.5 -28.834 -45.5 -36.501s-38.333 -11.5 -61 -11.5c-48 0 -83.667 15.167 -107 45.5s-35 74.166 -35 131.499v331c0 57.333 11.667 101.166 35 131.499s59 45.5 107 45.5
c46.667 0 82.334 -15.5 107.001 -46.5s37 -82.5 37 -154.5v-22h-121zM268.998 850.004l-58 -141h-98l36 141h120z" />
    <glyph glyph-name="cacute" unicode="&#x107;" horiz-adv-x="319" 
d="M181 302v75c0 35.333 -5.66699 53 -17 53s-17 -17.667 -17 -53v-234c0 -35.333 5.66699 -53 17 -53s17 17.667 17 53v75h115v-56c0 -55.333 -10.167 -97.833 -30.5 -127.5s-54.5 -44.5 -102.5 -44.5s-82.667 14.833 -104 44.5s-32 72.167 -32 127.5v196
c0 55.333 10.667 97.833 32 127.5s56 44.5 104 44.5s82.167 -14.833 102.5 -44.5s30.5 -72.167 30.5 -127.5v-56h-115zM261 695l-58 -141h-98l36 141h120z" />
    <glyph glyph-name="Ccircumflex" unicode="&#x108;" horiz-adv-x="336" 
d="M195 452l-0.00195312 54.0039c0 15.333 -1.5 29 -4.5 41s-9.16699 18 -18.5 18c-8.66699 0 -14.5 -6.5 -17.5 -19.5s-4.5 -26.167 -4.5 -39.5v-346c0 -13.333 1.5 -26.5 4.5 -39.5s8.83301 -19.5 17.5 -19.5c9.33301 0 15.5 6 18.5 18s4.5 25.667 4.5 41v53h121v-14
c0 -37.333 -3.16699 -69.333 -9.5 -96s-15.666 -48.334 -27.999 -65.001s-27.5 -28.834 -45.5 -36.501s-38.333 -11.5 -61 -11.5c-48 0 -83.667 15.167 -107 45.5s-35 74.166 -35 131.499v331c0 57.333 11.667 101.166 35 131.499s59 45.5 107 45.5
c46.667 0 82.334 -15.5 107.001 -46.5s37 -82.5 37 -154.5v-22h-121zM215.998 850.004l69 -141h-93l-24 64l-24 -64h-93l69 141h96z" />
    <glyph glyph-name="ccircumflex" unicode="&#x109;" horiz-adv-x="319" 
d="M181 302v75c0 35.333 -5.66699 53 -17 53s-17 -17.667 -17 -53v-234c0 -35.333 5.66699 -53 17 -53s17 17.667 17 53v75h115v-56c0 -55.333 -10.167 -97.833 -30.5 -127.5s-54.5 -44.5 -102.5 -44.5s-82.667 14.833 -104 44.5s-32 72.167 -32 127.5v196
c0 55.333 10.667 97.833 32 127.5s56 44.5 104 44.5s82.167 -14.833 102.5 -44.5s30.5 -72.167 30.5 -127.5v-56h-115zM213 695l69 -141h-93l-24 64l-24 -64h-93l69 141h96z" />
    <glyph glyph-name="Cdotaccent" unicode="&#x10a;" horiz-adv-x="336" 
d="M195 452l-0.00195312 54.0039c0 15.333 -1.5 29 -4.5 41s-9.16699 18 -18.5 18c-8.66699 0 -14.5 -6.5 -17.5 -19.5s-4.5 -26.167 -4.5 -39.5v-346c0 -13.333 1.5 -26.5 4.5 -39.5s8.83301 -19.5 17.5 -19.5c9.33301 0 15.5 6 18.5 18s4.5 25.667 4.5 41v53h121v-14
c0 -37.333 -3.16699 -69.333 -9.5 -96s-15.666 -48.334 -27.999 -65.001s-27.5 -28.834 -45.5 -36.501s-38.333 -11.5 -61 -11.5c-48 0 -83.667 15.167 -107 45.5s-35 74.166 -35 131.499v331c0 57.333 11.667 101.166 35 131.499s59 45.5 107 45.5
c46.667 0 82.334 -15.5 107.001 -46.5s37 -82.5 37 -154.5v-22h-121zM173.998 844.004c19.333 0 35 -6 47 -18s18 -27.667 18 -47s-6 -35 -18 -47s-27.667 -18 -47 -18s-35 6 -47 18s-18 27.667 -18 47s6 35 18 47s27.667 18 47 18z" />
    <glyph glyph-name="cdotaccent" unicode="&#x10b;" horiz-adv-x="319" 
d="M181 302v75c0 35.333 -5.66699 53 -17 53s-17 -17.667 -17 -53v-234c0 -35.333 5.66699 -53 17 -53s17 17.667 17 53v75h115v-56c0 -55.333 -10.167 -97.833 -30.5 -127.5s-54.5 -44.5 -102.5 -44.5s-82.667 14.833 -104 44.5s-32 72.167 -32 127.5v196
c0 55.333 10.667 97.833 32 127.5s56 44.5 104 44.5s82.167 -14.833 102.5 -44.5s30.5 -72.167 30.5 -127.5v-56h-115zM165 689c19.333 0 35 -6 47 -18s18 -27.667 18 -47s-6 -35 -18 -47s-27.667 -18 -47 -18s-35 6 -47 18s-18 27.667 -18 47s6 35 18 47s27.667 18 47 18z
" />
    <glyph glyph-name="Ccaron" unicode="&#x10c;" horiz-adv-x="336" 
d="M195 452l-0.00195312 54.0039c0 15.333 -1.5 29 -4.5 41s-9.16699 18 -18.5 18c-8.66699 0 -14.5 -6.5 -17.5 -19.5s-4.5 -26.167 -4.5 -39.5v-346c0 -13.333 1.5 -26.5 4.5 -39.5s8.83301 -19.5 17.5 -19.5c9.33301 0 15.5 6 18.5 18s4.5 25.667 4.5 41v53h121v-14
c0 -37.333 -3.16699 -69.333 -9.5 -96s-15.666 -48.334 -27.999 -65.001s-27.5 -28.834 -45.5 -36.501s-38.333 -11.5 -61 -11.5c-48 0 -83.667 15.167 -107 45.5s-35 74.166 -35 131.499v331c0 57.333 11.667 101.166 35 131.499s59 45.5 107 45.5
c46.667 0 82.334 -15.5 107.001 -46.5s37 -82.5 37 -154.5v-22h-121zM121.998 709.004l-66 141h88l24 -66l24 66h88l-66 -141h-92z" />
    <glyph glyph-name="ccaron" unicode="&#x10d;" horiz-adv-x="319" 
d="M181 302v75c0 35.333 -5.66699 53 -17 53s-17 -17.667 -17 -53v-234c0 -35.333 5.66699 -53 17 -53s17 17.667 17 53v75h115v-56c0 -55.333 -10.167 -97.833 -30.5 -127.5s-54.5 -44.5 -102.5 -44.5s-82.667 14.833 -104 44.5s-32 72.167 -32 127.5v196
c0 55.333 10.667 97.833 32 127.5s56 44.5 104 44.5s82.167 -14.833 102.5 -44.5s30.5 -72.167 30.5 -127.5v-56h-115zM114 554l-66 141h88l24 -66l24 66h88l-66 -141h-92z" />
    <glyph glyph-name="Dcaron" unicode="&#x10e;" horiz-adv-x="358" 
d="M328 177c0 -58 -12 -102 -36 -132s-60 -45 -108 -45h-149v665h149c48 0 84 -15 108 -45s36 -74 36 -132v-311zM208 501c0 14 -2.16699 25.833 -6.5 35.5s-11.166 14.5 -20.499 14.5h-26v-441h26c9.33301 0 16.166 5.33301 20.499 16s6.5 25 6.5 43v332zM133 709l-66 141
h88l24 -66l24 66h88l-66 -141h-92z" />
    <glyph glyph-name="dcaron" unicode="&#x10f;" horiz-adv-x="419" 
d="M181 423l-4.5 4.5c-1.66699 1.66699 -4.16699 2.5 -7.5 2.5c-14.667 0 -22 -17.667 -22 -53v-240c0 -20.667 1.66699 -33.667 5 -39s7.33301 -8 12 -8c2.66699 0 5.5 0.833008 8.5 2.5s5.83301 5.5 8.5 11.5v319zM301 123c0 -8 1.83496 -13.834 5.50195 -17.501
s10.5 -5.5 20.5 -5.5v-110c-18 0 -33.5 0.833008 -46.5 2.5s-24.167 4.83398 -33.5 9.50098s-17.5 11 -24.5 19s-13.5 18.333 -19.5 31c-7.33301 -19.333 -17 -34.5 -29 -45.5s-27.667 -16.5 -47 -16.5c-28.667 0 -52.5 12 -71.5 36s-28.5 61.333 -28.5 112v240
c0 54.667 8.66699 93.667 26 117s39.666 35 66.999 35c16.667 0 30.167 -3.5 40.5 -10.5s17.166 -15.167 20.499 -24.5v215h110l10 -95v-492zM386.002 553.999h-61l15 151h89z" />
    <glyph glyph-name="Dcroat" unicode="&#x110;" horiz-adv-x="363" 
d="M5 387h35v278h149c48 0 84 -15 108 -45s36 -74 36 -132v-311c0 -58 -12 -102 -36 -132s-60 -45 -108 -45h-149v277h-35v110zM213 501c0 14 -2.16699 25.833 -6.5 35.5s-11.166 14.5 -20.499 14.5h-26v-164h31v-110h-31v-167h26c9.33301 0 16.166 5.33301 20.499 16
s6.5 25 6.5 43v332z" />
    <glyph glyph-name="dcroat" unicode="&#x111;" horiz-adv-x="340" 
d="M77 635l104.002 -0.000976562v75h110l8 -75h28v-70h-26v-442c0 -8 1.83301 -13.833 5.5 -17.5s10.5 -5.5 20.5 -5.5v-110c-18 0 -33.5 0.833008 -46.5 2.5s-24.167 4.83398 -33.5 9.50098s-17.5 11 -24.5 19s-13.5 18.333 -19.5 31c-7.33301 -19.333 -17 -34.5 -29 -45.5
s-27.667 -16.5 -47 -16.5c-28.667 0 -52.5 12 -71.5 36s-28.5 61.333 -28.5 112v240c0 54.667 8.66699 93.667 26 117s39.666 35 66.999 35c16.667 0 30.167 -3.5 40.5 -10.5s17.166 -15.167 20.499 -24.5v70h-104v70zM181.002 422.999l-4.5 4.5
c-1.66699 1.66699 -4.16699 2.5 -7.5 2.5c-14.667 0 -22 -17.667 -22 -53v-240c0 -20.667 1.66699 -33.667 5 -39s7.33301 -8 12 -8c2.66699 0 5.5 0.833008 8.5 2.5s5.83301 5.5 8.5 11.5v319z" />
    <glyph glyph-name="Emacron" unicode="&#x112;" horiz-adv-x="301" 
d="M281 551h-126v-141h102v-110h-102v-190h126v-110h-246v665h246v-114zM48 830h205v-100h-205v100z" />
    <glyph glyph-name="emacron" unicode="&#x113;" horiz-adv-x="328" 
d="M147 309h34v68c0 35.333 -5.66699 53 -17 53s-17 -17.667 -17 -53v-68zM181 175h120v-19c0 -54.667 -11 -96 -33 -124s-57 -42 -105 -42c-50.667 0 -86 14.833 -106 44.5s-30 72.167 -30 127.5v196c0 55.333 10.667 97.833 32 127.5s56 44.5 104 44.5
s83 -14.833 105 -44.5s33 -72.167 33 -127.5v-144h-154v-71c0 -35.333 5.66699 -53 17 -53s17 17.667 17 53v32zM61 675h205v-100h-205v100z" />
    <glyph glyph-name="Ebreve" unicode="&#x114;" horiz-adv-x="301" 
d="M281 551h-126v-141h102v-110h-102v-190h126v-110h-246v665h246v-114zM261 837v-12c0 -34 -9 -61.833 -27 -83.5s-46 -32.5 -84 -32.5s-66.167 10.833 -84.5 32.5s-27.5 49.5 -27.5 83.5v12h93v-12c0 -11.333 1.66699 -19 5 -23s8 -6 14 -6s10.667 2 14 6s5 11.667 5 23
v12h92z" />
    <glyph glyph-name="ebreve" unicode="&#x115;" horiz-adv-x="328" 
d="M147 309h34v68c0 35.333 -5.66699 53 -17 53s-17 -17.667 -17 -53v-68zM181 175h120v-19c0 -54.667 -11 -96 -33 -124s-57 -42 -105 -42c-50.667 0 -86 14.833 -106 44.5s-30 72.167 -30 127.5v196c0 55.333 10.667 97.833 32 127.5s56 44.5 104 44.5
s83 -14.833 105 -44.5s33 -72.167 33 -127.5v-144h-154v-71c0 -35.333 5.66699 -53 17 -53s17 17.667 17 53v32zM274 682v-12c0 -34 -9 -61.833 -27 -83.5s-46 -32.5 -84 -32.5s-66.167 10.833 -84.5 32.5s-27.5 49.5 -27.5 83.5v12h93v-12c0 -11.333 1.66699 -19 5 -23
s8 -6 14 -6s10.667 2 14 6s5 11.667 5 23v12h92z" />
    <glyph glyph-name="Edotaccent" unicode="&#x116;" horiz-adv-x="301" 
d="M281 551h-126v-141h102v-110h-102v-190h126v-110h-246v665h246v-114zM151 844c19.333 0 35 -6 47 -18s18 -27.667 18 -47s-6 -35 -18 -47s-27.667 -18 -47 -18s-35 6 -47 18s-18 27.667 -18 47s6 35 18 47s27.667 18 47 18z" />
    <glyph glyph-name="edotaccent" unicode="&#x117;" horiz-adv-x="328" 
d="M147 309h34v68c0 35.333 -5.66699 53 -17 53s-17 -17.667 -17 -53v-68zM181 175h120v-19c0 -54.667 -11 -96 -33 -124s-57 -42 -105 -42c-50.667 0 -86 14.833 -106 44.5s-30 72.167 -30 127.5v196c0 55.333 10.667 97.833 32 127.5s56 44.5 104 44.5
s83 -14.833 105 -44.5s33 -72.167 33 -127.5v-144h-154v-71c0 -35.333 5.66699 -53 17 -53s17 17.667 17 53v32zM164 689c19.333 0 35 -6 47 -18s18 -27.667 18 -47s-6 -35 -18 -47s-27.667 -18 -47 -18s-35 6 -47 18s-18 27.667 -18 47s6 35 18 47s27.667 18 47 18z" />
    <glyph glyph-name="Eogonek" unicode="&#x118;" horiz-adv-x="301" 
d="M281 551l-125.999 0.00195312v-141h102v-110h-102v-190h126v-110h-30c-20 -16.667 -36.333 -34.334 -49 -53.001s-19 -39 -19 -61c0 -10 1.33301 -16.667 4 -20s6 -5 10 -5s7.33301 1.5 10 4.5s4 9.83301 4 20.5v12h70v-12c0 -11.333 -1.5 -22.833 -4.5 -34.5
s-8 -22.334 -15 -32.001s-15.833 -17.5 -26.5 -23.5s-24 -9 -40 -9c-30 0 -52.5 8.5 -67.5 25.5s-22.5 38.833 -22.5 65.5c0 28 5.16699 51.833 15.5 71.5s23.166 36.5 38.499 50.5h-124v665h246v-114z" />
    <glyph glyph-name="eogonek" unicode="&#x119;" horiz-adv-x="328" 
d="M181 175h120.001v-19c0 -39.333 -5.5 -70.166 -16.5 -92.499s-24.833 -41.5 -41.5 -57.5c-39.333 -36.667 -59 -76.667 -59 -120c0 -10 1.33301 -16.667 4 -20s6 -5 10 -5s7.33301 1.5 10 4.5s4 9.83301 4 20.5v12h70v-12c0 -11.333 -1.5 -22.833 -4.5 -34.5
s-8 -22.334 -15 -32.001s-15.833 -17.5 -26.5 -23.5s-24 -9 -40 -9c-30 0 -52.5 8.5 -67.5 25.5s-22.5 38.833 -22.5 65.5c0 24.667 4.16699 46.167 12.5 64.5s19.166 34.5 32.499 48.5c-46 2.66699 -78.167 18.5 -96.5 47.5s-27.5 70.167 -27.5 123.5v196
c0 55.333 10.667 97.833 32 127.5s56 44.5 104 44.5s83 -14.833 105 -44.5s33 -72.167 33 -127.5v-144h-154v-71c0 -35.333 5.66699 -53 17 -53s17 17.667 17 53v32zM147.001 309h34v68c0 35.333 -5.66699 53 -17 53s-17 -17.667 -17 -53v-68z" />
    <glyph glyph-name="Ecaron" unicode="&#x11a;" horiz-adv-x="301" 
d="M281 551h-126v-141h102v-110h-102v-190h126v-110h-246v665h246v-114zM105 709l-66 141h88l24 -66l24 66h88l-66 -141h-92z" />
    <glyph glyph-name="ecaron" unicode="&#x11b;" horiz-adv-x="328" 
d="M147 309h34v68c0 35.333 -5.66699 53 -17 53s-17 -17.667 -17 -53v-68zM181 175h120v-19c0 -54.667 -11 -96 -33 -124s-57 -42 -105 -42c-50.667 0 -86 14.833 -106 44.5s-30 72.167 -30 127.5v196c0 55.333 10.667 97.833 32 127.5s56 44.5 104 44.5
s83 -14.833 105 -44.5s33 -72.167 33 -127.5v-144h-154v-71c0 -35.333 5.66699 -53 17 -53s17 17.667 17 53v32zM118 554l-66 141h88l24 -66l24 66h88l-66 -141h-92z" />
    <glyph glyph-name="Gcircumflex" unicode="&#x11c;" horiz-adv-x="349" 
d="M172 279l0.000976562 110.001h150v-222c0 -57.333 -12.667 -101.166 -38 -131.499s-62 -45.5 -110 -45.5s-84.5 15.167 -109.5 45.5s-37.5 74.166 -37.5 131.499v331c0 57.333 12.333 101.166 37 131.499s61 45.5 109 45.5c50 0 87.333 -16 112 -48s37 -84.667 37 -158
v-17h-120v53c0 15.333 -2 29.166 -6 41.499s-11.333 18.5 -22 18.5s-17.834 -6.16699 -21.501 -18.5s-5.5 -26.166 -5.5 -41.499v-344c0 -15.333 1.66699 -29.166 5 -41.499s10.333 -18.5 21 -18.5s18.167 6.16699 22.5 18.5s6.5 26.166 6.5 41.499v118h-30z
M223.001 850.001l69 -141h-93l-24 64l-24 -64h-93l69 141h96z" />
    <glyph glyph-name="gcircumflex" unicode="&#x11d;" horiz-adv-x="333" 
d="M181 420c-4 6.66699 -8.66797 10 -14.001 10c-13.333 0 -20 -17.667 -20 -53v-234c0 -35.333 5.66699 -53 17 -53c6.66699 0 12.334 5.66699 17.001 17v313zM146.999 -40l-0.000976562 -9c0 -22 1.33301 -37.667 4 -47s7 -14 13 -14c11.333 0 17 17.667 17 53v97
c-5.33301 -15.333 -13 -27.5 -23 -36.5s-23.667 -13.5 -41 -13.5c-15.333 0 -28.666 2.83301 -39.999 8.5s-20.666 15 -27.999 28s-12.833 30.5 -16.5 52.5s-5.5 49.667 -5.5 83v196c0 55.333 9.66699 97.833 29 127.5s46 44.5 80 44.5c22.667 0 39.667 -4.66699 51 -14
s20.666 -21.333 27.999 -36l9 40h77v-559c0 -56 -11.333 -98.5 -34 -127.5s-57 -43.5 -103 -43.5c-44 0 -77.833 12.5 -101.5 37.5s-35.5 64.5 -35.5 118.5v14h120zM214.998 695l69 -141h-93l-24 64l-24 -64h-93l69 141h96z" />
    <glyph glyph-name="Gbreve" unicode="&#x11e;" horiz-adv-x="349" 
d="M172 279l0.000976562 110.001h150v-222c0 -57.333 -12.667 -101.166 -38 -131.499s-62 -45.5 -110 -45.5s-84.5 15.167 -109.5 45.5s-37.5 74.166 -37.5 131.499v331c0 57.333 12.333 101.166 37 131.499s61 45.5 109 45.5c50 0 87.333 -16 112 -48s37 -84.667 37 -158
v-17h-120v53c0 15.333 -2 29.166 -6 41.499s-11.333 18.5 -22 18.5s-17.834 -6.16699 -21.501 -18.5s-5.5 -26.166 -5.5 -41.499v-344c0 -15.333 1.66699 -29.166 5 -41.499s10.333 -18.5 21 -18.5s18.167 6.16699 22.5 18.5s6.5 26.166 6.5 41.499v118h-30z
M285.001 837.001v-12c0 -34 -9 -61.833 -27 -83.5s-46 -32.5 -84 -32.5s-66.167 10.833 -84.5 32.5s-27.5 49.5 -27.5 83.5v12h93v-12c0 -11.333 1.66699 -19 5 -23s8 -6 14 -6s10.667 2 14 6s5 11.667 5 23v12h92z" />
    <glyph glyph-name="gbreve" unicode="&#x11f;" horiz-adv-x="333" 
d="M181 420c-4 6.66699 -8.66797 10 -14.001 10c-13.333 0 -20 -17.667 -20 -53v-234c0 -35.333 5.66699 -53 17 -53c6.66699 0 12.334 5.66699 17.001 17v313zM146.999 -40l-0.000976562 -9c0 -22 1.33301 -37.667 4 -47s7 -14 13 -14c11.333 0 17 17.667 17 53v97
c-5.33301 -15.333 -13 -27.5 -23 -36.5s-23.667 -13.5 -41 -13.5c-15.333 0 -28.666 2.83301 -39.999 8.5s-20.666 15 -27.999 28s-12.833 30.5 -16.5 52.5s-5.5 49.667 -5.5 83v196c0 55.333 9.66699 97.833 29 127.5s46 44.5 80 44.5c22.667 0 39.667 -4.66699 51 -14
s20.666 -21.333 27.999 -36l9 40h77v-559c0 -56 -11.333 -98.5 -34 -127.5s-57 -43.5 -103 -43.5c-44 0 -77.833 12.5 -101.5 37.5s-35.5 64.5 -35.5 118.5v14h120zM276.998 682v-12c0 -34 -9 -61.833 -27 -83.5s-46 -32.5 -84 -32.5s-66.167 10.833 -84.5 32.5
s-27.5 49.5 -27.5 83.5v12h93v-12c0 -11.333 1.66699 -19 5 -23s8 -6 14 -6s10.667 2 14 6s5 11.667 5 23v12h92z" />
    <glyph glyph-name="Gdotaccent" unicode="&#x120;" horiz-adv-x="349" 
d="M172 279l0.000976562 110.001h150v-222c0 -57.333 -12.667 -101.166 -38 -131.499s-62 -45.5 -110 -45.5s-84.5 15.167 -109.5 45.5s-37.5 74.166 -37.5 131.499v331c0 57.333 12.333 101.166 37 131.499s61 45.5 109 45.5c50 0 87.333 -16 112 -48s37 -84.667 37 -158
v-17h-120v53c0 15.333 -2 29.166 -6 41.499s-11.333 18.5 -22 18.5s-17.834 -6.16699 -21.501 -18.5s-5.5 -26.166 -5.5 -41.499v-344c0 -15.333 1.66699 -29.166 5 -41.499s10.333 -18.5 21 -18.5s18.167 6.16699 22.5 18.5s6.5 26.166 6.5 41.499v118h-30z
M175.001 844.001c19.333 0 35 -6 47 -18s18 -27.667 18 -47s-6 -35 -18 -47s-27.667 -18 -47 -18s-35 6 -47 18s-18 27.667 -18 47s6 35 18 47s27.667 18 47 18z" />
    <glyph glyph-name="gdotaccent" unicode="&#x121;" horiz-adv-x="333" 
d="M181 420c-4 6.66699 -8.66797 10 -14.001 10c-13.333 0 -20 -17.667 -20 -53v-234c0 -35.333 5.66699 -53 17 -53c6.66699 0 12.334 5.66699 17.001 17v313zM146.999 -40l-0.000976562 -9c0 -22 1.33301 -37.667 4 -47s7 -14 13 -14c11.333 0 17 17.667 17 53v97
c-5.33301 -15.333 -13 -27.5 -23 -36.5s-23.667 -13.5 -41 -13.5c-15.333 0 -28.666 2.83301 -39.999 8.5s-20.666 15 -27.999 28s-12.833 30.5 -16.5 52.5s-5.5 49.667 -5.5 83v196c0 55.333 9.66699 97.833 29 127.5s46 44.5 80 44.5c22.667 0 39.667 -4.66699 51 -14
s20.666 -21.333 27.999 -36l9 40h77v-559c0 -56 -11.333 -98.5 -34 -127.5s-57 -43.5 -103 -43.5c-44 0 -77.833 12.5 -101.5 37.5s-35.5 64.5 -35.5 118.5v14h120zM166.998 689c19.333 0 35 -6 47 -18s18 -27.667 18 -47s-6 -35 -18 -47s-27.667 -18 -47 -18s-35 6 -47 18
s-18 27.667 -18 47s6 35 18 47s27.667 18 47 18z" />
    <glyph glyph-name="Gcommaaccent" unicode="&#x122;" horiz-adv-x="349" 
d="M172 279l0.000976562 110.001h150v-222c0 -57.333 -12.667 -101.166 -38 -131.499s-62 -45.5 -110 -45.5s-84.5 15.167 -109.5 45.5s-37.5 74.166 -37.5 131.499v331c0 57.333 12.333 101.166 37 131.499s61 45.5 109 45.5c50 0 87.333 -16 112 -48s37 -84.667 37 -158
v-17h-120v53c0 15.333 -2 29.166 -6 41.499s-11.333 18.5 -22 18.5s-17.834 -6.16699 -21.501 -18.5s-5.5 -26.166 -5.5 -41.499v-344c0 -15.333 1.66699 -29.166 5 -41.499s10.333 -18.5 21 -18.5s18.167 6.16699 22.5 18.5s6.5 26.166 6.5 41.499v118h-30z
M188.001 -180.999h-88l31 141h110z" />
    <glyph glyph-name="gcommaaccent" unicode="&#x123;" horiz-adv-x="333" 
d="M181 420c-4 6.66699 -8.66797 10 -14.001 10c-13.333 0 -20 -17.667 -20 -53v-234c0 -35.333 5.66699 -53 17 -53c6.66699 0 12.334 5.66699 17.001 17v313zM146.999 -40l-0.000976562 -9c0 -22 1.33301 -37.667 4 -47s7 -14 13 -14c11.333 0 17 17.667 17 53v97
c-5.33301 -15.333 -13 -27.5 -23 -36.5s-23.667 -13.5 -41 -13.5c-15.333 0 -28.666 2.83301 -39.999 8.5s-20.666 15 -27.999 28s-12.833 30.5 -16.5 52.5s-5.5 49.667 -5.5 83v196c0 55.333 9.66699 97.833 29 127.5s46 44.5 80 44.5c22.667 0 39.667 -4.66699 51 -14
s20.666 -21.333 27.999 -36l9 40h77v-559c0 -56 -11.333 -98.5 -34 -127.5s-57 -43.5 -103 -43.5c-44 0 -77.833 12.5 -101.5 37.5s-35.5 64.5 -35.5 118.5v14h120zM167.998 695h80l-12 -141h-110z" />
    <glyph glyph-name="Hcircumflex" unicode="&#x124;" horiz-adv-x="368" 
d="M213 0v292h-58v-292h-120v665h120v-263h58v263h120v-665h-120zM232 850l69 -141h-93l-24 64l-24 -64h-93l69 141h96z" />
    <glyph glyph-name="hcircumflex" unicode="&#x125;" horiz-adv-x="338" 
d="M155 482c6 11.333 14.168 22.166 24.501 32.499s23.833 15.5 40.5 15.5c32 0 54.333 -13.167 67 -39.5s19 -67.166 19 -122.499v-368h-110l-10 95v282c0 35.333 -5.66699 53 -17 53c-4.66699 0 -7.83398 -2 -9.50098 -6s-3.16699 -9 -4.5 -15v-409h-120v710h107l13 -95
v-133zM200.001 881l69 -141h-93l-24 64l-24 -64h-93l69 141h96z" />
    <glyph glyph-name="Hbar" unicode="&#x126;" horiz-adv-x="368" 
d="M213 0v292h-58v-292h-120v665h120v-95h58v95h120v-665h-120zM213 402v68h-58v-68h58z" />
    <glyph glyph-name="hbar" unicode="&#x127;" horiz-adv-x="338" 
d="M5 635h30.001v75h107l10 -75h113v-70h-110v-83c6 11.333 14.167 22.166 24.5 32.499s23.833 15.5 40.5 15.5c32 0 54.333 -13.167 67 -39.5s19 -67.166 19 -122.499v-368h-110l-10 95v282c0 35.333 -5.66699 53 -17 53c-4.66699 0 -7.83398 -2 -9.50098 -6
s-3.16699 -9 -4.5 -15v-409h-120v565h-30v70z" />
    <glyph glyph-name="Itilde" unicode="&#x128;" horiz-adv-x="190" 
d="M35 0v665h120v-665h-120zM-33 716c0 41.333 7.83398 71.5 23.501 90.5s33.834 28.5 54.501 28.5c12 0 22 -1.33301 30 -4s14.667 -5.5 20 -8.5l14.5 -8c4.33301 -2.33301 9.16602 -3.5 14.499 -3.5c8.66699 0 13 6.33301 13 19v8h86v-8
c0 -41.333 -7.33301 -71.833 -22 -91.5s-32.334 -29.5 -53.001 -29.5c-10 0 -19 1.5 -27 4.5s-15 6.5 -21 10.5s-11.5 7.5 -16.5 10.5s-9.83301 4.5 -14.5 4.5c-10.667 0 -16 -7.66699 -16 -23v-7h-86v7z" />
    <glyph glyph-name="itilde" unicode="&#x129;" horiz-adv-x="190" 
d="M35 520h110l13 -95v-425h-123v520zM-33 561c0 41.333 7.83398 71.5 23.501 90.5s33.834 28.5 54.501 28.5c12 0 22 -1.33301 30 -4s14.667 -5.5 20 -8.5l14.5 -8c4.33301 -2.33301 9.16602 -3.5 14.499 -3.5c8.66699 0 13 6.33301 13 19v8h86v-8
c0 -41.333 -7.33301 -71.833 -22 -91.5s-32.334 -29.5 -53.001 -29.5c-10 0 -19 1.5 -27 4.5s-15 6.5 -21 10.5s-11.5 7.5 -16.5 10.5s-9.83301 4.5 -14.5 4.5c-10.667 0 -16 -7.66699 -16 -23v-7h-86v7z" />
    <glyph glyph-name="Imacron" unicode="&#x12a;" horiz-adv-x="190" 
d="M35 0v665h120v-665h-120zM-8 830h205v-100h-205v100z" />
    <glyph glyph-name="imacron" unicode="&#x12b;" horiz-adv-x="190" 
d="M35 520h110l13 -95v-425h-123v520zM-8 675h205v-100h-205v100z" />
    <glyph glyph-name="Ibreve" unicode="&#x12c;" horiz-adv-x="190" 
d="M35 0v665h120v-665h-120zM205 837v-12c0 -34 -9 -61.833 -27 -83.5s-46 -32.5 -84 -32.5s-66.167 10.833 -84.5 32.5s-27.5 49.5 -27.5 83.5v12h93v-12c0 -11.333 1.66699 -19 5 -23s8 -6 14 -6s10.667 2 14 6s5 11.667 5 23v12h92z" />
    <glyph glyph-name="ibreve" unicode="&#x12d;" horiz-adv-x="190" 
d="M35 520h110l13 -95v-425h-123v520zM205 682v-12c0 -34 -9 -61.833 -27 -83.5s-46 -32.5 -84 -32.5s-66.167 10.833 -84.5 32.5s-27.5 49.5 -27.5 83.5v12h93v-12c0 -11.333 1.66699 -19 5 -23s8 -6 14 -6s10.667 2 14 6s5 11.667 5 23v12h92z" />
    <glyph glyph-name="Iogonek" unicode="&#x12e;" horiz-adv-x="190" 
d="M125 0c-20 -16.667 -36.333 -34.332 -49 -52.999s-19 -39 -19 -61c0 -10 1.33301 -16.667 4 -20s6 -5 10 -5s7.33301 1.5 10 4.5s4 9.83301 4 20.5v12h70v-12c0 -11.333 -1.5 -22.833 -4.5 -34.5s-8 -22.334 -15 -32.001s-15.833 -17.5 -26.5 -23.5s-24 -9 -40 -9
c-30 0 -52.5 8.5 -67.5 25.5s-22.5 38.833 -22.5 65.5c0 28 5.33301 52 16 72s24 37 40 51v664h120v-665h-30z" />
    <glyph glyph-name="iogonek" unicode="&#x12f;" horiz-adv-x="187" 
d="M125 0c-20 -16.667 -36.333 -34.332 -49 -52.999s-19 -39 -19 -61c0 -10 1.33301 -16.667 4 -20s6 -5 10 -5s7.33301 1.5 10 4.5s4 9.83301 4 20.5v12h70v-12c0 -11.333 -1.5 -22.833 -4.5 -34.5s-8 -22.334 -15 -32.001s-15.833 -17.5 -26.5 -23.5s-24 -9 -40 -9
c-30 0 -52.5 8.5 -67.5 25.5s-22.5 38.833 -22.5 65.5c0 28 5.33301 52 16 72s24 37 40 51v519h107l13 -95v-425h-30zM95 679.002c19.333 0 35 -6 47 -18s18 -27.667 18 -47s-6 -35 -18 -47s-27.667 -18 -47 -18s-35 6 -47 18s-18 27.667 -18 47s6 35 18 47s27.667 18 47 18
z" />
    <glyph glyph-name="Idotaccent" unicode="&#x130;" horiz-adv-x="190" 
d="M35 0v665h120v-665h-120zM95 844c19.333 0 35 -6 47 -18s18 -27.667 18 -47s-6 -35 -18 -47s-27.667 -18 -47 -18s-35 6 -47 18s-18 27.667 -18 47s6 35 18 47s27.667 18 47 18z" />
    <glyph glyph-name="dotlessi" unicode="&#x131;" horiz-adv-x="190" 
d="M35 520h110l13 -95v-425h-123v520z" />
    <glyph glyph-name="IJ" unicode="&#x132;" horiz-adv-x="429" 
d="M35 0v665h120v-665h-120zM210 99c26.667 1.33301 44.834 8.33301 54.501 21s14.5 26 14.5 40v505h120v-498c0 -54.667 -15.833 -97.167 -47.5 -127.5s-78.834 -47.5 -141.501 -51.5v111z" />
    <glyph glyph-name="ij" unicode="&#x133;" horiz-adv-x="367" 
d="M35 520h107l13 -95v-425h-120v520zM95 679c19.333 0 35 -6 47 -18s18 -27.667 18 -47s-6 -35 -18 -47s-27.667 -18 -47 -18s-35 6 -47 18s-18 27.667 -18 47s6 35 18 47s27.667 18 47 18zM319 520l13 -95v-443c0 -38 -4.16699 -69.5 -12.5 -94.5
s-19.666 -44.667 -33.999 -59s-31.333 -24.333 -51 -30s-40.834 -8.5 -63.501 -8.5v110c15.333 0 26 5.16699 32 15.5s9 29.5 9 57.5v547h107zM272 679c19.333 0 35 -6 47 -18s18 -27.667 18 -47s-6 -35 -18 -47s-27.667 -18 -47 -18s-35 6 -47 18s-18 27.667 -18 47
s6 35 18 47s27.667 18 47 18z" />
    <glyph glyph-name="Jcircumflex" unicode="&#x134;" horiz-adv-x="239" 
d="M20 99c26.667 1.33301 44.834 8.33301 54.501 21s14.5 26 14.5 40v505h120v-498c0 -54.667 -15.833 -97.167 -47.5 -127.5s-78.834 -47.5 -141.501 -51.5v111zM197 850l69 -141h-93l-24 64l-24 -64h-93l69 141h96z" />
    <glyph glyph-name="jcircumflex" unicode="&#x135;" horiz-adv-x="193" 
d="M142 520l13 -95v-443c0 -38 -4.16699 -69.5 -12.5 -94.5s-19.666 -44.667 -33.999 -59s-31.333 -24.333 -51 -30s-40.834 -8.5 -63.501 -8.5v110c15.333 0 26 5.16699 32 15.5s9 29.5 9 57.5v547h107zM145 695l69 -141h-93l-24 64l-24 -64h-93l69 141h96z" />
    <glyph glyph-name="Kcommaaccent" unicode="&#x136;" horiz-adv-x="370" 
d="M246 366l119 -366h-127l-74 249l-9 -26v-223h-120v665h120v-256l76 256h127zM198 -181h-88l31 141h110z" />
    <glyph glyph-name="kcommaaccent" unicode="&#x137;" horiz-adv-x="338" 
d="M247 336l74 -336h-120l-35 229l-11 -34v-195h-120v710h107l13 -95v-289l56 194h117zM182 -181h-88l31 141h110z" />
    <glyph glyph-name="Lacute" unicode="&#x139;" horiz-adv-x="316" 
d="M155 665v-555h146v-110h-266v665h120zM209 850l-58 -141h-98l36 141h120z" />
    <glyph glyph-name="lacute" unicode="&#x13a;" horiz-adv-x="187" 
d="M155 615v-615h-110l-10 95v615h107zM196 881l-58 -141h-98l36 141h120z" />
    <glyph glyph-name="Lcommaaccent" unicode="&#x13b;" horiz-adv-x="316" 
d="M155 665v-555h146v-110h-266v665h120zM171 -181h-88l31 141h110z" />
    <glyph glyph-name="lcommaaccent" unicode="&#x13c;" horiz-adv-x="187" 
d="M155 615v-615h-110l-10 95v615h107zM107 -181h-88l31 141h110z" />
    <glyph glyph-name="Lcaron" unicode="&#x13d;" horiz-adv-x="316" 
d="M155 665v-555h146v-110h-266v665h120zM245 534h-61l15 151h89z" />
    <glyph glyph-name="lcaron" unicode="&#x13e;" horiz-adv-x="267" 
d="M155 615v-615h-110l-10 95v615h107zM234 554h-61l15 151h89z" />
    <glyph glyph-name="Ldot" unicode="&#x13f;" horiz-adv-x="316" 
d="M155 665v-555h146v-110h-266v665h120zM173 359c0 21.333 6.5 38.5 19.5 51.5s30.167 19.5 51.5 19.5s38.5 -6.5 51.5 -19.5s19.5 -30.167 19.5 -51.5s-6.5 -38.5 -19.5 -51.5s-30.167 -19.5 -51.5 -19.5s-38.5 6.5 -51.5 19.5s-19.5 30.167 -19.5 51.5z" />
    <glyph glyph-name="ldot" unicode="&#x140;" horiz-adv-x="320" 
d="M155 615v-615h-110l-10 95v615h107zM173 359c0 21.333 6.5 38.5 19.5 51.5s30.167 19.5 51.5 19.5s38.5 -6.5 51.5 -19.5s19.5 -30.167 19.5 -51.5s-6.5 -38.5 -19.5 -51.5s-30.167 -19.5 -51.5 -19.5s-38.5 6.5 -51.5 19.5s-19.5 30.167 -19.5 51.5z" />
    <glyph glyph-name="Lslash" unicode="&#x141;" horiz-adv-x="326" 
d="M-6 314l51 29v322h120v-253l120 70v-122l-120 -70v-180h146v-110h-266v221l-51 -29v122z" />
    <glyph glyph-name="lslash" unicode="&#x142;" horiz-adv-x="197" 
d="M0 369l40 23v318h107l13 -95v-152l43 25v-120l-43 -25v-343h-110l-10 95v177l-40 -23v120z" />
    <glyph glyph-name="Nacute" unicode="&#x143;" horiz-adv-x="374" 
d="M339 0h-116l-88 390h-4v-390h-96v665h116l88 -415h4v415h96v-665zM288 850l-58 -141h-98l36 141h120z" />
    <glyph glyph-name="nacute" unicode="&#x144;" horiz-adv-x="338" 
d="M147 480c5.33301 13.333 14.001 24.999 26.001 34.999s27.667 15 47 15c32 0 54.333 -13.167 67 -39.5s19 -67.166 19 -122.499v-368h-110l-10 95v282c0 35.333 -5.66699 53 -17 53c-4.66699 0 -7.83398 -2 -9.50098 -6s-3.16699 -9 -4.5 -15v-409h-120v520h102z
M270.001 694.999l-58 -141h-98l36 141h120z" />
    <glyph glyph-name="Ncommaaccent" unicode="&#x145;" horiz-adv-x="374" 
d="M339 0h-116l-88 390h-4v-390h-96v665h116l88 -415h4v415h96v-665zM200 -181h-88l31 141h110z" />
    <glyph glyph-name="ncommaaccent" unicode="&#x146;" horiz-adv-x="338" 
d="M147 480c5.33301 13.333 14.001 24.999 26.001 34.999s27.667 15 47 15c32 0 54.333 -13.167 67 -39.5s19 -67.166 19 -122.499v-368h-110l-10 95v282c0 35.333 -5.66699 53 -17 53c-4.66699 0 -7.83398 -2 -9.50098 -6s-3.16699 -9 -4.5 -15v-409h-120v520h102z
M182.001 -181.001h-88l31 141h110z" />
    <glyph glyph-name="Ncaron" unicode="&#x147;" horiz-adv-x="374" 
d="M339 0h-116l-88 390h-4v-390h-96v665h116l88 -415h4v415h96v-665zM141 709l-66 141h88l24 -66l24 66h88l-66 -141h-92z" />
    <glyph glyph-name="ncaron" unicode="&#x148;" horiz-adv-x="338" 
d="M147 480c5.33301 13.333 14.001 24.999 26.001 34.999s27.667 15 47 15c32 0 54.333 -13.167 67 -39.5s19 -67.166 19 -122.499v-368h-110l-10 95v282c0 35.333 -5.66699 53 -17 53c-4.66699 0 -7.83398 -2 -9.50098 -6s-3.16699 -9 -4.5 -15v-409h-120v520h102z
M123.001 553.999l-66 141h88l24 -66l24 66h88l-66 -141h-92z" />
    <glyph glyph-name="Omacron" unicode="&#x14c;" 
d="M312 167c0 -57.333 -12 -101.166 -36 -131.499s-60 -45.5 -108 -45.5s-83.5 15.167 -106.5 45.5s-34.5 74.166 -34.5 131.499v331c0 57.333 11.667 101.166 35 131.499s59 45.5 107 45.5s83.833 -15.167 107.5 -45.5s35.5 -74.166 35.5 -131.499v-331zM192 505
c0 15.333 -1.33301 29.166 -4 41.499s-9.33398 18.5 -20.001 18.5s-16.834 -6.16699 -18.501 -18.5s-2.5 -26.166 -2.5 -41.499v-344c0 -15.333 0.833008 -29.166 2.5 -41.499s7.83398 -18.5 18.501 -18.5s17.334 6.16699 20.001 18.5s4 26.166 4 41.499v344zM67 830h205
v-100h-205v100z" />
    <glyph glyph-name="omacron" unicode="&#x14d;" horiz-adv-x="328" 
d="M301 160c0 -55.333 -11 -97.5 -33 -126.5s-57 -43.5 -105 -43.5s-82.667 14.5 -104 43.5s-32 71.167 -32 126.5v200c0 55.333 10.667 97.5 32 126.5s56 43.5 104 43.5s83 -14.5 105 -43.5s33 -71.167 33 -126.5v-200zM181 377c0 35.333 -5.66699 53 -17 53
s-17 -17.667 -17 -53v-234c0 -35.333 5.66699 -53 17 -53s17 17.667 17 53v234zM61 675h205v-100h-205v100z" />
    <glyph glyph-name="Obreve" unicode="&#x14e;" 
d="M312 167c0 -57.333 -12 -101.166 -36 -131.499s-60 -45.5 -108 -45.5s-83.5 15.167 -106.5 45.5s-34.5 74.166 -34.5 131.499v331c0 57.333 11.667 101.166 35 131.499s59 45.5 107 45.5s83.833 -15.167 107.5 -45.5s35.5 -74.166 35.5 -131.499v-331zM192 505
c0 15.333 -1.33301 29.166 -4 41.499s-9.33398 18.5 -20.001 18.5s-16.834 -6.16699 -18.501 -18.5s-2.5 -26.166 -2.5 -41.499v-344c0 -15.333 0.833008 -29.166 2.5 -41.499s7.83398 -18.5 18.501 -18.5s17.334 6.16699 20.001 18.5s4 26.166 4 41.499v344zM280 837v-12
c0 -34 -9 -61.833 -27 -83.5s-46 -32.5 -84 -32.5s-66.167 10.833 -84.5 32.5s-27.5 49.5 -27.5 83.5v12h93v-12c0 -11.333 1.66699 -19 5 -23s8 -6 14 -6s10.667 2 14 6s5 11.667 5 23v12h92z" />
    <glyph glyph-name="obreve" unicode="&#x14f;" horiz-adv-x="328" 
d="M301 160c0 -55.333 -11 -97.5 -33 -126.5s-57 -43.5 -105 -43.5s-82.667 14.5 -104 43.5s-32 71.167 -32 126.5v200c0 55.333 10.667 97.5 32 126.5s56 43.5 104 43.5s83 -14.5 105 -43.5s33 -71.167 33 -126.5v-200zM181 377c0 35.333 -5.66699 53 -17 53
s-17 -17.667 -17 -53v-234c0 -35.333 5.66699 -53 17 -53s17 17.667 17 53v234zM274 682v-12c0 -34 -9 -61.833 -27 -83.5s-46 -32.5 -84 -32.5s-66.167 10.833 -84.5 32.5s-27.5 49.5 -27.5 83.5v12h93v-12c0 -11.333 1.66699 -19 5 -23s8 -6 14 -6s10.667 2 14 6
s5 11.667 5 23v12h92z" />
    <glyph glyph-name="Ohungarumlaut" unicode="&#x150;" 
d="M312 167c0 -57.333 -12 -101.166 -36 -131.499s-60 -45.5 -108 -45.5s-83.5 15.167 -106.5 45.5s-34.5 74.166 -34.5 131.499v331c0 57.333 11.667 101.166 35 131.499s59 45.5 107 45.5s83.833 -15.167 107.5 -45.5s35.5 -74.166 35.5 -131.499v-331zM192 505
c0 15.333 -1.33301 29.166 -4 41.499s-9.33398 18.5 -20.001 18.5s-16.834 -6.16699 -18.501 -18.5s-2.5 -26.166 -2.5 -41.499v-344c0 -15.333 0.833008 -29.166 2.5 -41.499s7.83398 -18.5 18.501 -18.5s17.334 6.16699 20.001 18.5s4 26.166 4 41.499v344zM345 850
l-73 -141h-93l51 141h115zM206 850l-63 -141h-93l41 141h115z" />
    <glyph glyph-name="ohungarumlaut" unicode="&#x151;" horiz-adv-x="328" 
d="M301 160c0 -55.333 -11 -97.5 -33 -126.5s-57 -43.5 -105 -43.5s-82.667 14.5 -104 43.5s-32 71.167 -32 126.5v200c0 55.333 10.667 97.5 32 126.5s56 43.5 104 43.5s83 -14.5 105 -43.5s33 -71.167 33 -126.5v-200zM181 377c0 35.333 -5.66699 53 -17 53
s-17 -17.667 -17 -53v-234c0 -35.333 5.66699 -53 17 -53s17 17.667 17 53v234zM339 695l-73 -141h-93l51 141h115zM200 695l-63 -141h-93l41 141h115z" />
    <glyph glyph-name="OE" unicode="&#x152;" horiz-adv-x="461" 
d="M441 551l-126 0.00195312v-141h102v-110h-102v-190h126v-110h-216v30c-8.66699 -11.333 -18.5 -20.833 -29.5 -28.5s-27.5 -11.5 -49.5 -11.5c-38 0 -67.333 15.167 -88 45.5s-31 74.166 -31 131.499v331c0 57.333 11.333 101.166 34 131.499s51 45.5 85 45.5
c22 0 38.833 -4.33301 50.5 -13s21.167 -17.667 28.5 -27v30h216v-114zM172 101.002c10.667 0 17.167 6.16699 19.5 18.5s3.5 26.166 3.5 41.499v344c0 15.333 -1.16699 29.166 -3.5 41.499s-8.83301 18.5 -19.5 18.5s-17 -6.16699 -19 -18.5s-3 -26.166 -3 -41.499v-344
c0 -15.333 1 -29.166 3 -41.499s8.33301 -18.5 19 -18.5z" />
    <glyph glyph-name="oe" unicode="&#x153;" horiz-adv-x="482" 
d="M241 490c12 13.333 25.333 23.333 40 30s31.667 10 51 10c40.667 0 71.334 -14.833 92.001 -44.5s31 -72.167 31 -127.5v-144h-154v-71c0 -35.333 5.66699 -53 17 -53s17 17.667 17 53v32h120v-19c0 -54.667 -8.83301 -96 -26.5 -124s-49.834 -42 -96.501 -42
c-36.667 0 -67 13.333 -91 40c-13.333 -13.333 -26.833 -23.333 -40.5 -30s-31.167 -10 -52.5 -10c-40 0 -70.167 14.5 -90.5 43.5s-30.5 71.167 -30.5 126.5v200c0 55.333 12 97.5 36 126.5s55 43.5 93 43.5c19.333 0 35.5 -3.33301 48.5 -10s25.167 -16.667 36.5 -30z
M181 377c0 35.333 -5.66699 53 -17 53s-17 -17.667 -17 -53v-234c0 -35.333 5.66699 -53 17 -53s17 17.667 17 53v234zM301 309h34v68c0 35.333 -5.66699 53 -17 53c-6 0 -10.333 -4 -13 -12s-4 -21.667 -4 -41v-68z" />
    <glyph glyph-name="Racute" unicode="&#x154;" horiz-adv-x="355" 
d="M323 460c0 -34 -5.16699 -63.832 -15.5 -89.499s-23.833 -45.834 -40.5 -60.501l80 -310h-125l-53 274h-14v-274h-120v665h144c48 0 84 -15 108 -45s36 -74 36 -132v-28zM203 495.001c0 37.333 -11 56.001 -33 56.001h-15v-167h14c11.333 0 19.833 4.16699 25.5 12.5
s8.5 24.166 8.5 47.499v51zM278 850.002l-58 -141h-98l36 141h120z" />
    <glyph glyph-name="racute" unicode="&#x155;" horiz-adv-x="259" 
d="M35 520h102l10 -40c2 4.66699 4.83301 10 8.5 16s8 11.5 13 16.5s11 9.16699 18 12.5s14.833 5 23.5 5c16 0 29 -4 39 -12l-25 -109c-8 5.33301 -16.667 8 -26 8s-17.333 -2 -24 -6s-13 -9.33301 -19 -16v-395h-120v520zM241 695l-58 -141h-98l36 141h120z" />
    <glyph glyph-name="Rcommaaccent" unicode="&#x156;" horiz-adv-x="355" 
d="M323 460c0 -34 -5.16699 -63.832 -15.5 -89.499s-23.833 -45.834 -40.5 -60.501l80 -310h-125l-53 274h-14v-274h-120v665h144c48 0 84 -15 108 -45s36 -74 36 -132v-28zM203 495.001c0 37.333 -11 56.001 -33 56.001h-15v-167h14c11.333 0 19.833 4.16699 25.5 12.5
s8.5 24.166 8.5 47.499v51zM190 -180.998h-88l31 141h110z" />
    <glyph glyph-name="rcommaaccent" unicode="&#x157;" horiz-adv-x="259" 
d="M35 520h102l10 -40c2 4.66699 4.83301 10 8.5 16s8 11.5 13 16.5s11 9.16699 18 12.5s14.833 5 23.5 5c16 0 29 -4 39 -12l-25 -109c-8 5.33301 -16.667 8 -26 8s-17.333 -2 -24 -6s-13 -9.33301 -19 -16v-395h-120v520zM98 -181h-88l31 141h110z" />
    <glyph glyph-name="Rcaron" unicode="&#x158;" horiz-adv-x="355" 
d="M323 460c0 -34 -5.16699 -63.832 -15.5 -89.499s-23.833 -45.834 -40.5 -60.501l80 -310h-125l-53 274h-14v-274h-120v665h144c48 0 84 -15 108 -45s36 -74 36 -132v-28zM203 495.001c0 37.333 -11 56.001 -33 56.001h-15v-167h14c11.333 0 19.833 4.16699 25.5 12.5
s8.5 24.166 8.5 47.499v51zM131 709.002l-66 141h88l24 -66l24 66h88l-66 -141h-92z" />
    <glyph glyph-name="rcaron" unicode="&#x159;" horiz-adv-x="259" 
d="M35 520h102l10 -40c2 4.66699 4.83301 10 8.5 16s8 11.5 13 16.5s11 9.16699 18 12.5s14.833 5 23.5 5c16 0 29 -4 39 -12l-25 -109c-8 5.33301 -16.667 8 -26 8s-17.333 -2 -24 -6s-13 -9.33301 -19 -16v-395h-120v520zM94 554l-66 141h88l24 -66l24 66h88l-66 -141h-92
z" />
    <glyph glyph-name="Sacute" unicode="&#x15a;" horiz-adv-x="328" 
d="M20 511c0 20.667 2.83203 41.002 8.49902 61.002s14.334 37.5 26.001 52.5s26.5 27.167 44.5 36.5s39.667 14 65 14c44.667 0 79.834 -13.833 105.501 -41.5s38.5 -74.5 38.5 -140.5v-41h-120v53c0 15.333 -1.33301 29.166 -4 41.499s-9.33398 18.5 -20.001 18.5
s-16.834 -6.16699 -18.501 -18.5s-2.5 -26.166 -2.5 -41.499v-19c0 -14 3.16699 -27.667 9.5 -41s18.166 -27.333 35.499 -42c15.333 -12.667 30.166 -25.667 44.499 -39s27.166 -28 38.499 -44s20.333 -33.5 27 -52.5s10 -39.833 10 -62.5v-51
c0 -20 -2.66699 -39.667 -8 -59s-13.833 -36.833 -25.5 -52.5s-26.667 -28.334 -45 -38.001s-40.166 -14.5 -65.499 -14.5s-47.166 4.5 -65.499 13.5s-33.333 21.5 -45 37.5s-20.167 35.5 -25.5 58.5s-8 48.5 -8 76.5v37h123v-53c0 -15.333 0.833008 -29.166 2.5 -41.499
s7.83398 -18.5 18.501 -18.5s17.334 6.16699 20.001 18.5s4 26.166 4 41.499v26c0 23.333 -6 43.333 -18 60s-25 31 -39 43c-32 26.667 -58.5 53.667 -79.5 81s-31.5 59.666 -31.5 96.999v44zM264.999 850.002l-58 -141h-98l36 141h120z" />
    <glyph glyph-name="sacute" unicode="&#x15b;" horiz-adv-x="307" 
d="M136 169l0.00488281 -12.002c0 -22 1.16699 -38.667 3.5 -50s7.16602 -17 14.499 -17c13.333 0 20 16 20 48c0 8 -1 15.5 -3 22.5s-5.5 14 -10.5 21s-12 14.333 -21 22s-20.833 16.5 -35.5 26.5c-30 20.667 -52 42.834 -66 66.501s-21 53.834 -21 90.501
c0 16.667 2.83301 33.5 8.5 50.5s14.167 32.333 25.5 46s25.666 24.834 42.999 33.501s37.666 13 60.999 13c43.333 0 76.166 -14.167 98.499 -42.5s33.5 -68.5 33.5 -120.5v-10h-117v22c0 16 -1.16699 28.5 -3.5 37.5s-7.16602 13.5 -14.499 13.5
c-6.66699 0 -11.334 -3.66699 -14.001 -11s-4 -17.333 -4 -30c0 -20.667 6.5 -36.834 19.5 -48.501s31.833 -25.167 56.5 -40.5c30.667 -19.333 51.667 -42 63 -68s17 -53.667 17 -83c0 -17.333 -2.33301 -35.5 -7 -54.5s-12.334 -36.167 -23.001 -51.5
s-24.167 -28 -40.5 -38s-36.5 -15 -60.5 -15c-46.667 0 -81.667 14.5 -105 43.5s-35 71.167 -35 126.5v9h117zM255.005 694.998l-58 -141h-98l36 141h120z" />
    <glyph glyph-name="Scircumflex" unicode="&#x15c;" horiz-adv-x="328" 
d="M20 511c0 20.667 2.83203 41.002 8.49902 61.002s14.334 37.5 26.001 52.5s26.5 27.167 44.5 36.5s39.667 14 65 14c44.667 0 79.834 -13.833 105.501 -41.5s38.5 -74.5 38.5 -140.5v-41h-120v53c0 15.333 -1.33301 29.166 -4 41.499s-9.33398 18.5 -20.001 18.5
s-16.834 -6.16699 -18.501 -18.5s-2.5 -26.166 -2.5 -41.499v-19c0 -14 3.16699 -27.667 9.5 -41s18.166 -27.333 35.499 -42c15.333 -12.667 30.166 -25.667 44.499 -39s27.166 -28 38.499 -44s20.333 -33.5 27 -52.5s10 -39.833 10 -62.5v-51
c0 -20 -2.66699 -39.667 -8 -59s-13.833 -36.833 -25.5 -52.5s-26.667 -28.334 -45 -38.001s-40.166 -14.5 -65.499 -14.5s-47.166 4.5 -65.499 13.5s-33.333 21.5 -45 37.5s-20.167 35.5 -25.5 58.5s-8 48.5 -8 76.5v37h123v-53c0 -15.333 0.833008 -29.166 2.5 -41.499
s7.83398 -18.5 18.501 -18.5s17.334 6.16699 20.001 18.5s4 26.166 4 41.499v26c0 23.333 -6 43.333 -18 60s-25 31 -39 43c-32 26.667 -58.5 53.667 -79.5 81s-31.5 59.666 -31.5 96.999v44zM211.999 850.002l69 -141h-93l-24 64l-24 -64h-93l69 141h96z" />
    <glyph glyph-name="scircumflex" unicode="&#x15d;" horiz-adv-x="307" 
d="M136 169l0.00488281 -12.002c0 -22 1.16699 -38.667 3.5 -50s7.16602 -17 14.499 -17c13.333 0 20 16 20 48c0 8 -1 15.5 -3 22.5s-5.5 14 -10.5 21s-12 14.333 -21 22s-20.833 16.5 -35.5 26.5c-30 20.667 -52 42.834 -66 66.501s-21 53.834 -21 90.501
c0 16.667 2.83301 33.5 8.5 50.5s14.167 32.333 25.5 46s25.666 24.834 42.999 33.501s37.666 13 60.999 13c43.333 0 76.166 -14.167 98.499 -42.5s33.5 -68.5 33.5 -120.5v-10h-117v22c0 16 -1.16699 28.5 -3.5 37.5s-7.16602 13.5 -14.499 13.5
c-6.66699 0 -11.334 -3.66699 -14.001 -11s-4 -17.333 -4 -30c0 -20.667 6.5 -36.834 19.5 -48.501s31.833 -25.167 56.5 -40.5c30.667 -19.333 51.667 -42 63 -68s17 -53.667 17 -83c0 -17.333 -2.33301 -35.5 -7 -54.5s-12.334 -36.167 -23.001 -51.5
s-24.167 -28 -40.5 -38s-36.5 -15 -60.5 -15c-46.667 0 -81.667 14.5 -105 43.5s-35 71.167 -35 126.5v9h117zM202.005 694.998l69 -141h-93l-24 64l-24 -64h-93l69 141h96z" />
    <glyph glyph-name="Scedilla" unicode="&#x15e;" horiz-adv-x="328" 
d="M125 -5c-37.333 8 -64.166 28.0029 -80.499 60.0029s-24.5 72.333 -24.5 121v37h123v-53c0 -15.333 0.833008 -29.166 2.5 -41.499s7.83398 -18.5 18.501 -18.5s17.334 6.16699 20.001 18.5s4 26.166 4 41.499v26c0 23.333 -6 43.333 -18 60s-25 31 -39 43
c-32 26.667 -58.5 53.667 -79.5 81s-31.5 59.666 -31.5 96.999v44c0 20.667 2.83301 41 8.5 61s14.334 37.5 26.001 52.5s26.5 27.167 44.5 36.5s39.667 14 65 14c44.667 0 79.834 -13.833 105.501 -41.5s38.5 -74.5 38.5 -140.5v-41h-120v53
c0 15.333 -1.33301 29.166 -4 41.499s-9.33398 18.5 -20.001 18.5s-16.834 -6.16699 -18.501 -18.5s-2.5 -26.166 -2.5 -41.499v-19c0 -14 3.16699 -27.667 9.5 -41s18.166 -27.333 35.499 -42c15.333 -12.667 30.166 -25.667 44.499 -39s27.166 -28 38.499 -44
s20.333 -33.5 27 -52.5s10 -39.833 10 -62.5v-51c0 -18.667 -2.33301 -37.167 -7 -55.5s-12 -35 -22 -50s-22.667 -27.5 -38 -37.5s-34 -16.333 -56 -19v-20h5c10.667 0 20.834 -1.5 30.501 -4.5s18.167 -8 25.5 -15s13.166 -16 17.499 -27s6.5 -24.833 6.5 -41.5
c0 -34 -8.66699 -59.833 -26 -77.5s-41 -26.5 -71 -26.5s-52.5 8.16699 -67.5 24.5s-22.5 40.166 -22.5 71.499v2h70v-2c0 -7.33301 1.66699 -13.833 5 -19.5s8.33301 -8.5 15 -8.5c13.333 0 20 11 20 33c0 13.333 -3.16699 22.166 -9.5 26.499s-16.5 6.5 -30.5 6.5h-28v81z
" />
    <glyph glyph-name="scedilla" unicode="&#x15f;" horiz-adv-x="307" 
d="M115 -4c-32 8 -55.9951 25.834 -71.9951 53.501s-24 64.5 -24 110.5v9h117v-12c0 -22 1.16699 -38.667 3.5 -50s7.16602 -17 14.499 -17c13.333 0 20 16 20 48c0 8 -1 15.5 -3 22.5s-5.5 14 -10.5 21s-12 14.333 -21 22s-20.833 16.5 -35.5 26.5
c-30 20.667 -52 42.834 -66 66.501s-21 53.834 -21 90.501c0 16.667 2.83301 33.5 8.5 50.5s14.167 32.333 25.5 46s25.666 24.834 42.999 33.501s37.666 13 60.999 13c43.333 0 76.166 -14.167 98.499 -42.5s33.5 -68.5 33.5 -120.5v-10h-117v22
c0 16 -1.16699 28.5 -3.5 37.5s-7.16602 13.5 -14.499 13.5c-6.66699 0 -11.334 -3.66699 -14.001 -11s-4 -17.333 -4 -30c0 -20.667 6.5 -36.834 19.5 -48.501s31.833 -25.167 56.5 -40.5c30.667 -19.333 51.667 -42 63 -68s17 -53.667 17 -83
c0 -16.667 -2.16699 -33.834 -6.5 -51.501s-11 -34 -20 -49s-20.833 -27.833 -35.5 -38.5s-32.334 -17 -53.001 -19v-19h5c10.667 0 20.834 -1.5 30.501 -4.5s18.167 -8 25.5 -15s13.166 -16 17.499 -27s6.5 -24.833 6.5 -41.5c0 -34 -8.66699 -59.833 -26 -77.5
s-41 -26.5 -71 -26.5s-52.5 8.16699 -67.5 24.5s-22.5 40.166 -22.5 71.499v2h70v-2c0 -7.33301 1.66699 -13.833 5 -19.5s8.33301 -8.5 15 -8.5c13.333 0 20 11 20 33c0 13.333 -3.16699 22.166 -9.5 26.499s-16.5 6.5 -30.5 6.5h-28v82z" />
    <glyph glyph-name="Scaron" unicode="&#x160;" horiz-adv-x="328" 
d="M20 511c0 20.667 2.83203 41.002 8.49902 61.002s14.334 37.5 26.001 52.5s26.5 27.167 44.5 36.5s39.667 14 65 14c44.667 0 79.834 -13.833 105.501 -41.5s38.5 -74.5 38.5 -140.5v-41h-120v53c0 15.333 -1.33301 29.166 -4 41.499s-9.33398 18.5 -20.001 18.5
s-16.834 -6.16699 -18.501 -18.5s-2.5 -26.166 -2.5 -41.499v-19c0 -14 3.16699 -27.667 9.5 -41s18.166 -27.333 35.499 -42c15.333 -12.667 30.166 -25.667 44.499 -39s27.166 -28 38.499 -44s20.333 -33.5 27 -52.5s10 -39.833 10 -62.5v-51
c0 -20 -2.66699 -39.667 -8 -59s-13.833 -36.833 -25.5 -52.5s-26.667 -28.334 -45 -38.001s-40.166 -14.5 -65.499 -14.5s-47.166 4.5 -65.499 13.5s-33.333 21.5 -45 37.5s-20.167 35.5 -25.5 58.5s-8 48.5 -8 76.5v37h123v-53c0 -15.333 0.833008 -29.166 2.5 -41.499
s7.83398 -18.5 18.501 -18.5s17.334 6.16699 20.001 18.5s4 26.166 4 41.499v26c0 23.333 -6 43.333 -18 60s-25 31 -39 43c-32 26.667 -58.5 53.667 -79.5 81s-31.5 59.666 -31.5 96.999v44zM117.999 709.002l-66 141h88l24 -66l24 66h88l-66 -141h-92z" />
    <glyph glyph-name="scaron" unicode="&#x161;" horiz-adv-x="307" 
d="M136 169l0.00488281 -12.002c0 -22 1.16699 -38.667 3.5 -50s7.16602 -17 14.499 -17c13.333 0 20 16 20 48c0 8 -1 15.5 -3 22.5s-5.5 14 -10.5 21s-12 14.333 -21 22s-20.833 16.5 -35.5 26.5c-30 20.667 -52 42.834 -66 66.501s-21 53.834 -21 90.501
c0 16.667 2.83301 33.5 8.5 50.5s14.167 32.333 25.5 46s25.666 24.834 42.999 33.501s37.666 13 60.999 13c43.333 0 76.166 -14.167 98.499 -42.5s33.5 -68.5 33.5 -120.5v-10h-117v22c0 16 -1.16699 28.5 -3.5 37.5s-7.16602 13.5 -14.499 13.5
c-6.66699 0 -11.334 -3.66699 -14.001 -11s-4 -17.333 -4 -30c0 -20.667 6.5 -36.834 19.5 -48.501s31.833 -25.167 56.5 -40.5c30.667 -19.333 51.667 -42 63 -68s17 -53.667 17 -83c0 -17.333 -2.33301 -35.5 -7 -54.5s-12.334 -36.167 -23.001 -51.5
s-24.167 -28 -40.5 -38s-36.5 -15 -60.5 -15c-46.667 0 -81.667 14.5 -105 43.5s-35 71.167 -35 126.5v9h117zM108.005 553.998l-66 141h88l24 -66l24 66h88l-66 -141h-92z" />
    <glyph glyph-name="uni0162" unicode="&#x162;" horiz-adv-x="323" 
d="M100 0v551h-90v114h303v-114h-93v-551h-120zM175 -181h-88l31 141h110z" />
    <glyph glyph-name="uni0163" unicode="&#x163;" horiz-adv-x="249" 
d="M244 14c-12.667 -8 -24.833 -14 -36.5 -18s-26.167 -6 -43.5 -6c-48 0 -82.333 14.833 -103 44.5s-31 72.167 -31 127.5v458h107l13 -90v-10h79v-100h-79v-264c0 -6.66699 0.333008 -13.334 1 -20.001s2 -12.667 4 -18s4.83301 -9.66602 8.5 -12.999s8.5 -5 14.5 -5
c12.667 0 25.667 4.33301 39 13zM150.001 -181h-88l31 141h110z" />
    <glyph glyph-name="Tcaron" unicode="&#x164;" horiz-adv-x="323" 
d="M100 0v551h-90v114h303v-114h-93v-551h-120zM116 709l-66 141h88l24 -66l24 66h88l-66 -141h-92z" />
    <glyph glyph-name="tcaron" unicode="&#x165;" horiz-adv-x="263" 
d="M244 14c-12.667 -8 -24.833 -14 -36.5 -18s-26.167 -6 -43.5 -6c-48 0 -82.333 14.833 -103 44.5s-31 72.167 -31 127.5v458h107l13 -90v-10h79v-100h-79v-264c0 -6.66699 0.333008 -13.334 1 -20.001s2 -12.667 4 -18s4.83301 -9.66602 8.5 -12.999s8.5 -5 14.5 -5
c12.667 0 25.667 4.33301 39 13zM224.001 574h-61l15 151h89z" />
    <glyph glyph-name="Tbar" unicode="&#x166;" horiz-adv-x="323" 
d="M37 427h63v124h-90v114h303v-114h-93v-124h63v-100h-63v-327h-120v327h-63v100z" />
    <glyph glyph-name="tbar" unicode="&#x167;" horiz-adv-x="249" 
d="M244 14c-12.667 -8 -24.833 -14 -36.5 -18s-26.167 -6 -43.5 -6c-48 0 -82.333 14.833 -103 44.5s-31 72.167 -31 127.5v458h107l13 -90v-10h79v-100h-79v-79h79v-90h-79v-95c0 -6.66699 0.333008 -13.334 1 -20.001s2 -12.667 4 -18s4.83301 -9.66602 8.5 -12.999
s8.5 -5 14.5 -5c12.667 0 25.667 4.33301 39 13z" />
    <glyph glyph-name="Utilde" unicode="&#x168;" horiz-adv-x="348" 
d="M318 665l-0.00195312 -500.001c0 -57.333 -12 -100.666 -36 -129.999s-60 -44 -108 -44s-84 14.667 -108 44s-36 72.666 -36 129.999v500h120v-507c0 -13.333 1.33301 -26.166 4 -38.499s9.33398 -18.5 20.001 -18.5s17.334 6 20.001 18s4 25 4 39v507h120z
M45.998 715.999c0 41.333 7.83398 71.5 23.501 90.5s33.834 28.5 54.501 28.5c12 0 22 -1.33301 30 -4s14.667 -5.5 20 -8.5l14.5 -8c4.33301 -2.33301 9.16602 -3.5 14.499 -3.5c8.66699 0 13 6.33301 13 19v8h86v-8c0 -41.333 -7.33301 -71.833 -22 -91.5
s-32.334 -29.5 -53.001 -29.5c-10 0 -19 1.5 -27 4.5s-15 6.5 -21 10.5s-11.5 7.5 -16.5 10.5s-9.83301 4.5 -14.5 4.5c-10.667 0 -16 -7.66699 -16 -23v-7h-86v7z" />
    <glyph glyph-name="utilde" unicode="&#x169;" horiz-adv-x="340" 
d="M30 520l120 -0.000976562v-377c0 -18.667 1 -32.167 3 -40.5s6.33301 -12.5 13 -12.5s11.667 4.66699 15 14v416h120v-392c0 -8 1.83301 -14.667 5.5 -20s10.5 -8 20.5 -8v-110c-18 0 -33.333 0.833008 -46 2.5s-23.834 4.83398 -33.501 9.50098s-18 11 -25 19
s-13.5 18.333 -19.5 31c-7.33301 -19.333 -17 -34.5 -29 -45.5s-29 -16.5 -51 -16.5c-12.667 0 -24.667 2.5 -36 7.5s-21.166 13.167 -29.499 24.5s-15 26 -20 44s-7.5 39.667 -7.5 65v389zM42 560.999c0 41.333 7.83398 71.5 23.501 90.5s33.834 28.5 54.501 28.5
c12 0 22 -1.33301 30 -4s14.667 -5.5 20 -8.5l14.5 -8c4.33301 -2.33301 9.16602 -3.5 14.499 -3.5c8.66699 0 13 6.33301 13 19v8h86v-8c0 -41.333 -7.33301 -71.833 -22 -91.5s-32.334 -29.5 -53.001 -29.5c-10 0 -19 1.5 -27 4.5s-15 6.5 -21 10.5s-11.5 7.5 -16.5 10.5
s-9.83301 4.5 -14.5 4.5c-10.667 0 -16 -7.66699 -16 -23v-7h-86v7z" />
    <glyph glyph-name="Umacron" unicode="&#x16a;" horiz-adv-x="348" 
d="M318 665l-0.00195312 -500.001c0 -57.333 -12 -100.666 -36 -129.999s-60 -44 -108 -44s-84 14.667 -108 44s-36 72.666 -36 129.999v500h120v-507c0 -13.333 1.33301 -26.166 4 -38.499s9.33398 -18.5 20.001 -18.5s17.334 6 20.001 18s4 25 4 39v507h120z
M70.998 829.999h205v-100h-205v100z" />
    <glyph glyph-name="umacron" unicode="&#x16b;" horiz-adv-x="340" 
d="M30 520l120 -0.000976562v-377c0 -18.667 1 -32.167 3 -40.5s6.33301 -12.5 13 -12.5s11.667 4.66699 15 14v416h120v-392c0 -8 1.83301 -14.667 5.5 -20s10.5 -8 20.5 -8v-110c-18 0 -33.333 0.833008 -46 2.5s-23.834 4.83398 -33.501 9.50098s-18 11 -25 19
s-13.5 18.333 -19.5 31c-7.33301 -19.333 -17 -34.5 -29 -45.5s-29 -16.5 -51 -16.5c-12.667 0 -24.667 2.5 -36 7.5s-21.166 13.167 -29.499 24.5s-15 26 -20 44s-7.5 39.667 -7.5 65v389zM67 674.999h205v-100h-205v100z" />
    <glyph glyph-name="Ubreve" unicode="&#x16c;" horiz-adv-x="348" 
d="M318 665l-0.00195312 -500.001c0 -57.333 -12 -100.666 -36 -129.999s-60 -44 -108 -44s-84 14.667 -108 44s-36 72.666 -36 129.999v500h120v-507c0 -13.333 1.33301 -26.166 4 -38.499s9.33398 -18.5 20.001 -18.5s17.334 6 20.001 18s4 25 4 39v507h120z
M283.998 836.999v-12c0 -34 -9 -61.833 -27 -83.5s-46 -32.5 -84 -32.5s-66.167 10.833 -84.5 32.5s-27.5 49.5 -27.5 83.5v12h93v-12c0 -11.333 1.66699 -19 5 -23s8 -6 14 -6s10.667 2 14 6s5 11.667 5 23v12h92z" />
    <glyph glyph-name="ubreve" unicode="&#x16d;" horiz-adv-x="340" 
d="M30 520l120 -0.000976562v-377c0 -18.667 1 -32.167 3 -40.5s6.33301 -12.5 13 -12.5s11.667 4.66699 15 14v416h120v-392c0 -8 1.83301 -14.667 5.5 -20s10.5 -8 20.5 -8v-110c-18 0 -33.333 0.833008 -46 2.5s-23.834 4.83398 -33.501 9.50098s-18 11 -25 19
s-13.5 18.333 -19.5 31c-7.33301 -19.333 -17 -34.5 -29 -45.5s-29 -16.5 -51 -16.5c-12.667 0 -24.667 2.5 -36 7.5s-21.166 13.167 -29.499 24.5s-15 26 -20 44s-7.5 39.667 -7.5 65v389zM280 681.999v-12c0 -34 -9 -61.833 -27 -83.5s-46 -32.5 -84 -32.5
s-66.167 10.833 -84.5 32.5s-27.5 49.5 -27.5 83.5v12h93v-12c0 -11.333 1.66699 -19 5 -23s8 -6 14 -6s10.667 2 14 6s5 11.667 5 23v12h92z" />
    <glyph glyph-name="Uring" unicode="&#x16e;" horiz-adv-x="348" 
d="M318 665l-0.00195312 -500.001c0 -57.333 -12 -100.666 -36 -129.999s-60 -44 -108 -44s-84 14.667 -108 44s-36 72.666 -36 129.999v500h120v-507c0 -13.333 1.33301 -26.166 4 -38.499s9.33398 -18.5 20.001 -18.5s17.334 6 20.001 18s4 25 4 39v507h120z
M149.998 788.999c0 -7.33301 2.16699 -13.333 6.5 -18s10.166 -7 17.499 -7s13 2.33301 17 7s6 10.667 6 18s-2 13.166 -6 17.499s-9.66699 6.5 -17 6.5s-13.166 -2.16699 -17.499 -6.5s-6.5 -10.166 -6.5 -17.499zM82.998 788.999c0 25.333 9 46.666 27 63.999
s39.333 26 64 26c25.333 0 46.666 -8.66699 63.999 -26s26 -38.666 26 -63.999c0 -24.667 -8.66699 -46 -26 -64s-38.666 -27 -63.999 -27c-12 0 -23.5 2.5 -34.5 7.5s-20.667 11.667 -29 20s-15 18 -20 29s-7.5 22.5 -7.5 34.5z" />
    <glyph glyph-name="uring" unicode="&#x16f;" horiz-adv-x="340" 
d="M30 520l120 -0.000976562v-377c0 -18.667 1 -32.167 3 -40.5s6.33301 -12.5 13 -12.5s11.667 4.66699 15 14v416h120v-392c0 -8 1.83301 -14.667 5.5 -20s10.5 -8 20.5 -8v-110c-18 0 -33.333 0.833008 -46 2.5s-23.834 4.83398 -33.501 9.50098s-18 11 -25 19
s-13.5 18.333 -19.5 31c-7.33301 -19.333 -17 -34.5 -29 -45.5s-29 -16.5 -51 -16.5c-12.667 0 -24.667 2.5 -36 7.5s-21.166 13.167 -29.499 24.5s-15 26 -20 44s-7.5 39.667 -7.5 65v389zM146 633.999c0 -7.33301 2.16699 -13.333 6.5 -18s10.166 -7 17.499 -7
s13 2.33301 17 7s6 10.667 6 18s-2 13.166 -6 17.499s-9.66699 6.5 -17 6.5s-13.166 -2.16699 -17.499 -6.5s-6.5 -10.166 -6.5 -17.499zM79 633.999c0 25.333 9 46.666 27 63.999s39.333 26 64 26c25.333 0 46.666 -8.66699 63.999 -26s26 -38.666 26 -63.999
c0 -24.667 -8.66699 -46 -26 -64s-38.666 -27 -63.999 -27c-12 0 -23.5 2.5 -34.5 7.5s-20.667 11.667 -29 20s-15 18 -20 29s-7.5 22.5 -7.5 34.5z" />
    <glyph glyph-name="Uhungarumlaut" unicode="&#x170;" horiz-adv-x="348" 
d="M318 665l-0.00195312 -500.001c0 -57.333 -12 -100.666 -36 -129.999s-60 -44 -108 -44s-84 14.667 -108 44s-36 72.666 -36 129.999v500h120v-507c0 -13.333 1.33301 -26.166 4 -38.499s9.33398 -18.5 20.001 -18.5s17.334 6 20.001 18s4 25 4 39v507h120z
M348.998 849.999l-73 -141h-93l51 141h115zM209.998 849.999l-63 -141h-93l41 141h115z" />
    <glyph glyph-name="uhungarumlaut" unicode="&#x171;" horiz-adv-x="340" 
d="M30 520l120 -0.000976562v-377c0 -18.667 1 -32.167 3 -40.5s6.33301 -12.5 13 -12.5s11.667 4.66699 15 14v416h120v-392c0 -8 1.83301 -14.667 5.5 -20s10.5 -8 20.5 -8v-110c-18 0 -33.333 0.833008 -46 2.5s-23.834 4.83398 -33.501 9.50098s-18 11 -25 19
s-13.5 18.333 -19.5 31c-7.33301 -19.333 -17 -34.5 -29 -45.5s-29 -16.5 -51 -16.5c-12.667 0 -24.667 2.5 -36 7.5s-21.166 13.167 -29.499 24.5s-15 26 -20 44s-7.5 39.667 -7.5 65v389zM345 694.999l-73 -141h-93l51 141h115zM206 694.999l-63 -141h-93l41 141h115z" />
    <glyph glyph-name="Uogonek" unicode="&#x172;" horiz-adv-x="348" 
d="M318 665l-0.000976562 -498.004c0 -39.333 -5.66699 -71.166 -17 -95.499s-27.666 -46.166 -48.999 -65.499c-39.333 -36.667 -59 -76.667 -59 -120c0 -10 1.33301 -16.667 4 -20s6 -5 10 -5s7.33301 1.5 10 4.5s4 9.83301 4 20.5v12h70v-12
c0 -11.333 -1.5 -22.833 -4.5 -34.5s-8 -22.334 -15 -32.001s-15.833 -17.5 -26.5 -23.5s-24 -9 -40 -9c-30 0 -52.5 8.5 -67.5 25.5s-22.5 38.833 -22.5 65.5c0 24.667 4.33301 46.334 13 65.001s19.667 35 33 49c-44 2.66699 -76.833 18.834 -98.5 48.501
s-32.5 71.834 -32.5 126.501v498h120v-505c0 -13.333 1.83301 -26.5 5.5 -39.5s9.83398 -19.5 18.501 -19.5c9.33301 0 15.666 6.33301 18.999 19s5 26 5 40v505h120z" />
    <glyph glyph-name="uogonek" unicode="&#x173;" horiz-adv-x="340" 
d="M30 520h119.998v-377c0 -18.667 1 -32.167 3 -40.5s6.33301 -12.5 13 -12.5s11.667 4.66699 15 14v416h120v-392c0 -8 1.83301 -14.667 5.5 -20s10.5 -8 20.5 -8v-110h-21.5c-7 0 -13.167 0.666992 -18.5 2c-17.333 -15.333 -31.333 -31.666 -42 -48.999
s-16 -36.333 -16 -57c0 -10 1.33301 -16.667 4 -20s6 -5 10 -5s7.33301 1.5 10 4.5s4 9.83301 4 20.5v12h70v-12c0 -11.333 -1.5 -22.833 -4.5 -34.5s-8 -22.334 -15 -32.001s-15.833 -17.5 -26.5 -23.5s-24 -9 -40 -9c-30 0 -52.5 8.5 -67.5 25.5s-22.5 38.833 -22.5 65.5
c0 33.333 7.33301 61 22 83s32.334 40.333 53.001 55c-8 8 -15.667 20 -23 36c-7.33301 -19.333 -17 -34.5 -29 -45.5s-29 -16.5 -51 -16.5c-12.667 0 -24.667 2.5 -36 7.5s-21.166 13.167 -29.499 24.5s-15 26 -20 44s-7.5 39.667 -7.5 65v389z" />
    <glyph glyph-name="Wcircumflex" unicode="&#x174;" horiz-adv-x="473" 
d="M278 665l43 -421h4l18 421h120l-72 -665h-114l-42 340h-4l-42 -340h-107l-72 665h120l18 -421h4l43 421h83zM284 850l69 -141h-93l-24 64l-24 -64h-93l69 141h96z" />
    <glyph glyph-name="wcircumflex" unicode="&#x175;" horiz-adv-x="476" 
d="M192 520h92l33 -283h4l23 283h120l-71 -520h-110l-43 261h-6l-42 -261h-110l-70 520h120l19 -283h4zM286 695l69 -141h-93l-24 64l-24 -64h-93l69 141h96z" />
    <glyph glyph-name="Ycircumflex" unicode="&#x176;" horiz-adv-x="365" 
d="M242 190v-190h-120v191l-112 474h124l46 -298h4l47 298h124zM230 850l69 -141h-93l-24 64l-24 -64h-93l69 141h96z" />
    <glyph glyph-name="ycircumflex" unicode="&#x177;" horiz-adv-x="320" 
d="M12 520h119.999l28 -309h4l24 309h120l-102 -565c-4 -22 -10.667 -43 -20 -63s-21.666 -37.5 -36.999 -52.5s-34 -27 -56 -36s-48 -13.5 -78 -13.5v110c17.333 0 34.5 5.5 51.5 16.5s27.5 28.167 31.5 51.5l5 28zM207.999 695l69 -141h-93l-24 64l-24 -64h-93l69 141h96z
" />
    <glyph glyph-name="Ydieresis" unicode="&#x178;" horiz-adv-x="365" 
d="M242 190v-190h-120v191l-112 474h124l46 -298h4l47 298h124zM109 844c19.333 0 35 -6 47 -18s18 -27.667 18 -47s-6 -35 -18 -47s-27.667 -18 -47 -18s-35 6 -47 18s-18 27.667 -18 47s6 35 18 47s27.667 18 47 18zM256 844c19.333 0 35 -6 47 -18s18 -27.667 18 -47
s-6 -35 -18 -47s-27.667 -18 -47 -18s-35 6 -47 18s-18 27.667 -18 47s6 35 18 47s27.667 18 47 18z" />
    <glyph glyph-name="Zacute" unicode="&#x179;" horiz-adv-x="307" 
d="M19 551v114h273v-130l-164 -425h160v-110h-273v130l165 421h-161zM255 850l-58 -141h-98l36 141h120z" />
    <glyph glyph-name="zacute" unicode="&#x17a;" horiz-adv-x="264" 
d="M25 410v110h219v-120l-114 -290h110v-110h-220v120l114 290h-109zM233 695l-58 -141h-98l36 141h120z" />
    <glyph glyph-name="Zdotaccent" unicode="&#x17b;" horiz-adv-x="307" 
d="M19 551v114h273v-130l-164 -425h160v-110h-273v130l165 421h-161zM154 844c19.333 0 35 -6 47 -18s18 -27.667 18 -47s-6 -35 -18 -47s-27.667 -18 -47 -18s-35 6 -47 18s-18 27.667 -18 47s6 35 18 47s27.667 18 47 18z" />
    <glyph glyph-name="zdotaccent" unicode="&#x17c;" horiz-adv-x="264" 
d="M25 410v110h219v-120l-114 -290h110v-110h-220v120l114 290h-109zM132 689c19.333 0 35 -6 47 -18s18 -27.667 18 -47s-6 -35 -18 -47s-27.667 -18 -47 -18s-35 6 -47 18s-18 27.667 -18 47s6 35 18 47s27.667 18 47 18z" />
    <glyph glyph-name="Zcaron" unicode="&#x17d;" horiz-adv-x="307" 
d="M19 551v114h273v-130l-164 -425h160v-110h-273v130l165 421h-161zM108 709l-66 141h88l24 -66l24 66h88l-66 -141h-92z" />
    <glyph glyph-name="zcaron" unicode="&#x17e;" horiz-adv-x="264" 
d="M25 410v110h219v-120l-114 -290h110v-110h-220v120l114 290h-109zM86 554l-66 141h88l24 -66l24 66h88l-66 -141h-92z" />
    <glyph glyph-name="florin" unicode="&#x192;" horiz-adv-x="395" 
d="M259 176c0 -62.667 -12.999 -109.334 -38.999 -140.001s-61 -46 -105 -46c-28.667 0 -51 4.83301 -67 14.5s-30.333 21.5 -43 35.5l70 70c3.33301 -5.33301 7.5 -10 12.5 -14s10.5 -6 16.5 -6c11.333 0 19.5 6.16699 24.5 18.5s7.5 28.833 7.5 49.5v331
c0 60.667 11.833 106.834 35.5 138.501s58.167 47.5 103.5 47.5c31.333 0 55.166 -4.83301 71.499 -14.5s30.833 -21.5 43.5 -35.5l-68 -72c-3.33301 5.33301 -7.5 10.333 -12.5 15s-11.167 7 -18.5 7c-11.333 0 -19.5 -6 -24.5 -18s-7.5 -27.333 -7.5 -46v-116h76v-100h-76
v-119z" />
    <glyph glyph-name="uni0218" unicode="&#x218;" horiz-adv-x="328" 
d="M20 511c0 20.667 2.83203 41.002 8.49902 61.002s14.334 37.5 26.001 52.5s26.5 27.167 44.5 36.5s39.667 14 65 14c44.667 0 79.834 -13.833 105.501 -41.5s38.5 -74.5 38.5 -140.5v-41h-120v53c0 15.333 -1.33301 29.166 -4 41.499s-9.33398 18.5 -20.001 18.5
s-16.834 -6.16699 -18.501 -18.5s-2.5 -26.166 -2.5 -41.499v-19c0 -14 3.16699 -27.667 9.5 -41s18.166 -27.333 35.499 -42c15.333 -12.667 30.166 -25.667 44.499 -39s27.166 -28 38.499 -44s20.333 -33.5 27 -52.5s10 -39.833 10 -62.5v-51
c0 -20 -2.66699 -39.667 -8 -59s-13.833 -36.833 -25.5 -52.5s-26.667 -28.334 -45 -38.001s-40.166 -14.5 -65.499 -14.5s-47.166 4.5 -65.499 13.5s-33.333 21.5 -45 37.5s-20.167 35.5 -25.5 58.5s-8 48.5 -8 76.5v37h123v-53c0 -15.333 0.833008 -29.166 2.5 -41.499
s7.83398 -18.5 18.501 -18.5s17.334 6.16699 20.001 18.5s4 26.166 4 41.499v26c0 23.333 -6 43.333 -18 60s-25 31 -39 43c-32 26.667 -58.5 53.667 -79.5 81s-31.5 59.666 -31.5 96.999v44zM176.999 -180.998h-88l31 141h110z" />
    <glyph glyph-name="uni0219" unicode="&#x219;" horiz-adv-x="307" 
d="M136 169l0.00488281 -12.002c0 -22 1.16699 -38.667 3.5 -50s7.16602 -17 14.499 -17c13.333 0 20 16 20 48c0 8 -1 15.5 -3 22.5s-5.5 14 -10.5 21s-12 14.333 -21 22s-20.833 16.5 -35.5 26.5c-30 20.667 -52 42.834 -66 66.501s-21 53.834 -21 90.501
c0 16.667 2.83301 33.5 8.5 50.5s14.167 32.333 25.5 46s25.666 24.834 42.999 33.501s37.666 13 60.999 13c43.333 0 76.166 -14.167 98.499 -42.5s33.5 -68.5 33.5 -120.5v-10h-117v22c0 16 -1.16699 28.5 -3.5 37.5s-7.16602 13.5 -14.499 13.5
c-6.66699 0 -11.334 -3.66699 -14.001 -11s-4 -17.333 -4 -30c0 -20.667 6.5 -36.834 19.5 -48.501s31.833 -25.167 56.5 -40.5c30.667 -19.333 51.667 -42 63 -68s17 -53.667 17 -83c0 -17.333 -2.33301 -35.5 -7 -54.5s-12.334 -36.167 -23.001 -51.5
s-24.167 -28 -40.5 -38s-36.5 -15 -60.5 -15c-46.667 0 -81.667 14.5 -105 43.5s-35 71.167 -35 126.5v9h117zM167.005 -181.002h-88l31 141h110z" />
    <glyph glyph-name="uni021A" unicode="&#x21a;" horiz-adv-x="323" 
d="M100 0v551h-90v114h303v-114h-93v-551h-120zM175 -181h-88l31 141h110z" />
    <glyph glyph-name="uni021B" unicode="&#x21b;" horiz-adv-x="249" 
d="M244 14c-12.667 -8 -24.833 -14 -36.5 -18s-26.167 -6 -43.5 -6c-48 0 -82.333 14.833 -103 44.5s-31 72.167 -31 127.5v458h107l13 -90v-10h79v-100h-79v-264c0 -6.66699 0.333008 -13.334 1 -20.001s2 -12.667 4 -18s4.83301 -9.66602 8.5 -12.999s8.5 -5 14.5 -5
c12.667 0 25.667 4.33301 39 13zM150.001 -181h-88l31 141h110z" />
    <glyph glyph-name="dotlessj" unicode="&#x237;" horiz-adv-x="190" 
d="M142 520l13 -95v-443c0 -38 -4.16699 -69.5 -12.5 -94.5s-19.666 -44.667 -33.999 -59s-31.333 -24.333 -51 -30s-40.834 -8.5 -63.501 -8.5v110c15.333 0 26 5.16699 32 15.5s9 29.5 9 57.5v547h107z" />
    <glyph glyph-name="circumflex" unicode="&#x2c6;" horiz-adv-x="350" 
d="M223 695l69 -141h-93l-24 64l-24 -64h-93l69 141h96z" />
    <glyph glyph-name="caron" unicode="&#x2c7;" horiz-adv-x="350" 
d="M129 554l-66 141h88l24 -66l24 66h88l-66 -141h-92z" />
    <glyph glyph-name="breve" unicode="&#x2d8;" horiz-adv-x="350" 
d="M285 682v-12c0 -34 -9 -61.833 -27 -83.5s-46 -32.5 -84 -32.5s-66.167 10.833 -84.5 32.5s-27.5 49.5 -27.5 83.5v12h93v-12c0 -11.333 1.66699 -19 5 -23s8 -6 14 -6s10.667 2 14 6s5 11.667 5 23v12h92z" />
    <glyph glyph-name="dotaccent" unicode="&#x2d9;" horiz-adv-x="350" 
d="M175 689c19.333 0 35 -6 47 -18s18 -27.667 18 -47s-6 -35 -18 -47s-27.667 -18 -47 -18s-35 6 -47 18s-18 27.667 -18 47s6 35 18 47s27.667 18 47 18z" />
    <glyph glyph-name="ring" unicode="&#x2da;" horiz-adv-x="350" 
d="M151 634c0 -7.33301 2.16699 -13.333 6.5 -18s10.166 -7 17.499 -7s13 2.33301 17 7s6 10.667 6 18s-2 13.166 -6 17.499s-9.66699 6.5 -17 6.5s-13.166 -2.16699 -17.499 -6.5s-6.5 -10.166 -6.5 -17.499zM84 634c0 25.333 9 46.666 27 63.999s39.333 26 64 26
c25.333 0 46.666 -8.66699 63.999 -26s26 -38.666 26 -63.999c0 -24.667 -8.66699 -46 -26 -64s-38.666 -27 -63.999 -27c-12 0 -23.5 2.5 -34.5 7.5s-20.667 11.667 -29 20s-15 18 -20 29s-7.5 22.5 -7.5 34.5z" />
    <glyph glyph-name="ogonek" unicode="&#x2db;" horiz-adv-x="350" 
d="M243 0c-20 -16.667 -36.333 -34.332 -49 -52.999s-19 -39 -19 -61c0 -10 1.33301 -16.667 4 -20s6 -5 10 -5s7.33301 1.5 10 4.5s4 9.83301 4 20.5v12h70v-12c0 -11.333 -1.5 -22.833 -4.5 -34.5s-8 -22.334 -15 -32.001s-15.833 -17.5 -26.5 -23.5s-24 -9 -40 -9
c-30 0 -52.5 8.5 -67.5 25.5s-22.5 38.833 -22.5 65.5c0 22 3.5 41.5 10.5 58.5s16 32 27 45s23.5 24.333 37.5 34s28 18.167 42 25.5z" />
    <glyph glyph-name="tilde" unicode="&#x2dc;" horiz-adv-x="350" 
d="M47 561c0 41.333 7.83398 71.5 23.501 90.5s33.834 28.5 54.501 28.5c12 0 22 -1.33301 30 -4s14.667 -5.5 20 -8.5l14.5 -8c4.33301 -2.33301 9.16602 -3.5 14.499 -3.5c8.66699 0 13 6.33301 13 19v8h86v-8c0 -41.333 -7.33301 -71.833 -22 -91.5
s-32.334 -29.5 -53.001 -29.5c-10 0 -19 1.5 -27 4.5s-15 6.5 -21 10.5s-11.5 7.5 -16.5 10.5s-9.83301 4.5 -14.5 4.5c-10.667 0 -16 -7.66699 -16 -23v-7h-86v7z" />
    <glyph glyph-name="hungarumlaut" unicode="&#x2dd;" horiz-adv-x="350" 
d="M350 695l-73 -141h-93l51 141h115zM211 695l-63 -141h-93l41 141h115z" />
    <glyph glyph-name="uni0394" unicode="&#x394;" horiz-adv-x="312" 
d="M200 110l-44 325l-44 -325h88zM115 665h82l105 -539v-126h-292v126z" />
    <glyph glyph-name="uni03A9" unicode="&#x3a9;" 
d="M312 254c0 -34 -6.16699 -63.667 -18.5 -89s-32.833 -43.666 -61.5 -54.999h80v-110h-134v115c3.33301 7.33301 6 17 8 29s3.5 24.5 4.5 37.5s1.5 25.5 1.5 37.5v29v257c0 15.333 -1.33301 29.166 -4 41.499s-9.33398 18.5 -20.001 18.5s-16.834 -6.16699 -18.501 -18.5
s-2.5 -26.166 -2.5 -41.499v-257v-29c0 -12 0.333008 -24.5 1 -37.5s1.83398 -25.5 3.50098 -37.5s3.83398 -21.667 6.50098 -29v-115h-131v110h80c-26 11.333 -45.833 29.666 -59.5 54.999s-20.5 55 -20.5 89v244c0 57.333 11.5 101.166 34.5 131.499s58.5 45.5 106.5 45.5
s84 -15.167 108 -45.5s36 -74.166 36 -131.499v-244z" />
    <glyph glyph-name="pi" unicode="&#x3c0;" horiz-adv-x="415" 
d="M350 0h-120v410h-45v-410h-120v410h-45v110h375v-110h-45v-410z" />
    <glyph glyph-name="Wgrave" unicode="&#x1e80;" horiz-adv-x="473" 
d="M278 665l43 -421h4l18 421h120l-72 -665h-114l-42 340h-4l-42 -340h-107l-72 665h120l18 -421h4l43 421h83zM276 850l36 -141h-98l-58 141h120z" />
    <glyph glyph-name="wgrave" unicode="&#x1e81;" horiz-adv-x="476" 
d="M192 520h92l33 -283h4l23 283h120l-71 -520h-110l-43 261h-6l-42 -261h-110l-70 520h120l19 -283h4zM278 695l36 -141h-98l-58 141h120z" />
    <glyph glyph-name="Wacute" unicode="&#x1e82;" horiz-adv-x="473" 
d="M278 665l43 -421h4l18 421h120l-72 -665h-114l-42 340h-4l-42 -340h-107l-72 665h120l18 -421h4l43 421h83zM337 850l-58 -141h-98l36 141h120z" />
    <glyph glyph-name="wacute" unicode="&#x1e83;" horiz-adv-x="476" 
d="M192 520h92l33 -283h4l23 283h120l-71 -520h-110l-43 261h-6l-42 -261h-110l-70 520h120l19 -283h4zM339 695l-58 -141h-98l36 141h120z" />
    <glyph glyph-name="Wdieresis" unicode="&#x1e84;" horiz-adv-x="473" 
d="M278 665l43 -421h4l18 421h120l-72 -665h-114l-42 340h-4l-42 -340h-107l-72 665h120l18 -421h4l43 421h83zM163 844c19.333 0 35 -6 47 -18s18 -27.667 18 -47s-6 -35 -18 -47s-27.667 -18 -47 -18s-35 6 -47 18s-18 27.667 -18 47s6 35 18 47s27.667 18 47 18zM310 844
c19.333 0 35 -6 47 -18s18 -27.667 18 -47s-6 -35 -18 -47s-27.667 -18 -47 -18s-35 6 -47 18s-18 27.667 -18 47s6 35 18 47s27.667 18 47 18z" />
    <glyph glyph-name="wdieresis" unicode="&#x1e85;" horiz-adv-x="476" 
d="M192 520h92l33 -283h4l23 283h120l-71 -520h-110l-43 261h-6l-42 -261h-110l-70 520h120l19 -283h4zM165 689c19.333 0 35 -6 47 -18s18 -27.667 18 -47s-6 -35 -18 -47s-27.667 -18 -47 -18s-35 6 -47 18s-18 27.667 -18 47s6 35 18 47s27.667 18 47 18zM312 689
c19.333 0 35 -6 47 -18s18 -27.667 18 -47s-6 -35 -18 -47s-27.667 -18 -47 -18s-35 6 -47 18s-18 27.667 -18 47s6 35 18 47s27.667 18 47 18z" />
    <glyph glyph-name="Ygrave" unicode="&#x1ef2;" horiz-adv-x="365" 
d="M242 190v-190h-120v191l-112 474h124l46 -298h4l47 298h124zM222 850l36 -141h-98l-58 141h120z" />
    <glyph glyph-name="ygrave" unicode="&#x1ef3;" horiz-adv-x="320" 
d="M12 520h119.999l28 -309h4l24 309h120l-102 -565c-4 -22 -10.667 -43 -20 -63s-21.666 -37.5 -36.999 -52.5s-34 -27 -56 -36s-48 -13.5 -78 -13.5v110c17.333 0 34.5 5.5 51.5 16.5s27.5 28.167 31.5 51.5l5 28zM199.999 695l36 -141h-98l-58 141h120z" />
    <glyph glyph-name="endash" unicode="&#x2013;" horiz-adv-x="500" 
d="M50 371h400v-110h-400v110z" />
    <glyph glyph-name="emdash" unicode="&#x2014;" horiz-adv-x="1000" 
d="M50 371h900v-110h-900v110z" />
    <glyph glyph-name="quoteleft" unicode="&#x2018;" horiz-adv-x="192" 
d="M73 685h79l-12 -258h-110z" />
    <glyph glyph-name="quoteright" unicode="&#x2019;" horiz-adv-x="192" 
d="M119 427h-79l12 258h110z" />
    <glyph glyph-name="quotesinglbase" unicode="&#x201a;" horiz-adv-x="192" 
d="M119 -171h-79l12 216h110z" />
    <glyph glyph-name="quotedblleft" unicode="&#x201c;" horiz-adv-x="332" 
d="M73 685h79l-12 -258h-110zM213 685h79l-12 -258h-110z" />
    <glyph glyph-name="quotedblright" unicode="&#x201d;" horiz-adv-x="332" 
d="M119 427h-79l12 258h110zM259 427h-79l12 258h110z" />
    <glyph glyph-name="quotedblbase" unicode="&#x201e;" horiz-adv-x="332" 
d="M119 -171h-79l12 216h110zM259 -171h-79l12 216h110z" />
    <glyph glyph-name="dagger" unicode="&#x2020;" horiz-adv-x="296" 
d="M25 541h63v169h120v-169h63v-110h-63v-431h-120v431h-63v110z" />
    <glyph glyph-name="daggerdbl" unicode="&#x2021;" horiz-adv-x="296" 
d="M25 541h63v169h120v-169h63v-110h-63v-151h63v-110h-63v-170h-120v170h-63v110h63v151h-63v110z" />
    <glyph glyph-name="bullet" unicode="&#x2022;" horiz-adv-x="288" 
d="M30 333c0 35.333 10.667 63.5 32 84.5s48.666 31.5 81.999 31.5s60.666 -10.5 81.999 -31.5s32 -49.167 32 -84.5s-10.667 -63.5 -32 -84.5s-48.666 -31.5 -81.999 -31.5s-60.666 10.5 -81.999 31.5s-32 49.167 -32 84.5z" />
    <glyph glyph-name="ellipsis" unicode="&#x2026;" horiz-adv-x="552" 
d="M18 66c0 21.333 6.5 38.5 19.5 51.5s30.167 19.5 51.5 19.5s38.5 -6.5 51.5 -19.5s19.5 -30.167 19.5 -51.5s-6.5 -38.5 -19.5 -51.5s-30.167 -19.5 -51.5 -19.5s-38.5 6.5 -51.5 19.5s-19.5 30.167 -19.5 51.5zM205 66c0 21.333 6.5 38.5 19.5 51.5
s30.167 19.5 51.5 19.5s38.5 -6.5 51.5 -19.5s19.5 -30.167 19.5 -51.5s-6.5 -38.5 -19.5 -51.5s-30.167 -19.5 -51.5 -19.5s-38.5 6.5 -51.5 19.5s-19.5 30.167 -19.5 51.5zM392 66c0 21.333 6.5 38.5 19.5 51.5s30.167 19.5 51.5 19.5s38.5 -6.5 51.5 -19.5
s19.5 -30.167 19.5 -51.5s-6.5 -38.5 -19.5 -51.5s-30.167 -19.5 -51.5 -19.5s-38.5 6.5 -51.5 19.5s-19.5 30.167 -19.5 51.5z" />
    <glyph glyph-name="perthousand" unicode="&#x2030;" horiz-adv-x="929" 
d="M245 391c0 -17.333 -2 -33.666 -6 -48.999s-10.5 -28.833 -19.5 -40.5s-20.833 -20.834 -35.5 -27.501s-32.334 -10 -53.001 -10s-38.334 3.33301 -53.001 10s-26.667 15.834 -36 27.501s-16.166 25.167 -20.499 40.5s-6.5 31.666 -6.5 48.999v157
c0 17.333 2.16699 33.666 6.5 48.999s11.166 28.833 20.499 40.5s21.333 20.834 36 27.501s32.334 10 53.001 10s38.334 -3.33301 53.001 -10s26.5 -15.834 35.5 -27.501s15.5 -25.167 19.5 -40.5s6 -31.666 6 -48.999v-157zM145 555c0 10 -1 17.5 -3 22.5s-6 7.5 -12 7.5
s-10 -2.5 -12 -7.5s-3 -12.5 -3 -22.5v-171c0 -10 1 -17.5 3 -22.5s6 -7.5 12 -7.5s10 2.5 12 7.5s3 12.5 3 22.5v171zM654 118c0 -17.333 -2 -33.666 -6 -48.999s-10.5 -28.833 -19.5 -40.5s-20.833 -20.834 -35.5 -27.501s-32.334 -10 -53.001 -10
s-38.334 3.33301 -53.001 10s-26.667 15.834 -36 27.501s-16.166 25.167 -20.499 40.5s-6.5 31.666 -6.5 48.999v157c0 17.333 2.16699 33.666 6.5 48.999s11.166 28.833 20.499 40.5s21.333 20.834 36 27.501s32.334 10 53.001 10s38.334 -3.33301 53.001 -10
s26.5 -15.834 35.5 -27.501s15.5 -25.167 19.5 -40.5s6 -31.666 6 -48.999v-157zM554 282c0 10 -1 17.5 -3 22.5s-6 7.5 -12 7.5s-10 -2.5 -12 -7.5s-3 -12.5 -3 -22.5v-171c0 -10 1 -17.5 3 -22.5s6 -7.5 12 -7.5s10 2.5 12 7.5s3 12.5 3 22.5v171zM245 0h-100l278 665h100
zM914 118c0 -17.333 -2 -33.666 -6 -48.999s-10.5 -28.833 -19.5 -40.5s-20.833 -20.834 -35.5 -27.501s-32.334 -10 -53.001 -10s-38.334 3.33301 -53.001 10s-26.667 15.834 -36 27.501s-16.166 25.167 -20.499 40.5s-6.5 31.666 -6.5 48.999v157
c0 17.333 2.16699 33.666 6.5 48.999s11.166 28.833 20.499 40.5s21.333 20.834 36 27.501s32.334 10 53.001 10s38.334 -3.33301 53.001 -10s26.5 -15.834 35.5 -27.501s15.5 -25.167 19.5 -40.5s6 -31.666 6 -48.999v-157zM814 282c0 10 -1 17.5 -3 22.5s-6 7.5 -12 7.5
s-10 -2.5 -12 -7.5s-3 -12.5 -3 -22.5v-171c0 -10 1 -17.5 3 -22.5s6 -7.5 12 -7.5s10 2.5 12 7.5s3 12.5 3 22.5v171z" />
    <glyph glyph-name="guilsinglleft" unicode="&#x2039;" horiz-adv-x="247" 
d="M153 493l79 -83l-99 -117l99 -117l-79 -83l-123 145v110z" />
    <glyph glyph-name="guilsinglright" unicode="&#x203a;" horiz-adv-x="247" 
d="M94 93l-79 83l99 117l-99 117l79 83l123 -145v-110z" />
    <glyph glyph-name="fraction" unicode="&#x2044;" horiz-adv-x="158" 
d="M-10 0h-100l278 665h100z" />
    <glyph glyph-name="zerosuperior" unicode="&#x2070;" horiz-adv-x="260" 
d="M245 391c0 -17.333 -2 -33.666 -6 -48.999s-10.5 -28.833 -19.5 -40.5s-20.833 -20.834 -35.5 -27.501s-32.334 -10 -53.001 -10s-38.334 3.33301 -53.001 10s-26.667 15.834 -36 27.501s-16.166 25.167 -20.499 40.5s-6.5 31.666 -6.5 48.999v157
c0 17.333 2.16699 33.666 6.5 48.999s11.166 28.833 20.499 40.5s21.333 20.834 36 27.501s32.334 10 53.001 10s38.334 -3.33301 53.001 -10s26.5 -15.834 35.5 -27.501s15.5 -25.167 19.5 -40.5s6 -31.666 6 -48.999v-157zM145 555c0 10 -1 17.5 -3 22.5s-6 7.5 -12 7.5
s-10 -2.5 -12 -7.5s-3 -12.5 -3 -22.5v-171c0 -10 1 -17.5 3 -22.5s6 -7.5 12 -7.5s10 2.5 12 7.5s3 12.5 3 22.5v171z" />
    <glyph glyph-name="foursuperior" unicode="&#x2074;" horiz-adv-x="260" 
d="M155 331h-140v109l86 229h99l-91 -248h46v57h90v-208h-90v61z" />
    <glyph glyph-name="fivesuperior" unicode="&#x2075;" horiz-adv-x="260" 
d="M15 669l222.001 -0.000976562v-90h-127v-55c11.333 16.667 29.333 25 54 25c10.667 0 21 -2 31 -6s18.667 -10.667 26 -20s13.166 -21.666 17.499 -36.999s6.5 -34.333 6.5 -57v-38c0 -17.333 -2.5 -33.666 -7.5 -48.999s-12.5 -28.833 -22.5 -40.5
s-22.167 -20.834 -36.5 -27.501s-30.833 -10 -49.5 -10c-38 0 -66.5 10.5 -85.5 31.5s-28.5 47.167 -28.5 78.5v25h100v-15c0 -10 1 -17.5 3 -22.5s6 -7.5 12 -7.5c10 0 15 10 15 30v50c0 16.667 -5 25 -15 25s-15 -7.33301 -15 -22h-100v232z" />
    <glyph glyph-name="sixsuperior" unicode="&#x2076;" horiz-adv-x="260" 
d="M145 548l0.000976562 7c0 10 -1 17.5 -3 22.5s-6 7.5 -12 7.5s-10 -2.5 -12 -7.5s-3 -12.5 -3 -22.5v-72c4 12 10.667 22 20 30s21.666 12 36.999 12c20.667 0 38 -8.5 52 -25.5s21 -42.833 21 -77.5v-31c0 -17.333 -2 -33.666 -6 -48.999s-10.5 -28.833 -19.5 -40.5
s-20.833 -20.834 -35.5 -27.501s-32.334 -10 -53.001 -10s-38.334 3.33301 -53.001 10s-26.667 15.834 -36 27.501s-16.166 25.167 -20.499 40.5s-6.5 31.666 -6.5 48.999v157c0 17.333 2.16699 33.666 6.5 48.999s11.166 28.833 20.499 40.5s21.333 20.834 36 27.501
s32.334 10 53.001 10s38.334 -3.33301 53.001 -10s26.5 -15.5 35.5 -26.5s15.5 -23.667 19.5 -38s6 -28.833 6 -43.5v-9h-100zM130.001 354c6 0 10 2.5 12 7.5s3 12.5 3 22.5v26c0 10 -1 17.5 -3 22.5s-6 7.5 -12 7.5s-10 -2.5 -12 -7.5s-3 -12.5 -3 -22.5v-26
c0 -10 1 -17.5 3 -22.5s6 -7.5 12 -7.5z" />
    <glyph glyph-name="sevensuperior" unicode="&#x2077;" horiz-adv-x="260" 
d="M23 270l122 309h-130v90h230v-103l-117 -296h-105z" />
    <glyph glyph-name="eightsuperior" unicode="&#x2078;" horiz-adv-x="260" 
d="M15 571c0 30.667 10.1689 55.668 30.502 75.001s48.833 29 85.5 29c18 0 34.167 -3 48.5 -9s26.333 -13.833 36 -23.5s17 -20.834 22 -33.501s7.5 -25.667 7.5 -39v-8c0 -19.333 -4 -35.166 -12 -47.499s-20.333 -25.166 -37 -38.499
c15.333 -12.667 27.333 -26.5 36 -41.5s13 -34.167 13 -57.5v-9c0 -30.667 -9.16699 -55.667 -27.5 -75s-47.166 -29 -86.499 -29c-19.333 0 -36.333 3 -51 9s-26.834 13.833 -36.501 23.5s-16.834 20.667 -21.501 33s-7 24.833 -7 37.5v10c0 23.333 4.16699 42.5 12.5 57.5
s20.166 28.833 35.499 41.5c-16 13.333 -28 26.166 -36 38.499s-12 28.166 -12 47.499v9zM115.002 384.001c0 -10 1 -17.5029 3 -22.5029s6 -7.5 12 -7.5s10 2.5 12 7.5s3 12.5 3 22.5v9c0 4.66699 -0.5 9.83398 -1.5 15.501s-5.16699 12.167 -12.5 19.5
c-7.33301 -7.33301 -11.833 -13.666 -13.5 -18.999s-2.5 -10.666 -2.5 -15.999v-9zM115.002 554.998c0 -9.33301 0.833008 -15.833 2.5 -19.5s6.16699 -9.16699 13.5 -16.5c6.66699 7.33301 10.667 13 12 17s2 10.333 2 19v4c0 8 -1 14.333 -3 19s-6 7 -12 7
s-10 -2.33301 -12 -7s-3 -11 -3 -19v-4z" />
    <glyph glyph-name="ninesuperior" unicode="&#x2079;" horiz-adv-x="260" 
d="M115 391l0.00488281 -6.99805c0 -10 1 -17.5 3 -22.5s6 -7.5 12 -7.5s10 2.5 12 7.5s3 12.5 3 22.5v65c-4 -8.66699 -10.5 -16.667 -19.5 -24s-20.167 -11 -33.5 -11c-21.333 0 -39.5 8.5 -54.5 25.5s-22.5 42.833 -22.5 77.5v31c0 17.333 2.16699 33.666 6.5 48.999
s11.166 28.833 20.499 40.5s21.166 20.834 35.499 27.501s31.833 10 52.5 10s38.167 -3.33301 52.5 -10s26.166 -15.834 35.499 -27.501s16.166 -25.167 20.499 -40.5s6.5 -31.666 6.5 -48.999v-157c0 -17.333 -2 -33.666 -6 -48.999s-10.5 -28.833 -19.5 -40.5
s-20.833 -20.834 -35.5 -27.501s-32.334 -10 -53.001 -10s-38.334 3.5 -53.001 10.5s-26.667 16.167 -36 27.5s-16.166 24.166 -20.499 38.499s-6.5 29.166 -6.5 44.499v6h100zM130.005 585.002c-6 0 -10 -2.5 -12 -7.5s-3 -12.5 -3 -22.5v-22
c0 -8.66699 1.16699 -16.5 3.5 -23.5s6.5 -10.5 12.5 -10.5c5.33301 0 9 3.5 11 10.5s3 14.833 3 23.5v22c0 10 -1 17.5 -3 22.5s-6 7.5 -12 7.5z" />
    <glyph glyph-name="zeroinferior" unicode="&#x2080;" horiz-adv-x="260" 
d="M245 121c0 -17.333 -2 -33.666 -6 -48.999s-10.5 -28.833 -19.5 -40.5s-20.833 -20.834 -35.5 -27.501s-32.334 -10 -53.001 -10s-38.334 3.33301 -53.001 10s-26.667 15.834 -36 27.501s-16.166 25.167 -20.499 40.5s-6.5 31.666 -6.5 48.999v157
c0 17.333 2.16699 33.666 6.5 48.999s11.166 28.833 20.499 40.5s21.333 20.834 36 27.501s32.334 10 53.001 10s38.334 -3.33301 53.001 -10s26.5 -15.834 35.5 -27.501s15.5 -25.167 19.5 -40.5s6 -31.666 6 -48.999v-157zM145 285c0 10 -1 17.5 -3 22.5s-6 7.5 -12 7.5
s-10 -2.5 -12 -7.5s-3 -12.5 -3 -22.5v-171c0 -10 1 -17.5 3 -22.5s6 -7.5 12 -7.5s10 2.5 12 7.5s3 12.5 3 22.5v171z" />
    <glyph glyph-name="oneinferior" unicode="&#x2081;" horiz-adv-x="260" 
d="M120 0v287l-54 -48l-58 78l99 82h113v-399h-100z" />
    <glyph glyph-name="twoinferior" unicode="&#x2082;" horiz-adv-x="260" 
d="M15 271l0.00195312 17.001c0 16 2 31.167 6 45.5s10.667 26.666 20 36.999s21.166 18.666 35.499 24.999s32.166 9.5 53.499 9.5c42 0 71.667 -9.5 89 -28.5s26 -44.167 26 -75.5v-10c0 -35.333 -21.667 -79.666 -65 -132.999l-53 -68h118v-90h-220v98l43 55
c26 33.333 45.333 59.5 58 78.5s19 36.167 19 51.5v4c0 18.667 -5 28 -15 28s-15 -10 -15 -30v-14h-100z" />
    <glyph glyph-name="threeinferior" unicode="&#x2083;" horiz-adv-x="260" 
d="M145 291c0 8 -0.99707 13.999 -2.99707 17.999s-6 6 -12 6s-10 -2.5 -12 -7.5s-3 -12.5 -3 -22.5v-4h-100v7c0 34.667 9.5 62.834 28.5 84.501s48.167 32.5 87.5 32.5c19.333 0 36.166 -2.66699 50.499 -8s26.166 -12.5 35.499 -21.5s16.333 -19 21 -30s7 -22.5 7 -34.5
v-20c0 -18 -3.83301 -33.5 -11.5 -46.5s-17.167 -22.833 -28.5 -29.5v-4c11.333 -7.33301 20.833 -17.666 28.5 -30.999s11.5 -29.333 11.5 -48v-25c0 -33.333 -9.33301 -60.5 -28 -81.5s-47.334 -31.5 -86.001 -31.5s-67.667 10.167 -87 30.5s-29 47.5 -29 81.5v20h100v-12
c0 -10 1 -17.5 3 -22.5s6 -7.5 12 -7.5s10 2.5 12 7.5s3 12.5 3 22.5v16c0 13.333 -1.83301 22.166 -5.5 26.499s-11.167 6.5 -22.5 6.5h-34v86h24c14.667 0 24.667 3 30 9s8 15.333 8 28v5z" />
    <glyph glyph-name="fourinferior" unicode="&#x2084;" horiz-adv-x="260" 
d="M155 61h-140v109l86 229h99l-91 -248h46v57h90v-208h-90v61z" />
    <glyph glyph-name="fiveinferior" unicode="&#x2085;" horiz-adv-x="260" 
d="M15 399l222.001 -0.000976562v-90h-127v-55c11.333 16.667 29.333 25 54 25c10.667 0 21 -2 31 -6s18.667 -10.667 26 -20s13.166 -21.666 17.499 -36.999s6.5 -34.333 6.5 -57v-38c0 -17.333 -2.5 -33.666 -7.5 -48.999s-12.5 -28.833 -22.5 -40.5
s-22.167 -20.834 -36.5 -27.501s-30.833 -10 -49.5 -10c-38 0 -66.5 10.5 -85.5 31.5s-28.5 47.167 -28.5 78.5v25h100v-15c0 -10 1 -17.5 3 -22.5s6 -7.5 12 -7.5c10 0 15 10 15 30v50c0 16.667 -5 25 -15 25s-15 -7.33301 -15 -22h-100v232z" />
    <glyph glyph-name="sixinferior" unicode="&#x2086;" horiz-adv-x="260" 
d="M145 278l0.000976562 7c0 10 -1 17.5 -3 22.5s-6 7.5 -12 7.5s-10 -2.5 -12 -7.5s-3 -12.5 -3 -22.5v-72c4 12 10.667 22 20 30s21.666 12 36.999 12c20.667 0 38 -8.5 52 -25.5s21 -42.833 21 -77.5v-31c0 -17.333 -2 -33.666 -6 -48.999s-10.5 -28.833 -19.5 -40.5
s-20.833 -20.834 -35.5 -27.501s-32.334 -10 -53.001 -10s-38.334 3.33301 -53.001 10s-26.667 15.834 -36 27.501s-16.166 25.167 -20.499 40.5s-6.5 31.666 -6.5 48.999v157c0 17.333 2.16699 33.666 6.5 48.999s11.166 28.833 20.499 40.5s21.333 20.834 36 27.501
s32.334 10 53.001 10s38.334 -3.33301 53.001 -10s26.5 -15.5 35.5 -26.5s15.5 -23.667 19.5 -38s6 -28.833 6 -43.5v-9h-100zM130.001 84c6 0 10 2.5 12 7.5s3 12.5 3 22.5v26c0 10 -1 17.5 -3 22.5s-6 7.5 -12 7.5s-10 -2.5 -12 -7.5s-3 -12.5 -3 -22.5v-26
c0 -10 1 -17.5 3 -22.5s6 -7.5 12 -7.5z" />
    <glyph glyph-name="seveninferior" unicode="&#x2087;" horiz-adv-x="260" 
d="M23 0l122 309h-130v90h230v-103l-117 -296h-105z" />
    <glyph glyph-name="eightinferior" unicode="&#x2088;" horiz-adv-x="260" 
d="M15 301c0 30.667 10.1689 55.668 30.502 75.001s48.833 29 85.5 29c18 0 34.167 -3 48.5 -9s26.333 -13.833 36 -23.5s17 -20.834 22 -33.501s7.5 -25.667 7.5 -39v-8c0 -19.333 -4 -35.166 -12 -47.499s-20.333 -25.166 -37 -38.499
c15.333 -12.667 27.333 -26.5 36 -41.5s13 -34.167 13 -57.5v-9c0 -30.667 -9.16699 -55.667 -27.5 -75s-47.166 -29 -86.499 -29c-19.333 0 -36.333 3 -51 9s-26.834 13.833 -36.501 23.5s-16.834 20.667 -21.501 33s-7 24.833 -7 37.5v10c0 23.333 4.16699 42.5 12.5 57.5
s20.166 28.833 35.499 41.5c-16 13.333 -28 26.166 -36 38.499s-12 28.166 -12 47.499v9zM115.002 114.001c0 -10 1 -17.5029 3 -22.5029s6 -7.5 12 -7.5s10 2.5 12 7.5s3 12.5 3 22.5v9c0 4.66699 -0.5 9.83398 -1.5 15.501s-5.16699 12.167 -12.5 19.5
c-7.33301 -7.33301 -11.833 -13.666 -13.5 -18.999s-2.5 -10.666 -2.5 -15.999v-9zM115.002 284.998c0 -9.33301 0.833008 -15.833 2.5 -19.5s6.16699 -9.16699 13.5 -16.5c6.66699 7.33301 10.667 13 12 17s2 10.333 2 19v4c0 8 -1 14.333 -3 19s-6 7 -12 7
s-10 -2.33301 -12 -7s-3 -11 -3 -19v-4z" />
    <glyph glyph-name="nineinferior" unicode="&#x2089;" horiz-adv-x="260" 
d="M115 121l0.00488281 -6.99805c0 -10 1 -17.5 3 -22.5s6 -7.5 12 -7.5s10 2.5 12 7.5s3 12.5 3 22.5v65c-4 -8.66699 -10.5 -16.667 -19.5 -24s-20.167 -11 -33.5 -11c-21.333 0 -39.5 8.5 -54.5 25.5s-22.5 42.833 -22.5 77.5v31c0 17.333 2.16699 33.666 6.5 48.999
s11.166 28.833 20.499 40.5s21.166 20.834 35.499 27.501s31.833 10 52.5 10s38.167 -3.33301 52.5 -10s26.166 -15.834 35.499 -27.501s16.166 -25.167 20.499 -40.5s6.5 -31.666 6.5 -48.999v-157c0 -17.333 -2 -33.666 -6 -48.999s-10.5 -28.833 -19.5 -40.5
s-20.833 -20.834 -35.5 -27.501s-32.334 -10 -53.001 -10s-38.334 3.5 -53.001 10.5s-26.667 16.167 -36 27.5s-16.166 24.166 -20.499 38.499s-6.5 29.166 -6.5 44.499v6h100zM130.005 315.002c-6 0 -10 -2.5 -12 -7.5s-3 -12.5 -3 -22.5v-22
c0 -8.66699 1.16699 -16.5 3.5 -23.5s6.5 -10.5 12.5 -10.5c5.33301 0 9 3.5 11 10.5s3 14.833 3 23.5v22c0 10 -1 17.5 -3 22.5s-6 7.5 -12 7.5z" />
    <glyph glyph-name="Euro" unicode="&#x20ac;" horiz-adv-x="372" 
d="M224 462l-0.00195312 44.0039c0 15.333 -1.5 29 -4.5 41s-9.16699 18 -18.5 18c-8.66699 0 -14.5 -6.5 -17.5 -19.5s-4.5 -26.167 -4.5 -39.5v-79h116v-80h-116v-30h116v-80h-116v-77c0 -13.333 1.5 -26.5 4.5 -39.5s8.83301 -19.5 17.5 -19.5c9.33301 0 15.5 6 18.5 18
s4.5 25.667 4.5 41v43h121v-4c0 -37.333 -3.16699 -69.333 -9.5 -96s-15.666 -48.334 -27.999 -65.001s-27.5 -28.834 -45.5 -36.501s-38.333 -11.5 -61 -11.5c-48 0 -83.667 15.167 -107 45.5s-35 74.166 -35 131.499v70h-44v80h44v30h-44v80h44v71
c0 57.333 11.667 101.166 35 131.499s59 45.5 107 45.5c46.667 0 82.334 -15.5 107.001 -46.5s37 -82.5 37 -154.5v-12h-121z" />
    <glyph glyph-name="uni2113" unicode="&#x2113;" horiz-adv-x="434" 
d="M10 216c28.667 20.667 54.3271 40.332 76.9941 58.999c2 53.333 9.83301 106 23.5 158s31.334 98.5 53.001 139.5s46.5 74.167 74.5 99.5s57.333 38 88 38c17.333 0 31.333 -3.16699 42 -9.5s19 -14.166 25 -23.499s10.167 -19.833 12.5 -31.5s3.5 -22.5 3.5 -32.5
c0 -63.333 -21 -126.333 -63 -189s-98 -123.667 -168 -183c0 -46 2.83301 -82.667 8.5 -110s14.834 -41 27.501 -41s25.334 8.66699 38.001 26s25.334 39.333 38.001 66l75 -46c-10 -19.333 -20.667 -37.833 -32 -55.5s-23.666 -33.167 -36.999 -46.5
s-27.666 -24 -42.999 -32s-32 -12 -50 -12c-68.667 0 -107 60.333 -115 181l-30 -21zM301.993 609.998c-8 0 -17 -6.83301 -27 -20.5s-20 -31.5 -30 -53.5s-19.667 -47.167 -29 -75.5s-17.333 -57.5 -24 -87.5c44 46 75.833 87.667 95.5 125s29.5 66 29.5 86
c0 17.333 -5 26 -15 26z" />
    <glyph glyph-name="trademark" unicode="&#x2122;" horiz-adv-x="447" 
d="M53 419v191h-38v55h136v-55h-38v-191h-60zM179 419v246h86l32 -122h2l33 122h85v-246h-57v178h-2l-42 -147h-36l-42 147h-2v-178h-57z" />
    <glyph glyph-name="Omega" unicode="&#x2126;" 
d="M312 254c0 -34 -6.16699 -63.667 -18.5 -89s-32.833 -43.666 -61.5 -54.999h80v-110h-134v115c3.33301 7.33301 6 17 8 29s3.5 24.5 4.5 37.5s1.5 25.5 1.5 37.5v29v257c0 15.333 -1.33301 29.166 -4 41.499s-9.33398 18.5 -20.001 18.5s-16.834 -6.16699 -18.501 -18.5
s-2.5 -26.166 -2.5 -41.499v-257v-29c0 -12 0.333008 -24.5 1 -37.5s1.83398 -25.5 3.50098 -37.5s3.83398 -21.667 6.50098 -29v-115h-131v110h80c-26 11.333 -45.833 29.666 -59.5 54.999s-20.5 55 -20.5 89v244c0 57.333 11.5 101.166 34.5 131.499s58.5 45.5 106.5 45.5
s84 -15.167 108 -45.5s36 -74.166 36 -131.499v-244z" />
    <glyph glyph-name="estimated" unicode="&#x212e;" horiz-adv-x="833" 
d="M207 302c-3.33301 0 -5.00195 -1.33203 -5.00195 -3.99902v-176c0 -8 2.66699 -14.667 8 -20c28 -30 60.833 -53.5 98.5 -70.5s78.5 -25.5 122.5 -25.5c46.667 0 89.834 9.66699 129.501 29s73.834 45.333 102.501 78h52c-32.667 -38 -73.667 -68.5 -123 -91.5
s-103.333 -34.5 -162 -34.5c-50 0 -96.833 8.5 -140.5 25.5s-81.667 40.167 -114 69.5s-58 63.666 -77 102.999s-28.5 81.333 -28.5 126s9.5 86.667 28.5 126s44.667 73.666 77 102.999s70.333 52.5 114 69.5s90.5 25.5 140.5 25.5s96.833 -8.5 140.5 -25.5
s81.667 -40.167 114 -69.5s58 -63.666 77 -102.999s28.5 -81.333 28.5 -126v-9h-583zM657.998 503.001c0 8 -3 15 -9 21c-28 28 -60.667 50.333 -98 67s-77.333 25 -120 25c-43.333 0 -83.833 -8.5 -121.5 -25.5s-70.5 -40.167 -98.5 -69.5c-6 -6 -9 -13.333 -9 -22v-174
c0 -3.33301 1.66699 -5 5 -5h447c2.66699 0 4 1.66699 4 5v178z" />
    <glyph glyph-name="onethird" unicode="&#x2153;" horiz-adv-x="678" 
d="M120 270v287l-54 -48l-58 78l99 82h113v-399h-100zM250 0h-100l278 665h100zM563 291c0 8 -0.99707 13.999 -2.99707 17.999s-6 6 -12 6s-10 -2.5 -12 -7.5s-3 -12.5 -3 -22.5v-4h-100v7c0 34.667 9.5 62.834 28.5 84.501s48.167 32.5 87.5 32.5
c19.333 0 36.166 -2.66699 50.499 -8s26.166 -12.5 35.499 -21.5s16.333 -19 21 -30s7 -22.5 7 -34.5v-20c0 -18 -3.83301 -33.5 -11.5 -46.5s-17.167 -22.833 -28.5 -29.5v-4c11.333 -7.33301 20.833 -17.666 28.5 -30.999s11.5 -29.333 11.5 -48v-25
c0 -33.333 -9.33301 -60.5 -28 -81.5s-47.334 -31.5 -86.001 -31.5s-67.667 10.167 -87 30.5s-29 47.5 -29 81.5v20h100v-12c0 -10 1 -17.5 3 -22.5s6 -7.5 12 -7.5s10 2.5 12 7.5s3 12.5 3 22.5v16c0 13.333 -1.83301 22.166 -5.5 26.499s-11.167 6.5 -22.5 6.5h-34v86h24
c14.667 0 24.667 3 30 9s8 15.333 8 28v5z" />
    <glyph glyph-name="twothirds" unicode="&#x2154;" horiz-adv-x="678" 
d="M15 541l0.00195312 17.001c0 16 2 31.167 6 45.5s10.667 26.666 20 36.999s21.166 18.666 35.499 24.999s32.166 9.5 53.499 9.5c42 0 71.667 -9.5 89 -28.5s26 -44.167 26 -75.5v-10c0 -35.333 -21.667 -79.666 -65 -132.999l-53 -68h118v-90h-220v98l43 55
c26 33.333 45.333 59.5 58 78.5s19 36.167 19 51.5v4c0 18.667 -5 28 -15 28s-15 -10 -15 -30v-14h-100zM256.002 0.000976562h-100l278 665h100zM563.002 291.001c0 8 -0.99707 13.999 -2.99707 17.999s-6 6 -12 6s-10 -2.5 -12 -7.5s-3 -12.5 -3 -22.5v-4h-100v7
c0 34.667 9.5 62.834 28.5 84.501s48.167 32.5 87.5 32.5c19.333 0 36.166 -2.66699 50.499 -8s26.166 -12.5 35.499 -21.5s16.333 -19 21 -30s7 -22.5 7 -34.5v-20c0 -18 -3.83301 -33.5 -11.5 -46.5s-17.167 -22.833 -28.5 -29.5v-4
c11.333 -7.33301 20.833 -17.666 28.5 -30.999s11.5 -29.333 11.5 -48v-25c0 -33.333 -9.33301 -60.5 -28 -81.5s-47.334 -31.5 -86.001 -31.5s-67.667 10.167 -87 30.5s-29 47.5 -29 81.5v20h100v-12c0 -10 1 -17.5 3 -22.5s6 -7.5 12 -7.5s10 2.5 12 7.5s3 12.5 3 22.5v16
c0 13.333 -1.83301 22.166 -5.5 26.499s-11.167 6.5 -22.5 6.5h-34v86h24c14.667 0 24.667 3 30 9s8 15.333 8 28v5z" />
    <glyph glyph-name="oneeighth" unicode="&#x215b;" horiz-adv-x="678" 
d="M120 270v287l-54 -48l-58 78l99 82h113v-399h-100zM250 0h-100l278 665h100zM433 301c0 30.667 10.1689 55.668 30.502 75.001s48.833 29 85.5 29c18 0 34.167 -3 48.5 -9s26.333 -13.833 36 -23.5s17 -20.834 22 -33.501s7.5 -25.667 7.5 -39v-8
c0 -19.333 -4 -35.166 -12 -47.499s-20.333 -25.166 -37 -38.499c15.333 -12.667 27.333 -26.5 36 -41.5s13 -34.167 13 -57.5v-9c0 -30.667 -9.16699 -55.667 -27.5 -75s-47.166 -29 -86.499 -29c-19.333 0 -36.333 3 -51 9s-26.834 13.833 -36.501 23.5
s-16.834 20.667 -21.501 33s-7 24.833 -7 37.5v10c0 23.333 4.16699 42.5 12.5 57.5s20.166 28.833 35.499 41.5c-16 13.333 -28 26.166 -36 38.499s-12 28.166 -12 47.499v9zM533.002 114.001c0 -10 1 -17.5029 3 -22.5029s6 -7.5 12 -7.5s10 2.5 12 7.5s3 12.5 3 22.5v9
c0 4.66699 -0.5 9.83398 -1.5 15.501s-5.16699 12.167 -12.5 19.5c-7.33301 -7.33301 -11.833 -13.666 -13.5 -18.999s-2.5 -10.666 -2.5 -15.999v-9zM533.002 284.998c0 -9.33301 0.833008 -15.833 2.5 -19.5s6.16699 -9.16699 13.5 -16.5c6.66699 7.33301 10.667 13 12 17
s2 10.333 2 19v4c0 8 -1 14.333 -3 19s-6 7 -12 7s-10 -2.33301 -12 -7s-3 -11 -3 -19v-4z" />
    <glyph glyph-name="threeeighths" unicode="&#x215c;" horiz-adv-x="678" 
d="M145 561c0 8 -0.99707 13.999 -2.99707 17.999s-6 6 -12 6s-10 -2.5 -12 -7.5s-3 -12.5 -3 -22.5v-4h-100v7c0 34.667 9.5 62.834 28.5 84.501s48.167 32.5 87.5 32.5c19.333 0 36.166 -2.66699 50.499 -8s26.166 -12.5 35.499 -21.5s16.333 -19 21 -30s7 -22.5 7 -34.5
v-20c0 -18 -3.83301 -33.5 -11.5 -46.5s-17.167 -22.833 -28.5 -29.5v-4c11.333 -7.33301 20.833 -17.666 28.5 -30.999s11.5 -29.333 11.5 -48v-25c0 -33.333 -9.33301 -60.5 -28 -81.5s-47.334 -31.5 -86.001 -31.5s-67.667 10.167 -87 30.5s-29 47.5 -29 81.5v20h100v-12
c0 -10 1 -17.5 3 -22.5s6 -7.5 12 -7.5s10 2.5 12 7.5s3 12.5 3 22.5v16c0 13.333 -1.83301 22.166 -5.5 26.499s-11.167 6.5 -22.5 6.5h-34v86h24c14.667 0 24.667 3 30 9s8 15.333 8 28v5zM250.003 -0.000976562h-100l278 665h100zM433.003 300.999
c0 30.667 10.1689 55.668 30.502 75.001s48.833 29 85.5 29c18 0 34.167 -3 48.5 -9s26.333 -13.833 36 -23.5s17 -20.834 22 -33.501s7.5 -25.667 7.5 -39v-8c0 -19.333 -4 -35.166 -12 -47.499s-20.333 -25.166 -37 -38.499c15.333 -12.667 27.333 -26.5 36 -41.5
s13 -34.167 13 -57.5v-9c0 -30.667 -9.16699 -55.667 -27.5 -75s-47.166 -29 -86.499 -29c-19.333 0 -36.333 3 -51 9s-26.834 13.833 -36.501 23.5s-16.834 20.667 -21.501 33s-7 24.833 -7 37.5v10c0 23.333 4.16699 42.5 12.5 57.5s20.166 28.833 35.499 41.5
c-16 13.333 -28 26.166 -36 38.499s-12 28.166 -12 47.499v9zM533.005 114c0 -10 1 -17.5029 3 -22.5029s6 -7.5 12 -7.5s10 2.5 12 7.5s3 12.5 3 22.5v9c0 4.66699 -0.5 9.83398 -1.5 15.501s-5.16699 12.167 -12.5 19.5c-7.33301 -7.33301 -11.833 -13.666 -13.5 -18.999
s-2.5 -10.666 -2.5 -15.999v-9zM533.005 284.997c0 -9.33301 0.833008 -15.833 2.5 -19.5s6.16699 -9.16699 13.5 -16.5c6.66699 7.33301 10.667 13 12 17s2 10.333 2 19v4c0 8 -1 14.333 -3 19s-6 7 -12 7s-10 -2.33301 -12 -7s-3 -11 -3 -19v-4z" />
    <glyph glyph-name="fiveeighths" unicode="&#x215d;" horiz-adv-x="678" 
d="M15 669l222.001 -0.000976562v-90h-127v-55c11.333 16.667 29.333 25 54 25c10.667 0 21 -2 31 -6s18.667 -10.667 26 -20s13.166 -21.666 17.499 -36.999s6.5 -34.333 6.5 -57v-38c0 -17.333 -2.5 -33.666 -7.5 -48.999s-12.5 -28.833 -22.5 -40.5
s-22.167 -20.834 -36.5 -27.501s-30.833 -10 -49.5 -10c-38 0 -66.5 10.5 -85.5 31.5s-28.5 47.167 -28.5 78.5v25h100v-15c0 -10 1 -17.5 3 -22.5s6 -7.5 12 -7.5c10 0 15 10 15 30v50c0 16.667 -5 25 -15 25s-15 -7.33301 -15 -22h-100v232zM250.001 -0.000976562h-100
l278 665h100zM433.001 300.999c0 30.667 10.1689 55.668 30.502 75.001s48.833 29 85.5 29c18 0 34.167 -3 48.5 -9s26.333 -13.833 36 -23.5s17 -20.834 22 -33.501s7.5 -25.667 7.5 -39v-8c0 -19.333 -4 -35.166 -12 -47.499s-20.333 -25.166 -37 -38.499
c15.333 -12.667 27.333 -26.5 36 -41.5s13 -34.167 13 -57.5v-9c0 -30.667 -9.16699 -55.667 -27.5 -75s-47.166 -29 -86.499 -29c-19.333 0 -36.333 3 -51 9s-26.834 13.833 -36.501 23.5s-16.834 20.667 -21.501 33s-7 24.833 -7 37.5v10c0 23.333 4.16699 42.5 12.5 57.5
s20.166 28.833 35.499 41.5c-16 13.333 -28 26.166 -36 38.499s-12 28.166 -12 47.499v9zM533.003 114c0 -10 1 -17.5029 3 -22.5029s6 -7.5 12 -7.5s10 2.5 12 7.5s3 12.5 3 22.5v9c0 4.66699 -0.5 9.83398 -1.5 15.501s-5.16699 12.167 -12.5 19.5
c-7.33301 -7.33301 -11.833 -13.666 -13.5 -18.999s-2.5 -10.666 -2.5 -15.999v-9zM533.003 284.997c0 -9.33301 0.833008 -15.833 2.5 -19.5s6.16699 -9.16699 13.5 -16.5c6.66699 7.33301 10.667 13 12 17s2 10.333 2 19v4c0 8 -1 14.333 -3 19s-6 7 -12 7
s-10 -2.33301 -12 -7s-3 -11 -3 -19v-4z" />
    <glyph glyph-name="seveneighths" unicode="&#x215e;" horiz-adv-x="678" 
d="M23 270l122 309h-130v90h230v-103l-117 -296h-105zM220 0h-100l278 665h100zM433 301c0 30.667 10.1689 55.668 30.502 75.001s48.833 29 85.5 29c18 0 34.167 -3 48.5 -9s26.333 -13.833 36 -23.5s17 -20.834 22 -33.501s7.5 -25.667 7.5 -39v-8
c0 -19.333 -4 -35.166 -12 -47.499s-20.333 -25.166 -37 -38.499c15.333 -12.667 27.333 -26.5 36 -41.5s13 -34.167 13 -57.5v-9c0 -30.667 -9.16699 -55.667 -27.5 -75s-47.166 -29 -86.499 -29c-19.333 0 -36.333 3 -51 9s-26.834 13.833 -36.501 23.5
s-16.834 20.667 -21.501 33s-7 24.833 -7 37.5v10c0 23.333 4.16699 42.5 12.5 57.5s20.166 28.833 35.499 41.5c-16 13.333 -28 26.166 -36 38.499s-12 28.166 -12 47.499v9zM533.002 114.001c0 -10 1 -17.5029 3 -22.5029s6 -7.5 12 -7.5s10 2.5 12 7.5s3 12.5 3 22.5v9
c0 4.66699 -0.5 9.83398 -1.5 15.501s-5.16699 12.167 -12.5 19.5c-7.33301 -7.33301 -11.833 -13.666 -13.5 -18.999s-2.5 -10.666 -2.5 -15.999v-9zM533.002 284.998c0 -9.33301 0.833008 -15.833 2.5 -19.5s6.16699 -9.16699 13.5 -16.5c6.66699 7.33301 10.667 13 12 17
s2 10.333 2 19v4c0 8 -1 14.333 -3 19s-6 7 -12 7s-10 -2.33301 -12 -7s-3 -11 -3 -19v-4z" />
    <glyph glyph-name="partialdiff" unicode="&#x2202;" horiz-adv-x="343" 
d="M27 487v7c0 23.333 3.16699 45.833 9.5 67.5s15.333 41 27 58s25.834 30.5 42.501 40.5s35.667 15 57 15c28.667 0 52.667 -6.5 72 -19.5s35 -33 47 -60s20.667 -61.667 26 -104s8 -92.5 8 -150.5c0 -67.333 -3.83301 -123.5 -11.5 -168.5s-18.167 -81 -31.5 -108
s-29.333 -46.167 -48 -57.5s-39.334 -17 -62.001 -17c-18 0 -35.167 3.5 -51.5 10.5s-30.666 18.667 -42.999 35s-22.333 38 -30 65s-11.5 60.167 -11.5 99.5c0 40.667 3.33301 75.167 10 103.5s15.5 51.5 26.5 69.5s23.5 31 37.5 39s28.667 12 44 12
c14.667 0 26.5 -2.66699 35.5 -8s17.167 -14.333 24.5 -27c-1.33301 40.667 -3.33301 72.667 -6 96s-5.83398 41 -9.50098 53s-7.66699 19.5 -12 22.5s-8.5 4.5 -12.5 4.5c-6 0 -10.833 -2.16699 -14.5 -6.5s-6.5 -10 -8.5 -17s-3.33301 -14.667 -4 -23s-1 -16.833 -1 -25.5
v-6h-110zM170 100c12 0 19.832 15.001 23.499 45.001s5.5 75.333 5.5 136c-2 9.33301 -4.66699 17.166 -8 23.499s-8.66602 9.5 -15.999 9.5c-10 0 -17.167 -8.16699 -21.5 -24.5s-6.5 -42.5 -6.5 -78.5c0 -32 1 -58.5 3 -79.5s8.66699 -31.5 20 -31.5z" />
    <glyph glyph-name="Delta" unicode="&#x2206;" horiz-adv-x="312" 
d="M200 110l-44 325l-44 -325h88zM115 665h82l105 -539v-126h-292v126z" />
    <glyph glyph-name="product" unicode="&#x220f;" horiz-adv-x="445" 
d="M370 -80h-120v635h-55v-635h-120v635h-55v110h405v-110h-55v-635z" />
    <glyph glyph-name="summation" unicode="&#x2211;" horiz-adv-x="275" 
d="M260 30v-110h-240v131l98 241l-98 243v130h240v-110h-123l83 -208v-110l-83 -207h123z" />
    <glyph glyph-name="minus" unicode="&#x2212;" horiz-adv-x="330" 
d="M30 356h270v-110h-270v110z" />
    <glyph glyph-name="uni2215" unicode="&#x2215;" horiz-adv-x="158" 
d="M-10 0h-100l278 665h100z" />
    <glyph glyph-name="radical" unicode="&#x221a;" horiz-adv-x="357" 
d="M149 0l-68 253l-44 -14l-27 95l136 44l45 -208l56 495h100l-91 -665h-107z" />
    <glyph glyph-name="infinity" unicode="&#x221e;" horiz-adv-x="496" 
d="M248 276c-10.667 -12 -20.667 -21.5 -30 -28.5s-18.333 -12.333 -27 -16s-17.167 -5.83398 -25.5 -6.50098s-16.833 -1 -25.5 -1h-18c-12 0 -24.667 1.66699 -38 5s-25.5 9.16602 -36.5 17.499s-20 19.5 -27 33.5s-10.5 31.333 -10.5 52s3.5 38 10.5 52
s16 25.167 27 33.5s23.167 14.166 36.5 17.499s26 5 38 5h18c8.66699 0 17.167 -0.333008 25.5 -1s16.833 -2.66699 25.5 -6s17.667 -8.5 27 -15.5s19.333 -16.833 30 -29.5c10.667 12.667 20.667 22.5 30 29.5s18.333 12.167 27 15.5s17.167 5.33301 25.5 6
s16.833 1 25.5 1h18c12 0 24.667 -1.66699 38 -5s25.5 -9.16602 36.5 -17.499s20 -19.5 27 -33.5s10.5 -31.333 10.5 -52s-3.5 -38 -10.5 -52s-16 -25.167 -27 -33.5s-23.167 -14.166 -36.5 -17.499s-26 -5 -38 -5h-18c-8.66699 0 -17.167 0.333008 -25.5 1
s-16.833 2.83398 -25.5 6.50098s-17.667 9 -27 16s-19.333 16.5 -30 28.5zM136 296c6 0 11.001 0.329102 15.001 0.996094s8 2.33398 12 5.00098s8.16699 6.33398 12.5 11.001s9.83301 11 16.5 19c-6.66699 8 -12.334 14.333 -17.001 19s-9 8.33398 -13 11.001
s-8 4.33398 -12 5.00098s-8.66699 1 -14 1h-6c-9.33301 0 -17.5 -3 -24.5 -9s-10.5 -15 -10.5 -27s3.5 -21 10.5 -27s15.167 -9 24.5 -9h6zM366.001 293.996c9.33301 0 17.666 3 24.999 9s11 15.333 11 28s-3.66699 22 -11 28s-15.666 9 -24.999 9h-6
c-10.667 0 -19.667 -2 -27 -6s-17.333 -14.333 -30 -31c12.667 -16.667 22.5 -27 29.5 -31s16.167 -6 27.5 -6h6z" />
    <glyph glyph-name="integral" unicode="&#x222b;" horiz-adv-x="267" 
d="M247 575c-15.333 0 -27.833 -5.33203 -37.5 -15.999s-14.5 -30 -14.5 -58v-325c0 -62.667 -15.667 -109.334 -47 -140.001s-74 -46 -128 -46v100c16 0 28.667 6.16699 38 18.5s14 28.833 14 49.5v331c0 124 58.333 186 175 186v-100z" />
    <glyph glyph-name="approxequal" unicode="&#x2248;" horiz-adv-x="330" 
d="M320 289c0 -53.333 -7.16504 -92.333 -21.498 -117s-35.5 -37 -63.5 -37c-20.667 0 -40 4.33301 -58 13c-8.66699 4 -16.834 8.33301 -24.501 13s-15.167 7 -22.5 7c-6 0 -10.833 -3.16699 -14.5 -9.5s-5.5 -14.166 -5.5 -23.499h-100c0 26.667 2.5 49.667 7.5 69
s11.833 35.333 20.5 48s18.5 22 29.5 28s22.167 9 33.5 9c9.33301 0 17.833 -1 25.5 -3s16.5 -5.66699 26.5 -11l23.5 -13.5c9.66699 -5.66699 18.167 -8.5 25.5 -8.5c5.33301 0 9.66602 2.66699 12.999 8s5 14.666 5 27.999h100zM320.002 465
c0 -53.333 -7.16504 -92.333 -21.498 -117s-35.5 -37 -63.5 -37c-20.667 0 -40 4.33301 -58 13c-8.66699 4 -16.834 8.33301 -24.501 13s-15.167 7 -22.5 7c-6 0 -10.833 -3.16699 -14.5 -9.5s-5.5 -14.166 -5.5 -23.499h-100c0 26.667 2.5 49.667 7.5 69
s11.833 35.333 20.5 48s18.5 22 29.5 28s22.167 9 33.5 9c9.33301 0 17.833 -1 25.5 -3s16.5 -5.66699 26.5 -11l23.5 -13.5c9.66699 -5.66699 18.167 -8.5 25.5 -8.5c5.33301 0 9.66602 2.66699 12.999 8s5 14.666 5 27.999h100z" />
    <glyph glyph-name="notequal" unicode="&#x2260;" horiz-adv-x="330" 
d="M30 433h121l24 80h105l-24 -80h44v-110h-77l-12 -42h89v-110h-122l-23 -80h-105l23 80h-43v110h76l12 42h-88v110z" />
    <glyph glyph-name="lessequal" unicode="&#x2264;" horiz-adv-x="330" 
d="M30 427l270 90v-120l-125 -20l125 -20v-120l-270 90v100zM30 226h270v-110h-270v110z" />
    <glyph glyph-name="greaterequal" unicode="&#x2265;" horiz-adv-x="330" 
d="M300 327l-270 -90v120l125 20l-125 20v120l270 -90v-100zM30 226h270v-110h-270v110z" />
    <glyph glyph-name="lozenge" unicode="&#x25ca;" horiz-adv-x="272" 
d="M136 170l37 162l-37 162l-37 -162zM90 612h92l90 -280l-90 -280h-92l-90 280z" />
    <glyph glyph-name="heart" unicode="&#x2665;" horiz-adv-x="602" 
d="M305 435c10.667 19.333 24.498 35 41.498 47s35.833 18 56.5 18c28.667 0 52.334 -9.83301 71.001 -29.5s28 -44.834 28 -75.501c0 -20 -4.5 -41.667 -13.5 -65s-22 -46.666 -39 -69.999s-38 -45.833 -63 -67.5s-53.5 -40.834 -85.5 -57.501
c-32 16.667 -60.5 35.834 -85.5 57.501s-46 44.167 -63 67.5s-30 46.666 -39 69.999s-13.5 45 -13.5 65c0 30.667 9.33301 55.834 28 75.501s42.334 29.5 71.001 29.5c20.667 0 39.5 -6 56.5 -18s30.833 -27.667 41.5 -47h8z" />
    <glyph glyph-name="zeroslash" unicode="&#xe01a;" 
d="M312 167c0 -57.333 -12 -101.166 -36 -131.499s-60 -45.5 -108 -45.5s-83.5 15.167 -106.5 45.5s-34.5 74.166 -34.5 131.499v331c0 57.333 11.667 101.166 35 131.499s59 45.5 107 45.5s83.833 -15.167 107.5 -45.5s35.5 -74.166 35.5 -131.499v-331zM147 343l45 133v29
c0 15.333 -1.16699 29.166 -3.5 41.499s-8.83301 18.5 -19.5 18.5s-17 -6.16699 -19 -18.5s-3 -26.166 -3 -41.499v-162zM192 313l-45.002 -133v-19c0 -15.333 0.833008 -29.166 2.5 -41.499s7.83398 -18.5 18.501 -18.5s17.334 6.16699 20.001 18.5s4 26.166 4 41.499v152z
" />
    <glyph glyph-name="numbersign.plf" unicode="&#xe020;" horiz-adv-x="523" 
d="M86 500h76l43 165h105l-43 -165h73l43 165h105l-43 -165h51v-95h-76l-35 -135h51v-95h-76l-45 -175h-105l45 175h-73l-45 -175h-105l45 175h-51v95h76l35 135h-51v95zM207 270h73l35 135h-73z" />
    <glyph glyph-name="Euro.plf" unicode="&#xe021;" horiz-adv-x="372" 
d="M224 462l-0.00195312 44.0039c0 15.333 -1.5 29 -4.5 41s-9.16699 18 -18.5 18c-8.66699 0 -14.5 -6.5 -17.5 -19.5s-4.5 -26.167 -4.5 -39.5v-79h116v-80h-116v-30h116v-80h-116v-77c0 -13.333 1.5 -26.5 4.5 -39.5s8.83301 -19.5 17.5 -19.5c9.33301 0 15.5 6 18.5 18
s4.5 25.667 4.5 41v43h121v-4c0 -37.333 -3.16699 -69.333 -9.5 -96s-15.666 -48.334 -27.999 -65.001s-27.5 -28.834 -45.5 -36.501s-38.333 -11.5 -61 -11.5c-48 0 -83.667 15.167 -107 45.5s-35 74.166 -35 131.499v70h-44v80h44v30h-44v80h44v71
c0 57.333 11.667 101.166 35 131.499s59 45.5 107 45.5c46.667 0 82.334 -15.5 107.001 -46.5s37 -82.5 37 -154.5v-12h-121z" />
    <glyph glyph-name="dollar.plf" unicode="&#xe022;" horiz-adv-x="332" 
d="M27 511c0 32 6.33301 61.5 19 88.5s33 47.5 61 61.5v69h120v-65c25.333 -10 44.666 -28.667 57.999 -56s20 -66 20 -116v-41h-120v53c0 15.333 -1.33301 29.166 -4 41.499s-7.66699 18.5 -15 18.5c-8 0 -12.667 -6.16699 -14 -18.5s-2 -26.166 -2 -41.499
c0 -10 0.333008 -19 1 -27s2.33398 -16 5.00098 -24s7 -16.167 13 -24.5s14.667 -17.166 26 -26.499c16.667 -14.667 31.834 -29.334 45.501 -44.001s25.167 -30.667 34.5 -48s16.666 -36.666 21.999 -57.999s8 -46 8 -74v-25c0 -30.667 -6 -60.334 -18 -89.001
s-32 -49.667 -60 -63v-67h-120v68c-28 12.667 -48.333 34 -61 64s-19 66.333 -19 109v37h123v-53c0 -7.33301 0.166992 -14.666 0.5 -21.999s1 -13.833 2 -19.5s2.66699 -10.167 5 -13.5s5.83301 -5 10.5 -5c7.33301 0 12 6.16699 14 18.5s3 26.166 3 41.499
c0 32.667 -3.83301 58.5 -11.5 77.5s-19.5 36.167 -35.5 51.5l-43 42c-13.333 13.333 -25 27 -35 41s-18 28.667 -24 44s-9 32.333 -9 51v44z" />
    <glyph glyph-name="yen.plf" unicode="&#xe023;" horiz-adv-x="385" 
d="M52 340h62l-94 325h124l46 -258h4l47 258h124l-101 -325h68v-80h-80v-30h80v-80h-80v-150h-120v150h-80v80h80v30h-80v80z" />
    <glyph glyph-name="sterling.plf" unicode="&#xe024;" horiz-adv-x="376" 
d="M30 336l39.999 0.000976562v162c0 57.333 11.667 101.166 35 131.499s59 45.5 107 45.5c46.667 0 82.334 -15.5 107.001 -46.5s37 -82.5 37 -154.5v-22h-121v59c0 15.333 -1.5 28.166 -4.5 38.499s-9.16699 15.5 -18.5 15.5c-8.66699 0 -14.5 -5.66699 -17.5 -17
s-4.5 -23.666 -4.5 -36.999v-175h91v-110h-91v-116h166v-110h-326v110h40v116h-40v110z" />
    <glyph glyph-name="cent.plf" unicode="&#xe025;" horiz-adv-x="311" 
d="M95 -65v67c-25.333 11.333 -43.833 30.5 -55.5 57.5s-17.5 61.167 -17.5 102.5v196c0 40.667 5.83301 74.5 17.5 101.5s30.167 46.167 55.5 57.5v68h120v-65c27.333 -11.333 46.833 -30.666 58.5 -57.999s17.5 -62 17.5 -104v-56h-115v25c0 34.667 -0.5 60.5 -1.5 77.5
s-6.16699 25.5 -15.5 25.5c-11.333 0 -17 -17.667 -17 -53v-234c0 -35.333 5.66699 -53 17 -53c9.33301 0 14.5 8.33301 15.5 25s1.5 42.667 1.5 78v25h115v-56c0 -42.667 -5.83301 -77.834 -17.5 -105.501s-31.167 -46.5 -58.5 -56.5v-65h-120z" />
    <glyph glyph-name="florin.plf" unicode="&#xe026;" horiz-adv-x="395" 
d="M259 176c0 -62.667 -12.999 -109.334 -38.999 -140.001s-61 -46 -105 -46c-28.667 0 -51 4.83301 -67 14.5s-30.333 21.5 -43 35.5l70 70c3.33301 -5.33301 7.5 -10 12.5 -14s10.5 -6 16.5 -6c11.333 0 19.5 6.16699 24.5 18.5s7.5 28.833 7.5 49.5v331
c0 60.667 11.833 106.834 35.5 138.501s58.167 47.5 103.5 47.5c31.333 0 55.166 -4.83301 71.499 -14.5s30.833 -21.5 43.5 -35.5l-68 -72c-3.33301 5.33301 -7.5 10.333 -12.5 15s-11.167 7 -18.5 7c-11.333 0 -19.5 -6 -24.5 -18s-7.5 -27.333 -7.5 -46v-116h76v-100h-76
v-119z" />
    <glyph glyph-name="zero.plf" unicode="&#xe027;" 
d="M312 167c0 -57.333 -12 -101.166 -36 -131.499s-60 -45.5 -108 -45.5s-83.5 15.167 -106.5 45.5s-34.5 74.166 -34.5 131.499v331c0 57.333 11.667 101.166 35 131.499s59 45.5 107 45.5s83.833 -15.167 107.5 -45.5s35.5 -74.166 35.5 -131.499v-331zM192 505
c0 15.333 -1.16895 29.166 -3.50195 41.499s-8.83301 18.5 -19.5 18.5s-17 -6.16699 -19 -18.5s-3 -26.166 -3 -41.499v-344c0 -15.333 0.833008 -29.166 2.5 -41.499s7.83398 -18.5 18.501 -18.5s17.334 6.16699 20.001 18.5s4 26.166 4 41.499v344z" />
    <glyph glyph-name="one.plf" unicode="&#xe028;" horiz-adv-x="316" 
d="M151 0v534l-71 -81l-75 80l126 132h140v-665h-120z" />
    <glyph glyph-name="two.plf" unicode="&#xe029;" horiz-adv-x="338" 
d="M25 477l-0.00195312 29c0 54.667 12.333 96.5 37 125.5s60.667 43.5 108 43.5c51.333 0 88 -14.333 110 -43s33 -71.334 33 -128.001v-24c0 -30 -7 -61.667 -21 -95s-31 -68 -51 -104l-96 -171h168v-110h-288v123l76 132c17.333 30 31.833 56 43.5 78
s21.167 41.667 28.5 59s12.5 33 15.5 47s4.5 28.333 4.5 43v18c0 20.667 -1.66699 36.667 -5 48s-9.66602 17 -18.999 17s-15.666 -4.66699 -18.999 -14s-5 -23.666 -5 -42.999v-31h-120z" />
    <glyph glyph-name="three.plf" unicode="&#xe02a;" horiz-adv-x="335" 
d="M188 504c0 14 -1.49902 27.499 -4.49902 40.499s-9.5 19.5 -19.5 19.5c-10.667 0 -17.334 -6.16699 -20.001 -18.5s-4 -26.166 -4 -41.499v-22h-120v16c0 57.333 12 101.166 36 131.499s60 45.5 108 45.5c24 0 45 -3.66699 63 -11s33 -17.166 45 -29.499s21 -27 27 -44
s9 -35.5 9 -55.5v-51c0 -30.667 -6.16699 -56.5 -18.5 -77.5s-27.833 -37.167 -46.5 -48.5v-6c18 -11.333 33.333 -28.5 46 -51.5s19 -49.833 19 -80.5v-75c0 -27.333 -4.16699 -50.833 -12.5 -70.5s-19.333 -35.667 -33 -48s-29 -21.333 -46 -27s-34.5 -8.5 -52.5 -8.5
c-96 0 -144 55.667 -144 167v26h120v-23c0 -6.66699 0.166992 -13.5 0.5 -20.5s1.33301 -13.5 3 -19.5s4.16699 -10.833 7.5 -14.5s7.66602 -5.5 12.999 -5.5s9.5 1.83301 12.5 5.5s5.33301 8.5 7 14.5s2.83398 12.5 3.50098 19.5s1 13.833 1 20.5v59
c0 26 -4.83301 45.333 -14.5 58s-28.167 19 -55.5 19h-22v110h22c27.333 0 45.833 6.16699 55.5 18.5s14.5 31.833 14.5 58.5v20z" />
    <glyph glyph-name="four.plf" unicode="&#xe02b;" horiz-adv-x="345" 
d="M195 137h-175v130l121 398h120l-128 -418h62v83h120v-330h-120v137z" />
    <glyph glyph-name="five.plf" unicode="&#xe02c;" horiz-adv-x="342" 
d="M27 665h288.001v-114h-168v-109c6.66699 9.33301 14.667 17 24 23s21.666 9 36.999 9c38.667 0 66.167 -14.5 82.5 -43.5s24.5 -77.167 24.5 -144.5v-119c0 -57.333 -12 -101.166 -36 -131.499s-60.333 -45.5 -109 -45.5c-48 0 -83.833 14.667 -107.5 44
s-35.5 70 -35.5 122v28h120v-24c0 -15.333 1.16699 -29.166 3.5 -41.499s8.83301 -18.5 19.5 -18.5s17.5 6.16699 20.5 18.5s4.5 26.166 4.5 41.499v144c0 15.333 -1.5 29.166 -4.5 41.499s-9.83301 18.5 -20.5 18.5s-17.167 -6.66699 -19.5 -20s-3.5 -29 -3.5 -47h-120v368
z" />
    <glyph glyph-name="six.plf" unicode="&#xe02d;" horiz-adv-x="342" 
d="M195 467l0.000976562 37.999c0 15.333 -1.5 29.166 -4.5 41.499s-9.83301 18.5 -20.5 18.5s-17.167 -6.16699 -19.5 -18.5s-3.5 -26.166 -3.5 -41.499v-132c6.66699 14.667 15.5 26.834 26.5 36.501s26.833 14.5 47.5 14.5c62.667 0 94 -56.667 94 -170v-87
c0 -57.333 -11.833 -101.166 -35.5 -131.499s-59.834 -45.5 -108.501 -45.5s-84.834 15.167 -108.501 45.5s-35.5 74.166 -35.5 131.499v331c0 58 12 102 36 132s60 45 108 45c48.667 0 84.834 -13.5 108.501 -40.5s35.5 -72.5 35.5 -136.5v-31h-120zM170.001 99.999
c10.667 0 17.5 6.16699 20.5 18.5s4.5 26.166 4.5 41.499v94c0 15.333 -1.66699 29.166 -5 41.499s-10 18.5 -20 18.5s-16.333 -6.16699 -19 -18.5s-4 -26.166 -4 -41.499v-94c0 -15.333 1.16699 -29.166 3.5 -41.499s8.83301 -18.5 19.5 -18.5z" />
    <glyph glyph-name="seven.plf" unicode="&#xe02e;" horiz-adv-x="323" 
d="M32 0l158 551h-170v114h278v-130l-146 -535h-120z" />
    <glyph glyph-name="eight.plf" unicode="&#xe02f;" horiz-adv-x="342" 
d="M27 520c0 50 11.833 88.333 35.5 115s59.834 40 108.501 40s84.834 -12.167 108.501 -36.5s35.5 -58.5 35.5 -102.5v-49c0 -32.667 -5.5 -59.5 -16.5 -80.5s-29.167 -42.167 -54.5 -63.5c23.333 -21.333 41 -44.333 53 -69s18 -56.667 18 -96v-33
c0 -50 -13 -88.333 -39 -115s-61 -40 -105 -40c-46 0 -81.5 12.5 -106.5 37.5s-37.5 58.833 -37.5 101.5v49c0 39.333 5.66699 71.333 17 96s28.666 47.667 51.999 69c-24.667 21.333 -42.334 42.5 -53.001 63.5s-16 47.833 -16 80.5v33zM147 160
c0 -15.333 1.33105 -29.167 3.99805 -41.5s9.33398 -18.5 20.001 -18.5s17.334 6.16699 20.001 18.5s4 26.166 4 41.499v47c0 9.33301 -1 19.333 -3 30s-9 22.334 -21 35.001c-12 -12 -19 -23 -21 -33s-3 -20.667 -3 -32v-47zM146.998 491.999
c0 -15.333 1.00195 -28.666 3.00195 -39.999s9 -23 21 -35c12 12 19 23.667 21 35s3 24.666 3 39.999v13c0 15.333 -1.33301 29.166 -4 41.499s-9.33398 18.5 -20.001 18.5s-17.334 -6.16699 -20.001 -18.5s-4 -26.166 -4 -41.499v-13z" />
    <glyph glyph-name="nine.plf" unicode="&#xe030;" horiz-adv-x="342" 
d="M150 198l-0.00488281 -37.998c0 -15.333 0.833008 -29.166 2.5 -41.499s7.83398 -18.5 18.501 -18.5s17.334 6.16699 20.001 18.5s4 26.166 4 41.499v132c-6.66699 -14.667 -15.5 -26.834 -26.5 -36.501s-26.833 -14.5 -47.5 -14.5c-62.667 0 -94 56.667 -94 170v87
c0 57.333 11.833 101.166 35.5 131.499s59.834 45.5 108.501 45.5s84.834 -15.167 108.501 -45.5s35.5 -74.166 35.5 -131.499v-331c0 -58 -12 -102 -36 -132s-60 -45 -108 -45c-49.333 0 -85.666 13.667 -108.999 41s-35 71.666 -35 132.999v34h123zM171.995 565.002
c-10.667 0 -17 -6.16699 -19 -18.5s-3 -26.166 -3 -41.499v-94c0 -15.333 1.16699 -29.166 3.5 -41.499s8.5 -18.5 18.5 -18.5s16.333 6.16699 19 18.5s4 26.166 4 41.499v94c0 15.333 -1.16699 29.166 -3.5 41.499s-8.83301 18.5 -19.5 18.5z" />
    <glyph glyph-name="zeroslash.plf" unicode="&#xe031;" 
d="M312 167c0 -57.333 -12 -101.166 -36 -131.499s-60 -45.5 -108 -45.5s-83.5 15.167 -106.5 45.5s-34.5 74.166 -34.5 131.499v331c0 57.333 11.667 101.166 35 131.499s59 45.5 107 45.5s83.833 -15.167 107.5 -45.5s35.5 -74.166 35.5 -131.499v-331zM147 343l45 133v29
c0 15.333 -1.16699 29.166 -3.5 41.499s-8.83301 18.5 -19.5 18.5s-17 -6.16699 -19 -18.5s-3 -26.166 -3 -41.499v-162zM192 313l-45.002 -133v-19c0 -15.333 0.833008 -29.166 2.5 -41.499s7.83398 -18.5 18.501 -18.5s17.334 6.16699 20.001 18.5s4 26.166 4 41.499v152z
" />
    <glyph glyph-name="numbersign.tlf" unicode="&#xe032;" 
d="M32 500h52l28 165h90l-28 -165h38l28 165h90l-28 -165h44v-95h-61l-23 -135h44v-95h-61l-29 -175h-90l29 175h-38l-29 -175h-89l28 175h-35v95h52l23 135h-35v95zM134 270h38l23 135h-38z" />
    <glyph glyph-name="Euro.tlf" unicode="&#xe033;" 
d="M211 462l-0.00195312 44.0039c0 15.333 -1.5 29 -4.5 41s-9.16699 18 -18.5 18c-8.66699 0 -14.5 -6.5 -17.5 -19.5s-4.5 -26.167 -4.5 -39.5v-79h116v-80h-116v-30h116v-80h-116v-77c0 -13.333 1.5 -26.5 4.5 -39.5s8.83301 -19.5 17.5 -19.5c9.33301 0 15.5 6 18.5 18
s4.5 25.667 4.5 41v43h121v-4c0 -37.333 -3.16699 -69.333 -9.5 -96s-15.666 -48.334 -27.999 -65.001s-27.5 -28.834 -45.5 -36.501s-38.333 -11.5 -61 -11.5c-48 0 -83.667 15.167 -107 45.5s-35 74.166 -35 131.499v70h-44v80h44v30h-44v80h44v71
c0 57.333 11.667 101.166 35 131.499s59 45.5 107 45.5c46.667 0 82.334 -15.5 107.001 -46.5s37 -82.5 37 -154.5v-12h-121z" />
    <glyph glyph-name="dollar.tlf" unicode="&#xe034;" 
d="M30 511c0 32 6.33301 61.5 19 88.5s33 47.5 61 61.5v69h120v-65c25.333 -10 44.666 -28.667 57.999 -56s20 -66 20 -116v-41h-120v53c0 15.333 -1.33301 29.166 -4 41.499s-7.66699 18.5 -15 18.5c-8 0 -12.667 -6.16699 -14 -18.5s-2 -26.166 -2 -41.499
c0 -10 0.333008 -19 1 -27s2.33398 -16 5.00098 -24s7 -16.167 13 -24.5s14.667 -17.166 26 -26.499c16.667 -14.667 31.834 -29.334 45.501 -44.001s25.167 -30.667 34.5 -48s16.666 -36.666 21.999 -57.999s8 -46 8 -74v-25c0 -30.667 -6 -60.334 -18 -89.001
s-32 -49.667 -60 -63v-67h-120v68c-28 12.667 -48.333 34 -61 64s-19 66.333 -19 109v37h123v-53c0 -7.33301 0.166992 -14.666 0.5 -21.999s1 -13.833 2 -19.5s2.66699 -10.167 5 -13.5s5.83301 -5 10.5 -5c7.33301 0 12 6.16699 14 18.5s3 26.166 3 41.499
c0 32.667 -3.83301 58.5 -11.5 77.5s-19.5 36.167 -35.5 51.5l-43 42c-13.333 13.333 -25 27 -35 41s-18 28.667 -24 44s-9 32.333 -9 51v44z" />
    <glyph glyph-name="yen.tlf" unicode="&#xe035;" 
d="M29 340h62l-94 325h124l46 -258h4l47 258h124l-101 -325h68v-80h-80v-30h80v-80h-80v-150h-120v150h-80v80h80v30h-80v80z" />
    <glyph glyph-name="sterling.tlf" unicode="&#xe036;" 
d="M6 336l39.999 0.000976562v162c0 57.333 11.667 101.166 35 131.499s59 45.5 107 45.5c46.667 0 82.334 -15.5 107.001 -46.5s37 -82.5 37 -154.5v-22h-121v59c0 15.333 -1.5 28.166 -4.5 38.499s-9.16699 15.5 -18.5 15.5c-8.66699 0 -14.5 -5.66699 -17.5 -17
s-4.5 -23.666 -4.5 -36.999v-175h91v-110h-91v-116h166v-110h-326v110h40v116h-40v110z" />
    <glyph glyph-name="cent.tlf" unicode="&#xe037;" 
d="M108 -65v67c-25.333 11.333 -43.833 30.5 -55.5 57.5s-17.5 61.167 -17.5 102.5v196c0 40.667 5.83301 74.5 17.5 101.5s30.167 46.167 55.5 57.5v68h120v-65c27.333 -11.333 46.833 -30.666 58.5 -57.999s17.5 -62 17.5 -104v-56h-115v25c0 34.667 -0.5 60.5 -1.5 77.5
s-6.16699 25.5 -15.5 25.5c-11.333 0 -17 -17.667 -17 -53v-234c0 -35.333 5.66699 -53 17 -53c9.33301 0 14.5 8.33301 15.5 25s1.5 42.667 1.5 78v25h115v-56c0 -42.667 -5.83301 -77.834 -17.5 -105.501s-31.167 -46.5 -58.5 -56.5v-65h-120z" />
    <glyph glyph-name="florin.tlf" unicode="&#xe038;" 
d="M234 176c0 -62.667 -12.999 -109.334 -38.999 -140.001s-61 -46 -105 -46c-28.667 0 -51 4.83301 -67 14.5s-30.333 21.5 -43 35.5l70 70c3.33301 -5.33301 7.5 -10 12.5 -14s10.5 -6 16.5 -6c11.333 0 19.5 6.16699 24.5 18.5s7.5 28.833 7.5 49.5v331
c0 60.667 11.833 106.834 35.5 138.501s58.167 47.5 103.5 47.5c31.333 0 55.166 -4.83301 71.499 -14.5s30.833 -21.5 43.5 -35.5l-68 -72c-3.33301 5.33301 -7.5 10.333 -12.5 15s-11.167 7 -18.5 7c-11.333 0 -19.5 -6 -24.5 -18s-7.5 -27.333 -7.5 -46v-116h76v-100h-76
v-119z" />
    </font>
</defs>
</svg>
