<?xml version="1.0" standalone="no"?>
<!DOCTYPE svg PUBLIC "-//W3C//DTD SVG 1.1//EN" "http://www.w3.org/Graphics/SVG/1.1/DTD/svg11.dtd" >
<svg>
<metadata>
Created by FontForge 20090914 at Sun Aug 10 12:59:44 2014
 By www-data
Copyright (c) 2013 by FONTYOU. All rights reserved. www.fontyou.com
</metadata>
<defs>
<font id="MarianinaCnFY-Italic" horiz-adv-x="331" >
  <font-face 
    font-family="MarianinaCnFY-Italic"
    font-weight="400"
    font-style="italic"
    font-stretch="normal"
    units-per-em="1000"
    panose-1="2 0 5 6 0 0 0 9 0 4"
    ascent="772"
    descent="-228"
    x-height="508"
    cap-height="665"
    bbox="-168 -210.001 953 875"
    underline-thickness="50"
    underline-position="-50"
    slope="-11"
    unicode-range="U+000D-U+FB04"
  />
<missing-glyph horiz-adv-x="602" 
d="M305 435c10.667 19.333 24.498 35 41.498 47s35.833 18 56.5 18c28.667 0 52.334 -9.83301 71.001 -29.5s28 -44.834 28 -75.501c0 -20 -4.5 -41.667 -13.5 -65s-22 -46.666 -39 -69.999s-38 -45.833 -63 -67.5s-53.5 -40.834 -85.5 -57.501
c-32 16.667 -60.5 35.834 -85.5 57.501s-46 44.167 -63 67.5s-30 46.666 -39 69.999s-13.5 45 -13.5 65c0 30.667 9.33301 55.834 28 75.501s42.334 29.5 71.001 29.5c20.667 0 39.5 -6 56.5 -18s30.833 -27.667 41.5 -47h8z" />
    <glyph glyph-name="f_f" unicode="ff" horiz-adv-x="440" 
d="M137 457l-89.001 -457.001h-60l106 542c10.667 54.667 27.834 96.334 51.501 125.001s55.167 43 94.5 43c23.333 0 41.333 -4.33301 54 -13s22.667 -19.667 30 -33l-43 -34c-4 8.66699 -9.33301 15.667 -16 21s-16 8 -28 8c-12.667 0 -23.5 -3 -32.5 -9
s-16.667 -13.833 -23 -23.5s-11.5 -20.667 -15.5 -33s-7.33301 -24.5 -10 -36.5l-9 -49h100l-10 -51h-100zM354.999 456.999l-89.001 -457.001h-60l105 542c10.667 54.667 27.834 96.334 51.501 125.001s55.5 43 95.5 43c23.333 0 41.333 -4.33301 54 -13
s22.667 -19.667 30 -33l-43 -34c-4.66699 8.66699 -10.334 15.667 -17.001 21s-15.667 8 -27 8c-12.667 0 -23.667 -3 -33 -9s-17.166 -13.833 -23.499 -23.5s-11.5 -20.667 -15.5 -33s-7 -24.5 -9 -36.5l-10 -49h100l-9 -51h-100z" />
    <glyph glyph-name="fi" unicode="fi" horiz-adv-x="383" 
d="M137 457l-89.001 -457.001h-60l106 542c10.667 54.667 27.834 96.334 51.501 125.001s55.167 43 94.5 43c23.333 0 41.333 -4.33301 54 -13s22.667 -19.667 30 -33l-43 -34c-4 8.66699 -9.33301 15.667 -16 21s-16 8 -28 8c-12.667 0 -23.5 -3 -32.5 -9
s-16.667 -13.833 -23 -23.5s-11.5 -20.667 -15.5 -33s-7.33301 -24.5 -10 -36.5l-9 -49h100l-10 -51h-100zM303.999 507.999h53l-5 -65l-86 -443h-60zM361.999 650.999c9.33301 0 17 -2.66699 23 -8s9 -12.666 9 -21.999c0 -14 -4.5 -25.167 -13.5 -33.5
s-20.167 -12.5 -33.5 -12.5c-20.667 0 -31 10.333 -31 31c0 13.333 4.5 24.166 13.5 32.499s19.833 12.5 32.5 12.5z" />
    <glyph glyph-name="fl" unicode="fl" horiz-adv-x="383" 
d="M137 457l-89.001 -457.001h-60l106 542c10.667 54.667 27.834 96.334 51.501 125.001s55.167 43 94.5 43c23.333 0 41.333 -4.33301 54 -13s22.667 -19.667 30 -33l-43 -34c-4 8.66699 -9.33301 15.667 -16 21s-16 8 -28 8c-12.667 0 -23.5 -3 -32.5 -9
s-16.667 -13.833 -23 -23.5s-11.5 -20.667 -15.5 -33s-7.33301 -24.5 -10 -36.5l-9 -49h100l-10 -51h-100zM390.999 644.999l-125 -645h-55l7 65l126 645h53z" />
    <glyph glyph-name="f_f_i" unicode="ffi" horiz-adv-x="600" 
d="M137 457l-89.001 -457.001h-60l106 542c10.667 54.667 27.834 96.334 51.501 125.001s55.167 43 94.5 43c23.333 0 41.333 -4.33301 54 -13s22.667 -19.667 30 -33l-43 -34c-4 8.66699 -9.33301 15.667 -16 21s-16 8 -28 8c-12.667 0 -23.5 -3 -32.5 -9
s-16.667 -13.833 -23 -23.5s-11.5 -20.667 -15.5 -33s-7.33301 -24.5 -10 -36.5l-9 -49h100l-10 -51h-100zM354.999 456.999l-89.001 -457.001h-60l105 542c10.667 54.667 27.834 96.334 51.501 125.001s55.5 43 95.5 43c23.333 0 41.333 -4.33301 54 -13
s22.667 -19.667 30 -33l-43 -34c-4.66699 8.66699 -10.334 15.667 -17.001 21s-15.667 8 -27 8c-12.667 0 -23.667 -3 -33 -9s-17.166 -13.833 -23.499 -23.5s-11.5 -20.667 -15.5 -33s-7 -24.5 -9 -36.5l-10 -49h100l-9 -51h-100zM521.998 507.998h53l-6 -65l-86 -443h-60z
M579.998 650.998c9.33301 0 17 -2.66699 23 -8s9 -12.666 9 -21.999c0 -14 -4.5 -25.167 -13.5 -33.5s-20.167 -12.5 -33.5 -12.5c-9.33301 0 -17 2.83301 -23 8.5s-9 13.167 -9 22.5c0 13.333 4.5 24.166 13.5 32.499s20.167 12.5 33.5 12.5z" />
    <glyph glyph-name="f_f_l" unicode="ffl" horiz-adv-x="601" 
d="M137 457l-89.001 -457.001h-60l106 542c10.667 54.667 27.834 96.334 51.501 125.001s55.167 43 94.5 43c23.333 0 41.333 -4.33301 54 -13s22.667 -19.667 30 -33l-43 -34c-4 8.66699 -9.33301 15.667 -16 21s-16 8 -28 8c-12.667 0 -23.5 -3 -32.5 -9
s-16.667 -13.833 -23 -23.5s-11.5 -20.667 -15.5 -33s-7.33301 -24.5 -10 -36.5l-9 -49h100l-10 -51h-100zM354.999 456.999l-89.001 -457.001h-60l105 542c10.667 54.667 27.834 96.334 51.501 125.001s55.5 43 95.5 43c23.333 0 41.333 -4.33301 54 -13
s22.667 -19.667 30 -33l-43 -34c-4.66699 8.66699 -10.334 15.667 -17.001 21s-15.667 8 -27 8c-12.667 0 -23.667 -3 -33 -9s-17.166 -13.833 -23.499 -23.5s-11.5 -20.667 -15.5 -33s-7 -24.5 -9 -36.5l-10 -49h100l-9 -51h-100zM608.998 644.998l-126 -645h-55l8 65
l125 645h54z" />
    <glyph glyph-name=".notdef" horiz-adv-x="602" 
d="M305 435c10.667 19.333 24.498 35 41.498 47s35.833 18 56.5 18c28.667 0 52.334 -9.83301 71.001 -29.5s28 -44.834 28 -75.501c0 -20 -4.5 -41.667 -13.5 -65s-22 -46.666 -39 -69.999s-38 -45.833 -63 -67.5s-53.5 -40.834 -85.5 -57.501
c-32 16.667 -60.5 35.834 -85.5 57.501s-46 44.167 -63 67.5s-30 46.666 -39 69.999s-13.5 45 -13.5 65c0 30.667 9.33301 55.834 28 75.501s42.334 29.5 71.001 29.5c20.667 0 39.5 -6 56.5 -18s30.833 -27.667 41.5 -47h8z" />
    <glyph glyph-name=".null" horiz-adv-x="0" 
 />
    <glyph glyph-name=".null" horiz-adv-x="0" 
 />
    <glyph glyph-name="nonmarkingreturn" unicode="&#xd;" horiz-adv-x="0" 
 />
    <glyph glyph-name="space" unicode=" " horiz-adv-x="134" 
 />
    <glyph glyph-name="exclam" unicode="!" horiz-adv-x="228" 
d="M208 665l-99 -510h-54l7 68l86 442h60zM14 29c0 13.333 4.83301 24.666 14.5 33.999s21.5 14 35.5 14c10 0 18.167 -3.16699 24.5 -9.5s9.5 -14.5 9.5 -24.5c0 -13.333 -5 -24.666 -15 -33.999s-21.667 -14 -35 -14c-10.667 0 -19 3.16699 -25 9.5s-9 14.5 -9 24.5z" />
    <glyph glyph-name="quotedbl" unicode="&#x22;" horiz-adv-x="266" 
d="M130 480h-43l30 199h61zM235 480h-43l30 199h61z" />
    <glyph glyph-name="numbersign" unicode="#" horiz-adv-x="463" 
d="M122 488h73l81 177h52l-81 -177h106l81 177h53l-81 -177h61l-9 -49h-74l-93 -203h61l-9 -49h-73l-85 -187h-53l85 187h-106l-86 -187h-52l85 187h-61l9 49h73l94 203h-60zM132 236h106l94 203h-107z" />
    <glyph glyph-name="dollar" unicode="$" horiz-adv-x="316" 
d="M78 528c7.33301 36.667 20.5039 67.665 39.5039 92.998s44.5 41.333 76.5 48l11 61h60l-11 -60c19.333 -4 34.666 -14 45.999 -30s17 -38.333 17 -67c0 -16 -2 -34 -6 -54l-5 -22h-60l6 27c1.33301 6.66699 2.33301 13.334 3 20.001s1 13 1 19
c0 16 -3.16699 29.5 -9.5 40.5s-17.5 16.5 -33.5 16.5c-18.667 0 -34.334 -8.16699 -47.001 -24.5s-21.667 -38.166 -27 -65.499l-6 -30c-4.66699 -23.333 -3.5 -43.5 3.5 -60.5s20.5 -35.167 40.5 -54.5c21.333 -21.333 38.666 -43.5 51.999 -66.5s20 -51.5 20 -85.5
c0 -8 -0.333008 -16.5 -1 -25.5s-2 -18.167 -4 -27.5l-8 -41c-7.33301 -38 -20.666 -70 -39.999 -96s-44 -42 -74 -48l-12 -60h-60l12 61c-42 9.33301 -63 41.666 -63 96.999c0 16 2 34 6 54l4 21h60l-5 -24c-1.33301 -7.33301 -2.5 -14.5 -3.5 -21.5
s-1.5 -14.167 -1.5 -21.5c0 -15.333 3.16699 -28.5 9.5 -39.5s17.833 -16.5 34.5 -16.5c17.333 0 32.666 8.66699 45.999 26s22.666 40.333 27.999 69l8 44c2.66699 10.667 4 22 4 34c0 20.667 -4.5 39.834 -13.5 57.501s-22.167 35.5 -39.5 53.5
c-19.333 20.667 -35.5 40.5 -48.5 59.5s-19.5 42.167 -19.5 69.5c0 10.667 1 22 3 34z" />
    <glyph glyph-name="percent" unicode="%" horiz-adv-x="617" 
d="M220 370c-6 -32 -17.833 -57.666 -35.5 -76.999s-42.167 -29 -73.5 -29c-25.333 0 -43.833 6.66699 -55.5 20s-17.5 31.333 -17.5 54c0 10 1 20.667 3 32l39 199c6 32 18 57.667 36 77s42.333 29 73 29c25.333 0 43.833 -6.66699 55.5 -20s17.5 -31.333 17.5 -54
c0 -10.667 -1 -21.334 -3 -32.001zM208 575.001c3.33301 14 3.16602 26.5 -0.500977 37.5s-12.5 16.5 -26.5 16.5s-24.833 -5.5 -32.5 -16.5s-12.834 -23.5 -15.501 -37.5l-41 -211c-2.66699 -14 -2.5 -26.5 0.5 -37.5s11.5 -16.5 25.5 -16.5
c14.667 0 25.834 5.5 33.501 16.5s12.834 23.5 15.501 37.5zM131 0.000976562h-52l407 665h51zM538 100.001c-6 -32 -17.833 -57.666 -35.5 -76.999s-42.167 -29 -73.5 -29c-25.333 0 -43.833 6.66699 -55.5 20s-17.5 31.333 -17.5 54c0 10 1 20.667 3 32l39 199
c6 32 18 57.667 36 77s42.333 29 73 29c25.333 0 43.833 -6.66699 55.5 -20s17.5 -31.333 17.5 -54c0 -10.667 -1 -21.334 -3 -32.001zM526 305.002c3.33301 14 3.16602 26.5 -0.500977 37.5s-12.5 16.5 -26.5 16.5s-24.833 -5.5 -32.5 -16.5s-12.834 -23.5 -15.501 -37.5
l-41 -211c-2.66699 -14 -2.5 -26.5 0.5 -37.5s11.5 -16.5 25.5 -16.5c14.667 0 25.834 5.5 33.501 16.5s12.834 23.5 15.501 37.5z" />
    <glyph glyph-name="ampersand" unicode="&#x26;" horiz-adv-x="375" 
d="M193 55c-10.667 -17.333 -23.502 -32.499 -38.502 -45.499s-35.167 -19.5 -60.5 -19.5c-56.667 0 -85 31.667 -85 95c0 15.333 2 33.666 6 54.999l8 40c4.66699 22.667 11.167 42.667 19.5 60s18.333 33 30 47s25 27 40 39s31.5 24 49.5 36
c33.333 22.667 58 44.167 74 64.5s26.667 44.166 32 71.499l5 24c1.33301 6 2.33301 12 3 18s1 12 1 18c0 17.333 -3.5 32 -10.5 44s-19.167 18 -36.5 18c-12 0 -22.5 -2.83301 -31.5 -8.5s-16.833 -13.167 -23.5 -22.5s-12.167 -19.833 -16.5 -31.5s-7.5 -23.5 -9.5 -35.5
l-6 -34c-2 -11.333 -3 -21.333 -3 -30c0 -17.333 2.83301 -31.166 8.5 -41.499s12.5 -18.5 20.5 -24.5l-53 -40c-9.33301 9.33301 -17.666 22 -24.999 38s-11 36 -11 60c0 7.33301 0.333008 15 1 23s2 16.667 4 26l4 22c10 48 27.833 85.667 53.5 113s58.5 41 98.5 41
c34 0 58.833 -9.5 74.5 -28.5s23.5 -43.5 23.5 -73.5c0 -12.667 -1.66699 -27.334 -5 -44.001l-6 -30c-3.33301 -18 -8.33301 -34.667 -15 -50s-15.167 -29.833 -25.5 -43.5s-22.666 -26.834 -36.999 -39.501s-31.5 -26 -51.5 -40l-40 -29
c-12.667 -9.33301 -24 -19.666 -34 -30.999s-18.667 -24.166 -26 -38.499s-13 -31.5 -17 -51.5l-7 -33c-1.33301 -6 -2.33301 -12 -3 -18s-1 -11.667 -1 -17c0 -17.333 3.33301 -32.166 10 -44.499s18.667 -18.5 36 -18.5c21.333 0 39 9.83301 53 29.5s23.667 43.5 29 71.5
l15 75h60l-15 -76c-5.33301 -28.667 -8 -53.334 -8 -74.001c0 -30 5.33301 -54.167 16 -72.5s27.667 -27.5 51 -27.5l-10 -56c-22 0 -40.5 3.66699 -55.5 11s-27 17.333 -36 30s-15 27.5 -18 44.5s-3.83301 35.167 -2.5 54.5h-3z" />
    <glyph glyph-name="quotesingle" unicode="'" horiz-adv-x="161" 
d="M130 480h-43l30 199h61z" />
    <glyph glyph-name="parenleft" unicode="(" horiz-adv-x="250" 
d="M120 599c11.333 57.333 30.8311 102.332 58.498 134.999s67.834 49 120.501 49h18l-11 -56h-18c-55.333 0 -91.666 -44.333 -108.999 -133l-99 -511c-2 -11.333 -3.66699 -21.666 -5 -30.999s-2 -18.333 -2 -27c0 -49.333 21.333 -74 64 -74h18l-11 -56h-18
c-41.333 0 -70.833 10 -88.5 30s-26.5 48.333 -26.5 85c0 10 0.666992 20.333 2 31s3 22 5 34z" />
    <glyph glyph-name="parenright" unicode=")" horiz-adv-x="250" 
d="M131 75c-5.33301 -28 -12.668 -53.168 -22.001 -75.501s-21 -41.166 -35 -56.499s-31 -27.166 -51 -35.499s-43.333 -12.5 -70 -12.5h-18l11 56h18c28.667 0 51.667 11 69 33s30.333 55 39 99l100 508c4 20.667 6 39 6 55c0 25.333 -5.16699 45.166 -15.5 59.499
s-26.166 21.5 -47.499 21.5h-18l11 56h18c40.667 0 69.667 -10.667 87 -32s26 -50.666 26 -87.999c0 -22.667 -2.33301 -45.334 -7 -68.001z" />
    <glyph glyph-name="asterisk" unicode="*" horiz-adv-x="297" 
d="M77 566l93 40l1 4l-77 39l29 38l65 -56l4 3l11 95h44l-29 -94l4 -3l89 55l15 -38l-95 -42l-1 -4l80 -37l-29 -38l-68 56l-4 -4l-9 -94h-44l28 94l-2 2l-90 -54z" />
    <glyph glyph-name="plus" unicode="+" horiz-adv-x="318" 
d="M35 330h95l19 95h56l-19 -95h95l-11 -56h-95l-18 -95h-56l18 95h-95z" />
    <glyph glyph-name="comma" unicode="," horiz-adv-x="162" 
d="M-16 -114h-38l63 180h62z" />
    <glyph glyph-name="hyphen" unicode="-" horiz-adv-x="222" 
d="M43 350h142l-11 -57h-142z" />
    <glyph glyph-name="period" unicode="." horiz-adv-x="162" 
d="M-19 28c0 14.667 4.83301 26.5 14.5 35.5s21.5 13.5 35.5 13.5c10.667 0 19 -3.16699 25 -9.5s9 -14.166 9 -23.499c0 -14.667 -4.83301 -26.5 -14.5 -35.5s-21.5 -13.5 -35.5 -13.5c-10 0 -18.167 3.16699 -24.5 9.5s-9.5 14.166 -9.5 23.499z" />
    <glyph glyph-name="slash" unicode="/" horiz-adv-x="269" 
d="M-22 -89h-54l359 799h53z" />
    <glyph glyph-name="zero" unicode="0" 
d="M252 153c-10 -51.333 -27.8311 -91.3311 -53.498 -119.998s-58.834 -43 -99.501 -43c-32.667 0 -56.834 9 -72.501 27s-23.5 44 -23.5 78c0 17.333 2 36.666 6 57.999l70 362c10 51.333 27.5 90.833 52.5 118.5s58.167 41.5 99.5 41.5c32.667 0 57 -9.16699 73 -27.5
s24 -44.5 24 -78.5c0 -16.667 -2 -35.334 -6 -56.001zM264.002 522.002c1.33301 6.66699 2.33398 13.333 3.00098 20s1 13 1 19c0 16.667 -3.33301 30.667 -10 42s-19 17 -37 17c-23.333 0 -41.333 -10 -54 -30s-21.667 -43.333 -27 -70l-73 -375
c-2.66699 -12.667 -4 -26 -4 -40c0 -16.667 3.16699 -30.834 9.5 -42.501s18.166 -17.5 35.499 -17.5c12 0 22.667 2.83301 32 8.5s17.333 13.167 24 22.5s12.167 19.833 16.5 31.5s7.5 23.834 9.5 36.501z" />
    <glyph glyph-name="one" unicode="1" horiz-adv-x="269" 
d="M78 0l117 601l-108 -82l-29 42l139 104h71l-130 -665h-60z" />
    <glyph glyph-name="two" unicode="2" horiz-adv-x="316" 
d="M67 506l3.99902 17.9971c10 50 27.167 87.667 51.5 113s58.5 38 102.5 38c65.333 0 98 -30.667 98 -92c0 -16 -2 -33.333 -6 -52l-5 -28c-7.33301 -34 -21.166 -68.167 -41.499 -102.5s-45.833 -74.166 -76.5 -119.499l-154 -226h184l-10 -55h-244l12 65l142 208l52 75
c14.667 22 27.167 42 37.5 60s18.5 34.833 24.5 50.5s10.667 31.167 14 46.5l5 24c2.66699 12.667 4 25.334 4 38.001c0 35.333 -15.667 53 -47 53c-24.667 0 -43.167 -8.16699 -55.5 -24.5s-21.5 -40.166 -27.5 -71.499l-4 -18h-60z" />
    <glyph glyph-name="three" unicode="3" horiz-adv-x="321" 
d="M253 520c1.33301 6 2.33301 11.999 3 17.999s1 12 1 18c0 17.333 -3.5 32.333 -10.5 45s-19.167 19 -36.5 19c-12 0 -22.5 -2.83301 -31.5 -8.5s-16.833 -13.167 -23.5 -22.5s-12.167 -20 -16.5 -32s-7.83301 -24.333 -10.5 -37l-3 -19h-60l2 12c10 52 27.667 92 53 120
s58.333 42 99 42c34 0 59.167 -9 75.5 -27s24.5 -43 24.5 -75c0 -7.33301 -0.333008 -14.5 -1 -21.5s-1.66699 -14.5 -3 -22.5l-8 -39c-6.66699 -34.667 -18.334 -63.5 -35.001 -86.5s-36 -39.167 -58 -48.5l-1 -4c14 -6.66699 25 -18.334 33 -35.001s12 -36.667 12 -60
c0 -14 -1.33301 -27.333 -4 -40l-15 -74c-10 -51.333 -28.833 -89.5 -56.5 -114.5s-59.5 -37.5 -95.5 -37.5c-65.333 0 -98 34 -98 102c0 15.333 2 33 6 53l4 19h59l-4 -21c-1.33301 -6 -2.33301 -12 -3 -18s-1 -12 -1 -18c0 -16.667 3.33301 -31.167 10 -43.5
s19 -18.5 37 -18.5c12 0 22.667 3.16699 32 9.5s17.333 14.333 24 24s12.334 20.334 17.001 32.001s8 23.167 10 34.5l15 76c2 10.667 3 21.667 3 33c0 19.333 -4.33301 36 -13 50s-23.667 21 -45 21h-31l10 54h31c13.333 0 25.333 3 36 9s20 13.833 28 23.5
s14.667 20.834 20 33.501s9.33301 25.667 12 39z" />
    <glyph glyph-name="four" unicode="4" horiz-adv-x="316" 
d="M175 151h-188l13 67l251 447h60l-257 -459h131l25 124h60l-64 -330h-60z" />
    <glyph glyph-name="five" unicode="5" horiz-adv-x="329" 
d="M104 665h245l-10 -56h-185l-41 -211c10 14 22.667 26.833 38 38.5s33.666 17.5 54.999 17.5c52 0 78 -31.667 78 -95c0 -10 -0.666992 -20.667 -2 -32s-3.33301 -23.666 -6 -36.999l-27 -140c-10 -52 -27.833 -91.667 -53.5 -119s-59.167 -41 -100.5 -41
c-32.667 0 -57 9 -73 27s-24 43.333 -24 76c0 7.33301 0.333008 15.333 1 24s2 17.667 4 27l4 20h60l-4 -22c-1.33301 -6.66699 -2.33301 -13.334 -3 -20.001s-1 -13.334 -1 -20.001c0 -15.333 3.16699 -28.666 9.5 -39.999s18.166 -17 35.499 -17
c12 0 22.833 2.83301 32.5 8.5s17.834 13.167 24.501 22.5s12.334 20 17.001 32s8 24 10 36l31 156c2 12 3 23.667 3 35c0 17.333 -3 32.333 -9 45s-16.667 19 -32 19c-10 0 -19 -2.33301 -27 -7s-15.333 -10.5 -22 -17.5s-12.5 -14.667 -17.5 -23s-9.5 -16.5 -13.5 -24.5
h-62z" />
    <glyph glyph-name="six" unicode="6" horiz-adv-x="332" 
d="M260 503l4 20.002c2.66699 12.667 4 25.667 4 39c0 16.667 -3.5 30.5 -10.5 41.5s-19.5 16.5 -37.5 16.5c-12 0 -22.5 -2.83301 -31.5 -8.5s-16.667 -13.167 -23 -22.5s-11.666 -19.833 -15.999 -31.5s-7.83301 -23.834 -10.5 -36.501l-33 -170
c9.33301 17.333 22 31.833 38 43.5s34.667 17.5 56 17.5c52.667 0 79 -31.667 79 -95c0 -20 -2.33301 -41.333 -7 -64l-20 -100c-10 -52 -27.833 -92.167 -53.5 -120.5s-59.167 -42.5 -100.5 -42.5c-32.667 0 -56.834 9 -72.501 27s-23.5 44 -23.5 78
c0 16.667 2 35.667 6 57l70 362c10.667 52 28.5 91.833 53.5 119.5s57.833 41.5 98.5 41.5c66.667 0 100 -33.667 100 -101c0 -16.667 -2 -34.334 -6 -53.001l-4 -18h-60zM107 45.002c12 0 22.666 3.00195 31.999 9.00195s17.5 13.667 24.5 23s12.667 19.833 17 31.5
s7.83301 23.5 10.5 35.5l22 115c2.66699 10.667 4 22.334 4 35.001c0 17.333 -3.66699 32.166 -11 44.499s-19.666 18.5 -36.999 18.5c-11.333 0 -21.333 -2.83301 -30 -8.5s-16.5 -13.334 -23.5 -23.001s-12.833 -20.334 -17.5 -32.001s-8 -23.5 -10 -35.5l-23 -116
c-1.33301 -6.66699 -2.33301 -13.167 -3 -19.5s-1 -12.5 -1 -18.5c0 -16 3.33301 -29.833 10 -41.5s18.667 -17.5 36 -17.5z" />
    <glyph glyph-name="seven" unicode="7" horiz-adv-x="297" 
d="M-20 0l292 609h-199l11 56h252l-13 -68l-283 -597h-60z" />
    <glyph glyph-name="eight" unicode="8" horiz-adv-x="332" 
d="M83 536c9.33301 44.667 26 79 50 103s56.667 36 98 36c34 0 59.5 -8 76.5 -24s25.5 -39 25.5 -69c0 -6 -0.333008 -12.333 -1 -19s-1.66699 -13.667 -3 -21l-10 -54c-6.66699 -33.333 -20 -60.5 -40 -81.5s-44.333 -42.167 -73 -63.5
c16 -17.333 29.333 -35.666 40 -54.999s16 -43 16 -71c0 -14 -1.33301 -27.667 -4 -41l-9 -46c-9.33301 -47.333 -26.833 -82.5 -52.5 -105.5s-57.834 -34.5 -96.501 -34.5c-34 0 -59.167 8.5 -75.5 25.5s-24.5 40.5 -24.5 70.5c0 6 0.333008 12.333 1 19
s1.66699 13.667 3 21l10 53c7.33301 39.333 21.333 71.333 42 96s44.667 47.667 72 69c-17.333 18 -31.166 36 -41.499 54s-15.5 38.667 -15.5 62c0 9.33301 1 19.666 3 30.999zM64 132c-2 -10 -2.99805 -20.333 -2.99805 -31c0 -15.333 3.33301 -28.5 10 -39.5
s19 -16.5 37 -16.5c23.333 0 41.666 8.5 54.999 25.5s22.333 37.167 27 60.5l10 53c4.66699 27.333 3 50.833 -5 70.5s-19.333 37.5 -34 53.5c-20.667 -15.333 -38.834 -32.333 -54.501 -51s-26.167 -43 -31.5 -73zM135.002 496
c-4.66699 -23.333 -3.66895 -43.999 2.99805 -61.999s19 -36 37 -54c24.667 18 43.834 35.167 57.501 51.5s22.834 37.166 27.501 62.499l8 41c2 10 3 20.167 3 30.5s-1.66699 19.5 -5 27.5s-8.5 14.5 -15.5 19.5s-16.5 7.5 -28.5 7.5c-23.333 0 -41.333 -9 -54 -27
s-21 -38 -25 -60z" />
    <glyph glyph-name="nine" unicode="9" horiz-adv-x="332" 
d="M71 162l-4 -20.002c-3.33301 -16.667 -5 -30.667 -5 -42c0 -16 3.33301 -29.167 10 -39.5s18.667 -15.5 36 -15.5c12 0 22.667 2.83301 32 8.5s17.333 13.334 24 23.001s12.167 20.334 16.5 32.001s7.83301 23.5 10.5 35.5l33 170
c-9.33301 -17.333 -22.166 -31.833 -38.499 -43.5s-34.833 -17.5 -55.5 -17.5c-52 0 -78 30.667 -78 92c0 17.333 2.66699 39.333 8 66l20 106c10 50.667 27.333 89.667 52 117s57.667 41 99 41c33.333 0 58 -9.33301 74 -28s24 -45 24 -79c0 -16 -2 -34 -6 -54l-71 -361
c-10 -52 -27.833 -92.167 -53.5 -120.5s-58.834 -42.5 -99.501 -42.5c-65.333 0 -98 32 -98 96c0 16 2 34.667 6 56l4 20h60zM222 619.998c-12 0 -22.501 -2.83301 -31.501 -8.5s-16.833 -13 -23.5 -22s-12.167 -19.333 -16.5 -31s-7.5 -23.834 -9.5 -36.501l-22 -115
c-1.33301 -6.66699 -2.33301 -13.167 -3 -19.5s-1 -12.5 -1 -18.5c0 -16.667 3.33301 -31 10 -43s18.667 -18 36 -18c11.333 0 21.5 3 30.5 9s16.833 13.833 23.5 23.5s12.334 20.334 17.001 32.001s8 23.5 10 35.5l22 115c1.33301 6.66699 2.33301 13.167 3 19.5
s1 12.5 1 18.5c0 16.667 -3.33301 30.667 -10 42s-18.667 17 -36 17z" />
    <glyph glyph-name="colon" unicode=":" horiz-adv-x="178" 
d="M-19 28c0 14.667 4.83301 26.5 14.5 35.5s21.5 13.5 35.5 13.5c10.667 0 19 -3.16699 25 -9.5s9 -14.166 9 -23.499c0 -14.667 -4.83301 -26.5 -14.5 -35.5s-21.5 -13.5 -35.5 -13.5c-10 0 -18.167 3.16699 -24.5 9.5s-9.5 14.166 -9.5 23.499zM59 429
c0 14.667 4.83301 26.5 14.5 35.5s21.5 13.5 35.5 13.5c10.667 0 19 -3.16699 25 -9.5s9 -14.166 9 -23.499c0 -14.667 -4.83301 -26.5 -14.5 -35.5s-21.5 -13.5 -35.5 -13.5c-10 0 -18.167 3.16699 -24.5 9.5s-9.5 14.166 -9.5 23.499z" />
    <glyph glyph-name="semicolon" unicode=";" horiz-adv-x="181" 
d="M62 429c0 14.667 4.83301 26.5 14.5 35.5s21.5 13.5 35.5 13.5c10.667 0 19 -3.16699 25 -9.5s9 -14.166 9 -23.499c0 -14.667 -4.83301 -26.5 -14.5 -35.5s-21.5 -13.5 -35.5 -13.5c-10 0 -18.167 3.16699 -24.5 9.5s-9.5 14.166 -9.5 23.499zM-16 -114h-38l63 180h62z
" />
    <glyph glyph-name="less" unicode="&#x3c;" horiz-adv-x="318" 
d="M34 338l269 121l-12 -61l-201 -86l168 -86l-11 -60l-223 120z" />
    <glyph glyph-name="equal" unicode="=" horiz-adv-x="318" 
d="M47 390h246l-11 -56h-246zM23 270h246l-11 -56h-246z" />
    <glyph glyph-name="greater" unicode="&#x3e;" horiz-adv-x="318" 
d="M275 286l-269 -121l12 61l202 86l-168 86l11 60l223 -120z" />
    <glyph glyph-name="question" unicode="?" horiz-adv-x="323" 
d="M74 483l9.00293 48.9951c8.66699 44.667 25.5 79.667 50.5 105s57.167 38 96.5 38c32 0 55.5 -8.33301 70.5 -25s22.5 -38.667 22.5 -66c0 -10.667 -1 -22 -3 -34l-8 -43c-3.33301 -16 -7.16602 -30.167 -11.499 -42.5s-10 -24.166 -17 -35.499s-16 -22.666 -27 -33.999
s-24.5 -23.666 -40.5 -36.999c-12.667 -10 -22.667 -20 -30 -30s-13.5 -21 -18.5 -33s-9 -25.333 -12 -40l-10.5 -51l-9 -49h-60l11 55c4.66699 23.333 9.16699 43.666 13.5 60.999s9.66602 33 15.999 47s14.666 26.833 24.999 38.5s23.5 24.167 39.5 37.5
c13.333 10.667 24.166 20.834 32.499 30.501s15.166 19.334 20.499 29.001s9.33301 19.334 12 29.001s5 19.5 7 29.5l6 34c4 20 2.66699 37.167 -4 51.5s-18.667 21.5 -36 21.5s-32.833 -7.16699 -46.5 -21.5s-23.5 -36.833 -29.5 -67.5l-9 -47h-60zM42.0029 28.9951
c0 13.333 4.83301 24.666 14.5 33.999s21.5 14 35.5 14c10.667 0 19 -3.16699 25 -9.5s9 -14.5 9 -24.5c0 -13.333 -5 -24.666 -15 -33.999s-21.667 -14 -35 -14c-10.667 0 -19 3.16699 -25 9.5s-9 14.5 -9 24.5z" />
    <glyph glyph-name="at" unicode="@" horiz-adv-x="572" 
d="M179 328c4 18 9.1709 35.333 15.5039 52s14.5 31.167 24.5 43.5s22 22.166 36 29.499s30.667 11 50 11c17.333 0 31.166 -3.66699 41.499 -11s18.166 -15.333 23.499 -24l17 35h25l-62 -316c-3.33301 -17.333 -2.83301 -31.833 1.5 -43.5s13.166 -17.5 26.499 -17.5
c14.667 0 26.667 5.83301 36 17.5s15.666 26.834 18.999 45.501l44 226c4 20.667 6 40.334 6 59.001c0 20 -2.66699 38.667 -8 56s-13.833 32.166 -25.5 44.499s-27 22.166 -46 29.499s-42.167 11 -69.5 11c-33.333 0 -62.833 -5.5 -88.5 -16.5s-47.5 -25.833 -65.5 -44.5
s-32.667 -39.834 -44 -63.501s-19.333 -48.167 -24 -73.5l-54 -277c-2 -11.333 -3.66699 -21.666 -5 -30.999s-2 -18.333 -2 -27c0 -42 12.333 -72.333 37 -91s62 -28 112 -28h13l-9 -48h-14c-128 0 -192 52 -192 156c0 21.333 2.33301 43.333 7 66l55 278
c6.66699 34 17 66.167 31 96.5s32.5 56.666 55.5 78.999s50.667 40 83 53s69.833 19.5 112.5 19.5c34.667 0 64.167 -4.83301 88.5 -14.5s44.333 -22.667 60 -39s27 -35.666 34 -57.999s10.5 -46.166 10.5 -71.499c0 -20.667 -2 -42 -6 -64l-42 -215
c-7.33301 -42 -21.333 -72.833 -42 -92.5s-46.334 -29.5 -77.001 -29.5c-38.667 0 -61.334 19.333 -68.001 58c-12 -17.333 -25.667 -31.333 -41 -42s-33.666 -16 -54.999 -16c-23.333 0 -41.166 8.16699 -53.499 24.5s-15.5 39.833 -9.5 70.5zM196.004 137
c-3.33301 -14.667 -2.50098 -26.999 2.49902 -36.999s14.167 -15 27.5 -15c14.667 0 28 5.5 40 16.5s21 23.167 27 36.5l49 251c-4 7.33301 -9.16699 13.666 -15.5 18.999s-15.166 8 -26.499 8c-34 0 -56 -28 -66 -84z" />
    <glyph glyph-name="A" unicode="A" horiz-adv-x="339" 
d="M-46 0l244 665h72l-16 -665h-62l6 164h-126l-58 -164h-60zM90 218h112l13 354h-2z" />
    <glyph glyph-name="B" unicode="B" horiz-adv-x="338" 
d="M264 161c-10.667 -52 -28.668 -91.833 -54.001 -119.5s-58.666 -41.5 -99.999 -41.5h-122l129 665h109c32.667 0 58 -8.16699 76 -24.5s27 -41.5 27 -75.5c0 -15.333 -2 -32.333 -6 -51l-6 -27c-6.66699 -34 -16.5 -60.167 -29.5 -78.5s-27.833 -32.833 -44.5 -43.5
c14.667 -7.33301 25 -18.5 31 -33.5s9 -32.167 9 -51.5c0 -18 -2 -36.333 -6 -55zM217.999 233c1.33301 6.66699 2.33301 13.334 3 20.001s1 13 1 19c0 17.333 -3.33301 31.666 -10 42.999s-18 17 -34 17h-66l-54 -277h63c11.333 0 21.666 2.83301 30.999 8.5
s17.333 13.167 24 22.5s12.334 19.833 17.001 31.5s8 23.5 10 35.5zM172.999 385c21.333 0 38.999 8.33398 52.999 25.001s23.667 38 29 64l10 49c1.33301 6 2.33301 11.667 3 17s1 10.666 1 15.999c0 17.333 -4.16699 30.5 -12.5 39.5s-22.166 13.5 -41.499 13.5h-49
l-43 -224h50z" />
    <glyph glyph-name="C" unicode="C" horiz-adv-x="319" 
d="M259 496l6 25.001c3.33301 15.333 5 28.666 5 39.999c0 16.667 -3.66699 30.667 -11 42s-20 17 -38 17c-22 0 -39.5 -9.16699 -52.5 -27.5s-22.167 -42.166 -27.5 -71.499l-73 -376c-3.33301 -16.667 -5 -30.667 -5 -42c0 -16.667 3.33301 -30.5 10 -41.5
s18.667 -16.5 36 -16.5c12 0 22.667 2.66699 32 8s17.333 12.5 24 21.5s12.167 19.333 16.5 31s7.5 23.5 9.5 35.5l5 28h60l-4 -22c-9.33301 -50 -26.833 -88.667 -52.5 -116s-58.834 -41 -99.501 -41c-32.667 0 -57 9 -73 27s-24 44 -24 78c0 16.667 2 35.667 6 57l71 362
c10 52 27.667 91.833 53 119.5s58 41.5 98 41.5c32.667 0 57.334 -9.33301 74.001 -28s25 -44.334 25 -77.001c0 -16 -2 -33.333 -6 -52l-5 -22h-60z" />
    <glyph glyph-name="D" unicode="D" horiz-adv-x="345" 
d="M266 161c-10 -52 -27.833 -91.832 -53.5 -119.499s-59.167 -41.5 -100.5 -41.5h-124l129 665h124c33.333 0 58 -9 74 -27s24 -44 24 -78c0 -16.667 -2 -35.334 -6 -56.001zM274 512.001c2.66699 12.667 4 25.333 4 38c0 17.333 -3.5 31.5 -10.5 42.5
s-19.167 16.5 -36.5 16.5h-65l-108 -554h65c11.333 0 21.666 2.83301 30.999 8.5s17.333 13.167 24 22.5s12.334 19.833 17.001 31.5s8 23.5 10 35.5z" />
    <glyph glyph-name="E" unicode="E" horiz-adv-x="288" 
d="M319 609h-153l-43 -224h127l-11 -55h-127l-54 -275h153l-11 -55h-212l129 665h212z" />
    <glyph glyph-name="F" unicode="F" horiz-adv-x="285" 
d="M-12 0l129 665h212l-10 -56h-153l-43 -224h127l-11 -55h-127l-64 -330h-60z" />
    <glyph glyph-name="G" unicode="G" 
d="M173 321l10.998 55h116l-44 -229c-10 -50.667 -28 -89.5 -54 -116.5s-59.333 -40.5 -100 -40.5c-33.333 0 -58.166 9 -74.499 27s-24.5 44 -24.5 78c0 17.333 2 36 6 56l71 363c10 52 27.833 91.833 53.5 119.5s58.5 41.5 98.5 41.5c67.333 0 101 -35.667 101 -107
c0 -19.333 -2.33301 -39.666 -7 -60.999l-3 -11h-60l6 26c1.33301 6 2.33301 12.167 3 18.5s1 12.5 1 18.5c0 16.667 -3.5 31 -10.5 43s-19.833 18 -38.5 18c-12 0 -22.5 -2.83301 -31.5 -8.5s-16.833 -13 -23.5 -22s-12.334 -19.333 -17.001 -31s-8 -23.834 -10 -36.501
l-75 -378c-1.33301 -6.66699 -2.33301 -13.167 -3 -19.5s-1 -12.5 -1 -18.5c0 -17.333 3.5 -31.833 10.5 -43.5s19.5 -17.5 37.5 -17.5c12 0 22.833 2.83301 32.5 8.5s17.834 13 24.501 22s12.334 19.333 17.001 31s8 23.5 10 35.5l35 179h-57z" />
    <glyph glyph-name="H" unicode="H" horiz-adv-x="361" 
d="M183 0l64 328h-135l-64 -328h-60l129 665h60l-55 -282h136l54 282h60l-129 -665h-60z" />
    <glyph glyph-name="I" unicode="I" horiz-adv-x="166" 
d="M-12 0l129 665h60l-129 -665h-60z" />
    <glyph glyph-name="J" unicode="J" horiz-adv-x="210" 
d="M-33 44c14.667 0.666992 27.332 4.00098 37.999 10.001s19.834 13.667 27.501 23s14 19.666 19 30.999s8.5 23 10.5 35l101 522h60l-100 -514c-20 -102 -75.667 -156 -167 -162z" />
    <glyph glyph-name="K" unicode="K" horiz-adv-x="340" 
d="M207 381l57 -381h-63l-45 323l-63 -93l-45 -230h-60l129 665h60l-67 -347l213 347h64z" />
    <glyph glyph-name="L" unicode="L" horiz-adv-x="288" 
d="M177 665l-119 -610h161l-11 -55h-220l129 665h60z" />
    <glyph glyph-name="M" unicode="M" horiz-adv-x="452" 
d="M-12 0l129 665h74l5 -489h3l194 489h70l-129 -665h-53l106 541h-3l-192 -476h-34l-9 476h-3l-105 -541h-53z" />
    <glyph glyph-name="N" unicode="N" horiz-adv-x="369" 
d="M251 0h-70l-33 550h-2l-108 -550h-50l129 665h70l31 -560h3l108 560h51z" />
    <glyph glyph-name="O" unicode="O" 
d="M253 150c-10.667 -52 -28.668 -91.666 -54.001 -118.999s-58.666 -41 -99.999 -41c-64 0 -96 34.667 -96 104c0 17.333 2 36.666 6 57.999l71 362c10 52 27.667 91.833 53 119.5s58 41.5 98 41.5c32.667 0 57.167 -9.33301 73.5 -28s24.5 -45 24.5 -79
c0 -16.667 -2 -35 -6 -55zM264.999 521.001c1.33301 6.66699 2.33691 13.165 3.00391 19.498s1 12.833 1 19.5c0 16.667 -3.33301 30.834 -10 42.501s-19.334 17.5 -38.001 17.5c-11.333 0 -21.5 -2.83301 -30.5 -8.5s-16.833 -13 -23.5 -22s-12.167 -19.5 -16.5 -31.5
s-7.5 -24.333 -9.5 -37l-73 -376c-2.66699 -12.667 -4 -26.334 -4 -41.001c0 -16 3.16699 -29.833 9.5 -41.5s18.166 -17.5 35.499 -17.5c12.667 0 23.667 2.83301 33 8.5s17.166 13.334 23.499 23.001s11.666 20.334 15.999 32.001s7.5 23.5 9.5 35.5z" />
    <glyph glyph-name="P" unicode="P" horiz-adv-x="334" 
d="M314 437c-10.667 -52.667 -28.668 -92.667 -54.001 -120s-58.666 -41 -99.999 -41h-58l-54 -276h-60l129 665h118c65.333 0 98 -34.667 98 -104c0 -17.333 -2 -36.333 -6 -57zM267.999 512c1.33301 6.66699 2.33301 13.167 3 19.5s1 12.5 1 18.5
c0 17.333 -3.5 31.5 -10.5 42.5s-20.167 16.5 -39.5 16.5h-56l-54 -278h56c24 0 42.833 10 56.5 30s23.167 43.333 28.5 70z" />
    <glyph glyph-name="Q" unicode="Q" 
d="M253 151c-18 -91.333 -58.6689 -143 -122.002 -155c-1.33301 -25.333 3.83398 -45.166 15.501 -59.499s31.834 -21.5 60.501 -21.5l-10 -55c-51.333 0 -86.5 12.167 -105.5 36.5s-26.167 56.833 -21.5 97.5c-22.667 4.66699 -39.5 15.5 -50.5 32.5s-16.5 39.5 -16.5 67.5
c0 17.333 2 36.666 6 57.999l71 362c10 52 27.667 91.833 53 119.5s58 41.5 98 41.5c32.667 0 57.167 -9.33301 73.5 -28s24.5 -45 24.5 -79c0 -16.667 -2 -35 -6 -55zM264.998 521c1.33301 6.66699 2.33691 13.165 3.00391 19.498s1 12.833 1 19.5
c0 16.667 -3.33301 30.834 -10 42.501s-19.334 17.5 -38.001 17.5c-11.333 0 -21.5 -2.83301 -30.5 -8.5s-16.833 -13 -23.5 -22s-12.167 -19.5 -16.5 -31.5s-7.5 -24.333 -9.5 -37l-73 -376c-2.66699 -12.667 -4 -26.334 -4 -41.001c0 -16 3.16699 -29.833 9.5 -41.5
s18.166 -17.5 35.499 -17.5c12.667 0 23.667 2.83301 33 8.5s17.166 13.334 23.499 23.001s11.666 20.334 15.999 32.001s7.5 23.5 9.5 35.5z" />
    <glyph glyph-name="R" unicode="R" horiz-adv-x="343" 
d="M326 480c-7.33301 -36.667 -19.167 -67.668 -35.5 -93.001s-36.5 -43.666 -60.5 -54.999l27 -332h-64l-18 315h-66l-61 -315h-60l129 665h122c32.667 0 57.167 -8.83301 73.5 -26.5s24.5 -43.5 24.5 -77.5c0 -17.333 -2 -36.333 -6 -57zM271.999 511.999
c1.33301 6.66699 2.33203 13.167 2.99902 19.5s1 12.5 1 18.5c0 17.333 -3.66699 31.5 -11 42.5s-20.666 16.5 -39.999 16.5h-59l-46 -239h58c24.667 0 43.667 9.5 57 28.5s23 42.5 29 70.5z" />
    <glyph glyph-name="S" unicode="S" horiz-adv-x="302" 
d="M70 529c4 20.667 10.002 39.8271 18.002 57.4941s18 33 30 46s26.167 23.333 42.5 31s35.166 11.5 56.499 11.5c30.667 0 54.167 -8.5 70.5 -25.5s24.5 -42.5 24.5 -76.5c0 -16 -2 -34 -6 -54l-5 -22h-60l5 27c1.33301 7.33301 2.5 14.333 3.5 21s1.5 13.334 1.5 20.001
c0 16 -3.16699 29.167 -9.5 39.5s-18.166 15.5 -35.499 15.5c-20 0 -36.5 -8.66699 -49.5 -26s-21.833 -38.333 -26.5 -63l-6 -30c-4.66699 -23.333 -3.66699 -43.666 3 -60.999s20 -35.666 40 -54.999c21.333 -20.667 39.833 -43 55.5 -67s23.5 -53 23.5 -87
c0 -6 -0.333008 -12.333 -1 -19s-1.66699 -13.667 -3 -21l-11 -55c-3.33301 -19.333 -9 -37.666 -17 -54.999s-18.167 -32.833 -30.5 -46.5s-26.833 -24.5 -43.5 -32.5s-35.334 -12 -56.001 -12c-32 0 -55.667 8.83301 -71 26.5s-23 42.834 -23 75.501c0 17.333 2 36 6 56
l4 20h60l-4 -23c-1.33301 -8 -2.5 -15.833 -3.5 -23.5s-1.5 -15.167 -1.5 -22.5c0 -15.333 3 -28.166 9 -38.499s17.667 -15.5 35 -15.5c19.333 0 35.5 8.83301 48.5 26.5s22.167 38.834 27.5 63.501l9 44c1.33301 6 2.33301 11.833 3 17.5s1 11.167 1 16.5
c0 22.667 -4.83301 43.167 -14.5 61.5s-23.834 36.5 -42.501 54.5c-10 10 -19.167 19.667 -27.5 29s-15.5 19 -21.5 29s-10.667 20.5 -14 31.5s-5 23.167 -5 36.5c0 5.33301 0.333008 11.166 1 17.499s1.66699 12.833 3 19.5z" />
    <glyph glyph-name="T" unicode="T" horiz-adv-x="307" 
d="M57 0l118 609h-106l11 56h275l-11 -56h-109l-118 -609h-60z" />
    <glyph glyph-name="U" unicode="U" horiz-adv-x="347" 
d="M360 665l-99.999 -514c-10 -52 -27.5 -91.833 -52.5 -119.5s-57.833 -41.5 -98.5 -41.5c-66.667 0 -100 35.333 -100 106c0 16.667 2 35 6 55l100 514h60l-102 -522c-1.33301 -6.66699 -2.33301 -13 -3 -19s-1 -12 -1 -18c0 -18 3.66699 -32.667 11 -44
s19.666 -17 36.999 -17c23.333 0 41.333 9.16699 54 27.5s21.667 41.833 27 70.5l102 522h60z" />
    <glyph glyph-name="V" unicode="V" horiz-adv-x="322" 
d="M135 0h-77l28 665h60l-34 -572h3l189 572h60z" />
    <glyph glyph-name="W" unicode="W" horiz-adv-x="473" 
d="M320 665l-31 -557h2l164 557h60l-211 -665h-61l24 502h-3l-172 -502h-58l52 665h60l-58 -557h3l185 557h44z" />
    <glyph glyph-name="X" unicode="X" horiz-adv-x="321" 
d="M237 0h-62l-27 276h-3l-129 -276h-62l169 338l-39 327h61l27 -277h2l129 277h61l-170 -333z" />
    <glyph glyph-name="Y" unicode="Y" horiz-adv-x="332" 
d="M173 215l-42 -215h-60l42 216l-27 449h62l10 -363h3l151 363h62z" />
    <glyph glyph-name="Z" unicode="Z" horiz-adv-x="281" 
d="M82 609l11 56h228l-13 -66l-282 -544h171l-10 -55h-228l13 66l282 543h-172z" />
    <glyph glyph-name="bracketleft" unicode="[" horiz-adv-x="238" 
d="M153 783h141l-10 -56h-82l-151 -776h82l-11 -56h-142z" />
    <glyph glyph-name="backslash" unicode="\" horiz-adv-x="270" 
d="M79 710h54l49 -799h-55z" />
    <glyph glyph-name="bracketright" unicode="]" horiz-adv-x="238" 
d="M88 -105h-142l11 56h82l151 776h-82l11 56h141z" />
    <glyph glyph-name="asciicircum" unicode="^" horiz-adv-x="318" 
d="M208 448l60 -238h-63l-37 171l-103 -171h-63l153 238h53z" />
    <glyph glyph-name="underscore" unicode="_" horiz-adv-x="314" 
d="M-44 -22h264l-12 -60h-264z" />
    <glyph glyph-name="grave" unicode="`" horiz-adv-x="350" 
d="M248 683l18 -135h-48l-32 135h62z" />
    <glyph glyph-name="a" unicode="a" horiz-adv-x="320" 
d="M230 432c-2 8 -6.66992 15.833 -14.0029 23.5s-17.666 11.5 -30.999 11.5c-21.333 0 -37.666 -9.16699 -48.999 -27.5s-19.666 -41.5 -24.999 -69.5l-46 -235c-4 -17.333 -6 -32.666 -6 -45.999c0 -14.667 2.83301 -26.334 8.5 -35.001s16.167 -13 31.5 -13
c12 0 23.833 4.83301 35.5 14.5s21.5 21.167 29.5 34.5zM179.997 518c21.333 0 37.3311 -4.83105 47.998 -14.498s18.334 -20.834 23.001 -33.501l15 38h39l-82 -422c-5.33301 -27.333 1.66699 -41 21 -41l-10 -55c-26 0 -43.667 5.16699 -53 15.5
s-14.666 26.166 -15.999 47.499c-11.333 -18 -24.5 -33 -39.5 -45s-32.5 -18 -52.5 -18c-48.667 0 -73 30 -73 90c0 16.667 2 36.667 6 60l44 226c20 101.333 63.333 152 130 152z" />
    <glyph glyph-name="b" unicode="b" horiz-adv-x="324" 
d="M62 75c2 -8 6.83496 -15.667 14.502 -23s18.167 -11 31.5 -11c19.333 0 35.166 9 47.499 27s21.166 41.667 26.499 71l46 235c3.33301 15.333 5 29 5 41c0 15.333 -3 27.833 -9 37.5s-16.667 14.5 -32 14.5c-13.333 0 -25.333 -5 -36 -15s-19.667 -21.333 -27 -34z
M30.002 0h-42l138 710h54l-7 -65l-36 -186c9.33301 17.333 21.666 31.5 36.999 42.5s31.666 16.5 48.999 16.5c46.667 0 70 -29.667 70 -89c0 -19.333 -2.33301 -40.333 -7 -63l-42 -216c-10.667 -54.667 -27.167 -95 -49.5 -121s-50.166 -39 -83.499 -39
c-19.333 0 -34.166 4.66699 -44.499 14s-17.5 20 -21.5 32z" />
    <glyph glyph-name="c" unicode="c" horiz-adv-x="305" 
d="M212 336l7 34c4 16 6 31 6 45c0 15.333 -3.16699 27.833 -9.5 37.5s-17.166 14.5 -32.499 14.5c-11.333 0 -21 -2.66699 -29 -8s-14.833 -12.5 -20.5 -21.5s-10.334 -19.333 -14.001 -31s-6.83398 -23.834 -9.50098 -36.501l-45 -232l-4 -24
c-1.33301 -8 -2 -15.667 -2 -23c0 -14.667 2.83301 -26.667 8.5 -36s16.167 -14 31.5 -14c22 0 38.333 9.5 49 28.5s19 41.833 25 68.5l7 34h57l-6 -27c-10.667 -50 -26.667 -88.333 -48 -115s-52 -40 -92 -40c-32 0 -55 8.33301 -69 25s-21 41 -21 73
c0 20.667 2.33301 41.667 7 63l40 207c10 52 26.333 91.667 49 119s54.334 41 95.001 41c31.333 0 54 -7.83301 68 -23.5s21 -38.834 21 -69.501c0 -9.33301 -0.5 -19.166 -1.5 -29.499s-2.83301 -21.166 -5.5 -32.499l-5 -27h-57z" />
    <glyph glyph-name="d" unicode="d" horiz-adv-x="326" 
d="M230 432c-2 8 -6.66895 15.833 -14.002 23.5s-17.666 11.5 -30.999 11.5c-21.333 0 -37.666 -9.16699 -48.999 -27.5s-19.666 -41.5 -24.999 -69.5l-46 -235c-1.33301 -8.66699 -2.5 -16.667 -3.5 -24s-1.5 -14.666 -1.5 -21.999c0 -14.667 2.66699 -26.334 8 -35.001
s15.666 -13 30.999 -13c12 0 23.833 4.83301 35.5 14.5s21.5 21.167 29.5 34.5zM222.998 85c-3.33301 -15.333 -3.33398 -25.832 -0.000976562 -31.499s10.333 -8.5 21 -8.5l-10 -55c-26 0 -43.667 5.16699 -53 15.5s-14.666 26.166 -15.999 47.499
c-11.333 -18 -24.5 -33 -39.5 -45s-33.167 -18 -54.5 -18c-47.333 0 -71 30 -71 90c0 16.667 2 36.667 6 60l44 226c10 52.667 25.333 91.167 46 115.5s47 36.5 79 36.5c18.667 0 33 -4.33301 43 -13s16.667 -18.667 20 -30l46 235h55l-7 -65z" />
    <glyph glyph-name="e" unicode="e" horiz-adv-x="307" 
d="M95 286c30.667 2 56.334 8.00195 77.001 18.002s34.667 30.333 42 61l6 26c1.33301 5.33301 2.33301 10.166 3 14.499s1 8.83301 1 13.5c0 13.333 -3 24.666 -9 33.999s-16.333 14 -31 14c-11.333 0 -21 -2.83301 -29 -8.5s-14.833 -13 -20.5 -22
s-10.334 -19.333 -14.001 -31s-6.5 -23.5 -8.5 -35.5zM177 155.002l59.001 -0.00195312l-3 -13c-9.33301 -48 -25.333 -85.333 -48 -112s-54 -40 -94 -40c-32 0 -55 8.16699 -69 24.5s-21 40.166 -21 71.499c0 9.33301 0.666992 19.333 2 30s3 22 5 34l41 207
c10 52 26.333 91.833 49 119.5s54 41.5 94 41.5c30 0 52.667 -8.33301 68 -25s23 -39 23 -67c0 -11.333 -1.66699 -24.666 -5 -39.999l-6 -30c-5.33301 -24 -14 -43.333 -26 -58s-26.333 -26.167 -43 -34.5s-35.167 -14.166 -55.5 -17.499
s-41.166 -5.66602 -62.499 -6.99902l-19 -101l-4 -24c-1.33301 -8 -2 -15.667 -2 -23c0 -14.667 2.83301 -26.667 8.5 -36s16.167 -14 31.5 -14c21.333 0 37.666 9.33301 48.999 28s19.666 41 24.999 67z" />
    <glyph glyph-name="f" unicode="f" horiz-adv-x="222" 
d="M137 457l-89.001 -457.001h-60l106 542c10.667 54.667 27.834 96.334 51.501 125.001s55.167 43 94.5 43c23.333 0 41.333 -4.33301 54 -13s22.667 -19.667 30 -33l-43 -34c-4 8.66699 -9.33301 15.667 -16 21s-16 8 -28 8c-12.667 0 -23.5 -3 -32.5 -9
s-16.667 -13.833 -23 -23.5s-11.5 -20.667 -15.5 -33s-7.33301 -24.5 -10 -36.5l-9 -49h100l-10 -51h-100z" />
    <glyph glyph-name="g" unicode="g" horiz-adv-x="321" 
d="M230 432c-2 8.66699 -6.83496 16.667 -14.502 24s-18.167 11 -31.5 11c-20.667 0 -36.667 -9.16699 -48 -27.5s-19.666 -41.5 -24.999 -69.5l-45 -232l-4 -25c-1.33301 -8 -2 -15.667 -2 -23c0 -14.667 2.83301 -26.5 8.5 -35.5s15.834 -13.5 30.501 -13.5
c12.667 0 24.5 4.83301 35.5 14.5s20.5 21.167 28.5 34.5zM24.998 -78l-1.99707 -8.99902c-5.33301 -21.333 -4.5 -38.666 2.5 -51.999s19.167 -20 36.5 -20c22 0 38.167 9.16699 48.5 27.5s18.166 41.5 23.499 69.5l21 110c-10.667 -17.333 -23 -31.333 -37 -42
s-30.667 -16 -50 -16c-23.333 0 -40.5 6.66699 -51.5 20s-16.5 34.666 -16.5 63.999c0 10.667 0.5 22.167 1.5 34.5s3.16699 26.166 6.5 41.499l40 208c10 52 26 91.667 48 119s50.333 41 85 41c21.333 0 37.166 -4.83301 47.499 -14.5s17.833 -20.834 22.5 -33.501l15 38
h39l-108 -557c-10.667 -52 -27.334 -91.833 -50.001 -119.5s-54 -41.5 -94 -41.5c-30 0 -53.167 7.33301 -69.5 22s-24.5 36 -24.5 64c0 12.667 1.33301 24.334 4 35.001l3 11h59z" />
    <glyph glyph-name="h" unicode="h" horiz-adv-x="329" 
d="M137 459c10 14.667 22.1689 28.165 36.502 40.498s32.166 18.5 53.499 18.5c44 0 66 -28 66 -84c0 -10 -0.666992 -21 -2 -33s-3.33301 -25 -6 -39l-71 -362h-55l8 64l59 306c1.33301 9.33301 2.66602 18 3.99902 26s2 15.667 2 23c0 14.667 -2.83301 26.334 -8.5 35.001
s-15.167 13 -28.5 13c-14.667 0 -27.5 -5.16699 -38.5 -15.5s-20.167 -22.166 -27.5 -35.499l-81 -416h-60l138 710h54l-7 -65z" />
    <glyph glyph-name="i" unicode="i" horiz-adv-x="165" 
d="M87 508h53l-6 -65l-86 -443h-60zM145 651c20.667 0 31 -9.99902 31 -29.999c0 -14 -4.33301 -25.167 -13 -33.5s-19.667 -12.5 -33 -12.5c-9.33301 0 -17 2.83301 -23 8.5s-9 13.167 -9 22.5c0 13.333 4.5 24.166 13.5 32.499s20.167 12.5 33.5 12.5z" />
    <glyph glyph-name="j" unicode="j" horiz-adv-x="166" 
d="M140 508l-6.00098 -65l-94 -483c-12 -60.667 -29.833 -104.167 -53.5 -130.5s-55.834 -39.5 -96.501 -39.5l11 55c12.667 0 23.334 2.83301 32.001 8.5s16 13.5 22 23.5s10.833 21.667 14.5 35s6.83398 27.333 9.50098 42l108 554h53zM144.999 651
c20.667 0 31 -9.99902 31 -29.999c0 -14 -4.33301 -25.167 -13 -33.5s-19.667 -12.5 -33 -12.5c-21.333 0 -32 10.333 -32 31c0 13.333 4.5 24.166 13.5 32.499s20.167 12.5 33.5 12.5z" />
    <glyph glyph-name="k" unicode="k" horiz-adv-x="313" 
d="M195 324l38 -324h-61l-27 270l-60 -77l-37 -193h-60l138 710h54l-7 -64l-74 -384l170 246h61z" />
    <glyph glyph-name="l" unicode="l" horiz-adv-x="165" 
d="M173 645l-125 -645h-55l8 65l125 645h54z" />
    <glyph glyph-name="m" unicode="m" horiz-adv-x="491" 
d="M212 0l-59.999 0.00292969l72 370c2 9.33301 3.66699 18.5 5 27.5s2 17.167 2 24.5c0 13.333 -2.66699 24.166 -8 32.499s-14.666 12.5 -27.999 12.5c-14.667 0 -27.5 -5.16699 -38.5 -15.5s-20.167 -22.166 -27.5 -35.499l-81 -416h-60l99 508h51l-4 -50
c10 17.333 22.667 31.666 38 42.999s33.333 17 54 17c20 0 35.667 -5.66699 47 -17s17.666 -27.666 18.999 -48.999c9.33301 17.333 22.333 32.666 39 45.999s35.667 20 57 20c44.667 0 67 -28.667 67 -86c0 -10 -0.666992 -20.833 -2 -32.5s-3.33301 -24.167 -6 -37.5
l-71 -362h-55l8 65l59 305c1.33301 9.33301 2.66602 18.166 3.99902 26.499s2 16.166 2 23.499c0 14 -2.66699 25.333 -8 34s-14.666 13 -27.999 13c-14.667 0 -27.334 -5.33301 -38.001 -16s-19.667 -21.667 -27 -33z" />
    <glyph glyph-name="n" unicode="n" horiz-adv-x="329" 
d="M134 458c9.33301 17.333 22.334 31.665 39.001 42.998s34.667 17 54 17c44 0 66 -28 66 -84c0 -10 -0.666992 -21 -2 -33s-3.33301 -25 -6 -39l-71 -362h-54l7 65l59 305c1.33301 9.33301 2.66602 18 3.99902 26s2 15.667 2 23c0 14.667 -2.83301 26.334 -8.5 35.001
s-15.167 13 -28.5 13c-14.667 0 -27.5 -5.16699 -38.5 -15.5s-20.167 -22.166 -27.5 -35.499l-81 -416h-60l99 508h52z" />
    <glyph glyph-name="o" unicode="o" horiz-adv-x="315" 
d="M235 149c-10 -52 -26.332 -91.502 -48.999 -118.502s-54.334 -40.5 -95.001 -40.5c-32 0 -55 8 -69 24s-21 40 -21 72c0 9.33301 0.5 19.333 1.5 30s2.83301 21.667 5.5 33l41 210c10 52 26.167 91.5 48.5 118.5s53.833 40.5 94.5 40.5c32 0 55.167 -8.16699 69.5 -24.5
s21.5 -40.5 21.5 -72.5c0 -9.33301 -0.666992 -19.166 -2 -29.499s-3 -21.166 -5 -32.499zM218.001 369.998c1.33301 8 2.50098 15.667 3.50098 23s1.5 14.666 1.5 21.999c0 15.333 -2.66699 27.833 -8 37.5s-15.666 14.5 -30.999 14.5c-11.333 0 -21 -2.83301 -29 -8.5
s-14.833 -13 -20.5 -22s-10.334 -19.333 -14.001 -31s-6.83398 -23.5 -9.50098 -35.5l-45 -232c-1.33301 -8 -2.5 -16 -3.5 -24s-1.5 -15.667 -1.5 -23c0 -14.667 2.66699 -26.667 8 -36s15.666 -14 30.999 -14c10.667 0 20 2.66699 28 8s15 12.5 21 21.5
s10.833 19.333 14.5 31s6.83398 23.834 9.50098 36.501z" />
    <glyph glyph-name="p" unicode="p" horiz-adv-x="323" 
d="M85 508l53.001 0.00292969l-6 -50c10 17.333 23.167 31.666 39.5 42.999s34.166 17 53.499 17c44.667 0 67 -28.333 67 -85c0 -18.667 -2.66699 -42.334 -8 -71.001l-41 -212c-10.667 -54.667 -26.334 -95 -47.001 -121s-47.667 -39 -81 -39
c-16 0 -29.167 3.66699 -39.5 11s-18.166 15.666 -23.499 24.999l-34 -171l-19 -65h-53zM61.001 72.0029c1.33301 -7.33301 5.99902 -14.335 13.999 -21.002s18.667 -10 32 -10c20 0 36 9.16699 48 27.5s20.667 41.5 26 69.5l45 232c1.33301 8 2.5 15.833 3.5 23.5
s1.5 15.167 1.5 22.5c0 14.667 -2.66699 26.834 -8 36.501s-15.333 14.5 -30 14.5c-14 0 -26.667 -5.16699 -38 -15.5s-20.666 -22.166 -27.999 -35.499z" />
    <glyph glyph-name="q" unicode="q" horiz-adv-x="323" 
d="M230 428c-2 8 -6.66895 16.001 -14.002 24.001s-17.666 12 -30.999 12c-21.333 0 -37.833 -9.5 -49.5 -28.5s-20.167 -42.5 -25.5 -70.5l-44 -227c-1.33301 -8.66699 -2.66602 -16.834 -3.99902 -24.501s-2 -15.167 -2 -22.5c0 -14.667 2.83301 -26.667 8.5 -36
s16.167 -14 31.5 -14c13.333 0 25.333 4.83301 36 14.5s20 21.167 28 34.5zM153.998 38.001c-10 -13.333 -21.833 -24.666 -35.5 -33.999s-29.5 -14 -47.5 -14c-23.333 0 -40.833 8 -52.5 24s-17.5 39 -17.5 69c0 9.33301 0.5 19.666 1.5 30.999s2.83301 23.333 5.5 36
l40 208c10 52 25.333 91.667 46 119s48.667 41 84 41c19.333 0 34 -4.83301 44 -14.5s17 -21.167 21 -34.5l14 39h48l-140 -718h-54l7 65z" />
    <glyph glyph-name="r" unicode="r" horiz-adv-x="231" 
d="M87 508l52.001 0.000976562l-5 -50c9.33301 15.333 21.833 29.166 37.5 41.499s32.167 18.5 49.5 18.5c9.33301 0 16.833 -1 22.5 -3s11.167 -5.33301 16.5 -10l-29 -55c-4 4 -8.5 6.66699 -13.5 8s-10.167 2 -15.5 2c-14.667 0 -28.334 -5 -41.001 -15
s-23.667 -21.667 -33 -35l-80 -410h-60z" />
    <glyph glyph-name="s" unicode="s" horiz-adv-x="284" 
d="M55 153l-1.99902 -10.002c-4 -18 -6 -35.333 -6 -52c0 -14.667 2.66699 -26.667 8 -36s15 -14 29 -14c10.667 0 20.5 3.16699 29.5 9.5s16.833 14.666 23.5 24.999s11.834 22 15.501 35s5.5 26.167 5.5 39.5c0 18 -4.33301 35.167 -13 51.5s-22.667 32.5 -42 48.5
c-20 15.333 -35.667 32.333 -47 51s-17 40.667 -17 66c0 18.667 3 37 9 55s14.667 34.167 26 48.5s25.666 25.833 42.999 34.5s37 13 59 13c58 0 87 -32.333 87 -97c0 -8 -0.333008 -16.5 -1 -25.5s-2 -18.167 -4 -27.5l-2 -10h-59l3 14c3.33301 16.667 5 31.334 5 44.001
c0 14.667 -2.66699 26.834 -8 36.501s-15.333 14.5 -30 14.5c-12 0 -22.333 -2.66699 -31 -8s-15.667 -12.333 -21 -21s-9.16602 -18 -11.499 -28s-3.5 -20 -3.5 -30c0 -18 4.66699 -34 14 -48s23.666 -28.333 42.999 -43c21.333 -15.333 36.833 -33.5 46.5 -54.5
s14.5 -43.833 14.5 -68.5c0 -19.333 -2.83301 -39.333 -8.5 -60s-14.334 -39.5 -26.001 -56.5s-26.167 -31.167 -43.5 -42.5s-38 -17 -62 -17c-60 0 -90 31.333 -90 94c0 18.667 2.33301 38.334 7 59.001l2 10h58z" />
    <glyph glyph-name="t" unicode="t" horiz-adv-x="231" 
d="M156 5c-9.33301 -4.66699 -18.5 -8.33496 -27.5 -11.002s-19.833 -4 -32.5 -4c-30.667 0 -53 7.83301 -67 23.5s-21 39.5 -21 71.5c0 20.667 2.33301 42.334 7 65.001l89 458h53l-5 -63l-7 -37h95l-9 -51h-97l-61 -314c-3.33301 -15.333 -5 -29.666 -5 -42.999
c0 -15.333 3 -28.333 9 -39s17 -16 33 -16c8 0 15.167 0.833008 21.5 2.5s12.833 4.16699 19.5 7.5z" />
    <glyph glyph-name="u" unicode="u" horiz-adv-x="329" 
d="M83 508l59.998 0.000976562l-72 -370l-4 -25c-1.33301 -8 -2 -15.667 -2 -23c0 -15.333 2.83301 -27.333 8.5 -36s15.834 -13 30.501 -13c13.333 0 25.5 4.66699 36.5 14s20.167 20.666 27.5 33.999l81 419h60l-82 -423c-2.66699 -12 -2.66699 -21.667 0 -29
s9.66699 -11 21 -11l-10 -55c-26 0 -43.667 5.33301 -53 16s-14.333 26.667 -15 48c-12 -19.333 -25.667 -34.833 -41 -46.5s-33.666 -17.5 -54.999 -17.5c-46 0 -69 29.333 -69 88c0 19.333 2.33301 40.333 7 63z" />
    <glyph glyph-name="v" unicode="v" horiz-adv-x="295" 
d="M115 0h-66l7 508h60l-23 -442h3l149 442h60z" />
    <glyph glyph-name="w" unicode="w" horiz-adv-x="460" 
d="M238 508h51l-14 -404h3l133 404h60l-177 -508h-60l9 394h-3l-144 -394h-60l20 508h60l-25 -404h3z" />
    <glyph glyph-name="x" unicode="x" horiz-adv-x="278" 
d="M113 508l20 -196h3l97 196h59l-137 -253l38 -255h-60l-25 196h-2l-91 -196h-60l134 265l-36 243h60z" />
    <glyph glyph-name="y" unicode="y" horiz-adv-x="288" 
d="M61 508h59.998l-22 -410h3l139 410h60l-212 -565c-17.333 -46 -40.166 -82.833 -68.499 -110.5s-63.5 -41.5 -105.5 -41.5l10 54c19.333 0 39.333 8.5 60 25.5s37.334 42.833 50.001 77.5l15 40z" />
    <glyph glyph-name="z" unicode="z" horiz-adv-x="239" 
d="M51 453l11 55h188l-12 -64l-215 -389h133l-10 -55h-188l12 61l216 392h-135z" />
    <glyph glyph-name="braceleft" unicode="{" horiz-adv-x="277" 
d="M82 262c4 20 3.16699 33.332 -2.5 39.999s-18.5 10 -38.5 10h-13l10 56h13c20 0 34.167 3.33301 42.5 10s14.5 20 18.5 40l37 190c22 116.667 81 175 177 175h18l-11 -56h-18c-27.333 0 -50 -10.333 -68 -31s-31.333 -53 -40 -97l-37 -193
c-3.33301 -18 -10.333 -33 -21 -45s-23.667 -18 -39 -18h-9l-2 -6h9c15.333 0 26 -6.16699 32 -18.5s7.33301 -27.166 4 -44.499l-39 -203c-4 -21.333 -6 -39.666 -6 -54.999c0 -23.333 5.16699 -40 15.5 -50s26.833 -15 49.5 -15h18l-11 -56h-18
c-39.333 0 -68.5 9.66699 -87.5 29s-28.5 47.666 -28.5 84.999c0 8 0.333008 16.5 1 25.5s2 18.167 4 27.5z" />
    <glyph glyph-name="bar" unicode="|" horiz-adv-x="236" 
d="M3 -105l173 888h60l-173 -888h-60z" />
    <glyph glyph-name="braceright" unicode="}" horiz-adv-x="277" 
d="M198 422c-4 -20 -3.16699 -33.332 2.5 -39.999s18.5 -10 38.5 -10h13l-10 -56h-13c-20 0 -34.167 -3.33301 -42.5 -10s-14.5 -20 -18.5 -40l-38 -196c-22 -116.667 -81 -175 -177 -175h-18l11 56h18c26.667 0 49.167 10.333 67.5 31s31.833 53 40.5 97l38 199
c3.33301 18 10.333 33 21 45s23.667 18 39 18h9l2 6h-9c-15.333 0 -26 6.16699 -32 18.5s-7.33301 27.166 -4 44.499l38 197c4 20 6 37.333 6 52c0 24.667 -5.5 42.167 -16.5 52.5s-27.5 15.5 -49.5 15.5h-18l12 56h18c39.333 0 68.5 -9.66699 87.5 -29
s28.5 -47.333 28.5 -84c0 -16 -2 -34 -6 -54z" />
    <glyph glyph-name="asciitilde" unicode="~" horiz-adv-x="318" 
d="M297 365c-8 -41.333 -20.001 -70.3311 -36.001 -86.998s-34.333 -25 -55 -25c-12 0 -22 2.16699 -30 6.5s-15.667 9.83301 -23 16.5c-7.33301 7.33301 -14.666 14.166 -21.999 20.499s-16 9.5 -26 9.5c-21.333 0 -35.333 -17.667 -42 -53h-52c8 40.667 21 69.5 39 86.5
s36.333 25.5 55 25.5c11.333 0 20.833 -2.16699 28.5 -6.5s15.167 -9.83301 22.5 -16.5l21 -20.5c7.33301 -7 16.333 -10.5 27 -10.5c10 0 18.5 4.16699 25.5 12.5s12.167 22.166 15.5 41.499h52z" />
    <glyph glyph-name="uni00A0" unicode="&#xa0;" horiz-adv-x="134" 
 />
    <glyph glyph-name="exclamdown" unicode="&#xa1;" horiz-adv-x="228" 
d="M-13 -160l101 518h53l-6 -68l-87 -450h-61zM184 484c0 -13.333 -5 -24.666 -15 -33.999s-21.667 -14 -35 -14c-10.667 0 -19 3.16699 -25 9.5s-9 14.5 -9 24.5c0 13.333 4.83301 24.666 14.5 33.999s21.167 14 34.5 14c10.667 0 19.167 -3.16699 25.5 -9.5
s9.5 -14.5 9.5 -24.5z" />
    <glyph glyph-name="cent" unicode="&#xa2;" horiz-adv-x="301" 
d="M46 -68l12 63.001c-39.333 9.33301 -59 39.666 -59 90.999c0 9.33301 0.666992 19.333 2 30s3 21.667 5 33l40 208c8.66699 44 21.834 79.333 39.501 106s42.167 43 73.5 49l11 64h60l-11 -63c21.333 -4 36.666 -13.667 45.999 -29s14 -35.666 14 -60.999
c0 -16.667 -2 -36 -6 -58l-5 -29h-58l3 16c5.33301 25.333 8 46.666 8 63.999c0 15.333 -2.83301 27.666 -8.5 36.999s-15.5 14 -29.5 14c-11.333 0 -21.166 -2.66699 -29.499 -8s-15.333 -12.5 -21 -21.5s-10.5 -19.333 -14.5 -31s-7 -23.5 -9 -35.5l-46 -233
c-1.33301 -8 -2.5 -16 -3.5 -24s-1.5 -15.667 -1.5 -23c0 -14.667 2.66699 -26.667 8 -36s15.666 -14 30.999 -14c12 0 22 3 30 9s15 14.333 21 25s11 22.834 15 36.501s7.66699 28.5 11 44.5l3 16h58l-5 -28c-9.33301 -44 -22.833 -78.5 -40.5 -103.5
s-41.5 -40.167 -71.5 -45.5l-12 -63h-60z" />
    <glyph glyph-name="sterling" unicode="&#xa3;" horiz-adv-x="355" 
d="M29 297h40.001l42 217c10 52 27.667 91.833 53 119.5s58.666 41.5 99.999 41.5c64 0 96 -35.333 96 -106c0 -17.333 -2 -37 -6 -59l-3 -14h-60l5 27c1.33301 6.66699 2.33301 13.334 3 20.001s1 13 1 19c0 16.667 -3.33301 30.5 -10 41.5s-19 16.5 -37 16.5
c-11.333 0 -21.5 -2.83301 -30.5 -8.5s-16.833 -13.167 -23.5 -22.5s-12.167 -19.833 -16.5 -31.5s-7.83301 -23.834 -10.5 -36.501l-44 -224h127l-11 -55h-126l-37 -187h184l-10 -55h-284l10 55h40l37 187h-40z" />
    <glyph glyph-name="currency" unicode="&#xa4;" horiz-adv-x="328" 
d="M270 296c-6.66699 -36 -14.3311 -63.666 -22.998 -82.999s-20.667 -36 -36 -50l19 -85h-54l-14 58c-11.333 -4 -24 -6 -38 -6c-14.667 0 -26.667 2.33301 -36 7l-36 -59h-54l52 86c-5.33301 7.33301 -9.33301 15.666 -12 24.999s-4 20.333 -4 33
c0 17.333 2.33301 36.666 7 57.999l6 36c6 31.333 13.167 56.666 21.5 75.999s20.166 36.333 35.499 51l-19 85h54l13 -59c6 2 12.167 3.66699 18.5 5s13.166 2 20.499 2c13.333 0 25.333 -2.33301 36 -7l37 59h53l-52 -86c10.667 -14.667 16 -34.667 16 -60
c0 -9.33301 -0.5 -19.166 -1.5 -29.499s-2.83301 -22.166 -5.5 -35.499zM214.003 315.001c2 11.333 3.66797 21.999 5.00098 31.999s2 19.333 2 28c0 15.333 -2.83301 27.5 -8.5 36.5s-15.834 13.5 -30.501 13.5c-23.333 0 -40.333 -10.333 -51 -31s-19 -47 -25 -79l-4 -23
c-2 -10.667 -3.83301 -21.167 -5.5 -31.5s-2.5 -19.833 -2.5 -28.5c0 -15.333 2.83301 -27.666 8.5 -36.999s16.167 -14 31.5 -14c21.333 0 37.333 9 48 27s18.667 40.333 24 67z" />
    <glyph glyph-name="yen" unicode="&#xa5;" horiz-adv-x="358" 
d="M54 332h86l-40 333h61l21 -306h3l141 306h62l-172 -333h88l-9 -43h-96l-12 -61h96l-8 -43h-95l-36 -185h-60l36 185h-95l8 43h95l12 61h-95z" />
    <glyph glyph-name="brokenbar" unicode="&#xa6;" horiz-adv-x="236" 
d="M161 401h-60l75 382h60zM137 277l-74 -382h-60l74 382h60z" />
    <glyph glyph-name="section" unicode="&#xa7;" horiz-adv-x="307" 
d="M136 425c-11.333 -6 -20.833 -15.168 -28.5 -27.501s-11.5 -27.166 -11.5 -44.499c0 -16 4.5 -31 13.5 -45s22.833 -29 41.5 -45l19 -15c11.333 8 21 18.333 29 31s12 27.334 12 44.001c0 29.333 -19 58.666 -57 87.999zM105 460.999
c-7.33301 9.33301 -13.1631 20.1621 -17.4961 32.4951s-6.5 26.166 -6.5 41.499c0 18 2.83301 35.833 8.5 53.5s14 33.5 25 47.5s25 25.333 42 34s36.833 13 59.5 13c32 0 55.833 -8.5 71.5 -25.5s23.5 -41.5 23.5 -73.5c0 -16 -2 -34 -6 -54l-2 -10h-60l2 11
c1.33301 8 2.5 15.833 3.5 23.5s1.5 15.167 1.5 22.5c0 15.333 -2.83301 28.333 -8.5 39s-16.167 16 -31.5 16c-12.667 0 -23.5 -3 -32.5 -9s-16.167 -13.5 -21.5 -22.5s-9.33301 -18.833 -12 -29.5s-4 -21 -4 -31c0 -10.667 1.5 -19.834 4.5 -27.501
s7.5 -15.167 13.5 -22.5s13.5 -14.833 22.5 -22.5l32.5 -27.5c35.333 -29.333 53 -64 53 -104c0 -15.333 -2 -29.166 -6 -41.499s-9 -23.333 -15 -33s-12.833 -18.5 -20.5 -26.5s-15.5 -15.667 -23.5 -23c9.33301 -13.333 15.833 -26 19.5 -38s5.5 -24.667 5.5 -38
c0 -18.667 -3.16699 -36.834 -9.5 -54.501s-15.333 -33.167 -27 -46.5s-25.834 -24.166 -42.501 -32.499s-35.667 -12.5 -57 -12.5c-62 0 -93 31.667 -93 95c0 8.66699 0.666992 17.834 2 27.501s3 19.834 5 30.501l2 10h59l-2 -11
c-1.33301 -9.33301 -2.66602 -18.166 -3.99902 -26.499s-2 -16.166 -2 -23.499c0 -14.667 2.66699 -26.834 8 -36.501s15.666 -14.5 30.999 -14.5c12 0 22.5 2.66699 31.5 8s16.5 12.333 22.5 21s10.333 18.334 13 29.001s4 21.334 4 32.001
c0 9.33301 -1.33301 17.666 -4 24.999s-6.83398 14.833 -12.501 22.5s-12.834 15.667 -21.501 24s-19.334 17.833 -32.001 28.5c-17.333 15.333 -30.833 31.833 -40.5 49.5s-14.5 37.5 -14.5 59.5c0 28.667 6 52.334 18 71.001s27 35.334 45 50.001z" />
    <glyph glyph-name="dieresis" unicode="&#xa8;" horiz-adv-x="346" 
d="M179 655c20.667 0 31 -9.99902 31 -29.999c0 -14 -4.33301 -25.167 -13 -33.5s-19.667 -12.5 -33 -12.5c-9.33301 0 -17 2.83301 -23 8.5s-9 13.167 -9 22.5c0 13.333 4.5 24.166 13.5 32.499s20.167 12.5 33.5 12.5zM293 655.001c20.667 0 31 -9.99902 31 -29.999
c0 -14 -4.33301 -25.167 -13 -33.5s-19.667 -12.5 -33 -12.5c-9.33301 0 -17 2.83301 -23 8.5s-9 13.167 -9 22.5c0 13.333 4.5 24.166 13.5 32.499s20.167 12.5 33.5 12.5z" />
    <glyph glyph-name="copyright" unicode="&#xa9;" horiz-adv-x="560" 
d="M485 212c-15.333 -75.333 -44.499 -134.502 -87.499 -177.502s-104.167 -64.5 -183.5 -64.5c-66 0 -114.833 16 -146.5 48s-47.5 75 -47.5 129c0 10 0.666992 20.5 2 31.5s3 22.167 5 33.5l46 236c6.66699 32.667 17 64 31 94s32.167 56.333 54.5 79
s49.166 40.667 80.499 54s67.333 20 108 20c34 0 63 -4.83301 87 -14.5s43.667 -22.667 59 -39s26.5 -35.666 33.5 -57.999s10.5 -46.166 10.5 -71.499c0 -20.667 -2 -42 -6 -64zM479.001 446.998c4 18.667 6 37 6 55c0 19.333 -2.5 37.833 -7.5 55.5
s-13.167 33.167 -24.5 46.5s-26.166 23.833 -44.499 31.5s-40.833 11.5 -67.5 11.5c-32.667 0 -61.334 -5.5 -86.001 -16.5s-45.834 -25.833 -63.501 -44.5s-32 -39.834 -43 -63.501s-18.833 -48.167 -23.5 -73.5l-45 -234c-4 -20 -6 -39.333 -6 -58
c0 -40 11 -73.167 33 -99.5s59 -39.5 111 -39.5c32 0 60.333 5.16699 85 15.5s45.834 24.5 63.501 42.5s32 38.833 43 62.5s19.167 48.834 24.5 75.501zM347.001 398.998l5.00195 28c1.33301 8 2.5 15.667 3.5 23s1.5 14.333 1.5 21c0 14.667 -2.83301 26.667 -8.5 36
s-16.167 14 -31.5 14c-11.333 0 -21 -2.66699 -29 -8s-14.833 -12.5 -20.5 -21.5s-10.334 -19.167 -14.001 -30.5s-6.5 -23 -8.5 -35l-36 -185c-3.33301 -16.667 -5 -31.667 -5 -45c0 -14.667 2.66699 -26.834 8 -36.501s15.666 -14.5 30.999 -14.5c21.333 0 37.333 9 48 27
s18.667 40 24 66l6 28h52l-4 -21c-9.33301 -47.333 -24.5 -83.833 -45.5 -109.5s-50.833 -38.5 -89.5 -38.5c-30 0 -51.333 7.66699 -64 23s-19 38 -19 68c0 19.333 2.33301 40.333 7 63l32 163c9.33301 50 24.333 88.167 45 114.5s50.667 39.5 90 39.5
c30 0 51.5 -7.66699 64.5 -23s19.5 -37.666 19.5 -66.999c0 -17.333 -2 -36.333 -6 -57l-4 -22h-52z" />
    <glyph glyph-name="ordfeminine" unicode="&#xaa;" horiz-adv-x="207" 
d="M89 443c-3.33301 -16.667 -4.00098 -29.167 -2.00098 -37.5s8.33301 -12.5 19 -12.5c7.33301 0 14 2.33301 20 7s11.333 10.667 16 18l39 202c-3.33301 6 -6.66602 10.833 -9.99902 14.5s-8.33301 5.5 -15 5.5c-19.333 0 -32 -15 -38 -45zM73.999 591
c11.333 56 37.665 84 78.998 84c11.333 0 20.333 -2.5 27 -7.5s11.667 -10.833 15 -17.5l12 25h29l-50 -257c-1.33301 -8.66699 -0.833008 -14.5 1.5 -17.5s6.5 -4.83301 12.5 -5.5l-7 -38c-17.333 0.666992 -29.333 4 -36 10s-10.667 15.333 -12 28
c-7.33301 -12 -15.666 -21.333 -24.999 -28s-20.666 -10 -33.999 -10c-30 0 -45 17.333 -45 52c0 8.66699 1 18.667 3 30z" />
    <glyph glyph-name="guillemotleft" unicode="&#xab;" horiz-adv-x="382" 
d="M183 465l33 -41l-134 -132l84 -131l-49 -40l-92 143l11 56zM333 465l33 -41l-134 -132l84 -131l-49 -40l-92 143l11 56z" />
    <glyph glyph-name="logicalnot" unicode="&#xac;" horiz-adv-x="318" 
d="M41 360h246l-28 -144h-55l18 88h-192z" />
    <glyph glyph-name="uni00AD" unicode="&#xad;" horiz-adv-x="222" 
 />
    <glyph glyph-name="registered" unicode="&#xae;" horiz-adv-x="437" 
d="M404 386c-12 -62 -34.833 -110.331 -68.5 -144.998s-81.834 -52 -144.501 -52c-51.333 0 -88.333 12 -111 36s-34 57 -34 99c0 9.33301 0.666992 19.166 2 29.499s3 21.166 5 32.499l22 114c12 61.333 34.833 109.5 68.5 144.5s81.834 52.5 144.501 52.5
c51.333 0 88.333 -12.167 111 -36.5s34 -57.5 34 -99.5c0 -9.33301 -0.666992 -19 -2 -29s-3 -20.667 -5 -32zM376 498.002c4.66699 21.333 7.00098 41.668 7.00098 61.001c0 32.667 -8 56.5 -24 71.5s-42 22.5 -78 22.5c-45.333 0 -80.166 -12.167 -104.499 -36.5
s-41.5 -63.5 -51.5 -117.5l-22 -112c-2 -11.333 -3.66699 -22 -5 -32s-2 -19.667 -2 -29c0 -32.667 8.16699 -56.334 24.5 -71.001s42.166 -22 77.499 -22c45.333 0 80.166 12.333 104.499 37s41.833 63.667 52.5 117zM316.001 505.004
c-3.33301 -16 -8.49805 -29 -15.498 -39s-15.5 -17.667 -25.5 -23l11 -141h-40l-7 135h-22l-27 -135h-39l56 287h58c21.333 0 36.666 -6.16699 45.999 -18.5s11.666 -29.833 6.99902 -52.5zM280.003 520.004c2 11.333 1.5 20 -1.5 26s-9.5 9 -19.5 9h-19l-17 -89h19
c10.667 0 18.5 2.83301 23.5 8.5s8.5 14.5 10.5 26.5z" />
    <glyph glyph-name="macron" unicode="&#xaf;" horiz-adv-x="350" 
d="M152 644h166l-10 -52h-166z" />
    <glyph glyph-name="degree" unicode="&#xb0;" horiz-adv-x="239" 
d="M126 620c0 -12 3.66699 -22 11 -30s17.333 -12 30 -12c16.667 0 31 5.66699 43 17s18 25.333 18 42c0 12 -3.66699 21.833 -11 29.5s-17.333 11.5 -30 11.5c-16.667 0 -31 -5.66699 -43 -17s-18 -25 -18 -41zM80 613c0 14.667 3 28.666 9 41.999s14.333 25 25 35
s23 17.833 37 23.5s28.667 8.5 44 8.5c24 0 43 -7.5 57 -22.5s21 -33.833 21 -56.5c0 -15.333 -3 -29.666 -9 -42.999s-14.167 -25 -24.5 -35s-22.5 -17.833 -36.5 -23.5s-28.667 -8.5 -44 -8.5c-25.333 0 -44.833 7.66699 -58.5 23s-20.5 34.333 -20.5 57z" />
    <glyph glyph-name="plusminus" unicode="&#xb1;" horiz-adv-x="318" 
d="M41 360h95l12 65h56l-12 -65h95l-11 -56h-95l-13 -65h-56l13 65h-95zM11 208h246l-11 -56h-246z" />
    <glyph glyph-name="twosuperior" unicode="&#xb2;" horiz-adv-x="247" 
d="M78 566l1.99609 9.00293c6 31.333 17.833 55.833 35.5 73.5s43.167 26.5 76.5 26.5c32 0 53.167 -8.5 63.5 -25.5s12.833 -38.5 7.5 -64.5l-2 -13c-4 -19.333 -13 -40 -27 -62s-32.667 -47 -56 -75l-92 -119h125l-9 -46h-177l10 53l85 110
c26.667 33.333 47.334 60.166 62.001 80.499s23.667 39.166 27 56.499l1 8c6.66699 34 -2.66602 51 -27.999 51c-15.333 0 -26.666 -4.83301 -33.999 -14.5s-12.666 -22.834 -15.999 -39.501l-2 -9h-52z" />
    <glyph glyph-name="threesuperior" unicode="&#xb3;" horiz-adv-x="247" 
d="M206 577c3.33301 14.667 3.16699 26.999 -0.5 36.999s-12.5 15 -26.5 15s-24.833 -5.33301 -32.5 -16s-13.167 -23.667 -16.5 -39l-2 -8h-51l1 7c6 32 18 57 36 75s42.333 27 73 27c30 0 51 -8.33301 63 -25s15.333 -38.334 10 -65.001l-4 -21
c-4 -21.333 -11.333 -38.833 -22 -52.5s-23 -23.167 -37 -28.5v-2c11.333 -5.33301 19.666 -15.166 24.999 -29.499s6 -32.166 2 -53.499l-7 -33c-6 -32 -18.167 -56.833 -36.5 -74.5s-42.5 -26.5 -72.5 -26.5c-24.667 0 -43.167 6 -55.5 18s-18.5 29 -18.5 51
c0 9.33301 1 19 3 29l3 14h52l-2 -10c-3.33301 -15.333 -3.5 -28.5 -0.5 -39.5s11.833 -16.5 26.5 -16.5c14 0 25 5.66699 33 17s13.667 24.666 17 39.999l6 34c3.33301 14.667 2.83301 27.667 -1.5 39s-14.166 17 -29.499 17h-27l9 45h23c16.667 0 29.5 5.83301 38.5 17.5
s15.167 24.834 18.5 39.501z" />
    <glyph glyph-name="acute" unicode="&#xb4;" horiz-adv-x="350" 
d="M307 683l-83 -135h-49l70 135h62z" />
    <glyph glyph-name="mu" unicode="&#xb5;" horiz-adv-x="328" 
d="M143 508l-76 -390.998c-1.33301 -8 -2.16602 -16.333 -2.49902 -25s0.5 -16.834 2.5 -24.501s5.83301 -14 11.5 -19s13.5 -7.5 23.5 -7.5c13.333 0 25.666 4.66699 36.999 14s20.666 20.666 27.999 33.999l82 419h60l-83 -423c-2.66699 -12 -2.66699 -21.667 0 -29
s9.66699 -11 21 -11l-10 -55c-20.667 0 -35 4.83301 -43 14.5s-11.667 23.167 -11 40.5c-10.667 -17.333 -23.167 -30.833 -37.5 -40.5s-30.166 -14.5 -47.499 -14.5c-13.333 0 -24 3 -32 9s-13.667 13.667 -17 23l-33 -167l-19 -65h-53l139 718h60z" />
    <glyph glyph-name="paragraph" unicode="&#xb6;" horiz-adv-x="349" 
d="M171 0l130 665h60l-130 -665h-60zM128 0l-20 -0.000976562l70 357h-27c-27.333 0 -46.833 7.33301 -58.5 22s-17.5 36.334 -17.5 65.001c0 9.33301 0.666992 19.333 2 30s3 22 5 34l1 6c8.66699 49.333 23.167 86.833 43.5 112.5s48.5 38.5 84.5 38.5h47z" />
    <glyph glyph-name="periodcentered" unicode="&#xb7;" horiz-adv-x="281" 
d="M101 339c0 14.667 4.83301 26.5 14.5 35.5s21.5 13.5 35.5 13.5c10.667 0 19 -3.16699 25 -9.5s9 -14.166 9 -23.499c0 -14.667 -4.83301 -26.5 -14.5 -35.5s-21.5 -13.5 -35.5 -13.5c-10 0 -18.167 3.16699 -24.5 9.5s-9.5 14.166 -9.5 23.499z" />
    <glyph glyph-name="cedilla" unicode="&#xb8;" horiz-adv-x="350" 
d="M87 0l35.999 0.000976562l-8 -44h7c16.667 0 30 -4.33301 40 -13s15 -23 15 -43c0 -32 -8.5 -57 -25.5 -75s-39.5 -27 -67.5 -27c-21.333 0 -36.5 6.16699 -45.5 18.5s-12.833 32.166 -11.5 59.499v2h40v-2c-0.666992 -13.333 0.833008 -23.333 4.5 -30
s10.5 -10 20.5 -10c12.667 0 22.834 5 30.501 15s11.5 23.667 11.5 41c0 20 -11.333 30 -34 30h-28z" />
    <glyph glyph-name="onesuperior" unicode="&#xb9;" horiz-adv-x="247" 
d="M119 270l67 342l-85 -51l-23 40l110 68h60l-77 -399h-52z" />
    <glyph glyph-name="ordmasculine" unicode="&#xba;" horiz-adv-x="194" 
d="M194 454c-6.66699 -32 -16.832 -56.165 -30.499 -72.498s-33.834 -24.5 -60.501 -24.5c-20 0 -34.833 5.5 -44.5 16.5s-14.5 26.5 -14.5 46.5c0 12 1.33301 23.667 4 35l24 124c6 31.333 16 55.166 30 71.499s33.667 24.5 59 24.5c40.667 0 61 -20.333 61 -61
c0 -5.33301 -0.333008 -10.833 -1 -16.5s-1.66699 -11.834 -3 -18.501zM175.002 586.002c2.66699 14.667 3.16895 27.333 1.50195 38s-8.16699 16 -19.5 16c-12 0 -20.833 -5.5 -26.5 -16.5s-9.83398 -23.5 -12.501 -37.5l-27 -138
c-2.66699 -14 -3.33398 -26.667 -2.00098 -38s8 -17 20 -17c11.333 0 19.833 5.33301 25.5 16s10.167 23 13.5 37z" />
    <glyph glyph-name="guillemotright" unicode="&#xbb;" horiz-adv-x="382" 
d="M32 119l-33 42l134 131l-83 132l49 40l91 -144l-11 -56zM182 119l-33 42l134 131l-83 132l49 40l91 -144l-11 -56z" />
    <glyph glyph-name="onequarter" unicode="&#xbc;" horiz-adv-x="617" 
d="M119 270l67 342l-85 -51l-23 40l110 68h60l-77 -399h-52zM149 0h-52l407 665h51zM482 81h-134l11 57l160 261h51l-165 -271h86l15 74h47l-39 -202h-47z" />
    <glyph glyph-name="onehalf" unicode="&#xbd;" horiz-adv-x="617" 
d="M119 270l67 342l-85 -51l-23 40l110 68h60l-77 -399h-52zM125 0h-52l407 665h51zM396 296l1.99609 9.00293c6 31.333 17.833 55.833 35.5 73.5s43.167 26.5 76.5 26.5c32 0 53.167 -8.5 63.5 -25.5s12.833 -38.5 7.5 -64.5l-2 -13c-4 -19.333 -13 -40 -27 -62
s-32.667 -47 -56 -75l-92 -119h125l-9 -46h-177l10 53l85 110c26.667 33.333 47.334 60.166 62.001 80.499s23.667 39.166 27 56.499l1 8c6.66699 34 -2.66602 51 -27.999 51c-15.333 0 -26.666 -4.83301 -33.999 -14.5s-12.666 -22.834 -15.999 -39.501l-2 -9h-52z" />
    <glyph glyph-name="threequarters" unicode="&#xbe;" horiz-adv-x="617" 
d="M206 577c3.33301 14.667 3.16699 26.999 -0.5 36.999s-12.5 15 -26.5 15s-24.833 -5.33301 -32.5 -16s-13.167 -23.667 -16.5 -39l-2 -8h-51l1 7c6 32 18 57 36 75s42.333 27 73 27c30 0 51 -8.33301 63 -25s15.333 -38.334 10 -65.001l-4 -21
c-4 -21.333 -11.333 -38.833 -22 -52.5s-23 -23.167 -37 -28.5v-2c11.333 -5.33301 19.666 -15.166 24.999 -29.499s6 -32.166 2 -53.499l-7 -33c-6 -32 -18.167 -56.833 -36.5 -74.5s-42.5 -26.5 -72.5 -26.5c-24.667 0 -43.167 6 -55.5 18s-18.5 29 -18.5 51
c0 9.33301 1 19 3 29l3 14h52l-2 -10c-3.33301 -15.333 -3.5 -28.5 -0.5 -39.5s11.833 -16.5 26.5 -16.5c14 0 25 5.66699 33 17s13.667 24.666 17 39.999l6 34c3.33301 14.667 2.83301 27.667 -1.5 39s-14.166 17 -29.499 17h-27l9 45h23c16.667 0 29.5 5.83301 38.5 17.5
s15.167 24.834 18.5 39.501zM144.001 -0.000976562h-52l407 665h51zM482.001 80.999h-134l11 57l160 261h51l-165 -271h86l15 74h47l-39 -202h-47z" />
    <glyph glyph-name="questiondown" unicode="&#xbf;" horiz-adv-x="320" 
d="M216 17l-8.00195 -43.998c-8.66699 -44 -25.667 -78.833 -51 -104.5s-57.666 -38.5 -96.999 -38.5c-32 0 -55.333 8.33301 -70 25s-22 38.667 -22 66c0 10 1 21 3 33l10 52c2.66699 16 6.16699 30.167 10.5 42.5s10 24.166 17 35.499s16 22.666 27 33.999
s24.833 23.666 41.5 36.999c12 10 21.833 20 29.5 30s14 21 19 33s9 25.333 12 40l10.5 51l9 49h61l-11 -55c-4.66699 -23.333 -9.16699 -43.666 -13.5 -60.999s-10 -33 -17 -47s-15.667 -27 -26 -39s-23.5 -24.333 -39.5 -37c-13.333 -10.667 -24.166 -21 -32.499 -31
s-15 -19.667 -20 -29s-8.83301 -18.833 -11.5 -28.5s-5 -19.5 -7 -29.5l-8 -42c-4 -20 -2.66699 -37.167 4 -51.5s18.667 -21.5 36 -21.5c18 0 33.667 7.16699 47 21.5s23.333 36.833 30 67.5l8 42h59zM250.998 484.002c0 -13.333 -5 -24.666 -15 -33.999
s-21.667 -14 -35 -14c-10 0 -18.167 3.16699 -24.5 9.5s-9.5 14.5 -9.5 24.5c0 13.333 5 24.666 15 33.999s21.667 14 35 14c10 0 18.167 -3.16699 24.5 -9.5s9.5 -14.5 9.5 -24.5z" />
    <glyph glyph-name="Agrave" unicode="&#xc0;" horiz-adv-x="339" 
d="M-46 0l244 665h72l-16 -665h-62l6 164h-126l-58 -164h-60zM90 218h112l13 354h-2zM272 838l18 -135h-48l-32 135h62z" />
    <glyph glyph-name="Aacute" unicode="&#xc1;" horiz-adv-x="339" 
d="M-46 0l244 665h72l-16 -665h-62l6 164h-126l-58 -164h-60zM90 218h112l13 354h-2zM331 838l-83 -135h-49l70 135h62z" />
    <glyph glyph-name="Acircumflex" unicode="&#xc2;" horiz-adv-x="339" 
d="M-46 0l244 665h72l-16 -665h-62l6 164h-126l-58 -164h-60zM90 218h112l13 354h-2zM292 838l33 -135h-48l-18 93l-54 -93h-48l84 135h51z" />
    <glyph glyph-name="Atilde" unicode="&#xc3;" horiz-adv-x="339" 
d="M-46 0l244 665h72l-16 -665h-62l6 164h-126l-58 -164h-60zM90 218h112l13 354h-2zM141 724c2 18 5.66797 32.832 11.001 44.499s11.5 21 18.5 28s14.333 12 22 15s15.167 4.5 22.5 4.5c10.667 0 19.667 -2.16699 27 -6.5s13.833 -9.33301 19.5 -15s11 -10.667 16 -15
s10.5 -6.5 16.5 -6.5s11.667 2.5 17 7.5s8.66602 16.167 9.99902 33.5l1 5h46l-1 -5c-2.66699 -18 -6.5 -32.833 -11.5 -44.5s-10.833 -21 -17.5 -28s-13.834 -12 -21.501 -15s-15.167 -4.5 -22.5 -4.5c-10 0 -18.5 2.33301 -25.5 7s-13.5 9.83398 -19.5 15.501l-17 15.5
c-5.33301 4.66699 -10.666 7 -15.999 7c-6 0 -11.833 -2.66699 -17.5 -8s-9.16699 -17 -10.5 -35l-1 -4h-46v4z" />
    <glyph glyph-name="Adieresis" unicode="&#xc4;" horiz-adv-x="339" 
d="M-46 0l244 665h72l-16 -665h-62l6 164h-126l-58 -164h-60zM90 218h112l13 354h-2zM205 810c20.667 0 31 -9.99902 31 -29.999c0 -14 -4.33301 -25.167 -13 -33.5s-19.667 -12.5 -33 -12.5c-9.33301 0 -17 2.83301 -23 8.5s-9 13.167 -9 22.5
c0 13.333 4.5 24.166 13.5 32.499s20.167 12.5 33.5 12.5zM319 810.001c20.667 0 31 -9.99902 31 -29.999c0 -14 -4.33301 -25.167 -13 -33.5s-19.667 -12.5 -33 -12.5c-9.33301 0 -17 2.83301 -23 8.5s-9 13.167 -9 22.5c0 13.333 4.5 24.166 13.5 32.499
s20.167 12.5 33.5 12.5z" />
    <glyph glyph-name="Aring" unicode="&#xc5;" horiz-adv-x="339" 
d="M-46 0l244 665h72l-16 -665h-62l6 164h-126l-58 -164h-60zM90 218h112l13 354h-2zM216 769c0 -9.33301 2.5 -17.167 7.5 -23.5s12.833 -9.5 23.5 -9.5c12.667 0 23.667 4.66699 33 14s14 20.333 14 33c0 10 -2.83301 18 -8.5 24s-13.167 9 -22.5 9
c-12.667 0 -23.667 -4.5 -33 -13.5s-14 -20.167 -14 -33.5zM176 764.999c0 12 2.66602 23.332 7.99902 33.999s12.333 20 21 28s18.667 14.333 30 19s23 7 35 7c19.333 0 34.666 -6.16699 45.999 -18.5s17 -27.5 17 -45.5c0 -12 -2.66699 -23.5 -8 -34.5
s-12.166 -20.5 -20.499 -28.5s-18.166 -14.5 -29.499 -19.5s-23 -7.5 -35 -7.5c-19.333 0 -34.833 6.33301 -46.5 19s-17.5 28.334 -17.5 47.001z" />
    <glyph glyph-name="AE" unicode="&#xc6;" horiz-adv-x="488" 
d="M221 169h-124l-88 -169h-60l348 665h232l-10 -56h-153l-43 -224h127l-11 -55h-127l-54 -275h153l-11 -55h-212zM231 224l66 336h-3l-171 -336h108z" />
    <glyph glyph-name="Ccedilla" unicode="&#xc7;" horiz-adv-x="320" 
d="M259 496l5.99805 25.0039c3.33301 15.333 5 28.666 5 39.999c0 16.667 -3.66699 30.667 -11 42s-20 17 -38 17c-22 0 -39.5 -9.16699 -52.5 -27.5s-22.167 -42.166 -27.5 -71.499l-73 -376c-3.33301 -16.667 -5 -30.667 -5 -42c0 -16.667 3.33301 -30.5 10 -41.5
s18.667 -16.5 36 -16.5c12 0 22.667 2.66699 32 8s17.333 12.5 24 21.5s12.167 19.333 16.5 31s7.5 23.5 9.5 35.5l5 28h60l-4 -22c-8.66699 -46.667 -24.5 -83.334 -47.5 -110.001s-52.5 -42 -88.5 -46l-6 -35h7c16.667 0 29.834 -4.33301 39.501 -13s14.5 -23 14.5 -43
c0 -32 -8.33301 -57 -25 -75s-39 -27 -67 -27c-21.333 0 -36.666 6.16699 -45.999 18.5s-13 32.166 -11 59.499v2h40v-2c-2 -26.667 6 -40 24 -40c13.333 0 23.666 5 30.999 15s11 23.667 11 41c0 20 -11 30 -33 30h-28l13 69c-51.333 6.66699 -77 41 -77 103
c0 17.333 2 36.666 6 57.999l71 362c10 52 27.667 91.833 53 119.5s58 41.5 98 41.5c32.667 0 57.334 -9.33301 74.001 -28s25 -44.334 25 -77.001c0 -16 -2 -33.333 -6 -52l-5 -22h-60z" />
    <glyph glyph-name="Egrave" unicode="&#xc8;" horiz-adv-x="288" 
d="M319 609h-153l-43 -224h127l-11 -55h-127l-54 -275h153l-11 -55h-212l129 665h212zM259 838l18 -135h-48l-32 135h62z" />
    <glyph glyph-name="Eacute" unicode="&#xc9;" horiz-adv-x="288" 
d="M319 609h-153l-43 -224h127l-11 -55h-127l-54 -275h153l-11 -55h-212l129 665h212zM318 838l-83 -135h-49l70 135h62z" />
    <glyph glyph-name="Ecircumflex" unicode="&#xca;" horiz-adv-x="288" 
d="M319 609h-153l-43 -224h127l-11 -55h-127l-54 -275h153l-11 -55h-212l129 665h212zM279 838l33 -135h-48l-18 93l-54 -93h-48l84 135h51z" />
    <glyph glyph-name="Edieresis" unicode="&#xcb;" horiz-adv-x="288" 
d="M319 609h-153l-43 -224h127l-11 -55h-127l-54 -275h153l-11 -55h-212l129 665h212zM192 810c20.667 0 31 -9.99902 31 -29.999c0 -14 -4.33301 -25.167 -13 -33.5s-19.667 -12.5 -33 -12.5c-9.33301 0 -17 2.83301 -23 8.5s-9 13.167 -9 22.5
c0 13.333 4.5 24.166 13.5 32.499s20.167 12.5 33.5 12.5zM306 810.001c20.667 0 31 -9.99902 31 -29.999c0 -14 -4.33301 -25.167 -13 -33.5s-19.667 -12.5 -33 -12.5c-9.33301 0 -17 2.83301 -23 8.5s-9 13.167 -9 22.5c0 13.333 4.5 24.166 13.5 32.499
s20.167 12.5 33.5 12.5z" />
    <glyph glyph-name="Igrave" unicode="&#xcc;" horiz-adv-x="166" 
d="M-12 0l129 665h60l-129 -665h-60zM186 838l18 -135h-48l-32 135h62z" />
    <glyph glyph-name="Iacute" unicode="&#xcd;" horiz-adv-x="166" 
d="M-12 0l129 665h60l-129 -665h-60zM245 838l-83 -135h-49l70 135h62z" />
    <glyph glyph-name="Icircumflex" unicode="&#xce;" horiz-adv-x="166" 
d="M-12 0l129 665h60l-129 -665h-60zM206 838l33 -135h-48l-18 93l-54 -93h-48l84 135h51z" />
    <glyph glyph-name="Idieresis" unicode="&#xcf;" horiz-adv-x="166" 
d="M-12 0l129 665h60l-129 -665h-60zM120 810c20.667 0 31 -9.99902 31 -29.999c0 -14 -4.33301 -25.167 -13 -33.5s-19.667 -12.5 -33 -12.5c-9.33301 0 -17 2.83301 -23 8.5s-9 13.167 -9 22.5c0 13.333 4.5 24.166 13.5 32.499s20.167 12.5 33.5 12.5zM234 810.001
c20.667 0 31 -9.99902 31 -29.999c0 -14 -4.33301 -25.167 -13 -33.5s-19.667 -12.5 -33 -12.5c-9.33301 0 -17 2.83301 -23 8.5s-9 13.167 -9 22.5c0 13.333 4.5 24.166 13.5 32.499s20.167 12.5 33.5 12.5z" />
    <glyph glyph-name="Eth" unicode="&#xd0;" horiz-adv-x="350" 
d="M20 359l43 0.000976562l59 306h124c33.333 0 58 -9 74 -27s24 -44 24 -78c0 -16.667 -2 -35.334 -6 -56.001l-67 -343c-10 -52 -27.833 -91.833 -53.5 -119.5s-59.167 -41.5 -100.5 -41.5h-124l59 305h-42zM280 512.001c1.33301 6.66699 2.33203 13.1689 2.99902 19.502
s1 12.166 1 17.499c0 17.333 -3.66699 31.666 -11 42.999s-19.666 17 -36.999 17h-65l-48 -250h62l-10 -54h-63l-49 -250h65c11.333 0 21.666 2.83301 30.999 8.5s17.333 13.167 24 22.5s12.334 19.833 17.001 31.5s8 23.5 10 35.5z" />
    <glyph glyph-name="Ntilde" unicode="&#xd1;" horiz-adv-x="369" 
d="M251 0h-70l-33 550h-2l-108 -550h-50l129 665h70l31 -560h3l108 560h51zM156 724c2 18 5.66797 32.832 11.001 44.499s11.5 21 18.5 28s14.333 12 22 15s15.167 4.5 22.5 4.5c10.667 0 19.667 -2.16699 27 -6.5s13.833 -9.33301 19.5 -15s11 -10.667 16 -15
s10.5 -6.5 16.5 -6.5s11.667 2.5 17 7.5s8.66602 16.167 9.99902 33.5l1 5h46l-1 -5c-2.66699 -18 -6.5 -32.833 -11.5 -44.5s-10.833 -21 -17.5 -28s-13.834 -12 -21.501 -15s-15.167 -4.5 -22.5 -4.5c-10 0 -18.5 2.33301 -25.5 7s-13.5 9.83398 -19.5 15.501l-17 15.5
c-5.33301 4.66699 -10.666 7 -15.999 7c-6 0 -11.833 -2.66699 -17.5 -8s-9.16699 -17 -10.5 -35l-1 -4h-46v4z" />
    <glyph glyph-name="Ograve" unicode="&#xd2;" 
d="M253 150c-10.667 -52 -28.668 -91.666 -54.001 -118.999s-58.666 -41 -99.999 -41c-64 0 -96 34.667 -96 104c0 17.333 2 36.666 6 57.999l71 362c10 52 27.667 91.833 53 119.5s58 41.5 98 41.5c32.667 0 57.167 -9.33301 73.5 -28s24.5 -45 24.5 -79
c0 -16.667 -2 -35 -6 -55zM264.999 521.001c1.33301 6.66699 2.33691 13.165 3.00391 19.498s1 12.833 1 19.5c0 16.667 -3.33301 30.834 -10 42.501s-19.334 17.5 -38.001 17.5c-11.333 0 -21.5 -2.83301 -30.5 -8.5s-16.833 -13 -23.5 -22s-12.167 -19.5 -16.5 -31.5
s-7.5 -24.333 -9.5 -37l-73 -376c-2.66699 -12.667 -4 -26.334 -4 -41.001c0 -16 3.16699 -29.833 9.5 -41.5s18.166 -17.5 35.499 -17.5c12.667 0 23.667 2.83301 33 8.5s17.166 13.334 23.499 23.001s11.666 20.334 15.999 32.001s7.5 23.5 9.5 35.5zM270.003 837.999
l18 -135h-48l-32 135h62z" />
    <glyph glyph-name="Oacute" unicode="&#xd3;" 
d="M253 150c-10.667 -52 -28.668 -91.666 -54.001 -118.999s-58.666 -41 -99.999 -41c-64 0 -96 34.667 -96 104c0 17.333 2 36.666 6 57.999l71 362c10 52 27.667 91.833 53 119.5s58 41.5 98 41.5c32.667 0 57.167 -9.33301 73.5 -28s24.5 -45 24.5 -79
c0 -16.667 -2 -35 -6 -55zM264.999 521.001c1.33301 6.66699 2.33691 13.165 3.00391 19.498s1 12.833 1 19.5c0 16.667 -3.33301 30.834 -10 42.501s-19.334 17.5 -38.001 17.5c-11.333 0 -21.5 -2.83301 -30.5 -8.5s-16.833 -13 -23.5 -22s-12.167 -19.5 -16.5 -31.5
s-7.5 -24.333 -9.5 -37l-73 -376c-2.66699 -12.667 -4 -26.334 -4 -41.001c0 -16 3.16699 -29.833 9.5 -41.5s18.166 -17.5 35.499 -17.5c12.667 0 23.667 2.83301 33 8.5s17.166 13.334 23.499 23.001s11.666 20.334 15.999 32.001s7.5 23.5 9.5 35.5zM329.003 837.999
l-83 -135h-49l70 135h62z" />
    <glyph glyph-name="Ocircumflex" unicode="&#xd4;" 
d="M253 150c-10.667 -52 -28.668 -91.666 -54.001 -118.999s-58.666 -41 -99.999 -41c-64 0 -96 34.667 -96 104c0 17.333 2 36.666 6 57.999l71 362c10 52 27.667 91.833 53 119.5s58 41.5 98 41.5c32.667 0 57.167 -9.33301 73.5 -28s24.5 -45 24.5 -79
c0 -16.667 -2 -35 -6 -55zM264.999 521.001c1.33301 6.66699 2.33691 13.165 3.00391 19.498s1 12.833 1 19.5c0 16.667 -3.33301 30.834 -10 42.501s-19.334 17.5 -38.001 17.5c-11.333 0 -21.5 -2.83301 -30.5 -8.5s-16.833 -13 -23.5 -22s-12.167 -19.5 -16.5 -31.5
s-7.5 -24.333 -9.5 -37l-73 -376c-2.66699 -12.667 -4 -26.334 -4 -41.001c0 -16 3.16699 -29.833 9.5 -41.5s18.166 -17.5 35.499 -17.5c12.667 0 23.667 2.83301 33 8.5s17.166 13.334 23.499 23.001s11.666 20.334 15.999 32.001s7.5 23.5 9.5 35.5zM290.003 837.999
l33 -135h-48l-18 93l-54 -93h-48l84 135h51z" />
    <glyph glyph-name="Otilde" unicode="&#xd5;" 
d="M253 150c-10.667 -52 -28.668 -91.666 -54.001 -118.999s-58.666 -41 -99.999 -41c-64 0 -96 34.667 -96 104c0 17.333 2 36.666 6 57.999l71 362c10 52 27.667 91.833 53 119.5s58 41.5 98 41.5c32.667 0 57.167 -9.33301 73.5 -28s24.5 -45 24.5 -79
c0 -16.667 -2 -35 -6 -55zM264.999 521.001c1.33301 6.66699 2.33691 13.165 3.00391 19.498s1 12.833 1 19.5c0 16.667 -3.33301 30.834 -10 42.501s-19.334 17.5 -38.001 17.5c-11.333 0 -21.5 -2.83301 -30.5 -8.5s-16.833 -13 -23.5 -22s-12.167 -19.5 -16.5 -31.5
s-7.5 -24.333 -9.5 -37l-73 -376c-2.66699 -12.667 -4 -26.334 -4 -41.001c0 -16 3.16699 -29.833 9.5 -41.5s18.166 -17.5 35.499 -17.5c12.667 0 23.667 2.83301 33 8.5s17.166 13.334 23.499 23.001s11.666 20.334 15.999 32.001s7.5 23.5 9.5 35.5zM139.003 723.999
c2 18 5.66797 32.832 11.001 44.499s11.5 21 18.5 28s14.333 12 22 15s15.167 4.5 22.5 4.5c10.667 0 19.667 -2.16699 27 -6.5s13.833 -9.33301 19.5 -15s11 -10.667 16 -15s10.5 -6.5 16.5 -6.5s11.667 2.5 17 7.5s8.66602 16.167 9.99902 33.5l1 5h46l-1 -5
c-2.66699 -18 -6.5 -32.833 -11.5 -44.5s-10.833 -21 -17.5 -28s-13.834 -12 -21.501 -15s-15.167 -4.5 -22.5 -4.5c-10 0 -18.5 2.33301 -25.5 7s-13.5 9.83398 -19.5 15.501l-17 15.5c-5.33301 4.66699 -10.666 7 -15.999 7c-6 0 -11.833 -2.66699 -17.5 -8
s-9.16699 -17 -10.5 -35l-1 -4h-46v4z" />
    <glyph glyph-name="Odieresis" unicode="&#xd6;" 
d="M253 150c-10.667 -52 -28.668 -91.666 -54.001 -118.999s-58.666 -41 -99.999 -41c-64 0 -96 34.667 -96 104c0 17.333 2 36.666 6 57.999l71 362c10 52 27.667 91.833 53 119.5s58 41.5 98 41.5c32.667 0 57.167 -9.33301 73.5 -28s24.5 -45 24.5 -79
c0 -16.667 -2 -35 -6 -55zM264.999 521.001c1.33301 6.66699 2.33691 13.165 3.00391 19.498s1 12.833 1 19.5c0 16.667 -3.33301 30.834 -10 42.501s-19.334 17.5 -38.001 17.5c-11.333 0 -21.5 -2.83301 -30.5 -8.5s-16.833 -13 -23.5 -22s-12.167 -19.5 -16.5 -31.5
s-7.5 -24.333 -9.5 -37l-73 -376c-2.66699 -12.667 -4 -26.334 -4 -41.001c0 -16 3.16699 -29.833 9.5 -41.5s18.166 -17.5 35.499 -17.5c12.667 0 23.667 2.83301 33 8.5s17.166 13.334 23.499 23.001s11.666 20.334 15.999 32.001s7.5 23.5 9.5 35.5zM203.003 809.999
c20.667 0 31 -9.99902 31 -29.999c0 -14 -4.33301 -25.167 -13 -33.5s-19.667 -12.5 -33 -12.5c-9.33301 0 -17 2.83301 -23 8.5s-9 13.167 -9 22.5c0 13.333 4.5 24.166 13.5 32.499s20.167 12.5 33.5 12.5zM317.003 810c20.667 0 31 -9.99902 31 -29.999
c0 -14 -4.33301 -25.167 -13 -33.5s-19.667 -12.5 -33 -12.5c-9.33301 0 -17 2.83301 -23 8.5s-9 13.167 -9 22.5c0 13.333 4.5 24.166 13.5 32.499s20.167 12.5 33.5 12.5z" />
    <glyph glyph-name="multiply" unicode="&#xd7;" horiz-adv-x="318" 
d="M33 234l79 68l-53 67l46 39l55 -67l80 67l32 -39l-80 -67l54 -68l-47 -39l-54 67l-81 -67z" />
    <glyph glyph-name="Oslash" unicode="&#xd8;" horiz-adv-x="332" 
d="M253 150c-10 -52 -27.832 -91.667 -53.499 -119s-59.167 -41 -100.5 -41c-32 0 -56.333 9 -73 27l-26 -52l-26 11l35 72c-4 12.667 -6 28 -6 46c0 16.667 2 36 6 58l71 362c10 52 27.667 91.833 53 119.5s58 41.5 98 41.5c31.333 0 55.666 -9.33301 72.999 -28l26 53
l26 -11l-35 -71c5.33301 -14.667 8 -31 8 -49c0 -17.333 -2 -36 -6 -56zM259.001 492l-194.997 -398.002c1.33301 -14 5.16602 -25.667 11.499 -35s17.5 -14 33.5 -14c12.667 0 23.667 2.83301 33 8.5s17.166 13.334 23.499 23.001s11.666 20.334 15.999 32.001
s7.5 23.5 9.5 35.5zM75.0039 180.998l192.997 393c-1.33301 13.333 -5.66602 24.333 -12.999 33s-18.666 13 -33.999 13c-11.333 0 -21.5 -2.83301 -30.5 -8.5s-16.667 -13 -23 -22s-11.666 -19.5 -15.999 -31.5s-7.83301 -24.333 -10.5 -37z" />
    <glyph glyph-name="Ugrave" unicode="&#xd9;" horiz-adv-x="347" 
d="M360 665l-99.999 -514c-10 -52 -27.5 -91.833 -52.5 -119.5s-57.833 -41.5 -98.5 -41.5c-66.667 0 -100 35.333 -100 106c0 16.667 2 35 6 55l100 514h60l-102 -522c-1.33301 -6.66699 -2.33301 -13 -3 -19s-1 -12 -1 -18c0 -18 3.66699 -32.667 11 -44
s19.666 -17 36.999 -17c23.333 0 41.333 9.16699 54 27.5s21.667 41.833 27 70.5l102 522h60zM276.001 838l18 -135h-48l-32 135h62z" />
    <glyph glyph-name="Uacute" unicode="&#xda;" horiz-adv-x="347" 
d="M360 665l-99.999 -514c-10 -52 -27.5 -91.833 -52.5 -119.5s-57.833 -41.5 -98.5 -41.5c-66.667 0 -100 35.333 -100 106c0 16.667 2 35 6 55l100 514h60l-102 -522c-1.33301 -6.66699 -2.33301 -13 -3 -19s-1 -12 -1 -18c0 -18 3.66699 -32.667 11 -44
s19.666 -17 36.999 -17c23.333 0 41.333 9.16699 54 27.5s21.667 41.833 27 70.5l102 522h60zM335.001 838l-83 -135h-49l70 135h62z" />
    <glyph glyph-name="Ucircumflex" unicode="&#xdb;" horiz-adv-x="347" 
d="M360 665l-99.999 -514c-10 -52 -27.5 -91.833 -52.5 -119.5s-57.833 -41.5 -98.5 -41.5c-66.667 0 -100 35.333 -100 106c0 16.667 2 35 6 55l100 514h60l-102 -522c-1.33301 -6.66699 -2.33301 -13 -3 -19s-1 -12 -1 -18c0 -18 3.66699 -32.667 11 -44
s19.666 -17 36.999 -17c23.333 0 41.333 9.16699 54 27.5s21.667 41.833 27 70.5l102 522h60zM296.001 838l33 -135h-48l-18 93l-54 -93h-48l84 135h51z" />
    <glyph glyph-name="Udieresis" unicode="&#xdc;" horiz-adv-x="347" 
d="M360 665l-99.999 -514c-10 -52 -27.5 -91.833 -52.5 -119.5s-57.833 -41.5 -98.5 -41.5c-66.667 0 -100 35.333 -100 106c0 16.667 2 35 6 55l100 514h60l-102 -522c-1.33301 -6.66699 -2.33301 -13 -3 -19s-1 -12 -1 -18c0 -18 3.66699 -32.667 11 -44
s19.666 -17 36.999 -17c23.333 0 41.333 9.16699 54 27.5s21.667 41.833 27 70.5l102 522h60zM209.001 810c20.667 0 31 -9.99902 31 -29.999c0 -14 -4.33301 -25.167 -13 -33.5s-19.667 -12.5 -33 -12.5c-9.33301 0 -17 2.83301 -23 8.5s-9 13.167 -9 22.5
c0 13.333 4.5 24.166 13.5 32.499s20.167 12.5 33.5 12.5zM323.001 810.001c20.667 0 31 -9.99902 31 -29.999c0 -14 -4.33301 -25.167 -13 -33.5s-19.667 -12.5 -33 -12.5c-9.33301 0 -17 2.83301 -23 8.5s-9 13.167 -9 22.5c0 13.333 4.5 24.166 13.5 32.499
s20.167 12.5 33.5 12.5z" />
    <glyph glyph-name="Yacute" unicode="&#xdd;" horiz-adv-x="332" 
d="M173 215l-42 -215h-60l42 216l-27 449h62l10 -363h3l151 363h62zM328 838l-83 -135h-49l70 135h62z" />
    <glyph glyph-name="Thorn" unicode="&#xde;" horiz-adv-x="332" 
d="M287 299c-10.667 -52.667 -28.668 -92.667 -54.001 -120s-58.666 -41 -99.999 -41h-58l-27 -138h-60l129 665h60l-27 -138h59c32.667 0 57 -9 73 -27s24 -44 24 -78c0 -17.333 -2 -36.333 -6 -57zM241.999 374c1.33301 6.66699 2.33301 13 3 19s1 12 1 18
c0 17.333 -3.66699 31.833 -11 43.5s-20.333 17.5 -39 17.5h-56l-55 -279h56c24 0 42.833 10 56.5 30s23.167 43 28.5 69z" />
    <glyph glyph-name="germandbls" unicode="&#xdf;" horiz-adv-x="326" 
d="M36 -65l-19.0029 -65h-54l132 681c10 52 26.167 91.5 48.5 118.5s53.833 40.5 94.5 40.5c32 0 55.333 -8.5 70 -25.5s22 -41.833 22 -74.5c0 -17.333 -2 -37 -6 -59l-3 -18c-6.66699 -36 -17.167 -64.5 -31.5 -85.5s-32.166 -36.5 -53.499 -46.5
c25.333 -16 38 -45 38 -87c0 -16.667 -2 -34.334 -6 -53.001l-23 -116c-9.33301 -48 -25 -85.167 -47 -111.5s-51 -39.5 -87 -39.5h-18l11 55h13c15.333 0 28.833 7 40.5 21s20.167 35.667 25.5 65l29 146c2 10 3 20 3 30c0 16 -3.33301 29.667 -10 41s-17.667 17 -33 17
h-14l11 55h14c10 0 19.167 2.66699 27.5 8s15.5 12.166 21.5 20.499s11.167 17.833 15.5 28.5s7.5 21.334 9.5 32.001l9 49c1.33301 8 2.5 15.833 3.5 23.5s1.5 15.167 1.5 22.5c0 14.667 -2.66699 26.834 -8 36.501s-15.666 14.5 -30.999 14.5
c-11.333 0 -21.166 -2.83301 -29.499 -8.5s-15.333 -13 -21 -22s-10.5 -19.333 -14.5 -31s-7 -23.5 -9 -35.5z" />
    <glyph glyph-name="agrave" unicode="&#xe0;" horiz-adv-x="320" 
d="M230 432c-2 8 -6.66992 15.833 -14.0029 23.5s-17.666 11.5 -30.999 11.5c-21.333 0 -37.666 -9.16699 -48.999 -27.5s-19.666 -41.5 -24.999 -69.5l-46 -235c-4 -17.333 -6 -32.666 -6 -45.999c0 -14.667 2.83301 -26.334 8.5 -35.001s16.167 -13 31.5 -13
c12 0 23.833 4.83301 35.5 14.5s21.5 21.167 29.5 34.5zM179.997 518c21.333 0 37.3311 -4.83105 47.998 -14.498s18.334 -20.834 23.001 -33.501l15 38h39l-82 -422c-5.33301 -27.333 1.66699 -41 21 -41l-10 -55c-26 0 -43.667 5.16699 -53 15.5
s-14.666 26.166 -15.999 47.499c-11.333 -18 -24.5 -33 -39.5 -45s-32.5 -18 -52.5 -18c-48.667 0 -73 30 -73 90c0 16.667 2 36.667 6 60l44 226c20 101.333 63.333 152 130 152zM229.995 683.002l18 -135h-48l-32 135h62z" />
    <glyph glyph-name="aacute" unicode="&#xe1;" horiz-adv-x="320" 
d="M230 432c-2 8 -6.66992 15.833 -14.0029 23.5s-17.666 11.5 -30.999 11.5c-21.333 0 -37.666 -9.16699 -48.999 -27.5s-19.666 -41.5 -24.999 -69.5l-46 -235c-4 -17.333 -6 -32.666 -6 -45.999c0 -14.667 2.83301 -26.334 8.5 -35.001s16.167 -13 31.5 -13
c12 0 23.833 4.83301 35.5 14.5s21.5 21.167 29.5 34.5zM179.997 518c21.333 0 37.3311 -4.83105 47.998 -14.498s18.334 -20.834 23.001 -33.501l15 38h39l-82 -422c-5.33301 -27.333 1.66699 -41 21 -41l-10 -55c-26 0 -43.667 5.16699 -53 15.5
s-14.666 26.166 -15.999 47.499c-11.333 -18 -24.5 -33 -39.5 -45s-32.5 -18 -52.5 -18c-48.667 0 -73 30 -73 90c0 16.667 2 36.667 6 60l44 226c20 101.333 63.333 152 130 152zM288.995 683.002l-83 -135h-49l70 135h62z" />
    <glyph glyph-name="acircumflex" unicode="&#xe2;" horiz-adv-x="320" 
d="M230 432c-2 8 -6.66992 15.833 -14.0029 23.5s-17.666 11.5 -30.999 11.5c-21.333 0 -37.666 -9.16699 -48.999 -27.5s-19.666 -41.5 -24.999 -69.5l-46 -235c-4 -17.333 -6 -32.666 -6 -45.999c0 -14.667 2.83301 -26.334 8.5 -35.001s16.167 -13 31.5 -13
c12 0 23.833 4.83301 35.5 14.5s21.5 21.167 29.5 34.5zM179.997 518c21.333 0 37.3311 -4.83105 47.998 -14.498s18.334 -20.834 23.001 -33.501l15 38h39l-82 -422c-5.33301 -27.333 1.66699 -41 21 -41l-10 -55c-26 0 -43.667 5.16699 -53 15.5
s-14.666 26.166 -15.999 47.499c-11.333 -18 -24.5 -33 -39.5 -45s-32.5 -18 -52.5 -18c-48.667 0 -73 30 -73 90c0 16.667 2 36.667 6 60l44 226c20 101.333 63.333 152 130 152zM249.995 683.002l33 -135h-48l-18 93l-54 -93h-48l84 135h51z" />
    <glyph glyph-name="atilde" unicode="&#xe3;" horiz-adv-x="320" 
d="M230 432c-2 8 -6.66992 15.833 -14.0029 23.5s-17.666 11.5 -30.999 11.5c-21.333 0 -37.666 -9.16699 -48.999 -27.5s-19.666 -41.5 -24.999 -69.5l-46 -235c-4 -17.333 -6 -32.666 -6 -45.999c0 -14.667 2.83301 -26.334 8.5 -35.001s16.167 -13 31.5 -13
c12 0 23.833 4.83301 35.5 14.5s21.5 21.167 29.5 34.5zM179.997 518c21.333 0 37.3311 -4.83105 47.998 -14.498s18.334 -20.834 23.001 -33.501l15 38h39l-82 -422c-5.33301 -27.333 1.66699 -41 21 -41l-10 -55c-26 0 -43.667 5.16699 -53 15.5
s-14.666 26.166 -15.999 47.499c-11.333 -18 -24.5 -33 -39.5 -45s-32.5 -18 -52.5 -18c-48.667 0 -73 30 -73 90c0 16.667 2 36.667 6 60l44 226c20 101.333 63.333 152 130 152zM98.9951 569.002c2 18 5.66797 32.832 11.001 44.499s11.5 21 18.5 28s14.333 12 22 15
s15.167 4.5 22.5 4.5c10.667 0 19.667 -2.16699 27 -6.5s13.833 -9.33301 19.5 -15s11 -10.667 16 -15s10.5 -6.5 16.5 -6.5s11.667 2.5 17 7.5s8.66602 16.167 9.99902 33.5l1 5h46l-1 -5c-2.66699 -18 -6.5 -32.833 -11.5 -44.5s-10.833 -21 -17.5 -28
s-13.834 -12 -21.501 -15s-15.167 -4.5 -22.5 -4.5c-10 0 -18.5 2.33301 -25.5 7s-13.5 9.83398 -19.5 15.501l-17 15.5c-5.33301 4.66699 -10.666 7 -15.999 7c-6 0 -11.833 -2.66699 -17.5 -8s-9.16699 -17 -10.5 -35l-1 -4h-46v4z" />
    <glyph glyph-name="adieresis" unicode="&#xe4;" horiz-adv-x="320" 
d="M230 432c-2 8 -6.66992 15.833 -14.0029 23.5s-17.666 11.5 -30.999 11.5c-21.333 0 -37.666 -9.16699 -48.999 -27.5s-19.666 -41.5 -24.999 -69.5l-46 -235c-4 -17.333 -6 -32.666 -6 -45.999c0 -14.667 2.83301 -26.334 8.5 -35.001s16.167 -13 31.5 -13
c12 0 23.833 4.83301 35.5 14.5s21.5 21.167 29.5 34.5zM179.997 518c21.333 0 37.3311 -4.83105 47.998 -14.498s18.334 -20.834 23.001 -33.501l15 38h39l-82 -422c-5.33301 -27.333 1.66699 -41 21 -41l-10 -55c-26 0 -43.667 5.16699 -53 15.5
s-14.666 26.166 -15.999 47.499c-11.333 -18 -24.5 -33 -39.5 -45s-32.5 -18 -52.5 -18c-48.667 0 -73 30 -73 90c0 16.667 2 36.667 6 60l44 226c20 101.333 63.333 152 130 152zM163.995 655.002c20.667 0 31 -9.99902 31 -29.999c0 -14 -4.33301 -25.167 -13 -33.5
s-19.667 -12.5 -33 -12.5c-9.33301 0 -17 2.83301 -23 8.5s-9 13.167 -9 22.5c0 13.333 4.5 24.166 13.5 32.499s20.167 12.5 33.5 12.5zM277.995 655.003c20.667 0 31 -9.99902 31 -29.999c0 -14 -4.33301 -25.167 -13 -33.5s-19.667 -12.5 -33 -12.5
c-9.33301 0 -17 2.83301 -23 8.5s-9 13.167 -9 22.5c0 13.333 4.5 24.166 13.5 32.499s20.167 12.5 33.5 12.5z" />
    <glyph glyph-name="aring" unicode="&#xe5;" horiz-adv-x="320" 
d="M230 432c-2 8 -6.66992 15.833 -14.0029 23.5s-17.666 11.5 -30.999 11.5c-21.333 0 -37.666 -9.16699 -48.999 -27.5s-19.666 -41.5 -24.999 -69.5l-46 -235c-4 -17.333 -6 -32.666 -6 -45.999c0 -14.667 2.83301 -26.334 8.5 -35.001s16.167 -13 31.5 -13
c12 0 23.833 4.83301 35.5 14.5s21.5 21.167 29.5 34.5zM179.997 518c21.333 0 37.3311 -4.83105 47.998 -14.498s18.334 -20.834 23.001 -33.501l15 38h39l-82 -422c-5.33301 -27.333 1.66699 -41 21 -41l-10 -55c-26 0 -43.667 5.16699 -53 15.5
s-14.666 26.166 -15.999 47.499c-11.333 -18 -24.5 -33 -39.5 -45s-32.5 -18 -52.5 -18c-48.667 0 -73 30 -73 90c0 16.667 2 36.667 6 60l44 226c20 101.333 63.333 152 130 152zM173.995 614.002c0 -9.33301 2.5 -17.167 7.5 -23.5s12.833 -9.5 23.5 -9.5
c12.667 0 23.667 4.66699 33 14s14 20.333 14 33c0 10 -2.83301 18 -8.5 24s-13.167 9 -22.5 9c-12.667 0 -23.667 -4.5 -33 -13.5s-14 -20.167 -14 -33.5zM133.995 610.001c0 12 2.66602 23.332 7.99902 33.999s12.333 20 21 28s18.667 14.333 30 19s23 7 35 7
c19.333 0 34.666 -6.16699 45.999 -18.5s17 -27.5 17 -45.5c0 -12 -2.66699 -23.5 -8 -34.5s-12.166 -20.5 -20.499 -28.5s-18.166 -14.5 -29.499 -19.5s-23 -7.5 -35 -7.5c-19.333 0 -34.833 6.33301 -46.5 19s-17.5 28.334 -17.5 47.001z" />
    <glyph glyph-name="ae" unicode="&#xe6;" horiz-adv-x="466" 
d="M190 241c-22 -1.33301 -39.998 -3.83301 -53.998 -7.5s-25.5 -9 -34.5 -16s-15.833 -15.833 -20.5 -26.5s-8.66699 -23.667 -12 -39l-4 -18c-4 -19.333 -6 -35.333 -6 -48c0 -15.333 3 -26.833 9 -34.5s16 -11.5 30 -11.5c11.333 0 22.666 4.83301 33.999 14.5
s20.666 21.167 27.999 34.5zM228.002 138c-1.33301 -8 -2.49805 -15.835 -3.49805 -23.502s-1.5 -15.167 -1.5 -22.5c0 -15.333 2.83301 -27.666 8.5 -36.999s15.834 -14 30.501 -14c22 0 38.167 9.66699 48.5 29s18.5 42 24.5 68l3 17h59l-3 -14
c-11.333 -49.333 -27.833 -86.833 -49.5 -112.5s-50.5 -38.5 -86.5 -38.5c-40 0 -65.667 19.333 -77 58c-14.667 -18 -31.167 -32.167 -49.5 -42.5s-37.166 -15.5 -56.499 -15.5c-50.667 0 -76 29 -76 87c0 7.33301 0.5 14.666 1.5 21.999s2.16699 15.333 3.5 24l5 24
c3.33301 20.667 8.83301 39 16.5 55s18.667 29.667 33 41s32.666 20 54.999 26s50.166 9.66699 83.499 11l17 90c3.33301 16.667 5 31.667 5 45c0 15.333 -2.83301 28 -8.5 38s-15.834 15 -30.501 15c-18 0 -32.667 -8 -44 -24s-19.333 -36.667 -24 -62l-2 -15h-55l2 14
c3.33301 18.667 8.5 36.334 15.5 53.001s16 31.167 27 43.5s23.667 22.166 38 29.499s30.5 11 48.5 11c21.333 0 37.833 -5.16699 49.5 -15.5s19.834 -25.166 24.501 -44.499c11.333 19.333 24.833 34.166 40.5 44.499s34.167 15.5 55.5 15.5
c29.333 0 51.5 -8.33301 66.5 -25s22.5 -39 22.5 -67c0 -11.333 -1.66699 -24.666 -5 -39.999l-6 -31c-4.66699 -21.333 -12.334 -39 -23.001 -53s-24 -25.333 -40 -34s-34.333 -15.167 -55 -19.5s-43.334 -7.16602 -68.001 -8.49902zM256.004 283.998
c15.333 1.33301 29.5029 3.33398 42.5029 6.00098s24.667 7 35 13s19 13.833 26 23.5s12.5 22.5 16.5 38.5l6 26c2 9.33301 3 18.5 3 27.5s-1.16699 17.167 -3.5 24.5s-6.5 13.166 -12.5 17.499s-14 6.5 -24 6.5c-11.333 0 -20.833 -2.83301 -28.5 -8.5
s-14.334 -13 -20.001 -22s-10.334 -19.333 -14.001 -31s-6.83398 -23.5 -9.50098 -35.5z" />
    <glyph glyph-name="ccedilla" unicode="&#xe7;" horiz-adv-x="305" 
d="M212 336l7 34.001c4 16 6 31 6 45c0 15.333 -3.16699 27.833 -9.5 37.5s-17.166 14.5 -32.499 14.5c-11.333 0 -21 -2.66699 -29 -8s-14.833 -12.5 -20.5 -21.5s-10.334 -19.333 -14.001 -31s-6.83398 -23.834 -9.50098 -36.501l-45 -232l-4 -24
c-1.33301 -8 -2 -15.667 -2 -23c0 -14.667 2.83301 -26.667 8.5 -36s16.167 -14 31.5 -14c22 0 38.333 9.5 49 28.5s19 41.833 25 68.5l7 34h57l-6 -27c-10 -47.333 -24.833 -84.166 -44.5 -110.499s-47.5 -40.833 -83.5 -43.5l-6 -35h7c16.667 0 30 -4.33301 40 -13
s15 -23 15 -43c0 -32 -8.5 -57 -25.5 -75s-39.5 -27 -67.5 -27c-21.333 0 -36.5 6.16699 -45.5 18.5s-12.833 32.166 -11.5 59.499v2h40v-2c-2 -26.667 6.33301 -40 25 -40c12.667 0 22.834 5 30.501 15s11.5 23.667 11.5 41c0 20 -11.333 30 -34 30h-28l13 70
c-22.667 3.33301 -39.334 13.166 -50.001 29.499s-16 38.5 -16 66.5c0 20.667 2.33301 41.667 7 63l40 207c10 52 26.333 91.667 49 119s54.334 41 95.001 41c31.333 0 54 -7.83301 68 -23.5s21 -38.834 21 -69.501c0 -9.33301 -0.5 -19.166 -1.5 -29.499
s-2.83301 -21.166 -5.5 -32.499l-5 -27h-57z" />
    <glyph glyph-name="egrave" unicode="&#xe8;" horiz-adv-x="312" 
d="M95 286c30.667 2 56.334 8.00195 77.001 18.002s34.667 30.333 42 61l6 26c1.33301 5.33301 2.33301 10.166 3 14.499s1 8.83301 1 13.5c0 13.333 -3 24.666 -9 33.999s-16.333 14 -31 14c-11.333 0 -21 -2.83301 -29 -8.5s-14.833 -13 -20.5 -22
s-10.334 -19.333 -14.001 -31s-6.5 -23.5 -8.5 -35.5zM177 155.002l59.001 -0.00195312l-3 -13c-9.33301 -48 -25.333 -85.333 -48 -112s-54 -40 -94 -40c-32 0 -55 8.16699 -69 24.5s-21 40.166 -21 71.499c0 9.33301 0.666992 19.333 2 30s3 22 5 34l41 207
c10 52 26.333 91.833 49 119.5s54 41.5 94 41.5c30 0 52.667 -8.33301 68 -25s23 -39 23 -67c0 -11.333 -1.66699 -24.666 -5 -39.999l-6 -30c-5.33301 -24 -14 -43.333 -26 -58s-26.333 -26.167 -43 -34.5s-35.167 -14.166 -55.5 -17.499
s-41.166 -5.66602 -62.499 -6.99902l-19 -101l-4 -24c-1.33301 -8 -2 -15.667 -2 -23c0 -14.667 2.83301 -26.667 8.5 -36s16.167 -14 31.5 -14c21.333 0 37.666 9.33301 48.999 28s19.666 41 24.999 67zM229.001 683l18 -135h-48l-32 135h62z" />
    <glyph glyph-name="eacute" unicode="&#xe9;" horiz-adv-x="312" 
d="M95 286c30.667 2 56.334 8.00195 77.001 18.002s34.667 30.333 42 61l6 26c1.33301 5.33301 2.33301 10.166 3 14.499s1 8.83301 1 13.5c0 13.333 -3 24.666 -9 33.999s-16.333 14 -31 14c-11.333 0 -21 -2.83301 -29 -8.5s-14.833 -13 -20.5 -22
s-10.334 -19.333 -14.001 -31s-6.5 -23.5 -8.5 -35.5zM177 155.002l59.001 -0.00195312l-3 -13c-9.33301 -48 -25.333 -85.333 -48 -112s-54 -40 -94 -40c-32 0 -55 8.16699 -69 24.5s-21 40.166 -21 71.499c0 9.33301 0.666992 19.333 2 30s3 22 5 34l41 207
c10 52 26.333 91.833 49 119.5s54 41.5 94 41.5c30 0 52.667 -8.33301 68 -25s23 -39 23 -67c0 -11.333 -1.66699 -24.666 -5 -39.999l-6 -30c-5.33301 -24 -14 -43.333 -26 -58s-26.333 -26.167 -43 -34.5s-35.167 -14.166 -55.5 -17.499
s-41.166 -5.66602 -62.499 -6.99902l-19 -101l-4 -24c-1.33301 -8 -2 -15.667 -2 -23c0 -14.667 2.83301 -26.667 8.5 -36s16.167 -14 31.5 -14c21.333 0 37.666 9.33301 48.999 28s19.666 41 24.999 67zM288.001 683l-83 -135h-49l70 135h62z" />
    <glyph glyph-name="ecircumflex" unicode="&#xea;" horiz-adv-x="312" 
d="M95 286c30.667 2 56.334 8.00195 77.001 18.002s34.667 30.333 42 61l6 26c1.33301 5.33301 2.33301 10.166 3 14.499s1 8.83301 1 13.5c0 13.333 -3 24.666 -9 33.999s-16.333 14 -31 14c-11.333 0 -21 -2.83301 -29 -8.5s-14.833 -13 -20.5 -22
s-10.334 -19.333 -14.001 -31s-6.5 -23.5 -8.5 -35.5zM177 155.002l59.001 -0.00195312l-3 -13c-9.33301 -48 -25.333 -85.333 -48 -112s-54 -40 -94 -40c-32 0 -55 8.16699 -69 24.5s-21 40.166 -21 71.499c0 9.33301 0.666992 19.333 2 30s3 22 5 34l41 207
c10 52 26.333 91.833 49 119.5s54 41.5 94 41.5c30 0 52.667 -8.33301 68 -25s23 -39 23 -67c0 -11.333 -1.66699 -24.666 -5 -39.999l-6 -30c-5.33301 -24 -14 -43.333 -26 -58s-26.333 -26.167 -43 -34.5s-35.167 -14.166 -55.5 -17.499
s-41.166 -5.66602 -62.499 -6.99902l-19 -101l-4 -24c-1.33301 -8 -2 -15.667 -2 -23c0 -14.667 2.83301 -26.667 8.5 -36s16.167 -14 31.5 -14c21.333 0 37.666 9.33301 48.999 28s19.666 41 24.999 67zM249.001 683l33 -135h-48l-18 93l-54 -93h-48l84 135h51z" />
    <glyph glyph-name="edieresis" unicode="&#xeb;" horiz-adv-x="312" 
d="M95 286c30.667 2 56.334 8.00195 77.001 18.002s34.667 30.333 42 61l6 26c1.33301 5.33301 2.33301 10.166 3 14.499s1 8.83301 1 13.5c0 13.333 -3 24.666 -9 33.999s-16.333 14 -31 14c-11.333 0 -21 -2.83301 -29 -8.5s-14.833 -13 -20.5 -22
s-10.334 -19.333 -14.001 -31s-6.5 -23.5 -8.5 -35.5zM177 155.002l59.001 -0.00195312l-3 -13c-9.33301 -48 -25.333 -85.333 -48 -112s-54 -40 -94 -40c-32 0 -55 8.16699 -69 24.5s-21 40.166 -21 71.499c0 9.33301 0.666992 19.333 2 30s3 22 5 34l41 207
c10 52 26.333 91.833 49 119.5s54 41.5 94 41.5c30 0 52.667 -8.33301 68 -25s23 -39 23 -67c0 -11.333 -1.66699 -24.666 -5 -39.999l-6 -30c-5.33301 -24 -14 -43.333 -26 -58s-26.333 -26.167 -43 -34.5s-35.167 -14.166 -55.5 -17.499
s-41.166 -5.66602 -62.499 -6.99902l-19 -101l-4 -24c-1.33301 -8 -2 -15.667 -2 -23c0 -14.667 2.83301 -26.667 8.5 -36s16.167 -14 31.5 -14c21.333 0 37.666 9.33301 48.999 28s19.666 41 24.999 67zM156.001 655c20.667 0 31 -9.99902 31 -29.999
c0 -14 -4.33301 -25.167 -13 -33.5s-19.667 -12.5 -33 -12.5c-9.33301 0 -17 2.83301 -23 8.5s-9 13.167 -9 22.5c0 13.333 4.5 24.166 13.5 32.499s20.167 12.5 33.5 12.5zM270.001 655.001c20.667 0 31 -9.99902 31 -29.999c0 -14 -4.33301 -25.167 -13 -33.5
s-19.667 -12.5 -33 -12.5c-9.33301 0 -17 2.83301 -23 8.5s-9 13.167 -9 22.5c0 13.333 4.5 24.166 13.5 32.499s20.167 12.5 33.5 12.5z" />
    <glyph glyph-name="igrave" unicode="&#xec;" horiz-adv-x="165" 
d="M87 508h53l-6 -65l-86 -443h-60zM156 683l18 -135h-48l-32 135h62z" />
    <glyph glyph-name="iacute" unicode="&#xed;" horiz-adv-x="165" 
d="M87 508h53l-6 -65l-86 -443h-60zM215 683l-83 -135h-49l70 135h62z" />
    <glyph glyph-name="icircumflex" unicode="&#xee;" horiz-adv-x="165" 
d="M87 508h53l-6 -65l-86 -443h-60zM176 683l33 -135h-48l-18 93l-54 -93h-48l84 135h51z" />
    <glyph glyph-name="idieresis" unicode="&#xef;" horiz-adv-x="165" 
d="M87 508h53l-6 -65l-86 -443h-60zM89 655c20.667 0 31 -9.99902 31 -29.999c0 -14 -4.33301 -25.167 -13 -33.5s-19.667 -12.5 -33 -12.5c-9.33301 0 -17 2.83301 -23 8.5s-9 13.167 -9 22.5c0 13.333 4.5 24.166 13.5 32.499s20.167 12.5 33.5 12.5zM203 655.001
c20.667 0 31 -9.99902 31 -29.999c0 -14 -4.33301 -25.167 -13 -33.5s-19.667 -12.5 -33 -12.5c-9.33301 0 -17 2.83301 -23 8.5s-9 13.167 -9 22.5c0 13.333 4.5 24.166 13.5 32.499s20.167 12.5 33.5 12.5z" />
    <glyph glyph-name="eth" unicode="&#xf0;" horiz-adv-x="315" 
d="M170 573l48.998 29.999c-13.333 22 -33.666 33 -60.999 33h-5l7 39h6c20.667 0 38.334 -4 53.001 -12s27 -19.333 37 -34l49 31l13 -21l-49 -31c14 -30 21 -68.667 21 -116c0 -40 -4.66699 -84.333 -14 -133l-40 -209c-10 -52 -26.667 -91.667 -50 -119s-55 -41 -95 -41
c-32 0 -55 8 -69 24s-21 40 -21 72c0 9.33301 0.5 19.333 1.5 30s2.83301 21.667 5.5 33l41 210c20 106 64.333 159 133 159c19.333 0 34 -4.33301 44 -13s17.333 -17.667 22 -27c0.666992 19.333 0.166992 37.833 -1.5 55.5s-6.16699 33.834 -13.5 48.501l-50 -30z
M217.998 369.999c1.33301 8 2.50098 15.667 3.50098 23s1.5 14.666 1.5 21.999c0 15.333 -2.66699 27.833 -8 37.5s-15.666 14.5 -30.999 14.5c-11.333 0 -21 -2.83301 -29 -8.5s-14.833 -13 -20.5 -22s-10.334 -19.333 -14.001 -31s-6.83398 -23.5 -9.50098 -35.5l-45 -232
c-1.33301 -8 -2.5 -16 -3.5 -24s-1.5 -15.667 -1.5 -23c0 -14.667 2.66699 -26.667 8 -36s15.666 -14 30.999 -14c10.667 0 20 2.66699 28 8s15 12.5 21 21.5s10.833 19.333 14.5 31s6.83398 23.834 9.50098 36.501z" />
    <glyph glyph-name="ntilde" unicode="&#xf1;" horiz-adv-x="329" 
d="M134 458c9.33301 17.333 22.334 31.665 39.001 42.998s34.667 17 54 17c44 0 66 -28 66 -84c0 -10 -0.666992 -21 -2 -33s-3.33301 -25 -6 -39l-71 -362h-54l7 65l59 305c1.33301 9.33301 2.66602 18 3.99902 26s2 15.667 2 23c0 14.667 -2.83301 26.334 -8.5 35.001
s-15.167 13 -28.5 13c-14.667 0 -27.5 -5.16699 -38.5 -15.5s-20.167 -22.166 -27.5 -35.499l-81 -416h-60l99 508h52zM106.001 568.999c2 18 5.66797 32.832 11.001 44.499s11.5 21 18.5 28s14.333 12 22 15s15.167 4.5 22.5 4.5c10.667 0 19.667 -2.16699 27 -6.5
s13.833 -9.33301 19.5 -15s11 -10.667 16 -15s10.5 -6.5 16.5 -6.5s11.667 2.5 17 7.5s8.66602 16.167 9.99902 33.5l1 5h46l-1 -5c-2.66699 -18 -6.5 -32.833 -11.5 -44.5s-10.833 -21 -17.5 -28s-13.834 -12 -21.501 -15s-15.167 -4.5 -22.5 -4.5
c-10 0 -18.5 2.33301 -25.5 7s-13.5 9.83398 -19.5 15.501l-17 15.5c-5.33301 4.66699 -10.666 7 -15.999 7c-6 0 -11.833 -2.66699 -17.5 -8s-9.16699 -17 -10.5 -35l-1 -4h-46v4z" />
    <glyph glyph-name="ograve" unicode="&#xf2;" horiz-adv-x="315" 
d="M235 149c-10 -52 -26.332 -91.502 -48.999 -118.502s-54.334 -40.5 -95.001 -40.5c-32 0 -55 8 -69 24s-21 40 -21 72c0 9.33301 0.5 19.333 1.5 30s2.83301 21.667 5.5 33l41 210c10 52 26.167 91.5 48.5 118.5s53.833 40.5 94.5 40.5c32 0 55.167 -8.16699 69.5 -24.5
s21.5 -40.5 21.5 -72.5c0 -9.33301 -0.666992 -19.166 -2 -29.499s-3 -21.166 -5 -32.499zM218.001 369.998c1.33301 8 2.50098 15.667 3.50098 23s1.5 14.666 1.5 21.999c0 15.333 -2.66699 27.833 -8 37.5s-15.666 14.5 -30.999 14.5c-11.333 0 -21 -2.83301 -29 -8.5
s-14.833 -13 -20.5 -22s-10.334 -19.333 -14.001 -31s-6.83398 -23.5 -9.50098 -35.5l-45 -232c-1.33301 -8 -2.5 -16 -3.5 -24s-1.5 -15.667 -1.5 -23c0 -14.667 2.66699 -26.667 8 -36s15.666 -14 30.999 -14c10.667 0 20 2.66699 28 8s15 12.5 21 21.5
s10.833 19.333 14.5 31s6.83398 23.834 9.50098 36.501zM230.002 682.998l18 -135h-48l-32 135h62z" />
    <glyph glyph-name="oacute" unicode="&#xf3;" horiz-adv-x="315" 
d="M235 149c-10 -52 -26.332 -91.502 -48.999 -118.502s-54.334 -40.5 -95.001 -40.5c-32 0 -55 8 -69 24s-21 40 -21 72c0 9.33301 0.5 19.333 1.5 30s2.83301 21.667 5.5 33l41 210c10 52 26.167 91.5 48.5 118.5s53.833 40.5 94.5 40.5c32 0 55.167 -8.16699 69.5 -24.5
s21.5 -40.5 21.5 -72.5c0 -9.33301 -0.666992 -19.166 -2 -29.499s-3 -21.166 -5 -32.499zM218.001 369.998c1.33301 8 2.50098 15.667 3.50098 23s1.5 14.666 1.5 21.999c0 15.333 -2.66699 27.833 -8 37.5s-15.666 14.5 -30.999 14.5c-11.333 0 -21 -2.83301 -29 -8.5
s-14.833 -13 -20.5 -22s-10.334 -19.333 -14.001 -31s-6.83398 -23.5 -9.50098 -35.5l-45 -232c-1.33301 -8 -2.5 -16 -3.5 -24s-1.5 -15.667 -1.5 -23c0 -14.667 2.66699 -26.667 8 -36s15.666 -14 30.999 -14c10.667 0 20 2.66699 28 8s15 12.5 21 21.5
s10.833 19.333 14.5 31s6.83398 23.834 9.50098 36.501zM289.002 682.998l-83 -135h-49l70 135h62z" />
    <glyph glyph-name="ocircumflex" unicode="&#xf4;" horiz-adv-x="315" 
d="M235 149c-10 -52 -26.332 -91.502 -48.999 -118.502s-54.334 -40.5 -95.001 -40.5c-32 0 -55 8 -69 24s-21 40 -21 72c0 9.33301 0.5 19.333 1.5 30s2.83301 21.667 5.5 33l41 210c10 52 26.167 91.5 48.5 118.5s53.833 40.5 94.5 40.5c32 0 55.167 -8.16699 69.5 -24.5
s21.5 -40.5 21.5 -72.5c0 -9.33301 -0.666992 -19.166 -2 -29.499s-3 -21.166 -5 -32.499zM218.001 369.998c1.33301 8 2.50098 15.667 3.50098 23s1.5 14.666 1.5 21.999c0 15.333 -2.66699 27.833 -8 37.5s-15.666 14.5 -30.999 14.5c-11.333 0 -21 -2.83301 -29 -8.5
s-14.833 -13 -20.5 -22s-10.334 -19.333 -14.001 -31s-6.83398 -23.5 -9.50098 -35.5l-45 -232c-1.33301 -8 -2.5 -16 -3.5 -24s-1.5 -15.667 -1.5 -23c0 -14.667 2.66699 -26.667 8 -36s15.666 -14 30.999 -14c10.667 0 20 2.66699 28 8s15 12.5 21 21.5
s10.833 19.333 14.5 31s6.83398 23.834 9.50098 36.501zM250.002 682.998l33 -135h-48l-18 93l-54 -93h-48l84 135h51z" />
    <glyph glyph-name="otilde" unicode="&#xf5;" horiz-adv-x="315" 
d="M235 149c-10 -52 -26.332 -91.502 -48.999 -118.502s-54.334 -40.5 -95.001 -40.5c-32 0 -55 8 -69 24s-21 40 -21 72c0 9.33301 0.5 19.333 1.5 30s2.83301 21.667 5.5 33l41 210c10 52 26.167 91.5 48.5 118.5s53.833 40.5 94.5 40.5c32 0 55.167 -8.16699 69.5 -24.5
s21.5 -40.5 21.5 -72.5c0 -9.33301 -0.666992 -19.166 -2 -29.499s-3 -21.166 -5 -32.499zM218.001 369.998c1.33301 8 2.50098 15.667 3.50098 23s1.5 14.666 1.5 21.999c0 15.333 -2.66699 27.833 -8 37.5s-15.666 14.5 -30.999 14.5c-11.333 0 -21 -2.83301 -29 -8.5
s-14.833 -13 -20.5 -22s-10.334 -19.333 -14.001 -31s-6.83398 -23.5 -9.50098 -35.5l-45 -232c-1.33301 -8 -2.5 -16 -3.5 -24s-1.5 -15.667 -1.5 -23c0 -14.667 2.66699 -26.667 8 -36s15.666 -14 30.999 -14c10.667 0 20 2.66699 28 8s15 12.5 21 21.5
s10.833 19.333 14.5 31s6.83398 23.834 9.50098 36.501zM98.002 568.998c2 18 5.66797 32.832 11.001 44.499s11.5 21 18.5 28s14.333 12 22 15s15.167 4.5 22.5 4.5c10.667 0 19.667 -2.16699 27 -6.5s13.833 -9.33301 19.5 -15s11 -10.667 16 -15s10.5 -6.5 16.5 -6.5
s11.667 2.5 17 7.5s8.66602 16.167 9.99902 33.5l1 5h46l-1 -5c-2.66699 -18 -6.5 -32.833 -11.5 -44.5s-10.833 -21 -17.5 -28s-13.834 -12 -21.501 -15s-15.167 -4.5 -22.5 -4.5c-10 0 -18.5 2.33301 -25.5 7s-13.5 9.83398 -19.5 15.501l-17 15.5
c-5.33301 4.66699 -10.666 7 -15.999 7c-6 0 -11.833 -2.66699 -17.5 -8s-9.16699 -17 -10.5 -35l-1 -4h-46v4z" />
    <glyph glyph-name="odieresis" unicode="&#xf6;" horiz-adv-x="315" 
d="M235 149c-10 -52 -26.332 -91.502 -48.999 -118.502s-54.334 -40.5 -95.001 -40.5c-32 0 -55 8 -69 24s-21 40 -21 72c0 9.33301 0.5 19.333 1.5 30s2.83301 21.667 5.5 33l41 210c10 52 26.167 91.5 48.5 118.5s53.833 40.5 94.5 40.5c32 0 55.167 -8.16699 69.5 -24.5
s21.5 -40.5 21.5 -72.5c0 -9.33301 -0.666992 -19.166 -2 -29.499s-3 -21.166 -5 -32.499zM218.001 369.998c1.33301 8 2.50098 15.667 3.50098 23s1.5 14.666 1.5 21.999c0 15.333 -2.66699 27.833 -8 37.5s-15.666 14.5 -30.999 14.5c-11.333 0 -21 -2.83301 -29 -8.5
s-14.833 -13 -20.5 -22s-10.334 -19.333 -14.001 -31s-6.83398 -23.5 -9.50098 -35.5l-45 -232c-1.33301 -8 -2.5 -16 -3.5 -24s-1.5 -15.667 -1.5 -23c0 -14.667 2.66699 -26.667 8 -36s15.666 -14 30.999 -14c10.667 0 20 2.66699 28 8s15 12.5 21 21.5
s10.833 19.333 14.5 31s6.83398 23.834 9.50098 36.501zM163.002 654.998c20.667 0 31 -9.99902 31 -29.999c0 -14 -4.33301 -25.167 -13 -33.5s-19.667 -12.5 -33 -12.5c-9.33301 0 -17 2.83301 -23 8.5s-9 13.167 -9 22.5c0 13.333 4.5 24.166 13.5 32.499
s20.167 12.5 33.5 12.5zM277.002 654.999c20.667 0 31 -9.99902 31 -29.999c0 -14 -4.33301 -25.167 -13 -33.5s-19.667 -12.5 -33 -12.5c-9.33301 0 -17 2.83301 -23 8.5s-9 13.167 -9 22.5c0 13.333 4.5 24.166 13.5 32.499s20.167 12.5 33.5 12.5z" />
    <glyph glyph-name="divide" unicode="&#xf7;" horiz-adv-x="318" 
d="M89 187c0 14.667 4.83301 26.5 14.5 35.5s21.5 13.5 35.5 13.5c10.667 0 19 -3.16699 25 -9.5s9 -14.166 9 -23.499c0 -14.667 -4.83301 -26.5 -14.5 -35.5s-21.5 -13.5 -35.5 -13.5c-10 0 -18.167 3.16699 -24.5 9.5s-9.5 14.166 -9.5 23.499zM131 401
c0 14.667 4.83301 26.5 14.5 35.5s21.5 13.5 35.5 13.5c10.667 0 19 -3.16699 25 -9.5s9 -14.166 9 -23.499c0 -14.667 -4.83301 -26.5 -14.5 -35.5s-21.5 -13.5 -35.5 -13.5c-10 0 -18.167 3.16699 -24.5 9.5s-9.5 14.166 -9.5 23.499zM35 330h246l-11 -56h-246z" />
    <glyph glyph-name="oslash" unicode="&#xf8;" horiz-adv-x="315" 
d="M235 149c-10 -52 -26.3311 -91.4971 -48.998 -118.497s-54.334 -40.5 -95.001 -40.5c-30.667 0 -53.334 8 -68.001 24l-25 -44l-24 12l33 59c-4 12.667 -6 28 -6 46c0 9.33301 0.5 19.166 1.5 29.499s2.83301 21.166 5.5 32.499l41 210c10 52 26.167 91.5 48.5 118.5
s53.833 40.5 94.5 40.5c30.667 0 53.667 -8.33301 69 -25l23 42l23 -12l-31 -56c2 -6.66699 3.66699 -13.834 5 -21.501s2 -16.167 2 -25.5s-0.666992 -19 -2 -29s-3 -20.667 -5 -32zM216.002 360.003l-155.001 -278.001c1.33301 -12 4.83301 -21.833 10.5 -29.5
s15.167 -11.5 28.5 -11.5c10.667 0 20 2.66699 28 8s15 12.5 21 21.5s10.833 19.333 14.5 31s6.83398 23.834 9.50098 36.501zM67.001 148.002l155 277c-1.33301 12 -4.66602 22 -9.99902 30s-14.666 12 -27.999 12c-11.333 0 -21 -2.83301 -29 -8.5s-14.833 -13 -20.5 -22
s-10.334 -19.333 -14.001 -31s-6.83398 -23.5 -9.50098 -35.5z" />
    <glyph glyph-name="ugrave" unicode="&#xf9;" horiz-adv-x="329" 
d="M83 508l59.998 0.000976562l-72 -370l-4 -25c-1.33301 -8 -2 -15.667 -2 -23c0 -15.333 2.83301 -27.333 8.5 -36s15.834 -13 30.501 -13c13.333 0 25.5 4.66699 36.5 14s20.167 20.666 27.5 33.999l81 419h60l-82 -423c-2.66699 -12 -2.66699 -21.667 0 -29
s9.66699 -11 21 -11l-10 -55c-26 0 -43.667 5.33301 -53 16s-14.333 26.667 -15 48c-12 -19.333 -25.667 -34.833 -41 -46.5s-33.666 -17.5 -54.999 -17.5c-46 0 -69 29.333 -69 88c0 19.333 2.33301 40.333 7 63zM237.998 683.001l18 -135h-48l-32 135h62z" />
    <glyph glyph-name="uacute" unicode="&#xfa;" horiz-adv-x="329" 
d="M83 508l59.998 0.000976562l-72 -370l-4 -25c-1.33301 -8 -2 -15.667 -2 -23c0 -15.333 2.83301 -27.333 8.5 -36s15.834 -13 30.501 -13c13.333 0 25.5 4.66699 36.5 14s20.167 20.666 27.5 33.999l81 419h60l-82 -423c-2.66699 -12 -2.66699 -21.667 0 -29
s9.66699 -11 21 -11l-10 -55c-26 0 -43.667 5.33301 -53 16s-14.333 26.667 -15 48c-12 -19.333 -25.667 -34.833 -41 -46.5s-33.666 -17.5 -54.999 -17.5c-46 0 -69 29.333 -69 88c0 19.333 2.33301 40.333 7 63zM296.998 683.001l-83 -135h-49l70 135h62z" />
    <glyph glyph-name="ucircumflex" unicode="&#xfb;" horiz-adv-x="329" 
d="M83 508l59.998 0.000976562l-72 -370l-4 -25c-1.33301 -8 -2 -15.667 -2 -23c0 -15.333 2.83301 -27.333 8.5 -36s15.834 -13 30.501 -13c13.333 0 25.5 4.66699 36.5 14s20.167 20.666 27.5 33.999l81 419h60l-82 -423c-2.66699 -12 -2.66699 -21.667 0 -29
s9.66699 -11 21 -11l-10 -55c-26 0 -43.667 5.33301 -53 16s-14.333 26.667 -15 48c-12 -19.333 -25.667 -34.833 -41 -46.5s-33.666 -17.5 -54.999 -17.5c-46 0 -69 29.333 -69 88c0 19.333 2.33301 40.333 7 63zM257.998 683.001l33 -135h-48l-18 93l-54 -93h-48l84 135
h51z" />
    <glyph glyph-name="udieresis" unicode="&#xfc;" horiz-adv-x="329" 
d="M83 508l59.998 0.000976562l-72 -370l-4 -25c-1.33301 -8 -2 -15.667 -2 -23c0 -15.333 2.83301 -27.333 8.5 -36s15.834 -13 30.501 -13c13.333 0 25.5 4.66699 36.5 14s20.167 20.666 27.5 33.999l81 419h60l-82 -423c-2.66699 -12 -2.66699 -21.667 0 -29
s9.66699 -11 21 -11l-10 -55c-26 0 -43.667 5.33301 -53 16s-14.333 26.667 -15 48c-12 -19.333 -25.667 -34.833 -41 -46.5s-33.666 -17.5 -54.999 -17.5c-46 0 -69 29.333 -69 88c0 19.333 2.33301 40.333 7 63zM170.998 655.001c20.667 0 31 -9.99902 31 -29.999
c0 -14 -4.33301 -25.167 -13 -33.5s-19.667 -12.5 -33 -12.5c-9.33301 0 -17 2.83301 -23 8.5s-9 13.167 -9 22.5c0 13.333 4.5 24.166 13.5 32.499s20.167 12.5 33.5 12.5zM284.998 655.002c20.667 0 31 -9.99902 31 -29.999c0 -14 -4.33301 -25.167 -13 -33.5
s-19.667 -12.5 -33 -12.5c-9.33301 0 -17 2.83301 -23 8.5s-9 13.167 -9 22.5c0 13.333 4.5 24.166 13.5 32.499s20.167 12.5 33.5 12.5z" />
    <glyph glyph-name="yacute" unicode="&#xfd;" horiz-adv-x="288" 
d="M61 508h59.998l-22 -410h3l139 410h60l-212 -565c-17.333 -46 -40.166 -82.833 -68.499 -110.5s-63.5 -41.5 -105.5 -41.5l10 54c19.333 0 39.333 8.5 60 25.5s37.334 42.833 50.001 77.5l15 40zM275.998 683l-83 -135h-49l70 135h62z" />
    <glyph glyph-name="thorn" unicode="&#xfe;" horiz-adv-x="324" 
d="M62 75c2 -8 6.83496 -15.667 14.502 -23s18.167 -11 31.5 -11c19.333 0 35.166 9 47.499 27s21.166 41.667 26.499 71l46 235c3.33301 15.333 5 29 5 41c0 15.333 -3 27.833 -9 37.5s-16.667 14.5 -32 14.5c-13.333 0 -25.333 -5 -36 -15s-19.667 -21.333 -27 -34z
M7.00195 -210h-60.001l179 920h54l-7 -65l-36 -186c9.33301 17.333 21.833 31.5 37.5 42.5s32.5 16.5 50.5 16.5c45.333 0 68 -29.333 68 -88c0 -9.33301 -0.5 -19.333 -1.5 -30s-2.83301 -22 -5.5 -34l-42 -216c-9.33301 -52 -25.166 -91.667 -47.499 -119
s-50.833 -41 -85.5 -41c-16 0 -28.667 3 -38 9s-16.333 13.667 -21 23z" />
    <glyph glyph-name="ydieresis" unicode="&#xff;" horiz-adv-x="288" 
d="M61 508h59.998l-22 -410h3l139 410h60l-212 -565c-17.333 -46 -40.166 -82.833 -68.499 -110.5s-63.5 -41.5 -105.5 -41.5l10 54c19.333 0 39.333 8.5 60 25.5s37.334 42.833 50.001 77.5l15 40zM149.998 655c20.667 0 31 -9.99902 31 -29.999
c0 -14 -4.33301 -25.167 -13 -33.5s-19.667 -12.5 -33 -12.5c-9.33301 0 -17 2.83301 -23 8.5s-9 13.167 -9 22.5c0 13.333 4.5 24.166 13.5 32.499s20.167 12.5 33.5 12.5zM263.998 655.001c20.667 0 31 -9.99902 31 -29.999c0 -14 -4.33301 -25.167 -13 -33.5
s-19.667 -12.5 -33 -12.5c-9.33301 0 -17 2.83301 -23 8.5s-9 13.167 -9 22.5c0 13.333 4.5 24.166 13.5 32.499s20.167 12.5 33.5 12.5z" />
    <glyph glyph-name="Amacron" unicode="&#x100;" horiz-adv-x="339" 
d="M-46 0l244 665h72l-16 -665h-62l6 164h-126l-58 -164h-60zM90 218h112l13 354h-2zM176 799h166l-10 -52h-166z" />
    <glyph glyph-name="amacron" unicode="&#x101;" horiz-adv-x="320" 
d="M230 432c-2 8 -6.66992 15.833 -14.0029 23.5s-17.666 11.5 -30.999 11.5c-21.333 0 -37.666 -9.16699 -48.999 -27.5s-19.666 -41.5 -24.999 -69.5l-46 -235c-4 -17.333 -6 -32.666 -6 -45.999c0 -14.667 2.83301 -26.334 8.5 -35.001s16.167 -13 31.5 -13
c12 0 23.833 4.83301 35.5 14.5s21.5 21.167 29.5 34.5zM179.997 518c21.333 0 37.3311 -4.83105 47.998 -14.498s18.334 -20.834 23.001 -33.501l15 38h39l-82 -422c-5.33301 -27.333 1.66699 -41 21 -41l-10 -55c-26 0 -43.667 5.16699 -53 15.5
s-14.666 26.166 -15.999 47.499c-11.333 -18 -24.5 -33 -39.5 -45s-32.5 -18 -52.5 -18c-48.667 0 -73 30 -73 90c0 16.667 2 36.667 6 60l44 226c20 101.333 63.333 152 130 152zM136.995 644.002h166l-10 -52h-166z" />
    <glyph glyph-name="Abreve" unicode="&#x102;" horiz-adv-x="339" 
d="M-46 0l244 665h72l-16 -665h-62l6 164h-126l-58 -164h-60zM90 218h112l13 354h-2zM348 820l-2 -12c-4.66699 -26.667 -15.834 -48 -33.501 -64s-40.5 -24 -68.5 -24s-47.667 8 -59 24s-14.666 37.333 -9.99902 64l2 12h49l-2 -12c-4.66699 -27.333 5 -41 29 -41
c11.333 0 21 3.33301 29 10s13.333 17 16 31l2 12h48z" />
    <glyph glyph-name="abreve" unicode="&#x103;" horiz-adv-x="320" 
d="M230 432c-2 8 -6.66992 15.833 -14.0029 23.5s-17.666 11.5 -30.999 11.5c-21.333 0 -37.666 -9.16699 -48.999 -27.5s-19.666 -41.5 -24.999 -69.5l-46 -235c-4 -17.333 -6 -32.666 -6 -45.999c0 -14.667 2.83301 -26.334 8.5 -35.001s16.167 -13 31.5 -13
c12 0 23.833 4.83301 35.5 14.5s21.5 21.167 29.5 34.5zM179.997 518c21.333 0 37.3311 -4.83105 47.998 -14.498s18.334 -20.834 23.001 -33.501l15 38h39l-82 -422c-5.33301 -27.333 1.66699 -41 21 -41l-10 -55c-26 0 -43.667 5.16699 -53 15.5
s-14.666 26.166 -15.999 47.499c-11.333 -18 -24.5 -33 -39.5 -45s-32.5 -18 -52.5 -18c-48.667 0 -73 30 -73 90c0 16.667 2 36.667 6 60l44 226c20 101.333 63.333 152 130 152zM305.995 665.002l-2 -12c-4.66699 -26.667 -15.834 -48 -33.501 -64s-40.5 -24 -68.5 -24
s-47.667 8 -59 24s-14.666 37.333 -9.99902 64l2 12h49l-2 -12c-4.66699 -27.333 5 -41 29 -41c11.333 0 21 3.33301 29 10s13.333 17 16 31l2 12h48z" />
    <glyph glyph-name="Aogonek" unicode="&#x104;" horiz-adv-x="339" 
d="M-46 0l244.001 665h72l-16 -665h-14c-32 -16.667 -57.5 -36.834 -76.5 -60.501s-28.5 -48.167 -28.5 -73.5c0 -16.667 7 -25 21 -25c7.33301 0 14.333 2.83301 21 8.5s10.667 15.834 12 30.501l1 6h40l-1 -6c-2.66699 -22.667 -11 -41.5 -25 -56.5
s-32.667 -22.5 -56 -22.5c-19.333 0 -33.833 5 -43.5 15s-14.5 23.667 -14.5 41c0 32 9.66699 60.5 29 85.5s43.666 45.833 72.999 62.5l6 159h-126l-58 -164h-60zM90.001 218h112l13 354h-2z" />
    <glyph glyph-name="aogonek" unicode="&#x105;" horiz-adv-x="320" 
d="M180 518c21.333 0 37.334 -4.83203 48.001 -14.499s18.334 -20.834 23.001 -33.501l15 38h39l-82 -422c-5.33301 -27.333 1.66699 -41 21 -41l-10 -55c-12 0 -22 1 -30 3c-28 -16.667 -50.167 -36.167 -66.5 -58.5s-24.5 -45.166 -24.5 -68.499c0 -16.667 7 -25 21 -25
c7.33301 0 14.333 2.83301 21 8.5s10.667 15.834 12 30.501l1 6h40l-1 -6c-2.66699 -22.667 -11 -41.5 -25 -56.5s-32.667 -22.5 -56 -22.5c-19.333 0 -33.833 5 -43.5 15s-14.5 23.667 -14.5 41c0 32.667 10.5 62 31.5 88s47.167 47.333 78.5 64
c-4.66699 5.33301 -7.83398 11.666 -9.50098 18.999s-2.83398 15.666 -3.50098 24.999c-11.333 -18 -24.5 -33 -39.5 -45s-32.5 -18 -52.5 -18c-48.667 0 -73 30 -73 90c0 16.667 2 36.667 6 60l44 226c20 101.333 63.333 152 130 152zM230.001 432.001
c-2 8 -6.66895 15.833 -14.002 23.5s-17.666 11.5 -30.999 11.5c-21.333 0 -37.666 -9.16699 -48.999 -27.5s-19.666 -41.5 -24.999 -69.5l-46 -235c-1.33301 -8.66699 -2.5 -16.667 -3.5 -24s-1.5 -14.666 -1.5 -21.999c0 -14.667 2.66699 -26.334 8 -35.001
s15.666 -13 30.999 -13c12 0 23.833 4.83301 35.5 14.5s21.5 21.167 29.5 34.5z" />
    <glyph glyph-name="Cacute" unicode="&#x106;" horiz-adv-x="319" 
d="M259 496l6 25.001c3.33301 15.333 5 28.666 5 39.999c0 16.667 -3.66699 30.667 -11 42s-20 17 -38 17c-22 0 -39.5 -9.16699 -52.5 -27.5s-22.167 -42.166 -27.5 -71.499l-73 -376c-3.33301 -16.667 -5 -30.667 -5 -42c0 -16.667 3.33301 -30.5 10 -41.5
s18.667 -16.5 36 -16.5c12 0 22.667 2.66699 32 8s17.333 12.5 24 21.5s12.167 19.333 16.5 31s7.5 23.5 9.5 35.5l5 28h60l-4 -22c-9.33301 -50 -26.833 -88.667 -52.5 -116s-58.834 -41 -99.501 -41c-32.667 0 -57 9 -73 27s-24 44 -24 78c0 16.667 2 35.667 6 57l71 362
c10 52 27.667 91.833 53 119.5s58 41.5 98 41.5c32.667 0 57.334 -9.33301 74.001 -28s25 -44.334 25 -77.001c0 -16 -2 -33.333 -6 -52l-5 -22h-60zM327 838.001l-83 -135h-49l70 135h62z" />
    <glyph glyph-name="cacute" unicode="&#x107;" horiz-adv-x="305" 
d="M212 336l7 34c4 16 6 31 6 45c0 15.333 -3.16699 27.833 -9.5 37.5s-17.166 14.5 -32.499 14.5c-11.333 0 -21 -2.66699 -29 -8s-14.833 -12.5 -20.5 -21.5s-10.334 -19.333 -14.001 -31s-6.83398 -23.834 -9.50098 -36.501l-45 -232l-4 -24
c-1.33301 -8 -2 -15.667 -2 -23c0 -14.667 2.83301 -26.667 8.5 -36s16.167 -14 31.5 -14c22 0 38.333 9.5 49 28.5s19 41.833 25 68.5l7 34h57l-6 -27c-10.667 -50 -26.667 -88.333 -48 -115s-52 -40 -92 -40c-32 0 -55 8.33301 -69 25s-21 41 -21 73
c0 20.667 2.33301 41.667 7 63l40 207c10 52 26.333 91.667 49 119s54.334 41 95.001 41c31.333 0 54 -7.83301 68 -23.5s21 -38.834 21 -69.501c0 -9.33301 -0.5 -19.166 -1.5 -29.499s-2.83301 -21.166 -5.5 -32.499l-5 -27h-57zM285 683l-83 -135h-49l70 135h62z" />
    <glyph glyph-name="Ccircumflex" unicode="&#x108;" horiz-adv-x="319" 
d="M259 496l6 25.001c3.33301 15.333 5 28.666 5 39.999c0 16.667 -3.66699 30.667 -11 42s-20 17 -38 17c-22 0 -39.5 -9.16699 -52.5 -27.5s-22.167 -42.166 -27.5 -71.499l-73 -376c-3.33301 -16.667 -5 -30.667 -5 -42c0 -16.667 3.33301 -30.5 10 -41.5
s18.667 -16.5 36 -16.5c12 0 22.667 2.66699 32 8s17.333 12.5 24 21.5s12.167 19.333 16.5 31s7.5 23.5 9.5 35.5l5 28h60l-4 -22c-9.33301 -50 -26.833 -88.667 -52.5 -116s-58.834 -41 -99.501 -41c-32.667 0 -57 9 -73 27s-24 44 -24 78c0 16.667 2 35.667 6 57l71 362
c10 52 27.667 91.833 53 119.5s58 41.5 98 41.5c32.667 0 57.334 -9.33301 74.001 -28s25 -44.334 25 -77.001c0 -16 -2 -33.333 -6 -52l-5 -22h-60zM288 838.001l33 -135h-48l-18 93l-54 -93h-48l84 135h51z" />
    <glyph glyph-name="ccircumflex" unicode="&#x109;" horiz-adv-x="305" 
d="M212 336l7 34c4 16 6 31 6 45c0 15.333 -3.16699 27.833 -9.5 37.5s-17.166 14.5 -32.499 14.5c-11.333 0 -21 -2.66699 -29 -8s-14.833 -12.5 -20.5 -21.5s-10.334 -19.333 -14.001 -31s-6.83398 -23.834 -9.50098 -36.501l-45 -232l-4 -24
c-1.33301 -8 -2 -15.667 -2 -23c0 -14.667 2.83301 -26.667 8.5 -36s16.167 -14 31.5 -14c22 0 38.333 9.5 49 28.5s19 41.833 25 68.5l7 34h57l-6 -27c-10.667 -50 -26.667 -88.333 -48 -115s-52 -40 -92 -40c-32 0 -55 8.33301 -69 25s-21 41 -21 73
c0 20.667 2.33301 41.667 7 63l40 207c10 52 26.333 91.667 49 119s54.334 41 95.001 41c31.333 0 54 -7.83301 68 -23.5s21 -38.834 21 -69.501c0 -9.33301 -0.5 -19.166 -1.5 -29.499s-2.83301 -21.166 -5.5 -32.499l-5 -27h-57zM248 683l33 -135h-48l-18 93l-54 -93h-48
l84 135h51z" />
    <glyph glyph-name="Cdotaccent" unicode="&#x10a;" horiz-adv-x="319" 
d="M259 496l6 25.001c3.33301 15.333 5 28.666 5 39.999c0 16.667 -3.66699 30.667 -11 42s-20 17 -38 17c-22 0 -39.5 -9.16699 -52.5 -27.5s-22.167 -42.166 -27.5 -71.499l-73 -376c-3.33301 -16.667 -5 -30.667 -5 -42c0 -16.667 3.33301 -30.5 10 -41.5
s18.667 -16.5 36 -16.5c12 0 22.667 2.66699 32 8s17.333 12.5 24 21.5s12.167 19.333 16.5 31s7.5 23.5 9.5 35.5l5 28h60l-4 -22c-9.33301 -50 -26.833 -88.667 -52.5 -116s-58.834 -41 -99.501 -41c-32.667 0 -57 9 -73 27s-24 44 -24 78c0 16.667 2 35.667 6 57l71 362
c10 52 27.667 91.833 53 119.5s58 41.5 98 41.5c32.667 0 57.334 -9.33301 74.001 -28s25 -44.334 25 -77.001c0 -16 -2 -33.333 -6 -52l-5 -22h-60zM257 812.001c10 0 18 -3 24 -9s9 -13.667 9 -23c0 -14.667 -4.5 -26.167 -13.5 -34.5s-20.167 -12.5 -33.5 -12.5
c-10 0 -18 2.83301 -24 8.5s-9 13.5 -9 23.5c0 14 4.5 25.333 13.5 34s20.167 13 33.5 13z" />
    <glyph glyph-name="cdotaccent" unicode="&#x10b;" horiz-adv-x="305" 
d="M212 336l7 34c4 16 6 31 6 45c0 15.333 -3.16699 27.833 -9.5 37.5s-17.166 14.5 -32.499 14.5c-11.333 0 -21 -2.66699 -29 -8s-14.833 -12.5 -20.5 -21.5s-10.334 -19.333 -14.001 -31s-6.83398 -23.834 -9.50098 -36.501l-45 -232l-4 -24
c-1.33301 -8 -2 -15.667 -2 -23c0 -14.667 2.83301 -26.667 8.5 -36s16.167 -14 31.5 -14c22 0 38.333 9.5 49 28.5s19 41.833 25 68.5l7 34h57l-6 -27c-10.667 -50 -26.667 -88.333 -48 -115s-52 -40 -92 -40c-32 0 -55 8.33301 -69 25s-21 41 -21 73
c0 20.667 2.33301 41.667 7 63l40 207c10 52 26.333 91.667 49 119s54.334 41 95.001 41c31.333 0 54 -7.83301 68 -23.5s21 -38.834 21 -69.501c0 -9.33301 -0.5 -19.166 -1.5 -29.499s-2.83301 -21.166 -5.5 -32.499l-5 -27h-57zM217 657c10 0 18 -3 24 -9
s9 -13.667 9 -23c0 -14.667 -4.5 -26.167 -13.5 -34.5s-20.167 -12.5 -33.5 -12.5c-10 0 -18 2.83301 -24 8.5s-9 13.5 -9 23.5c0 14 4.5 25.333 13.5 34s20.167 13 33.5 13z" />
    <glyph glyph-name="Ccaron" unicode="&#x10c;" horiz-adv-x="319" 
d="M259 496l6 25.001c3.33301 15.333 5 28.666 5 39.999c0 16.667 -3.66699 30.667 -11 42s-20 17 -38 17c-22 0 -39.5 -9.16699 -52.5 -27.5s-22.167 -42.166 -27.5 -71.499l-73 -376c-3.33301 -16.667 -5 -30.667 -5 -42c0 -16.667 3.33301 -30.5 10 -41.5
s18.667 -16.5 36 -16.5c12 0 22.667 2.66699 32 8s17.333 12.5 24 21.5s12.167 19.333 16.5 31s7.5 23.5 9.5 35.5l5 28h60l-4 -22c-9.33301 -50 -26.833 -88.667 -52.5 -116s-58.834 -41 -99.501 -41c-32.667 0 -57 9 -73 27s-24 44 -24 78c0 16.667 2 35.667 6 57l71 362
c10 52 27.667 91.833 53 119.5s58 41.5 98 41.5c32.667 0 57.334 -9.33301 74.001 -28s25 -44.334 25 -77.001c0 -16 -2 -33.333 -6 -52l-5 -22h-60zM212 703.001l-31 135h46l17 -94l55 94h46l-83 -135h-50z" />
    <glyph glyph-name="ccaron" unicode="&#x10d;" horiz-adv-x="305" 
d="M212 336l7 34c4 16 6 31 6 45c0 15.333 -3.16699 27.833 -9.5 37.5s-17.166 14.5 -32.499 14.5c-11.333 0 -21 -2.66699 -29 -8s-14.833 -12.5 -20.5 -21.5s-10.334 -19.333 -14.001 -31s-6.83398 -23.834 -9.50098 -36.501l-45 -232l-4 -24
c-1.33301 -8 -2 -15.667 -2 -23c0 -14.667 2.83301 -26.667 8.5 -36s16.167 -14 31.5 -14c22 0 38.333 9.5 49 28.5s19 41.833 25 68.5l7 34h57l-6 -27c-10.667 -50 -26.667 -88.333 -48 -115s-52 -40 -92 -40c-32 0 -55 8.33301 -69 25s-21 41 -21 73
c0 20.667 2.33301 41.667 7 63l40 207c10 52 26.333 91.667 49 119s54.334 41 95.001 41c31.333 0 54 -7.83301 68 -23.5s21 -38.834 21 -69.501c0 -9.33301 -0.5 -19.166 -1.5 -29.499s-2.83301 -21.166 -5.5 -32.499l-5 -27h-57zM170 548l-31 135h46l17 -94l55 94h46
l-83 -135h-50z" />
    <glyph glyph-name="Dcaron" unicode="&#x10e;" horiz-adv-x="345" 
d="M266 161c-10 -52 -27.833 -91.832 -53.5 -119.499s-59.167 -41.5 -100.5 -41.5h-124l129 665h124c33.333 0 58 -9 74 -27s24 -44 24 -78c0 -16.667 -2 -35.334 -6 -56.001zM274 512.001c2.66699 12.667 4 25.333 4 38c0 17.333 -3.5 31.5 -10.5 42.5
s-19.167 16.5 -36.5 16.5h-65l-108 -554h65c11.333 0 21.666 2.83301 30.999 8.5s17.333 13.167 24 22.5s12.334 19.833 17.001 31.5s8 23.5 10 35.5zM219 703l-31 135h46l17 -94l55 94h46l-83 -135h-50z" />
    <glyph glyph-name="dcaron" unicode="&#x10f;" horiz-adv-x="373" 
d="M230 432c-2 8 -6.66895 15.833 -14.002 23.5s-17.666 11.5 -30.999 11.5c-21.333 0 -37.666 -9.16699 -48.999 -27.5s-19.666 -41.5 -24.999 -69.5l-46 -235c-1.33301 -8.66699 -2.5 -16.667 -3.5 -24s-1.5 -14.666 -1.5 -21.999c0 -14.667 2.66699 -26.334 8 -35.001
s15.666 -13 30.999 -13c12 0 23.833 4.83301 35.5 14.5s21.5 21.167 29.5 34.5zM222.998 85c-3.33301 -15.333 -3.33398 -25.832 -0.000976562 -31.499s10.333 -8.5 21 -8.5l-10 -55c-26 0 -43.667 5.16699 -53 15.5s-14.666 26.166 -15.999 47.499
c-11.333 -18 -24.5 -33 -39.5 -45s-33.167 -18 -54.5 -18c-47.333 0 -71 30 -71 90c0 16.667 2 36.667 6 60l44 226c10 52.667 25.333 91.167 46 115.5s47 36.5 79 36.5c18.667 0 33 -4.33301 43 -13s16.667 -18.667 20 -30l46 235h55l-7 -65zM390.997 568.001h-32l40 125
h50z" />
    <glyph glyph-name="Dcroat" unicode="&#x110;" horiz-adv-x="350" 
d="M20 359l43 0.000976562l59 306h124c33.333 0 58 -9 74 -27s24 -44 24 -78c0 -16.667 -2 -35.334 -6 -56.001l-67 -343c-10 -52 -27.833 -91.833 -53.5 -119.5s-59.167 -41.5 -100.5 -41.5h-124l59 305h-42zM280 512.001c1.33301 6.66699 2.33203 13.1689 2.99902 19.502
s1 12.166 1 17.499c0 17.333 -3.66699 31.666 -11 42.999s-19.666 17 -36.999 17h-65l-48 -250h62l-10 -54h-63l-49 -250h65c11.333 0 21.666 2.83301 30.999 8.5s17.333 13.167 24 22.5s12.334 19.833 17.001 31.5s8 23.5 10 35.5z" />
    <glyph glyph-name="dcroat" unicode="&#x111;" horiz-adv-x="326" 
d="M328 627l34.999 0.000976562l-7 -39h-35l-98 -503c-3.33301 -15.333 -3.33301 -25.833 0 -31.5s10.333 -8.5 21 -8.5l-10 -55c-26 0 -43.667 5.16699 -53 15.5s-14.666 26.166 -15.999 47.499c-11.333 -18 -24.5 -33 -39.5 -45s-32.5 -18 -52.5 -18
c-48.667 0 -73 30 -73 90c0 16.667 2 36.667 6 60l44 226c20 101.333 62 152 126 152c18 0 32 -4.33301 42 -13s16.667 -18.667 20 -30l22 113h-103l8 39h102l17 83h55l-7 -65zM229.999 432.001c-2 8 -6.66895 15.833 -14.002 23.5s-17.666 11.5 -30.999 11.5
c-21.333 0 -37.666 -9.16699 -48.999 -27.5s-19.666 -41.5 -24.999 -69.5l-46 -235c-1.33301 -8.66699 -2.5 -16.667 -3.5 -24s-1.5 -14.666 -1.5 -21.999c0 -14.667 2.66699 -26.334 8 -35.001s15.666 -13 30.999 -13c12 0 23.833 4.83301 35.5 14.5s21.5 21.167 29.5 34.5
z" />
    <glyph glyph-name="Emacron" unicode="&#x112;" horiz-adv-x="288" 
d="M319 609h-153l-43 -224h127l-11 -55h-127l-54 -275h153l-11 -55h-212l129 665h212zM163 799h166l-10 -52h-166z" />
    <glyph glyph-name="emacron" unicode="&#x113;" horiz-adv-x="312" 
d="M95 286c30.667 2 56.334 8.00195 77.001 18.002s34.667 30.333 42 61l6 26c1.33301 5.33301 2.33301 10.166 3 14.499s1 8.83301 1 13.5c0 13.333 -3 24.666 -9 33.999s-16.333 14 -31 14c-11.333 0 -21 -2.83301 -29 -8.5s-14.833 -13 -20.5 -22
s-10.334 -19.333 -14.001 -31s-6.5 -23.5 -8.5 -35.5zM177 155.002l59.001 -0.00195312l-3 -13c-9.33301 -48 -25.333 -85.333 -48 -112s-54 -40 -94 -40c-32 0 -55 8.16699 -69 24.5s-21 40.166 -21 71.499c0 9.33301 0.666992 19.333 2 30s3 22 5 34l41 207
c10 52 26.333 91.833 49 119.5s54 41.5 94 41.5c30 0 52.667 -8.33301 68 -25s23 -39 23 -67c0 -11.333 -1.66699 -24.666 -5 -39.999l-6 -30c-5.33301 -24 -14 -43.333 -26 -58s-26.333 -26.167 -43 -34.5s-35.167 -14.166 -55.5 -17.499
s-41.166 -5.66602 -62.499 -6.99902l-19 -101l-4 -24c-1.33301 -8 -2 -15.667 -2 -23c0 -14.667 2.83301 -26.667 8.5 -36s16.167 -14 31.5 -14c21.333 0 37.666 9.33301 48.999 28s19.666 41 24.999 67zM127.001 644h166l-10 -52h-166z" />
    <glyph glyph-name="Ebreve" unicode="&#x114;" horiz-adv-x="288" 
d="M319 609h-153l-43 -224h127l-11 -55h-127l-54 -275h153l-11 -55h-212l129 665h212zM335 820l-2 -12c-4.66699 -26.667 -15.834 -48 -33.501 -64s-40.5 -24 -68.5 -24s-47.667 8 -59 24s-14.666 37.333 -9.99902 64l2 12h49l-2 -12c-4.66699 -27.333 5 -41 29 -41
c11.333 0 21 3.33301 29 10s13.333 17 16 31l2 12h48z" />
    <glyph glyph-name="ebreve" unicode="&#x115;" horiz-adv-x="312" 
d="M95 286c30.667 2 56.334 8.00195 77.001 18.002s34.667 30.333 42 61l6 26c1.33301 5.33301 2.33301 10.166 3 14.499s1 8.83301 1 13.5c0 13.333 -3 24.666 -9 33.999s-16.333 14 -31 14c-11.333 0 -21 -2.83301 -29 -8.5s-14.833 -13 -20.5 -22
s-10.334 -19.333 -14.001 -31s-6.5 -23.5 -8.5 -35.5zM177 155.002l59.001 -0.00195312l-3 -13c-9.33301 -48 -25.333 -85.333 -48 -112s-54 -40 -94 -40c-32 0 -55 8.16699 -69 24.5s-21 40.166 -21 71.499c0 9.33301 0.666992 19.333 2 30s3 22 5 34l41 207
c10 52 26.333 91.833 49 119.5s54 41.5 94 41.5c30 0 52.667 -8.33301 68 -25s23 -39 23 -67c0 -11.333 -1.66699 -24.666 -5 -39.999l-6 -30c-5.33301 -24 -14 -43.333 -26 -58s-26.333 -26.167 -43 -34.5s-35.167 -14.166 -55.5 -17.499
s-41.166 -5.66602 -62.499 -6.99902l-19 -101l-4 -24c-1.33301 -8 -2 -15.667 -2 -23c0 -14.667 2.83301 -26.667 8.5 -36s16.167 -14 31.5 -14c21.333 0 37.666 9.33301 48.999 28s19.666 41 24.999 67zM299.001 665l-2 -12c-4.66699 -26.667 -15.834 -48 -33.501 -64
s-40.5 -24 -68.5 -24s-47.667 8 -59 24s-14.666 37.333 -9.99902 64l2 12h49l-2 -12c-4.66699 -27.333 5 -41 29 -41c11.333 0 21 3.33301 29 10s13.333 17 16 31l2 12h48z" />
    <glyph glyph-name="Edotaccent" unicode="&#x116;" horiz-adv-x="288" 
d="M319 609h-153l-43 -224h127l-11 -55h-127l-54 -275h153l-11 -55h-212l129 665h212zM248 812c10 0 18 -3 24 -9s9 -13.667 9 -23c0 -14.667 -4.5 -26.167 -13.5 -34.5s-20.167 -12.5 -33.5 -12.5c-10 0 -18 2.83301 -24 8.5s-9 13.5 -9 23.5c0 14 4.5 25.333 13.5 34
s20.167 13 33.5 13z" />
    <glyph glyph-name="edotaccent" unicode="&#x117;" horiz-adv-x="312" 
d="M95 286c30.667 2 56.334 8.00195 77.001 18.002s34.667 30.333 42 61l6 26c1.33301 5.33301 2.33301 10.166 3 14.499s1 8.83301 1 13.5c0 13.333 -3 24.666 -9 33.999s-16.333 14 -31 14c-11.333 0 -21 -2.83301 -29 -8.5s-14.833 -13 -20.5 -22
s-10.334 -19.333 -14.001 -31s-6.5 -23.5 -8.5 -35.5zM177 155.002l59.001 -0.00195312l-3 -13c-9.33301 -48 -25.333 -85.333 -48 -112s-54 -40 -94 -40c-32 0 -55 8.16699 -69 24.5s-21 40.166 -21 71.499c0 9.33301 0.666992 19.333 2 30s3 22 5 34l41 207
c10 52 26.333 91.833 49 119.5s54 41.5 94 41.5c30 0 52.667 -8.33301 68 -25s23 -39 23 -67c0 -11.333 -1.66699 -24.666 -5 -39.999l-6 -30c-5.33301 -24 -14 -43.333 -26 -58s-26.333 -26.167 -43 -34.5s-35.167 -14.166 -55.5 -17.499
s-41.166 -5.66602 -62.499 -6.99902l-19 -101l-4 -24c-1.33301 -8 -2 -15.667 -2 -23c0 -14.667 2.83301 -26.667 8.5 -36s16.167 -14 31.5 -14c21.333 0 37.666 9.33301 48.999 28s19.666 41 24.999 67zM212.001 657c10 0 18 -3 24 -9s9 -13.667 9 -23
c0 -14.667 -4.5 -26.167 -13.5 -34.5s-20.167 -12.5 -33.5 -12.5c-10 0 -18 2.83301 -24 8.5s-9 13.5 -9 23.5c0 14 4.5 25.333 13.5 34s20.167 13 33.5 13z" />
    <glyph glyph-name="Eogonek" unicode="&#x118;" horiz-adv-x="288" 
d="M319 609h-153.001l-43 -224h127l-11 -55h-127l-54 -275h153l-11 -55h-12c-32 -16.667 -57.333 -36.834 -76 -60.501s-28 -48.167 -28 -73.5c0 -16.667 6.66699 -25 20 -25c8 0 15.167 2.83301 21.5 8.5s10.166 15.834 11.499 30.501l1 6h40l-1 -6
c-2.66699 -22.667 -11 -41.5 -25 -56.5s-32.667 -22.5 -56 -22.5c-19.333 0 -33.666 5 -42.999 15s-14 23.667 -14 41c0 30 8.83301 57.167 26.5 81.5s39.834 44.833 66.501 61.5h-144l129 665h212z" />
    <glyph glyph-name="eogonek" unicode="&#x119;" horiz-adv-x="312" 
d="M177 155l58.998 -0.00585938l-3 -15c-13.333 -67.333 -38.333 -112 -75 -134c-30.667 -19.333 -55.334 -41.166 -74.001 -65.499s-28 -49.166 -28 -74.499c0 -16.667 7 -25 21 -25c7.33301 0 14.333 2.83301 21 8.5s10.667 15.834 12 30.501l1 6h40l-1 -6
c-2.66699 -22.667 -11 -41.5 -25 -56.5s-32.667 -22.5 -56 -22.5c-19.333 0 -33.833 5 -43.5 15s-14.5 23.667 -14.5 41c0 27.333 7.33301 52.166 22 74.499s33.667 41.833 57 58.5c-32 0.666992 -54.833 8.83398 -68.5 24.501s-20.5 39.167 -20.5 70.5
c0 20.667 2.33301 42.334 7 65.001l41 207c10 52 26.333 91.833 49 119.5s54 41.5 94 41.5c30.667 0 53.334 -8.33301 68.001 -25s22 -39 22 -67c0 -6 -0.333008 -12.333 -1 -19s-1.66699 -13.667 -3 -21l-6 -30c-5.33301 -24 -14 -43.333 -26 -58
s-26.333 -26.167 -43 -34.5s-35.167 -14.166 -55.5 -17.499s-41.166 -5.66602 -62.499 -6.99902l-19 -101l-4 -24c-1.33301 -8 -2 -15.667 -2 -23c0 -14.667 2.83301 -26.667 8.5 -36s16.167 -14 31.5 -14c21.333 0 37.833 9.66699 49.5 29s19.834 42 24.501 68z
M94.998 285.994c30.667 2 56.334 8.00195 77.001 18.002s34.667 30.333 42 61l6 26c1.33301 5.33301 2.33301 10.166 3 14.499s1 8.83301 1 13.5c0 13.333 -3 24.666 -9 33.999s-16.333 14 -31 14c-11.333 0 -21 -2.83301 -29 -8.5s-14.833 -13 -20.5 -22
s-10.334 -19.333 -14.001 -31s-6.5 -23.5 -8.5 -35.5z" />
    <glyph glyph-name="Ecaron" unicode="&#x11a;" horiz-adv-x="288" 
d="M319 609h-153l-43 -224h127l-11 -55h-127l-54 -275h153l-11 -55h-212l129 665h212zM203 703l-31 135h46l17 -94l55 94h46l-83 -135h-50z" />
    <glyph glyph-name="ecaron" unicode="&#x11b;" horiz-adv-x="312" 
d="M95 286c30.667 2 56.334 8.00195 77.001 18.002s34.667 30.333 42 61l6 26c1.33301 5.33301 2.33301 10.166 3 14.499s1 8.83301 1 13.5c0 13.333 -3 24.666 -9 33.999s-16.333 14 -31 14c-11.333 0 -21 -2.83301 -29 -8.5s-14.833 -13 -20.5 -22
s-10.334 -19.333 -14.001 -31s-6.5 -23.5 -8.5 -35.5zM177 155.002l59.001 -0.00195312l-3 -13c-9.33301 -48 -25.333 -85.333 -48 -112s-54 -40 -94 -40c-32 0 -55 8.16699 -69 24.5s-21 40.166 -21 71.499c0 9.33301 0.666992 19.333 2 30s3 22 5 34l41 207
c10 52 26.333 91.833 49 119.5s54 41.5 94 41.5c30 0 52.667 -8.33301 68 -25s23 -39 23 -67c0 -11.333 -1.66699 -24.666 -5 -39.999l-6 -30c-5.33301 -24 -14 -43.333 -26 -58s-26.333 -26.167 -43 -34.5s-35.167 -14.166 -55.5 -17.499
s-41.166 -5.66602 -62.499 -6.99902l-19 -101l-4 -24c-1.33301 -8 -2 -15.667 -2 -23c0 -14.667 2.83301 -26.667 8.5 -36s16.167 -14 31.5 -14c21.333 0 37.666 9.33301 48.999 28s19.666 41 24.999 67zM167.001 548l-31 135h46l17 -94l55 94h46l-83 -135h-50z" />
    <glyph glyph-name="Gcircumflex" unicode="&#x11c;" 
d="M173 321l10.998 55h116l-44 -229c-10 -50.667 -28 -89.5 -54 -116.5s-59.333 -40.5 -100 -40.5c-33.333 0 -58.166 9 -74.499 27s-24.5 44 -24.5 78c0 17.333 2 36 6 56l71 363c10 52 27.833 91.833 53.5 119.5s58.5 41.5 98.5 41.5c67.333 0 101 -35.667 101 -107
c0 -19.333 -2.33301 -39.666 -7 -60.999l-3 -11h-60l6 26c1.33301 6 2.33301 12.167 3 18.5s1 12.5 1 18.5c0 16.667 -3.5 31 -10.5 43s-19.833 18 -38.5 18c-12 0 -22.5 -2.83301 -31.5 -8.5s-16.833 -13 -23.5 -22s-12.334 -19.333 -17.001 -31s-8 -23.834 -10 -36.501
l-75 -378c-1.33301 -6.66699 -2.33301 -13.167 -3 -19.5s-1 -12.5 -1 -18.5c0 -17.333 3.5 -31.833 10.5 -43.5s19.5 -17.5 37.5 -17.5c12 0 22.833 2.83301 32.5 8.5s17.834 13 24.501 22s12.334 19.333 17.001 31s8 23.5 10 35.5l35 179h-57zM286.998 838l33 -135h-48
l-18 93l-54 -93h-48l84 135h51z" />
    <glyph glyph-name="gcircumflex" unicode="&#x11d;" horiz-adv-x="321" 
d="M230 432c-2 8.66699 -6.83496 16.667 -14.502 24s-18.167 11 -31.5 11c-20.667 0 -36.667 -9.16699 -48 -27.5s-19.666 -41.5 -24.999 -69.5l-45 -232l-4 -25c-1.33301 -8 -2 -15.667 -2 -23c0 -14.667 2.83301 -26.5 8.5 -35.5s15.834 -13.5 30.501 -13.5
c12.667 0 24.5 4.83301 35.5 14.5s20.5 21.167 28.5 34.5zM24.998 -78l-1.99707 -8.99902c-5.33301 -21.333 -4.5 -38.666 2.5 -51.999s19.167 -20 36.5 -20c22 0 38.167 9.16699 48.5 27.5s18.166 41.5 23.499 69.5l21 110c-10.667 -17.333 -23 -31.333 -37 -42
s-30.667 -16 -50 -16c-23.333 0 -40.5 6.66699 -51.5 20s-16.5 34.666 -16.5 63.999c0 10.667 0.5 22.167 1.5 34.5s3.16699 26.166 6.5 41.499l40 208c10 52 26 91.667 48 119s50.333 41 85 41c21.333 0 37.166 -4.83301 47.499 -14.5s17.833 -20.834 22.5 -33.501l15 38
h39l-108 -557c-10.667 -52 -27.334 -91.833 -50.001 -119.5s-54 -41.5 -94 -41.5c-30 0 -53.167 7.33301 -69.5 22s-24.5 36 -24.5 64c0 12.667 1.33301 24.334 4 35.001l3 11h59zM254.001 683.001l33 -135h-48l-18 93l-54 -93h-48l84 135h51z" />
    <glyph glyph-name="Gbreve" unicode="&#x11e;" 
d="M173 321l10.998 55h116l-44 -229c-10 -50.667 -28 -89.5 -54 -116.5s-59.333 -40.5 -100 -40.5c-33.333 0 -58.166 9 -74.499 27s-24.5 44 -24.5 78c0 17.333 2 36 6 56l71 363c10 52 27.833 91.833 53.5 119.5s58.5 41.5 98.5 41.5c67.333 0 101 -35.667 101 -107
c0 -19.333 -2.33301 -39.666 -7 -60.999l-3 -11h-60l6 26c1.33301 6 2.33301 12.167 3 18.5s1 12.5 1 18.5c0 16.667 -3.5 31 -10.5 43s-19.833 18 -38.5 18c-12 0 -22.5 -2.83301 -31.5 -8.5s-16.833 -13 -23.5 -22s-12.334 -19.333 -17.001 -31s-8 -23.834 -10 -36.501
l-75 -378c-1.33301 -6.66699 -2.33301 -13.167 -3 -19.5s-1 -12.5 -1 -18.5c0 -17.333 3.5 -31.833 10.5 -43.5s19.5 -17.5 37.5 -17.5c12 0 22.833 2.83301 32.5 8.5s17.834 13 24.501 22s12.334 19.333 17.001 31s8 23.5 10 35.5l35 179h-57zM341.998 820l-2 -12
c-4.66699 -26.667 -15.834 -48 -33.501 -64s-40.5 -24 -68.5 -24s-47.667 8 -59 24s-14.666 37.333 -9.99902 64l2 12h49l-2 -12c-4.66699 -27.333 5 -41 29 -41c11.333 0 21 3.33301 29 10s13.333 17 16 31l2 12h48z" />
    <glyph glyph-name="gbreve" unicode="&#x11f;" horiz-adv-x="321" 
d="M230 432c-2 8.66699 -6.83496 16.667 -14.502 24s-18.167 11 -31.5 11c-20.667 0 -36.667 -9.16699 -48 -27.5s-19.666 -41.5 -24.999 -69.5l-45 -232l-4 -25c-1.33301 -8 -2 -15.667 -2 -23c0 -14.667 2.83301 -26.5 8.5 -35.5s15.834 -13.5 30.501 -13.5
c12.667 0 24.5 4.83301 35.5 14.5s20.5 21.167 28.5 34.5zM24.998 -78l-1.99707 -8.99902c-5.33301 -21.333 -4.5 -38.666 2.5 -51.999s19.167 -20 36.5 -20c22 0 38.167 9.16699 48.5 27.5s18.166 41.5 23.499 69.5l21 110c-10.667 -17.333 -23 -31.333 -37 -42
s-30.667 -16 -50 -16c-23.333 0 -40.5 6.66699 -51.5 20s-16.5 34.666 -16.5 63.999c0 10.667 0.5 22.167 1.5 34.5s3.16699 26.166 6.5 41.499l40 208c10 52 26 91.667 48 119s50.333 41 85 41c21.333 0 37.166 -4.83301 47.499 -14.5s17.833 -20.834 22.5 -33.501l15 38
h39l-108 -557c-10.667 -52 -27.334 -91.833 -50.001 -119.5s-54 -41.5 -94 -41.5c-30 0 -53.167 7.33301 -69.5 22s-24.5 36 -24.5 64c0 12.667 1.33301 24.334 4 35.001l3 11h59zM309.001 665.001l-2 -12c-4.66699 -26.667 -15.834 -48 -33.501 -64s-40.5 -24 -68.5 -24
s-47.667 8 -59 24s-14.666 37.333 -9.99902 64l2 12h49l-2 -12c-4.66699 -27.333 5 -41 29 -41c11.333 0 21 3.33301 29 10s13.333 17 16 31l2 12h48z" />
    <glyph glyph-name="Gdotaccent" unicode="&#x120;" 
d="M173 321l10.998 55h116l-44 -229c-10 -50.667 -28 -89.5 -54 -116.5s-59.333 -40.5 -100 -40.5c-33.333 0 -58.166 9 -74.499 27s-24.5 44 -24.5 78c0 17.333 2 36 6 56l71 363c10 52 27.833 91.833 53.5 119.5s58.5 41.5 98.5 41.5c67.333 0 101 -35.667 101 -107
c0 -19.333 -2.33301 -39.666 -7 -60.999l-3 -11h-60l6 26c1.33301 6 2.33301 12.167 3 18.5s1 12.5 1 18.5c0 16.667 -3.5 31 -10.5 43s-19.833 18 -38.5 18c-12 0 -22.5 -2.83301 -31.5 -8.5s-16.833 -13 -23.5 -22s-12.334 -19.333 -17.001 -31s-8 -23.834 -10 -36.501
l-75 -378c-1.33301 -6.66699 -2.33301 -13.167 -3 -19.5s-1 -12.5 -1 -18.5c0 -17.333 3.5 -31.833 10.5 -43.5s19.5 -17.5 37.5 -17.5c12 0 22.833 2.83301 32.5 8.5s17.834 13 24.501 22s12.334 19.333 17.001 31s8 23.5 10 35.5l35 179h-57zM255.998 812
c10 0 18 -3 24 -9s9 -13.667 9 -23c0 -14.667 -4.5 -26.167 -13.5 -34.5s-20.167 -12.5 -33.5 -12.5c-10 0 -18 2.83301 -24 8.5s-9 13.5 -9 23.5c0 14 4.5 25.333 13.5 34s20.167 13 33.5 13z" />
    <glyph glyph-name="gdotaccent" unicode="&#x121;" horiz-adv-x="321" 
d="M230 432c-2 8.66699 -6.83496 16.667 -14.502 24s-18.167 11 -31.5 11c-20.667 0 -36.667 -9.16699 -48 -27.5s-19.666 -41.5 -24.999 -69.5l-45 -232l-4 -25c-1.33301 -8 -2 -15.667 -2 -23c0 -14.667 2.83301 -26.5 8.5 -35.5s15.834 -13.5 30.501 -13.5
c12.667 0 24.5 4.83301 35.5 14.5s20.5 21.167 28.5 34.5zM24.998 -78l-1.99707 -8.99902c-5.33301 -21.333 -4.5 -38.666 2.5 -51.999s19.167 -20 36.5 -20c22 0 38.167 9.16699 48.5 27.5s18.166 41.5 23.499 69.5l21 110c-10.667 -17.333 -23 -31.333 -37 -42
s-30.667 -16 -50 -16c-23.333 0 -40.5 6.66699 -51.5 20s-16.5 34.666 -16.5 63.999c0 10.667 0.5 22.167 1.5 34.5s3.16699 26.166 6.5 41.499l40 208c10 52 26 91.667 48 119s50.333 41 85 41c21.333 0 37.166 -4.83301 47.499 -14.5s17.833 -20.834 22.5 -33.501l15 38
h39l-108 -557c-10.667 -52 -27.334 -91.833 -50.001 -119.5s-54 -41.5 -94 -41.5c-30 0 -53.167 7.33301 -69.5 22s-24.5 36 -24.5 64c0 12.667 1.33301 24.334 4 35.001l3 11h59zM223.001 657.001c10 0 18 -3 24 -9s9 -13.667 9 -23c0 -14.667 -4.5 -26.167 -13.5 -34.5
s-20.167 -12.5 -33.5 -12.5c-10 0 -18 2.83301 -24 8.5s-9 13.5 -9 23.5c0 14 4.5 25.333 13.5 34s20.167 13 33.5 13z" />
    <glyph glyph-name="Gcommaaccent" unicode="&#x122;" 
d="M173 321l10.998 55h116l-44 -229c-10 -50.667 -28 -89.5 -54 -116.5s-59.333 -40.5 -100 -40.5c-33.333 0 -58.166 9 -74.499 27s-24.5 44 -24.5 78c0 17.333 2 36 6 56l71 363c10 52 27.833 91.833 53.5 119.5s58.5 41.5 98.5 41.5c67.333 0 101 -35.667 101 -107
c0 -19.333 -2.33301 -39.666 -7 -60.999l-3 -11h-60l6 26c1.33301 6 2.33301 12.167 3 18.5s1 12.5 1 18.5c0 16.667 -3.5 31 -10.5 43s-19.833 18 -38.5 18c-12 0 -22.5 -2.83301 -31.5 -8.5s-16.833 -13 -23.5 -22s-12.334 -19.333 -17.001 -31s-8 -23.834 -10 -36.501
l-75 -378c-1.33301 -6.66699 -2.33301 -13.167 -3 -19.5s-1 -12.5 -1 -18.5c0 -17.333 3.5 -31.833 10.5 -43.5s19.5 -17.5 37.5 -17.5c12 0 22.833 2.83301 32.5 8.5s17.834 13 24.501 22s12.334 19.333 17.001 31s8 23.5 10 35.5l35 179h-57zM62.998 -161h-42l46 121h58z
" />
    <glyph glyph-name="gcommaaccent" unicode="&#x123;" horiz-adv-x="321" 
d="M230 432c-2 8.66699 -6.83496 16.667 -14.502 24s-18.167 11 -31.5 11c-20.667 0 -36.667 -9.16699 -48 -27.5s-19.666 -41.5 -24.999 -69.5l-45 -232l-4 -25c-1.33301 -8 -2 -15.667 -2 -23c0 -14.667 2.83301 -26.5 8.5 -35.5s15.834 -13.5 30.501 -13.5
c12.667 0 24.5 4.83301 35.5 14.5s20.5 21.167 28.5 34.5zM24.998 -78l-1.99707 -8.99902c-5.33301 -21.333 -4.5 -38.666 2.5 -51.999s19.167 -20 36.5 -20c22 0 38.167 9.16699 48.5 27.5s18.166 41.5 23.499 69.5l21 110c-10.667 -17.333 -23 -31.333 -37 -42
s-30.667 -16 -50 -16c-23.333 0 -40.5 6.66699 -51.5 20s-16.5 34.666 -16.5 63.999c0 10.667 0.5 22.167 1.5 34.5s3.16699 26.166 6.5 41.499l40 208c10 52 26 91.667 48 119s50.333 41 85 41c21.333 0 37.166 -4.83301 47.499 -14.5s17.833 -20.834 22.5 -33.501l15 38
h39l-108 -557c-10.667 -52 -27.334 -91.833 -50.001 -119.5s-54 -41.5 -94 -41.5c-30 0 -53.167 7.33301 -69.5 22s-24.5 36 -24.5 64c0 12.667 1.33301 24.334 4 35.001l3 11h59zM239.001 677.001h39l-38 -121h-58z" />
    <glyph glyph-name="Hcircumflex" unicode="&#x124;" horiz-adv-x="361" 
d="M176 0l64 328h-135l-64 -328h-60l129 665h60l-55 -282h136l54 282h60l-129 -665h-60zM293 838l33 -135h-48l-18 93l-54 -93h-48l84 135h51z" />
    <glyph glyph-name="hcircumflex" unicode="&#x125;" horiz-adv-x="329" 
d="M137 459c10 14.667 22.1689 28.165 36.502 40.498s32.166 18.5 53.499 18.5c44 0 66 -28 66 -84c0 -10 -0.666992 -21 -2 -33s-3.33301 -25 -6 -39l-71 -362h-55l8 64l59 306c1.33301 9.33301 2.66602 18 3.99902 26s2 15.667 2 23c0 14.667 -2.83301 26.334 -8.5 35.001
s-15.167 13 -28.5 13c-14.667 0 -27.5 -5.16699 -38.5 -15.5s-20.167 -22.166 -27.5 -35.499l-81 -416h-60l138 710h54l-7 -65zM266.002 874.998l33 -135h-48l-18 93l-54 -93h-48l84 135h51z" />
    <glyph glyph-name="Hbar" unicode="&#x126;" horiz-adv-x="361" 
d="M176 0l64 328h-136l-63 -328h-60l129 665h60l-27 -136h136l26 136h60l-129 -665h-60zM251 383l18 95h-136l-18 -95h136z" />
    <glyph glyph-name="hbar" unicode="&#x127;" horiz-adv-x="329" 
d="M169 627l112.002 -0.00195312l-7 -39h-112l-25 -129c10 14.667 22.167 28.167 36.5 40.5s32.166 18.5 53.499 18.5c44 0 66 -28 66 -84c0 -10 -0.666992 -21 -2 -33s-3.33301 -25 -6 -39l-71 -362h-55l8 64l59 306c1.33301 9.33301 2.66602 18 3.99902 26s2 15.667 2 23
c0 14.667 -2.83301 26.334 -8.5 35.001s-15.167 13 -28.5 13c-14.667 0 -27.5 -5.16699 -38.5 -15.5s-20.167 -22.166 -27.5 -35.499l-81 -416h-60l114 588h-30l7 39h31l16 83h54l-7 -65z" />
    <glyph glyph-name="Itilde" unicode="&#x128;" horiz-adv-x="166" 
d="M-12 0l129 665h60l-129 -665h-60zM55 724c2 18 5.66797 32.832 11.001 44.499s11.5 21 18.5 28s14.333 12 22 15s15.167 4.5 22.5 4.5c10.667 0 19.667 -2.16699 27 -6.5s13.833 -9.33301 19.5 -15s11 -10.667 16 -15s10.5 -6.5 16.5 -6.5s11.667 2.5 17 7.5
s8.66602 16.167 9.99902 33.5l1 5h46l-1 -5c-2.66699 -18 -6.5 -32.833 -11.5 -44.5s-10.833 -21 -17.5 -28s-13.834 -12 -21.501 -15s-15.167 -4.5 -22.5 -4.5c-10 0 -18.5 2.33301 -25.5 7s-13.5 9.83398 -19.5 15.501l-17 15.5c-5.33301 4.66699 -10.666 7 -15.999 7
c-6 0 -11.833 -2.66699 -17.5 -8s-9.16699 -17 -10.5 -35l-1 -4h-46v4z" />
    <glyph glyph-name="itilde" unicode="&#x129;" horiz-adv-x="165" 
d="M87 508h53l-6 -65l-86 -443h-60zM24 569c2 18 5.66797 32.832 11.001 44.499s11.5 21 18.5 28s14.333 12 22 15s15.167 4.5 22.5 4.5c10.667 0 19.667 -2.16699 27 -6.5s13.833 -9.33301 19.5 -15s11 -10.667 16 -15s10.5 -6.5 16.5 -6.5s11.667 2.5 17 7.5
s8.66602 16.167 9.99902 33.5l1 5h46l-1 -5c-2.66699 -18 -6.5 -32.833 -11.5 -44.5s-10.833 -21 -17.5 -28s-13.834 -12 -21.501 -15s-15.167 -4.5 -22.5 -4.5c-10 0 -18.5 2.33301 -25.5 7s-13.5 9.83398 -19.5 15.501l-17 15.5c-5.33301 4.66699 -10.666 7 -15.999 7
c-6 0 -11.833 -2.66699 -17.5 -8s-9.16699 -17 -10.5 -35l-1 -4h-46v4z" />
    <glyph glyph-name="Imacron" unicode="&#x12a;" horiz-adv-x="166" 
d="M-12 0l129 665h60l-129 -665h-60zM90 799h166l-10 -52h-166z" />
    <glyph glyph-name="imacron" unicode="&#x12b;" horiz-adv-x="165" 
d="M87 508h53l-6 -65l-86 -443h-60zM60 644h166l-10 -52h-166z" />
    <glyph glyph-name="Ibreve" unicode="&#x12c;" horiz-adv-x="166" 
d="M-12 0l129 665h60l-129 -665h-60zM262 820l-2 -12c-4.66699 -26.667 -15.834 -48 -33.501 -64s-40.5 -24 -68.5 -24s-47.667 8 -59 24s-14.666 37.333 -9.99902 64l2 12h49l-2 -12c-4.66699 -27.333 5 -41 29 -41c11.333 0 21 3.33301 29 10s13.333 17 16 31l2 12h48z
" />
    <glyph glyph-name="ibreve" unicode="&#x12d;" horiz-adv-x="165" 
d="M87 508h53l-6 -65l-86 -443h-60zM231 665l-2 -12c-4.66699 -26.667 -15.834 -48 -33.501 -64s-40.5 -24 -68.5 -24s-47.667 8 -59 24s-14.666 37.333 -9.99902 64l2 12h49l-2 -12c-4.66699 -27.333 5 -41 29 -41c11.333 0 21 3.33301 29 10s13.333 17 16 31l2 12h48z" />
    <glyph glyph-name="Iogonek" unicode="&#x12e;" horiz-adv-x="166" 
d="M36 0c-32 -16.667 -57.5 -36.834 -76.5 -60.501s-28.5 -48.167 -28.5 -73.5c0 -16.667 6.66699 -25 20 -25c8 0 15.333 2.83301 22 8.5s10.667 15.834 12 30.501l1 6h40l-1 -6c-2.66699 -22.667 -11.167 -41.5 -25.5 -56.5s-32.833 -22.5 -55.5 -22.5
c-19.333 0 -33.833 5 -43.5 15s-14.5 23.667 -14.5 41c0 32 9.83301 60.5 29.5 85.5s44.167 45.833 73.5 62.5l128 660h60l-129 -665h-12z" />
    <glyph glyph-name="iogonek" unicode="&#x12f;" horiz-adv-x="165" 
d="M87 508h53l-6 -65l-86 -443h-4c-32 -16.667 -57.5 -36.834 -76.5 -60.501s-28.5 -48.167 -28.5 -73.5c0 -16.667 7 -25 21 -25c7.33301 0 14.333 2.83301 21 8.5s10.667 15.834 12 30.501l1 6h40l-1 -6c-2.66699 -22.667 -11 -41.5 -25 -56.5s-32.667 -22.5 -56 -22.5
c-19.333 0 -33.833 5 -43.5 15s-14.5 23.667 -14.5 41c0 30 8.83301 57.167 26.5 81.5s40.167 44.833 67.5 61.5zM145 651c20.667 0 31 -9.99902 31 -29.999c0 -14 -4.33301 -25.167 -13 -33.5s-19.667 -12.5 -33 -12.5c-9.33301 0 -17 2.83301 -23 8.5s-9 13.167 -9 22.5
c0 13.333 4.5 24.166 13.5 32.499s20.167 12.5 33.5 12.5z" />
    <glyph glyph-name="Idotaccent" unicode="&#x130;" horiz-adv-x="166" 
d="M-12 0l129 665h60l-129 -665h-60zM176 812c10 0 18 -3 24 -9s9 -13.667 9 -23c0 -14.667 -4.5 -26.167 -13.5 -34.5s-20.167 -12.5 -33.5 -12.5c-10 0 -18 2.83301 -24 8.5s-9 13.5 -9 23.5c0 14 4.5 25.333 13.5 34s20.167 13 33.5 13z" />
    <glyph glyph-name="dotlessi" unicode="&#x131;" horiz-adv-x="165" 
d="M87 508h53l-6 -65l-86 -443h-60z" />
    <glyph glyph-name="IJ" unicode="&#x132;" horiz-adv-x="376" 
d="M-12 0l129 665h60l-129 -665h-60zM133 44c14.667 0.666992 27.332 4.00098 37.999 10.001s19.834 13.667 27.501 23s14 19.666 19 30.999s8.5 23 10.5 35l101 522h60l-100 -514c-20 -102 -75.667 -156 -167 -162z" />
    <glyph glyph-name="ij" unicode="&#x133;" horiz-adv-x="327" 
d="M87 508h53l-6 -65l-86 -443h-60zM145 651c20.667 0 31 -9.99902 31 -29.999c0 -14 -4.33301 -25.167 -13 -33.5s-19.667 -12.5 -33 -12.5c-9.33301 0 -17 2.83301 -23 8.5s-9 13.167 -9 22.5c0 13.333 4.5 24.166 13.5 32.499s20.167 12.5 33.5 12.5zM301 508.001
l-6.00098 -65l-94 -483c-12 -60.667 -29.833 -104.167 -53.5 -130.5s-55.834 -39.5 -96.501 -39.5l11 55c12.667 0 23.334 2.83301 32.001 8.5s16 13.5 22 23.5s10.833 21.667 14.5 35s6.83398 27.333 9.50098 42l108 554h53zM305.999 651.001
c20.667 0 31 -9.99902 31 -29.999c0 -14 -4.33301 -25.167 -13 -33.5s-19.667 -12.5 -33 -12.5c-21.333 0 -32 10.333 -32 31c0 13.333 4.5 24.166 13.5 32.499s20.167 12.5 33.5 12.5z" />
    <glyph glyph-name="Jcircumflex" unicode="&#x134;" horiz-adv-x="210" 
d="M-33 44c14.667 0.666992 27.332 4.00098 37.999 10.001s19.834 13.667 27.501 23s14 19.666 19 30.999s8.5 23 10.5 35l101 522h60l-100 -514c-20 -102 -75.667 -156 -167 -162zM251.998 838.001l33 -135h-48l-18 93l-54 -93h-48l84 135h51z" />
    <glyph glyph-name="jcircumflex" unicode="&#x135;" horiz-adv-x="167" 
d="M140 508l-6.00195 -65l-94 -483c-12 -60.667 -29.833 -104.167 -53.5 -130.5s-55.834 -39.5 -96.501 -39.5l11 55c12.667 0 23.334 2.83301 32.001 8.5s15.834 13.167 21.501 22.5s10.334 20.5 14.001 33.5s7.16699 26.833 10.5 41.5l108 557h53zM176.998 683l33 -135
h-48l-18 93l-54 -93h-48l84 135h51z" />
    <glyph glyph-name="Kcommaaccent" unicode="&#x136;" horiz-adv-x="340" 
d="M207 381l57 -381h-63l-45 323l-63 -93l-45 -230h-60l129 665h60l-67 -347l213 347h64zM81 -161h-42l46 121h58z" />
    <glyph glyph-name="kcommaaccent" unicode="&#x137;" horiz-adv-x="313" 
d="M195 324l38 -324h-61l-27 270l-60 -77l-37 -193h-60l138 710h54l-7 -64l-74 -384l170 246h61zM68 -161h-42l46 121h58z" />
    <glyph glyph-name="Lacute" unicode="&#x139;" horiz-adv-x="291" 
d="M177 665l-119 -610h161l-11 -55h-220l129 665h60zM288 838l-83 -135h-49l70 135h62z" />
    <glyph glyph-name="lacute" unicode="&#x13a;" horiz-adv-x="165" 
d="M173 645l-125 -645h-55l8 65l125 645h54zM262 875l-83 -135h-49l70 135h62z" />
    <glyph glyph-name="Lcommaaccent" unicode="&#x13b;" horiz-adv-x="291" 
d="M177 665l-119 -610h161l-11 -55h-220l129 665h60zM57 -161h-42l46 121h58z" />
    <glyph glyph-name="lcommaaccent" unicode="&#x13c;" horiz-adv-x="165" 
d="M173 645l-125 -645h-55l8 65l125 645h54zM-18 -161h-42l46 121h58z" />
    <glyph glyph-name="Lcaron" unicode="&#x13d;" horiz-adv-x="291" 
d="M177 665l-119 -610h161l-11 -55h-220l129 665h60zM262 548h-32l40 125h50z" />
    <glyph glyph-name="lcaron" unicode="&#x13e;" horiz-adv-x="212" 
d="M173 645l-125 -645h-55l8 65l125 645h54zM231 568h-32l40 125h50z" />
    <glyph glyph-name="Ldot" unicode="&#x13f;" horiz-adv-x="291" 
d="M177 665l-119 -610h161l-11 -55h-220l129 665h60zM183 339c0 14.667 4.83301 26.5 14.5 35.5s21.5 13.5 35.5 13.5c10.667 0 19 -3.16699 25 -9.5s9 -14.166 9 -23.499c0 -14.667 -4.83301 -26.5 -14.5 -35.5s-21.5 -13.5 -35.5 -13.5c-10 0 -18.167 3.16699 -24.5 9.5
s-9.5 14.166 -9.5 23.499z" />
    <glyph glyph-name="ldot" unicode="&#x140;" horiz-adv-x="234" 
d="M173 645l-125 -645h-55l8 65l125 645h54zM158 339c0 14.667 4.83301 26.5 14.5 35.5s21.5 13.5 35.5 13.5c10.667 0 19 -3.16699 25 -9.5s9 -14.166 9 -23.499c0 -14.667 -4.83301 -26.5 -14.5 -35.5s-21.5 -13.5 -35.5 -13.5c-10 0 -18.167 3.16699 -24.5 9.5
s-9.5 14.166 -9.5 23.499z" />
    <glyph glyph-name="Lslash" unicode="&#x141;" horiz-adv-x="288" 
d="M177 665l-60 -307l128 67l-12 -61l-128 -67l-47 -242h161l-11 -55h-220l51 262l-47 -24l12 61l47 24l66 342h60z" />
    <glyph glyph-name="lslash" unicode="&#x142;" horiz-adv-x="173" 
d="M177 645l-45 -233l52 28l-10 -54l-53 -28l-69 -358h-55l8 65l50 258l-52 -27l11 54l51 27l65 333h54z" />
    <glyph glyph-name="Nacute" unicode="&#x143;" horiz-adv-x="369" 
d="M251 0h-70l-33 550h-2l-108 -550h-50l129 665h70l31 -560h3l108 560h51zM346 838l-83 -135h-49l70 135h62z" />
    <glyph glyph-name="nacute" unicode="&#x144;" horiz-adv-x="329" 
d="M134 458c9.33301 17.333 22.334 31.665 39.001 42.998s34.667 17 54 17c44 0 66 -28 66 -84c0 -10 -0.666992 -21 -2 -33s-3.33301 -25 -6 -39l-71 -362h-54l7 65l59 305c1.33301 9.33301 2.66602 18 3.99902 26s2 15.667 2 23c0 14.667 -2.83301 26.334 -8.5 35.001
s-15.167 13 -28.5 13c-14.667 0 -27.5 -5.16699 -38.5 -15.5s-20.167 -22.166 -27.5 -35.499l-81 -416h-60l99 508h52zM297.001 682.999l-83 -135h-49l70 135h62z" />
    <glyph glyph-name="Ncommaaccent" unicode="&#x145;" horiz-adv-x="369" 
d="M251 0h-70l-33 550h-2l-108 -550h-50l129 665h70l31 -560h3l108 560h51zM83 -161h-42l46 121h58z" />
    <glyph glyph-name="ncommaaccent" unicode="&#x146;" horiz-adv-x="329" 
d="M134 458c9.33301 17.333 22.334 31.665 39.001 42.998s34.667 17 54 17c44 0 66 -28 66 -84c0 -10 -0.666992 -21 -2 -33s-3.33301 -25 -6 -39l-71 -362h-54l7 65l59 305c1.33301 9.33301 2.66602 18 3.99902 26s2 15.667 2 23c0 14.667 -2.83301 26.334 -8.5 35.001
s-15.167 13 -28.5 13c-14.667 0 -27.5 -5.16699 -38.5 -15.5s-20.167 -22.166 -27.5 -35.499l-81 -416h-60l99 508h52zM64.001 -161.001h-42l46 121h58z" />
    <glyph glyph-name="Ncaron" unicode="&#x147;" horiz-adv-x="369" 
d="M251 0h-70l-33 550h-2l-108 -550h-50l129 665h70l31 -560h3l108 560h51zM231 703l-31 135h46l17 -94l55 94h46l-83 -135h-50z" />
    <glyph glyph-name="ncaron" unicode="&#x148;" horiz-adv-x="329" 
d="M134 458c9.33301 17.333 22.334 31.665 39.001 42.998s34.667 17 54 17c44 0 66 -28 66 -84c0 -10 -0.666992 -21 -2 -33s-3.33301 -25 -6 -39l-71 -362h-54l7 65l59 305c1.33301 9.33301 2.66602 18 3.99902 26s2 15.667 2 23c0 14.667 -2.83301 26.334 -8.5 35.001
s-15.167 13 -28.5 13c-14.667 0 -27.5 -5.16699 -38.5 -15.5s-20.167 -22.166 -27.5 -35.499l-81 -416h-60l99 508h52zM182.001 547.999l-31 135h46l17 -94l55 94h46l-83 -135h-50z" />
    <glyph glyph-name="Omacron" unicode="&#x14c;" 
d="M253 150c-10.667 -52 -28.668 -91.666 -54.001 -118.999s-58.666 -41 -99.999 -41c-64 0 -96 34.667 -96 104c0 17.333 2 36.666 6 57.999l71 362c10 52 27.667 91.833 53 119.5s58 41.5 98 41.5c32.667 0 57.167 -9.33301 73.5 -28s24.5 -45 24.5 -79
c0 -16.667 -2 -35 -6 -55zM264.999 521.001c1.33301 6.66699 2.33691 13.165 3.00391 19.498s1 12.833 1 19.5c0 16.667 -3.33301 30.834 -10 42.501s-19.334 17.5 -38.001 17.5c-11.333 0 -21.5 -2.83301 -30.5 -8.5s-16.833 -13 -23.5 -22s-12.167 -19.5 -16.5 -31.5
s-7.5 -24.333 -9.5 -37l-73 -376c-2.66699 -12.667 -4 -26.334 -4 -41.001c0 -16 3.16699 -29.833 9.5 -41.5s18.166 -17.5 35.499 -17.5c12.667 0 23.667 2.83301 33 8.5s17.166 13.334 23.499 23.001s11.666 20.334 15.999 32.001s7.5 23.5 9.5 35.5zM174.003 798.999h166
l-10 -52h-166z" />
    <glyph glyph-name="omacron" unicode="&#x14d;" horiz-adv-x="315" 
d="M235 149c-10 -52 -26.332 -91.502 -48.999 -118.502s-54.334 -40.5 -95.001 -40.5c-32 0 -55 8 -69 24s-21 40 -21 72c0 9.33301 0.5 19.333 1.5 30s2.83301 21.667 5.5 33l41 210c10 52 26.167 91.5 48.5 118.5s53.833 40.5 94.5 40.5c32 0 55.167 -8.16699 69.5 -24.5
s21.5 -40.5 21.5 -72.5c0 -9.33301 -0.666992 -19.166 -2 -29.499s-3 -21.166 -5 -32.499zM218.001 369.998c1.33301 8 2.50098 15.667 3.50098 23s1.5 14.666 1.5 21.999c0 15.333 -2.66699 27.833 -8 37.5s-15.666 14.5 -30.999 14.5c-11.333 0 -21 -2.83301 -29 -8.5
s-14.833 -13 -20.5 -22s-10.334 -19.333 -14.001 -31s-6.83398 -23.5 -9.50098 -35.5l-45 -232c-1.33301 -8 -2.5 -16 -3.5 -24s-1.5 -15.667 -1.5 -23c0 -14.667 2.66699 -26.667 8 -36s15.666 -14 30.999 -14c10.667 0 20 2.66699 28 8s15 12.5 21 21.5
s10.833 19.333 14.5 31s6.83398 23.834 9.50098 36.501zM134.002 643.998h166l-10 -52h-166z" />
    <glyph glyph-name="Obreve" unicode="&#x14e;" 
d="M253 150c-10.667 -52 -28.668 -91.666 -54.001 -118.999s-58.666 -41 -99.999 -41c-64 0 -96 34.667 -96 104c0 17.333 2 36.666 6 57.999l71 362c10 52 27.667 91.833 53 119.5s58 41.5 98 41.5c32.667 0 57.167 -9.33301 73.5 -28s24.5 -45 24.5 -79
c0 -16.667 -2 -35 -6 -55zM264.999 521.001c1.33301 6.66699 2.33691 13.165 3.00391 19.498s1 12.833 1 19.5c0 16.667 -3.33301 30.834 -10 42.501s-19.334 17.5 -38.001 17.5c-11.333 0 -21.5 -2.83301 -30.5 -8.5s-16.833 -13 -23.5 -22s-12.167 -19.5 -16.5 -31.5
s-7.5 -24.333 -9.5 -37l-73 -376c-2.66699 -12.667 -4 -26.334 -4 -41.001c0 -16 3.16699 -29.833 9.5 -41.5s18.166 -17.5 35.499 -17.5c12.667 0 23.667 2.83301 33 8.5s17.166 13.334 23.499 23.001s11.666 20.334 15.999 32.001s7.5 23.5 9.5 35.5zM346.003 819.999
l-2 -12c-4.66699 -26.667 -15.834 -48 -33.501 -64s-40.5 -24 -68.5 -24s-47.667 8 -59 24s-14.666 37.333 -9.99902 64l2 12h49l-2 -12c-4.66699 -27.333 5 -41 29 -41c11.333 0 21 3.33301 29 10s13.333 17 16 31l2 12h48z" />
    <glyph glyph-name="obreve" unicode="&#x14f;" horiz-adv-x="315" 
d="M235 149c-10 -52 -26.332 -91.502 -48.999 -118.502s-54.334 -40.5 -95.001 -40.5c-32 0 -55 8 -69 24s-21 40 -21 72c0 9.33301 0.5 19.333 1.5 30s2.83301 21.667 5.5 33l41 210c10 52 26.167 91.5 48.5 118.5s53.833 40.5 94.5 40.5c32 0 55.167 -8.16699 69.5 -24.5
s21.5 -40.5 21.5 -72.5c0 -9.33301 -0.666992 -19.166 -2 -29.499s-3 -21.166 -5 -32.499zM218.001 369.998c1.33301 8 2.50098 15.667 3.50098 23s1.5 14.666 1.5 21.999c0 15.333 -2.66699 27.833 -8 37.5s-15.666 14.5 -30.999 14.5c-11.333 0 -21 -2.83301 -29 -8.5
s-14.833 -13 -20.5 -22s-10.334 -19.333 -14.001 -31s-6.83398 -23.5 -9.50098 -35.5l-45 -232c-1.33301 -8 -2.5 -16 -3.5 -24s-1.5 -15.667 -1.5 -23c0 -14.667 2.66699 -26.667 8 -36s15.666 -14 30.999 -14c10.667 0 20 2.66699 28 8s15 12.5 21 21.5
s10.833 19.333 14.5 31s6.83398 23.834 9.50098 36.501zM305.002 664.998l-2 -12c-4.66699 -26.667 -15.834 -48 -33.501 -64s-40.5 -24 -68.5 -24s-47.667 8 -59 24s-14.666 37.333 -9.99902 64l2 12h49l-2 -12c-4.66699 -27.333 5 -41 29 -41c11.333 0 21 3.33301 29 10
s13.333 17 16 31l2 12h48z" />
    <glyph glyph-name="Ohungarumlaut" unicode="&#x150;" 
d="M253 150c-10.667 -52 -28.668 -91.666 -54.001 -118.999s-58.666 -41 -99.999 -41c-64 0 -96 34.667 -96 104c0 17.333 2 36.666 6 57.999l71 362c10 52 27.667 91.833 53 119.5s58 41.5 98 41.5c32.667 0 57.167 -9.33301 73.5 -28s24.5 -45 24.5 -79
c0 -16.667 -2 -35 -6 -55zM264.999 521.001c1.33301 6.66699 2.33691 13.165 3.00391 19.498s1 12.833 1 19.5c0 16.667 -3.33301 30.834 -10 42.501s-19.334 17.5 -38.001 17.5c-11.333 0 -21.5 -2.83301 -30.5 -8.5s-16.833 -13 -23.5 -22s-12.167 -19.5 -16.5 -31.5
s-7.5 -24.333 -9.5 -37l-73 -376c-2.66699 -12.667 -4 -26.334 -4 -41.001c0 -16 3.16699 -29.833 9.5 -41.5s18.166 -17.5 35.499 -17.5c12.667 0 23.667 2.83301 33 8.5s17.166 13.334 23.499 23.001s11.666 20.334 15.999 32.001s7.5 23.5 9.5 35.5zM395.003 837.999
l-89 -135h-47l76 135h60zM291.003 837.999l-86 -135h-46l71 135h61z" />
    <glyph glyph-name="ohungarumlaut" unicode="&#x151;" horiz-adv-x="315" 
d="M235 149c-10 -52 -26.332 -91.502 -48.999 -118.502s-54.334 -40.5 -95.001 -40.5c-32 0 -55 8 -69 24s-21 40 -21 72c0 9.33301 0.5 19.333 1.5 30s2.83301 21.667 5.5 33l41 210c10 52 26.167 91.5 48.5 118.5s53.833 40.5 94.5 40.5c32 0 55.167 -8.16699 69.5 -24.5
s21.5 -40.5 21.5 -72.5c0 -9.33301 -0.666992 -19.166 -2 -29.499s-3 -21.166 -5 -32.499zM218.001 369.998c1.33301 8 2.50098 15.667 3.50098 23s1.5 14.666 1.5 21.999c0 15.333 -2.66699 27.833 -8 37.5s-15.666 14.5 -30.999 14.5c-11.333 0 -21 -2.83301 -29 -8.5
s-14.833 -13 -20.5 -22s-10.334 -19.333 -14.001 -31s-6.83398 -23.5 -9.50098 -35.5l-45 -232c-1.33301 -8 -2.5 -16 -3.5 -24s-1.5 -15.667 -1.5 -23c0 -14.667 2.66699 -26.667 8 -36s15.666 -14 30.999 -14c10.667 0 20 2.66699 28 8s15 12.5 21 21.5
s10.833 19.333 14.5 31s6.83398 23.834 9.50098 36.501zM353.002 682.998l-89 -135h-47l76 135h60zM249.002 682.998l-86 -135h-46l71 135h61z" />
    <glyph glyph-name="OE" unicode="&#x152;" horiz-adv-x="464" 
d="M494 609h-152.997l-43 -224h126l-10 -55h-126l-54 -275h152l-10 -55h-200l6 36c-11.333 -14.667 -24.333 -26 -39 -34s-32.667 -12 -54 -12c-28 0 -49.5 8.83301 -64.5 26.5s-22.5 43.5 -22.5 77.5c0 16.667 2 35.667 6 57l70 363c10.667 52 28.167 91.833 52.5 119.5
s54.166 41.5 89.499 41.5c21.333 0 38.166 -4.33301 50.499 -13s21.166 -19.667 26.499 -33l8 36h200zM109.003 45c23.333 0 41.333 9.50098 54 28.501s21.667 40.5 27 64.5l75 384c1.33301 6.66699 2.33301 13.334 3 20.001s1 13 1 19c0 16.667 -3.33301 30.667 -10 42
s-19.334 17 -38.001 17c-11.333 0 -21.5 -2.83301 -30.5 -8.5s-16.667 -13 -23 -22s-11.666 -19.333 -15.999 -31s-7.83301 -23.834 -10.5 -36.501l-74 -378c-2.66699 -11.333 -4 -24.333 -4 -39c0 -16.667 3.33301 -30.834 10 -42.501s18.667 -17.5 36 -17.5z" />
    <glyph glyph-name="oe" unicode="&#x153;" horiz-adv-x="462" 
d="M261 458c12 20 25.498 34.9971 40.498 44.9971s33.167 15 54.5 15c30 0 52.167 -8.66699 66.5 -26s21.5 -40 21.5 -68c0 -6 -0.333008 -12.167 -1 -18.5s-1.66699 -12.833 -3 -19.5l-7 -30c-5.33301 -24 -14 -43.333 -26 -58s-26.333 -26.167 -43 -34.5
s-35.167 -14.166 -55.5 -17.499s-40.833 -5.66602 -61.5 -6.99902l-19 -101c-3.33301 -16.667 -5 -31.667 -5 -45c0 -15.333 2.83301 -28 8.5 -38s15.834 -15 30.501 -15c21.333 0 37.333 9.83301 48 29.5s18.667 42.5 24 68.5l4 17h58l-3 -12
c-11.333 -49.333 -27.666 -87.166 -48.999 -113.499s-50.333 -39.5 -87 -39.5c-21.333 0 -37.833 5 -49.5 15s-20.167 24.667 -25.5 44c-12.667 -18.667 -27 -33.167 -43 -43.5s-34.667 -15.5 -56 -15.5c-54.667 0 -82 31.333 -82 94c0 20 2.33301 41.333 7 64l40 211
c10 52 26.5 91.5 49.5 118.5s52.5 40.5 88.5 40.5c21.333 0 38 -5 50 -15s20.333 -25 25 -45zM212.998 369.997c1.33301 8 2.50098 15.668 3.50098 23.001s1.5 14.666 1.5 21.999c0 15.333 -2.66699 28 -8 38s-15.333 15 -30 15c-11.333 0 -20.833 -2.83301 -28.5 -8.5
s-14.334 -13.167 -20.001 -22.5s-10.334 -19.833 -14.001 -31.5s-6.5 -23.834 -8.5 -36.501l-44 -231c-1.33301 -8 -2.5 -15.833 -3.5 -23.5s-1.5 -15.167 -1.5 -22.5c0 -15.333 2.66699 -27.833 8 -37.5s15.666 -14.5 30.999 -14.5c10.667 0 19.834 2.83301 27.501 8.5
s14.334 13 20.001 22s10.167 19.333 13.5 31s6.33301 23.834 9 36.501zM255.999 285.998c15.333 0.666992 29.501 2.33301 42.501 5s24.667 7 35 13s19 13.833 26 23.5s12.5 22.167 16.5 37.5l6 26c4 18.667 3.66699 36 -1 52s-16.667 24 -36 24
c-11.333 0 -21 -2.83301 -29 -8.5s-14.833 -13 -20.5 -22s-10.334 -19.333 -14.001 -31s-6.5 -23.5 -8.5 -35.5z" />
    <glyph glyph-name="Racute" unicode="&#x154;" horiz-adv-x="343" 
d="M326 480c-7.33301 -36.667 -19.167 -67.668 -35.5 -93.001s-36.5 -43.666 -60.5 -54.999l27 -332h-64l-18 315h-66l-61 -315h-60l129 665h122c32.667 0 57.167 -8.83301 73.5 -26.5s24.5 -43.5 24.5 -77.5c0 -17.333 -2 -36.333 -6 -57zM271.999 511.999
c1.33301 6.66699 2.33203 13.167 2.99902 19.5s1 12.5 1 18.5c0 17.333 -3.66699 31.5 -11 42.5s-20.666 16.5 -39.999 16.5h-59l-46 -239h58c24.667 0 43.667 9.5 57 28.5s23 42.5 29 70.5zM331.998 837.999l-83 -135h-49l70 135h62z" />
    <glyph glyph-name="racute" unicode="&#x155;" horiz-adv-x="233" 
d="M87 508l52.001 0.000976562l-5 -50c9.33301 15.333 21.833 29.166 37.5 41.499s32.167 18.5 49.5 18.5c9.33301 0 16.833 -1 22.5 -3s11.167 -5.33301 16.5 -10l-29 -55c-4 4 -8.5 6.66699 -13.5 8s-10.167 2 -15.5 2c-14.667 0 -28.334 -5 -41.001 -15
s-23.667 -21.667 -33 -35l-80 -410h-60zM261.001 683.001l-83 -135h-49l70 135h62z" />
    <glyph glyph-name="Rcommaaccent" unicode="&#x156;" horiz-adv-x="343" 
d="M326 480c-7.33301 -36.667 -19.167 -67.668 -35.5 -93.001s-36.5 -43.666 -60.5 -54.999l27 -332h-64l-18 315h-66l-61 -315h-60l129 665h122c32.667 0 57.167 -8.83301 73.5 -26.5s24.5 -43.5 24.5 -77.5c0 -17.333 -2 -36.333 -6 -57zM271.999 511.999
c1.33301 6.66699 2.33203 13.167 2.99902 19.5s1 12.5 1 18.5c0 17.333 -3.66699 31.5 -11 42.5s-20.666 16.5 -39.999 16.5h-59l-46 -239h58c24.667 0 43.667 9.5 57 28.5s23 42.5 29 70.5zM80.998 -161.001h-42l46 121h58z" />
    <glyph glyph-name="rcommaaccent" unicode="&#x157;" horiz-adv-x="233" 
d="M87 508l52.001 0.000976562l-5 -50c9.33301 15.333 21.833 29.166 37.5 41.499s32.167 18.5 49.5 18.5c9.33301 0 16.833 -1 22.5 -3s11.167 -5.33301 16.5 -10l-29 -55c-4 4 -8.5 6.66699 -13.5 8s-10.167 2 -15.5 2c-14.667 0 -28.334 -5 -41.001 -15
s-23.667 -21.667 -33 -35l-80 -410h-60zM-19.999 -160.999h-42l46 121h58z" />
    <glyph glyph-name="Rcaron" unicode="&#x158;" horiz-adv-x="343" 
d="M326 480c-7.33301 -36.667 -19.167 -67.668 -35.5 -93.001s-36.5 -43.666 -60.5 -54.999l27 -332h-64l-18 315h-66l-61 -315h-60l129 665h122c32.667 0 57.167 -8.83301 73.5 -26.5s24.5 -43.5 24.5 -77.5c0 -17.333 -2 -36.333 -6 -57zM271.999 511.999
c1.33301 6.66699 2.33203 13.167 2.99902 19.5s1 12.5 1 18.5c0 17.333 -3.66699 31.5 -11 42.5s-20.666 16.5 -39.999 16.5h-59l-46 -239h58c24.667 0 43.667 9.5 57 28.5s23 42.5 29 70.5zM216.998 702.999l-31 135h46l17 -94l55 94h46l-83 -135h-50z" />
    <glyph glyph-name="rcaron" unicode="&#x159;" horiz-adv-x="233" 
d="M87 508l52.001 0.000976562l-5 -50c9.33301 15.333 21.833 29.166 37.5 41.499s32.167 18.5 49.5 18.5c9.33301 0 16.833 -1 22.5 -3s11.167 -5.33301 16.5 -10l-29 -55c-4 4 -8.5 6.66699 -13.5 8s-10.167 2 -15.5 2c-14.667 0 -28.334 -5 -41.001 -15
s-23.667 -21.667 -33 -35l-80 -410h-60zM144.001 548.001l-31 135h46l17 -94l55 94h46l-83 -135h-50z" />
    <glyph glyph-name="Sacute" unicode="&#x15a;" horiz-adv-x="302" 
d="M70 529c4 20.667 10.002 39.8271 18.002 57.4941s18 33 30 46s26.167 23.333 42.5 31s35.166 11.5 56.499 11.5c30.667 0 54.167 -8.5 70.5 -25.5s24.5 -42.5 24.5 -76.5c0 -16 -2 -34 -6 -54l-5 -22h-60l5 27c1.33301 7.33301 2.5 14.333 3.5 21s1.5 13.334 1.5 20.001
c0 16 -3.16699 29.167 -9.5 39.5s-18.166 15.5 -35.499 15.5c-20 0 -36.5 -8.66699 -49.5 -26s-21.833 -38.333 -26.5 -63l-6 -30c-4.66699 -23.333 -3.66699 -43.666 3 -60.999s20 -35.666 40 -54.999c21.333 -20.667 39.833 -43 55.5 -67s23.5 -53 23.5 -87
c0 -6 -0.333008 -12.333 -1 -19s-1.66699 -13.667 -3 -21l-11 -55c-3.33301 -19.333 -9 -37.666 -17 -54.999s-18.167 -32.833 -30.5 -46.5s-26.833 -24.5 -43.5 -32.5s-35.334 -12 -56.001 -12c-32 0 -55.667 8.83301 -71 26.5s-23 42.834 -23 75.501c0 17.333 2 36 6 56
l4 20h60l-4 -23c-1.33301 -8 -2.5 -15.833 -3.5 -23.5s-1.5 -15.167 -1.5 -22.5c0 -15.333 3 -28.166 9 -38.499s17.667 -15.5 35 -15.5c19.333 0 35.5 8.83301 48.5 26.5s22.167 38.834 27.5 63.501l9 44c1.33301 6 2.33301 11.833 3 17.5s1 11.167 1 16.5
c0 22.667 -4.83301 43.167 -14.5 61.5s-23.834 36.5 -42.501 54.5c-10 10 -19.167 19.667 -27.5 29s-15.5 19 -21.5 29s-10.667 20.5 -14 31.5s-5 23.167 -5 36.5c0 5.33301 0.333008 11.166 1 17.499s1.66699 12.833 3 19.5zM315.002 837.993l-83 -135h-49l70 135h62z" />
    <glyph glyph-name="sacute" unicode="&#x15b;" horiz-adv-x="284" 
d="M55 153l-1.99902 -10.002c-4 -18 -6 -35.333 -6 -52c0 -14.667 2.66699 -26.667 8 -36s15 -14 29 -14c10.667 0 20.5 3.16699 29.5 9.5s16.833 14.666 23.5 24.999s11.834 22 15.501 35s5.5 26.167 5.5 39.5c0 18 -4.33301 35.167 -13 51.5s-22.667 32.5 -42 48.5
c-20 15.333 -35.667 32.333 -47 51s-17 40.667 -17 66c0 18.667 3 37 9 55s14.667 34.167 26 48.5s25.666 25.833 42.999 34.5s37 13 59 13c58 0 87 -32.333 87 -97c0 -8 -0.333008 -16.5 -1 -25.5s-2 -18.167 -4 -27.5l-2 -10h-59l3 14c3.33301 16.667 5 31.334 5 44.001
c0 14.667 -2.66699 26.834 -8 36.501s-15.333 14.5 -30 14.5c-12 0 -22.333 -2.66699 -31 -8s-15.667 -12.333 -21 -21s-9.16602 -18 -11.499 -28s-3.5 -20 -3.5 -30c0 -18 4.66699 -34 14 -48s23.666 -28.333 42.999 -43c21.333 -15.333 36.833 -33.5 46.5 -54.5
s14.5 -43.833 14.5 -68.5c0 -19.333 -2.83301 -39.333 -8.5 -60s-14.334 -39.5 -26.001 -56.5s-26.167 -31.167 -43.5 -42.5s-38 -17 -62 -17c-60 0 -90 31.333 -90 94c0 18.667 2.33301 38.334 7 59.001l2 10h58zM274.001 682.998l-83 -135h-49l70 135h62z" />
    <glyph glyph-name="Scircumflex" unicode="&#x15c;" horiz-adv-x="302" 
d="M70 529c4 20.667 10.002 39.8271 18.002 57.4941s18 33 30 46s26.167 23.333 42.5 31s35.166 11.5 56.499 11.5c30.667 0 54.167 -8.5 70.5 -25.5s24.5 -42.5 24.5 -76.5c0 -16 -2 -34 -6 -54l-5 -22h-60l5 27c1.33301 7.33301 2.5 14.333 3.5 21s1.5 13.334 1.5 20.001
c0 16 -3.16699 29.167 -9.5 39.5s-18.166 15.5 -35.499 15.5c-20 0 -36.5 -8.66699 -49.5 -26s-21.833 -38.333 -26.5 -63l-6 -30c-4.66699 -23.333 -3.66699 -43.666 3 -60.999s20 -35.666 40 -54.999c21.333 -20.667 39.833 -43 55.5 -67s23.5 -53 23.5 -87
c0 -6 -0.333008 -12.333 -1 -19s-1.66699 -13.667 -3 -21l-11 -55c-3.33301 -19.333 -9 -37.666 -17 -54.999s-18.167 -32.833 -30.5 -46.5s-26.833 -24.5 -43.5 -32.5s-35.334 -12 -56.001 -12c-32 0 -55.667 8.83301 -71 26.5s-23 42.834 -23 75.501c0 17.333 2 36 6 56
l4 20h60l-4 -23c-1.33301 -8 -2.5 -15.833 -3.5 -23.5s-1.5 -15.167 -1.5 -22.5c0 -15.333 3 -28.166 9 -38.499s17.667 -15.5 35 -15.5c19.333 0 35.5 8.83301 48.5 26.5s22.167 38.834 27.5 63.501l9 44c1.33301 6 2.33301 11.833 3 17.5s1 11.167 1 16.5
c0 22.667 -4.83301 43.167 -14.5 61.5s-23.834 36.5 -42.501 54.5c-10 10 -19.167 19.667 -27.5 29s-15.5 19 -21.5 29s-10.667 20.5 -14 31.5s-5 23.167 -5 36.5c0 5.33301 0.333008 11.166 1 17.499s1.66699 12.833 3 19.5zM276.002 837.993l33 -135h-48l-18 93l-54 -93
h-48l84 135h51z" />
    <glyph glyph-name="scircumflex" unicode="&#x15d;" horiz-adv-x="284" 
d="M55 153l-1.99902 -10.002c-4 -18 -6 -35.333 -6 -52c0 -14.667 2.66699 -26.667 8 -36s15 -14 29 -14c10.667 0 20.5 3.16699 29.5 9.5s16.833 14.666 23.5 24.999s11.834 22 15.501 35s5.5 26.167 5.5 39.5c0 18 -4.33301 35.167 -13 51.5s-22.667 32.5 -42 48.5
c-20 15.333 -35.667 32.333 -47 51s-17 40.667 -17 66c0 18.667 3 37 9 55s14.667 34.167 26 48.5s25.666 25.833 42.999 34.5s37 13 59 13c58 0 87 -32.333 87 -97c0 -8 -0.333008 -16.5 -1 -25.5s-2 -18.167 -4 -27.5l-2 -10h-59l3 14c3.33301 16.667 5 31.334 5 44.001
c0 14.667 -2.66699 26.834 -8 36.501s-15.333 14.5 -30 14.5c-12 0 -22.333 -2.66699 -31 -8s-15.667 -12.333 -21 -21s-9.16602 -18 -11.499 -28s-3.5 -20 -3.5 -30c0 -18 4.66699 -34 14 -48s23.666 -28.333 42.999 -43c21.333 -15.333 36.833 -33.5 46.5 -54.5
s14.5 -43.833 14.5 -68.5c0 -19.333 -2.83301 -39.333 -8.5 -60s-14.334 -39.5 -26.001 -56.5s-26.167 -31.167 -43.5 -42.5s-38 -17 -62 -17c-60 0 -90 31.333 -90 94c0 18.667 2.33301 38.334 7 59.001l2 10h58zM235.001 682.998l33 -135h-48l-18 93l-54 -93h-48l84 135
h51z" />
    <glyph glyph-name="Scedilla" unicode="&#x15e;" horiz-adv-x="302" 
d="M70 529c4 20.667 10.001 39.8271 18.001 57.4941s18 33 30 46s26.167 23.333 42.5 31s35.166 11.5 56.499 11.5c30.667 0 54.334 -8.33301 71.001 -25s25 -41.667 25 -75c0 -18 -2.33301 -36.667 -7 -56l-5 -22h-60l5 27c1.33301 7.33301 2.5 14.333 3.5 21
s1.5 13.334 1.5 20.001c0 16 -3.16699 29.167 -9.5 39.5s-18.166 15.5 -35.499 15.5c-20 0 -36.5 -8.66699 -49.5 -26s-21.833 -38.333 -26.5 -63l-6 -30c-4.66699 -23.333 -3.66699 -43.666 3 -60.999s20 -35.666 40 -54.999c21.333 -20.667 39.833 -43 55.5 -67
s23.5 -53 23.5 -87c0 -6 -0.333008 -12.333 -1 -19s-1.66699 -13.667 -3 -21l-11 -55c-3.33301 -18 -8.66602 -35.333 -15.999 -52s-16.5 -31.667 -27.5 -45s-24 -24.166 -39 -32.499s-31.833 -13.5 -50.5 -15.5l-6 -35h6c16.667 0 30 -4.33301 40 -13s15 -23 15 -43
c0 -32 -8.33301 -57 -25 -75s-39 -27 -67 -27c-22 0 -37.5 6.16699 -46.5 18.5s-12.5 32.166 -10.5 59.499v2h40v-2c-2 -26.667 6 -40 24 -40c13.333 0 23.666 5 30.999 15s11 23.667 11 41c0 20 -11.333 30 -34 30h-28l14 70c-24.667 3.33301 -42.834 13.5 -54.501 30.5
s-17.5 40.167 -17.5 69.5c0 17.333 2 36 6 56l4 20h60l-4 -23c-1.33301 -8 -2.5 -15.833 -3.5 -23.5s-1.5 -15.167 -1.5 -22.5c0 -15.333 3 -28.166 9 -38.499s17.667 -15.5 35 -15.5c19.333 0 35.5 8.83301 48.5 26.5s22.167 38.834 27.5 63.501l9 44
c1.33301 6 2.33301 11.833 3 17.5s1 11.167 1 16.5c0 22.667 -4.83301 43.167 -14.5 61.5s-23.834 36.5 -42.501 54.5c-20 20 -36.333 39.333 -49 58s-19 41.334 -19 68.001c0 12 1.33301 24.333 4 37z" />
    <glyph glyph-name="scedilla" unicode="&#x15f;" horiz-adv-x="284" 
d="M55 153l-2.00098 -10c-4 -18 -6 -35.333 -6 -52c0 -14.667 2.66699 -26.667 8 -36s15 -14 29 -14c10.667 0 20.5 3.16699 29.5 9.5s16.833 14.666 23.5 24.999s11.834 22 15.501 35s5.5 26.167 5.5 39.5c0 18 -4.33301 35.333 -13 52s-22.667 32.667 -42 48
c-20 16 -35.667 33.167 -47 51.5s-17 40.166 -17 65.499c0 18.667 3 37 9 55s14.667 34.167 26 48.5s25.666 25.833 42.999 34.5s37 13 59 13c58 0 87 -32.333 87 -97c0 -8 -0.333008 -16.5 -1 -25.5s-2 -18.167 -4 -27.5l-2 -10h-59l3 14c3.33301 16.667 5 31.334 5 44.001
c0 14.667 -2.66699 26.834 -8 36.501s-15.333 14.5 -30 14.5c-12 0 -22.333 -2.66699 -31 -8s-15.667 -12.333 -21 -21s-9.16602 -18 -11.499 -28s-3.5 -20 -3.5 -30c0 -18 4.66699 -34 14 -48s23.666 -28.333 42.999 -43c21.333 -15.333 36.833 -33.5 46.5 -54.5
s14.5 -43.833 14.5 -68.5c0 -18.667 -2.66699 -38 -8 -58s-13.333 -38.5 -24 -55.5s-24.167 -31.167 -40.5 -42.5s-35.5 -18 -57.5 -20l-6 -34h7c16.667 0 30 -4.33301 40 -13s15 -23 15 -43c0 -32 -8.5 -57 -25.5 -75s-39.5 -27 -67.5 -27
c-21.333 0 -36.5 6.16699 -45.5 18.5s-12.833 32.166 -11.5 59.499v2h40v-2c-0.666992 -13.333 0.833008 -23.333 4.5 -30s10.5 -10 20.5 -10c12.667 0 22.834 5 30.501 15s11.5 23.667 11.5 41c0 20 -11.333 30 -34 30h-28l13 70c-42.667 8 -64 38.667 -64 92
c0 8.66699 0.666992 17.834 2 27.501s3 20.167 5 31.5l2 10h58z" />
    <glyph glyph-name="Scaron" unicode="&#x160;" horiz-adv-x="302" 
d="M70 529c4 20.667 10.002 39.8271 18.002 57.4941s18 33 30 46s26.167 23.333 42.5 31s35.166 11.5 56.499 11.5c30.667 0 54.167 -8.5 70.5 -25.5s24.5 -42.5 24.5 -76.5c0 -16 -2 -34 -6 -54l-5 -22h-60l5 27c1.33301 7.33301 2.5 14.333 3.5 21s1.5 13.334 1.5 20.001
c0 16 -3.16699 29.167 -9.5 39.5s-18.166 15.5 -35.499 15.5c-20 0 -36.5 -8.66699 -49.5 -26s-21.833 -38.333 -26.5 -63l-6 -30c-4.66699 -23.333 -3.66699 -43.666 3 -60.999s20 -35.666 40 -54.999c21.333 -20.667 39.833 -43 55.5 -67s23.5 -53 23.5 -87
c0 -6 -0.333008 -12.333 -1 -19s-1.66699 -13.667 -3 -21l-11 -55c-3.33301 -19.333 -9 -37.666 -17 -54.999s-18.167 -32.833 -30.5 -46.5s-26.833 -24.5 -43.5 -32.5s-35.334 -12 -56.001 -12c-32 0 -55.667 8.83301 -71 26.5s-23 42.834 -23 75.501c0 17.333 2 36 6 56
l4 20h60l-4 -23c-1.33301 -8 -2.5 -15.833 -3.5 -23.5s-1.5 -15.167 -1.5 -22.5c0 -15.333 3 -28.166 9 -38.499s17.667 -15.5 35 -15.5c19.333 0 35.5 8.83301 48.5 26.5s22.167 38.834 27.5 63.501l9 44c1.33301 6 2.33301 11.833 3 17.5s1 11.167 1 16.5
c0 22.667 -4.83301 43.167 -14.5 61.5s-23.834 36.5 -42.501 54.5c-10 10 -19.167 19.667 -27.5 29s-15.5 19 -21.5 29s-10.667 20.5 -14 31.5s-5 23.167 -5 36.5c0 5.33301 0.333008 11.166 1 17.499s1.66699 12.833 3 19.5zM200.002 702.993l-31 135h46l17 -94l55 94h46
l-83 -135h-50z" />
    <glyph glyph-name="scaron" unicode="&#x161;" horiz-adv-x="284" 
d="M55 153l-1.99902 -10.002c-4 -18 -6 -35.333 -6 -52c0 -14.667 2.66699 -26.667 8 -36s15 -14 29 -14c10.667 0 20.5 3.16699 29.5 9.5s16.833 14.666 23.5 24.999s11.834 22 15.501 35s5.5 26.167 5.5 39.5c0 18 -4.33301 35.167 -13 51.5s-22.667 32.5 -42 48.5
c-20 15.333 -35.667 32.333 -47 51s-17 40.667 -17 66c0 18.667 3 37 9 55s14.667 34.167 26 48.5s25.666 25.833 42.999 34.5s37 13 59 13c58 0 87 -32.333 87 -97c0 -8 -0.333008 -16.5 -1 -25.5s-2 -18.167 -4 -27.5l-2 -10h-59l3 14c3.33301 16.667 5 31.334 5 44.001
c0 14.667 -2.66699 26.834 -8 36.501s-15.333 14.5 -30 14.5c-12 0 -22.333 -2.66699 -31 -8s-15.667 -12.333 -21 -21s-9.16602 -18 -11.499 -28s-3.5 -20 -3.5 -30c0 -18 4.66699 -34 14 -48s23.666 -28.333 42.999 -43c21.333 -15.333 36.833 -33.5 46.5 -54.5
s14.5 -43.833 14.5 -68.5c0 -19.333 -2.83301 -39.333 -8.5 -60s-14.334 -39.5 -26.001 -56.5s-26.167 -31.167 -43.5 -42.5s-38 -17 -62 -17c-60 0 -90 31.333 -90 94c0 18.667 2.33301 38.334 7 59.001l2 10h58zM159.001 547.998l-31 135h46l17 -94l55 94h46l-83 -135h-50
z" />
    <glyph glyph-name="uni0162" unicode="&#x162;" horiz-adv-x="307" 
d="M57 0l118 609h-106l11 56h275l-11 -56h-109l-118 -609h-60zM53 -161h-42l46 121h58z" />
    <glyph glyph-name="uni0163" unicode="&#x163;" horiz-adv-x="231" 
d="M156 5c-9.33301 -4.66699 -18.5 -8.33496 -27.5 -11.002s-19.833 -4 -32.5 -4c-30.667 0 -53 7.83301 -67 23.5s-21 39.5 -21 71.5c0 20.667 2.33301 42.334 7 65.001l89 458h53l-5 -63l-7 -37h95l-9 -51h-97l-61 -314c-3.33301 -15.333 -5 -29.666 -5 -42.999
c0 -15.333 3 -28.333 9 -39s17 -16 33 -16c8 0 15.167 0.833008 21.5 2.5s12.833 4.16699 19.5 7.5zM32 -161.001h-42l46 121h58z" />
    <glyph glyph-name="Tcaron" unicode="&#x164;" horiz-adv-x="307" 
d="M57 0l118 609h-106l11 56h275l-11 -56h-109l-118 -609h-60zM201 703l-31 135h46l17 -94l55 94h46l-83 -135h-50z" />
    <glyph glyph-name="tcaron" unicode="&#x165;" horiz-adv-x="237" 
d="M156 5c-9.33301 -4.66699 -18.5 -8.33496 -27.5 -11.002s-19.833 -4 -32.5 -4c-30.667 0 -53 7.83301 -67 23.5s-21 39.5 -21 71.5c0 20.667 2.33301 42.334 7 65.001l89 458h53l-5 -63l-7 -37h95l-9 -51h-97l-61 -314c-3.33301 -15.333 -5 -29.666 -5 -42.999
c0 -15.333 3 -28.333 9 -39s17 -16 33 -16c8 0 15.167 0.833008 21.5 2.5s12.833 4.16699 19.5 7.5zM230 575.999h-32l40 125h50z" />
    <glyph glyph-name="Tbar" unicode="&#x166;" horiz-adv-x="307" 
d="M69 427h71l35 182h-106l11 56h275l-11 -56h-109l-36 -182h77l-10 -51h-77l-72 -376h-60l73 376h-70z" />
    <glyph glyph-name="tbar" unicode="&#x167;" horiz-adv-x="231" 
d="M156 5c-9.33301 -4.66699 -18.5 -8.33496 -27.5 -11.002s-19.833 -4 -32.5 -4c-30.667 0 -53 7.83301 -67 23.5s-21 39.5 -21 71.5c0 20.667 2.33301 42.334 7 65.001l89 458h53l-5 -63l-7 -37h95l-9 -51h-97l-23 -115h100l-9 -47h-100l-29 -152
c-3.33301 -15.333 -5 -29.666 -5 -42.999c0 -15.333 3 -28.333 9 -39s17 -16 33 -16c8 0 15.167 0.833008 21.5 2.5s12.833 4.16699 19.5 7.5z" />
    <glyph glyph-name="Utilde" unicode="&#x168;" horiz-adv-x="347" 
d="M360 665l-99.999 -514c-10 -52 -27.5 -91.833 -52.5 -119.5s-57.833 -41.5 -98.5 -41.5c-66.667 0 -100 35.333 -100 106c0 16.667 2 35 6 55l100 514h60l-102 -522c-1.33301 -6.66699 -2.33301 -13 -3 -19s-1 -12 -1 -18c0 -18 3.66699 -32.667 11 -44
s19.666 -17 36.999 -17c23.333 0 41.333 9.16699 54 27.5s21.667 41.833 27 70.5l102 522h60zM145.001 724c2 18 5.66797 32.832 11.001 44.499s11.5 21 18.5 28s14.333 12 22 15s15.167 4.5 22.5 4.5c10.667 0 19.667 -2.16699 27 -6.5s13.833 -9.33301 19.5 -15
s11 -10.667 16 -15s10.5 -6.5 16.5 -6.5s11.667 2.5 17 7.5s8.66602 16.167 9.99902 33.5l1 5h46l-1 -5c-2.66699 -18 -6.5 -32.833 -11.5 -44.5s-10.833 -21 -17.5 -28s-13.834 -12 -21.501 -15s-15.167 -4.5 -22.5 -4.5c-10 0 -18.5 2.33301 -25.5 7
s-13.5 9.83398 -19.5 15.501l-17 15.5c-5.33301 4.66699 -10.666 7 -15.999 7c-6 0 -11.833 -2.66699 -17.5 -8s-9.16699 -17 -10.5 -35l-1 -4h-46v4z" />
    <glyph glyph-name="utilde" unicode="&#x169;" horiz-adv-x="329" 
d="M83 508l59.998 0.000976562l-72 -370l-4 -25c-1.33301 -8 -2 -15.667 -2 -23c0 -15.333 2.83301 -27.333 8.5 -36s15.834 -13 30.501 -13c13.333 0 25.5 4.66699 36.5 14s20.167 20.666 27.5 33.999l81 419h60l-82 -423c-2.66699 -12 -2.66699 -21.667 0 -29
s9.66699 -11 21 -11l-10 -55c-26 0 -43.667 5.33301 -53 16s-14.333 26.667 -15 48c-12 -19.333 -25.667 -34.833 -41 -46.5s-33.666 -17.5 -54.999 -17.5c-46 0 -69 29.333 -69 88c0 19.333 2.33301 40.333 7 63zM105.998 569.001c2 18 5.66797 32.832 11.001 44.499
s11.5 21 18.5 28s14.333 12 22 15s15.167 4.5 22.5 4.5c10.667 0 19.667 -2.16699 27 -6.5s13.833 -9.33301 19.5 -15s11 -10.667 16 -15s10.5 -6.5 16.5 -6.5s11.667 2.5 17 7.5s8.66602 16.167 9.99902 33.5l1 5h46l-1 -5c-2.66699 -18 -6.5 -32.833 -11.5 -44.5
s-10.833 -21 -17.5 -28s-13.834 -12 -21.501 -15s-15.167 -4.5 -22.5 -4.5c-10 0 -18.5 2.33301 -25.5 7s-13.5 9.83398 -19.5 15.501l-17 15.5c-5.33301 4.66699 -10.666 7 -15.999 7c-6 0 -11.833 -2.66699 -17.5 -8s-9.16699 -17 -10.5 -35l-1 -4h-46v4z" />
    <glyph glyph-name="Umacron" unicode="&#x16a;" horiz-adv-x="347" 
d="M360 665l-99.999 -514c-10 -52 -27.5 -91.833 -52.5 -119.5s-57.833 -41.5 -98.5 -41.5c-66.667 0 -100 35.333 -100 106c0 16.667 2 35 6 55l100 514h60l-102 -522c-1.33301 -6.66699 -2.33301 -13 -3 -19s-1 -12 -1 -18c0 -18 3.66699 -32.667 11 -44
s19.666 -17 36.999 -17c23.333 0 41.333 9.16699 54 27.5s21.667 41.833 27 70.5l102 522h60zM180.001 799h166l-10 -52h-166z" />
    <glyph glyph-name="umacron" unicode="&#x16b;" horiz-adv-x="329" 
d="M83 508l59.998 0.000976562l-72 -370l-4 -25c-1.33301 -8 -2 -15.667 -2 -23c0 -15.333 2.83301 -27.333 8.5 -36s15.834 -13 30.501 -13c13.333 0 25.5 4.66699 36.5 14s20.167 20.666 27.5 33.999l81 419h60l-82 -423c-2.66699 -12 -2.66699 -21.667 0 -29
s9.66699 -11 21 -11l-10 -55c-26 0 -43.667 5.33301 -53 16s-14.333 26.667 -15 48c-12 -19.333 -25.667 -34.833 -41 -46.5s-33.666 -17.5 -54.999 -17.5c-46 0 -69 29.333 -69 88c0 19.333 2.33301 40.333 7 63zM141.998 644.001h166l-10 -52h-166z" />
    <glyph glyph-name="Ubreve" unicode="&#x16c;" horiz-adv-x="347" 
d="M360 665l-99.999 -514c-10 -52 -27.5 -91.833 -52.5 -119.5s-57.833 -41.5 -98.5 -41.5c-66.667 0 -100 35.333 -100 106c0 16.667 2 35 6 55l100 514h60l-102 -522c-1.33301 -6.66699 -2.33301 -13 -3 -19s-1 -12 -1 -18c0 -18 3.66699 -32.667 11 -44
s19.666 -17 36.999 -17c23.333 0 41.333 9.16699 54 27.5s21.667 41.833 27 70.5l102 522h60zM352.001 820l-2 -12c-4.66699 -26.667 -15.834 -48 -33.501 -64s-40.5 -24 -68.5 -24s-47.667 8 -59 24s-14.666 37.333 -9.99902 64l2 12h49l-2 -12
c-4.66699 -27.333 5 -41 29 -41c11.333 0 21 3.33301 29 10s13.333 17 16 31l2 12h48z" />
    <glyph glyph-name="ubreve" unicode="&#x16d;" horiz-adv-x="329" 
d="M83 508l59.998 0.000976562l-72 -370l-4 -25c-1.33301 -8 -2 -15.667 -2 -23c0 -15.333 2.83301 -27.333 8.5 -36s15.834 -13 30.501 -13c13.333 0 25.5 4.66699 36.5 14s20.167 20.666 27.5 33.999l81 419h60l-82 -423c-2.66699 -12 -2.66699 -21.667 0 -29
s9.66699 -11 21 -11l-10 -55c-26 0 -43.667 5.33301 -53 16s-14.333 26.667 -15 48c-12 -19.333 -25.667 -34.833 -41 -46.5s-33.666 -17.5 -54.999 -17.5c-46 0 -69 29.333 -69 88c0 19.333 2.33301 40.333 7 63zM312.998 665.001l-2 -12
c-4.66699 -26.667 -15.834 -48 -33.501 -64s-40.5 -24 -68.5 -24s-47.667 8 -59 24s-14.666 37.333 -9.99902 64l2 12h49l-2 -12c-4.66699 -27.333 5 -41 29 -41c11.333 0 21 3.33301 29 10s13.333 17 16 31l2 12h48z" />
    <glyph glyph-name="Uring" unicode="&#x16e;" horiz-adv-x="347" 
d="M360 665l-99.999 -514c-10 -52 -27.5 -91.833 -52.5 -119.5s-57.833 -41.5 -98.5 -41.5c-66.667 0 -100 35.333 -100 106c0 16.667 2 35 6 55l100 514h60l-102 -522c-1.33301 -6.66699 -2.33301 -13 -3 -19s-1 -12 -1 -18c0 -18 3.66699 -32.667 11 -44
s19.666 -17 36.999 -17c23.333 0 41.333 9.16699 54 27.5s21.667 41.833 27 70.5l102 522h60zM220.001 769c0 -9.33301 2.5 -17.167 7.5 -23.5s12.833 -9.5 23.5 -9.5c12.667 0 23.667 4.66699 33 14s14 20.333 14 33c0 10 -2.83301 18 -8.5 24s-13.167 9 -22.5 9
c-12.667 0 -23.667 -4.5 -33 -13.5s-14 -20.167 -14 -33.5zM180.001 764.999c0 12 2.66602 23.332 7.99902 33.999s12.333 20 21 28s18.667 14.333 30 19s23 7 35 7c19.333 0 34.666 -6.16699 45.999 -18.5s17 -27.5 17 -45.5c0 -12 -2.66699 -23.5 -8 -34.5
s-12.166 -20.5 -20.499 -28.5s-18.166 -14.5 -29.499 -19.5s-23 -7.5 -35 -7.5c-19.333 0 -34.833 6.33301 -46.5 19s-17.5 28.334 -17.5 47.001z" />
    <glyph glyph-name="uring" unicode="&#x16f;" horiz-adv-x="329" 
d="M83 508l59.998 0.000976562l-72 -370l-4 -25c-1.33301 -8 -2 -15.667 -2 -23c0 -15.333 2.83301 -27.333 8.5 -36s15.834 -13 30.501 -13c13.333 0 25.5 4.66699 36.5 14s20.167 20.666 27.5 33.999l81 419h60l-82 -423c-2.66699 -12 -2.66699 -21.667 0 -29
s9.66699 -11 21 -11l-10 -55c-26 0 -43.667 5.33301 -53 16s-14.333 26.667 -15 48c-12 -19.333 -25.667 -34.833 -41 -46.5s-33.666 -17.5 -54.999 -17.5c-46 0 -69 29.333 -69 88c0 19.333 2.33301 40.333 7 63zM181.998 614.001c0 -9.33301 2.5 -17.167 7.5 -23.5
s12.833 -9.5 23.5 -9.5c12.667 0 23.667 4.66699 33 14s14 20.333 14 33c0 10 -2.83301 18 -8.5 24s-13.167 9 -22.5 9c-12.667 0 -23.667 -4.5 -33 -13.5s-14 -20.167 -14 -33.5zM141.998 610c0 12 2.66602 23.332 7.99902 33.999s12.333 20 21 28s18.667 14.333 30 19
s23 7 35 7c19.333 0 34.666 -6.16699 45.999 -18.5s17 -27.5 17 -45.5c0 -12 -2.66699 -23.5 -8 -34.5s-12.166 -20.5 -20.499 -28.5s-18.166 -14.5 -29.499 -19.5s-23 -7.5 -35 -7.5c-19.333 0 -34.833 6.33301 -46.5 19s-17.5 28.334 -17.5 47.001z" />
    <glyph glyph-name="Uhungarumlaut" unicode="&#x170;" horiz-adv-x="347" 
d="M360 665l-99.999 -514c-10 -52 -27.5 -91.833 -52.5 -119.5s-57.833 -41.5 -98.5 -41.5c-66.667 0 -100 35.333 -100 106c0 16.667 2 35 6 55l100 514h60l-102 -522c-1.33301 -6.66699 -2.33301 -13 -3 -19s-1 -12 -1 -18c0 -18 3.66699 -32.667 11 -44
s19.666 -17 36.999 -17c23.333 0 41.333 9.16699 54 27.5s21.667 41.833 27 70.5l102 522h60zM399.001 838l-89 -135h-47l76 135h60zM295.001 838l-86 -135h-46l71 135h61z" />
    <glyph glyph-name="uhungarumlaut" unicode="&#x171;" horiz-adv-x="329" 
d="M83 508l59.998 0.000976562l-72 -370l-4 -25c-1.33301 -8 -2 -15.667 -2 -23c0 -15.333 2.83301 -27.333 8.5 -36s15.834 -13 30.501 -13c13.333 0 25.5 4.66699 36.5 14s20.167 20.666 27.5 33.999l81 419h60l-82 -423c-2.66699 -12 -2.66699 -21.667 0 -29
s9.66699 -11 21 -11l-10 -55c-26 0 -43.667 5.33301 -53 16s-14.333 26.667 -15 48c-12 -19.333 -25.667 -34.833 -41 -46.5s-33.666 -17.5 -54.999 -17.5c-46 0 -69 29.333 -69 88c0 19.333 2.33301 40.333 7 63zM360.998 683.001l-89 -135h-47l76 135h60zM256.998 683.001
l-86 -135h-46l71 135h61z" />
    <glyph glyph-name="Uogonek" unicode="&#x172;" horiz-adv-x="347" 
d="M360 665l-100 -513.999c-14 -72.667 -42 -121.667 -84 -147c-31.333 -18.667 -56.166 -40 -74.499 -64s-27.5 -48.667 -27.5 -74c0 -16.667 6.66699 -25 20 -25c8 0 15.333 2.83301 22 8.5s10.667 15.834 12 30.501l1 6h40l-1 -6
c-2.66699 -22.667 -11.167 -41.5 -25.5 -56.5s-32.833 -22.5 -55.5 -22.5c-19.333 0 -33.833 5 -43.5 15s-14.5 23.667 -14.5 41c0 27.333 7.33301 52.166 22 74.499s33.667 41.833 57 58.5c-66 1.33301 -99 36.666 -99 105.999c0 16.667 2 35 6 55l100 514h60l-102 -522
c-1.33301 -6.66699 -2.33301 -13 -3 -19s-1 -12 -1 -18c0 -18 3.66699 -32.667 11 -44s19.666 -17 36.999 -17c23.333 0 41.333 9.16699 54 27.5s21.667 41.833 27 70.5l102 522h60z" />
    <glyph glyph-name="uogonek" unicode="&#x173;" horiz-adv-x="329" 
d="M83 508l59.9971 -0.00195312l-72 -370l-4 -25c-1.33301 -8 -2 -15.667 -2 -23c0 -15.333 2.83301 -27.333 8.5 -36s15.834 -13 30.501 -13c13.333 0 25.5 4.66699 36.5 14s20.167 20.666 27.5 33.999l81 419h60l-82 -423c-2.66699 -12 -2.66699 -21.667 0 -29
s9.66699 -11 21 -11l-10 -55c-11.333 0 -20.333 1 -27 3c-28 -16.667 -50.167 -36.167 -66.5 -58.5s-24.5 -45.166 -24.5 -68.499c0 -16.667 7 -25 21 -25c7.33301 0 14.333 2.83301 21 8.5s10.667 15.834 12 30.501l1 6h40l-1 -6c-2.66699 -22.667 -11 -41.5 -25 -56.5
s-32.667 -22.5 -56 -22.5c-19.333 0 -33.833 5 -43.5 15s-14.5 23.667 -14.5 41c0 32.667 10.333 61.834 31 87.501s46.334 46.834 77.001 63.501c-8.66699 9.33301 -13 24.666 -13 45.999c-12 -19.333 -25.667 -34.833 -41 -46.5s-33.666 -17.5 -54.999 -17.5
c-46 0 -69 29.333 -69 88c0 19.333 2.33301 40.333 7 63z" />
    <glyph glyph-name="Wcircumflex" unicode="&#x174;" horiz-adv-x="473" 
d="M320 665l-31 -557h2l164 557h60l-211 -665h-61l24 502h-3l-172 -502h-58l52 665h60l-58 -557h3l185 557h44zM359 838l33 -135h-48l-18 93l-54 -93h-48l84 135h51z" />
    <glyph glyph-name="wcircumflex" unicode="&#x175;" horiz-adv-x="460" 
d="M238 508h51l-14 -404h3l133 404h60l-177 -508h-60l9 394h-3l-144 -394h-60l20 508h60l-25 -404h3zM323 683l33 -135h-48l-18 93l-54 -93h-48l84 135h51z" />
    <glyph glyph-name="Ycircumflex" unicode="&#x176;" horiz-adv-x="332" 
d="M173 215l-42 -215h-60l42 216l-27 449h62l10 -363h3l151 363h62zM289 838l33 -135h-48l-18 93l-54 -93h-48l84 135h51z" />
    <glyph glyph-name="ycircumflex" unicode="&#x177;" horiz-adv-x="288" 
d="M61 508h59.998l-22 -410h3l139 410h60l-212 -565c-17.333 -46 -40.166 -82.833 -68.499 -110.5s-63.5 -41.5 -105.5 -41.5l10 54c19.333 0 39.333 8.5 60 25.5s37.334 42.833 50.001 77.5l15 40zM236.998 683l33 -135h-48l-18 93l-54 -93h-48l84 135h51z" />
    <glyph glyph-name="Ydieresis" unicode="&#x178;" horiz-adv-x="332" 
d="M173 215l-42 -215h-60l42 216l-27 449h62l10 -363h3l151 363h62zM202 810c20.667 0 31 -9.99902 31 -29.999c0 -14 -4.33301 -25.167 -13 -33.5s-19.667 -12.5 -33 -12.5c-9.33301 0 -17 2.83301 -23 8.5s-9 13.167 -9 22.5c0 13.333 4.5 24.166 13.5 32.499
s20.167 12.5 33.5 12.5zM316 810.001c20.667 0 31 -9.99902 31 -29.999c0 -14 -4.33301 -25.167 -13 -33.5s-19.667 -12.5 -33 -12.5c-9.33301 0 -17 2.83301 -23 8.5s-9 13.167 -9 22.5c0 13.333 4.5 24.166 13.5 32.499s20.167 12.5 33.5 12.5z" />
    <glyph glyph-name="Zacute" unicode="&#x179;" horiz-adv-x="281" 
d="M82 609l11 56h228l-13 -66l-282 -544h171l-10 -55h-228l13 66l282 543h-172zM303 838l-83 -135h-49l70 135h62z" />
    <glyph glyph-name="zacute" unicode="&#x17a;" horiz-adv-x="239" 
d="M51 453l11 55h188l-12 -64l-215 -389h133l-10 -55h-188l12 61l216 392h-135zM252 683l-83 -135h-49l70 135h62z" />
    <glyph glyph-name="Zdotaccent" unicode="&#x17b;" horiz-adv-x="281" 
d="M82 609l11 56h228l-13 -66l-282 -544h171l-10 -55h-228l13 66l282 543h-172zM233 812c10 0 18 -3 24 -9s9 -13.667 9 -23c0 -14.667 -4.5 -26.167 -13.5 -34.5s-20.167 -12.5 -33.5 -12.5c-10 0 -18 2.83301 -24 8.5s-9 13.5 -9 23.5c0 14 4.5 25.333 13.5 34
s20.167 13 33.5 13z" />
    <glyph glyph-name="zdotaccent" unicode="&#x17c;" horiz-adv-x="239" 
d="M51 453l11 55h188l-12 -64l-215 -389h133l-10 -55h-188l12 61l216 392h-135zM182 657c10 0 18 -3 24 -9s9 -13.667 9 -23c0 -14.667 -4.5 -26.167 -13.5 -34.5s-20.167 -12.5 -33.5 -12.5c-10 0 -18 2.83301 -24 8.5s-9 13.5 -9 23.5c0 14 4.5 25.333 13.5 34
s20.167 13 33.5 13z" />
    <glyph glyph-name="Zcaron" unicode="&#x17d;" horiz-adv-x="281" 
d="M82 609l11 56h228l-13 -66l-282 -544h171l-10 -55h-228l13 66l282 543h-172zM188 703l-31 135h46l17 -94l55 94h46l-83 -135h-50z" />
    <glyph glyph-name="zcaron" unicode="&#x17e;" horiz-adv-x="239" 
d="M51 453l11 55h188l-12 -64l-215 -389h133l-10 -55h-188l12 61l216 392h-135zM137 548l-31 135h46l17 -94l55 94h46l-83 -135h-50z" />
    <glyph glyph-name="florin" unicode="&#x192;" horiz-adv-x="387" 
d="M190 157c-22 -111.333 -71.668 -167.002 -149.001 -167.002c-22 0 -39.333 4.33301 -52 13s-22.667 19.667 -30 33l44 34c3.33301 -8 8.5 -14.833 15.5 -20.5s16.167 -8.5 27.5 -8.5c12 0 22.5 3 31.5 9s16.667 13.833 23 23.5s11.5 20.667 15.5 33
s7.33301 24.833 10 37.5l71 364c10.667 56 27.834 97.833 51.501 125.5s55.167 41.5 94.5 41.5c23.333 0 41.333 -4.33301 54 -13s22.667 -19.667 30 -33l-43 -37c-3.33301 8.66699 -8.5 16.167 -15.5 22.5s-16.5 9.5 -28.5 9.5s-22.5 -2.83301 -31.5 -8.5
s-16.5 -13.167 -22.5 -22.5s-11 -20.166 -15 -32.499s-7.33301 -25.166 -10 -38.499l-27 -139h99l-9 -51h-101z" />
    <glyph glyph-name="uni0218" unicode="&#x218;" horiz-adv-x="302" 
d="M70 529c4 20.667 10.002 39.8271 18.002 57.4941s18 33 30 46s26.167 23.333 42.5 31s35.166 11.5 56.499 11.5c30.667 0 54.167 -8.5 70.5 -25.5s24.5 -42.5 24.5 -76.5c0 -16 -2 -34 -6 -54l-5 -22h-60l5 27c1.33301 7.33301 2.5 14.333 3.5 21s1.5 13.334 1.5 20.001
c0 16 -3.16699 29.167 -9.5 39.5s-18.166 15.5 -35.499 15.5c-20 0 -36.5 -8.66699 -49.5 -26s-21.833 -38.333 -26.5 -63l-6 -30c-4.66699 -23.333 -3.66699 -43.666 3 -60.999s20 -35.666 40 -54.999c21.333 -20.667 39.833 -43 55.5 -67s23.5 -53 23.5 -87
c0 -6 -0.333008 -12.333 -1 -19s-1.66699 -13.667 -3 -21l-11 -55c-3.33301 -19.333 -9 -37.666 -17 -54.999s-18.167 -32.833 -30.5 -46.5s-26.833 -24.5 -43.5 -32.5s-35.334 -12 -56.001 -12c-32 0 -55.667 8.83301 -71 26.5s-23 42.834 -23 75.501c0 17.333 2 36 6 56
l4 20h60l-4 -23c-1.33301 -8 -2.5 -15.833 -3.5 -23.5s-1.5 -15.167 -1.5 -22.5c0 -15.333 3 -28.166 9 -38.499s17.667 -15.5 35 -15.5c19.333 0 35.5 8.83301 48.5 26.5s22.167 38.834 27.5 63.501l9 44c1.33301 6 2.33301 11.833 3 17.5s1 11.167 1 16.5
c0 22.667 -4.83301 43.167 -14.5 61.5s-23.834 36.5 -42.501 54.5c-10 10 -19.167 19.667 -27.5 29s-15.5 19 -21.5 29s-10.667 20.5 -14 31.5s-5 23.167 -5 36.5c0 5.33301 0.333008 11.166 1 17.499s1.66699 12.833 3 19.5zM50.002 -161.007h-42l46 121h58z" />
    <glyph glyph-name="uni0219" unicode="&#x219;" horiz-adv-x="284" 
d="M55 153l-1.99902 -10.002c-4 -18 -6 -35.333 -6 -52c0 -14.667 2.66699 -26.667 8 -36s15 -14 29 -14c10.667 0 20.5 3.16699 29.5 9.5s16.833 14.666 23.5 24.999s11.834 22 15.501 35s5.5 26.167 5.5 39.5c0 18 -4.33301 35.167 -13 51.5s-22.667 32.5 -42 48.5
c-20 15.333 -35.667 32.333 -47 51s-17 40.667 -17 66c0 18.667 3 37 9 55s14.667 34.167 26 48.5s25.666 25.833 42.999 34.5s37 13 59 13c58 0 87 -32.333 87 -97c0 -8 -0.333008 -16.5 -1 -25.5s-2 -18.167 -4 -27.5l-2 -10h-59l3 14c3.33301 16.667 5 31.334 5 44.001
c0 14.667 -2.66699 26.834 -8 36.501s-15.333 14.5 -30 14.5c-12 0 -22.333 -2.66699 -31 -8s-15.667 -12.333 -21 -21s-9.16602 -18 -11.499 -28s-3.5 -20 -3.5 -30c0 -18 4.66699 -34 14 -48s23.666 -28.333 42.999 -43c21.333 -15.333 36.833 -33.5 46.5 -54.5
s14.5 -43.833 14.5 -68.5c0 -19.333 -2.83301 -39.333 -8.5 -60s-14.334 -39.5 -26.001 -56.5s-26.167 -31.167 -43.5 -42.5s-38 -17 -62 -17c-60 0 -90 31.333 -90 94c0 18.667 2.33301 38.334 7 59.001l2 10h58zM41.001 -161.002h-42l46 121h58z" />
    <glyph glyph-name="uni021A" unicode="&#x21a;" horiz-adv-x="307" 
d="M57 0l118 609h-106l11 56h275l-11 -56h-109l-118 -609h-60zM53 -161h-42l46 121h58z" />
    <glyph glyph-name="uni021B" unicode="&#x21b;" horiz-adv-x="231" 
d="M156 5c-9.33301 -4.66699 -18.5 -8.33496 -27.5 -11.002s-19.833 -4 -32.5 -4c-30.667 0 -53 7.83301 -67 23.5s-21 39.5 -21 71.5c0 20.667 2.33301 42.334 7 65.001l89 458h53l-5 -63l-7 -37h95l-9 -51h-97l-61 -314c-3.33301 -15.333 -5 -29.666 -5 -42.999
c0 -15.333 3 -28.333 9 -39s17 -16 33 -16c8 0 15.167 0.833008 21.5 2.5s12.833 4.16699 19.5 7.5zM32 -161.001h-42l46 121h58z" />
    <glyph glyph-name="dotlessj" unicode="&#x237;" horiz-adv-x="166" 
d="M140 508l-6.00195 -65l-94 -483c-12 -60.667 -29.833 -104.167 -53.5 -130.5s-55.834 -39.5 -96.501 -39.5l11 55c12.667 0 23.334 2.83301 32.001 8.5s15.834 13.167 21.501 22.5s10.334 20.5 14.001 33.5s7.16699 26.833 10.5 41.5l108 557h53z" />
    <glyph glyph-name="circumflex" unicode="&#x2c6;" horiz-adv-x="350" 
d="M268 683l33 -135h-48l-18 93l-54 -93h-48l84 135h51z" />
    <glyph glyph-name="caron" unicode="&#x2c7;" horiz-adv-x="350" 
d="M192 548l-31 135h46l17 -94l55 94h46l-83 -135h-50z" />
    <glyph glyph-name="breve" unicode="&#x2d8;" horiz-adv-x="350" 
d="M323 665l-2 -12c-4.66699 -26.667 -15.834 -48 -33.501 -64s-40.5 -24 -68.5 -24s-47.667 8 -59 24s-14.666 37.333 -9.99902 64l2 12h49l-2 -12c-4.66699 -27.333 5 -41 29 -41c11.333 0 21 3.33301 29 10s13.333 17 16 31l2 12h48z" />
    <glyph glyph-name="dotaccent" unicode="&#x2d9;" horiz-adv-x="350" 
d="M237 657c10 0 18 -3 24 -9s9 -13.667 9 -23c0 -14.667 -4.5 -26.167 -13.5 -34.5s-20.167 -12.5 -33.5 -12.5c-10 0 -18 2.83301 -24 8.5s-9 13.5 -9 23.5c0 14 4.5 25.333 13.5 34s20.167 13 33.5 13z" />
    <glyph glyph-name="ring" unicode="&#x2da;" horiz-adv-x="350" 
d="M192 614c0 -9.33301 2.5 -17.167 7.5 -23.5s12.833 -9.5 23.5 -9.5c12.667 0 23.667 4.66699 33 14s14 20.333 14 33c0 10 -2.83301 18 -8.5 24s-13.167 9 -22.5 9c-12.667 0 -23.667 -4.5 -33 -13.5s-14 -20.167 -14 -33.5zM152 609.999
c0 12 2.66602 23.332 7.99902 33.999s12.333 20 21 28s18.667 14.333 30 19s23 7 35 7c19.333 0 34.666 -6.16699 45.999 -18.5s17 -27.5 17 -45.5c0 -12 -2.66699 -23.5 -8 -34.5s-12.166 -20.5 -20.499 -28.5s-18.166 -14.5 -29.499 -19.5s-23 -7.5 -35 -7.5
c-19.333 0 -34.833 6.33301 -46.5 19s-17.5 28.334 -17.5 47.001z" />
    <glyph glyph-name="ogonek" unicode="&#x2db;" horiz-adv-x="350" 
d="M202 0c-32 -16.667 -57.5 -36.835 -76.5 -60.502s-28.5 -48.167 -28.5 -73.5c0 -16.667 6.66699 -25 20 -25c8 0 15.333 2.83301 22 8.5s10.667 15.834 12 30.501l1 6h40l-1 -6c-2.66699 -22.667 -11.167 -41.5 -25.5 -56.5s-32.833 -22.5 -55.5 -22.5
c-19.333 0 -33.833 5 -43.5 15s-14.5 23.667 -14.5 41c0 18.667 3.66699 36.334 11 53.001s17.333 32.167 30 46.5s27.5 27 44.5 38s34.833 20.5 53.5 28.5z" />
    <glyph glyph-name="tilde" unicode="&#x2dc;" horiz-adv-x="350" 
d="M116 569c2 18 5.66797 32.832 11.001 44.499s11.5 21 18.5 28s14.333 12 22 15s15.167 4.5 22.5 4.5c10.667 0 19.667 -2.16699 27 -6.5s13.833 -9.33301 19.5 -15s11 -10.667 16 -15s10.5 -6.5 16.5 -6.5s11.667 2.5 17 7.5s8.66602 16.167 9.99902 33.5l1 5h46l-1 -5
c-2.66699 -18 -6.5 -32.833 -11.5 -44.5s-10.833 -21 -17.5 -28s-13.834 -12 -21.501 -15s-15.167 -4.5 -22.5 -4.5c-10 0 -18.5 2.33301 -25.5 7s-13.5 9.83398 -19.5 15.501l-17 15.5c-5.33301 4.66699 -10.666 7 -15.999 7c-6 0 -11.833 -2.66699 -17.5 -8
s-9.16699 -17 -10.5 -35l-1 -4h-46v4z" />
    <glyph glyph-name="hungarumlaut" unicode="&#x2dd;" horiz-adv-x="350" 
d="M377 683l-89 -135h-47l76 135h60zM273 683l-86 -135h-46l71 135h61z" />
    <glyph glyph-name="uni0394" unicode="&#x394;" horiz-adv-x="312" 
d="M181 55l19 506l-179 -506h160zM197 665h46l-8 -600l-13 -65h-262l12 67z" />
    <glyph glyph-name="uni03A9" unicode="&#x3a9;" 
d="M258 185c-6.66699 -33.333 -18.001 -60.498 -34.001 -81.498s-34.667 -37.167 -56 -48.5h65l-11 -55h-102l11 59c16 12 29.833 29 41.5 51s19.834 45.333 24.501 70l67 343c1.33301 6 2.33301 12 3 18s1 12 1 18c0 17.333 -3.5 31.833 -10.5 43.5
s-19.167 17.5 -36.5 17.5c-12 0 -22.5 -2.83301 -31.5 -8.5s-16.833 -13.167 -23.5 -22.5s-12.167 -19.833 -16.5 -31.5s-7.5 -23.5 -9.5 -35.5l-67 -342c-1.33301 -6 -2.33301 -12 -3 -18s-1 -12.667 -1 -20c0 -16 1.83301 -31.667 5.5 -47s9.16699 -27.333 16.5 -36
l-11 -59h-102l11 55h65c-12.667 9.33301 -23 21.666 -31 36.999s-12 34 -12 56c0 5.33301 0.333008 11.166 1 17.499s1.66699 12.833 3 19.5l64 329c10 52 27.5 91.833 52.5 119.5s58.167 41.5 99.5 41.5c64.667 0 97 -34.333 97 -103c0 -18 -2 -37.333 -6 -58z" />
    <glyph glyph-name="pi" unicode="&#x3c0;" horiz-adv-x="397" 
d="M243 0h-60l88 453h-99l-88 -453h-60l88 453h-57l11 55h333l-11 -55h-57z" />
    <glyph glyph-name="Wgrave" unicode="&#x1e80;" horiz-adv-x="473" 
d="M320 665l-31 -557h2l164 557h60l-211 -665h-61l24 502h-3l-172 -502h-58l52 665h60l-58 -557h3l185 557h44zM339 838l18 -135h-48l-32 135h62z" />
    <glyph glyph-name="wgrave" unicode="&#x1e81;" horiz-adv-x="460" 
d="M238 508h51l-14 -404h3l133 404h60l-177 -508h-60l9 394h-3l-144 -394h-60l20 508h60l-25 -404h3zM303 683l18 -135h-48l-32 135h62z" />
    <glyph glyph-name="Wacute" unicode="&#x1e82;" horiz-adv-x="473" 
d="M320 665l-31 -557h2l164 557h60l-211 -665h-61l24 502h-3l-172 -502h-58l52 665h60l-58 -557h3l185 557h44zM398 838l-83 -135h-49l70 135h62z" />
    <glyph glyph-name="wacute" unicode="&#x1e83;" horiz-adv-x="460" 
d="M238 508h51l-14 -404h3l133 404h60l-177 -508h-60l9 394h-3l-144 -394h-60l20 508h60l-25 -404h3zM362 683l-83 -135h-49l70 135h62z" />
    <glyph glyph-name="Wdieresis" unicode="&#x1e84;" horiz-adv-x="473" 
d="M320 665l-31 -557h2l164 557h60l-211 -665h-61l24 502h-3l-172 -502h-58l52 665h60l-58 -557h3l185 557h44zM272 810c20.667 0 31 -9.99902 31 -29.999c0 -14 -4.33301 -25.167 -13 -33.5s-19.667 -12.5 -33 -12.5c-9.33301 0 -17 2.83301 -23 8.5s-9 13.167 -9 22.5
c0 13.333 4.5 24.166 13.5 32.499s20.167 12.5 33.5 12.5zM386 810.001c20.667 0 31 -9.99902 31 -29.999c0 -14 -4.33301 -25.167 -13 -33.5s-19.667 -12.5 -33 -12.5c-9.33301 0 -17 2.83301 -23 8.5s-9 13.167 -9 22.5c0 13.333 4.5 24.166 13.5 32.499
s20.167 12.5 33.5 12.5z" />
    <glyph glyph-name="wdieresis" unicode="&#x1e85;" horiz-adv-x="460" 
d="M238 508h51l-14 -404h3l133 404h60l-177 -508h-60l9 394h-3l-144 -394h-60l20 508h60l-25 -404h3zM236 655c20.667 0 31 -9.99902 31 -29.999c0 -14 -4.33301 -25.167 -13 -33.5s-19.667 -12.5 -33 -12.5c-9.33301 0 -17 2.83301 -23 8.5s-9 13.167 -9 22.5
c0 13.333 4.5 24.166 13.5 32.499s20.167 12.5 33.5 12.5zM350 655.001c20.667 0 31 -9.99902 31 -29.999c0 -14 -4.33301 -25.167 -13 -33.5s-19.667 -12.5 -33 -12.5c-9.33301 0 -17 2.83301 -23 8.5s-9 13.167 -9 22.5c0 13.333 4.5 24.166 13.5 32.499
s20.167 12.5 33.5 12.5z" />
    <glyph glyph-name="Ygrave" unicode="&#x1ef2;" horiz-adv-x="332" 
d="M173 215l-42 -215h-60l42 216l-27 449h62l10 -363h3l151 363h62zM269 838l18 -135h-48l-32 135h62z" />
    <glyph glyph-name="ygrave" unicode="&#x1ef3;" horiz-adv-x="288" 
d="M61 508h59.998l-22 -410h3l139 410h60l-212 -565c-17.333 -46 -40.166 -82.833 -68.499 -110.5s-63.5 -41.5 -105.5 -41.5l10 54c19.333 0 39.333 8.5 60 25.5s37.334 42.833 50.001 77.5l15 40zM216.998 683l18 -135h-48l-32 135h62z" />
    <glyph glyph-name="endash" unicode="&#x2013;" horiz-adv-x="500" 
d="M53 350h400l-11 -57h-400z" />
    <glyph glyph-name="emdash" unicode="&#x2014;" horiz-adv-x="1000" 
d="M53 350h900l-11 -57h-900z" />
    <glyph glyph-name="quoteleft" unicode="&#x2018;" horiz-adv-x="174" 
d="M148 679h40l-53 -199h-59z" />
    <glyph glyph-name="quoteright" unicode="&#x2019;" horiz-adv-x="170" 
d="M117 480h-40l54 199h58z" />
    <glyph glyph-name="quotesinglbase" unicode="&#x201a;" horiz-adv-x="173" 
d="M-1 -149h-40l50 182h59z" />
    <glyph glyph-name="quotedblleft" unicode="&#x201c;" horiz-adv-x="290" 
d="M148 679h40l-53 -199h-59zM264 679h40l-53 -199h-59z" />
    <glyph glyph-name="quotedblright" unicode="&#x201d;" horiz-adv-x="286" 
d="M117 480h-40l54 199h58zM233 480h-40l54 199h58z" />
    <glyph glyph-name="quotedblbase" unicode="&#x201e;" horiz-adv-x="289" 
d="M-1 -149h-40l50 182h59zM115 -149h-40l50 182h59z" />
    <glyph glyph-name="dagger" unicode="&#x2020;" horiz-adv-x="286" 
d="M72 516h76l38 194h60l-38 -194h77l-11 -54h-76l-90 -462h-60l90 462h-77z" />
    <glyph glyph-name="daggerdbl" unicode="&#x2021;" horiz-adv-x="286" 
d="M72 516h76l38 194h60l-38 -194h77l-11 -54h-76l-42 -213h76l-10 -55h-76l-38 -194h-60l38 194h-76l10 55h76l42 213h-77z" />
    <glyph glyph-name="bullet" unicode="&#x2022;" horiz-adv-x="239" 
d="M42 314c0 26.667 9.00098 48.167 27.001 64.5s39.333 24.5 64 24.5c18.667 0 33.5 -5.33301 44.5 -16s16.5 -25.667 16.5 -45c0 -26.667 -8.83301 -48.167 -26.5 -64.5s-38.834 -24.5 -63.501 -24.5c-19.333 0 -34.5 5.5 -45.5 16.5s-16.5 25.833 -16.5 44.5z" />
    <glyph glyph-name="ellipsis" unicode="&#x2026;" horiz-adv-x="517" 
d="M-19 28c0 14.667 4.83301 26.5 14.5 35.5s21.5 13.5 35.5 13.5c10.667 0 19 -3.16699 25 -9.5s9 -14.166 9 -23.499c0 -14.667 -4.83301 -26.5 -14.5 -35.5s-21.5 -13.5 -35.5 -13.5c-10 0 -18.167 3.16699 -24.5 9.5s-9.5 14.166 -9.5 23.499zM158 28
c0 14.667 4.83301 26.5 14.5 35.5s21.5 13.5 35.5 13.5c10.667 0 19 -3.16699 25 -9.5s9 -14.166 9 -23.499c0 -14.667 -4.83301 -26.5 -14.5 -35.5s-21.5 -13.5 -35.5 -13.5c-10 0 -18.167 3.16699 -24.5 9.5s-9.5 14.166 -9.5 23.499zM336 28
c0 14.667 4.83301 26.5 14.5 35.5s21.5 13.5 35.5 13.5c10.667 0 19 -3.16699 25 -9.5s9 -14.166 9 -23.499c0 -14.667 -4.83301 -26.5 -14.5 -35.5s-21.5 -13.5 -35.5 -13.5c-10 0 -18.167 3.16699 -24.5 9.5s-9.5 14.166 -9.5 23.499z" />
    <glyph glyph-name="perthousand" unicode="&#x2030;" horiz-adv-x="865" 
d="M220 370c-6 -32 -17.833 -57.666 -35.5 -76.999s-42.167 -29 -73.5 -29c-25.333 0 -43.833 6.66699 -55.5 20s-17.5 31.333 -17.5 54c0 10 1 20.667 3 32l39 199c6 32 18 57.667 36 77s42.333 29 73 29c25.333 0 43.833 -6.66699 55.5 -20s17.5 -31.333 17.5 -54
c0 -10.667 -1 -21.334 -3 -32.001zM208 575.001c3.33301 14 3.16602 26.5 -0.500977 37.5s-12.5 16.5 -26.5 16.5s-24.833 -5.5 -32.5 -16.5s-12.834 -23.5 -15.501 -37.5l-41 -211c-2.66699 -14 -2.5 -26.5 0.5 -37.5s11.5 -16.5 25.5 -16.5
c14.667 0 25.834 5.5 33.501 16.5s12.834 23.5 15.501 37.5zM131 0.000976562h-52l407 665h51zM538 100.001c-6 -32 -17.833 -57.666 -35.5 -76.999s-42.167 -29 -73.5 -29c-25.333 0 -43.833 6.66699 -55.5 20s-17.5 31.333 -17.5 54c0 10 1 20.667 3 32l39 199
c6 32 18 57.667 36 77s42.333 29 73 29c25.333 0 43.833 -6.66699 55.5 -20s17.5 -31.333 17.5 -54c0 -10.667 -1 -21.334 -3 -32.001zM526 305.002c3.33301 14 3.16602 26.5 -0.500977 37.5s-12.5 16.5 -26.5 16.5s-24.833 -5.5 -32.5 -16.5s-12.834 -23.5 -15.501 -37.5
l-41 -211c-2.66699 -14 -2.5 -26.5 0.5 -37.5s11.5 -16.5 25.5 -16.5c14.667 0 25.834 5.5 33.501 16.5s12.834 23.5 15.501 37.5zM785 100.002c-6 -32 -17.833 -57.666 -35.5 -76.999s-42.167 -29 -73.5 -29c-25.333 0 -43.833 6.66699 -55.5 20s-17.5 31.333 -17.5 54
c0 10 1 20.667 3 32l39 199c6 32 18 57.667 36 77s42.333 29 73 29c25.333 0 43.833 -6.66699 55.5 -20s17.5 -31.333 17.5 -54c0 -10.667 -1 -21.334 -3 -32.001zM773 305.003c3.33301 14 3.16602 26.5 -0.500977 37.5s-12.5 16.5 -26.5 16.5s-24.833 -5.5 -32.5 -16.5
s-12.834 -23.5 -15.501 -37.5l-41 -211c-2.66699 -14 -2.5 -26.5 0.5 -37.5s11.5 -16.5 25.5 -16.5c14.667 0 25.834 5.5 33.501 16.5s12.834 23.5 15.501 37.5z" />
    <glyph glyph-name="guilsinglleft" unicode="&#x2039;" horiz-adv-x="232" 
d="M183 465l33 -41l-134 -132l84 -131l-49 -40l-92 143l11 56z" />
    <glyph glyph-name="guilsinglright" unicode="&#x203a;" horiz-adv-x="232" 
d="M32 119l-33 42l134 131l-83 132l49 40l91 -144l-11 -56z" />
    <glyph glyph-name="fraction" unicode="&#x2044;" horiz-adv-x="122" 
d="M-116 0h-52l407 665h51z" />
    <glyph glyph-name="zerosuperior" unicode="&#x2070;" horiz-adv-x="247" 
d="M220 370c-6 -32 -17.833 -57.666 -35.5 -76.999s-42.167 -29 -73.5 -29c-25.333 0 -43.833 6.66699 -55.5 20s-17.5 31.333 -17.5 54c0 10 1 20.667 3 32l39 199c6 32 18 57.667 36 77s42.333 29 73 29c25.333 0 43.833 -6.66699 55.5 -20s17.5 -31.333 17.5 -54
c0 -10.667 -1 -21.334 -3 -32.001zM208 575.001c3.33301 14 3.16602 26.5 -0.500977 37.5s-12.5 16.5 -26.5 16.5s-24.833 -5.5 -32.5 -16.5s-12.834 -23.5 -15.501 -37.5l-41 -211c-2.66699 -14 -2.5 -26.5 0.5 -37.5s11.5 -16.5 25.5 -16.5
c14.667 0 25.834 5.5 33.501 16.5s12.834 23.5 15.501 37.5z" />
    <glyph glyph-name="foursuperior" unicode="&#x2074;" horiz-adv-x="247" 
d="M164 351h-134l11 57l160 261h51l-165 -271h86l15 74h47l-39 -202h-47z" />
    <glyph glyph-name="fivesuperior" unicode="&#x2075;" horiz-adv-x="247" 
d="M99 669h175.995l-10 -46h-125l-24 -117c7.33301 9.33301 16.5 17.5 27.5 24.5s24.167 10.5 39.5 10.5c16.667 0 29.834 -5.33301 39.501 -16s14.5 -27 14.5 -49c0 -12 -1.33301 -24.333 -4 -37l-14 -69c-6 -33.333 -18.5 -59.333 -37.5 -78s-43.167 -28 -72.5 -28
c-30 0 -50.5 8.83301 -61.5 26.5s-13.833 41.167 -8.5 70.5l3 16h52l-2 -12c-3.33301 -14 -3.66602 -26.667 -0.999023 -38s11.334 -17 26.001 -17s25.834 5.5 33.501 16.5s13.167 24.167 16.5 39.5l15 79c2.66699 13.333 2.33398 25 -0.999023 35s-11 15 -23 15
c-11.333 0 -20.833 -3.83301 -28.5 -11.5s-13.5 -15.5 -17.5 -23.5h-54z" />
    <glyph glyph-name="sixsuperior" unicode="&#x2076;" horiz-adv-x="247" 
d="M207 568l1.00195 5c2.66699 13.333 2.33398 26 -0.999023 38s-12 18 -26 18s-24.833 -5.66699 -32.5 -17s-12.834 -24 -15.501 -38l-19 -96c6 11.333 14.667 20.833 26 28.5s24 11.5 38 11.5c17.333 0 31 -5.33301 41 -16s15 -26.334 15 -47.001
c0 -11.333 -1.33301 -22.333 -4 -33l-10 -52c-6 -31.333 -17.833 -56.833 -35.5 -76.5s-42.167 -29.5 -73.5 -29.5c-25.333 0 -43.833 6.66699 -55.5 20s-17.5 31.333 -17.5 54c0 10 1 20.667 3 32l39 197c6 32.667 18 58.834 36 78.501s42.333 29.5 73 29.5
c15.333 0 28.166 -2.66699 38.499 -8s18.333 -12.5 24 -21.5s9.16699 -19.5 10.5 -31.5s0.666016 -25 -2.00098 -39l-1 -7h-52zM118.002 310c14.667 0 25.8311 5.49902 33.498 16.499s12.834 23.5 15.501 37.5l11 56c2.66699 14 2.33398 26.5 -0.999023 37.5
s-12 16.5 -26 16.5c-13.333 0 -24 -5.66699 -32 -17s-13.333 -23.666 -16 -36.999l-11 -56c-2.66699 -14 -2.5 -26.5 0.5 -37.5s11.5 -16.5 25.5 -16.5z" />
    <glyph glyph-name="sevensuperior" unicode="&#x2077;" horiz-adv-x="247" 
d="M29 270l195 353h-142l10 46h192l-11 -56l-189 -343h-55z" />
    <glyph glyph-name="eightsuperior" unicode="&#x2078;" horiz-adv-x="247" 
d="M83 585c5.33301 28 17.334 50 36.001 66s42 24 70 24c14.667 0 27.167 -2.66699 37.5 -8s18.5 -12.333 24.5 -21s9.66699 -18.5 11 -29.5s1 -22.167 -1 -33.5l-4 -20c-4 -20 -12.167 -36.167 -24.5 -48.5s-28.166 -25.166 -47.499 -38.499
c13.333 -12.667 24 -26.5 32 -41.5s9.33301 -34.5 4 -58.5l-4 -19c-5.33301 -28 -17 -50.5 -35 -67.5s-42 -25.5 -72 -25.5c-29.333 0 -50 9 -62 27s-15.333 39.667 -10 65l4 20c5.33301 23.333 14.666 42.666 27.999 57.999s28.666 29.333 45.999 42
c-13.333 13.333 -23.833 26.333 -31.5 39s-9.5 28.667 -5.5 48zM91.001 359c-2.66699 -12 -2.33398 -23.166 0.999023 -33.499s11.666 -15.5 24.999 -15.5c14.667 0 25.834 5 33.501 15s12.834 21.333 15.501 34l4 23c3.33301 14 2.5 26.5 -2.5 37.5
s-12.167 21.167 -21.5 30.5c-12.667 -9.33301 -23.5 -18.833 -32.5 -28.5s-15.167 -22.834 -18.5 -39.501zM130.001 563.001c-3.33301 -14 -2.66895 -25.332 1.99805 -33.999s12.667 -18.334 24 -29.001c14.667 10.667 25.834 20 33.501 28s12.834 19 15.501 33l3 17
c2.66699 12 2.33398 23.5 -0.999023 34.5s-12.333 16.5 -27 16.5c-13.333 0 -23.833 -5 -31.5 -15s-12.834 -21.333 -15.501 -34z" />
    </font>
</defs>
</svg>
