<?xml version="1.0" standalone="no"?>
<!DOCTYPE svg PUBLIC "-//W3C//DTD SVG 1.1//EN" "http://www.w3.org/Graphics/SVG/1.1/DTD/svg11.dtd" >
<svg>
<metadata>
Created by FontForge 20090914 at Sun Aug 10 13:00:55 2014
 By www-data
Copyright (c) 2013 by FONTYOU. All rights reserved. www.fontyou.com
</metadata>
<defs>
<font id="MarianinaCnFY-Regular" horiz-adv-x="331" >
  <font-face 
    font-family="MarianinaCnFY-Regular"
    font-weight="400"
    font-stretch="normal"
    units-per-em="1000"
    panose-1="2 0 5 6 0 0 0 2 0 4"
    ascent="772"
    descent="-228"
    x-height="508"
    cap-height="665"
    bbox="-110 -210.002 950 875"
    underline-thickness="50"
    underline-position="-50"
    unicode-range="U+000D-U+FB04"
  />
<missing-glyph horiz-adv-x="602" 
d="M305 435c10.667 19.333 24.498 35 41.498 47s35.833 18 56.5 18c28.667 0 52.334 -9.83301 71.001 -29.5s28 -44.834 28 -75.501c0 -20 -4.5 -41.667 -13.5 -65s-22 -46.666 -39 -69.999s-38 -45.833 -63 -67.5s-53.5 -40.834 -85.5 -57.501
c-32 16.667 -60.5 35.834 -85.5 57.501s-46 44.167 -63 67.5s-30 46.666 -39 69.999s-13.5 45 -13.5 65c0 30.667 9.33301 55.834 28 75.501s42.334 29.5 71.001 29.5c20.667 0 39.5 -6 56.5 -18s30.833 -27.667 41.5 -47h8z" />
    <glyph glyph-name="f_f" unicode="ff" horiz-adv-x="439" 
d="M114 457l0.000976562 -457.001h-61v543c0 54.667 9.16699 96.167 27.5 124.5s47.166 42.5 86.499 42.5c23.333 0 42.333 -4.33301 57 -13s26.667 -19.667 36 -33l-38 -35c-5.33301 8.66699 -11.833 15.834 -19.5 21.501s-17.167 8.5 -28.5 8.5c-12 0 -22 -3 -30 -9
s-14.167 -13.833 -18.5 -23.5s-7.33301 -20.667 -9 -33s-2.5 -24.5 -2.5 -36.5v-49h100v-51h-100zM332.001 456.999v-457.001h-61v543c0 54.667 9 96.167 27 124.5s47 42.5 87 42.5c23.333 0 42.333 -4.33301 57 -13s26.667 -19.667 36 -33l-38 -35
c-6 8.66699 -12.667 15.834 -20 21.501s-17 8.5 -29 8.5s-21.833 -3 -29.5 -9s-13.667 -13.833 -18 -23.5s-7.33301 -20.667 -9 -33s-2.5 -24.5 -2.5 -36.5v-49h100v-51h-100z" />
    <glyph glyph-name="fi" unicode="fi" horiz-adv-x="382" 
d="M114 457l0.000976562 -457.001h-61v543c0 54.667 9.16699 96.167 27.5 124.5s47.166 42.5 86.499 42.5c23.333 0 42.333 -4.33301 57 -13s26.667 -19.667 36 -33l-38 -35c-5.33301 8.66699 -11.833 15.834 -19.5 21.501s-17.167 8.5 -28.5 8.5c-12 0 -22 -3 -30 -9
s-14.167 -13.833 -18.5 -23.5s-7.33301 -20.667 -9 -33s-2.5 -24.5 -2.5 -36.5v-49h100v-51h-100zM271.001 507.999h53l7 -65v-443h-60v508zM301.001 650.999c11.333 0 20.5 -3.33301 27.5 -10s10.5 -16 10.5 -28s-3.5 -21.333 -10.5 -28s-16.167 -10 -27.5 -10
s-20.5 3.33301 -27.5 10s-10.5 16 -10.5 28s3.5 21.333 10.5 28s16.167 10 27.5 10z" />
    <glyph glyph-name="fl" unicode="fl" horiz-adv-x="382" 
d="M114 457l0.000976562 -457.001h-61v543c0 54.667 9.16699 96.167 27.5 124.5s47.166 42.5 86.499 42.5c23.333 0 42.333 -4.33301 57 -13s26.667 -19.667 36 -33l-38 -35c-5.33301 8.66699 -11.833 15.834 -19.5 21.501s-17.167 8.5 -28.5 8.5c-12 0 -22 -3 -30 -9
s-14.167 -13.833 -18.5 -23.5s-7.33301 -20.667 -9 -33s-2.5 -24.5 -2.5 -36.5v-49h100v-51h-100zM331.001 644.999v-645h-55l-5 65v645h53z" />
    <glyph glyph-name="f_f_i" unicode="ffi" horiz-adv-x="600" 
d="M114 457l0.000976562 -457.001h-61v543c0 54.667 9.16699 96.167 27.5 124.5s47.166 42.5 86.499 42.5c23.333 0 42.333 -4.33301 57 -13s26.667 -19.667 36 -33l-38 -35c-5.33301 8.66699 -11.833 15.834 -19.5 21.501s-17.167 8.5 -28.5 8.5c-12 0 -22 -3 -30 -9
s-14.167 -13.833 -18.5 -23.5s-7.33301 -20.667 -9 -33s-2.5 -24.5 -2.5 -36.5v-49h100v-51h-100zM332.001 456.999v-457.001h-61v543c0 54.667 9 96.167 27 124.5s47 42.5 87 42.5c23.333 0 42.333 -4.33301 57 -13s26.667 -19.667 36 -33l-38 -35
c-6 8.66699 -12.667 15.834 -20 21.501s-17 8.5 -29 8.5s-21.833 -3 -29.5 -9s-13.667 -13.833 -18 -23.5s-7.33301 -20.667 -9 -33s-2.5 -24.5 -2.5 -36.5v-49h100v-51h-100zM488.001 507.998h53l7 -65v-443h-60v508zM518.001 650.998c11.333 0 20.5 -3.33301 27.5 -10
s10.5 -16 10.5 -28s-3.5 -21.333 -10.5 -28s-16.167 -10 -27.5 -10s-20.5 3.33301 -27.5 10s-10.5 16 -10.5 28s3.5 21.333 10.5 28s16.167 10 27.5 10z" />
    <glyph glyph-name="f_f_l" unicode="ffl" horiz-adv-x="599" 
d="M114 457l0.000976562 -457.001h-61v543c0 54.667 9.16699 96.167 27.5 124.5s47.166 42.5 86.499 42.5c23.333 0 42.333 -4.33301 57 -13s26.667 -19.667 36 -33l-38 -35c-5.33301 8.66699 -11.833 15.834 -19.5 21.501s-17.167 8.5 -28.5 8.5c-12 0 -22 -3 -30 -9
s-14.167 -13.833 -18.5 -23.5s-7.33301 -20.667 -9 -33s-2.5 -24.5 -2.5 -36.5v-49h100v-51h-100zM332.001 456.999v-457.001h-61v543c0 54.667 9 96.167 27 124.5s47 42.5 87 42.5c23.333 0 42.333 -4.33301 57 -13s26.667 -19.667 36 -33l-38 -35
c-6 8.66699 -12.667 15.834 -20 21.501s-17 8.5 -29 8.5s-21.833 -3 -29.5 -9s-13.667 -13.833 -18 -23.5s-7.33301 -20.667 -9 -33s-2.5 -24.5 -2.5 -36.5v-49h100v-51h-100zM548.001 644.998v-645h-55l-5 65v645h54z" />
    <glyph glyph-name=".notdef" horiz-adv-x="602" 
d="M305 435c10.667 19.333 24.498 35 41.498 47s35.833 18 56.5 18c28.667 0 52.334 -9.83301 71.001 -29.5s28 -44.834 28 -75.501c0 -20 -4.5 -41.667 -13.5 -65s-22 -46.666 -39 -69.999s-38 -45.833 -63 -67.5s-53.5 -40.834 -85.5 -57.501
c-32 16.667 -60.5 35.834 -85.5 57.501s-46 44.167 -63 67.5s-30 46.666 -39 69.999s-13.5 45 -13.5 65c0 30.667 9.33301 55.834 28 75.501s42.334 29.5 71.001 29.5c20.667 0 39.5 -6 56.5 -18s30.833 -27.667 41.5 -47h8z" />
    <glyph glyph-name=".null" horiz-adv-x="0" 
 />
    <glyph glyph-name=".null" horiz-adv-x="0" 
 />
    <glyph glyph-name="nonmarkingreturn" unicode="&#xd;" horiz-adv-x="0" 
 />
    <glyph glyph-name="space" unicode=" " horiz-adv-x="140" 
 />
    <glyph glyph-name="exclam" unicode="!" horiz-adv-x="228" 
d="M144 665v-510h-53l-7 68v442h60zM73 36c0 12 3.83301 21.833 11.5 29.5s17.5 11.5 29.5 11.5c11.333 0 21 -3.83301 29 -11.5s12 -17.5 12 -29.5s-4 -21.833 -12 -29.5s-17.667 -11.5 -29 -11.5c-12 0 -21.833 3.83301 -29.5 11.5s-11.5 17.5 -11.5 29.5z" />
    <glyph glyph-name="quotedbl" unicode="&#x22;" horiz-adv-x="266" 
d="M102 480h-43l-9 199h61zM207 480h-43l-9 199h61z" />
    <glyph glyph-name="numbersign" unicode="#" horiz-adv-x="463" 
d="M92 488h73l47 177h51l-46 -177h107l47 177h52l-46 -177h60v-49h-73l-53 -203h60v-49h-73l-48 -187h-52l48 187h-107l-49 -187h-52l49 187h-62v49h74l54 203h-61v49zM151 236h107l54 203h-108z" />
    <glyph glyph-name="dollar" unicode="$" horiz-adv-x="316" 
d="M41 529c0 14.667 1.66895 29.498 5.00195 44.498s8.5 28.833 15.5 41.5s16 23.834 27 33.501s24.167 16.5 39.5 20.5v61h60v-60c28 -5.33301 49.5 -20.333 64.5 -45s22.5 -60.334 22.5 -107.001v-21h-60v25c0 12 -0.833008 23.833 -2.5 35.5s-4.66699 22.167 -9 31.5
s-10.166 16.833 -17.499 22.5s-16.666 8.5 -27.999 8.5c-17.333 0 -31 -8.5 -41 -25.5s-15 -37.5 -15 -61.5c0 -16.667 0.5 -31.334 1.5 -44.001s3.66699 -24.667 8 -36s10.833 -22.333 19.5 -33s20.667 -22.334 36 -35.001c15.333 -13.333 29.666 -26.666 42.999 -39.999
s24.833 -28 34.5 -44s17.167 -33.667 22.5 -53s8 -41.333 8 -66v-28c0 -16.667 -1.16699 -33.667 -3.5 -51s-6.83301 -33.333 -13.5 -48s-15.5 -27.5 -26.5 -38.5s-25.5 -18.167 -43.5 -21.5v-60h-60v61c-30 6.66699 -52 22.834 -66 48.501s-21 60.167 -21 103.5v20h61v-25
c0 -12 0.833008 -23.833 2.5 -35.5s4.66699 -22.167 9 -31.5s10.166 -16.833 17.499 -22.5s16.666 -8.5 27.999 -8.5c17.333 0 31 8.5 41 25.5s15 37.5 15 61.5c0 22.667 -0.833008 43.167 -2.5 61.5s-5.33398 35.166 -11.001 50.499s-13.5 29.833 -23.5 43.5
s-23.333 27.5 -40 41.5c-14 12 -27 23.833 -39 35.5s-22.167 23.834 -30.5 36.501s-15 26.334 -20 41.001s-7.5 31.334 -7.5 50.001v37z" />
    <glyph glyph-name="percent" unicode="%" horiz-adv-x="604" 
d="M213 370c0 -32 -7 -57.667 -21 -77s-36.667 -29 -68 -29s-54 9.66699 -68 29s-21 45 -21 77v199c0 32 7 57.667 21 77s36.667 29 68 29s54 -9.66699 68 -29s21 -45 21 -77v-199zM161 575c0 14 -2.66699 26.5 -8 37.5s-15.333 16.5 -30 16.5
c-13.333 0 -22.833 -5.5 -28.5 -16.5s-8.5 -23.5 -8.5 -37.5v-211c0 -14 2.83301 -26.5 8.5 -37.5s15.167 -16.5 28.5 -16.5c14.667 0 24.667 5.5 30 16.5s8 23.5 8 37.5v211zM189 0h-52l278 665h51zM570 100c0 -32 -7 -57.667 -21 -77s-36.667 -29 -68 -29
s-54 9.66699 -68 29s-21 45 -21 77v199c0 32 7 57.667 21 77s36.667 29 68 29s54 -9.66699 68 -29s21 -45 21 -77v-199zM518 305c0 14 -2.66699 26.5 -8 37.5s-15.333 16.5 -30 16.5c-13.333 0 -22.833 -5.5 -28.5 -16.5s-8.5 -23.5 -8.5 -37.5v-211
c0 -14 2.83301 -26.5 8.5 -37.5s15.167 -16.5 28.5 -16.5c14.667 0 24.667 5.5 30 16.5s8 23.5 8 37.5v211z" />
    <glyph glyph-name="ampersand" unicode="&#x26;" horiz-adv-x="375" 
d="M248 55c-7.33301 -17.333 -17.3379 -32.5 -30.0049 -45.5s-31.667 -19.5 -57 -19.5c-72 0 -108 50 -108 150v40c0 22.667 2.5 42.667 7.5 60s12 33 21 47s20 27 33 39s27.167 24 42.5 36c28.667 22.667 49 44.167 61 64.5s18 44.166 18 71.499v24c0 12 -1 23.833 -3 35.5
s-5.33301 22.167 -10 31.5s-10.834 16.833 -18.501 22.5s-17.5 8.5 -29.5 8.5s-21.833 -2.83301 -29.5 -8.5s-14 -13.167 -19 -22.5s-8.5 -19.833 -10.5 -31.5s-3 -23.5 -3 -35.5v-34c0 -26 4.5 -46.667 13.5 -62s19.167 -26.666 30.5 -33.999l-44 -40
c-15.333 12.667 -29.166 30.667 -41.499 54s-18.5 54.333 -18.5 93v22c0 48 10.5 85.667 31.5 113s51.5 41 91.5 41c20.667 0 38.5 -3.66699 53.5 -11s27.5 -17.5 37.5 -30.5s17.333 -28.5 22 -46.5s7 -37.333 7 -58v-30c0 -18 -1.83301 -34.667 -5.5 -50
s-9.16699 -29.666 -16.5 -42.999s-17.166 -26.333 -29.499 -39s-26.833 -26 -43.5 -40l-34 -29c-10.667 -9.33301 -20 -19.833 -28 -31.5s-14.333 -24.667 -19 -39s-7 -31.5 -7 -51.5v-33c0 -11.333 1.16699 -22.833 3.5 -34.5s6 -22.167 11 -31.5s11.333 -17 19 -23
s17.167 -9 28.5 -9c22 0 37.667 9.83301 47 29.5s14 43.5 14 71.5v75h60v-76c0 -25.333 1.83301 -48.5 5.5 -69.5s9.33398 -39.333 17.001 -55s17.334 -27.834 29.001 -36.501s25.5 -13 41.5 -13v-56c-22 0 -41.167 3.66699 -57.5 11s-30.166 17.333 -41.499 30
s-20.166 27.5 -26.499 44.5s-10.5 35.167 -12.5 54.5h-3z" />
    <glyph glyph-name="quotesingle" unicode="'" horiz-adv-x="161" 
d="M102 480h-43l-9 199h61z" />
    <glyph glyph-name="parenleft" unicode="(" horiz-adv-x="250" 
d="M69 599c0 28 2.50098 53.333 7.50098 76s13.167 42 24.5 58s26.166 28.333 44.499 37s40.5 13 66.5 13h18v-56h-18c-55.333 0 -83 -44.333 -83 -133v-511c0 -88 27.667 -132 83 -132h18v-56h-18c-52.667 0 -89.667 16 -111 48s-32 76 -32 132v524z" />
    <glyph glyph-name="parenright" unicode=")" horiz-adv-x="250" 
d="M181 75c0 -56 -10.666 -100 -31.999 -132s-58.333 -48 -111 -48h-18v56h18c55.333 0 83 44 83 132v508c0 44 -6.66699 77.667 -20 101s-34.333 35 -63 35h-18v56h18c26 0 48.167 -4.5 66.5 -13.5s33.166 -21.833 44.499 -38.5s19.5 -36.5 24.5 -59.5s7.5 -48.5 7.5 -76.5
v-520z" />
    <glyph glyph-name="asterisk" unicode="*" horiz-adv-x="297" 
d="M32 566l85 40v4l-85 39l22 38l76 -56l4 3l-7 95h44l-11 -94l4 -3l79 55l22 -38l-87 -42v-4l87 -37l-22 -38l-79 56l-3 -6l10 -92h-44l9 94l-5 -1l-77 -51z" />
    <glyph glyph-name="plus" unicode="+" horiz-adv-x="318" 
d="M36 330h95v95h56v-95h95v-56h-95v-95h-56v95h-95v56z" />
    <glyph glyph-name="comma" unicode="," horiz-adv-x="162" 
d="M71 -114h-38l28 180h62z" />
    <glyph glyph-name="hyphen" unicode="-" horiz-adv-x="222" 
d="M40 350h142v-57h-142v57z" />
    <glyph glyph-name="period" unicode="." horiz-adv-x="162" 
d="M40 36c0 12.667 3.83301 22.667 11.5 30s17.5 11 29.5 11s21.833 -3.66699 29.5 -11s11.5 -17.333 11.5 -30s-3.83301 -22.667 -11.5 -30s-17.5 -11 -29.5 -11s-21.833 3.66699 -29.5 11s-11.5 17.333 -11.5 30z" />
    <glyph glyph-name="slash" unicode="/" horiz-adv-x="269" 
d="M60 -89h-54l204 799h53z" />
    <glyph glyph-name="zero" unicode="0" 
d="M287 151c0 -52 -10 -91.833 -30 -119.5s-50.667 -41.5 -92 -41.5s-71.833 13.833 -91.5 41.5s-29.5 67.5 -29.5 119.5v363c0 52 10 91.833 30 119.5s50.333 41.5 91 41.5c41.333 0 72 -13.833 92 -41.5s30 -67.5 30 -119.5v-363zM227 522
c0 12 -1.00098 23.8311 -3.00098 35.498s-5.33301 22.167 -10 31.5s-11 16.833 -19 22.5s-18 8.5 -30 8.5c-11.333 0 -21 -2.83301 -29 -8.5s-14.333 -13.167 -19 -22.5s-8 -19.833 -10 -31.5s-3 -23.5 -3 -35.5v-378c0 -12 1 -23.833 3 -35.5s5.33301 -22.167 10 -31.5
s10.834 -17 18.501 -23s17.5 -9 29.5 -9s21.833 2.83301 29.5 8.5s14 13.334 19 23.001s8.5 20.334 10.5 32.001s3 23.5 3 35.5v378z" />
    <glyph glyph-name="one" unicode="1" horiz-adv-x="269" 
d="M143 0v601l-92 -82l-37 42l118 104h71v-665h-60z" />
    <glyph glyph-name="two" unicode="2" horiz-adv-x="316" 
d="M34 506l0.000976562 16.002c0 50 10.333 88 31 114s52 39 94 39c43.333 0 74.166 -12 92.499 -36s27.5 -60 27.5 -108v-27c0 -34 -6.83301 -68.167 -20.5 -102.5s-31.834 -74.5 -54.501 -120.5l-111 -226h186v-55h-244v64l101 209l37 75
c10.667 22 19.334 42.167 26.001 60.5s11.667 35.166 15 50.499s5 30.666 5 45.999v24c0 31.333 -4.66699 54.333 -14 69s-25 22 -47 22c-24 0 -40.667 -8.66699 -50 -26s-14 -41 -14 -71v-17h-60z" />
    <glyph glyph-name="three" unicode="3" horiz-adv-x="321" 
d="M217 521c0 12 -0.999023 23.833 -2.99902 35.5s-5.5 22.167 -10.5 31.5s-11.5 17 -19.5 23s-18 9 -30 9c-11.333 0 -21 -3 -29 -9s-14.5 -13.667 -19.5 -23s-8.5 -19.833 -10.5 -31.5s-3 -23.5 -3 -35.5v-20h-60v13c0 52 10.167 91.833 30.5 119.5s50.833 41.5 91.5 41.5
c41.333 0 72.166 -13 92.499 -39s30.5 -61.667 30.5 -107v-40c0 -34 -6.16699 -62.5 -18.5 -85.5s-28.5 -39.167 -48.5 -48.5v-4c20 -8.66699 36.167 -25.334 48.5 -50.001s18.5 -53.334 18.5 -86.001v-73c0 -51.333 -11.5 -89.5 -34.5 -114.5s-52.5 -37.5 -88.5 -37.5
c-40 0 -70.333 13.167 -91 39.5s-31 64.833 -31 115.5v19h60v-20c0 -11.333 1 -23 3 -35s5.5 -22.667 10.5 -32s11.333 -17 19 -23s17.5 -9 29.5 -9s22 3 30 9s14.5 13.667 19.5 23s8.5 19.833 10.5 31.5s3 23.5 3 35.5v76c0 12.667 -1.5 25.334 -4.5 38.001
s-7.5 24 -13.5 34s-13.833 18 -23.5 24s-21.167 9 -34.5 9h-31v54h31c13.333 0 24.833 3 34.5 9s17.5 13.833 23.5 23.5s10.5 20.834 13.5 33.501s4.5 25.667 4.5 39v37z" />
    <glyph glyph-name="four" unicode="4" horiz-adv-x="316" 
d="M211 151h-188v67l164 447h60l-168 -459h132v124h60v-330h-60v151z" />
    <glyph glyph-name="five" unicode="5" horiz-adv-x="329" 
d="M41 665h245.001v-56h-185v-211c7.33301 14 17.666 26.833 30.999 38.5s30.666 17.5 51.999 17.5c33.333 0 58.666 -13.667 75.999 -41s26 -68.333 26 -123v-139c0 -52 -10.167 -91.833 -30.5 -119.5s-51.166 -41.5 -92.499 -41.5c-40.667 0 -71.167 13.333 -91.5 40
s-30.5 65 -30.5 115v19h60v-21c0 -12 1 -23.833 3 -35.5s5.5 -22.167 10.5 -31.5s11.333 -16.833 19 -22.5s17.5 -8.5 29.5 -8.5s22 2.83301 30 8.5s14.5 13.167 19.5 22.5s8.5 19.833 10.5 31.5s3 23.5 3 35.5v159c0 11.333 -1 22.833 -3 34.5s-5.33301 22.167 -10 31.5
s-10.667 16.833 -18 22.5s-16 8.5 -26 8.5s-18.5 -2.33301 -25.5 -7s-13.167 -10.5 -18.5 -17.5s-9.66602 -14.667 -12.999 -23s-6 -16.5 -8 -24.5h-63v338z" />
    <glyph glyph-name="six" unicode="6" horiz-adv-x="332" 
d="M229 503l-0.00195312 19c0 12.667 -1 25 -3 37s-5.5 22.5 -10.5 31.5s-11.5 16.167 -19.5 21.5s-18 8 -30 8s-21.833 -2.83301 -29.5 -8.5s-14 -13.167 -19 -22.5s-8.5 -19.833 -10.5 -31.5s-3 -23.5 -3 -35.5v-171c6 17.333 16 31.833 30 43.5s31.333 17.5 52 17.5
c68.667 0 103 -52.667 103 -158v-104c0 -52 -10.167 -91.667 -30.5 -119s-51.166 -41 -92.499 -41s-72 13.833 -92 41.5s-30 67.5 -30 119.5v363c0 52 10.167 91.833 30.5 119.5s50.833 41.5 91.5 41.5s71.334 -12.333 92.001 -37s31 -64 31 -118v-17h-60zM165.998 45
c12 0 22 2.66699 30 8s14.5 12.5 19.5 21.5s8.5 19.5 10.5 31.5s3 24.333 3 37v116c0 12 -1 23.833 -3 35.5s-5.5 22.167 -10.5 31.5s-11.5 16.833 -19.5 22.5s-18 8.5 -30 8.5c-11.333 0 -20.833 -2.83301 -28.5 -8.5s-14 -13.167 -19 -22.5s-8.66699 -19.833 -11 -31.5
s-3.5 -23.5 -3.5 -35.5v-116c0 -12 1 -23.833 3 -35.5s5.5 -22.167 10.5 -31.5s11.333 -16.833 19 -22.5s17.5 -8.5 29.5 -8.5z" />
    <glyph glyph-name="seven" unicode="7" horiz-adv-x="297" 
d="M45 0l173 609h-198v56h252v-67l-167 -598h-60z" />
    <glyph glyph-name="eight" unicode="8" horiz-adv-x="332" 
d="M44 535c0 45.333 9.99902 80 29.999 104s50.667 36 92 36s72.166 -11.5 92.499 -34.5s30.5 -56.167 30.5 -99.5v-54c0 -16 -2.16699 -30.5 -6.5 -43.5s-10.166 -25 -17.499 -36s-16.166 -21.667 -26.499 -32s-21.833 -20.833 -34.5 -31.5
c12 -10.667 23.167 -21.667 33.5 -33s19.333 -23.833 27 -37.5s13.667 -28.5 18 -44.5s6.5 -33.667 6.5 -53v-46c0 -44 -10.667 -78.333 -32 -103s-51.666 -37 -90.999 -37c-40.667 0 -71.167 11.667 -91.5 35s-30.5 56.333 -30.5 99v54c0 19.333 2.16699 36.833 6.5 52.5
s10.166 30.167 17.499 43.5s16 25.5 26 36.5s20.667 21.833 32 32.5c-24.667 21.333 -44.5 43 -59.5 65s-22.5 49.333 -22.5 82v45zM103.999 131c0 -10.667 1 -21.168 3 -31.501s5.5 -19.5 10.5 -27.5s11.333 -14.5 19 -19.5s17.5 -7.5 29.5 -7.5s22 2.5 30 7.5
s14.5 11.5 19.5 19.5s8.5 17.167 10.5 27.5s3 20.833 3 31.5v53c0 27.333 -6 50.833 -18 70.5s-27 37.167 -45 52.5c-18 -15.333 -32.833 -32.166 -44.5 -50.499s-17.5 -42.5 -17.5 -72.5v-53zM103.999 494.999c0 -23.333 5.00098 -43.666 15.001 -60.999s25.667 -35 47 -53
c21.333 18 37.166 35.167 47.499 51.5s15.5 37.166 15.5 62.499v39c0 10.667 -1 21.167 -3 31.5s-5.5 19.5 -10.5 27.5s-11.5 14.5 -19.5 19.5s-18 7.5 -30 7.5c-23.333 0 -39.5 -8.83301 -48.5 -26.5s-13.5 -37.5 -13.5 -59.5v-39z" />
    <glyph glyph-name="nine" unicode="9" horiz-adv-x="332" 
d="M105 162l0.00195312 -19c0 -12.667 1 -25 3 -37s5.33301 -22.5 10 -31.5s10.834 -16.167 18.501 -21.5s17.5 -8 29.5 -8s22 2.66699 30 8s14.5 12.5 19.5 21.5s8.5 19.5 10.5 31.5s3 24.333 3 37v171c-6.66699 -17.333 -16.834 -31.833 -30.501 -43.5
s-31.167 -17.5 -52.5 -17.5c-68 0 -102 52.667 -102 158v104c0 52 10.167 91.667 30.5 119s50.833 41 91.5 41c41.333 0 72.166 -13.833 92.499 -41.5s30.5 -67.5 30.5 -119.5v-363c0 -50.667 -10.333 -90.167 -31 -118.5s-51.334 -42.5 -92.001 -42.5
c-81.333 0 -122 51.333 -122 154v18h61zM167.002 620c-12 0 -22 -2.66699 -30 -8s-14.333 -12.5 -19 -21.5s-8 -19.5 -10 -31.5s-3 -24.333 -3 -37v-116c0 -12 1 -23.833 3 -35.5s5.5 -22.167 10.5 -31.5s11.333 -16.833 19 -22.5s17.5 -8.5 29.5 -8.5
c10.667 0 20 2.83301 28 8.5s14.5 13.167 19.5 22.5s8.66699 19.833 11 31.5s3.5 23.5 3.5 35.5v116c0 12 -1 23.833 -3 35.5s-5.5 22.167 -10.5 31.5s-11.5 16.833 -19.5 22.5s-17.667 8.5 -29 8.5z" />
    <glyph glyph-name="colon" unicode=":" horiz-adv-x="162" 
d="M40 36c0 12.667 3.83301 22.667 11.5 30s17.5 11 29.5 11s21.833 -3.66699 29.5 -11s11.5 -17.333 11.5 -30s-3.83301 -22.667 -11.5 -30s-17.5 -11 -29.5 -11s-21.833 3.66699 -29.5 11s-11.5 17.333 -11.5 30zM40 437c0 12.667 3.83301 22.667 11.5 30s17.5 11 29.5 11
s21.833 -3.66699 29.5 -11s11.5 -17.333 11.5 -30s-3.83301 -22.667 -11.5 -30s-17.5 -11 -29.5 -11s-21.833 3.66699 -29.5 11s-11.5 17.333 -11.5 30z" />
    <glyph glyph-name="semicolon" unicode=";" horiz-adv-x="168" 
d="M47 437c0 12.667 3.83301 22.667 11.5 30s17.5 11 29.5 11s21.833 -3.66699 29.5 -11s11.5 -17.333 11.5 -30s-3.83301 -22.667 -11.5 -30s-17.5 -11 -29.5 -11s-21.833 3.66699 -29.5 11s-11.5 17.333 -11.5 30zM69 -114h-38l28 180h62z" />
    <glyph glyph-name="less" unicode="&#x3c;" horiz-adv-x="318" 
d="M33 338l246 120v-60l-185 -86l185 -86v-60l-246 120v52z" />
    <glyph glyph-name="equal" unicode="=" horiz-adv-x="318" 
d="M36 390h246v-56h-246v56zM36 270h246v-56h-246v56z" />
    <glyph glyph-name="greater" unicode="&#x3e;" horiz-adv-x="318" 
d="M285 286l-246 -120v60l185 86l-185 86v60l246 -120v-52z" />
    <glyph glyph-name="question" unicode="?" horiz-adv-x="323" 
d="M45 488v43.9961c0 44 10.167 78.833 30.5 104.5s50.166 38.5 89.499 38.5c38 0 66.333 -11.667 85 -35s28 -53 28 -89v-44c0 -16 -0.833008 -30.167 -2.5 -42.5s-5 -24.166 -10 -35.499s-11.833 -22.666 -20.5 -33.999s-20 -23.666 -34 -36.999
c-10 -10 -17.833 -20 -23.5 -30s-9.83398 -21 -12.501 -33s-4.16699 -25.333 -4.5 -40s-0.5 -31.667 -0.5 -51v-49h-60v55c0 23.333 0.5 43.666 1.5 60.999s3.5 32.833 7.5 46.5s10 26.334 18 38.001s19 23.834 33 36.501c22.667 21.333 36.334 41.5 41.001 60.5
s7 38.833 7 59.5v34c0 20 -4.66699 37.167 -14 51.5s-22.666 21.5 -39.999 21.5c-18 0 -32.333 -7.16699 -43 -21.5s-16 -36.833 -16 -67.5v-42h-60zM101 35.9961c0 12 3.83301 21.833 11.5 29.5s17.5 11.5 29.5 11.5c11.333 0 21 -3.83301 29 -11.5s12 -17.5 12 -29.5
s-4 -21.833 -12 -29.5s-17.667 -11.5 -29 -11.5c-12 0 -21.833 3.83301 -29.5 11.5s-11.5 17.5 -11.5 29.5z" />
    <glyph glyph-name="at" unicode="@" horiz-adv-x="572" 
d="M283 233c-17.333 0 -30 -5.99902 -38 -17.999s-12 -31.333 -12 -58c0 -18.667 2.83301 -35.334 8.5 -50.001s17.167 -22 34.5 -22c14 0 25.833 6 35.5 18s16.167 26.667 19.5 44v69l-22 11c-8 4 -16.667 6 -26 6zM293 -123.999l-15.0029 0.00292969
c-76 0 -132.833 17.833 -170.5 53.5s-56.5 91.834 -56.5 168.501v279c0 32.667 4.5 64 13.5 94s23.167 56.333 42.5 79s44 40.667 74 54s66 20 108 20s77.667 -6.83301 107 -20.5s53.333 -31.834 72 -54.501s32.167 -49 40.5 -79s12.5 -61 12.5 -93v-215
c0 -40 -8.5 -70.333 -25.5 -91s-40.5 -31 -70.5 -31c-38.667 0 -65.334 19.333 -80.001 58c-8 -17.333 -19 -31.333 -33 -42s-30.333 -16 -49 -16c-57.333 0 -86 38.667 -86 116c0 22.667 2.16699 41.667 6.5 57s10.333 27.666 18 36.999s16.667 16.166 27 20.499
s21.5 6.5 33.5 6.5c15.333 0 28.333 -2.66699 39 -8s20.667 -11.666 30 -18.999v63c0 14 -0.5 27 -1.5 39s-3.33301 22.5 -7 31.5s-8.5 16.167 -14.5 21.5s-14 8 -24 8c-34 0 -51 -28.333 -51 -85v-9h-54v8c0 15.333 1.66699 31.166 5 47.499s9 31.166 17 44.499
s18.833 24.166 32.5 32.499s30.834 12.5 51.501 12.5c34 0 59.5 -13 76.5 -39s25.5 -63.333 25.5 -112v-168c0 -18 3.16699 -32.167 9.5 -42.5s16.5 -15.5 30.5 -15.5c14.667 0 25.334 5.5 32.001 16.5s10 25.833 10 44.5v228c0 24.667 -3.16699 49 -9.5 73
s-16.666 45.5 -30.999 64.5s-33 34.333 -56 46s-51.5 17.5 -85.5 17.5c-33.333 0 -61.666 -5.66699 -84.999 -17s-42.333 -26.166 -57 -44.499s-25.334 -39.5 -32.001 -63.5s-10 -48.667 -10 -74v-277c0 -60 14.333 -104.5 43 -133.5s73.334 -43.5 134.001 -43.5h13v-48z
" />
    <glyph glyph-name="A" unicode="A" horiz-adv-x="339" 
d="M20 0l114 665h72l113 -665h-62l-26 164h-126l-26 -164h-59zM112 218h112l-55 354h-3z" />
    <glyph glyph-name="B" unicode="B" horiz-adv-x="338" 
d="M298 161c0 -52 -10.1689 -91.832 -30.502 -119.499s-51.166 -41.5 -92.499 -41.5h-122v665h109c40 0 71 -12.167 93 -36.5s33 -62.5 33 -114.5v-27c0 -34 -4.66699 -60.167 -14 -78.5s-21.666 -32.833 -36.999 -43.5c23.333 -11.333 39.333 -29.833 48 -55.5
s13 -53.834 13 -84.501v-64zM237.998 233.001c0 11.333 -0.998047 22.832 -2.99805 34.499s-5.33301 22.334 -10 32.001s-10.834 17.5 -18.501 23.5s-16.834 9 -27.501 9h-66v-277h62c12 0 22 2.83301 30 8.5s14.5 13.167 19.5 22.5s8.5 19.833 10.5 31.5s3 23.5 3 35.5v80z
M228 523c0 25.333 -5.33203 46 -15.999 62s-27.334 24 -50.001 24h-49v-224h50c22 0 38.333 8.5 49 25.5s16 38.167 16 63.5v49z" />
    <glyph glyph-name="C" unicode="C" horiz-adv-x="318" 
d="M229 496v26c0 12 -1 23.833 -3 35.5s-5.5 22.167 -10.5 31.5s-11.5 16.833 -19.5 22.5s-17.667 8.5 -29 8.5s-21 -3 -29 -9s-14.5 -13.667 -19.5 -23s-8.5 -19.833 -10.5 -31.5s-3 -23.167 -3 -34.5v-379c0 -11.333 1 -22.833 3 -34.5s5.5 -22.167 10.5 -31.5
s11.5 -17 19.5 -23s17.667 -9 29 -9s21 2.83301 29 8.5s14.5 13.167 19.5 22.5s8.5 19.833 10.5 31.5s3 23.5 3 35.5v26h60v-9c0 -113.333 -40.667 -170 -122 -170c-41.333 0 -72 13.833 -92 41.5s-30 67.5 -30 119.5v363c0 52 10 91.833 30 119.5s50.667 41.5 92 41.5
c81.333 0 122 -55.667 122 -167v-12h-60z" />
    <glyph glyph-name="D" unicode="D" horiz-adv-x="345" 
d="M300 161c0 -52 -10.167 -91.833 -30.5 -119.5s-51.166 -41.5 -92.499 -41.5h-124v665h124c41.333 0 72.166 -13.833 92.499 -41.5s30.5 -67.5 30.5 -119.5v-343zM240 514c0 12 -1.16602 23.666 -3.49902 34.999s-6 21.5 -11 30.5s-11.5 16.167 -19.5 21.5s-18 8 -30 8
h-63v-554h63c11.333 0 21.166 2.83301 29.499 8.5s15 13 20 22s8.66699 19.333 11 31s3.5 23.834 3.5 36.501v361z" />
    <glyph glyph-name="E" unicode="E" horiz-adv-x="288" 
d="M265 609h-152v-224h127v-55h-127v-275h152v-55h-212v665h212v-56z" />
    <glyph glyph-name="F" unicode="F" horiz-adv-x="285" 
d="M53 0v665h212v-56h-152v-224h127v-55h-127v-330h-60z" />
    <glyph glyph-name="G" unicode="G" horiz-adv-x="332" 
d="M175 321v54.999h116v-225c0 -52 -10.333 -91.833 -31 -119.5s-51.667 -41.5 -93 -41.5c-40.667 0 -71.334 13.833 -92.001 41.5s-31 67.5 -31 119.5v363c0 52 10.333 91.833 31 119.5s51.334 41.5 92.001 41.5c42 0 73.167 -13.5 93.5 -40.5s30.5 -69.167 30.5 -126.5
v-11h-60v25c0 12.667 -1.16699 24.834 -3.5 36.501s-6 22 -11 31s-11.5 16.333 -19.5 22s-18 8.5 -30 8.5c-11.333 0 -21 -2.66699 -29 -8s-14.5 -12.5 -19.5 -21.5s-8.66699 -19.5 -11 -31.5s-3.5 -24.333 -3.5 -37v-378c0 -12 1 -23.833 3 -35.5s5.5 -22.167 10.5 -31.5
s11.5 -17 19.5 -23s18 -9 30 -9s22 2.83301 30 8.5s14.5 13 19.5 22s8.66699 19.5 11 31.5s3.5 24.333 3.5 37v177h-56z" />
    <glyph glyph-name="H" unicode="H" horiz-adv-x="361" 
d="M248 0v328h-135v-328h-60v665h60v-282h135v282h60v-665h-60z" />
    <glyph glyph-name="I" unicode="I" horiz-adv-x="166" 
d="M53 0v665h60v-665h-60z" />
    <glyph glyph-name="J" unicode="J" horiz-adv-x="210" 
d="M23 44c14.667 0.666992 26.833 3.99902 36.5 9.99902s17.5 13.667 23.5 23s10.167 19.833 12.5 31.5s3.5 23.167 3.5 34.5v522h60v-514c0 -50 -11.333 -88.667 -34 -116s-56.667 -42.666 -102 -45.999v55z" />
    <glyph glyph-name="K" unicode="K" horiz-adv-x="340" 
d="M199 381l130 -381h-63l-107 321l-46 -94v-227h-60v665h60v-343l147 343h63z" />
    <glyph glyph-name="L" unicode="L" horiz-adv-x="288" 
d="M113 665v-610h160v-55h-220v665h60z" />
    <glyph glyph-name="M" unicode="M" horiz-adv-x="452" 
d="M53 0v665h73l101 -489h3l100 489h69v-665h-53v541h-3l-99 -476h-34l-101 476h-3v-541h-53z" />
    <glyph glyph-name="N" unicode="N" horiz-adv-x="369" 
d="M316 0h-70l-140 550h-3v-550h-50v665h69l140 -560h3v560h51v-665z" />
    <glyph glyph-name="O" unicode="O" 
d="M287 151c0 -52 -10 -91.833 -30 -119.5s-50.667 -41.5 -92 -41.5s-71.833 13.833 -91.5 41.5s-29.5 67.5 -29.5 119.5v363c0 52 10 91.833 30 119.5s50.333 41.5 91 41.5c41.333 0 72 -13.833 92 -41.5s30 -67.5 30 -119.5v-363zM227 522c0 12 -1 23.8311 -3 35.498
s-5.5 22.167 -10.5 31.5s-11.333 16.833 -19 22.5s-17.5 8.5 -29.5 8.5s-21.833 -2.83301 -29.5 -8.5s-13.834 -13.167 -18.501 -22.5s-8 -19.833 -10 -31.5s-3 -23.5 -3 -35.5v-378c0 -12 1 -23.833 3 -35.5s5.33301 -22.167 10 -31.5s10.834 -17 18.501 -23
s17.5 -9 29.5 -9s21.833 2.83301 29.5 8.5s14 13.334 19 23.001s8.5 20.334 10.5 32.001s3 23.5 3 35.5v378z" />
    <glyph glyph-name="P" unicode="P" horiz-adv-x="334" 
d="M294 437c0 -52.667 -10.167 -92.667 -30.5 -120s-51.166 -41 -92.499 -41h-58v-276h-60v665h118c41.333 0 72.166 -13.833 92.499 -41.5s30.5 -67.5 30.5 -119.5v-67zM234 512c0 12.667 -1.16797 24.833 -3.50098 36.5s-6.16602 22 -11.499 31s-12 16.167 -20 21.5
s-18 8 -30 8h-56v-278h56c24 0 40.833 10 50.5 30s14.5 43 14.5 69v82z" />
    <glyph glyph-name="Q" unicode="Q" 
d="M287 151c0 -91.333 -30.6689 -143.002 -92.002 -155.002c3.33301 -25.333 12.333 -45.166 27 -59.499s36.334 -21.5 65.001 -21.5v-55c-25.333 0 -47.166 3.16699 -65.499 9.5s-33.666 15.333 -45.999 27s-21.833 25.834 -28.5 42.501s-11 35.334 -13 56.001
c-30.667 6 -53.334 22.167 -68.001 48.5s-22 62.166 -22 107.499v363c0 52 9.83301 91.833 29.5 119.5s50.167 41.5 91.5 41.5s72 -13.833 92 -41.5s30 -67.5 30 -119.5v-363zM226.998 521.998c0 12 -1 23.8311 -3 35.498s-5.33301 22.167 -10 31.5s-11 16.833 -19 22.5
s-18 8.5 -30 8.5s-21.833 -2.83301 -29.5 -8.5s-13.834 -13.167 -18.501 -22.5s-8 -19.833 -10 -31.5s-3 -23.5 -3 -35.5v-378c0 -12 1 -23.833 3 -35.5s5.33301 -22.167 10 -31.5s10.834 -17 18.501 -23s17.5 -9 29.5 -9s21.833 2.83301 29.5 8.5s14 13.334 19 23.001
s8.5 20.334 10.5 32.001s3 23.5 3 35.5v378z" />
    <glyph glyph-name="R" unicode="R" horiz-adv-x="343" 
d="M298 480c0 -36.667 -5.99902 -67.668 -17.999 -93.001s-28.667 -43.666 -50 -54.999l92 -332h-64l-79 315h-66v-315h-60v665h122c41.333 0 72.166 -13.833 92.499 -41.5s30.5 -67.5 30.5 -119.5v-24zM238.001 511.999c0 12.667 -1.16895 24.833 -3.50195 36.5
s-6.16602 22 -11.499 31s-12.166 16.167 -20.499 21.5s-18.5 8 -30.5 8h-59v-239h58c24.667 0 42 9.5 52 28.5s15 42.5 15 70.5v43z" />
    <glyph glyph-name="S" unicode="S" horiz-adv-x="302" 
d="M32 529c0 17.333 2.33203 34.667 6.99902 52s11.667 33 21 47s21.5 25.333 36.5 34s33.167 13 54.5 13c38 0 67.333 -12.5 88 -37.5s31 -64.833 31 -119.5v-21h-60v25c0 12 -0.833008 23.833 -2.5 35.5s-4.83398 22.167 -9.50098 31.5s-10.667 16.833 -18 22.5
s-17 8.5 -29 8.5c-18.667 0 -33 -8.5 -43 -25.5s-15 -37.5 -15 -61.5v-32c0 -22.667 4.83301 -42.834 14.5 -60.501s26.5 -36.167 50.5 -55.5c14.667 -12 28.834 -24.667 42.501 -38s25.667 -27.666 36 -42.999s18.5 -32.166 24.5 -50.499s9 -38.833 9 -61.5v-56
c0 -18 -2.33301 -35.667 -7 -53s-11.667 -32.833 -21 -46.5s-21.666 -24.834 -36.999 -33.501s-33.333 -13 -54 -13c-40.667 0 -70.667 13.833 -90 41.5s-29 66.5 -29 116.5v20h61v-25c0 -12 0.833008 -23.833 2.5 -35.5s4.66699 -22.167 9 -31.5
s10.166 -16.833 17.499 -22.5s17 -8.5 29 -8.5c19.333 0 34 8.5 44 25.5s15 37.5 15 61.5v47c0 31.333 -7.16699 58.833 -21.5 82.5s-34.166 46.167 -59.499 67.5c-14.667 12 -28 23.667 -40 35s-22.167 23.333 -30.5 36s-14.833 26.5 -19.5 41.5s-7 31.833 -7 50.5v37z" />
    <glyph glyph-name="T" unicode="T" horiz-adv-x="307" 
d="M122 0v609h-106v56h275v-56h-109v-609h-60z" />
    <glyph glyph-name="U" unicode="U" horiz-adv-x="347" 
d="M296 665l-0.000976562 -515.002c0 -52 -10.167 -91.667 -30.5 -119s-51.166 -41 -92.499 -41c-40.667 0 -71.167 13.667 -91.5 41s-30.5 67 -30.5 119v515h60v-523c0 -11.333 1 -22.666 3 -33.999s5.5 -21.666 10.5 -30.999s11.5 -17 19.5 -23s17.667 -9 29 -9
c12 0 22 2.83301 30 8.5s14.5 13.167 19.5 22.5s8.5 19.833 10.5 31.5s3 23.167 3 34.5v523h60z" />
    <glyph glyph-name="V" unicode="V" horiz-adv-x="322" 
d="M200 0h-77l-101 665h60l78 -572h2l78 572h60z" />
    <glyph glyph-name="W" unicode="W" horiz-adv-x="473" 
d="M256 665l77 -557h3l55 557h60l-81 -665h-62l-74 502h-3l-74 -502h-59l-76 665h60l50 -557h3l77 557h44z" />
    <glyph glyph-name="X" unicode="X" horiz-adv-x="321" 
d="M302 0h-62l-81 276h-3l-75 -276h-62l105 335l-104 330h61l80 -277h3l75 277h61l-106 -329z" />
    <glyph glyph-name="Y" unicode="Y" horiz-adv-x="332" 
d="M196 215v-215h-60v216l-114 449h62l80 -364h3l81 364h62z" />
    <glyph glyph-name="Z" unicode="Z" horiz-adv-x="281" 
d="M29 609v56h228v-66l-177 -544h172v-55h-228v66l177 543h-172z" />
    <glyph glyph-name="bracketleft" unicode="[" horiz-adv-x="238" 
d="M65 783h142v-56h-82v-776h82v-56h-142v888z" />
    <glyph glyph-name="backslash" unicode="\" horiz-adv-x="270" 
d="M6 710h54l204 -799h-55z" />
    <glyph glyph-name="bracketright" unicode="]" horiz-adv-x="238" 
d="M173 -105h-142v56h82v776h-82v56h142v-888z" />
    <glyph glyph-name="asciicircum" unicode="^" horiz-adv-x="318" 
d="M186 448l106 -238h-63l-70 171l-70 -171h-63l106 238h54z" />
    <glyph glyph-name="underscore" unicode="_" horiz-adv-x="314" 
d="M25 -22h264v-60h-264v60z" />
    <glyph glyph-name="grave" unicode="`" horiz-adv-x="350" 
d="M181 683l44 -135h-49l-58 135h63z" />
    <glyph glyph-name="a" unicode="a" horiz-adv-x="320" 
d="M43 367l0.000976562 13.999c0 18.667 2 36.334 6 53.001s10.333 31.167 19 43.5s20 22.166 34 29.499s31 11 51 11c40 0 68.833 -13.333 86.5 -40s26.5 -66.334 26.5 -119.001v-274c0 -15.333 2.5 -25.5 7.5 -30.5s12.167 -8.16699 21.5 -9.5v-55
c-26 0.666992 -44.667 6.33398 -56 17.001s-19.333 26.334 -24 47.001c-8 -20 -19 -35.667 -33 -47s-31.333 -17 -52 -17c-28.667 0 -51 11.167 -67 33.5s-24 55.5 -24 99.5v43c0 18 1.83301 34.833 5.5 50.5s9.5 29.5 17.5 41.5s18.167 21.333 30.5 28s27.166 10 44.499 10
c24.667 0 47.667 -7 69 -21v95c0 12 -0.833008 23.833 -2.5 35.5s-4.5 22 -8.5 31s-9.5 16.333 -16.5 22s-15.833 8.5 -26.5 8.5c-18.667 0 -32.167 -7.83301 -40.5 -23.5s-12.5 -36.167 -12.5 -61.5v-15h-56zM206.001 236.999c-7.33301 4 -14.5 7.33398 -21.5 10.001
s-16.167 4 -27.5 4c-22.667 0 -38 -7.83301 -46 -23.5s-12 -40.5 -12 -74.5v-18c0 -31.333 3.33301 -54.833 10 -70.5s20.667 -23.5 42 -23.5c12 0 22.833 4.66699 32.5 14s17.167 20.666 22.5 33.999v148z" />
    <glyph glyph-name="b" unicode="b" horiz-adv-x="324" 
d="M113 75c3.33301 -8 9.50098 -15.665 18.501 -22.998s20.167 -11 33.5 -11c19.333 0 33.333 9 42 27s13 41.667 13 71v235c0 12 -0.833008 23.667 -2.5 35s-4.5 21.166 -8.5 29.499s-9.5 15.166 -16.5 20.499s-15.833 8 -26.5 8c-13.333 0 -24.333 -5 -33 -15
s-15.334 -21.333 -20.001 -34v-343zM95.001 0.00195312h-42v710h54l6 -65v-186c6 17.333 15.5 31.5 28.5 42.5s28.5 16.5 46.5 16.5c30 0 52.833 -12.333 68.5 -37s23.5 -63 23.5 -115v-216c0 -52 -8.5 -91.667 -25.5 -119s-42.833 -41 -77.5 -41
c-19.333 0 -35 4.5 -47 13.5s-21 19.833 -27 32.5z" />
    <glyph glyph-name="c" unicode="c" horiz-adv-x="305" 
d="M212 336v34c0 26.667 -3.66699 49.5 -11 68.5s-22 28.5 -44 28.5c-11.333 0 -20.333 -2.83301 -27 -8.5s-12 -13 -16 -22s-6.66699 -19.333 -8 -31s-2 -23.5 -2 -35.5v-232c0 -12 0.666992 -23.833 2 -35.5s4 -22 8 -31s9.33301 -16.333 16 -22s15.667 -8.5 27 -8.5
c22 0 36.667 9.5 44 28.5s11 41.833 11 68.5v34h56v-27c0 -50 -8.5 -88.333 -25.5 -115s-45.5 -40 -85.5 -40c-40.667 0 -69.667 13.667 -87 41s-26 67 -26 119v208c0 52 8.66699 91.667 26 119s46.333 41 87 41c40 0 68.5 -13.333 85.5 -40s25.5 -65 25.5 -115v-27h-56z
" />
    <glyph glyph-name="d" unicode="d" horiz-adv-x="326" 
d="M211 432c-3.33301 8 -9.5 15.833 -18.5 23.5s-20.167 11.5 -33.5 11.5c-21.333 0 -35.833 -9.16699 -43.5 -27.5s-11.5 -41.5 -11.5 -69.5v-235c0 -26 3.5 -48.167 10.5 -66.5s21.167 -27.5 42.5 -27.5c12.667 0 23.5 4.83301 32.5 14.5s16.167 21.167 21.5 34.5v342z
M271 85c0 -15.333 2.16699 -25.832 6.5 -31.499s12.166 -8.5 23.499 -8.5v-55c-26.667 0 -45.667 5.16699 -57 15.5s-19.333 26.166 -24 47.499c-7.33301 -18 -17.666 -33 -30.999 -45s-30 -18 -50 -18c-30 0 -53.333 12.5 -70 37.5s-25 62.5 -25 112.5v226
c0 101.333 32 152 96 152c18 0 33 -4.33301 45 -13s20.667 -18.667 26 -30v235h55l5 -65v-560z" />
    <glyph glyph-name="e" unicode="e" horiz-adv-x="312" 
d="M104 294l107 -0.000976562v76c0 12.667 -0.833008 24.834 -2.5 36.501s-4.5 22 -8.5 31s-9.5 16.167 -16.5 21.5s-15.833 8 -26.5 8c-11.333 0 -20.333 -2.83301 -27 -8.5s-12 -13 -16 -22s-6.66699 -19.333 -8 -31s-2 -23.5 -2 -35.5v-76zM212 154.999h58.999v-12
c0 -50 -9 -88 -27 -114s-47 -39 -87 -39c-42 0 -71.333 13.667 -88 41s-25 67 -25 119v208c0 52 8.66699 91.667 26 119s46.333 41 87 41s69.834 -13.667 87.501 -41s26.5 -67 26.5 -119v-113h-167v-107c0 -12 0.666992 -23.833 2 -35.5s4 -22 8 -31s9.33301 -16.333 16 -22
s15.667 -8.5 27 -8.5c22 0 36.667 9.5 44 28.5s11 41.833 11 68.5v17z" />
    <glyph glyph-name="f" unicode="f" horiz-adv-x="222" 
d="M114 457l0.000976562 -457.001h-61v543c0 54.667 9.16699 96.167 27.5 124.5s47.166 42.5 86.499 42.5c23.333 0 42.333 -4.33301 57 -13s26.667 -19.667 36 -33l-38 -35c-5.33301 8.66699 -11.833 15.834 -19.5 21.501s-17.167 8.5 -28.5 8.5c-12 0 -22 -3 -30 -9
s-14.167 -13.833 -18.5 -23.5s-7.33301 -20.667 -9 -33s-2.5 -24.5 -2.5 -36.5v-49h100v-51h-100z" />
    <glyph glyph-name="g" unicode="g" horiz-adv-x="321" 
d="M211 432c-3.33301 8.66699 -9.5 16.668 -18.5 24.001s-20.167 11 -33.5 11c-21.333 0 -35.833 -9.16699 -43.5 -27.5s-11.5 -41.5 -11.5 -69.5v-232c0 -12.667 0.666992 -24.834 2 -36.501s4 -22 8 -31s9.33301 -16.167 16 -21.5s15.667 -8 27 -8
c13.333 0 24.333 4.83301 33 14.5s15.667 21.167 21 34.5v342zM104 -77.999l0.000976562 -8.99902c0 -22 4.66699 -39.5 14 -52.5s22.333 -19.5 39 -19.5c22.667 0 37.334 9.33301 44.001 28s10 41.667 10 69v110c-7.33301 -17.333 -17 -31.333 -29 -42s-27.667 -16 -47 -16
c-31.333 0 -54.333 12.5 -69 37.5s-22 65.833 -22 122.5v208c0 52 8.16699 91.667 24.5 119s42.166 41 77.499 41c22 0 38.833 -4.83301 50.5 -14.5s21.167 -20.834 28.5 -33.501l7 38h39v-557c0 -52 -9 -91.833 -27 -119.5s-47 -41.5 -87 -41.5
c-34.667 0 -61.834 10.167 -81.501 30.5s-29.5 50.833 -29.5 91.5v10h58z" />
    <glyph glyph-name="h" unicode="h" horiz-adv-x="329" 
d="M113 459c7.33301 14.667 17.002 28.166 29.002 40.499s28.667 18.5 50 18.5c31.333 0 53.666 -13 66.999 -39s20 -65 20 -117v-362h-55l-5 64v306c0 28 -3.33301 51.167 -10 69.5s-20.334 27.5 -41.001 27.5c-14 0 -25.5 -5.16699 -34.5 -15.5
s-15.833 -22.166 -20.5 -35.499v-416h-60v710h54l6 -65v-186z" />
    <glyph glyph-name="i" unicode="i" horiz-adv-x="165" 
d="M53 508h53l7 -65v-443h-60v508zM83 651c11.333 0 20.5 -3.33301 27.5 -10s10.5 -16 10.5 -28s-3.5 -21.333 -10.5 -28s-16.167 -10 -27.5 -10s-20.5 3.33301 -27.5 10s-10.5 16 -10.5 28s3.5 21.333 10.5 28s16.167 10 27.5 10z" />
    <glyph glyph-name="j" unicode="j" horiz-adv-x="166" 
d="M106 508l7 -65v-483c0 -60.667 -9.33301 -104.167 -28 -130.5s-48.334 -39.5 -89.001 -39.5v55c12.667 0 22.834 2.83301 30.501 8.5s13.5 13.167 17.5 22.5s6.5 20.5 7.5 33.5s1.5 26.833 1.5 41.5v557h53zM83 651c11.333 0 20.5 -3.33301 27.5 -10s10.5 -16 10.5 -28
s-3.5 -21.333 -10.5 -28s-16.167 -10 -27.5 -10s-20.5 3.33301 -27.5 10s-10.5 16 -10.5 28s3.5 21.333 10.5 28s16.167 10 27.5 10z" />
    <glyph glyph-name="k" unicode="k" horiz-adv-x="313" 
d="M198 325l100 -325h-61l-80 270l-44 -77v-193h-60v710h54l6 -64v-384l124 246h60z" />
    <glyph glyph-name="l" unicode="l" horiz-adv-x="165" 
d="M113 645v-645h-55l-5 65v645h54z" />
    <glyph glyph-name="m" unicode="m" horiz-adv-x="491" 
d="M277 0h-60v370c0 27.333 -3 50.333 -9 69s-19.333 28 -40 28c-14 0 -25.5 -5.16699 -34.5 -15.5s-15.833 -22.166 -20.5 -35.499v-416h-60v508h52l5 -50c6.66699 17.333 16.667 31.666 30 42.999s30 17 50 17c20.667 0 37.667 -5.66699 51 -17
s22.666 -27.666 27.999 -48.999c6.66699 17.333 17 32.666 31 45.999s31.667 20 53 20c30.667 0 53 -13 67 -39s21 -65 21 -117v-362h-55l-5 65v305c0 27.333 -3 50.333 -9 69s-19.333 28 -40 28c-14.667 0 -26.167 -5.33301 -34.5 -16s-15.166 -21.667 -20.499 -33v-418z
" />
    <glyph glyph-name="n" unicode="n" horiz-adv-x="329" 
d="M110 458c6 17.333 16.1689 31.666 30.502 42.999s31.5 17 51.5 17c31.333 0 53.666 -13 66.999 -39s20 -65 20 -117v-362h-54l-6 65v305c0 28 -3.33301 51.167 -10 69.5s-20.334 27.5 -41.001 27.5c-14 0 -25.5 -5.16699 -34.5 -15.5s-15.833 -22.166 -20.5 -35.499v-416
h-60v508h52z" />
    <glyph glyph-name="o" unicode="o" horiz-adv-x="315" 
d="M271 149c0 -52 -8.83301 -91.5 -26.5 -118.5s-46.834 -40.5 -87.501 -40.5s-69.667 13.5 -87 40.5s-26 66.5 -26 118.5v210c0 52 8.66699 91.5 26 118.5s46.333 40.5 87 40.5s69.834 -13.5 87.501 -40.5s26.5 -66.5 26.5 -118.5v-210zM211 370
c0 12.667 -0.833008 24.832 -2.5 36.499s-4.5 22 -8.5 31s-9.5 16.167 -16.5 21.5s-15.833 8 -26.5 8c-11.333 0 -20.333 -2.83301 -27 -8.5s-12 -13 -16 -22s-6.66699 -19.333 -8 -31s-2 -23.5 -2 -35.5v-232c0 -12 0.666992 -23.833 2 -35.5s4 -22 8 -31
s9.33301 -16.333 16 -22s15.667 -8.5 27 -8.5c10.667 0 19.5 2.66699 26.5 8s12.5 12.5 16.5 21.5s6.83301 19.333 8.5 31s2.5 23.834 2.5 36.501v232z" />
    <glyph glyph-name="p" unicode="p" horiz-adv-x="323" 
d="M52 508l51.001 0.00195312l6 -50c6 17.333 16.167 31.666 30.5 42.999s31.166 17 50.499 17c59.333 0 89 -52 89 -156v-212c0 -52 -7.83301 -91.667 -23.5 -119s-40.167 -41 -73.5 -41c-16 0 -29.833 3.66699 -41.5 11s-21.167 15.666 -28.5 24.999v-171l-7 -65h-53v718z
M112.001 72.002c3.33301 -7.33301 9.66895 -14.335 19.002 -21.002s20.333 -10 33 -10c20.667 0 35 9.16699 43 27.5s12 41.5 12 69.5v232c0 12.667 -0.666992 24.834 -2 36.501s-3.83301 22 -7.5 31s-8.83398 16.167 -15.501 21.5s-15.334 8 -26.001 8
c-14 0 -25.667 -5.16699 -35 -15.5s-16.333 -22.166 -21 -35.499v-344z" />
    <glyph glyph-name="q" unicode="q" horiz-adv-x="323" 
d="M211 428c-3.33301 8 -9.5 16.001 -18.5 24.001s-20.167 12 -33.5 12c-21.333 0 -35.833 -9.5 -43.5 -28.5s-11.5 -42.5 -11.5 -70.5v-227c0 -12.667 0.666992 -24.834 2 -36.501s3.83301 -22 7.5 -31s9 -16.167 16 -21.5s16.167 -8 27.5 -8
c13.333 0 24.333 4.83301 33 14.5s15.667 21.167 21 34.5v338zM211 38.001c-7.33301 -13.333 -17 -24.667 -29 -34s-27 -14 -45 -14c-32 0 -55.5 13.667 -70.5 41s-22.5 67 -22.5 119v208c0 52 7.83301 91.667 23.5 119s40.5 41 74.5 41
c19.333 0 34.833 -4.83301 46.5 -14.5s21.167 -21.167 28.5 -34.5l6 39h48v-718h-55l-5 65v183z" />
    <glyph glyph-name="r" unicode="r" horiz-adv-x="231" 
d="M53 508l52.001 0.000976562l5 -50c6.66699 15.333 16.5 29.166 29.5 41.499s28.167 18.5 45.5 18.5c9.33301 0 17 -1 23 -3s12 -5.33301 18 -10l-18 -55c-4.66699 4 -9.33398 6.66699 -14.001 8s-10 2 -16 2c-14.667 0 -27.5 -5 -38.5 -15s-19.833 -21.667 -26.5 -35
v-410h-60v508z" />
    <glyph glyph-name="s" unicode="s" horiz-adv-x="284" 
d="M90 153l0.00195312 -10c0 -13.333 0.666992 -26 2 -38s3.83301 -22.833 7.5 -32.5s8.83398 -17.334 15.501 -23.001s15.667 -8.5 27 -8.5c16.667 0 29.667 7.83301 39 23.5s14 35.5 14 59.5c0 25.333 -5.16699 47.666 -15.5 66.999s-30.5 39 -60.5 59
c-28 19.333 -49.667 39.833 -65 61.5s-23 50.167 -23 85.5c0 14.667 2.16699 29.334 6.5 44.001s11 27.667 20 39s20.333 20.5 34 27.5s30.167 10.5 49.5 10.5c37.333 0 65.166 -13 83.499 -39s27.5 -63.333 27.5 -112v-9h-59v13c0 12 -0.666992 23.667 -2 35
s-4 21.5 -8 30.5s-9.33301 16.333 -16 22s-15.334 8.5 -26.001 8.5c-19.333 0 -32.666 -7 -39.999 -21s-11 -29.333 -11 -46c0 -23.333 5.66699 -43.166 17 -59.499s31 -33.5 59 -51.5c31.333 -20 53.666 -42.833 66.999 -68.5s20 -55.5 20 -89.5c0 -16 -2 -32.5 -6 -49.5
s-10.333 -32.167 -19 -45.5s-19.834 -24.333 -33.501 -33s-30.167 -13 -49.5 -13c-39.333 0 -68 13.167 -86 39.5s-27 64.5 -27 114.5v9h58z" />
    <glyph glyph-name="t" unicode="t" horiz-adv-x="231" 
d="M220 5c-8.66699 -4.66699 -17.499 -8.33496 -26.499 -11.002s-19.167 -4 -30.5 -4c-40 0 -68.667 13.5 -86 40.5s-26 66.833 -26 119.5v458h54l6 -63v-37h96v-51h-96v-314c0 -11.333 0.666992 -22.666 2 -33.999s4.16602 -21.833 8.49902 -31.5s10.333 -17.5 18 -23.5
s17.5 -9 29.5 -9c6.66699 0 13 0.833008 19 2.5s11.667 3.83398 17 6.50098z" />
    <glyph glyph-name="u" unicode="u" horiz-adv-x="329" 
d="M49 508l59.999 0.000976562v-370c0 -27.333 3.33301 -50.333 10 -69s20.667 -28 42 -28c13.333 0 24.333 4.66699 33 14s15.667 20.666 21 33.999v419h60v-421c0 -12 2 -22 6 -30s11.667 -12 23 -12v-55c-26 0 -44.5 5.33301 -55.5 16s-19.167 26.667 -24.5 48
c-8 -19.333 -18.667 -34.833 -32 -46.5s-30.666 -17.5 -51.999 -17.5c-28.667 0 -51 12.167 -67 36.5s-24 61.5 -24 111.5v370z" />
    <glyph glyph-name="v" unicode="v" horiz-adv-x="295" 
d="M180 0h-66l-91 508h60l63 -442h2l64 442h60z" />
    <glyph glyph-name="w" unicode="w" horiz-adv-x="460" 
d="M205 508h51l64 -404h3l55 404h60l-79 -508h-60l-67 394h-4l-67 -394h-60l-78 508h60l53 -404h3z" />
    <glyph glyph-name="x" unicode="x" horiz-adv-x="278" 
d="M79 508l60 -195h3l57 195h60l-88 -253l87 -255h-60l-62 197h-2l-54 -197h-60l84 266l-85 242h60z" />
    <glyph glyph-name="y" unicode="y" horiz-adv-x="288" 
d="M27 508h59.999l58 -410h3l60 410h60l-105 -566c-8.66699 -45.333 -24.167 -81.833 -46.5 -109.5s-54.166 -41.5 -95.499 -41.5v54c18.667 0 36.667 8 54 24s29.333 42.333 36 79l6 40z" />
    <glyph glyph-name="z" unicode="z" horiz-adv-x="239" 
d="M28 453v55h188v-64l-139 -389h134v-55h-188v61l140 392h-135z" />
    <glyph glyph-name="braceleft" unicode="{" horiz-adv-x="277" 
d="M96 262c0 20 -3.5 33.332 -10.5 39.999s-20.5 10 -40.5 10h-13v56h13c20 0 33.5 3.33301 40.5 10s10.5 20 10.5 40v190c0 54 11.333 96.667 34 128s59 47 109 47h18v-56h-18c-28.667 0 -49.667 -9.66699 -63 -29s-20 -51 -20 -95v-197c0 -18 -4.16699 -33 -12.5 -45
s-20.166 -18 -35.499 -18h-9v-6h9c15.333 0 27.166 -6.16699 35.499 -18.5s12.5 -27.166 12.5 -44.499v-203c0 -44 6.66699 -75 20 -93s34.333 -27 63 -27h18v-56h-18c-48 0 -83.833 14.333 -107.5 43s-35.5 70 -35.5 124v200z" />
    <glyph glyph-name="bar" unicode="|" horiz-adv-x="236" 
d="M88 -105v888h60v-888h-60z" />
    <glyph glyph-name="braceright" unicode="}" horiz-adv-x="277" 
d="M181 418c0 -20 3.5 -33.332 10.5 -39.999s20.5 -10 40.5 -10h13v-56h-13c-20 0 -33.5 -3.33301 -40.5 -10s-10.5 -20 -10.5 -40v-200c0 -54 -11.833 -95.333 -35.5 -124s-59.5 -43 -107.5 -43h-18v56h18c28.667 0 49.667 9 63 27s20 49 20 93v203
c0 18 4.16699 33 12.5 45s20.166 18 35.499 18h9v6h-9c-15.333 0 -27.166 6.16699 -35.499 18.5s-12.5 27.166 -12.5 44.499v197c0 44 -6.66699 75.667 -20 95s-34.333 29 -63 29h-18v56h18c50 0 86.333 -15.667 109 -47s34 -74 34 -128v-190z" />
    <glyph glyph-name="asciitilde" unicode="~" horiz-adv-x="318" 
d="M291 365c0 -41.333 -6.5 -70.332 -19.5 -86.999s-29.833 -25 -50.5 -25c-12 0 -22.5 2.16699 -31.5 6.5s-17.5 9.83301 -25.5 16.5l-26 20.5c-8 6.33301 -17.333 9.5 -28 9.5c-20.667 0 -31 -17.667 -31 -53h-52c0 40.667 7.33301 69.5 22 86.5s31.334 25.5 50.001 25.5
c11.333 0 21.166 -2.16699 29.499 -6.5s16.833 -9.83301 25.5 -16.5l25.5 -20.5c9 -7 18.833 -10.5 29.5 -10.5c10 0 17.5 4.16699 22.5 12.5s7.5 22.166 7.5 41.499h52z" />
    <glyph glyph-name="uni00A0" unicode="&#xa0;" horiz-adv-x="140" 
 />
    <glyph glyph-name="exclamdown" unicode="&#xa1;" horiz-adv-x="228" 
d="M83 -160v518h54l7 -68v-450h-61zM155 477c0 -12 -4 -21.833 -12 -29.5s-17.667 -11.5 -29 -11.5c-12 0 -21.833 3.83301 -29.5 11.5s-11.5 17.5 -11.5 29.5s3.83301 21.833 11.5 29.5s17.5 11.5 29.5 11.5c11.333 0 21 -3.83301 29 -11.5s12 -17.5 12 -29.5z" />
    <glyph glyph-name="cent" unicode="&#xa2;" horiz-adv-x="301" 
d="M124 -68l-0.000976562 63.001c-30 6.66699 -51.167 23 -63.5 49s-18.5 61.333 -18.5 106v208c0 44 6.16699 79.167 18.5 105.5s33.5 42.5 63.5 48.5v64h60v-63c29.333 -5.33301 50.333 -20.833 63 -46.5s19 -60.167 19 -103.5v-27h-56v14c0 16.667 -0.666992 32 -2 46
s-4 26.333 -8 37s-9.66699 19 -17 25s-16.666 9 -27.999 9s-20.333 -2.83301 -27 -8.5s-12 -13 -16 -22s-6.66699 -19.333 -8 -31s-2 -23.5 -2 -35.5v-232c0 -12 0.666992 -23.833 2 -35.5s3.83301 -22 7.5 -31s9 -16.333 16 -22s16.167 -8.5 27.5 -8.5
c12 0 21.5 3.16699 28.5 9.5s12.5 14.666 16.5 24.999s6.66699 22.666 8 36.999s2 29.5 2 45.5v14h56v-27c0 -44 -6.33301 -78.667 -19 -104s-33.667 -40.666 -63 -45.999v-63h-60z" />
    <glyph glyph-name="sterling" unicode="&#xa3;" horiz-adv-x="355" 
d="M36 297l40 -0.000976562v217c0 52 10 91.833 30 119.5s50.667 41.5 92 41.5c81.333 0 122 -55.667 122 -167v-12h-60v28c0 12 -1 23.667 -3 35s-5.5 21.5 -10.5 30.5s-11.5 16.333 -19.5 22s-17.667 8.5 -29 8.5s-21 -2.83301 -29 -8.5s-14.5 -13.167 -19.5 -22.5
s-8.5 -19.666 -10.5 -30.999s-3 -23 -3 -35v-226h126v-55h-126v-187h184v-55h-284v55h40v187h-40v55z" />
    <glyph glyph-name="currency" unicode="&#xa4;" horiz-adv-x="328" 
d="M277 297c0 -31.333 -2.49707 -58 -7.49707 -80s-13.5 -40 -25.5 -54l35 -85h-54l-24 58c-11.333 -4 -24 -6 -38 -6c-14.667 0 -27 2.33301 -37 7l-24 -59h-54l34 86c-11.333 13.333 -19.5 29 -24.5 47s-7.5 41.333 -7.5 70v28c0 30 2.5 56.167 7.5 78.5
s13.5 40.5 25.5 54.5l-35 86h53l25 -59c5.33301 2 11 3.66699 17 5s12.667 2 20 2s14.166 -0.666992 20.499 -2s12.166 -3 17.499 -5l25 59h53l-35 -86c11.333 -12.667 19.666 -29.5 24.999 -50.5s8 -45.833 8 -74.5v-20zM217.003 313c0 14.667 -0.666992 28.834 -2 42.501
s-3.83301 25.667 -7.5 36s-9 18.5 -16 24.5s-16.167 9 -27.5 9c-12 0 -21.5 -3 -28.5 -9s-12.333 -14.167 -16 -24.5s-6.16699 -22.333 -7.5 -36s-2 -27.834 -2 -42.501v-20c0 -14.667 0.666992 -28.834 2 -42.501s3.83301 -25.667 7.5 -36s9 -18.5 16 -24.5
s16.5 -9 28.5 -9c10.667 0 19.5 2.66699 26.5 8s12.5 12.5 16.5 21.5s6.66699 19.333 8 31s2 23.834 2 36.501v35z" />
    <glyph glyph-name="yen" unicode="&#xa5;" horiz-adv-x="358" 
d="M54 332h84l-103 333h62l80 -306h3l81 306h62l-106 -333h87v-43h-95v-61h95v-43h-95v-185h-60v185h-95v43h95v61h-95v43z" />
    <glyph glyph-name="brokenbar" unicode="&#xa6;" horiz-adv-x="236" 
d="M148 401h-60v382h60v-382zM148 277v-382h-60v382h60z" />
    <glyph glyph-name="section" unicode="&#xa7;" horiz-adv-x="307" 
d="M119 425c-18.667 -10.667 -28 -29.666 -28 -56.999c0 -20.667 6 -38.334 18 -53.001s31 -31.667 57 -51l21 -16c8 7.33301 14.667 16 20 26s8 20.667 8 32c0 20.667 -6 39 -18 55s-31 32.667 -57 50zM81 461.001c-12 12 -21.668 25.834 -29.001 41.501
s-11 35.167 -11 58.5c0 15.333 2.16699 30.333 6.5 45s11 27.667 20 39s20.333 20.5 34 27.5s30.167 10.5 49.5 10.5c76.667 0 115 -50.667 115 -152v-11h-59v10c0 12.667 -0.666992 25.167 -2 37.5s-4 23.333 -8 33s-9.5 17.334 -16.5 23.001s-16.167 8.5 -27.5 8.5
c-20 0 -34 -7 -42 -21s-12 -29.667 -12 -47c0 -15.333 1.66699 -28 5 -38s8.66602 -19.167 15.999 -27.5s16.833 -16.833 28.5 -25.5l43.5 -32c26.667 -19.333 45.834 -39 57.501 -59s17.5 -45 17.5 -75c0 -21.333 -4 -39.5 -12 -54.5s-17.333 -28.5 -28 -40.5
c12.667 -15.333 22.334 -31 29.001 -47s10 -33.667 10 -53c0 -16.667 -2.33301 -32.334 -7 -47.001s-11.5 -27.5 -20.5 -38.5s-20.333 -19.833 -34 -26.5s-29.5 -10 -47.5 -10c-77.333 0 -116 50.333 -116 151v12h59v-10c0 -13.333 0.833008 -26 2.5 -38
s4.5 -22.833 8.5 -32.5s9.5 -17.334 16.5 -23.001s16.167 -8.5 27.5 -8.5c20 0 33.833 7 41.5 21s11.5 29.333 11.5 46c0 15.333 -1.5 28 -4.5 38s-8.16699 19.167 -15.5 27.5s-16.833 16.833 -28.5 25.5l-43.5 32c-25.333 18.667 -44.333 38.5 -57 59.5
s-19 46.167 -19 75.5c0 22.667 4 41.5 12 56.5s17.667 27.833 29 38.5z" />
    <glyph glyph-name="dieresis" unicode="&#xa8;" horiz-adv-x="346" 
d="M116 655c11.333 0 20.5 -3.33301 27.5 -10s10.5 -16 10.5 -28s-3.5 -21.333 -10.5 -28s-16.167 -10 -27.5 -10s-20.5 3.33301 -27.5 10s-10.5 16 -10.5 28s3.5 21.333 10.5 28s16.167 10 27.5 10zM230 655c11.333 0 20.5 -3.33301 27.5 -10s10.5 -16 10.5 -28
s-3.5 -21.333 -10.5 -28s-16.167 -10 -27.5 -10s-20.5 3.33301 -27.5 10s-10.5 16 -10.5 28s3.5 21.333 10.5 28s16.167 10 27.5 10z" />
    <glyph glyph-name="copyright" unicode="&#xa9;" horiz-adv-x="560" 
d="M509 212c0 -36 -4.49902 -68.832 -13.499 -98.499s-22.667 -55.167 -41 -76.5s-41.833 -37.833 -70.5 -49.5s-63 -17.5 -103 -17.5s-74.333 5.83301 -103 17.5s-52.5 28.167 -71.5 49.5s-33 46.833 -42 76.5s-13.5 62.5 -13.5 98.5v236c0 32.667 4.33301 64 13 94
s22.167 56.333 40.5 79s42 40.667 71 54s64.167 20 105.5 20c40.667 0 75.5 -6.83301 104.5 -20.5s52.667 -31.834 71 -54.501s31.666 -49 39.999 -79s12.5 -61 12.5 -93v-236zM457.001 447.001c0 24.667 -2.99805 48.999 -8.99805 72.999s-16 45.5 -30 64.5
s-32.167 34.333 -54.5 46s-49.833 17.5 -82.5 17.5s-60.334 -5.66699 -83.001 -17s-41 -26.166 -55 -44.499s-24.167 -39.5 -30.5 -63.5s-9.5 -48.667 -9.5 -74v-234c0 -27.333 3.16699 -53 9.5 -77s16.666 -45 30.999 -63s32.833 -32.167 55.5 -42.5s50 -15.5 82 -15.5
s59.167 5.16699 81.5 15.5s40.5 24.5 54.5 42.5s24.167 39 30.5 63s9.5 49.333 9.5 76v233zM335.003 399v26.998c0 12.667 -0.833008 24.834 -2.5 36.501s-4.5 21.834 -8.5 30.501s-9.5 15.5 -16.5 20.5s-15.833 7.5 -26.5 7.5c-11.333 0 -20.5 -2.66699 -27.5 -8
s-12.5 -12.5 -16.5 -21.5s-6.66699 -19.167 -8 -30.5s-2 -23 -2 -35v-187c0 -12 0.666992 -23.5 2 -34.5s4 -21 8 -30s9.5 -16.167 16.5 -21.5s16.167 -8 27.5 -8c10.667 0 19.5 2.5 26.5 7.5s12.5 11.833 16.5 20.5s6.83301 18.667 8.5 30s2.5 23.333 2.5 36v27h51v-20
c0 -48 -8 -84.833 -24 -110.5s-43 -38.5 -81 -38.5c-39.333 0 -67 13.167 -83 39.5s-24 64.5 -24 114.5v163c0 50 8 88.167 24 114.5s43.333 39.5 82 39.5s66 -12.667 82 -38s24 -62 24 -110v-21h-51z" />
    <glyph glyph-name="ordfeminine" unicode="&#xaa;" horiz-adv-x="207" 
d="M28 582l0.00195312 8c0 24 5.33301 44.167 16 60.5s28.667 24.5 54 24.5s43.666 -8 54.999 -24s17 -40 17 -72v-161c0 -8.66699 1.5 -14.5 4.5 -17.5s7.5 -4.83301 13.5 -5.5v-38c-17.333 0.666992 -29.833 4 -37.5 10s-13.5 15.333 -17.5 28
c-4.66699 -11.333 -11.167 -20.5 -19.5 -27.5s-18.833 -10.5 -31.5 -10.5c-17.333 0 -31.333 6.66699 -42 20s-16 34 -16 62v27c0 19.333 4.66699 37 14 53s24.666 24 45.999 24c16.667 0 30.667 -4.33301 42 -13v56c0 14 -1.83301 26.5 -5.5 37.5s-11.5 16.5 -23.5 16.5
c-10 0 -17.333 -4.33301 -22 -13s-7 -20.667 -7 -36v-9h-40zM126.002 504c-7.33301 4.66699 -15.666 6.99902 -24.999 6.99902c-12.667 0 -21.334 -4.16699 -26.001 -12.5s-7 -22.166 -7 -41.499v-11c0 -17.333 1.83301 -30.5 5.5 -39.5s11.167 -13.5 22.5 -13.5
c13.333 0 23.333 8.33301 30 25v86z" />
    <glyph glyph-name="guillemotleft" unicode="&#xab;" horiz-adv-x="382" 
d="M158 464l41 -40l-109 -132l109 -131l-41 -40l-119 143v56zM308 464l41 -40l-109 -132l109 -131l-41 -40l-119 143v56z" />
    <glyph glyph-name="logicalnot" unicode="&#xac;" horiz-adv-x="318" 
d="M36 360h246v-144h-55v88h-191v56z" />
    <glyph glyph-name="uni00AD" unicode="&#xad;" horiz-adv-x="222" 
 />
    <glyph glyph-name="registered" unicode="&#xae;" horiz-adv-x="437" 
d="M392 386c0 -29.333 -3.16699 -56.166 -9.5 -80.499s-16.5 -45.166 -30.5 -62.499s-32 -30.666 -54 -39.999s-48.667 -14 -80 -14s-58 4.66699 -80 14s-39.833 22.666 -53.5 39.999s-23.667 38.166 -30 62.499s-9.5 51.166 -9.5 80.499v114c0 29.333 3.16699 56 9.5 80
s16.333 44.667 30 62s31.5 30.833 53.5 40.5s48.667 14.5 80 14.5s58 -4.83301 80 -14.5s40 -23.167 54 -40.5s24.167 -38 30.5 -62s9.5 -50.667 9.5 -80v-114zM344 498c0 55.333 -9.66699 95 -29 119s-51.666 36 -96.999 36c-44.667 0 -76.667 -12 -96 -36
s-29 -63.333 -29 -118v-112c0 -54.667 9.66699 -94 29 -118s51.333 -36 96 -36c45.333 0 77.666 12 96.999 36s29 63.333 29 118v111zM282 505c0 -16.667 -2.5 -29.833 -7.5 -39.5s-12.167 -17.167 -21.5 -22.5l39 -141h-40l-34 135h-22v-135h-38v287h60
c42.667 0 64 -23.333 64 -70v-14zM244 521.001c0 22 -9.33301 33 -28 33h-20v-87h20c10.667 0 18 2.66699 22 8s6 14 6 26v20z" />
    <glyph glyph-name="macron" unicode="&#xaf;" horiz-adv-x="350" 
d="M92 644h166v-52h-166v52z" />
    <glyph glyph-name="degree" unicode="&#xb0;" horiz-adv-x="239" 
d="M70 628c0 -14.667 4.5 -26.834 13.5 -36.501s21.167 -14.5 36.5 -14.5s27.5 4.83301 36.5 14.5s13.5 21.834 13.5 36.501s-4.5 26.834 -13.5 36.501s-21.167 14.5 -36.5 14.5s-27.5 -4.83301 -36.5 -14.5s-13.5 -21.834 -13.5 -36.501zM26 628
c0 26.667 8.83301 49 26.5 67s40.167 27 67.5 27s49.833 -9 67.5 -27s26.5 -40.333 26.5 -67c0 -13.333 -2.33301 -25.666 -7 -36.999s-11.167 -21.333 -19.5 -30s-18.333 -15.5 -30 -20.5s-24.167 -7.5 -37.5 -7.5s-25.833 2.5 -37.5 7.5s-21.667 11.833 -30 20.5
s-14.833 18.667 -19.5 30s-7 23.666 -7 36.999z" />
    <glyph glyph-name="plusminus" unicode="&#xb1;" horiz-adv-x="318" 
d="M36 360h95v65h56v-65h95v-56h-95v-65h-56v65h-95v56zM36 208h246v-56h-246v56z" />
    <glyph glyph-name="twosuperior" unicode="&#xb2;" horiz-adv-x="247" 
d="M34 566l-0.000976562 9.00195c0 30.667 7 55 21 73s37.667 27 71 27c32 0 54.833 -7.83301 68.5 -23.5s20.5 -37.5 20.5 -65.5v-14c0 -19.333 -5 -40 -15 -62s-24 -47 -42 -75l-68 -119h125v-46h-177v52l63 111c20.667 32.667 36.334 59.167 47.001 79.5
s16 39.166 16 56.499v11c0 32.667 -12.667 49 -38 49c-15.333 0 -25.833 -4.83301 -31.5 -14.5s-8.5 -22.834 -8.5 -39.501v-9h-52z" />
    <glyph glyph-name="threesuperior" unicode="&#xb3;" horiz-adv-x="247" 
d="M159 577c0 13.333 -2.83398 25.3291 -8.50098 35.9961s-15.5 16 -29.5 16s-23.833 -5.5 -29.5 -16.5s-8.5 -23.5 -8.5 -37.5v-9h-52v7c0 32 7.5 57 22.5 75s37.5 27 67.5 27s52.5 -8.5 67.5 -25.5s22.5 -38.833 22.5 -65.5v-21c0 -19.333 -3.83301 -36.166 -11.5 -50.499
s-18.167 -24.166 -31.5 -29.499v-2c13.333 -5.33301 23.833 -15.333 31.5 -30s11.5 -31.667 11.5 -51v-37c0 -31.333 -7.5 -55.666 -22.5 -72.999s-37.5 -26 -67.5 -26s-52.5 8.5 -67.5 25.5s-22.5 41.5 -22.5 73.5v13h52v-12c0 -13.333 2.83301 -25.666 8.5 -36.999
s15.5 -17 29.5 -17s23.833 5.5 29.5 16.5s8.5 23.5 8.5 37.5v37c0 15.333 -3.16699 28.5 -9.5 39.5s-17.166 16.5 -32.499 16.5h-27v45h23c16.667 0 28.5 5.83301 35.5 17.5s10.5 24.5 10.5 38.5v19z" />
    <glyph glyph-name="acute" unicode="&#xb4;" horiz-adv-x="350" 
d="M239 683l-57 -135h-49l44 135h62z" />
    <glyph glyph-name="mu" unicode="&#xb5;" horiz-adv-x="328" 
d="M109 508l-0.00195312 -390.998c0 -8 0.666992 -16.333 2 -25s4 -16.834 8 -24.501s9.33301 -14 16 -19s15.334 -7.5 26.001 -7.5c12.667 0 23.5 4.66699 32.5 14s16.167 20.666 21.5 33.999v419h60v-423c0 -12 2 -21.667 6 -29s11.667 -11 23 -11v-55
c-20.667 0 -35.834 4.83301 -45.501 14.5s-16.167 23.167 -19.5 40.5c-7.33301 -17.333 -17.166 -30.833 -29.499 -40.5s-27.166 -14.5 -44.499 -14.5c-12 0 -22.833 3 -32.5 9s-17.167 13.667 -22.5 23v-167l-7 -65h-53v718h59z" />
    <glyph glyph-name="paragraph" unicode="&#xb6;" horiz-adv-x="349" 
d="M236 0v665h60v-665h-60zM193 0h-20v357h-27c-36 0 -61.333 12.833 -76 38.5s-22 63.167 -22 112.5v6c0 49.333 7.33301 86.833 22 112.5s40 38.5 76 38.5h47v-665z" />
    <glyph glyph-name="periodcentered" unicode="&#xb7;" horiz-adv-x="281" 
d="M100 347c0 12.667 3.83301 22.667 11.5 30s17.5 11 29.5 11s21.833 -3.66699 29.5 -11s11.5 -17.333 11.5 -30s-3.83301 -22.667 -11.5 -30s-17.5 -11 -29.5 -11s-21.833 3.66699 -29.5 11s-11.5 17.333 -11.5 30z" />
    <glyph glyph-name="cedilla" unicode="&#xb8;" horiz-adv-x="350" 
d="M152 0l35.999 0.000976562v-44h7c20 0 36.167 -5.66699 48.5 -17s18.5 -31 18.5 -59s-6.5 -48.667 -19.5 -62s-31.167 -20 -54.5 -20s-41.166 6.16699 -53.499 18.5s-18.5 32.166 -18.5 59.499v2h40v-2c0 -13.333 3 -23.333 9 -30s13.667 -10 23 -10
c21.333 0 32 14.333 32 43c0 15.333 -3.16699 26.333 -9.5 33s-16.5 10 -30.5 10h-28v78z" />
    <glyph glyph-name="onesuperior" unicode="&#xb9;" horiz-adv-x="247" 
d="M131 270v342l-75 -52l-30 41l97 68h61v-399h-53z" />
    <glyph glyph-name="ordmasculine" unicode="&#xba;" horiz-adv-x="194" 
d="M170 454c0 -32 -5.66699 -56.167 -17 -72.5s-30 -24.5 -56 -24.5s-44.667 8.16699 -56 24.5s-17 40.5 -17 72.5v125c0 31.333 5.66699 55.166 17 71.499s30 24.5 56 24.5s44.667 -8.16699 56 -24.5s17 -40.166 17 -71.499v-125zM126 586
c0 14.667 -1.83301 27.333 -5.5 38s-11.5 16 -23.5 16s-19.833 -5.5 -23.5 -16.5s-5.5 -23.5 -5.5 -37.5v-140c0 -14 1.83301 -26.333 5.5 -37s11.5 -16 23.5 -16s19.833 5.33301 23.5 16s5.5 23 5.5 37v140z" />
    <glyph glyph-name="guillemotright" unicode="&#xbb;" horiz-adv-x="382" 
d="M74 121l-41 40l109 131l-109 132l41 40l119 -144v-56zM224 121l-41 40l109 131l-109 132l41 40l119 -144v-56z" />
    <glyph glyph-name="onequarter" unicode="&#xbc;" horiz-adv-x="604" 
d="M131 270v342l-75 -52l-30 41l97 68h61v-399h-53zM199 0h-52l278 665h51zM518 81h-134v57l109 261h51l-112 -271h86v74h48v-202h-48v81z" />
    <glyph glyph-name="onehalf" unicode="&#xbd;" horiz-adv-x="604" 
d="M131 270v342l-75 -52l-30 41l97 68h61v-399h-53zM189 0h-52l278 665h51zM391 296l-0.000976562 9.00195c0 30.667 7 55 21 73s37.667 27 71 27c32 0 54.833 -7.83301 68.5 -23.5s20.5 -37.5 20.5 -65.5v-14c0 -19.333 -5 -40 -15 -62s-24 -47 -42 -75l-68 -119h125v-46
h-177v52l63 111c20.667 32.667 36.334 59.167 47.001 79.5s16 39.166 16 56.499v11c0 32.667 -12.667 49 -38 49c-15.333 0 -25.833 -4.83301 -31.5 -14.5s-8.5 -22.834 -8.5 -39.501v-9h-52z" />
    <glyph glyph-name="threequarters" unicode="&#xbe;" horiz-adv-x="604" 
d="M159 577c0 13.333 -2.83398 25.3291 -8.50098 35.9961s-15.5 16 -29.5 16s-23.833 -5.5 -29.5 -16.5s-8.5 -23.5 -8.5 -37.5v-9h-52v7c0 32 7.5 57 22.5 75s37.5 27 67.5 27s52.5 -8.5 67.5 -25.5s22.5 -38.833 22.5 -65.5v-21c0 -19.333 -3.83301 -36.166 -11.5 -50.499
s-18.167 -24.166 -31.5 -29.499v-2c13.333 -5.33301 23.833 -15.333 31.5 -30s11.5 -31.667 11.5 -51v-37c0 -31.333 -7.5 -55.666 -22.5 -72.999s-37.5 -26 -67.5 -26s-52.5 8.5 -67.5 25.5s-22.5 41.5 -22.5 73.5v13h52v-12c0 -13.333 2.83301 -25.666 8.5 -36.999
s15.5 -17 29.5 -17s23.833 5.5 29.5 16.5s8.5 23.5 8.5 37.5v37c0 15.333 -3.16699 28.5 -9.5 39.5s-17.166 16.5 -32.499 16.5h-27v45h23c16.667 0 28.5 5.83301 35.5 17.5s10.5 24.5 10.5 38.5v19zM204.999 -0.00390625h-52l278 665h51zM517.999 80.9961h-134v57l109 261
h51l-112 -271h86v74h48v-202h-48v81z" />
    <glyph glyph-name="questiondown" unicode="&#xbf;" horiz-adv-x="320" 
d="M278 17v-43.9961c0 -44 -10.167 -78.833 -30.5 -104.5s-50.166 -38.5 -89.499 -38.5c-38 0 -66.333 11.667 -85 35s-28 53 -28 89v52c0 16 0.833008 30.167 2.5 42.5s5 24.166 10 35.499s11.833 22.666 20.5 33.999s20 23.666 34 36.999c10 10 17.833 20 23.5 30
s9.83398 21 12.501 33s4.16699 25.333 4.5 40s0.5 31.667 0.5 51v49h60v-55c0 -23.333 -0.5 -43.666 -1.5 -60.999s-3.5 -32.833 -7.5 -46.5s-10 -26.334 -18 -38.001s-19 -23.834 -33 -36.501c-22.667 -21.333 -36.334 -41.5 -41.001 -60.5s-7 -38.833 -7 -59.5v-42
c0 -20 4.66699 -37.167 14 -51.5s22.666 -21.5 39.999 -21.5c18 0 32.333 7.16699 43 21.5s16 36.833 16 67.5v42h60zM223 477.004c0 -12 -4 -21.833 -12 -29.5s-17.667 -11.5 -29 -11.5c-12 0 -21.833 3.83301 -29.5 11.5s-11.5 17.5 -11.5 29.5s3.83301 21.833 11.5 29.5
s17.5 11.5 29.5 11.5c11.333 0 21 -3.83301 29 -11.5s12 -17.5 12 -29.5z" />
    <glyph glyph-name="Agrave" unicode="&#xc0;" horiz-adv-x="339" 
d="M20 0l114 665h72l113 -665h-62l-26 164h-126l-26 -164h-59zM112 218h112l-55 354h-3zM175 838l44 -135h-49l-58 135h63z" />
    <glyph glyph-name="Aacute" unicode="&#xc1;" horiz-adv-x="339" 
d="M20 0l114 665h72l113 -665h-62l-26 164h-126l-26 -164h-59zM112 218h112l-55 354h-3zM233 838l-57 -135h-49l44 135h62z" />
    <glyph glyph-name="Acircumflex" unicode="&#xc2;" horiz-adv-x="339" 
d="M20 0l114 665h72l113 -665h-62l-26 164h-126l-26 -164h-59zM112 218h112l-55 354h-3zM195 838l58 -135h-48l-36 93l-36 -93h-48l58 135h52z" />
    <glyph glyph-name="Atilde" unicode="&#xc3;" horiz-adv-x="339" 
d="M20 0l114 665h72l113 -665h-62l-26 164h-126l-26 -164h-59zM112 218h112l-55 354h-3zM65 724c0 36 5.66699 60.332 17 72.999s24.666 19 39.999 19c10.667 0 20 -2.16699 28 -6.5s15.167 -9.33301 21.5 -15s12.333 -10.667 18 -15s11.834 -6.5 18.501 -6.5
c5.33301 0 9.83301 2.5 13.5 7.5s5.5 16.167 5.5 33.5v5h46v-5c0 -18 -1.5 -32.833 -4.5 -44.5s-7 -21 -12 -28s-11 -12 -18 -15s-14.167 -4.5 -21.5 -4.5c-10 0 -19.167 2.33301 -27.5 7s-15.833 9.83398 -22.5 15.501l-18.5 15.5c-5.66699 4.66699 -11.167 7 -16.5 7
c-6 0 -11 -2.66699 -15 -8s-6 -17 -6 -35v-4h-46v4z" />
    <glyph glyph-name="Adieresis" unicode="&#xc4;" horiz-adv-x="339" 
d="M20 0l114 665h72l113 -665h-62l-26 164h-126l-26 -164h-59zM112 218h112l-55 354h-3zM112 810c11.333 0 20.5 -3.33301 27.5 -10s10.5 -16 10.5 -28s-3.5 -21.333 -10.5 -28s-16.167 -10 -27.5 -10s-20.5 3.33301 -27.5 10s-10.5 16 -10.5 28s3.5 21.333 10.5 28
s16.167 10 27.5 10zM226 810c11.333 0 20.5 -3.33301 27.5 -10s10.5 -16 10.5 -28s-3.5 -21.333 -10.5 -28s-16.167 -10 -27.5 -10s-20.5 3.33301 -27.5 10s-10.5 16 -10.5 28s3.5 21.333 10.5 28s16.167 10 27.5 10z" />
    <glyph glyph-name="Aring" unicode="&#xc5;" horiz-adv-x="339" 
d="M20 0l114 665h72l113 -665h-62l-26 164h-126l-26 -164h-59zM112 218h112l-55 354h-3zM131 776c0 -10.667 3.5 -19.834 10.5 -27.501s16.167 -11.5 27.5 -11.5s20.5 3.83301 27.5 11.5s10.5 16.834 10.5 27.501c0 11.333 -3.5 20.666 -10.5 27.999s-16.167 11 -27.5 11
s-20.5 -3.66699 -27.5 -11s-10.5 -16.666 -10.5 -27.999zM92 776c0 21.333 7.5 39.5 22.5 54.5s33.167 22.5 54.5 22.5s39.333 -7.5 54 -22.5s22 -33.167 22 -54.5s-7.33301 -39.5 -22 -54.5s-32.667 -22.5 -54 -22.5s-39.5 7.5 -54.5 22.5s-22.5 33.167 -22.5 54.5z" />
    <glyph glyph-name="AE" unicode="&#xc6;" horiz-adv-x="488" 
d="M253 169h-123l-56 -169h-60l220 665h231v-56h-152v-224h127v-55h-127v-275h152v-55h-212v169zM253 224v336h-3l-106 -336h109z" />
    <glyph glyph-name="Ccedilla" unicode="&#xc7;" horiz-adv-x="318" 
d="M147 -9c-34.667 4.66699 -60.334 20.5 -77.001 47.5s-25 64.5 -25 112.5v363c0 52 10 91.833 30 119.5s50.667 41.5 92 41.5c81.333 0 122 -55.667 122 -167v-12h-60v26c0 12 -1 23.833 -3 35.5s-5.5 22.167 -10.5 31.5s-11.5 16.833 -19.5 22.5s-17.667 8.5 -29 8.5
s-21 -3 -29 -9s-14.5 -13.667 -19.5 -23s-8.5 -19.833 -10.5 -31.5s-3 -23.167 -3 -34.5v-379c0 -11.333 1 -22.833 3 -34.5s5.5 -22.167 10.5 -31.5s11.5 -17 19.5 -23s17.667 -9 29 -9s21 2.83301 29 8.5s14.5 13.167 19.5 22.5s8.5 19.833 10.5 31.5s3 23.5 3 35.5v26h60
v-9c0 -105.333 -35.333 -161.666 -106 -168.999v-35h7c19.333 0 35.333 -5.66699 48 -17s19 -31 19 -59s-6.66699 -48.667 -20 -62s-31.333 -20 -54 -20c-23.333 0 -41.166 6.16699 -53.499 18.5s-18.5 32.166 -18.5 59.499v2h40v-2c0 -26.667 10.667 -40 32 -40
c9.33301 0 17 3.5 23 10.5s9 17.833 9 32.5c0 15.333 -3.33301 26.333 -10 33s-16.667 10 -30 10h-28v69z" />
    <glyph glyph-name="Egrave" unicode="&#xc8;" horiz-adv-x="288" 
d="M265 609h-152v-224h127v-55h-127v-275h152v-55h-212v665h212v-56zM162 838l44 -135h-49l-58 135h63z" />
    <glyph glyph-name="Eacute" unicode="&#xc9;" horiz-adv-x="288" 
d="M265 609h-152v-224h127v-55h-127v-275h152v-55h-212v665h212v-56zM220 838l-57 -135h-49l44 135h62z" />
    <glyph glyph-name="Ecircumflex" unicode="&#xca;" horiz-adv-x="288" 
d="M265 609h-152v-224h127v-55h-127v-275h152v-55h-212v665h212v-56zM182 838l58 -135h-48l-36 93l-36 -93h-48l58 135h52z" />
    <glyph glyph-name="Edieresis" unicode="&#xcb;" horiz-adv-x="288" 
d="M265 609h-152v-224h127v-55h-127v-275h152v-55h-212v665h212v-56zM99 810c11.333 0 20.5 -3.33301 27.5 -10s10.5 -16 10.5 -28s-3.5 -21.333 -10.5 -28s-16.167 -10 -27.5 -10s-20.5 3.33301 -27.5 10s-10.5 16 -10.5 28s3.5 21.333 10.5 28s16.167 10 27.5 10zM213 810
c11.333 0 20.5 -3.33301 27.5 -10s10.5 -16 10.5 -28s-3.5 -21.333 -10.5 -28s-16.167 -10 -27.5 -10s-20.5 3.33301 -27.5 10s-10.5 16 -10.5 28s3.5 21.333 10.5 28s16.167 10 27.5 10z" />
    <glyph glyph-name="Igrave" unicode="&#xcc;" horiz-adv-x="166" 
d="M53 0v665h60v-665h-60zM89 838l44 -135h-49l-58 135h63z" />
    <glyph glyph-name="Iacute" unicode="&#xcd;" horiz-adv-x="166" 
d="M53 0v665h60v-665h-60zM147 838l-57 -135h-49l44 135h62z" />
    <glyph glyph-name="Icircumflex" unicode="&#xce;" horiz-adv-x="166" 
d="M53 0v665h60v-665h-60zM109 838l58 -135h-48l-36 93l-36 -93h-48l58 135h52z" />
    <glyph glyph-name="Idieresis" unicode="&#xcf;" horiz-adv-x="166" 
d="M53 0v665h60v-665h-60zM26 810c11.333 0 20.5 -3.33301 27.5 -10s10.5 -16 10.5 -28s-3.5 -21.333 -10.5 -28s-16.167 -10 -27.5 -10s-20.5 3.33301 -27.5 10s-10.5 16 -10.5 28s3.5 21.333 10.5 28s16.167 10 27.5 10zM140 810c11.333 0 20.5 -3.33301 27.5 -10
s10.5 -16 10.5 -28s-3.5 -21.333 -10.5 -28s-16.167 -10 -27.5 -10s-20.5 3.33301 -27.5 10s-10.5 16 -10.5 28s3.5 21.333 10.5 28s16.167 10 27.5 10z" />
    <glyph glyph-name="Eth" unicode="&#xd0;" horiz-adv-x="350" 
d="M16 359h42v306h124c41.333 0 72.166 -13.833 92.499 -41.5s30.5 -67.5 30.5 -119.5v-343c0 -52 -10.167 -91.833 -30.5 -119.5s-51.166 -41.5 -92.499 -41.5h-124v305h-42v54zM245 514c0 12 -1.16699 23.666 -3.5 34.999s-6 21.5 -11 30.5s-11.667 16.167 -20 21.5
s-18.166 8 -29.499 8h-63v-250h62v-54h-62v-250h63c11.333 0 21.166 2.83301 29.499 8.5s15 13 20 22s8.66699 19.333 11 31s3.5 23.834 3.5 36.501v361z" />
    <glyph glyph-name="Ntilde" unicode="&#xd1;" horiz-adv-x="369" 
d="M316 0h-70l-140 550h-3v-550h-50v665h69l140 -560h3v560h51v-665zM80 724c0 36 5.66699 60.332 17 72.999s24.666 19 39.999 19c10.667 0 20 -2.16699 28 -6.5s15.167 -9.33301 21.5 -15s12.333 -10.667 18 -15s11.834 -6.5 18.501 -6.5c5.33301 0 9.83301 2.5 13.5 7.5
s5.5 16.167 5.5 33.5v5h46v-5c0 -18 -1.5 -32.833 -4.5 -44.5s-7 -21 -12 -28s-11 -12 -18 -15s-14.167 -4.5 -21.5 -4.5c-10 0 -19.167 2.33301 -27.5 7s-15.833 9.83398 -22.5 15.501l-18.5 15.5c-5.66699 4.66699 -11.167 7 -16.5 7c-6 0 -11 -2.66699 -15 -8
s-6 -17 -6 -35v-4h-46v4z" />
    <glyph glyph-name="Ograve" unicode="&#xd2;" 
d="M287 151c0 -52 -10 -91.833 -30 -119.5s-50.667 -41.5 -92 -41.5s-71.833 13.833 -91.5 41.5s-29.5 67.5 -29.5 119.5v363c0 52 10 91.833 30 119.5s50.333 41.5 91 41.5c41.333 0 72 -13.833 92 -41.5s30 -67.5 30 -119.5v-363zM227 522c0 12 -1 23.8311 -3 35.498
s-5.5 22.167 -10.5 31.5s-11.333 16.833 -19 22.5s-17.5 8.5 -29.5 8.5s-21.833 -2.83301 -29.5 -8.5s-13.834 -13.167 -18.501 -22.5s-8 -19.833 -10 -31.5s-3 -23.5 -3 -35.5v-378c0 -12 1 -23.833 3 -35.5s5.33301 -22.167 10 -31.5s10.834 -17 18.501 -23
s17.5 -9 29.5 -9s21.833 2.83301 29.5 8.5s14 13.334 19 23.001s8.5 20.334 10.5 32.001s3 23.5 3 35.5v378zM172 837.998l44 -135h-49l-58 135h63z" />
    <glyph glyph-name="Oacute" unicode="&#xd3;" 
d="M287 151c0 -52 -10 -91.833 -30 -119.5s-50.667 -41.5 -92 -41.5s-71.833 13.833 -91.5 41.5s-29.5 67.5 -29.5 119.5v363c0 52 10 91.833 30 119.5s50.333 41.5 91 41.5c41.333 0 72 -13.833 92 -41.5s30 -67.5 30 -119.5v-363zM227 522c0 12 -1 23.8311 -3 35.498
s-5.5 22.167 -10.5 31.5s-11.333 16.833 -19 22.5s-17.5 8.5 -29.5 8.5s-21.833 -2.83301 -29.5 -8.5s-13.834 -13.167 -18.501 -22.5s-8 -19.833 -10 -31.5s-3 -23.5 -3 -35.5v-378c0 -12 1 -23.833 3 -35.5s5.33301 -22.167 10 -31.5s10.834 -17 18.501 -23
s17.5 -9 29.5 -9s21.833 2.83301 29.5 8.5s14 13.334 19 23.001s8.5 20.334 10.5 32.001s3 23.5 3 35.5v378zM230 837.998l-57 -135h-49l44 135h62z" />
    <glyph glyph-name="Ocircumflex" unicode="&#xd4;" 
d="M287 151c0 -52 -10 -91.833 -30 -119.5s-50.667 -41.5 -92 -41.5s-71.833 13.833 -91.5 41.5s-29.5 67.5 -29.5 119.5v363c0 52 10 91.833 30 119.5s50.333 41.5 91 41.5c41.333 0 72 -13.833 92 -41.5s30 -67.5 30 -119.5v-363zM227 522c0 12 -1 23.8311 -3 35.498
s-5.5 22.167 -10.5 31.5s-11.333 16.833 -19 22.5s-17.5 8.5 -29.5 8.5s-21.833 -2.83301 -29.5 -8.5s-13.834 -13.167 -18.501 -22.5s-8 -19.833 -10 -31.5s-3 -23.5 -3 -35.5v-378c0 -12 1 -23.833 3 -35.5s5.33301 -22.167 10 -31.5s10.834 -17 18.501 -23
s17.5 -9 29.5 -9s21.833 2.83301 29.5 8.5s14 13.334 19 23.001s8.5 20.334 10.5 32.001s3 23.5 3 35.5v378zM192 837.998l58 -135h-48l-36 93l-36 -93h-48l58 135h52z" />
    <glyph glyph-name="Otilde" unicode="&#xd5;" 
d="M287 151c0 -52 -10 -91.833 -30 -119.5s-50.667 -41.5 -92 -41.5s-71.833 13.833 -91.5 41.5s-29.5 67.5 -29.5 119.5v363c0 52 10 91.833 30 119.5s50.333 41.5 91 41.5c41.333 0 72 -13.833 92 -41.5s30 -67.5 30 -119.5v-363zM227 522c0 12 -1 23.8311 -3 35.498
s-5.5 22.167 -10.5 31.5s-11.333 16.833 -19 22.5s-17.5 8.5 -29.5 8.5s-21.833 -2.83301 -29.5 -8.5s-13.834 -13.167 -18.501 -22.5s-8 -19.833 -10 -31.5s-3 -23.5 -3 -35.5v-378c0 -12 1 -23.833 3 -35.5s5.33301 -22.167 10 -31.5s10.834 -17 18.501 -23
s17.5 -9 29.5 -9s21.833 2.83301 29.5 8.5s14 13.334 19 23.001s8.5 20.334 10.5 32.001s3 23.5 3 35.5v378zM62 723.998c0 36 5.66699 60.332 17 72.999s24.666 19 39.999 19c10.667 0 20 -2.16699 28 -6.5s15.167 -9.33301 21.5 -15s12.333 -10.667 18 -15
s11.834 -6.5 18.501 -6.5c5.33301 0 9.83301 2.5 13.5 7.5s5.5 16.167 5.5 33.5v5h46v-5c0 -18 -1.5 -32.833 -4.5 -44.5s-7 -21 -12 -28s-11 -12 -18 -15s-14.167 -4.5 -21.5 -4.5c-10 0 -19.167 2.33301 -27.5 7s-15.833 9.83398 -22.5 15.501l-18.5 15.5
c-5.66699 4.66699 -11.167 7 -16.5 7c-6 0 -11 -2.66699 -15 -8s-6 -17 -6 -35v-4h-46v4z" />
    <glyph glyph-name="Odieresis" unicode="&#xd6;" 
d="M287 151c0 -52 -10 -91.833 -30 -119.5s-50.667 -41.5 -92 -41.5s-71.833 13.833 -91.5 41.5s-29.5 67.5 -29.5 119.5v363c0 52 10 91.833 30 119.5s50.333 41.5 91 41.5c41.333 0 72 -13.833 92 -41.5s30 -67.5 30 -119.5v-363zM227 522c0 12 -1 23.8311 -3 35.498
s-5.5 22.167 -10.5 31.5s-11.333 16.833 -19 22.5s-17.5 8.5 -29.5 8.5s-21.833 -2.83301 -29.5 -8.5s-13.834 -13.167 -18.501 -22.5s-8 -19.833 -10 -31.5s-3 -23.5 -3 -35.5v-378c0 -12 1 -23.833 3 -35.5s5.33301 -22.167 10 -31.5s10.834 -17 18.501 -23
s17.5 -9 29.5 -9s21.833 2.83301 29.5 8.5s14 13.334 19 23.001s8.5 20.334 10.5 32.001s3 23.5 3 35.5v378zM109 809.998c11.333 0 20.5 -3.33301 27.5 -10s10.5 -16 10.5 -28s-3.5 -21.333 -10.5 -28s-16.167 -10 -27.5 -10s-20.5 3.33301 -27.5 10s-10.5 16 -10.5 28
s3.5 21.333 10.5 28s16.167 10 27.5 10zM223 809.998c11.333 0 20.5 -3.33301 27.5 -10s10.5 -16 10.5 -28s-3.5 -21.333 -10.5 -28s-16.167 -10 -27.5 -10s-20.5 3.33301 -27.5 10s-10.5 16 -10.5 28s3.5 21.333 10.5 28s16.167 10 27.5 10z" />
    <glyph glyph-name="multiply" unicode="&#xd7;" horiz-adv-x="318" 
d="M53 234l66 68l-66 67l39 39l67 -67l67 67l39 -39l-66 -67l66 -68l-39 -39l-67 67l-67 -67z" />
    <glyph glyph-name="Oslash" unicode="&#xd8;" horiz-adv-x="332" 
d="M287 151c0 -52 -10 -91.833 -30 -119.5s-50.667 -41.5 -92 -41.5c-31.333 0 -57 8.33301 -77 25l-15 -50l-29 9l21 71c-14 26 -21 61.333 -21 106v363c0 52 10 91.833 30 119.5s50.333 41.5 91 41.5c32.667 0 59 -9.33301 79 -28l16 53l28 -9l-22 -73
c14 -26 21 -60.667 21 -104v-363zM104 176l117.001 392.999c-4 14.667 -10.5 26.834 -19.5 36.501s-21.167 14.5 -36.5 14.5c-12 0 -21.833 -2.83301 -29.5 -8.5s-13.834 -13.167 -18.501 -22.5s-8 -19.833 -10 -31.5s-3 -23.5 -3 -35.5v-346zM227.001 483.999
l-115.999 -392.002c4 -13.333 10.167 -24.5 18.5 -33.5s20.166 -13.5 35.499 -13.5c12 0 21.833 2.83301 29.5 8.5s14 13.334 19 23.001s8.5 20.334 10.5 32.001s3 23.5 3 35.5v340z" />
    <glyph glyph-name="Ugrave" unicode="&#xd9;" horiz-adv-x="347" 
d="M296 665l-0.000976562 -515.002c0 -52 -10.167 -91.667 -30.5 -119s-51.166 -41 -92.499 -41c-40.667 0 -71.167 13.667 -91.5 41s-30.5 67 -30.5 119v515h60v-523c0 -11.333 1 -22.666 3 -33.999s5.5 -21.666 10.5 -30.999s11.5 -17 19.5 -23s17.667 -9 29 -9
c12 0 22 2.83301 30 8.5s14.5 13.167 19.5 22.5s8.5 19.833 10.5 31.5s3 23.167 3 34.5v523h60zM178.999 837.998l44 -135h-49l-58 135h63z" />
    <glyph glyph-name="Uacute" unicode="&#xda;" horiz-adv-x="347" 
d="M296 665l-0.000976562 -515.002c0 -52 -10.167 -91.667 -30.5 -119s-51.166 -41 -92.499 -41c-40.667 0 -71.167 13.667 -91.5 41s-30.5 67 -30.5 119v515h60v-523c0 -11.333 1 -22.666 3 -33.999s5.5 -21.666 10.5 -30.999s11.5 -17 19.5 -23s17.667 -9 29 -9
c12 0 22 2.83301 30 8.5s14.5 13.167 19.5 22.5s8.5 19.833 10.5 31.5s3 23.167 3 34.5v523h60zM236.999 837.998l-57 -135h-49l44 135h62z" />
    <glyph glyph-name="Ucircumflex" unicode="&#xdb;" horiz-adv-x="347" 
d="M296 665l-0.000976562 -515.002c0 -52 -10.167 -91.667 -30.5 -119s-51.166 -41 -92.499 -41c-40.667 0 -71.167 13.667 -91.5 41s-30.5 67 -30.5 119v515h60v-523c0 -11.333 1 -22.666 3 -33.999s5.5 -21.666 10.5 -30.999s11.5 -17 19.5 -23s17.667 -9 29 -9
c12 0 22 2.83301 30 8.5s14.5 13.167 19.5 22.5s8.5 19.833 10.5 31.5s3 23.167 3 34.5v523h60zM198.999 837.998l58 -135h-48l-36 93l-36 -93h-48l58 135h52z" />
    <glyph glyph-name="Udieresis" unicode="&#xdc;" horiz-adv-x="347" 
d="M296 665l-0.000976562 -515.002c0 -52 -10.167 -91.667 -30.5 -119s-51.166 -41 -92.499 -41c-40.667 0 -71.167 13.667 -91.5 41s-30.5 67 -30.5 119v515h60v-523c0 -11.333 1 -22.666 3 -33.999s5.5 -21.666 10.5 -30.999s11.5 -17 19.5 -23s17.667 -9 29 -9
c12 0 22 2.83301 30 8.5s14.5 13.167 19.5 22.5s8.5 19.833 10.5 31.5s3 23.167 3 34.5v523h60zM115.999 809.998c11.333 0 20.5 -3.33301 27.5 -10s10.5 -16 10.5 -28s-3.5 -21.333 -10.5 -28s-16.167 -10 -27.5 -10s-20.5 3.33301 -27.5 10s-10.5 16 -10.5 28
s3.5 21.333 10.5 28s16.167 10 27.5 10zM229.999 809.998c11.333 0 20.5 -3.33301 27.5 -10s10.5 -16 10.5 -28s-3.5 -21.333 -10.5 -28s-16.167 -10 -27.5 -10s-20.5 3.33301 -27.5 10s-10.5 16 -10.5 28s3.5 21.333 10.5 28s16.167 10 27.5 10z" />
    <glyph glyph-name="Yacute" unicode="&#xdd;" horiz-adv-x="332" 
d="M196 215v-215h-60v216l-114 449h62l80 -364h3l81 364h62zM230 838l-57 -135h-49l44 135h62z" />
    <glyph glyph-name="Thorn" unicode="&#xde;" horiz-adv-x="332" 
d="M295 299c0 -52.667 -10.167 -92.666 -30.5 -119.999s-51.166 -41 -92.499 -41h-58v-138h-61v665h61v-138h58c41.333 0 72.166 -13.833 92.499 -41.5s30.5 -67.834 30.5 -120.501v-66zM235 374.001c0 12.667 -1.16699 25 -3.5 37s-6 22.5 -11 31.5
s-11.667 16.167 -20 21.5s-18.5 8 -30.5 8h-56v-279h56c24 0 40.833 10 50.5 30s14.5 43 14.5 69v82z" />
    <glyph glyph-name="germandbls" unicode="&#xdf;" horiz-adv-x="326" 
d="M113 -65l-6.00098 -65.0029h-54v681c0 52 8.83301 91.5 26.5 118.5s46.5 40.5 86.5 40.5c40.667 0 70.167 -13.5 88.5 -40.5s27.5 -66.5 27.5 -118.5v-18c0 -36 -5.16699 -64.167 -15.5 -84.5s-24.833 -36.166 -43.5 -47.499c18.667 -10 33.167 -27.167 43.5 -51.5
s15.5 -53.833 15.5 -88.5v-116c0 -48 -8.5 -85.167 -25.5 -111.5s-43.167 -39.5 -78.5 -39.5h-19v55h13c15.333 0 27.5 7 36.5 21s13.5 35.667 13.5 65v146c0 10.667 -1.16699 21.334 -3.5 32.001s-5.66602 20.167 -9.99902 28.5s-10 15 -17 20s-15.5 7.5 -25.5 7.5h-14v55
h14c10 0 18.5 2.66699 25.5 8s12.833 12.166 17.5 20.499s8 17.833 10 28.5s3 21.334 3 32.001v49c0 12.667 -0.833008 24.834 -2.5 36.501s-4.5 22 -8.5 31s-9.5 16.167 -16.5 21.5s-15.833 8 -26.5 8c-11.333 0 -20.5 -2.83301 -27.5 -8.5s-12.5 -13 -16.5 -22
s-6.83301 -19.333 -8.5 -31s-2.5 -23.5 -2.5 -35.5v-627z" />
    <glyph glyph-name="agrave" unicode="&#xe0;" horiz-adv-x="320" 
d="M43 367l0.000976562 13.999c0 18.667 2 36.334 6 53.001s10.333 31.167 19 43.5s20 22.166 34 29.499s31 11 51 11c40 0 68.833 -13.333 86.5 -40s26.5 -66.334 26.5 -119.001v-274c0 -15.333 2.5 -25.5 7.5 -30.5s12.167 -8.16699 21.5 -9.5v-55
c-26 0.666992 -44.667 6.33398 -56 17.001s-19.333 26.334 -24 47.001c-8 -20 -19 -35.667 -33 -47s-31.333 -17 -52 -17c-28.667 0 -51 11.167 -67 33.5s-24 55.5 -24 99.5v43c0 18 1.83301 34.833 5.5 50.5s9.5 29.5 17.5 41.5s18.167 21.333 30.5 28s27.166 10 44.499 10
c24.667 0 47.667 -7 69 -21v95c0 12 -0.833008 23.833 -2.5 35.5s-4.5 22 -8.5 31s-9.5 16.333 -16.5 22s-15.833 8.5 -26.5 8.5c-18.667 0 -32.167 -7.83301 -40.5 -23.5s-12.5 -36.167 -12.5 -61.5v-15h-56zM206.001 236.999c-7.33301 4 -14.5 7.33398 -21.5 10.001
s-16.167 4 -27.5 4c-22.667 0 -38 -7.83301 -46 -23.5s-12 -40.5 -12 -74.5v-18c0 -31.333 3.33301 -54.833 10 -70.5s20.667 -23.5 42 -23.5c12 0 22.833 4.66699 32.5 14s17.167 20.666 22.5 33.999v148zM163.001 683l44 -135h-49l-58 135h63z" />
    <glyph glyph-name="aacute" unicode="&#xe1;" horiz-adv-x="320" 
d="M43 367l0.000976562 13.999c0 18.667 2 36.334 6 53.001s10.333 31.167 19 43.5s20 22.166 34 29.499s31 11 51 11c40 0 68.833 -13.333 86.5 -40s26.5 -66.334 26.5 -119.001v-274c0 -15.333 2.5 -25.5 7.5 -30.5s12.167 -8.16699 21.5 -9.5v-55
c-26 0.666992 -44.667 6.33398 -56 17.001s-19.333 26.334 -24 47.001c-8 -20 -19 -35.667 -33 -47s-31.333 -17 -52 -17c-28.667 0 -51 11.167 -67 33.5s-24 55.5 -24 99.5v43c0 18 1.83301 34.833 5.5 50.5s9.5 29.5 17.5 41.5s18.167 21.333 30.5 28s27.166 10 44.499 10
c24.667 0 47.667 -7 69 -21v95c0 12 -0.833008 23.833 -2.5 35.5s-4.5 22 -8.5 31s-9.5 16.333 -16.5 22s-15.833 8.5 -26.5 8.5c-18.667 0 -32.167 -7.83301 -40.5 -23.5s-12.5 -36.167 -12.5 -61.5v-15h-56zM206.001 236.999c-7.33301 4 -14.5 7.33398 -21.5 10.001
s-16.167 4 -27.5 4c-22.667 0 -38 -7.83301 -46 -23.5s-12 -40.5 -12 -74.5v-18c0 -31.333 3.33301 -54.833 10 -70.5s20.667 -23.5 42 -23.5c12 0 22.833 4.66699 32.5 14s17.167 20.666 22.5 33.999v148zM221.001 683l-57 -135h-49l44 135h62z" />
    <glyph glyph-name="acircumflex" unicode="&#xe2;" horiz-adv-x="320" 
d="M43 367l0.000976562 13.999c0 18.667 2 36.334 6 53.001s10.333 31.167 19 43.5s20 22.166 34 29.499s31 11 51 11c40 0 68.833 -13.333 86.5 -40s26.5 -66.334 26.5 -119.001v-274c0 -15.333 2.5 -25.5 7.5 -30.5s12.167 -8.16699 21.5 -9.5v-55
c-26 0.666992 -44.667 6.33398 -56 17.001s-19.333 26.334 -24 47.001c-8 -20 -19 -35.667 -33 -47s-31.333 -17 -52 -17c-28.667 0 -51 11.167 -67 33.5s-24 55.5 -24 99.5v43c0 18 1.83301 34.833 5.5 50.5s9.5 29.5 17.5 41.5s18.167 21.333 30.5 28s27.166 10 44.499 10
c24.667 0 47.667 -7 69 -21v95c0 12 -0.833008 23.833 -2.5 35.5s-4.5 22 -8.5 31s-9.5 16.333 -16.5 22s-15.833 8.5 -26.5 8.5c-18.667 0 -32.167 -7.83301 -40.5 -23.5s-12.5 -36.167 -12.5 -61.5v-15h-56zM206.001 236.999c-7.33301 4 -14.5 7.33398 -21.5 10.001
s-16.167 4 -27.5 4c-22.667 0 -38 -7.83301 -46 -23.5s-12 -40.5 -12 -74.5v-18c0 -31.333 3.33301 -54.833 10 -70.5s20.667 -23.5 42 -23.5c12 0 22.833 4.66699 32.5 14s17.167 20.666 22.5 33.999v148zM183.001 683l58 -135h-48l-36 93l-36 -93h-48l58 135h52z" />
    <glyph glyph-name="atilde" unicode="&#xe3;" horiz-adv-x="320" 
d="M43 367l0.000976562 13.999c0 18.667 2 36.334 6 53.001s10.333 31.167 19 43.5s20 22.166 34 29.499s31 11 51 11c40 0 68.833 -13.333 86.5 -40s26.5 -66.334 26.5 -119.001v-274c0 -15.333 2.5 -25.5 7.5 -30.5s12.167 -8.16699 21.5 -9.5v-55
c-26 0.666992 -44.667 6.33398 -56 17.001s-19.333 26.334 -24 47.001c-8 -20 -19 -35.667 -33 -47s-31.333 -17 -52 -17c-28.667 0 -51 11.167 -67 33.5s-24 55.5 -24 99.5v43c0 18 1.83301 34.833 5.5 50.5s9.5 29.5 17.5 41.5s18.167 21.333 30.5 28s27.166 10 44.499 10
c24.667 0 47.667 -7 69 -21v95c0 12 -0.833008 23.833 -2.5 35.5s-4.5 22 -8.5 31s-9.5 16.333 -16.5 22s-15.833 8.5 -26.5 8.5c-18.667 0 -32.167 -7.83301 -40.5 -23.5s-12.5 -36.167 -12.5 -61.5v-15h-56zM206.001 236.999c-7.33301 4 -14.5 7.33398 -21.5 10.001
s-16.167 4 -27.5 4c-22.667 0 -38 -7.83301 -46 -23.5s-12 -40.5 -12 -74.5v-18c0 -31.333 3.33301 -54.833 10 -70.5s20.667 -23.5 42 -23.5c12 0 22.833 4.66699 32.5 14s17.167 20.666 22.5 33.999v148zM54.001 569c0 36 5.66699 60.332 17 72.999s24.666 19 39.999 19
c10.667 0 20 -2.16699 28 -6.5s15.167 -9.33301 21.5 -15s12.333 -10.667 18 -15s11.834 -6.5 18.501 -6.5c5.33301 0 9.83301 2.5 13.5 7.5s5.5 16.167 5.5 33.5v5h46v-5c0 -18 -1.5 -32.833 -4.5 -44.5s-7 -21 -12 -28s-11 -12 -18 -15s-14.167 -4.5 -21.5 -4.5
c-10 0 -19.167 2.33301 -27.5 7s-15.833 9.83398 -22.5 15.501l-18.5 15.5c-5.66699 4.66699 -11.167 7 -16.5 7c-6 0 -11 -2.66699 -15 -8s-6 -17 -6 -35v-4h-46v4z" />
    <glyph glyph-name="adieresis" unicode="&#xe4;" horiz-adv-x="320" 
d="M43 367l0.000976562 13.999c0 18.667 2 36.334 6 53.001s10.333 31.167 19 43.5s20 22.166 34 29.499s31 11 51 11c40 0 68.833 -13.333 86.5 -40s26.5 -66.334 26.5 -119.001v-274c0 -15.333 2.5 -25.5 7.5 -30.5s12.167 -8.16699 21.5 -9.5v-55
c-26 0.666992 -44.667 6.33398 -56 17.001s-19.333 26.334 -24 47.001c-8 -20 -19 -35.667 -33 -47s-31.333 -17 -52 -17c-28.667 0 -51 11.167 -67 33.5s-24 55.5 -24 99.5v43c0 18 1.83301 34.833 5.5 50.5s9.5 29.5 17.5 41.5s18.167 21.333 30.5 28s27.166 10 44.499 10
c24.667 0 47.667 -7 69 -21v95c0 12 -0.833008 23.833 -2.5 35.5s-4.5 22 -8.5 31s-9.5 16.333 -16.5 22s-15.833 8.5 -26.5 8.5c-18.667 0 -32.167 -7.83301 -40.5 -23.5s-12.5 -36.167 -12.5 -61.5v-15h-56zM206.001 236.999c-7.33301 4 -14.5 7.33398 -21.5 10.001
s-16.167 4 -27.5 4c-22.667 0 -38 -7.83301 -46 -23.5s-12 -40.5 -12 -74.5v-18c0 -31.333 3.33301 -54.833 10 -70.5s20.667 -23.5 42 -23.5c12 0 22.833 4.66699 32.5 14s17.167 20.666 22.5 33.999v148zM100.001 655c11.333 0 20.5 -3.33301 27.5 -10s10.5 -16 10.5 -28
s-3.5 -21.333 -10.5 -28s-16.167 -10 -27.5 -10s-20.5 3.33301 -27.5 10s-10.5 16 -10.5 28s3.5 21.333 10.5 28s16.167 10 27.5 10zM214.001 655c11.333 0 20.5 -3.33301 27.5 -10s10.5 -16 10.5 -28s-3.5 -21.333 -10.5 -28s-16.167 -10 -27.5 -10s-20.5 3.33301 -27.5 10
s-10.5 16 -10.5 28s3.5 21.333 10.5 28s16.167 10 27.5 10z" />
    <glyph glyph-name="aring" unicode="&#xe5;" horiz-adv-x="320" 
d="M43 367l0.000976562 13.999c0 18.667 2 36.334 6 53.001s10.333 31.167 19 43.5s20 22.166 34 29.499s31 11 51 11c40 0 68.833 -13.333 86.5 -40s26.5 -66.334 26.5 -119.001v-274c0 -15.333 2.5 -25.5 7.5 -30.5s12.167 -8.16699 21.5 -9.5v-55
c-26 0.666992 -44.667 6.33398 -56 17.001s-19.333 26.334 -24 47.001c-8 -20 -19 -35.667 -33 -47s-31.333 -17 -52 -17c-28.667 0 -51 11.167 -67 33.5s-24 55.5 -24 99.5v43c0 18 1.83301 34.833 5.5 50.5s9.5 29.5 17.5 41.5s18.167 21.333 30.5 28s27.166 10 44.499 10
c24.667 0 47.667 -7 69 -21v95c0 12 -0.833008 23.833 -2.5 35.5s-4.5 22 -8.5 31s-9.5 16.333 -16.5 22s-15.833 8.5 -26.5 8.5c-18.667 0 -32.167 -7.83301 -40.5 -23.5s-12.5 -36.167 -12.5 -61.5v-15h-56zM206.001 236.999c-7.33301 4 -14.5 7.33398 -21.5 10.001
s-16.167 4 -27.5 4c-22.667 0 -38 -7.83301 -46 -23.5s-12 -40.5 -12 -74.5v-18c0 -31.333 3.33301 -54.833 10 -70.5s20.667 -23.5 42 -23.5c12 0 22.833 4.66699 32.5 14s17.167 20.666 22.5 33.999v148zM119.001 621c0 -10.667 3.5 -19.834 10.5 -27.501
s16.167 -11.5 27.5 -11.5s20.5 3.83301 27.5 11.5s10.5 16.834 10.5 27.501c0 11.333 -3.5 20.666 -10.5 27.999s-16.167 11 -27.5 11s-20.5 -3.66699 -27.5 -11s-10.5 -16.666 -10.5 -27.999zM80.001 621c0 21.333 7.5 39.5 22.5 54.5s33.167 22.5 54.5 22.5
s39.333 -7.5 54 -22.5s22 -33.167 22 -54.5s-7.33301 -39.5 -22 -54.5s-32.667 -22.5 -54 -22.5s-39.5 7.5 -54.5 22.5s-22.5 33.167 -22.5 54.5z" />
    <glyph glyph-name="ae" unicode="&#xe6;" horiz-adv-x="474" 
d="M206 237c-7.33301 4 -14.5 7.33301 -21.5 10s-16.167 4 -27.5 4c-22.667 0 -38 -7.83301 -46 -23.5s-12 -40.5 -12 -74.5v-16c0 -31.333 3.33301 -55.166 10 -71.499s20.667 -24.5 42 -24.5c12 0 22.833 4.66699 32.5 14s17.167 20.666 22.5 33.999v148zM266 138
c0 -12 0.669922 -23.833 2.00293 -35.5s4 -22 8 -31s9.5 -16.333 16.5 -22s16.167 -8.5 27.5 -8.5c21.333 0 35.666 9.5 42.999 28.5s11 41.833 11 68.5v17h59v-12c0 -50 -8.66699 -88 -26 -114s-45 -39 -83 -39c-40.667 0 -70.667 19.333 -90 58
c-11.333 -18 -25.333 -32.167 -42 -42.5s-34.667 -15.5 -54 -15.5c-32 0 -56.5 11.167 -73.5 33.5s-25.5 55.5 -25.5 99.5v40c0 18.667 1.83301 36.167 5.5 52.5s9.5 30.5 17.5 42.5s18.333 21.333 31 28s28 10 46 10c11.333 0 22.833 -1.5 34.5 -4.5
s22.5 -7.83301 32.5 -14.5v93c0 12 -0.833008 23.833 -2.5 35.5s-4.5 22 -8.5 31s-9.5 16.333 -16.5 22s-15.833 8.5 -26.5 8.5c-18.667 0 -32.167 -7.83301 -40.5 -23.5s-12.5 -36.167 -12.5 -61.5v-15h-56v14c0 18.667 2.16699 36.334 6.5 53.001
s10.666 31.167 18.999 43.5s19.166 22.166 32.499 29.499s29 11 47 11c22 0 40 -5.16699 54 -15.5s25.667 -24.833 35 -43.5c15.333 39.333 44.333 59 87 59c37.333 0 64.833 -13.667 82.5 -41s26.5 -67 26.5 -119v-113h-167v-107zM373.003 370
c0 12.667 -0.666992 24.833 -2 36.5s-4 22 -8 31s-9.5 16.167 -16.5 21.5s-15.833 8 -26.5 8c-11.333 0 -20.5 -2.83301 -27.5 -8.5s-12.5 -13 -16.5 -22s-6.66699 -19.333 -8 -31s-2 -23.5 -2 -35.5v-76h107v76z" />
    <glyph glyph-name="ccedilla" unicode="&#xe7;" horiz-adv-x="305" 
d="M133 -8c-32 5.33301 -54.834 21.501 -68.501 48.501s-20.5 63.5 -20.5 109.5v208c0 52 8.66699 91.667 26 119s46.333 41 87 41c40 0 68.5 -13.333 85.5 -40s25.5 -65 25.5 -115v-27h-56v34c0 26.667 -3.66699 49.5 -11 68.5s-22 28.5 -44 28.5
c-11.333 0 -20.333 -2.83301 -27 -8.5s-12 -13 -16 -22s-6.66699 -19.333 -8 -31s-2 -23.5 -2 -35.5v-232c0 -12 0.666992 -23.833 2 -35.5s4 -22 8 -31s9.33301 -16.333 16 -22s15.667 -8.5 27 -8.5c22 0 36.667 9.5 44 28.5s11 41.833 11 68.5v34h56v-27
c0 -48 -7.5 -85 -22.5 -111s-40.5 -40.333 -76.5 -43v-35h7c19.333 0 35.333 -5.66699 48 -17s19 -31 19 -59s-6.5 -48.667 -19.5 -62s-31.167 -20 -54.5 -20s-41.166 6.16699 -53.499 18.5s-18.5 32.166 -18.5 59.499v2h40v-2c0 -26.667 10.667 -40 32 -40s32 14.333 32 43
c0 15.333 -3.33301 26.333 -10 33s-16.667 10 -30 10h-28v70z" />
    <glyph glyph-name="egrave" unicode="&#xe8;" horiz-adv-x="312" 
d="M104 294l107 -0.000976562v76c0 12.667 -0.833008 24.834 -2.5 36.501s-4.5 22 -8.5 31s-9.5 16.167 -16.5 21.5s-15.833 8 -26.5 8c-11.333 0 -20.333 -2.83301 -27 -8.5s-12 -13 -16 -22s-6.66699 -19.333 -8 -31s-2 -23.5 -2 -35.5v-76zM212 154.999h58.999v-12
c0 -50 -9 -88 -27 -114s-47 -39 -87 -39c-42 0 -71.333 13.667 -88 41s-25 67 -25 119v208c0 52 8.66699 91.667 26 119s46.333 41 87 41s69.834 -13.667 87.501 -41s26.5 -67 26.5 -119v-113h-167v-107c0 -12 0.666992 -23.833 2 -35.5s4 -22 8 -31s9.33301 -16.333 16 -22
s15.667 -8.5 27 -8.5c22 0 36.667 9.5 44 28.5s11 41.833 11 68.5v17zM161.999 682.999l44 -135h-49l-58 135h63z" />
    <glyph glyph-name="eacute" unicode="&#xe9;" horiz-adv-x="312" 
d="M104 294l107 -0.000976562v76c0 12.667 -0.833008 24.834 -2.5 36.501s-4.5 22 -8.5 31s-9.5 16.167 -16.5 21.5s-15.833 8 -26.5 8c-11.333 0 -20.333 -2.83301 -27 -8.5s-12 -13 -16 -22s-6.66699 -19.333 -8 -31s-2 -23.5 -2 -35.5v-76zM212 154.999h58.999v-12
c0 -50 -9 -88 -27 -114s-47 -39 -87 -39c-42 0 -71.333 13.667 -88 41s-25 67 -25 119v208c0 52 8.66699 91.667 26 119s46.333 41 87 41s69.834 -13.667 87.501 -41s26.5 -67 26.5 -119v-113h-167v-107c0 -12 0.666992 -23.833 2 -35.5s4 -22 8 -31s9.33301 -16.333 16 -22
s15.667 -8.5 27 -8.5c22 0 36.667 9.5 44 28.5s11 41.833 11 68.5v17zM219.999 682.999l-57 -135h-49l44 135h62z" />
    <glyph glyph-name="ecircumflex" unicode="&#xea;" horiz-adv-x="312" 
d="M104 294l107 -0.000976562v76c0 12.667 -0.833008 24.834 -2.5 36.501s-4.5 22 -8.5 31s-9.5 16.167 -16.5 21.5s-15.833 8 -26.5 8c-11.333 0 -20.333 -2.83301 -27 -8.5s-12 -13 -16 -22s-6.66699 -19.333 -8 -31s-2 -23.5 -2 -35.5v-76zM212 154.999h58.999v-12
c0 -50 -9 -88 -27 -114s-47 -39 -87 -39c-42 0 -71.333 13.667 -88 41s-25 67 -25 119v208c0 52 8.66699 91.667 26 119s46.333 41 87 41s69.834 -13.667 87.501 -41s26.5 -67 26.5 -119v-113h-167v-107c0 -12 0.666992 -23.833 2 -35.5s4 -22 8 -31s9.33301 -16.333 16 -22
s15.667 -8.5 27 -8.5c22 0 36.667 9.5 44 28.5s11 41.833 11 68.5v17zM181.999 682.999l58 -135h-48l-36 93l-36 -93h-48l58 135h52z" />
    <glyph glyph-name="edieresis" unicode="&#xeb;" horiz-adv-x="312" 
d="M104 294l107 -0.000976562v76c0 12.667 -0.833008 24.834 -2.5 36.501s-4.5 22 -8.5 31s-9.5 16.167 -16.5 21.5s-15.833 8 -26.5 8c-11.333 0 -20.333 -2.83301 -27 -8.5s-12 -13 -16 -22s-6.66699 -19.333 -8 -31s-2 -23.5 -2 -35.5v-76zM212 154.999h58.999v-12
c0 -50 -9 -88 -27 -114s-47 -39 -87 -39c-42 0 -71.333 13.667 -88 41s-25 67 -25 119v208c0 52 8.66699 91.667 26 119s46.333 41 87 41s69.834 -13.667 87.501 -41s26.5 -67 26.5 -119v-113h-167v-107c0 -12 0.666992 -23.833 2 -35.5s4 -22 8 -31s9.33301 -16.333 16 -22
s15.667 -8.5 27 -8.5c22 0 36.667 9.5 44 28.5s11 41.833 11 68.5v17zM98.999 654.999c11.333 0 20.5 -3.33301 27.5 -10s10.5 -16 10.5 -28s-3.5 -21.333 -10.5 -28s-16.167 -10 -27.5 -10s-20.5 3.33301 -27.5 10s-10.5 16 -10.5 28s3.5 21.333 10.5 28s16.167 10 27.5 10
zM212.999 654.999c11.333 0 20.5 -3.33301 27.5 -10s10.5 -16 10.5 -28s-3.5 -21.333 -10.5 -28s-16.167 -10 -27.5 -10s-20.5 3.33301 -27.5 10s-10.5 16 -10.5 28s3.5 21.333 10.5 28s16.167 10 27.5 10z" />
    <glyph glyph-name="igrave" unicode="&#xec;" horiz-adv-x="166" 
d="M53 508h54l7 -65v-443h-61v508zM89 683l44 -135h-49l-58 135h63z" />
    <glyph glyph-name="iacute" unicode="&#xed;" horiz-adv-x="166" 
d="M53 508h54l7 -65v-443h-61v508zM147 683l-57 -135h-49l44 135h62z" />
    <glyph glyph-name="icircumflex" unicode="&#xee;" horiz-adv-x="166" 
d="M53 508h54l7 -65v-443h-61v508zM109 683l58 -135h-48l-36 93l-36 -93h-48l58 135h52z" />
    <glyph glyph-name="idieresis" unicode="&#xef;" horiz-adv-x="166" 
d="M53 508h54l7 -65v-443h-61v508zM26 655c11.333 0 20.5 -3.33301 27.5 -10s10.5 -16 10.5 -28s-3.5 -21.333 -10.5 -28s-16.167 -10 -27.5 -10s-20.5 3.33301 -27.5 10s-10.5 16 -10.5 28s3.5 21.333 10.5 28s16.167 10 27.5 10zM140 655c11.333 0 20.5 -3.33301 27.5 -10
s10.5 -16 10.5 -28s-3.5 -21.333 -10.5 -28s-16.167 -10 -27.5 -10s-20.5 3.33301 -27.5 10s-10.5 16 -10.5 28s3.5 21.333 10.5 28s16.167 10 27.5 10z" />
    <glyph glyph-name="eth" unicode="&#xf0;" horiz-adv-x="315" 
d="M123 573l40 28.001c-8.66699 9.33301 -18.167 16.833 -28.5 22.5s-22.166 8.5 -35.499 8.5h-5v43h6c20 0 38.167 -4 54.5 -12s30.833 -19.333 43.5 -34l45 33l17 -21l-45 -33c19.333 -28.667 33.5 -64.5 42.5 -107.5s13.5 -90.167 13.5 -141.5v-209
c0 -52 -9 -91.667 -27 -119s-47 -41 -87 -41c-40.667 0 -69.667 13.5 -87 40.5s-26 66.5 -26 118.5v213c0 51.333 8.83301 90.166 26.5 116.499s43.167 39.5 76.5 39.5c19.333 0 34.666 -4.33301 45.999 -13s20.333 -17.667 27 -27c-3.33301 19.333 -8 37.833 -14 55.5
s-14 33.5 -24 47.5l-42 -29zM211 372.001c0 12.667 -0.833008 24.833 -2.5 36.5s-4.5 21.834 -8.5 30.501s-9.5 15.5 -16.5 20.5s-15.833 7.5 -26.5 7.5c-20 0 -33.833 -8.83301 -41.5 -26.5s-11.5 -40.5 -11.5 -68.5v-236c0 -12 0.666992 -23.833 2 -35.5
s4 -21.834 8 -30.501s9.33301 -15.667 16 -21s15.667 -8 27 -8c10.667 0 19.5 2.66699 26.5 8s12.5 12.333 16.5 21s6.83301 18.667 8.5 30s2.5 23.333 2.5 36v236z" />
    <glyph glyph-name="ntilde" unicode="&#xf1;" horiz-adv-x="329" 
d="M110 458c6 17.333 16.1689 31.666 30.502 42.999s31.5 17 51.5 17c31.333 0 53.666 -13 66.999 -39s20 -65 20 -117v-362h-54l-6 65v305c0 28 -3.33301 51.167 -10 69.5s-20.334 27.5 -41.001 27.5c-14 0 -25.5 -5.16699 -34.5 -15.5s-15.833 -22.166 -20.5 -35.499v-416
h-60v508h52zM61.002 569c0 36 5.66699 60.332 17 72.999s24.666 19 39.999 19c10.667 0 20 -2.16699 28 -6.5s15.167 -9.33301 21.5 -15s12.333 -10.667 18 -15s11.834 -6.5 18.501 -6.5c5.33301 0 9.83301 2.5 13.5 7.5s5.5 16.167 5.5 33.5v5h46v-5
c0 -18 -1.5 -32.833 -4.5 -44.5s-7 -21 -12 -28s-11 -12 -18 -15s-14.167 -4.5 -21.5 -4.5c-10 0 -19.167 2.33301 -27.5 7s-15.833 9.83398 -22.5 15.501l-18.5 15.5c-5.66699 4.66699 -11.167 7 -16.5 7c-6 0 -11 -2.66699 -15 -8s-6 -17 -6 -35v-4h-46v4z" />
    <glyph glyph-name="ograve" unicode="&#xf2;" horiz-adv-x="315" 
d="M271 149c0 -52 -8.83301 -91.5 -26.5 -118.5s-46.834 -40.5 -87.501 -40.5s-69.667 13.5 -87 40.5s-26 66.5 -26 118.5v210c0 52 8.66699 91.5 26 118.5s46.333 40.5 87 40.5s69.834 -13.5 87.501 -40.5s26.5 -66.5 26.5 -118.5v-210zM211 370
c0 12.667 -0.833008 24.832 -2.5 36.499s-4.5 22 -8.5 31s-9.5 16.167 -16.5 21.5s-15.833 8 -26.5 8c-11.333 0 -20.333 -2.83301 -27 -8.5s-12 -13 -16 -22s-6.66699 -19.333 -8 -31s-2 -23.5 -2 -35.5v-232c0 -12 0.666992 -23.833 2 -35.5s4 -22 8 -31
s9.33301 -16.333 16 -22s15.667 -8.5 27 -8.5c10.667 0 19.5 2.66699 26.5 8s12.5 12.5 16.5 21.5s6.83301 19.333 8.5 31s2.5 23.834 2.5 36.501v232zM163 682.998l44 -135h-49l-58 135h63z" />
    <glyph glyph-name="oacute" unicode="&#xf3;" horiz-adv-x="315" 
d="M271 149c0 -52 -8.83301 -91.5 -26.5 -118.5s-46.834 -40.5 -87.501 -40.5s-69.667 13.5 -87 40.5s-26 66.5 -26 118.5v210c0 52 8.66699 91.5 26 118.5s46.333 40.5 87 40.5s69.834 -13.5 87.501 -40.5s26.5 -66.5 26.5 -118.5v-210zM211 370
c0 12.667 -0.833008 24.832 -2.5 36.499s-4.5 22 -8.5 31s-9.5 16.167 -16.5 21.5s-15.833 8 -26.5 8c-11.333 0 -20.333 -2.83301 -27 -8.5s-12 -13 -16 -22s-6.66699 -19.333 -8 -31s-2 -23.5 -2 -35.5v-232c0 -12 0.666992 -23.833 2 -35.5s4 -22 8 -31
s9.33301 -16.333 16 -22s15.667 -8.5 27 -8.5c10.667 0 19.5 2.66699 26.5 8s12.5 12.5 16.5 21.5s6.83301 19.333 8.5 31s2.5 23.834 2.5 36.501v232zM221 682.998l-57 -135h-49l44 135h62z" />
    <glyph glyph-name="ocircumflex" unicode="&#xf4;" horiz-adv-x="315" 
d="M271 149c0 -52 -8.83301 -91.5 -26.5 -118.5s-46.834 -40.5 -87.501 -40.5s-69.667 13.5 -87 40.5s-26 66.5 -26 118.5v210c0 52 8.66699 91.5 26 118.5s46.333 40.5 87 40.5s69.834 -13.5 87.501 -40.5s26.5 -66.5 26.5 -118.5v-210zM211 370
c0 12.667 -0.833008 24.832 -2.5 36.499s-4.5 22 -8.5 31s-9.5 16.167 -16.5 21.5s-15.833 8 -26.5 8c-11.333 0 -20.333 -2.83301 -27 -8.5s-12 -13 -16 -22s-6.66699 -19.333 -8 -31s-2 -23.5 -2 -35.5v-232c0 -12 0.666992 -23.833 2 -35.5s4 -22 8 -31
s9.33301 -16.333 16 -22s15.667 -8.5 27 -8.5c10.667 0 19.5 2.66699 26.5 8s12.5 12.5 16.5 21.5s6.83301 19.333 8.5 31s2.5 23.834 2.5 36.501v232zM183 682.998l58 -135h-48l-36 93l-36 -93h-48l58 135h52z" />
    <glyph glyph-name="otilde" unicode="&#xf5;" horiz-adv-x="315" 
d="M271 149c0 -52 -8.83301 -91.5 -26.5 -118.5s-46.834 -40.5 -87.501 -40.5s-69.667 13.5 -87 40.5s-26 66.5 -26 118.5v210c0 52 8.66699 91.5 26 118.5s46.333 40.5 87 40.5s69.834 -13.5 87.501 -40.5s26.5 -66.5 26.5 -118.5v-210zM211 370
c0 12.667 -0.833008 24.832 -2.5 36.499s-4.5 22 -8.5 31s-9.5 16.167 -16.5 21.5s-15.833 8 -26.5 8c-11.333 0 -20.333 -2.83301 -27 -8.5s-12 -13 -16 -22s-6.66699 -19.333 -8 -31s-2 -23.5 -2 -35.5v-232c0 -12 0.666992 -23.833 2 -35.5s4 -22 8 -31
s9.33301 -16.333 16 -22s15.667 -8.5 27 -8.5c10.667 0 19.5 2.66699 26.5 8s12.5 12.5 16.5 21.5s6.83301 19.333 8.5 31s2.5 23.834 2.5 36.501v232zM53 568.998c0 36 5.66699 60.332 17 72.999s24.666 19 39.999 19c10.667 0 20 -2.16699 28 -6.5
s15.167 -9.33301 21.5 -15s12.333 -10.667 18 -15s11.834 -6.5 18.501 -6.5c5.33301 0 9.83301 2.5 13.5 7.5s5.5 16.167 5.5 33.5v5h46v-5c0 -18 -1.5 -32.833 -4.5 -44.5s-7 -21 -12 -28s-11 -12 -18 -15s-14.167 -4.5 -21.5 -4.5c-10 0 -19.167 2.33301 -27.5 7
s-15.833 9.83398 -22.5 15.501l-18.5 15.5c-5.66699 4.66699 -11.167 7 -16.5 7c-6 0 -11 -2.66699 -15 -8s-6 -17 -6 -35v-4h-46v4z" />
    <glyph glyph-name="odieresis" unicode="&#xf6;" horiz-adv-x="315" 
d="M271 149c0 -52 -8.83301 -91.5 -26.5 -118.5s-46.834 -40.5 -87.501 -40.5s-69.667 13.5 -87 40.5s-26 66.5 -26 118.5v210c0 52 8.66699 91.5 26 118.5s46.333 40.5 87 40.5s69.834 -13.5 87.501 -40.5s26.5 -66.5 26.5 -118.5v-210zM211 370
c0 12.667 -0.833008 24.832 -2.5 36.499s-4.5 22 -8.5 31s-9.5 16.167 -16.5 21.5s-15.833 8 -26.5 8c-11.333 0 -20.333 -2.83301 -27 -8.5s-12 -13 -16 -22s-6.66699 -19.333 -8 -31s-2 -23.5 -2 -35.5v-232c0 -12 0.666992 -23.833 2 -35.5s4 -22 8 -31
s9.33301 -16.333 16 -22s15.667 -8.5 27 -8.5c10.667 0 19.5 2.66699 26.5 8s12.5 12.5 16.5 21.5s6.83301 19.333 8.5 31s2.5 23.834 2.5 36.501v232zM100 654.998c11.333 0 20.5 -3.33301 27.5 -10s10.5 -16 10.5 -28s-3.5 -21.333 -10.5 -28s-16.167 -10 -27.5 -10
s-20.5 3.33301 -27.5 10s-10.5 16 -10.5 28s3.5 21.333 10.5 28s16.167 10 27.5 10zM214 654.998c11.333 0 20.5 -3.33301 27.5 -10s10.5 -16 10.5 -28s-3.5 -21.333 -10.5 -28s-16.167 -10 -27.5 -10s-20.5 3.33301 -27.5 10s-10.5 16 -10.5 28s3.5 21.333 10.5 28
s16.167 10 27.5 10z" />
    <glyph glyph-name="divide" unicode="&#xf7;" horiz-adv-x="318" 
d="M118 195c0 12.667 3.83301 22.667 11.5 30s17.5 11 29.5 11s21.833 -3.66699 29.5 -11s11.5 -17.333 11.5 -30s-3.83301 -22.667 -11.5 -30s-17.5 -11 -29.5 -11s-21.833 3.66699 -29.5 11s-11.5 17.333 -11.5 30zM118 409c0 12.667 3.83301 22.667 11.5 30
s17.5 11 29.5 11s21.833 -3.66699 29.5 -11s11.5 -17.333 11.5 -30s-3.83301 -22.667 -11.5 -30s-17.5 -11 -29.5 -11s-21.833 3.66699 -29.5 11s-11.5 17.333 -11.5 30zM36 330h246v-56h-246v56z" />
    <glyph glyph-name="oslash" unicode="&#xf8;" horiz-adv-x="315" 
d="M271 149c0 -52 -8.83203 -91.5 -26.499 -118.5s-46.834 -40.5 -87.501 -40.5c-30.667 0 -55 8 -73 24l-16 -44l-26 10l22 61c-13.333 24.667 -20 60.667 -20 108v210c0 52 8.66699 91.5 26 118.5s46.333 40.5 87 40.5c30.667 0 54.667 -8 72 -24l15 41l27 -10l-21 -58
c14 -26 21 -62 21 -108v-210zM211.001 361l-102 -277.001c3.33301 -12.667 8.83301 -23 16.5 -31s18.167 -12 31.5 -12c10.667 0 19.5 2.66699 26.5 8s12.5 12.5 16.5 21.5s6.83301 19.333 8.5 31s2.5 23.834 2.5 36.501v223zM104.001 150.999l99.998 275
c-3.33301 12 -8.66602 21.833 -15.999 29.5s-17.666 11.5 -30.999 11.5c-11.333 0 -20.333 -2.83301 -27 -8.5s-12 -13 -16 -22s-6.66699 -19.333 -8 -31s-2 -23.5 -2 -35.5v-219z" />
    <glyph glyph-name="ugrave" unicode="&#xf9;" horiz-adv-x="329" 
d="M49 508l59.999 0.000976562v-370c0 -27.333 3.33301 -50.333 10 -69s20.667 -28 42 -28c13.333 0 24.333 4.66699 33 14s15.667 20.666 21 33.999v419h60v-421c0 -12 2 -22 6 -30s11.667 -12 23 -12v-55c-26 0 -44.5 5.33301 -55.5 16s-19.167 26.667 -24.5 48
c-8 -19.333 -18.667 -34.833 -32 -46.5s-30.666 -17.5 -51.999 -17.5c-28.667 0 -51 12.167 -67 36.5s-24 61.5 -24 111.5v370zM170.999 683.001l44 -135h-49l-58 135h63z" />
    <glyph glyph-name="uacute" unicode="&#xfa;" horiz-adv-x="329" 
d="M49 508l59.999 0.000976562v-370c0 -27.333 3.33301 -50.333 10 -69s20.667 -28 42 -28c13.333 0 24.333 4.66699 33 14s15.667 20.666 21 33.999v419h60v-421c0 -12 2 -22 6 -30s11.667 -12 23 -12v-55c-26 0 -44.5 5.33301 -55.5 16s-19.167 26.667 -24.5 48
c-8 -19.333 -18.667 -34.833 -32 -46.5s-30.666 -17.5 -51.999 -17.5c-28.667 0 -51 12.167 -67 36.5s-24 61.5 -24 111.5v370zM228.999 683.001l-57 -135h-49l44 135h62z" />
    <glyph glyph-name="ucircumflex" unicode="&#xfb;" horiz-adv-x="329" 
d="M49 508l59.999 0.000976562v-370c0 -27.333 3.33301 -50.333 10 -69s20.667 -28 42 -28c13.333 0 24.333 4.66699 33 14s15.667 20.666 21 33.999v419h60v-421c0 -12 2 -22 6 -30s11.667 -12 23 -12v-55c-26 0 -44.5 5.33301 -55.5 16s-19.167 26.667 -24.5 48
c-8 -19.333 -18.667 -34.833 -32 -46.5s-30.666 -17.5 -51.999 -17.5c-28.667 0 -51 12.167 -67 36.5s-24 61.5 -24 111.5v370zM190.999 683.001l58 -135h-48l-36 93l-36 -93h-48l58 135h52z" />
    <glyph glyph-name="udieresis" unicode="&#xfc;" horiz-adv-x="329" 
d="M49 508l59.999 0.000976562v-370c0 -27.333 3.33301 -50.333 10 -69s20.667 -28 42 -28c13.333 0 24.333 4.66699 33 14s15.667 20.666 21 33.999v419h60v-421c0 -12 2 -22 6 -30s11.667 -12 23 -12v-55c-26 0 -44.5 5.33301 -55.5 16s-19.167 26.667 -24.5 48
c-8 -19.333 -18.667 -34.833 -32 -46.5s-30.666 -17.5 -51.999 -17.5c-28.667 0 -51 12.167 -67 36.5s-24 61.5 -24 111.5v370zM107.999 655.001c11.333 0 20.5 -3.33301 27.5 -10s10.5 -16 10.5 -28s-3.5 -21.333 -10.5 -28s-16.167 -10 -27.5 -10s-20.5 3.33301 -27.5 10
s-10.5 16 -10.5 28s3.5 21.333 10.5 28s16.167 10 27.5 10zM221.999 655.001c11.333 0 20.5 -3.33301 27.5 -10s10.5 -16 10.5 -28s-3.5 -21.333 -10.5 -28s-16.167 -10 -27.5 -10s-20.5 3.33301 -27.5 10s-10.5 16 -10.5 28s3.5 21.333 10.5 28s16.167 10 27.5 10z" />
    <glyph glyph-name="yacute" unicode="&#xfd;" horiz-adv-x="288" 
d="M27 508h59.999l58 -410h3l60 410h60l-105 -566c-8.66699 -45.333 -24.167 -81.833 -46.5 -109.5s-54.166 -41.5 -95.499 -41.5v54c18.667 0 36.667 8 54 24s29.333 42.333 36 79l6 40zM222.999 683l-57 -135h-49l44 135h62z" />
    <glyph glyph-name="thorn" unicode="&#xfe;" horiz-adv-x="324" 
d="M113 75c3.33301 -8 9.50098 -15.665 18.501 -22.998s20.167 -11 33.5 -11c19.333 0 33.333 9 42 27s13 41.667 13 71v235c0 12 -0.833008 23.667 -2.5 35s-4.5 21.166 -8.5 29.499s-9.5 15.166 -16.5 20.499s-15.833 8 -26.5 8c-13.333 0 -24.333 -5 -33 -15
s-15.334 -21.333 -20.001 -34v-343zM113.001 -209.998h-60v920h54l6 -65v-186c6 17.333 15.667 31.5 29 42.5s29 16.5 47 16.5c60.667 0 91 -50.667 91 -152v-219c0 -104.667 -33 -157 -99 -157c-16.667 0 -30.5 3.16699 -41.5 9.5s-19.833 13.833 -26.5 22.5v-232z" />
    <glyph glyph-name="ydieresis" unicode="&#xff;" horiz-adv-x="288" 
d="M27 508h59.999l58 -410h3l60 410h60l-105 -566c-8.66699 -45.333 -24.167 -81.833 -46.5 -109.5s-54.166 -41.5 -95.499 -41.5v54c18.667 0 36.667 8 54 24s29.333 42.333 36 79l6 40zM86.999 655c11.333 0 20.5 -3.33301 27.5 -10s10.5 -16 10.5 -28
s-3.5 -21.333 -10.5 -28s-16.167 -10 -27.5 -10s-20.5 3.33301 -27.5 10s-10.5 16 -10.5 28s3.5 21.333 10.5 28s16.167 10 27.5 10zM200.999 655c11.333 0 20.5 -3.33301 27.5 -10s10.5 -16 10.5 -28s-3.5 -21.333 -10.5 -28s-16.167 -10 -27.5 -10s-20.5 3.33301 -27.5 10
s-10.5 16 -10.5 28s3.5 21.333 10.5 28s16.167 10 27.5 10z" />
    <glyph glyph-name="Amacron" unicode="&#x100;" horiz-adv-x="339" 
d="M20 0l114 665h72l113 -665h-62l-26 164h-126l-26 -164h-59zM112 218h112l-55 354h-3zM86 799h166v-52h-166v52z" />
    <glyph glyph-name="amacron" unicode="&#x101;" horiz-adv-x="320" 
d="M43 367l0.000976562 13.999c0 18.667 2 36.334 6 53.001s10.333 31.167 19 43.5s20 22.166 34 29.499s31 11 51 11c40 0 68.833 -13.333 86.5 -40s26.5 -66.334 26.5 -119.001v-274c0 -15.333 2.5 -25.5 7.5 -30.5s12.167 -8.16699 21.5 -9.5v-55
c-26 0.666992 -44.667 6.33398 -56 17.001s-19.333 26.334 -24 47.001c-8 -20 -19 -35.667 -33 -47s-31.333 -17 -52 -17c-28.667 0 -51 11.167 -67 33.5s-24 55.5 -24 99.5v43c0 18 1.83301 34.833 5.5 50.5s9.5 29.5 17.5 41.5s18.167 21.333 30.5 28s27.166 10 44.499 10
c24.667 0 47.667 -7 69 -21v95c0 12 -0.833008 23.833 -2.5 35.5s-4.5 22 -8.5 31s-9.5 16.333 -16.5 22s-15.833 8.5 -26.5 8.5c-18.667 0 -32.167 -7.83301 -40.5 -23.5s-12.5 -36.167 -12.5 -61.5v-15h-56zM206.001 236.999c-7.33301 4 -14.5 7.33398 -21.5 10.001
s-16.167 4 -27.5 4c-22.667 0 -38 -7.83301 -46 -23.5s-12 -40.5 -12 -74.5v-18c0 -31.333 3.33301 -54.833 10 -70.5s20.667 -23.5 42 -23.5c12 0 22.833 4.66699 32.5 14s17.167 20.666 22.5 33.999v148zM77.001 644h166v-52h-166v52z" />
    <glyph glyph-name="Abreve" unicode="&#x102;" horiz-adv-x="339" 
d="M20 0l114 665h72l113 -665h-62l-26 164h-126l-26 -164h-59zM112 218h112l-55 354h-3zM254 820v-12c0 -26.667 -7.16699 -48 -21.5 -64s-35.5 -24 -63.5 -24s-49.5 8 -64.5 24s-22.5 37.333 -22.5 64v12h50v-12c0 -28 12.333 -42 37 -42s37 14 37 42v12h48z" />
    <glyph glyph-name="abreve" unicode="&#x103;" horiz-adv-x="320" 
d="M43 367l0.000976562 13.999c0 18.667 2 36.334 6 53.001s10.333 31.167 19 43.5s20 22.166 34 29.499s31 11 51 11c40 0 68.833 -13.333 86.5 -40s26.5 -66.334 26.5 -119.001v-274c0 -15.333 2.5 -25.5 7.5 -30.5s12.167 -8.16699 21.5 -9.5v-55
c-26 0.666992 -44.667 6.33398 -56 17.001s-19.333 26.334 -24 47.001c-8 -20 -19 -35.667 -33 -47s-31.333 -17 -52 -17c-28.667 0 -51 11.167 -67 33.5s-24 55.5 -24 99.5v43c0 18 1.83301 34.833 5.5 50.5s9.5 29.5 17.5 41.5s18.167 21.333 30.5 28s27.166 10 44.499 10
c24.667 0 47.667 -7 69 -21v95c0 12 -0.833008 23.833 -2.5 35.5s-4.5 22 -8.5 31s-9.5 16.333 -16.5 22s-15.833 8.5 -26.5 8.5c-18.667 0 -32.167 -7.83301 -40.5 -23.5s-12.5 -36.167 -12.5 -61.5v-15h-56zM206.001 236.999c-7.33301 4 -14.5 7.33398 -21.5 10.001
s-16.167 4 -27.5 4c-22.667 0 -38 -7.83301 -46 -23.5s-12 -40.5 -12 -74.5v-18c0 -31.333 3.33301 -54.833 10 -70.5s20.667 -23.5 42 -23.5c12 0 22.833 4.66699 32.5 14s17.167 20.666 22.5 33.999v148zM243.001 665v-12c0 -26.667 -7.16699 -48 -21.5 -64
s-35.5 -24 -63.5 -24s-49.5 8 -64.5 24s-22.5 37.333 -22.5 64v12h50v-12c0 -28 12.333 -42 37 -42s37 14 37 42v12h48z" />
    <glyph glyph-name="Aogonek" unicode="&#x104;" horiz-adv-x="339" 
d="M20 0l114 664.999h72l113 -665h-16c-25.333 -14 -45 -31.667 -59 -53s-21 -44.333 -21 -69s8.66699 -37 26 -37c8 0 14.333 2.83301 19 8.5s7 15.834 7 30.501v6h40v-6c0 -22.667 -5.33301 -41.5 -16 -56.5s-27.667 -22.5 -51 -22.5c-22.667 0 -39.667 6.66699 -51 20
s-17 31 -17 53c0 29.333 7 55 21 77s32.333 40.333 55 55l-25 158h-126l-26 -164h-59zM112 217.999h112l-55 354h-3z" />
    <glyph glyph-name="aogonek" unicode="&#x105;" horiz-adv-x="320" 
d="M43 367v13.999c0 18.667 2 36.334 6 53.001s10.333 31.167 19 43.5s20 22.166 34 29.499s31 11 51 11c40 0 68.833 -13.333 86.5 -40s26.5 -66.334 26.5 -119.001v-274c0 -15.333 2.5 -25.5 7.5 -30.5s12.167 -8.16699 21.5 -9.5v-55c-11.333 0 -21 1 -29 3
c-21.333 -14 -38 -31 -50 -51s-18 -41.333 -18 -64c0 -24.667 8.66699 -37 26 -37c7.33301 0 13.5 2.83301 18.5 8.5s7.5 15.834 7.5 30.501v6h40v-6c0 -22.667 -5.5 -41.5 -16.5 -56.5s-27.833 -22.5 -50.5 -22.5s-39.834 6.66699 -51.501 20s-17.5 31 -17.5 53
c0 30 7.66699 56.333 23 79s35 41.334 59 56.001c-5.33301 5.33301 -9.66602 11.833 -12.999 19.5s-6 16.167 -8 25.5c-8 -19.333 -18.667 -34.833 -32 -46.5s-30.333 -17.5 -51 -17.5c-29.333 0 -52.166 11.167 -68.499 33.5s-24.5 55.5 -24.5 99.5v43
c0 18 1.83301 34.833 5.5 50.5s9.5 29.5 17.5 41.5s18.167 21.333 30.5 28s27.166 10 44.499 10c24.667 0 47.667 -7 69 -21v95c0 12 -0.833008 23.833 -2.5 35.5s-4.5 22 -8.5 31s-9.5 16.333 -16.5 22s-15.833 8.5 -26.5 8.5c-18.667 0 -32.167 -7.83301 -40.5 -23.5
s-12.5 -36.167 -12.5 -61.5v-15h-56zM206 236.999c-7.33301 4 -14.5 7.33301 -21.5 10s-16.167 4 -27.5 4c-22.667 0 -38 -7.83301 -46 -23.5s-12 -40.5 -12 -74.5v-16c0 -31.333 3.33301 -55.166 10 -71.499s20.667 -24.5 42 -24.5c12 0 22.833 4.66699 32.5 14
s17.167 20.666 22.5 33.999v148z" />
    <glyph glyph-name="Cacute" unicode="&#x106;" horiz-adv-x="318" 
d="M229 496v26c0 12 -1 23.833 -3 35.5s-5.5 22.167 -10.5 31.5s-11.5 16.833 -19.5 22.5s-17.667 8.5 -29 8.5s-21 -3 -29 -9s-14.5 -13.667 -19.5 -23s-8.5 -19.833 -10.5 -31.5s-3 -23.167 -3 -34.5v-379c0 -11.333 1 -22.833 3 -34.5s5.5 -22.167 10.5 -31.5
s11.5 -17 19.5 -23s17.667 -9 29 -9s21 2.83301 29 8.5s14.5 13.167 19.5 22.5s8.5 19.833 10.5 31.5s3 23.5 3 35.5v26h60v-9c0 -113.333 -40.667 -170 -122 -170c-41.333 0 -72 13.833 -92 41.5s-30 67.5 -30 119.5v363c0 52 10 91.833 30 119.5s50.667 41.5 92 41.5
c81.333 0 122 -55.667 122 -167v-12h-60zM229 838l-57 -135h-49l44 135h62z" />
    <glyph glyph-name="cacute" unicode="&#x107;" horiz-adv-x="305" 
d="M212 336v34c0 26.667 -3.66699 49.5 -11 68.5s-22 28.5 -44 28.5c-11.333 0 -20.333 -2.83301 -27 -8.5s-12 -13 -16 -22s-6.66699 -19.333 -8 -31s-2 -23.5 -2 -35.5v-232c0 -12 0.666992 -23.833 2 -35.5s4 -22 8 -31s9.33301 -16.333 16 -22s15.667 -8.5 27 -8.5
c22 0 36.667 9.5 44 28.5s11 41.833 11 68.5v34h56v-27c0 -50 -8.5 -88.333 -25.5 -115s-45.5 -40 -85.5 -40c-40.667 0 -69.667 13.667 -87 41s-26 67 -26 119v208c0 52 8.66699 91.667 26 119s46.333 41 87 41c40 0 68.5 -13.333 85.5 -40s25.5 -65 25.5 -115v-27h-56z
M217 683l-57 -135h-49l44 135h62z" />
    <glyph glyph-name="Ccircumflex" unicode="&#x108;" horiz-adv-x="318" 
d="M229 496v26c0 12 -1 23.833 -3 35.5s-5.5 22.167 -10.5 31.5s-11.5 16.833 -19.5 22.5s-17.667 8.5 -29 8.5s-21 -3 -29 -9s-14.5 -13.667 -19.5 -23s-8.5 -19.833 -10.5 -31.5s-3 -23.167 -3 -34.5v-379c0 -11.333 1 -22.833 3 -34.5s5.5 -22.167 10.5 -31.5
s11.5 -17 19.5 -23s17.667 -9 29 -9s21 2.83301 29 8.5s14.5 13.167 19.5 22.5s8.5 19.833 10.5 31.5s3 23.5 3 35.5v26h60v-9c0 -113.333 -40.667 -170 -122 -170c-41.333 0 -72 13.833 -92 41.5s-30 67.5 -30 119.5v363c0 52 10 91.833 30 119.5s50.667 41.5 92 41.5
c81.333 0 122 -55.667 122 -167v-12h-60zM191 838l58 -135h-48l-36 93l-36 -93h-48l58 135h52z" />
    <glyph glyph-name="ccircumflex" unicode="&#x109;" horiz-adv-x="305" 
d="M212 336v34c0 26.667 -3.66699 49.5 -11 68.5s-22 28.5 -44 28.5c-11.333 0 -20.333 -2.83301 -27 -8.5s-12 -13 -16 -22s-6.66699 -19.333 -8 -31s-2 -23.5 -2 -35.5v-232c0 -12 0.666992 -23.833 2 -35.5s4 -22 8 -31s9.33301 -16.333 16 -22s15.667 -8.5 27 -8.5
c22 0 36.667 9.5 44 28.5s11 41.833 11 68.5v34h56v-27c0 -50 -8.5 -88.333 -25.5 -115s-45.5 -40 -85.5 -40c-40.667 0 -69.667 13.667 -87 41s-26 67 -26 119v208c0 52 8.66699 91.667 26 119s46.333 41 87 41c40 0 68.5 -13.333 85.5 -40s25.5 -65 25.5 -115v-27h-56z
M181 683l58 -135h-48l-36 93l-36 -93h-48l58 135h52z" />
    <glyph glyph-name="Cdotaccent" unicode="&#x10a;" horiz-adv-x="318" 
d="M229 496v26c0 12 -1 23.833 -3 35.5s-5.5 22.167 -10.5 31.5s-11.5 16.833 -19.5 22.5s-17.667 8.5 -29 8.5s-21 -3 -29 -9s-14.5 -13.667 -19.5 -23s-8.5 -19.833 -10.5 -31.5s-3 -23.167 -3 -34.5v-379c0 -11.333 1 -22.833 3 -34.5s5.5 -22.167 10.5 -31.5
s11.5 -17 19.5 -23s17.667 -9 29 -9s21 2.83301 29 8.5s14.5 13.167 19.5 22.5s8.5 19.833 10.5 31.5s3 23.5 3 35.5v26h60v-9c0 -113.333 -40.667 -170 -122 -170c-41.333 0 -72 13.833 -92 41.5s-30 67.5 -30 119.5v363c0 52 10 91.833 30 119.5s50.667 41.5 92 41.5
c81.333 0 122 -55.667 122 -167v-12h-60zM167 812c11.333 0 20.666 -3.5 27.999 -10.5s11 -16.833 11 -29.5c0 -12 -3.66699 -21.5 -11 -28.5s-16.666 -10.5 -27.999 -10.5s-20.666 3.5 -27.999 10.5s-11 16.5 -11 28.5c0 12.667 3.66699 22.5 11 29.5
s16.666 10.5 27.999 10.5z" />
    <glyph glyph-name="cdotaccent" unicode="&#x10b;" horiz-adv-x="305" 
d="M212 336v34c0 26.667 -3.66699 49.5 -11 68.5s-22 28.5 -44 28.5c-11.333 0 -20.333 -2.83301 -27 -8.5s-12 -13 -16 -22s-6.66699 -19.333 -8 -31s-2 -23.5 -2 -35.5v-232c0 -12 0.666992 -23.833 2 -35.5s4 -22 8 -31s9.33301 -16.333 16 -22s15.667 -8.5 27 -8.5
c22 0 36.667 9.5 44 28.5s11 41.833 11 68.5v34h56v-27c0 -50 -8.5 -88.333 -25.5 -115s-45.5 -40 -85.5 -40c-40.667 0 -69.667 13.667 -87 41s-26 67 -26 119v208c0 52 8.66699 91.667 26 119s46.333 41 87 41c40 0 68.5 -13.333 85.5 -40s25.5 -65 25.5 -115v-27h-56z
M155 657c11.333 0 20.666 -3.5 27.999 -10.5s11 -16.833 11 -29.5c0 -12 -3.66699 -21.5 -11 -28.5s-16.666 -10.5 -27.999 -10.5s-20.666 3.5 -27.999 10.5s-11 16.5 -11 28.5c0 12.667 3.66699 22.5 11 29.5s16.666 10.5 27.999 10.5z" />
    <glyph glyph-name="Ccaron" unicode="&#x10c;" horiz-adv-x="318" 
d="M229 496v26c0 12 -1 23.833 -3 35.5s-5.5 22.167 -10.5 31.5s-11.5 16.833 -19.5 22.5s-17.667 8.5 -29 8.5s-21 -3 -29 -9s-14.5 -13.667 -19.5 -23s-8.5 -19.833 -10.5 -31.5s-3 -23.167 -3 -34.5v-379c0 -11.333 1 -22.833 3 -34.5s5.5 -22.167 10.5 -31.5
s11.5 -17 19.5 -23s17.667 -9 29 -9s21 2.83301 29 8.5s14.5 13.167 19.5 22.5s8.5 19.833 10.5 31.5s3 23.5 3 35.5v26h60v-9c0 -113.333 -40.667 -170 -122 -170c-41.333 0 -72 13.833 -92 41.5s-30 67.5 -30 119.5v363c0 52 10 91.833 30 119.5s50.667 41.5 92 41.5
c81.333 0 122 -55.667 122 -167v-12h-60zM140 703l-57 135h46l36 -94l36 94h46l-57 -135h-50z" />
    <glyph glyph-name="ccaron" unicode="&#x10d;" horiz-adv-x="305" 
d="M212 336v34c0 26.667 -3.66699 49.5 -11 68.5s-22 28.5 -44 28.5c-11.333 0 -20.333 -2.83301 -27 -8.5s-12 -13 -16 -22s-6.66699 -19.333 -8 -31s-2 -23.5 -2 -35.5v-232c0 -12 0.666992 -23.833 2 -35.5s4 -22 8 -31s9.33301 -16.333 16 -22s15.667 -8.5 27 -8.5
c22 0 36.667 9.5 44 28.5s11 41.833 11 68.5v34h56v-27c0 -50 -8.5 -88.333 -25.5 -115s-45.5 -40 -85.5 -40c-40.667 0 -69.667 13.667 -87 41s-26 67 -26 119v208c0 52 8.66699 91.667 26 119s46.333 41 87 41c40 0 68.5 -13.333 85.5 -40s25.5 -65 25.5 -115v-27h-56z
M128 548l-57 135h46l36 -94l36 94h46l-57 -135h-50z" />
    <glyph glyph-name="Dcaron" unicode="&#x10e;" horiz-adv-x="345" 
d="M300 161c0 -52 -10.167 -91.833 -30.5 -119.5s-51.166 -41.5 -92.499 -41.5h-124v665h124c41.333 0 72.166 -13.833 92.499 -41.5s30.5 -67.5 30.5 -119.5v-343zM240 514c0 12 -1.16602 23.666 -3.49902 34.999s-6 21.5 -11 30.5s-11.5 16.167 -19.5 21.5s-18 8 -30 8
h-63v-554h63c11.333 0 21.166 2.83301 29.499 8.5s15 13 20 22s8.66699 19.333 11 31s3.5 23.834 3.5 36.501v361zM147.001 702.999l-57 135h46l36 -94l36 94h46l-57 -135h-50z" />
    <glyph glyph-name="dcaron" unicode="&#x10f;" horiz-adv-x="373" 
d="M211 432c-3.33301 8 -9.5 15.833 -18.5 23.5s-20.167 11.5 -33.5 11.5c-21.333 0 -35.833 -9.16699 -43.5 -27.5s-11.5 -41.5 -11.5 -69.5v-235c0 -26 3.5 -48.167 10.5 -66.5s21.167 -27.5 42.5 -27.5c12.667 0 23.5 4.83301 32.5 14.5s16.167 21.167 21.5 34.5v342z
M271 85c0 -15.333 2.16699 -25.832 6.5 -31.499s12.166 -8.5 23.499 -8.5v-55c-26.667 0 -45.667 5.16699 -57 15.5s-19.333 26.166 -24 47.499c-7.33301 -18 -17.666 -33 -30.999 -45s-30 -18 -50 -18c-30 0 -53.333 12.5 -70 37.5s-25 62.5 -25 112.5v226
c0 101.333 32 152 96 152c18 0 33 -4.33301 45 -13s20.667 -18.667 26 -30v235h55l5 -65v-560zM345 568.001h-32l16 125h50z" />
    <glyph glyph-name="Dcroat" unicode="&#x110;" horiz-adv-x="350" 
d="M16 359h42v306h124c41.333 0 72.166 -13.833 92.499 -41.5s30.5 -67.5 30.5 -119.5v-343c0 -52 -10.167 -91.833 -30.5 -119.5s-51.166 -41.5 -92.499 -41.5h-124v305h-42v54zM245 514c0 12 -1.16699 23.666 -3.5 34.999s-6 21.5 -11 30.5s-11.667 16.167 -20 21.5
s-18.166 8 -29.499 8h-63v-250h62v-54h-62v-250h63c11.333 0 21.166 2.83301 29.499 8.5s15 13 20 22s8.66699 19.333 11 31s3.5 23.834 3.5 36.501v361z" />
    <glyph glyph-name="dcroat" unicode="&#x111;" horiz-adv-x="326" 
d="M271 627l30 0.000976562v-39h-30v-503c0 -15.333 2.16699 -25.833 6.5 -31.5s12.166 -8.5 23.499 -8.5v-55c-26.667 0 -45.667 5.16699 -57 15.5s-19.333 26.166 -24 47.499c-7.33301 -18 -17.666 -33 -30.999 -45s-30 -18 -50 -18c-30 0 -53.333 12.5 -70 37.5
s-25 62.5 -25 112.5v226c0 101.333 32 152 96 152c18 0 33 -4.33301 45 -13s20.667 -18.667 26 -30v113h-109v39h109v83h55l5 -65v-18zM211 432.001c-3.33301 8 -9.5 15.833 -18.5 23.5s-20.167 11.5 -33.5 11.5c-21.333 0 -35.833 -9.16699 -43.5 -27.5
s-11.5 -41.5 -11.5 -69.5v-235c0 -26 3.5 -48.167 10.5 -66.5s21.167 -27.5 42.5 -27.5c12.667 0 23.5 4.83301 32.5 14.5s16.167 21.167 21.5 34.5v342z" />
    <glyph glyph-name="Emacron" unicode="&#x112;" horiz-adv-x="288" 
d="M265 609h-152v-224h127v-55h-127v-275h152v-55h-212v665h212v-56zM73 799h166v-52h-166v52z" />
    <glyph glyph-name="emacron" unicode="&#x113;" horiz-adv-x="312" 
d="M104 294l107 -0.000976562v76c0 12.667 -0.833008 24.834 -2.5 36.501s-4.5 22 -8.5 31s-9.5 16.167 -16.5 21.5s-15.833 8 -26.5 8c-11.333 0 -20.333 -2.83301 -27 -8.5s-12 -13 -16 -22s-6.66699 -19.333 -8 -31s-2 -23.5 -2 -35.5v-76zM212 154.999h58.999v-12
c0 -50 -9 -88 -27 -114s-47 -39 -87 -39c-42 0 -71.333 13.667 -88 41s-25 67 -25 119v208c0 52 8.66699 91.667 26 119s46.333 41 87 41s69.834 -13.667 87.501 -41s26.5 -67 26.5 -119v-113h-167v-107c0 -12 0.666992 -23.833 2 -35.5s4 -22 8 -31s9.33301 -16.333 16 -22
s15.667 -8.5 27 -8.5c22 0 36.667 9.5 44 28.5s11 41.833 11 68.5v17zM72.999 643.999h166v-52h-166v52z" />
    <glyph glyph-name="Ebreve" unicode="&#x114;" horiz-adv-x="288" 
d="M265 609h-152v-224h127v-55h-127v-275h152v-55h-212v665h212v-56zM241 820v-12c0 -26.667 -7.16699 -48 -21.5 -64s-35.5 -24 -63.5 -24s-49.5 8 -64.5 24s-22.5 37.333 -22.5 64v12h50v-12c0 -28 12.333 -42 37 -42s37 14 37 42v12h48z" />
    <glyph glyph-name="ebreve" unicode="&#x115;" horiz-adv-x="312" 
d="M104 294l107 -0.000976562v76c0 12.667 -0.833008 24.834 -2.5 36.501s-4.5 22 -8.5 31s-9.5 16.167 -16.5 21.5s-15.833 8 -26.5 8c-11.333 0 -20.333 -2.83301 -27 -8.5s-12 -13 -16 -22s-6.66699 -19.333 -8 -31s-2 -23.5 -2 -35.5v-76zM212 154.999h58.999v-12
c0 -50 -9 -88 -27 -114s-47 -39 -87 -39c-42 0 -71.333 13.667 -88 41s-25 67 -25 119v208c0 52 8.66699 91.667 26 119s46.333 41 87 41s69.834 -13.667 87.501 -41s26.5 -67 26.5 -119v-113h-167v-107c0 -12 0.666992 -23.833 2 -35.5s4 -22 8 -31s9.33301 -16.333 16 -22
s15.667 -8.5 27 -8.5c22 0 36.667 9.5 44 28.5s11 41.833 11 68.5v17zM240.999 664.999v-12c0 -26.667 -7.16699 -48 -21.5 -64s-35.5 -24 -63.5 -24s-49.5 8 -64.5 24s-22.5 37.333 -22.5 64v12h50v-12c0 -28 12.333 -42 37 -42s37 14 37 42v12h48z" />
    <glyph glyph-name="Edotaccent" unicode="&#x116;" horiz-adv-x="288" 
d="M265 609h-152v-224h127v-55h-127v-275h152v-55h-212v665h212v-56zM156 812c11.333 0 20.666 -3.5 27.999 -10.5s11 -16.833 11 -29.5c0 -12 -3.66699 -21.5 -11 -28.5s-16.666 -10.5 -27.999 -10.5s-20.666 3.5 -27.999 10.5s-11 16.5 -11 28.5
c0 12.667 3.66699 22.5 11 29.5s16.666 10.5 27.999 10.5z" />
    <glyph glyph-name="edotaccent" unicode="&#x117;" horiz-adv-x="312" 
d="M104 294l107 -0.000976562v76c0 12.667 -0.833008 24.834 -2.5 36.501s-4.5 22 -8.5 31s-9.5 16.167 -16.5 21.5s-15.833 8 -26.5 8c-11.333 0 -20.333 -2.83301 -27 -8.5s-12 -13 -16 -22s-6.66699 -19.333 -8 -31s-2 -23.5 -2 -35.5v-76zM212 154.999h58.999v-12
c0 -50 -9 -88 -27 -114s-47 -39 -87 -39c-42 0 -71.333 13.667 -88 41s-25 67 -25 119v208c0 52 8.66699 91.667 26 119s46.333 41 87 41s69.834 -13.667 87.501 -41s26.5 -67 26.5 -119v-113h-167v-107c0 -12 0.666992 -23.833 2 -35.5s4 -22 8 -31s9.33301 -16.333 16 -22
s15.667 -8.5 27 -8.5c22 0 36.667 9.5 44 28.5s11 41.833 11 68.5v17zM155.999 656.999c11.333 0 20.666 -3.5 27.999 -10.5s11 -16.833 11 -29.5c0 -12 -3.66699 -21.5 -11 -28.5s-16.666 -10.5 -27.999 -10.5s-20.666 3.5 -27.999 10.5s-11 16.5 -11 28.5
c0 12.667 3.66699 22.5 11 29.5s16.666 10.5 27.999 10.5z" />
    <glyph glyph-name="Eogonek" unicode="&#x118;" horiz-adv-x="288" 
d="M265 609l-152 -0.000976562v-224h127v-55h-127v-275h152v-55h-12c-25.333 -14 -45 -31.667 -59 -53s-21 -44.333 -21 -69c0 -12.667 2.5 -22 7.5 -28s11.167 -9 18.5 -9c8 0 14.333 2.83301 19 8.5s7 15.834 7 30.501v6h40v-6c0 -22.667 -5.33301 -41.5 -16 -56.5
s-27.334 -22.5 -50.001 -22.5c-23.333 0 -40.666 6.66699 -51.999 20s-17 31 -17 53c0 27.333 6.33301 51.5 19 72.5s29 38.833 49 53.5h-145v665h212v-56z" />
    <glyph glyph-name="eogonek" unicode="&#x119;" horiz-adv-x="312" 
d="M212 155l58.999 -0.000976562v-12c0 -65.333 -15.667 -111 -47 -137c-22 -18.667 -39.5 -38.5 -52.5 -59.5s-19.5 -43.833 -19.5 -68.5s8.66699 -37 26 -37c8 0 14.333 2.83301 19 8.5s7 15.834 7 30.501v6h40v-6c0 -22.667 -5.33301 -41.5 -16 -56.5
s-27.667 -22.5 -51 -22.5c-22.667 0 -39.667 6.66699 -51 20s-17 31 -17 53c0 24 5 45.667 15 65s23.333 36.333 40 51h-7c-42 0 -71.333 13.667 -88 41s-25 67 -25 119v208c0 52 8.66699 91.667 26 119s46.333 41 87 41s69.834 -13.667 87.501 -41s26.5 -67 26.5 -119v-113
h-167v-107c0 -12 0.666992 -23.833 2 -35.5s4 -22 8 -31s9.33301 -16.333 16 -22s15.667 -8.5 27 -8.5c22 0 36.667 9.5 44 28.5s11 41.833 11 68.5v17zM103.999 293.999l107 -0.000976562v76c0 12.667 -0.833008 24.834 -2.5 36.501s-4.5 22 -8.5 31
s-9.5 16.167 -16.5 21.5s-15.833 8 -26.5 8c-11.333 0 -20.333 -2.83301 -27 -8.5s-12 -13 -16 -22s-6.66699 -19.333 -8 -31s-2 -23.5 -2 -35.5v-76z" />
    <glyph glyph-name="Ecaron" unicode="&#x11a;" horiz-adv-x="288" 
d="M265 609h-152v-224h127v-55h-127v-275h152v-55h-212v665h212v-56zM131 703l-57 135h46l36 -94l36 94h46l-57 -135h-50z" />
    <glyph glyph-name="ecaron" unicode="&#x11b;" horiz-adv-x="312" 
d="M104 294l107 -0.000976562v76c0 12.667 -0.833008 24.834 -2.5 36.501s-4.5 22 -8.5 31s-9.5 16.167 -16.5 21.5s-15.833 8 -26.5 8c-11.333 0 -20.333 -2.83301 -27 -8.5s-12 -13 -16 -22s-6.66699 -19.333 -8 -31s-2 -23.5 -2 -35.5v-76zM212 154.999h58.999v-12
c0 -50 -9 -88 -27 -114s-47 -39 -87 -39c-42 0 -71.333 13.667 -88 41s-25 67 -25 119v208c0 52 8.66699 91.667 26 119s46.333 41 87 41s69.834 -13.667 87.501 -41s26.5 -67 26.5 -119v-113h-167v-107c0 -12 0.666992 -23.833 2 -35.5s4 -22 8 -31s9.33301 -16.333 16 -22
s15.667 -8.5 27 -8.5c22 0 36.667 9.5 44 28.5s11 41.833 11 68.5v17zM130.999 547.999l-57 135h46l36 -94l36 94h46l-57 -135h-50z" />
    <glyph glyph-name="Gcircumflex" unicode="&#x11c;" horiz-adv-x="332" 
d="M175 321v54.999h116v-225c0 -52 -10.333 -91.833 -31 -119.5s-51.667 -41.5 -93 -41.5c-40.667 0 -71.334 13.833 -92.001 41.5s-31 67.5 -31 119.5v363c0 52 10.333 91.833 31 119.5s51.334 41.5 92.001 41.5c42 0 73.167 -13.5 93.5 -40.5s30.5 -69.167 30.5 -126.5
v-11h-60v25c0 12.667 -1.16699 24.834 -3.5 36.501s-6 22 -11 31s-11.5 16.333 -19.5 22s-18 8.5 -30 8.5c-11.333 0 -21 -2.66699 -29 -8s-14.5 -12.5 -19.5 -21.5s-8.66699 -19.5 -11 -31.5s-3.5 -24.333 -3.5 -37v-378c0 -12 1 -23.833 3 -35.5s5.5 -22.167 10.5 -31.5
s11.5 -17 19.5 -23s18 -9 30 -9s22 2.83301 30 8.5s14.5 13 19.5 22s8.66699 19.5 11 31.5s3.5 24.333 3.5 37v177h-56zM193 837.999l58 -135h-48l-36 93l-36 -93h-48l58 135h52z" />
    <glyph glyph-name="gcircumflex" unicode="&#x11d;" horiz-adv-x="321" 
d="M211 432c-3.33301 8.66699 -9.5 16.668 -18.5 24.001s-20.167 11 -33.5 11c-21.333 0 -35.833 -9.16699 -43.5 -27.5s-11.5 -41.5 -11.5 -69.5v-232c0 -12.667 0.666992 -24.834 2 -36.501s4 -22 8 -31s9.33301 -16.167 16 -21.5s15.667 -8 27 -8
c13.333 0 24.333 4.83301 33 14.5s15.667 21.167 21 34.5v342zM104 -77.999l0.000976562 -8.99902c0 -22 4.66699 -39.5 14 -52.5s22.333 -19.5 39 -19.5c22.667 0 37.334 9.33301 44.001 28s10 41.667 10 69v110c-7.33301 -17.333 -17 -31.333 -29 -42s-27.667 -16 -47 -16
c-31.333 0 -54.333 12.5 -69 37.5s-22 65.833 -22 122.5v208c0 52 8.16699 91.667 24.5 119s42.166 41 77.499 41c22 0 38.833 -4.83301 50.5 -14.5s21.167 -20.834 28.5 -33.501l7 38h39v-557c0 -52 -9 -91.833 -27 -119.5s-47 -41.5 -87 -41.5
c-34.667 0 -61.834 10.167 -81.501 30.5s-29.5 50.833 -29.5 91.5v10h58zM187.001 683.002l58 -135h-48l-36 93l-36 -93h-48l58 135h52z" />
    <glyph glyph-name="Gbreve" unicode="&#x11e;" horiz-adv-x="332" 
d="M175 321v54.999h116v-225c0 -52 -10.333 -91.833 -31 -119.5s-51.667 -41.5 -93 -41.5c-40.667 0 -71.334 13.833 -92.001 41.5s-31 67.5 -31 119.5v363c0 52 10.333 91.833 31 119.5s51.334 41.5 92.001 41.5c42 0 73.167 -13.5 93.5 -40.5s30.5 -69.167 30.5 -126.5
v-11h-60v25c0 12.667 -1.16699 24.834 -3.5 36.501s-6 22 -11 31s-11.5 16.333 -19.5 22s-18 8.5 -30 8.5c-11.333 0 -21 -2.66699 -29 -8s-14.5 -12.5 -19.5 -21.5s-8.66699 -19.5 -11 -31.5s-3.5 -24.333 -3.5 -37v-378c0 -12 1 -23.833 3 -35.5s5.5 -22.167 10.5 -31.5
s11.5 -17 19.5 -23s18 -9 30 -9s22 2.83301 30 8.5s14.5 13 19.5 22s8.66699 19.5 11 31.5s3.5 24.333 3.5 37v177h-56zM252 819.999v-12c0 -26.667 -7.16699 -48 -21.5 -64s-35.5 -24 -63.5 -24s-49.5 8 -64.5 24s-22.5 37.333 -22.5 64v12h50v-12c0 -28 12.333 -42 37 -42
s37 14 37 42v12h48z" />
    <glyph glyph-name="gbreve" unicode="&#x11f;" horiz-adv-x="321" 
d="M211 432c-3.33301 8.66699 -9.5 16.668 -18.5 24.001s-20.167 11 -33.5 11c-21.333 0 -35.833 -9.16699 -43.5 -27.5s-11.5 -41.5 -11.5 -69.5v-232c0 -12.667 0.666992 -24.834 2 -36.501s4 -22 8 -31s9.33301 -16.167 16 -21.5s15.667 -8 27 -8
c13.333 0 24.333 4.83301 33 14.5s15.667 21.167 21 34.5v342zM104 -77.999l0.000976562 -8.99902c0 -22 4.66699 -39.5 14 -52.5s22.333 -19.5 39 -19.5c22.667 0 37.334 9.33301 44.001 28s10 41.667 10 69v110c-7.33301 -17.333 -17 -31.333 -29 -42s-27.667 -16 -47 -16
c-31.333 0 -54.333 12.5 -69 37.5s-22 65.833 -22 122.5v208c0 52 8.16699 91.667 24.5 119s42.166 41 77.499 41c22 0 38.833 -4.83301 50.5 -14.5s21.167 -20.834 28.5 -33.501l7 38h39v-557c0 -52 -9 -91.833 -27 -119.5s-47 -41.5 -87 -41.5
c-34.667 0 -61.834 10.167 -81.501 30.5s-29.5 50.833 -29.5 91.5v10h58zM246.001 665.002v-12c0 -26.667 -7.16699 -48 -21.5 -64s-35.5 -24 -63.5 -24s-49.5 8 -64.5 24s-22.5 37.333 -22.5 64v12h50v-12c0 -28 12.333 -42 37 -42s37 14 37 42v12h48z" />
    <glyph glyph-name="Gdotaccent" unicode="&#x120;" horiz-adv-x="332" 
d="M175 321v54.999h116v-225c0 -52 -10.333 -91.833 -31 -119.5s-51.667 -41.5 -93 -41.5c-40.667 0 -71.334 13.833 -92.001 41.5s-31 67.5 -31 119.5v363c0 52 10.333 91.833 31 119.5s51.334 41.5 92.001 41.5c42 0 73.167 -13.5 93.5 -40.5s30.5 -69.167 30.5 -126.5
v-11h-60v25c0 12.667 -1.16699 24.834 -3.5 36.501s-6 22 -11 31s-11.5 16.333 -19.5 22s-18 8.5 -30 8.5c-11.333 0 -21 -2.66699 -29 -8s-14.5 -12.5 -19.5 -21.5s-8.66699 -19.5 -11 -31.5s-3.5 -24.333 -3.5 -37v-378c0 -12 1 -23.833 3 -35.5s5.5 -22.167 10.5 -31.5
s11.5 -17 19.5 -23s18 -9 30 -9s22 2.83301 30 8.5s14.5 13 19.5 22s8.66699 19.5 11 31.5s3.5 24.333 3.5 37v177h-56zM167 811.999c11.333 0 20.666 -3.5 27.999 -10.5s11 -16.833 11 -29.5c0 -12 -3.66699 -21.5 -11 -28.5s-16.666 -10.5 -27.999 -10.5
s-20.666 3.5 -27.999 10.5s-11 16.5 -11 28.5c0 12.667 3.66699 22.5 11 29.5s16.666 10.5 27.999 10.5z" />
    <glyph glyph-name="gdotaccent" unicode="&#x121;" horiz-adv-x="321" 
d="M211 432c-3.33301 8.66699 -9.5 16.668 -18.5 24.001s-20.167 11 -33.5 11c-21.333 0 -35.833 -9.16699 -43.5 -27.5s-11.5 -41.5 -11.5 -69.5v-232c0 -12.667 0.666992 -24.834 2 -36.501s4 -22 8 -31s9.33301 -16.167 16 -21.5s15.667 -8 27 -8
c13.333 0 24.333 4.83301 33 14.5s15.667 21.167 21 34.5v342zM104 -77.999l0.000976562 -8.99902c0 -22 4.66699 -39.5 14 -52.5s22.333 -19.5 39 -19.5c22.667 0 37.334 9.33301 44.001 28s10 41.667 10 69v110c-7.33301 -17.333 -17 -31.333 -29 -42s-27.667 -16 -47 -16
c-31.333 0 -54.333 12.5 -69 37.5s-22 65.833 -22 122.5v208c0 52 8.16699 91.667 24.5 119s42.166 41 77.499 41c22 0 38.833 -4.83301 50.5 -14.5s21.167 -20.834 28.5 -33.501l7 38h39v-557c0 -52 -9 -91.833 -27 -119.5s-47 -41.5 -87 -41.5
c-34.667 0 -61.834 10.167 -81.501 30.5s-29.5 50.833 -29.5 91.5v10h58zM161.001 657.002c11.333 0 20.666 -3.5 27.999 -10.5s11 -16.833 11 -29.5c0 -12 -3.66699 -21.5 -11 -28.5s-16.666 -10.5 -27.999 -10.5s-20.666 3.5 -27.999 10.5s-11 16.5 -11 28.5
c0 12.667 3.66699 22.5 11 29.5s16.666 10.5 27.999 10.5z" />
    <glyph glyph-name="Gcommaaccent" unicode="&#x122;" horiz-adv-x="332" 
d="M175 321v54.999h116v-225c0 -52 -10.333 -91.833 -31 -119.5s-51.667 -41.5 -93 -41.5c-40.667 0 -71.334 13.833 -92.001 41.5s-31 67.5 -31 119.5v363c0 52 10.333 91.833 31 119.5s51.334 41.5 92.001 41.5c42 0 73.167 -13.5 93.5 -40.5s30.5 -69.167 30.5 -126.5
v-11h-60v25c0 12.667 -1.16699 24.834 -3.5 36.501s-6 22 -11 31s-11.5 16.333 -19.5 22s-18 8.5 -30 8.5c-11.333 0 -21 -2.66699 -29 -8s-14.5 -12.5 -19.5 -21.5s-8.66699 -19.5 -11 -31.5s-3.5 -24.333 -3.5 -37v-378c0 -12 1 -23.833 3 -35.5s5.5 -22.167 10.5 -31.5
s11.5 -17 19.5 -23s18 -9 30 -9s22 2.83301 30 8.5s14.5 13 19.5 22s8.66699 19.5 11 31.5s3.5 24.333 3.5 37v177h-56zM163 -161.001h-43l23 121h58z" />
    <glyph glyph-name="gcommaaccent" unicode="&#x123;" horiz-adv-x="321" 
d="M211 432c-3.33301 8.66699 -9.5 16.668 -18.5 24.001s-20.167 11 -33.5 11c-21.333 0 -35.833 -9.16699 -43.5 -27.5s-11.5 -41.5 -11.5 -69.5v-232c0 -12.667 0.666992 -24.834 2 -36.501s4 -22 8 -31s9.33301 -16.167 16 -21.5s15.667 -8 27 -8
c13.333 0 24.333 4.83301 33 14.5s15.667 21.167 21 34.5v342zM104 -77.999l0.000976562 -8.99902c0 -22 4.66699 -39.5 14 -52.5s22.333 -19.5 39 -19.5c22.667 0 37.334 9.33301 44.001 28s10 41.667 10 69v110c-7.33301 -17.333 -17 -31.333 -29 -42s-27.667 -16 -47 -16
c-31.333 0 -54.333 12.5 -69 37.5s-22 65.833 -22 122.5v208c0 52 8.16699 91.667 24.5 119s42.166 41 77.499 41c22 0 38.833 -4.83301 50.5 -14.5s21.167 -20.834 28.5 -33.501l7 38h39v-557c0 -52 -9 -91.833 -27 -119.5s-47 -41.5 -87 -41.5
c-34.667 0 -61.834 10.167 -81.501 30.5s-29.5 50.833 -29.5 91.5v10h58zM173.001 677.002h39l-15 -121h-58z" />
    <glyph glyph-name="Hcircumflex" unicode="&#x124;" horiz-adv-x="361" 
d="M248 0v328h-135v-328h-60v665h60v-282h135v282h60v-665h-60zM206 838l58 -135h-48l-36 93l-36 -93h-48l58 135h52z" />
    <glyph glyph-name="hcircumflex" unicode="&#x125;" horiz-adv-x="329" 
d="M113 459c7.33301 14.667 17.002 28.166 29.002 40.499s28.667 18.5 50 18.5c31.333 0 53.666 -13 66.999 -39s20 -65 20 -117v-362h-55l-5 64v306c0 28 -3.33301 51.167 -10 69.5s-20.334 27.5 -41.001 27.5c-14 0 -25.5 -5.16699 -34.5 -15.5
s-15.833 -22.166 -20.5 -35.499v-416h-60v710h54l6 -65v-186zM163.002 874.999l58 -135h-48l-36 93l-36 -93h-48l58 135h52z" />
    <glyph glyph-name="Hbar" unicode="&#x126;" horiz-adv-x="361" 
d="M248 0v328h-135v-328h-60v665h60v-136h135v136h60v-665h-60zM248 383v95h-135v-95h135z" />
    <glyph glyph-name="hbar" unicode="&#x127;" horiz-adv-x="329" 
d="M113 627l112.002 -0.000976562v-39h-112v-129c7.33301 14.667 17 28.167 29 40.5s28.667 18.5 50 18.5c31.333 0 53.666 -13 66.999 -39s20 -65 20 -117v-362h-55l-5 64v306c0 28 -3.33301 51.167 -10 69.5s-20.334 27.5 -41.001 27.5c-14 0 -25.5 -5.16699 -34.5 -15.5
s-15.833 -22.166 -20.5 -35.499v-416h-60v588h-31v39h31v83h54l6 -65v-18z" />
    <glyph glyph-name="Itilde" unicode="&#x128;" horiz-adv-x="166" 
d="M53 0v665h60v-665h-60zM-21 724c0 36 5.66699 60.332 17 72.999s24.666 19 39.999 19c10.667 0 20 -2.16699 28 -6.5s15.167 -9.33301 21.5 -15s12.333 -10.667 18 -15s11.834 -6.5 18.501 -6.5c5.33301 0 9.83301 2.5 13.5 7.5s5.5 16.167 5.5 33.5v5h46v-5
c0 -18 -1.5 -32.833 -4.5 -44.5s-7 -21 -12 -28s-11 -12 -18 -15s-14.167 -4.5 -21.5 -4.5c-10 0 -19.167 2.33301 -27.5 7s-15.833 9.83398 -22.5 15.501l-18.5 15.5c-5.66699 4.66699 -11.167 7 -16.5 7c-6 0 -11 -2.66699 -15 -8s-6 -17 -6 -35v-4h-46v4z" />
    <glyph glyph-name="itilde" unicode="&#x129;" horiz-adv-x="166" 
d="M53 508h54l7 -65v-443h-61v508zM-21 569c0 36 5.66699 60.332 17 72.999s24.666 19 39.999 19c10.667 0 20 -2.16699 28 -6.5s15.167 -9.33301 21.5 -15s12.333 -10.667 18 -15s11.834 -6.5 18.501 -6.5c5.33301 0 9.83301 2.5 13.5 7.5s5.5 16.167 5.5 33.5v5h46v-5
c0 -18 -1.5 -32.833 -4.5 -44.5s-7 -21 -12 -28s-11 -12 -18 -15s-14.167 -4.5 -21.5 -4.5c-10 0 -19.167 2.33301 -27.5 7s-15.833 9.83398 -22.5 15.501l-18.5 15.5c-5.66699 4.66699 -11.167 7 -16.5 7c-6 0 -11 -2.66699 -15 -8s-6 -17 -6 -35v-4h-46v4z" />
    <glyph glyph-name="Imacron" unicode="&#x12a;" horiz-adv-x="166" 
d="M53 0v665h60v-665h-60zM0 799h166v-52h-166v52z" />
    <glyph glyph-name="imacron" unicode="&#x12b;" horiz-adv-x="166" 
d="M53 508h54l7 -65v-443h-61v508zM0 644h166v-52h-166v52z" />
    <glyph glyph-name="Ibreve" unicode="&#x12c;" horiz-adv-x="166" 
d="M53 0v665h60v-665h-60zM168 820v-12c0 -26.667 -7.16699 -48 -21.5 -64s-35.5 -24 -63.5 -24s-49.5 8 -64.5 24s-22.5 37.333 -22.5 64v12h50v-12c0 -28 12.333 -42 37 -42s37 14 37 42v12h48z" />
    <glyph glyph-name="ibreve" unicode="&#x12d;" horiz-adv-x="166" 
d="M53 508h54l7 -65v-443h-61v508zM168 665v-12c0 -26.667 -7.16699 -48 -21.5 -64s-35.5 -24 -63.5 -24s-49.5 8 -64.5 24s-22.5 37.333 -22.5 64v12h50v-12c0 -28 12.333 -42 37 -42s37 14 37 42v12h48z" />
    <glyph glyph-name="Iogonek" unicode="&#x12e;" horiz-adv-x="166" 
d="M101 0c-25.333 -14 -45 -31.668 -59 -53.001s-21 -44.333 -21 -69s8.66699 -37 26 -37c8 0 14.333 2.83301 19 8.5s7 15.834 7 30.501v6h40v-6c0 -22.667 -5.33301 -41.5 -16 -56.5s-27.667 -22.5 -51 -22.5c-22.667 0 -39.667 6.66699 -51 20s-17 31 -17 53
c0 28.667 7 54 21 76s32 40.333 54 55v660h60v-665h-12z" />
    <glyph glyph-name="iogonek" unicode="&#x12f;" horiz-adv-x="165" 
d="M101 0c-25.333 -14 -45 -31.668 -59 -53.001s-21 -44.333 -21 -69s8.66699 -37 26 -37c8 0 14.333 2.83301 19 8.5s7 15.834 7 30.501v6h40v-6c0 -22.667 -5.33301 -41.5 -16 -56.5s-27.667 -22.5 -51 -22.5c-22.667 0 -39.667 6.66699 -51 20s-17 31 -17 53
c0 28.667 7 54 21 76s32 40.333 54 55v503h53l7 -65v-443h-12zM83 650.999c11.333 0 20.5 -3.33301 27.5 -10s10.5 -16 10.5 -28s-3.5 -21.333 -10.5 -28s-16.167 -10 -27.5 -10s-20.5 3.33301 -27.5 10s-10.5 16 -10.5 28s3.5 21.333 10.5 28s16.167 10 27.5 10z" />
    <glyph glyph-name="Idotaccent" unicode="&#x130;" horiz-adv-x="166" 
d="M53 0v665h60v-665h-60zM83 812c11.333 0 20.666 -3.5 27.999 -10.5s11 -16.833 11 -29.5c0 -12 -3.66699 -21.5 -11 -28.5s-16.666 -10.5 -27.999 -10.5s-20.666 3.5 -27.999 10.5s-11 16.5 -11 28.5c0 12.667 3.66699 22.5 11 29.5s16.666 10.5 27.999 10.5z" />
    <glyph glyph-name="dotlessi" unicode="&#x131;" horiz-adv-x="166" 
d="M53 508h54l7 -65v-443h-61v508z" />
    <glyph glyph-name="IJ" unicode="&#x132;" horiz-adv-x="376" 
d="M53 0v665h60v-665h-60zM189 44c14.667 0.666992 26.833 3.99902 36.5 9.99902s17.5 13.667 23.5 23s10.167 19.833 12.5 31.5s3.5 23.167 3.5 34.5v522h60v-514c0 -50 -11.333 -88.667 -34 -116s-56.667 -42.666 -102 -45.999v55z" />
    <glyph glyph-name="ij" unicode="&#x133;" horiz-adv-x="327" 
d="M53 508h53l7 -65v-443h-60v508zM83 651c11.333 0 20.5 -3.33301 27.5 -10s10.5 -16 10.5 -28s-3.5 -21.333 -10.5 -28s-16.167 -10 -27.5 -10s-20.5 3.33301 -27.5 10s-10.5 16 -10.5 28s3.5 21.333 10.5 28s16.167 10 27.5 10zM267 508l7 -65v-483
c0 -60.667 -9.33301 -104.167 -28 -130.5s-48.334 -39.5 -89.001 -39.5v55c12.667 0 22.834 2.83301 30.501 8.5s13.5 13.167 17.5 22.5s6.5 20.5 7.5 33.5s1.5 26.833 1.5 41.5v557h53zM244 651c11.333 0 20.5 -3.33301 27.5 -10s10.5 -16 10.5 -28s-3.5 -21.333 -10.5 -28
s-16.167 -10 -27.5 -10s-20.5 3.33301 -27.5 10s-10.5 16 -10.5 28s3.5 21.333 10.5 28s16.167 10 27.5 10z" />
    <glyph glyph-name="Jcircumflex" unicode="&#x134;" horiz-adv-x="210" 
d="M23 44c14.667 0.666992 26.833 3.99902 36.5 9.99902s17.5 13.667 23.5 23s10.167 19.833 12.5 31.5s3.5 23.167 3.5 34.5v522h60v-514c0 -50 -11.333 -88.667 -34 -116s-56.667 -42.666 -102 -45.999v55zM154.999 837.999l58 -135h-48l-36 93l-36 -93h-48l58 135h52z
" />
    <glyph glyph-name="jcircumflex" unicode="&#x135;" horiz-adv-x="167" 
d="M106 508l7 -65v-483c0 -60.667 -9.33301 -104.167 -28 -130.5s-48.334 -39.5 -89.001 -39.5v55c12.667 0 22.834 2.83301 30.501 8.5s13.5 13.167 17.5 22.5s6.5 20.5 7.5 33.5s1.5 26.833 1.5 41.5v557h53zM110 683l58 -135h-48l-36 93l-36 -93h-48l58 135h52z" />
    <glyph glyph-name="Kcommaaccent" unicode="&#x136;" horiz-adv-x="340" 
d="M199 381l130 -381h-63l-107 321l-46 -94v-227h-60v665h60v-343l147 343h63zM166 -161h-43l23 121h58z" />
    <glyph glyph-name="kcommaaccent" unicode="&#x137;" horiz-adv-x="313" 
d="M198 325l100 -325h-61l-80 270l-44 -77v-193h-60v710h54l6 -64v-384l124 246h60zM165 -161h-43l23 121h58z" />
    <glyph glyph-name="Lacute" unicode="&#x139;" horiz-adv-x="291" 
d="M113 665v-610h160v-55h-220v665h60zM190 838l-57 -135h-49l44 135h62z" />
    <glyph glyph-name="lacute" unicode="&#x13a;" horiz-adv-x="165" 
d="M113 645v-645h-55l-5 65v645h54zM157 875l-57 -135h-49l44 135h62z" />
    <glyph glyph-name="Lcommaaccent" unicode="&#x13b;" horiz-adv-x="291" 
d="M113 665v-610h160v-55h-220v665h60zM154 -161h-43l23 121h58z" />
    <glyph glyph-name="lcommaaccent" unicode="&#x13c;" horiz-adv-x="165" 
d="M113 645v-645h-55l-5 65v645h54zM79 -161h-43l23 121h58z" />
    <glyph glyph-name="Lcaron" unicode="&#x13d;" horiz-adv-x="291" 
d="M113 665v-610h160v-55h-220v665h60zM220 548h-32l16 125h50z" />
    <glyph glyph-name="lcaron" unicode="&#x13e;" horiz-adv-x="212" 
d="M113 645v-645h-55l-5 65v645h54zM185 568h-32l16 125h50z" />
    <glyph glyph-name="Ldot" unicode="&#x13f;" horiz-adv-x="291" 
d="M113 665v-610h160v-55h-220v665h60zM182 347c0 12.667 3.83301 22.667 11.5 30s17.5 11 29.5 11s21.833 -3.66699 29.5 -11s11.5 -17.333 11.5 -30s-3.83301 -22.667 -11.5 -30s-17.5 -11 -29.5 -11s-21.833 3.66699 -29.5 11s-11.5 17.333 -11.5 30z" />
    <glyph glyph-name="ldot" unicode="&#x140;" horiz-adv-x="234" 
d="M113 645v-645h-55l-5 65v645h54zM150 347c0 12.667 3.83301 22.667 11.5 30s17.5 11 29.5 11s21.833 -3.66699 29.5 -11s11.5 -17.333 11.5 -30s-3.83301 -22.667 -11.5 -30s-17.5 -11 -29.5 -11s-21.833 3.66699 -29.5 11s-11.5 17.333 -11.5 30z" />
    <glyph glyph-name="Lslash" unicode="&#x141;" horiz-adv-x="298" 
d="M8 292l55 32v341h60v-307l122 71v-61l-122 -71v-242h160v-55h-220v263l-55 -32v61z" />
    <glyph glyph-name="lslash" unicode="&#x142;" horiz-adv-x="175" 
d="M11 352l47 27v331h54l6 -65v-231l48 28v-60l-48 -28v-354h-55l-5 65v254l-47 -27v60z" />
    <glyph glyph-name="Nacute" unicode="&#x143;" horiz-adv-x="369" 
d="M316 0h-70l-140 550h-3v-550h-50v665h69l140 -560h3v560h51v-665zM248 838l-57 -135h-49l44 135h62z" />
    <glyph glyph-name="nacute" unicode="&#x144;" horiz-adv-x="329" 
d="M110 458c6 17.333 16.1689 31.666 30.502 42.999s31.5 17 51.5 17c31.333 0 53.666 -13 66.999 -39s20 -65 20 -117v-362h-54l-6 65v305c0 28 -3.33301 51.167 -10 69.5s-20.334 27.5 -41.001 27.5c-14 0 -25.5 -5.16699 -34.5 -15.5s-15.833 -22.166 -20.5 -35.499v-416
h-60v508h52zM229.002 683l-57 -135h-49l44 135h62z" />
    <glyph glyph-name="Ncommaaccent" unicode="&#x145;" horiz-adv-x="369" 
d="M316 0h-70l-140 550h-3v-550h-50v665h69l140 -560h3v560h51v-665zM180 -161h-43l23 121h58z" />
    <glyph glyph-name="ncommaaccent" unicode="&#x146;" horiz-adv-x="329" 
d="M110 458c6 17.333 16.1689 31.666 30.502 42.999s31.5 17 51.5 17c31.333 0 53.666 -13 66.999 -39s20 -65 20 -117v-362h-54l-6 65v305c0 28 -3.33301 51.167 -10 69.5s-20.334 27.5 -41.001 27.5c-14 0 -25.5 -5.16699 -34.5 -15.5s-15.833 -22.166 -20.5 -35.499v-416
h-60v508h52zM161.002 -161h-43l23 121h58z" />
    <glyph glyph-name="Ncaron" unicode="&#x147;" horiz-adv-x="369" 
d="M316 0h-70l-140 550h-3v-550h-50v665h69l140 -560h3v560h51v-665zM159 703l-57 135h46l36 -94l36 94h46l-57 -135h-50z" />
    <glyph glyph-name="ncaron" unicode="&#x148;" horiz-adv-x="329" 
d="M110 458c6 17.333 16.1689 31.666 30.502 42.999s31.5 17 51.5 17c31.333 0 53.666 -13 66.999 -39s20 -65 20 -117v-362h-54l-6 65v305c0 28 -3.33301 51.167 -10 69.5s-20.334 27.5 -41.001 27.5c-14 0 -25.5 -5.16699 -34.5 -15.5s-15.833 -22.166 -20.5 -35.499v-416
h-60v508h52zM140.002 548l-57 135h46l36 -94l36 94h46l-57 -135h-50z" />
    <glyph glyph-name="Omacron" unicode="&#x14c;" 
d="M287 151c0 -52 -10 -91.833 -30 -119.5s-50.667 -41.5 -92 -41.5s-71.833 13.833 -91.5 41.5s-29.5 67.5 -29.5 119.5v363c0 52 10 91.833 30 119.5s50.333 41.5 91 41.5c41.333 0 72 -13.833 92 -41.5s30 -67.5 30 -119.5v-363zM227 522c0 12 -1 23.8311 -3 35.498
s-5.5 22.167 -10.5 31.5s-11.333 16.833 -19 22.5s-17.5 8.5 -29.5 8.5s-21.833 -2.83301 -29.5 -8.5s-13.834 -13.167 -18.501 -22.5s-8 -19.833 -10 -31.5s-3 -23.5 -3 -35.5v-378c0 -12 1 -23.833 3 -35.5s5.33301 -22.167 10 -31.5s10.834 -17 18.501 -23
s17.5 -9 29.5 -9s21.833 2.83301 29.5 8.5s14 13.334 19 23.001s8.5 20.334 10.5 32.001s3 23.5 3 35.5v378zM83 798.998h166v-52h-166v52z" />
    <glyph glyph-name="omacron" unicode="&#x14d;" horiz-adv-x="315" 
d="M271 149c0 -52 -8.83301 -91.5 -26.5 -118.5s-46.834 -40.5 -87.501 -40.5s-69.667 13.5 -87 40.5s-26 66.5 -26 118.5v210c0 52 8.66699 91.5 26 118.5s46.333 40.5 87 40.5s69.834 -13.5 87.501 -40.5s26.5 -66.5 26.5 -118.5v-210zM211 370
c0 12.667 -0.833008 24.832 -2.5 36.499s-4.5 22 -8.5 31s-9.5 16.167 -16.5 21.5s-15.833 8 -26.5 8c-11.333 0 -20.333 -2.83301 -27 -8.5s-12 -13 -16 -22s-6.66699 -19.333 -8 -31s-2 -23.5 -2 -35.5v-232c0 -12 0.666992 -23.833 2 -35.5s4 -22 8 -31
s9.33301 -16.333 16 -22s15.667 -8.5 27 -8.5c10.667 0 19.5 2.66699 26.5 8s12.5 12.5 16.5 21.5s6.83301 19.333 8.5 31s2.5 23.834 2.5 36.501v232zM74 643.998h166v-52h-166v52z" />
    <glyph glyph-name="Obreve" unicode="&#x14e;" 
d="M287 151c0 -52 -10 -91.833 -30 -119.5s-50.667 -41.5 -92 -41.5s-71.833 13.833 -91.5 41.5s-29.5 67.5 -29.5 119.5v363c0 52 10 91.833 30 119.5s50.333 41.5 91 41.5c41.333 0 72 -13.833 92 -41.5s30 -67.5 30 -119.5v-363zM227 522c0 12 -1 23.8311 -3 35.498
s-5.5 22.167 -10.5 31.5s-11.333 16.833 -19 22.5s-17.5 8.5 -29.5 8.5s-21.833 -2.83301 -29.5 -8.5s-13.834 -13.167 -18.501 -22.5s-8 -19.833 -10 -31.5s-3 -23.5 -3 -35.5v-378c0 -12 1 -23.833 3 -35.5s5.33301 -22.167 10 -31.5s10.834 -17 18.501 -23
s17.5 -9 29.5 -9s21.833 2.83301 29.5 8.5s14 13.334 19 23.001s8.5 20.334 10.5 32.001s3 23.5 3 35.5v378zM251 819.998v-12c0 -26.667 -7.16699 -48 -21.5 -64s-35.5 -24 -63.5 -24s-49.5 8 -64.5 24s-22.5 37.333 -22.5 64v12h50v-12c0 -28 12.333 -42 37 -42
s37 14 37 42v12h48z" />
    <glyph glyph-name="obreve" unicode="&#x14f;" horiz-adv-x="315" 
d="M271 149c0 -52 -8.83301 -91.5 -26.5 -118.5s-46.834 -40.5 -87.501 -40.5s-69.667 13.5 -87 40.5s-26 66.5 -26 118.5v210c0 52 8.66699 91.5 26 118.5s46.333 40.5 87 40.5s69.834 -13.5 87.501 -40.5s26.5 -66.5 26.5 -118.5v-210zM211 370
c0 12.667 -0.833008 24.832 -2.5 36.499s-4.5 22 -8.5 31s-9.5 16.167 -16.5 21.5s-15.833 8 -26.5 8c-11.333 0 -20.333 -2.83301 -27 -8.5s-12 -13 -16 -22s-6.66699 -19.333 -8 -31s-2 -23.5 -2 -35.5v-232c0 -12 0.666992 -23.833 2 -35.5s4 -22 8 -31
s9.33301 -16.333 16 -22s15.667 -8.5 27 -8.5c10.667 0 19.5 2.66699 26.5 8s12.5 12.5 16.5 21.5s6.83301 19.333 8.5 31s2.5 23.834 2.5 36.501v232zM242 664.998v-12c0 -26.667 -7.16699 -48 -21.5 -64s-35.5 -24 -63.5 -24s-49.5 8 -64.5 24s-22.5 37.333 -22.5 64v12
h50v-12c0 -28 12.333 -42 37 -42s37 14 37 42v12h48z" />
    <glyph glyph-name="Ohungarumlaut" unicode="&#x150;" 
d="M287 151c0 -52 -10 -91.833 -30 -119.5s-50.667 -41.5 -92 -41.5s-71.833 13.833 -91.5 41.5s-29.5 67.5 -29.5 119.5v363c0 52 10 91.833 30 119.5s50.333 41.5 91 41.5c41.333 0 72 -13.833 92 -41.5s30 -67.5 30 -119.5v-363zM227 522c0 12 -1 23.8311 -3 35.498
s-5.5 22.167 -10.5 31.5s-11.333 16.833 -19 22.5s-17.5 8.5 -29.5 8.5s-21.833 -2.83301 -29.5 -8.5s-13.834 -13.167 -18.501 -22.5s-8 -19.833 -10 -31.5s-3 -23.5 -3 -35.5v-378c0 -12 1 -23.833 3 -35.5s5.33301 -22.167 10 -31.5s10.834 -17 18.501 -23
s17.5 -9 29.5 -9s21.833 2.83301 29.5 8.5s14 13.334 19 23.001s8.5 20.334 10.5 32.001s3 23.5 3 35.5v378zM295 837.998l-64 -135h-46l49 135h61zM190 837.998l-59 -135h-47l46 135h60z" />
    <glyph glyph-name="ohungarumlaut" unicode="&#x151;" horiz-adv-x="315" 
d="M271 149c0 -52 -8.83301 -91.5 -26.5 -118.5s-46.834 -40.5 -87.501 -40.5s-69.667 13.5 -87 40.5s-26 66.5 -26 118.5v210c0 52 8.66699 91.5 26 118.5s46.333 40.5 87 40.5s69.834 -13.5 87.501 -40.5s26.5 -66.5 26.5 -118.5v-210zM211 370
c0 12.667 -0.833008 24.832 -2.5 36.499s-4.5 22 -8.5 31s-9.5 16.167 -16.5 21.5s-15.833 8 -26.5 8c-11.333 0 -20.333 -2.83301 -27 -8.5s-12 -13 -16 -22s-6.66699 -19.333 -8 -31s-2 -23.5 -2 -35.5v-232c0 -12 0.666992 -23.833 2 -35.5s4 -22 8 -31
s9.33301 -16.333 16 -22s15.667 -8.5 27 -8.5c10.667 0 19.5 2.66699 26.5 8s12.5 12.5 16.5 21.5s6.83301 19.333 8.5 31s2.5 23.834 2.5 36.501v232zM286 682.998l-64 -135h-46l49 135h61zM181 682.998l-59 -135h-47l46 135h60z" />
    <glyph glyph-name="OE" unicode="&#x152;" horiz-adv-x="464" 
d="M441 609h-151.999v-224h126v-55h-126v-275h152v-55h-200v36c-9.33301 -14.667 -20.5 -26 -33.5 -34s-30.167 -12 -51.5 -12c-36.667 0 -64.5 13.833 -83.5 41.5s-28.5 67.5 -28.5 119.5v363c0 52 9.83301 91.833 29.5 119.5s47.167 41.5 82.5 41.5
c21.333 0 38.666 -4.33301 51.999 -13s24.333 -19.667 33 -33v36h200v-56zM167.001 45c11.333 0 20.833 2.66797 28.5 8.00098s14 12.333 19 21s8.66699 18.667 11 30s3.5 22.666 3.5 33.999v384c0 12 -1 23.833 -3 35.5s-5.5 22.167 -10.5 31.5s-11.333 16.833 -19 22.5
s-17.5 8.5 -29.5 8.5s-21.833 -2.83301 -29.5 -8.5s-14 -13.167 -19 -22.5s-8.5 -19.833 -10.5 -31.5s-3 -23.5 -3 -35.5v-378c0 -12 1 -23.833 3 -35.5s5.5 -22.167 10.5 -31.5s11.333 -17 19 -23s17.5 -9 29.5 -9z" />
    <glyph glyph-name="oe" unicode="&#x153;" horiz-adv-x="479" 
d="M241 459c8.66699 19.333 20.167 34 34.5 44s32.5 15 54.5 15c38 0 65.5 -13.667 82.5 -41s25.5 -67 25.5 -119v-113h-167v-107c0 -12 0.666992 -23.833 2 -35.5s4 -22 8 -31s9.5 -16.333 16.5 -22s16.167 -8.5 27.5 -8.5c21.333 0 35.666 9.5 42.999 28.5
s11 41.833 11 68.5v17h59v-12c0 -50 -8 -88 -24 -114s-44 -39 -84 -39c-42 0 -71.667 19.667 -89 59c-9.33301 -18.667 -21 -33.167 -35 -43.5s-32.333 -15.5 -55 -15.5c-37.333 0 -64.5 13.5 -81.5 40.5s-25.5 66.5 -25.5 118.5v210c0 52 9.16699 91.5 27.5 118.5
s45.833 40.5 82.5 40.5c22 0 39.833 -5 53.5 -15s24.834 -24.667 33.501 -44zM211 370c0 12.667 -0.833008 24.832 -2.5 36.499s-4.5 22 -8.5 31s-9.5 16.167 -16.5 21.5s-15.833 8 -26.5 8c-11.333 0 -20.333 -2.83301 -27 -8.5s-12 -13 -16 -22s-6.66699 -19.333 -8 -31
s-2 -23.5 -2 -35.5v-232c0 -12 0.666992 -23.833 2 -35.5s4 -22 8 -31s9.33301 -16.333 16 -22s15.667 -8.5 27 -8.5c10.667 0 19.5 2.66699 26.5 8s12.5 12.5 16.5 21.5s6.83301 19.333 8.5 31s2.5 23.834 2.5 36.501v232zM271 293.998h107v76
c0 12.667 -0.666992 24.834 -2 36.501s-4 22 -8 31s-9.5 16.167 -16.5 21.5s-15.833 8 -26.5 8c-11.333 0 -20.5 -2.66699 -27.5 -8s-12.5 -12.5 -16.5 -21.5s-6.66699 -19.333 -8 -31s-2 -23.834 -2 -36.501v-76z" />
    <glyph glyph-name="Racute" unicode="&#x154;" horiz-adv-x="343" 
d="M298 480c0 -36.667 -5.99902 -67.668 -17.999 -93.001s-28.667 -43.666 -50 -54.999l92 -332h-64l-79 315h-66v-315h-60v665h122c41.333 0 72.166 -13.833 92.499 -41.5s30.5 -67.5 30.5 -119.5v-24zM238.001 511.999c0 12.667 -1.16895 24.833 -3.50195 36.5
s-6.16602 22 -11.499 31s-12.166 16.167 -20.499 21.5s-18.5 8 -30.5 8h-59v-239h58c24.667 0 42 9.5 52 28.5s15 42.5 15 70.5v43zM233.999 837.998l-57 -135h-49l44 135h62z" />
    <glyph glyph-name="racute" unicode="&#x155;" horiz-adv-x="233" 
d="M53 508l52.001 0.000976562l5 -50c6.66699 15.333 16.5 29.166 29.5 41.499s28.167 18.5 45.5 18.5c9.33301 0 17 -1 23 -3s12 -5.33301 18 -10l-18 -55c-4.66699 4 -9.33398 6.66699 -14.001 8s-10 2 -16 2c-14.667 0 -27.5 -5 -38.5 -15s-19.833 -21.667 -26.5 -35
v-410h-60v508zM203.001 683.001l-57 -135h-49l44 135h62z" />
    <glyph glyph-name="Rcommaaccent" unicode="&#x156;" horiz-adv-x="343" 
d="M298 480c0 -36.667 -5.99902 -67.668 -17.999 -93.001s-28.667 -43.666 -50 -54.999l92 -332h-64l-79 315h-66v-315h-60v665h122c41.333 0 72.166 -13.833 92.499 -41.5s30.5 -67.5 30.5 -119.5v-24zM238.001 511.999c0 12.667 -1.16895 24.833 -3.50195 36.5
s-6.16602 22 -11.499 31s-12.166 16.167 -20.499 21.5s-18.5 8 -30.5 8h-59v-239h58c24.667 0 42 9.5 52 28.5s15 42.5 15 70.5v43zM165.999 -161.002h-43l23 121h58z" />
    <glyph glyph-name="rcommaaccent" unicode="&#x157;" horiz-adv-x="233" 
d="M53 508l52.001 0.000976562l5 -50c6.66699 15.333 16.5 29.166 29.5 41.499s28.167 18.5 45.5 18.5c9.33301 0 17 -1 23 -3s12 -5.33301 18 -10l-18 -55c-4.66699 4 -9.33398 6.66699 -14.001 8s-10 2 -16 2c-14.667 0 -27.5 -5 -38.5 -15s-19.833 -21.667 -26.5 -35
v-410h-60v508zM77.001 -160.999h-43l23 121h58z" />
    <glyph glyph-name="Rcaron" unicode="&#x158;" horiz-adv-x="343" 
d="M298 480c0 -36.667 -5.99902 -67.668 -17.999 -93.001s-28.667 -43.666 -50 -54.999l92 -332h-64l-79 315h-66v-315h-60v665h122c41.333 0 72.166 -13.833 92.499 -41.5s30.5 -67.5 30.5 -119.5v-24zM238.001 511.999c0 12.667 -1.16895 24.833 -3.50195 36.5
s-6.16602 22 -11.499 31s-12.166 16.167 -20.499 21.5s-18.5 8 -30.5 8h-59v-239h58c24.667 0 42 9.5 52 28.5s15 42.5 15 70.5v43zM144.999 702.998l-57 135h46l36 -94l36 94h46l-57 -135h-50z" />
    <glyph glyph-name="rcaron" unicode="&#x159;" horiz-adv-x="233" 
d="M53 508l52.001 0.000976562l5 -50c6.66699 15.333 16.5 29.166 29.5 41.499s28.167 18.5 45.5 18.5c9.33301 0 17 -1 23 -3s12 -5.33301 18 -10l-18 -55c-4.66699 4 -9.33398 6.66699 -14.001 8s-10 2 -16 2c-14.667 0 -27.5 -5 -38.5 -15s-19.833 -21.667 -26.5 -35
v-410h-60v508zM112.001 548.001l-57 135h46l36 -94l36 94h46l-57 -135h-50z" />
    <glyph glyph-name="Sacute" unicode="&#x15a;" horiz-adv-x="302" 
d="M32 529c0 17.333 2.33203 34.667 6.99902 52s11.667 33 21 47s21.5 25.333 36.5 34s33.167 13 54.5 13c38 0 67.333 -12.5 88 -37.5s31 -64.833 31 -119.5v-21h-60v25c0 12 -0.833008 23.833 -2.5 35.5s-4.83398 22.167 -9.50098 31.5s-10.667 16.833 -18 22.5
s-17 8.5 -29 8.5c-18.667 0 -33 -8.5 -43 -25.5s-15 -37.5 -15 -61.5v-32c0 -22.667 4.83301 -42.834 14.5 -60.501s26.5 -36.167 50.5 -55.5c14.667 -12 28.834 -24.667 42.501 -38s25.667 -27.666 36 -42.999s18.5 -32.166 24.5 -50.499s9 -38.833 9 -61.5v-56
c0 -18 -2.33301 -35.667 -7 -53s-11.667 -32.833 -21 -46.5s-21.666 -24.834 -36.999 -33.501s-33.333 -13 -54 -13c-40.667 0 -70.667 13.833 -90 41.5s-29 66.5 -29 116.5v20h61v-25c0 -12 0.833008 -23.833 2.5 -35.5s4.66699 -22.167 9 -31.5
s10.166 -16.833 17.499 -22.5s17 -8.5 29 -8.5c19.333 0 34 8.5 44 25.5s15 37.5 15 61.5v47c0 31.333 -7.16699 58.833 -21.5 82.5s-34.166 46.167 -59.499 67.5c-14.667 12 -28 23.667 -40 35s-22.167 23.333 -30.5 36s-14.833 26.5 -19.5 41.5s-7 31.833 -7 50.5v37z
M214.999 838.001l-57 -135h-49l44 135h62z" />
    <glyph glyph-name="sacute" unicode="&#x15b;" horiz-adv-x="284" 
d="M90 153l0.00195312 -10c0 -13.333 0.666992 -26 2 -38s3.83301 -22.833 7.5 -32.5s8.83398 -17.334 15.501 -23.001s15.667 -8.5 27 -8.5c16.667 0 29.667 7.83301 39 23.5s14 35.5 14 59.5c0 25.333 -5.16699 47.666 -15.5 66.999s-30.5 39 -60.5 59
c-28 19.333 -49.667 39.833 -65 61.5s-23 50.167 -23 85.5c0 14.667 2.16699 29.334 6.5 44.001s11 27.667 20 39s20.333 20.5 34 27.5s30.167 10.5 49.5 10.5c37.333 0 65.166 -13 83.499 -39s27.5 -63.333 27.5 -112v-9h-59v13c0 12 -0.666992 23.667 -2 35
s-4 21.5 -8 30.5s-9.33301 16.333 -16 22s-15.334 8.5 -26.001 8.5c-19.333 0 -32.666 -7 -39.999 -21s-11 -29.333 -11 -46c0 -23.333 5.66699 -43.166 17 -59.499s31 -33.5 59 -51.5c31.333 -20 53.666 -42.833 66.999 -68.5s20 -55.5 20 -89.5c0 -16 -2 -32.5 -6 -49.5
s-10.333 -32.167 -19 -45.5s-19.834 -24.333 -33.501 -33s-30.167 -13 -49.5 -13c-39.333 0 -68 13.167 -86 39.5s-27 64.5 -27 114.5v9h58zM206.002 683l-57 -135h-49l44 135h62z" />
    <glyph glyph-name="Scircumflex" unicode="&#x15c;" horiz-adv-x="302" 
d="M32 529c0 17.333 2.33203 34.667 6.99902 52s11.667 33 21 47s21.5 25.333 36.5 34s33.167 13 54.5 13c38 0 67.333 -12.5 88 -37.5s31 -64.833 31 -119.5v-21h-60v25c0 12 -0.833008 23.833 -2.5 35.5s-4.83398 22.167 -9.50098 31.5s-10.667 16.833 -18 22.5
s-17 8.5 -29 8.5c-18.667 0 -33 -8.5 -43 -25.5s-15 -37.5 -15 -61.5v-32c0 -22.667 4.83301 -42.834 14.5 -60.501s26.5 -36.167 50.5 -55.5c14.667 -12 28.834 -24.667 42.501 -38s25.667 -27.666 36 -42.999s18.5 -32.166 24.5 -50.499s9 -38.833 9 -61.5v-56
c0 -18 -2.33301 -35.667 -7 -53s-11.667 -32.833 -21 -46.5s-21.666 -24.834 -36.999 -33.501s-33.333 -13 -54 -13c-40.667 0 -70.667 13.833 -90 41.5s-29 66.5 -29 116.5v20h61v-25c0 -12 0.833008 -23.833 2.5 -35.5s4.66699 -22.167 9 -31.5
s10.166 -16.833 17.499 -22.5s17 -8.5 29 -8.5c19.333 0 34 8.5 44 25.5s15 37.5 15 61.5v47c0 31.333 -7.16699 58.833 -21.5 82.5s-34.166 46.167 -59.499 67.5c-14.667 12 -28 23.667 -40 35s-22.167 23.333 -30.5 36s-14.833 26.5 -19.5 41.5s-7 31.833 -7 50.5v37z
M176.999 838.001l58 -135h-48l-36 93l-36 -93h-48l58 135h52z" />
    <glyph glyph-name="scircumflex" unicode="&#x15d;" horiz-adv-x="284" 
d="M90 153l0.00195312 -10c0 -13.333 0.666992 -26 2 -38s3.83301 -22.833 7.5 -32.5s8.83398 -17.334 15.501 -23.001s15.667 -8.5 27 -8.5c16.667 0 29.667 7.83301 39 23.5s14 35.5 14 59.5c0 25.333 -5.16699 47.666 -15.5 66.999s-30.5 39 -60.5 59
c-28 19.333 -49.667 39.833 -65 61.5s-23 50.167 -23 85.5c0 14.667 2.16699 29.334 6.5 44.001s11 27.667 20 39s20.333 20.5 34 27.5s30.167 10.5 49.5 10.5c37.333 0 65.166 -13 83.499 -39s27.5 -63.333 27.5 -112v-9h-59v13c0 12 -0.666992 23.667 -2 35
s-4 21.5 -8 30.5s-9.33301 16.333 -16 22s-15.334 8.5 -26.001 8.5c-19.333 0 -32.666 -7 -39.999 -21s-11 -29.333 -11 -46c0 -23.333 5.66699 -43.166 17 -59.499s31 -33.5 59 -51.5c31.333 -20 53.666 -42.833 66.999 -68.5s20 -55.5 20 -89.5c0 -16 -2 -32.5 -6 -49.5
s-10.333 -32.167 -19 -45.5s-19.834 -24.333 -33.501 -33s-30.167 -13 -49.5 -13c-39.333 0 -68 13.167 -86 39.5s-27 64.5 -27 114.5v9h58zM168.002 683l58 -135h-48l-36 93l-36 -93h-48l58 135h52z" />
    <glyph glyph-name="Scedilla" unicode="&#x15e;" horiz-adv-x="302" 
d="M129 -8c-33.333 4.66699 -57.834 20.3311 -73.501 46.998s-23.5 63 -23.5 109v20h61v-25c0 -12 0.833008 -23.833 2.5 -35.5s4.66699 -22.167 9 -31.5s10.166 -16.833 17.499 -22.5s17 -8.5 29 -8.5c19.333 0 34 8.5 44 25.5s15 37.5 15 61.5v47
c0 31.333 -7.16699 58.833 -21.5 82.5s-34.166 46.167 -59.499 67.5c-14.667 12 -28 23.833 -40 35.5s-22.167 23.834 -30.5 36.501s-14.833 26.334 -19.5 41.001s-7 31.334 -7 50.001v37c0 17.333 2.33301 34.666 7 51.999s11.667 33 21 47s21.5 25.333 36.5 34
s33.167 13 54.5 13c38 0 67.333 -12.5 88 -37.5s31 -64.833 31 -119.5v-21h-60v25c0 12 -0.833008 23.833 -2.5 35.5s-4.83398 22.167 -9.50098 31.5s-10.667 16.833 -18 22.5s-17 8.5 -29 8.5c-18.667 0 -33 -8.5 -43 -25.5s-15 -37.5 -15 -61.5v-32
c0 -22.667 4.83301 -42.834 14.5 -60.501s26.5 -36.167 50.5 -55.5c14.667 -12 28.834 -24.667 42.501 -38s25.667 -27.666 36 -42.999s18.5 -32.166 24.5 -50.499s9 -38.833 9 -61.5v-56c0 -16.667 -2 -33.167 -6 -49.5s-10.333 -31.333 -19 -45s-19.5 -25 -32.5 -34
s-28.833 -14.5 -47.5 -16.5v-35h6c20 0 36.333 -5.66699 49 -17s19 -31 19 -59s-6.5 -48.667 -19.5 -62s-31.167 -20 -54.5 -20s-41.166 6.16699 -53.499 18.5s-18.5 32.166 -18.5 59.499v2h40v-2c0 -26.667 10.667 -40 32 -40c9.33301 0 17 3.5 23 10.5s9 17.833 9 32.5
c0 15.333 -3.33301 26.333 -10 33s-16.667 10 -30 10h-28v70z" />
    <glyph glyph-name="scedilla" unicode="&#x15f;" horiz-adv-x="284" 
d="M123 -8c-32 4.66699 -55.167 20.001 -69.5 46.001s-21.5 61.333 -21.5 106v9h58v-10c0 -13.333 0.666992 -26 2 -38s3.83301 -22.833 7.5 -32.5s8.83398 -17.334 15.501 -23.001s15.667 -8.5 27 -8.5c16.667 0 29.667 7.83301 39 23.5s14 35.5 14 59.5
c0 25.333 -5.16699 47.666 -15.5 66.999s-30.5 39 -60.5 59c-28 19.333 -49.667 39.833 -65 61.5s-23 50.167 -23 85.5c0 14.667 2.16699 29.334 6.5 44.001s11 27.667 20 39s20.333 20.5 34 27.5s30.167 10.5 49.5 10.5c37.333 0 65.166 -13 83.499 -39
s27.5 -63.333 27.5 -112v-9h-59v13c0 12 -0.666992 23.667 -2 35s-4 21.5 -8 30.5s-9.33301 16.333 -16 22s-15.334 8.5 -26.001 8.5c-19.333 0 -32.666 -7 -39.999 -21s-11 -29.333 -11 -46c0 -23.333 5.66699 -43.166 17 -59.499s31 -33.5 59 -51.5
c31.333 -20 53.666 -42.833 66.999 -68.5s20 -55.5 20 -89.5c0 -15.333 -1.83301 -30.833 -5.5 -46.5s-9.16699 -30 -16.5 -43s-17 -24.167 -29 -33.5s-26.333 -15 -43 -17v-35h7c20 0 36.167 -5.66699 48.5 -17s18.5 -31 18.5 -59s-6.5 -48.667 -19.5 -62
s-31.167 -20 -54.5 -20s-41.166 6.16699 -53.499 18.5s-18.5 32.166 -18.5 59.499v2h40v-2c0 -13.333 3 -23.333 9 -30s13.667 -10 23 -10c21.333 0 32 14.333 32 43c0 15.333 -3.16699 26.333 -9.5 33s-16.5 10 -30.5 10h-28v70z" />
    <glyph glyph-name="Scaron" unicode="&#x160;" horiz-adv-x="302" 
d="M32 529c0 17.333 2.33203 34.667 6.99902 52s11.667 33 21 47s21.5 25.333 36.5 34s33.167 13 54.5 13c38 0 67.333 -12.5 88 -37.5s31 -64.833 31 -119.5v-21h-60v25c0 12 -0.833008 23.833 -2.5 35.5s-4.83398 22.167 -9.50098 31.5s-10.667 16.833 -18 22.5
s-17 8.5 -29 8.5c-18.667 0 -33 -8.5 -43 -25.5s-15 -37.5 -15 -61.5v-32c0 -22.667 4.83301 -42.834 14.5 -60.501s26.5 -36.167 50.5 -55.5c14.667 -12 28.834 -24.667 42.501 -38s25.667 -27.666 36 -42.999s18.5 -32.166 24.5 -50.499s9 -38.833 9 -61.5v-56
c0 -18 -2.33301 -35.667 -7 -53s-11.667 -32.833 -21 -46.5s-21.666 -24.834 -36.999 -33.501s-33.333 -13 -54 -13c-40.667 0 -70.667 13.833 -90 41.5s-29 66.5 -29 116.5v20h61v-25c0 -12 0.833008 -23.833 2.5 -35.5s4.66699 -22.167 9 -31.5
s10.166 -16.833 17.499 -22.5s17 -8.5 29 -8.5c19.333 0 34 8.5 44 25.5s15 37.5 15 61.5v47c0 31.333 -7.16699 58.833 -21.5 82.5s-34.166 46.167 -59.499 67.5c-14.667 12 -28 23.667 -40 35s-22.167 23.333 -30.5 36s-14.833 26.5 -19.5 41.5s-7 31.833 -7 50.5v37z
M125.999 703.001l-57 135h46l36 -94l36 94h46l-57 -135h-50z" />
    <glyph glyph-name="scaron" unicode="&#x161;" horiz-adv-x="284" 
d="M90 153l0.00195312 -10c0 -13.333 0.666992 -26 2 -38s3.83301 -22.833 7.5 -32.5s8.83398 -17.334 15.501 -23.001s15.667 -8.5 27 -8.5c16.667 0 29.667 7.83301 39 23.5s14 35.5 14 59.5c0 25.333 -5.16699 47.666 -15.5 66.999s-30.5 39 -60.5 59
c-28 19.333 -49.667 39.833 -65 61.5s-23 50.167 -23 85.5c0 14.667 2.16699 29.334 6.5 44.001s11 27.667 20 39s20.333 20.5 34 27.5s30.167 10.5 49.5 10.5c37.333 0 65.166 -13 83.499 -39s27.5 -63.333 27.5 -112v-9h-59v13c0 12 -0.666992 23.667 -2 35
s-4 21.5 -8 30.5s-9.33301 16.333 -16 22s-15.334 8.5 -26.001 8.5c-19.333 0 -32.666 -7 -39.999 -21s-11 -29.333 -11 -46c0 -23.333 5.66699 -43.166 17 -59.499s31 -33.5 59 -51.5c31.333 -20 53.666 -42.833 66.999 -68.5s20 -55.5 20 -89.5c0 -16 -2 -32.5 -6 -49.5
s-10.333 -32.167 -19 -45.5s-19.834 -24.333 -33.501 -33s-30.167 -13 -49.5 -13c-39.333 0 -68 13.167 -86 39.5s-27 64.5 -27 114.5v9h58zM117.002 548l-57 135h46l36 -94l36 94h46l-57 -135h-50z" />
    <glyph glyph-name="uni0162" unicode="&#x162;" horiz-adv-x="307" 
d="M122 0v609h-106v56h275v-56h-109v-609h-60zM150 -161h-43l23 121h58z" />
    <glyph glyph-name="uni0163" unicode="&#x163;" horiz-adv-x="231" 
d="M220 5c-8.66699 -4.66699 -17.499 -8.33496 -26.499 -11.002s-19.167 -4 -30.5 -4c-40 0 -68.667 13.5 -86 40.5s-26 66.833 -26 119.5v458h54l6 -63v-37h96v-51h-96v-314c0 -11.333 0.666992 -22.666 2 -33.999s4.16602 -21.833 8.49902 -31.5s10.333 -17.5 18 -23.5
s17.5 -9 29.5 -9c6.66699 0 13 0.833008 19 2.5s11.667 3.83398 17 6.50098zM129.001 -161.001h-43l23 121h58z" />
    <glyph glyph-name="Tcaron" unicode="&#x164;" horiz-adv-x="307" 
d="M122 0v609h-106v56h275v-56h-109v-609h-60zM129 703l-57 135h46l36 -94l36 94h46l-57 -135h-50z" />
    <glyph glyph-name="tcaron" unicode="&#x165;" horiz-adv-x="237" 
d="M220 5c-8.66699 -4.66699 -17.499 -8.33496 -26.499 -11.002s-19.167 -4 -30.5 -4c-40 0 -68.667 13.5 -86 40.5s-26 66.833 -26 119.5v458h54l6 -63v-37h96v-51h-96v-314c0 -11.333 0.666992 -22.666 2 -33.999s4.16602 -21.833 8.49902 -31.5s10.333 -17.5 18 -23.5
s17.5 -9 29.5 -9c6.66699 0 13 0.833008 19 2.5s11.667 3.83398 17 6.50098zM183.001 575.999h-32l16 125h50z" />
    <glyph glyph-name="Tbar" unicode="&#x166;" horiz-adv-x="307" 
d="M50 427h72v182h-106v56h275v-56h-109v-182h74v-51h-74v-376h-60v376h-72v51z" />
    <glyph glyph-name="tbar" unicode="&#x167;" horiz-adv-x="231" 
d="M220 5c-8.66699 -4.66699 -17.499 -8.33496 -26.499 -11.002s-19.167 -4 -30.5 -4c-40 0 -68.667 13.5 -86 40.5s-26 66.833 -26 119.5v458h54l6 -63v-37h96v-51h-96v-115h96v-47h-96v-152c0 -11.333 0.666992 -22.666 2 -33.999s4.16602 -21.833 8.49902 -31.5
s10.333 -17.5 18 -23.5s17.5 -9 29.5 -9c6.66699 0 13 0.833008 19 2.5s11.667 3.83398 17 6.50098z" />
    <glyph glyph-name="Utilde" unicode="&#x168;" horiz-adv-x="347" 
d="M296 665l-0.000976562 -515.002c0 -52 -10.167 -91.667 -30.5 -119s-51.166 -41 -92.499 -41c-40.667 0 -71.167 13.667 -91.5 41s-30.5 67 -30.5 119v515h60v-523c0 -11.333 1 -22.666 3 -33.999s5.5 -21.666 10.5 -30.999s11.5 -17 19.5 -23s17.667 -9 29 -9
c12 0 22 2.83301 30 8.5s14.5 13.167 19.5 22.5s8.5 19.833 10.5 31.5s3 23.167 3 34.5v523h60zM68.999 723.998c0 36 5.66699 60.332 17 72.999s24.666 19 39.999 19c10.667 0 20 -2.16699 28 -6.5s15.167 -9.33301 21.5 -15s12.333 -10.667 18 -15
s11.834 -6.5 18.501 -6.5c5.33301 0 9.83301 2.5 13.5 7.5s5.5 16.167 5.5 33.5v5h46v-5c0 -18 -1.5 -32.833 -4.5 -44.5s-7 -21 -12 -28s-11 -12 -18 -15s-14.167 -4.5 -21.5 -4.5c-10 0 -19.167 2.33301 -27.5 7s-15.833 9.83398 -22.5 15.501l-18.5 15.5
c-5.66699 4.66699 -11.167 7 -16.5 7c-6 0 -11 -2.66699 -15 -8s-6 -17 -6 -35v-4h-46v4z" />
    <glyph glyph-name="utilde" unicode="&#x169;" horiz-adv-x="329" 
d="M49 508l59.999 0.000976562v-370c0 -27.333 3.33301 -50.333 10 -69s20.667 -28 42 -28c13.333 0 24.333 4.66699 33 14s15.667 20.666 21 33.999v419h60v-421c0 -12 2 -22 6 -30s11.667 -12 23 -12v-55c-26 0 -44.5 5.33301 -55.5 16s-19.167 26.667 -24.5 48
c-8 -19.333 -18.667 -34.833 -32 -46.5s-30.666 -17.5 -51.999 -17.5c-28.667 0 -51 12.167 -67 36.5s-24 61.5 -24 111.5v370zM60.999 569.001c0 36 5.66699 60.332 17 72.999s24.666 19 39.999 19c10.667 0 20 -2.16699 28 -6.5s15.167 -9.33301 21.5 -15
s12.333 -10.667 18 -15s11.834 -6.5 18.501 -6.5c5.33301 0 9.83301 2.5 13.5 7.5s5.5 16.167 5.5 33.5v5h46v-5c0 -18 -1.5 -32.833 -4.5 -44.5s-7 -21 -12 -28s-11 -12 -18 -15s-14.167 -4.5 -21.5 -4.5c-10 0 -19.167 2.33301 -27.5 7s-15.833 9.83398 -22.5 15.501
l-18.5 15.5c-5.66699 4.66699 -11.167 7 -16.5 7c-6 0 -11 -2.66699 -15 -8s-6 -17 -6 -35v-4h-46v4z" />
    <glyph glyph-name="Umacron" unicode="&#x16a;" horiz-adv-x="347" 
d="M296 665l-0.000976562 -515.002c0 -52 -10.167 -91.667 -30.5 -119s-51.166 -41 -92.499 -41c-40.667 0 -71.167 13.667 -91.5 41s-30.5 67 -30.5 119v515h60v-523c0 -11.333 1 -22.666 3 -33.999s5.5 -21.666 10.5 -30.999s11.5 -17 19.5 -23s17.667 -9 29 -9
c12 0 22 2.83301 30 8.5s14.5 13.167 19.5 22.5s8.5 19.833 10.5 31.5s3 23.167 3 34.5v523h60zM89.999 798.998h166v-52h-166v52z" />
    <glyph glyph-name="umacron" unicode="&#x16b;" horiz-adv-x="329" 
d="M49 508l59.999 0.000976562v-370c0 -27.333 3.33301 -50.333 10 -69s20.667 -28 42 -28c13.333 0 24.333 4.66699 33 14s15.667 20.666 21 33.999v419h60v-421c0 -12 2 -22 6 -30s11.667 -12 23 -12v-55c-26 0 -44.5 5.33301 -55.5 16s-19.167 26.667 -24.5 48
c-8 -19.333 -18.667 -34.833 -32 -46.5s-30.666 -17.5 -51.999 -17.5c-28.667 0 -51 12.167 -67 36.5s-24 61.5 -24 111.5v370zM81.999 644.001h166v-52h-166v52z" />
    <glyph glyph-name="Ubreve" unicode="&#x16c;" horiz-adv-x="347" 
d="M296 665l-0.000976562 -515.002c0 -52 -10.167 -91.667 -30.5 -119s-51.166 -41 -92.499 -41c-40.667 0 -71.167 13.667 -91.5 41s-30.5 67 -30.5 119v515h60v-523c0 -11.333 1 -22.666 3 -33.999s5.5 -21.666 10.5 -30.999s11.5 -17 19.5 -23s17.667 -9 29 -9
c12 0 22 2.83301 30 8.5s14.5 13.167 19.5 22.5s8.5 19.833 10.5 31.5s3 23.167 3 34.5v523h60zM257.999 819.998v-12c0 -26.667 -7.16699 -48 -21.5 -64s-35.5 -24 -63.5 -24s-49.5 8 -64.5 24s-22.5 37.333 -22.5 64v12h50v-12c0 -28 12.333 -42 37 -42s37 14 37 42v12h48
z" />
    <glyph glyph-name="ubreve" unicode="&#x16d;" horiz-adv-x="329" 
d="M49 508l59.999 0.000976562v-370c0 -27.333 3.33301 -50.333 10 -69s20.667 -28 42 -28c13.333 0 24.333 4.66699 33 14s15.667 20.666 21 33.999v419h60v-421c0 -12 2 -22 6 -30s11.667 -12 23 -12v-55c-26 0 -44.5 5.33301 -55.5 16s-19.167 26.667 -24.5 48
c-8 -19.333 -18.667 -34.833 -32 -46.5s-30.666 -17.5 -51.999 -17.5c-28.667 0 -51 12.167 -67 36.5s-24 61.5 -24 111.5v370zM249.999 665.001v-12c0 -26.667 -7.16699 -48 -21.5 -64s-35.5 -24 -63.5 -24s-49.5 8 -64.5 24s-22.5 37.333 -22.5 64v12h50v-12
c0 -28 12.333 -42 37 -42s37 14 37 42v12h48z" />
    <glyph glyph-name="Uring" unicode="&#x16e;" horiz-adv-x="347" 
d="M296 665l-0.000976562 -515.002c0 -52 -10.167 -91.667 -30.5 -119s-51.166 -41 -92.499 -41c-40.667 0 -71.167 13.667 -91.5 41s-30.5 67 -30.5 119v515h60v-523c0 -11.333 1 -22.666 3 -33.999s5.5 -21.666 10.5 -30.999s11.5 -17 19.5 -23s17.667 -9 29 -9
c12 0 22 2.83301 30 8.5s14.5 13.167 19.5 22.5s8.5 19.833 10.5 31.5s3 23.167 3 34.5v523h60zM134.999 775.998c0 -10.667 3.5 -19.834 10.5 -27.501s16.167 -11.5 27.5 -11.5s20.5 3.83301 27.5 11.5s10.5 16.834 10.5 27.501c0 11.333 -3.5 20.666 -10.5 27.999
s-16.167 11 -27.5 11s-20.5 -3.66699 -27.5 -11s-10.5 -16.666 -10.5 -27.999zM95.999 775.998c0 21.333 7.5 39.5 22.5 54.5s33.167 22.5 54.5 22.5s39.333 -7.5 54 -22.5s22 -33.167 22 -54.5s-7.33301 -39.5 -22 -54.5s-32.667 -22.5 -54 -22.5s-39.5 7.5 -54.5 22.5
s-22.5 33.167 -22.5 54.5z" />
    <glyph glyph-name="uring" unicode="&#x16f;" horiz-adv-x="329" 
d="M49 508l59.999 0.000976562v-370c0 -27.333 3.33301 -50.333 10 -69s20.667 -28 42 -28c13.333 0 24.333 4.66699 33 14s15.667 20.666 21 33.999v419h60v-421c0 -12 2 -22 6 -30s11.667 -12 23 -12v-55c-26 0 -44.5 5.33301 -55.5 16s-19.167 26.667 -24.5 48
c-8 -19.333 -18.667 -34.833 -32 -46.5s-30.666 -17.5 -51.999 -17.5c-28.667 0 -51 12.167 -67 36.5s-24 61.5 -24 111.5v370zM126.999 621.001c0 -10.667 3.5 -19.834 10.5 -27.501s16.167 -11.5 27.5 -11.5s20.5 3.83301 27.5 11.5s10.5 16.834 10.5 27.501
c0 11.333 -3.5 20.666 -10.5 27.999s-16.167 11 -27.5 11s-20.5 -3.66699 -27.5 -11s-10.5 -16.666 -10.5 -27.999zM87.999 621.001c0 21.333 7.5 39.5 22.5 54.5s33.167 22.5 54.5 22.5s39.333 -7.5 54 -22.5s22 -33.167 22 -54.5s-7.33301 -39.5 -22 -54.5
s-32.667 -22.5 -54 -22.5s-39.5 7.5 -54.5 22.5s-22.5 33.167 -22.5 54.5z" />
    <glyph glyph-name="Uhungarumlaut" unicode="&#x170;" horiz-adv-x="347" 
d="M296 665l-0.000976562 -515.002c0 -52 -10.167 -91.667 -30.5 -119s-51.166 -41 -92.499 -41c-40.667 0 -71.167 13.667 -91.5 41s-30.5 67 -30.5 119v515h60v-523c0 -11.333 1 -22.666 3 -33.999s5.5 -21.666 10.5 -30.999s11.5 -17 19.5 -23s17.667 -9 29 -9
c12 0 22 2.83301 30 8.5s14.5 13.167 19.5 22.5s8.5 19.833 10.5 31.5s3 23.167 3 34.5v523h60zM301.999 837.998l-64 -135h-46l49 135h61zM196.999 837.998l-59 -135h-47l46 135h60z" />
    <glyph glyph-name="uhungarumlaut" unicode="&#x171;" horiz-adv-x="329" 
d="M49 508l59.999 0.000976562v-370c0 -27.333 3.33301 -50.333 10 -69s20.667 -28 42 -28c13.333 0 24.333 4.66699 33 14s15.667 20.666 21 33.999v419h60v-421c0 -12 2 -22 6 -30s11.667 -12 23 -12v-55c-26 0 -44.5 5.33301 -55.5 16s-19.167 26.667 -24.5 48
c-8 -19.333 -18.667 -34.833 -32 -46.5s-30.666 -17.5 -51.999 -17.5c-28.667 0 -51 12.167 -67 36.5s-24 61.5 -24 111.5v370zM293.999 683.001l-64 -135h-46l49 135h61zM188.999 683.001l-59 -135h-47l46 135h60z" />
    <glyph glyph-name="Uogonek" unicode="&#x172;" horiz-adv-x="347" 
d="M296 665l0.000976562 -514.001c0 -68.667 -18.667 -117.667 -56 -147c-22.667 -17.333 -40.834 -36.5 -54.501 -57.5s-20.5 -43.833 -20.5 -68.5s8.66699 -37 26 -37c8 0 14.333 2.83301 19 8.5s7 15.834 7 30.501v6h40v-6c0 -22.667 -5.33301 -41.5 -16 -56.5
s-27.667 -22.5 -51 -22.5c-22.667 0 -39.667 6.66699 -51 20s-17 31 -17 53c0 24 5 45.667 15 65s23.333 36.333 40 51h-4c-40.667 0 -71.167 13.833 -91.5 41.5s-30.5 67.5 -30.5 119.5v514h60v-522c0 -11.333 1.16699 -22.833 3.5 -34.5s6 -22.167 11 -31.5
s11.333 -17 19 -23s17.167 -9 28.5 -9c12 0 22 3 30 9s14.5 13.667 19.5 23s8.5 19.833 10.5 31.5s3 23.167 3 34.5v522h60z" />
    <glyph glyph-name="uogonek" unicode="&#x173;" horiz-adv-x="329" 
d="M49 508h60v-370c0 -27.333 3.33301 -50.333 10 -69s20.667 -28 42 -28c13.333 0 24.333 4.66699 33 14s15.667 20.666 21 33.999v419h60v-421c0 -12 2 -22 6 -30s11.667 -12 23 -12v-55c-11.333 0 -21.333 1 -30 3c-21.333 -14 -38 -31 -50 -51s-18 -41.333 -18 -64
c0 -24.667 8.66699 -37 26 -37c8 0 14.333 2.83301 19 8.5s7 15.834 7 30.501v6h40v-6c0 -22.667 -5.33301 -41.5 -16 -56.5s-27.667 -22.5 -51 -22.5c-22.667 0 -39.667 6.66699 -51 20s-17 31 -17 53c0 30 7.66699 56.5 23 79.5s34.666 41.5 57.999 55.5
c-9.33301 10 -16 25 -20 45c-8 -19.333 -18.667 -34.833 -32 -46.5s-30.666 -17.5 -51.999 -17.5c-28.667 0 -51 12.167 -67 36.5s-24 61.5 -24 111.5v370z" />
    <glyph glyph-name="Wcircumflex" unicode="&#x174;" horiz-adv-x="473" 
d="M256 665l77 -557h3l55 557h60l-81 -665h-62l-74 502h-3l-74 -502h-59l-76 665h60l50 -557h3l77 557h44zM262 838l58 -135h-48l-36 93l-36 -93h-48l58 135h52z" />
    <glyph glyph-name="wcircumflex" unicode="&#x175;" horiz-adv-x="460" 
d="M205 508h51l64 -404h3l55 404h60l-79 -508h-60l-67 394h-4l-67 -394h-60l-78 508h60l53 -404h3zM256 683l58 -135h-48l-36 93l-36 -93h-48l58 135h52z" />
    <glyph glyph-name="Ycircumflex" unicode="&#x176;" horiz-adv-x="332" 
d="M196 215v-215h-60v216l-114 449h62l80 -364h3l81 364h62zM192 838l58 -135h-48l-36 93l-36 -93h-48l58 135h52z" />
    <glyph glyph-name="ycircumflex" unicode="&#x177;" horiz-adv-x="288" 
d="M27 508h59.999l58 -410h3l60 410h60l-105 -566c-8.66699 -45.333 -24.167 -81.833 -46.5 -109.5s-54.166 -41.5 -95.499 -41.5v54c18.667 0 36.667 8 54 24s29.333 42.333 36 79l6 40zM169.999 683l58 -135h-48l-36 93l-36 -93h-48l58 135h52z" />
    <glyph glyph-name="Ydieresis" unicode="&#x178;" horiz-adv-x="332" 
d="M196 215v-215h-60v216l-114 449h62l80 -364h3l81 364h62zM109 810c11.333 0 20.5 -3.33301 27.5 -10s10.5 -16 10.5 -28s-3.5 -21.333 -10.5 -28s-16.167 -10 -27.5 -10s-20.5 3.33301 -27.5 10s-10.5 16 -10.5 28s3.5 21.333 10.5 28s16.167 10 27.5 10zM223 810
c11.333 0 20.5 -3.33301 27.5 -10s10.5 -16 10.5 -28s-3.5 -21.333 -10.5 -28s-16.167 -10 -27.5 -10s-20.5 3.33301 -27.5 10s-10.5 16 -10.5 28s3.5 21.333 10.5 28s16.167 10 27.5 10z" />
    <glyph glyph-name="Zacute" unicode="&#x179;" horiz-adv-x="281" 
d="M29 609v56h228v-66l-177 -544h172v-55h-228v66l177 543h-172zM205 838l-57 -135h-49l44 135h62z" />
    <glyph glyph-name="zacute" unicode="&#x17a;" horiz-adv-x="239" 
d="M28 453v55h188v-64l-139 -389h134v-55h-188v61l140 392h-135zM184 683l-57 -135h-49l44 135h62z" />
    <glyph glyph-name="Zdotaccent" unicode="&#x17b;" horiz-adv-x="281" 
d="M29 609v56h228v-66l-177 -544h172v-55h-228v66l177 543h-172zM141 812c11.333 0 20.666 -3.5 27.999 -10.5s11 -16.833 11 -29.5c0 -12 -3.66699 -21.5 -11 -28.5s-16.666 -10.5 -27.999 -10.5s-20.666 3.5 -27.999 10.5s-11 16.5 -11 28.5
c0 12.667 3.66699 22.5 11 29.5s16.666 10.5 27.999 10.5z" />
    <glyph glyph-name="zdotaccent" unicode="&#x17c;" horiz-adv-x="239" 
d="M28 453v55h188v-64l-139 -389h134v-55h-188v61l140 392h-135zM120 657c11.333 0 20.666 -3.5 27.999 -10.5s11 -16.833 11 -29.5c0 -12 -3.66699 -21.5 -11 -28.5s-16.666 -10.5 -27.999 -10.5s-20.666 3.5 -27.999 10.5s-11 16.5 -11 28.5
c0 12.667 3.66699 22.5 11 29.5s16.666 10.5 27.999 10.5z" />
    <glyph glyph-name="Zcaron" unicode="&#x17d;" horiz-adv-x="281" 
d="M29 609v56h228v-66l-177 -544h172v-55h-228v66l177 543h-172zM116 703l-57 135h46l36 -94l36 94h46l-57 -135h-50z" />
    <glyph glyph-name="zcaron" unicode="&#x17e;" horiz-adv-x="239" 
d="M28 453v55h188v-64l-139 -389h134v-55h-188v61l140 392h-135zM95 548l-57 135h46l36 -94l36 94h46l-57 -135h-50z" />
    <glyph glyph-name="florin" unicode="&#x192;" horiz-adv-x="387" 
d="M224 157c0 -54.667 -9.49902 -96.167 -28.499 -124.5s-48.167 -42.5 -87.5 -42.5c-22 0 -40.333 4.33301 -55 13s-26.667 19.667 -36 33l39 36c4.66699 -9.33301 10.834 -16.833 18.501 -22.5s17.167 -8.5 28.5 -8.5c12 0 22 3 30 9s14.167 13.833 18.5 23.5
s7.33301 20.667 9 33s2.5 24.833 2.5 37.5v364c0 54 9.16699 95.333 27.5 124s47.166 43 86.499 43c23.333 0 42.333 -4.33301 57 -13s26.667 -19.667 36 -33l-38 -36c-4.66699 8.66699 -10.834 16 -18.501 22s-17.5 9 -29.5 9s-22 -3 -30 -9s-14.167 -13.833 -18.5 -23.5
s-7.33301 -20.667 -9 -33s-2.5 -24.5 -2.5 -36.5v-139h100v-51h-100v-175z" />
    <glyph glyph-name="uni0218" unicode="&#x218;" horiz-adv-x="302" 
d="M32 529c0 17.333 2.33203 34.667 6.99902 52s11.667 33 21 47s21.5 25.333 36.5 34s33.167 13 54.5 13c38 0 67.333 -12.5 88 -37.5s31 -64.833 31 -119.5v-21h-60v25c0 12 -0.833008 23.833 -2.5 35.5s-4.83398 22.167 -9.50098 31.5s-10.667 16.833 -18 22.5
s-17 8.5 -29 8.5c-18.667 0 -33 -8.5 -43 -25.5s-15 -37.5 -15 -61.5v-32c0 -22.667 4.83301 -42.834 14.5 -60.501s26.5 -36.167 50.5 -55.5c14.667 -12 28.834 -24.667 42.501 -38s25.667 -27.666 36 -42.999s18.5 -32.166 24.5 -50.499s9 -38.833 9 -61.5v-56
c0 -18 -2.33301 -35.667 -7 -53s-11.667 -32.833 -21 -46.5s-21.666 -24.834 -36.999 -33.501s-33.333 -13 -54 -13c-40.667 0 -70.667 13.833 -90 41.5s-29 66.5 -29 116.5v20h61v-25c0 -12 0.833008 -23.833 2.5 -35.5s4.66699 -22.167 9 -31.5
s10.166 -16.833 17.499 -22.5s17 -8.5 29 -8.5c19.333 0 34 8.5 44 25.5s15 37.5 15 61.5v47c0 31.333 -7.16699 58.833 -21.5 82.5s-34.166 46.167 -59.499 67.5c-14.667 12 -28 23.667 -40 35s-22.167 23.333 -30.5 36s-14.833 26.5 -19.5 41.5s-7 31.833 -7 50.5v37z
M146.999 -160.999h-43l23 121h58z" />
    <glyph glyph-name="uni0219" unicode="&#x219;" horiz-adv-x="284" 
d="M90 153l0.00195312 -10c0 -13.333 0.666992 -26 2 -38s3.83301 -22.833 7.5 -32.5s8.83398 -17.334 15.501 -23.001s15.667 -8.5 27 -8.5c16.667 0 29.667 7.83301 39 23.5s14 35.5 14 59.5c0 25.333 -5.16699 47.666 -15.5 66.999s-30.5 39 -60.5 59
c-28 19.333 -49.667 39.833 -65 61.5s-23 50.167 -23 85.5c0 14.667 2.16699 29.334 6.5 44.001s11 27.667 20 39s20.333 20.5 34 27.5s30.167 10.5 49.5 10.5c37.333 0 65.166 -13 83.499 -39s27.5 -63.333 27.5 -112v-9h-59v13c0 12 -0.666992 23.667 -2 35
s-4 21.5 -8 30.5s-9.33301 16.333 -16 22s-15.334 8.5 -26.001 8.5c-19.333 0 -32.666 -7 -39.999 -21s-11 -29.333 -11 -46c0 -23.333 5.66699 -43.166 17 -59.499s31 -33.5 59 -51.5c31.333 -20 53.666 -42.833 66.999 -68.5s20 -55.5 20 -89.5c0 -16 -2 -32.5 -6 -49.5
s-10.333 -32.167 -19 -45.5s-19.834 -24.333 -33.501 -33s-30.167 -13 -49.5 -13c-39.333 0 -68 13.167 -86 39.5s-27 64.5 -27 114.5v9h58zM138.002 -161h-43l23 121h58z" />
    <glyph glyph-name="uni021A" unicode="&#x21a;" horiz-adv-x="307" 
d="M122 0v609h-106v56h275v-56h-109v-609h-60zM150 -161h-43l23 121h58z" />
    <glyph glyph-name="uni021B" unicode="&#x21b;" horiz-adv-x="231" 
d="M220 5c-8.66699 -4.66699 -17.499 -8.33496 -26.499 -11.002s-19.167 -4 -30.5 -4c-40 0 -68.667 13.5 -86 40.5s-26 66.833 -26 119.5v458h54l6 -63v-37h96v-51h-96v-314c0 -11.333 0.666992 -22.666 2 -33.999s4.16602 -21.833 8.49902 -31.5s10.333 -17.5 18 -23.5
s17.5 -9 29.5 -9c6.66699 0 13 0.833008 19 2.5s11.667 3.83398 17 6.50098zM129.001 -161.001h-43l23 121h58z" />
    <glyph glyph-name="dotlessj" unicode="&#x237;" horiz-adv-x="166" 
d="M106 508l7 -65v-483c0 -60.667 -9.33301 -104.167 -28 -130.5s-48.334 -39.5 -89.001 -39.5v55c12.667 0 22.834 2.83301 30.501 8.5s13.5 13.167 17.5 22.5s6.5 20.5 7.5 33.5s1.5 26.833 1.5 41.5v557h53z" />
    <glyph glyph-name="circumflex" unicode="&#x2c6;" horiz-adv-x="350" 
d="M201 683l58 -135h-48l-36 93l-36 -93h-48l58 135h52z" />
    <glyph glyph-name="caron" unicode="&#x2c7;" horiz-adv-x="350" 
d="M150 548l-57 135h46l36 -94l36 94h46l-57 -135h-50z" />
    <glyph glyph-name="breve" unicode="&#x2d8;" horiz-adv-x="350" 
d="M260 665v-12c0 -26.667 -7.16699 -48 -21.5 -64s-35.5 -24 -63.5 -24s-49.5 8 -64.5 24s-22.5 37.333 -22.5 64v12h50v-12c0 -28 12.333 -42 37 -42s37 14 37 42v12h48z" />
    <glyph glyph-name="dotaccent" unicode="&#x2d9;" horiz-adv-x="350" 
d="M175 657c11.333 0 20.666 -3.5 27.999 -10.5s11 -16.833 11 -29.5c0 -12 -3.66699 -21.5 -11 -28.5s-16.666 -10.5 -27.999 -10.5s-20.666 3.5 -27.999 10.5s-11 16.5 -11 28.5c0 12.667 3.66699 22.5 11 29.5s16.666 10.5 27.999 10.5z" />
    <glyph glyph-name="ring" unicode="&#x2da;" horiz-adv-x="350" 
d="M137 621c0 -10.667 3.5 -19.834 10.5 -27.501s16.167 -11.5 27.5 -11.5s20.5 3.83301 27.5 11.5s10.5 16.834 10.5 27.501c0 11.333 -3.5 20.666 -10.5 27.999s-16.167 11 -27.5 11s-20.5 -3.66699 -27.5 -11s-10.5 -16.666 -10.5 -27.999zM98 621
c0 21.333 7.5 39.5 22.5 54.5s33.167 22.5 54.5 22.5s39.333 -7.5 54 -22.5s22 -33.167 22 -54.5s-7.33301 -39.5 -22 -54.5s-32.667 -22.5 -54 -22.5s-39.5 7.5 -54.5 22.5s-22.5 33.167 -22.5 54.5z" />
    <glyph glyph-name="ogonek" unicode="&#x2db;" horiz-adv-x="350" 
d="M267 0c-25.333 -14 -45 -31.666 -59 -52.999s-21 -44.333 -21 -69s8.66699 -37 26 -37c8 0 14.333 2.83301 19 8.5s7 15.834 7 30.501v6h40v-6c0 -22.667 -5.33301 -41.5 -16 -56.5s-27.667 -22.5 -51 -22.5c-22.667 0 -39.667 6.66699 -51 20s-17 31 -17 53
c0 35.333 10.333 65.666 31 90.999s46 44.666 76 57.999z" />
    <glyph glyph-name="tilde" unicode="&#x2dc;" horiz-adv-x="350" 
d="M71 569c0 36 5.66699 60.332 17 72.999s24.666 19 39.999 19c10.667 0 20 -2.16699 28 -6.5s15.167 -9.33301 21.5 -15s12.333 -10.667 18 -15s11.834 -6.5 18.501 -6.5c5.33301 0 9.83301 2.5 13.5 7.5s5.5 16.167 5.5 33.5v5h46v-5c0 -18 -1.5 -32.833 -4.5 -44.5
s-7 -21 -12 -28s-11 -12 -18 -15s-14.167 -4.5 -21.5 -4.5c-10 0 -19.167 2.33301 -27.5 7s-15.833 9.83398 -22.5 15.501l-18.5 15.5c-5.66699 4.66699 -11.167 7 -16.5 7c-6 0 -11 -2.66699 -15 -8s-6 -17 -6 -35v-4h-46v4z" />
    <glyph glyph-name="hungarumlaut" unicode="&#x2dd;" horiz-adv-x="350" 
d="M310 683l-64 -135h-46l49 135h61zM205 683l-59 -135h-47l46 135h60z" />
    <glyph glyph-name="uni0394" unicode="&#x394;" horiz-adv-x="300" 
d="M230 55l-80 506l-80 -506h160zM127 665h46l108 -600v-65h-262v65z" />
    <glyph glyph-name="uni03A9" unicode="&#x3a9;" 
d="M287 186c0 -33.333 -5.99902 -60.666 -17.999 -81.999s-27.667 -37.666 -47 -48.999h65v-55h-102v59c6.66699 6 12.667 13.667 18 23s9.66602 19.5 12.999 30.5s6 22.167 8 33.5s3 22 3 32v344c0 12 -1 23.833 -3 35.5s-5.5 22.167 -10.5 31.5s-11.333 16.833 -19 22.5
s-17.5 8.5 -29.5 8.5s-21.833 -2.83301 -29.5 -8.5s-13.834 -13.167 -18.501 -22.5s-8 -19.833 -10 -31.5s-3 -23.5 -3 -35.5v-344c0 -10 0.833008 -20.667 2.5 -32s4.33398 -22.5 8.00098 -33.5s8 -21.167 13 -30.5s10.833 -17 17.5 -23v-59h-101v55h65
c-18.667 11.333 -34.167 27.666 -46.5 48.999s-18.5 48.666 -18.5 81.999v328c0 52 9.83301 91.833 29.5 119.5s50.167 41.5 91.5 41.5s72 -13.833 92 -41.5s30 -67.5 30 -119.5v-328z" />
    <glyph glyph-name="pi" unicode="&#x3c0;" horiz-adv-x="397" 
d="M308 0h-60v453h-99v-453h-60v453h-57v55h333v-55h-57v-453z" />
    <glyph glyph-name="Wgrave" unicode="&#x1e80;" horiz-adv-x="473" 
d="M256 665l77 -557h3l55 557h60l-81 -665h-62l-74 502h-3l-74 -502h-59l-76 665h60l50 -557h3l77 557h44zM242 838l44 -135h-49l-58 135h63z" />
    <glyph glyph-name="wgrave" unicode="&#x1e81;" horiz-adv-x="460" 
d="M205 508h51l64 -404h3l55 404h60l-79 -508h-60l-67 394h-4l-67 -394h-60l-78 508h60l53 -404h3zM236 683l44 -135h-49l-58 135h63z" />
    <glyph glyph-name="Wacute" unicode="&#x1e82;" horiz-adv-x="473" 
d="M256 665l77 -557h3l55 557h60l-81 -665h-62l-74 502h-3l-74 -502h-59l-76 665h60l50 -557h3l77 557h44zM300 838l-57 -135h-49l44 135h62z" />
    <glyph glyph-name="wacute" unicode="&#x1e83;" horiz-adv-x="460" 
d="M205 508h51l64 -404h3l55 404h60l-79 -508h-60l-67 394h-4l-67 -394h-60l-78 508h60l53 -404h3zM294 683l-57 -135h-49l44 135h62z" />
    <glyph glyph-name="Wdieresis" unicode="&#x1e84;" horiz-adv-x="473" 
d="M256 665l77 -557h3l55 557h60l-81 -665h-62l-74 502h-3l-74 -502h-59l-76 665h60l50 -557h3l77 557h44zM179 810c11.333 0 20.5 -3.33301 27.5 -10s10.5 -16 10.5 -28s-3.5 -21.333 -10.5 -28s-16.167 -10 -27.5 -10s-20.5 3.33301 -27.5 10s-10.5 16 -10.5 28
s3.5 21.333 10.5 28s16.167 10 27.5 10zM293 810c11.333 0 20.5 -3.33301 27.5 -10s10.5 -16 10.5 -28s-3.5 -21.333 -10.5 -28s-16.167 -10 -27.5 -10s-20.5 3.33301 -27.5 10s-10.5 16 -10.5 28s3.5 21.333 10.5 28s16.167 10 27.5 10z" />
    <glyph glyph-name="wdieresis" unicode="&#x1e85;" horiz-adv-x="460" 
d="M205 508h51l64 -404h3l55 404h60l-79 -508h-60l-67 394h-4l-67 -394h-60l-78 508h60l53 -404h3zM173 655c11.333 0 20.5 -3.33301 27.5 -10s10.5 -16 10.5 -28s-3.5 -21.333 -10.5 -28s-16.167 -10 -27.5 -10s-20.5 3.33301 -27.5 10s-10.5 16 -10.5 28
s3.5 21.333 10.5 28s16.167 10 27.5 10zM287 655c11.333 0 20.5 -3.33301 27.5 -10s10.5 -16 10.5 -28s-3.5 -21.333 -10.5 -28s-16.167 -10 -27.5 -10s-20.5 3.33301 -27.5 10s-10.5 16 -10.5 28s3.5 21.333 10.5 28s16.167 10 27.5 10z" />
    <glyph glyph-name="Ygrave" unicode="&#x1ef2;" horiz-adv-x="332" 
d="M196 215v-215h-60v216l-114 449h62l80 -364h3l81 364h62zM172 838l44 -135h-49l-58 135h63z" />
    <glyph glyph-name="ygrave" unicode="&#x1ef3;" horiz-adv-x="288" 
d="M27 508h59.999l58 -410h3l60 410h60l-105 -566c-8.66699 -45.333 -24.167 -81.833 -46.5 -109.5s-54.166 -41.5 -95.499 -41.5v54c18.667 0 36.667 8 54 24s29.333 42.333 36 79l6 40zM149.999 683l44 -135h-49l-58 135h63z" />
    <glyph glyph-name="endash" unicode="&#x2013;" horiz-adv-x="500" 
d="M50 350h400v-57h-400v57z" />
    <glyph glyph-name="emdash" unicode="&#x2014;" horiz-adv-x="1000" 
d="M50 350h900v-57h-900v57z" />
    <glyph glyph-name="quoteleft" unicode="&#x2018;" horiz-adv-x="176" 
d="M81 679h40l-15 -199h-58z" />
    <glyph glyph-name="quoteright" unicode="&#x2019;" horiz-adv-x="176" 
d="M95 480h-40l15 199h58z" />
    <glyph glyph-name="quotesinglbase" unicode="&#x201a;" horiz-adv-x="176" 
d="M95 -149h-40l15 182h58z" />
    <glyph glyph-name="quotedblleft" unicode="&#x201c;" horiz-adv-x="292" 
d="M81 679h40l-15 -199h-58zM197 679h40l-15 -199h-58z" />
    <glyph glyph-name="quotedblright" unicode="&#x201d;" horiz-adv-x="292" 
d="M95 480h-40l15 199h58zM211 480h-40l15 199h58z" />
    <glyph glyph-name="quotedblbase" unicode="&#x201e;" horiz-adv-x="292" 
d="M95 -149h-40l15 182h58zM211 -149h-40l15 182h58z" />
    <glyph glyph-name="dagger" unicode="&#x2020;" horiz-adv-x="286" 
d="M37 516h76v194h60v-194h76v-56h-76v-460h-60v460h-76v56z" />
    <glyph glyph-name="daggerdbl" unicode="&#x2021;" horiz-adv-x="286" 
d="M37 516h76v194h60v-194h76v-56h-76v-210h76v-56h-76v-194h-60v194h-76v56h76v210h-76v56z" />
    <glyph glyph-name="bullet" unicode="&#x2022;" horiz-adv-x="239" 
d="M45 328c0 23.333 7 41.666 21 54.999s31.667 20 53 20s39.166 -6.66699 53.499 -20s21.5 -31.666 21.5 -54.999s-7.16699 -41.666 -21.5 -54.999s-32.166 -20 -53.499 -20s-39 6.66699 -53 20s-21 31.666 -21 54.999z" />
    <glyph glyph-name="ellipsis" unicode="&#x2026;" horiz-adv-x="517" 
d="M40 36c0 12.667 3.83301 22.667 11.5 30s17.5 11 29.5 11s21.833 -3.66699 29.5 -11s11.5 -17.333 11.5 -30s-3.83301 -22.667 -11.5 -30s-17.5 -11 -29.5 -11s-21.833 3.66699 -29.5 11s-11.5 17.333 -11.5 30zM217 36c0 12.667 3.83301 22.667 11.5 30s17.5 11 29.5 11
s21.833 -3.66699 29.5 -11s11.5 -17.333 11.5 -30s-3.83301 -22.667 -11.5 -30s-17.5 -11 -29.5 -11s-21.833 3.66699 -29.5 11s-11.5 17.333 -11.5 30zM395 36c0 12.667 3.83301 22.667 11.5 30s17.5 11 29.5 11s21.833 -3.66699 29.5 -11s11.5 -17.333 11.5 -30
s-3.83301 -22.667 -11.5 -30s-17.5 -11 -29.5 -11s-21.833 3.66699 -29.5 11s-11.5 17.333 -11.5 30z" />
    <glyph glyph-name="perthousand" unicode="&#x2030;" horiz-adv-x="821" 
d="M213 370c0 -32 -7 -57.667 -21 -77s-36.667 -29 -68 -29s-54 9.66699 -68 29s-21 45 -21 77v199c0 32 7 57.667 21 77s36.667 29 68 29s54 -9.66699 68 -29s21 -45 21 -77v-199zM161 575c0 14 -2.66699 26.5 -8 37.5s-15.333 16.5 -30 16.5
c-13.333 0 -22.833 -5.5 -28.5 -16.5s-8.5 -23.5 -8.5 -37.5v-211c0 -14 2.83301 -26.5 8.5 -37.5s15.167 -16.5 28.5 -16.5c14.667 0 24.667 5.5 30 16.5s8 23.5 8 37.5v211zM558 96c0 -32 -7 -57.667 -21 -77s-36.667 -29 -68 -29s-54 9.66699 -68 29s-21 45 -21 77v199
c0 32 7 57.667 21 77s36.667 29 68 29s54 -9.66699 68 -29s21 -45 21 -77v-199zM506 301c0 14 -2.66699 26.5 -8 37.5s-15.333 16.5 -30 16.5c-13.333 0 -22.833 -5.5 -28.5 -16.5s-8.5 -23.5 -8.5 -37.5v-211c0 -14 2.83301 -26.5 8.5 -37.5s15.167 -16.5 28.5 -16.5
c14.667 0 24.667 5.5 30 16.5s8 23.5 8 37.5v211zM185 0h-52l278 665h51zM787 96c0 -32 -7 -57.667 -21 -77s-36.667 -29 -68 -29s-54 9.66699 -68 29s-21 45 -21 77v199c0 32 7 57.667 21 77s36.667 29 68 29s54 -9.66699 68 -29s21 -45 21 -77v-199zM735 301
c0 14 -2.66699 26.5 -8 37.5s-15.333 16.5 -30 16.5c-13.333 0 -22.833 -5.5 -28.5 -16.5s-8.5 -23.5 -8.5 -37.5v-211c0 -14 2.83301 -26.5 8.5 -37.5s15.167 -16.5 28.5 -16.5c14.667 0 24.667 5.5 30 16.5s8 23.5 8 37.5v211z" />
    <glyph glyph-name="guilsinglleft" unicode="&#x2039;" horiz-adv-x="232" 
d="M158 464l41 -40l-109 -132l109 -131l-41 -40l-119 143v56z" />
    <glyph glyph-name="guilsinglright" unicode="&#x203a;" horiz-adv-x="232" 
d="M74 121l-41 40l109 131l-109 132l41 40l119 -144v-56z" />
    <glyph glyph-name="fraction" unicode="&#x2044;" horiz-adv-x="109" 
d="M-58 0h-52l278 665h51z" />
    <glyph glyph-name="zerosuperior" unicode="&#x2070;" horiz-adv-x="247" 
d="M213 370c0 -32 -7 -57.667 -21 -77s-36.667 -29 -68 -29s-54 9.66699 -68 29s-21 45 -21 77v199c0 32 7 57.667 21 77s36.667 29 68 29s54 -9.66699 68 -29s21 -45 21 -77v-199zM161 575c0 14 -2.66699 26.5 -8 37.5s-15.333 16.5 -30 16.5
c-13.333 0 -22.833 -5.5 -28.5 -16.5s-8.5 -23.5 -8.5 -37.5v-211c0 -14 2.83301 -26.5 8.5 -37.5s15.167 -16.5 28.5 -16.5c14.667 0 24.667 5.5 30 16.5s8 23.5 8 37.5v211z" />
    <glyph glyph-name="foursuperior" unicode="&#x2074;" horiz-adv-x="247" 
d="M161 351h-134v57l109 261h51l-112 -271h86v74h48v-202h-48v81z" />
    <glyph glyph-name="fivesuperior" unicode="&#x2075;" horiz-adv-x="247" 
d="M34 669l175.001 0.000976562v-46h-125v-115c5.33301 9.33301 12.666 17.166 21.999 23.499s21 9.5 35 9.5c21.333 0 38.5 -8.16699 51.5 -24.5s19.5 -42.166 19.5 -77.499v-69c0 -32 -7.5 -57.667 -22.5 -77s-37.5 -29 -67.5 -29c-29.333 0 -51.333 8.83301 -66 26.5
s-22 41.5 -22 71.5v15h52v-13c0 -14 2.66699 -26.5 8 -37.5s15 -16.5 29 -16.5s23.833 5.5 29.5 16.5s8.5 23.5 8.5 37.5v80c0 13.333 -2.66699 25.166 -8 35.499s-14.333 15.5 -27 15.5c-11.333 0 -20 -3.83301 -26 -11.5s-10.333 -15.5 -13 -23.5h-53v209z" />
    <glyph glyph-name="sixsuperior" unicode="&#x2076;" horiz-adv-x="247" 
d="M161 568l-0.000976562 6.99805c0 14.667 -2.66699 27.334 -8 38.001s-15.333 16 -30 16c-13.333 0 -22.833 -5.5 -28.5 -16.5s-8.5 -23.5 -8.5 -37.5v-97c4 11.333 10.833 20.833 20.5 28.5s21.834 11.5 36.501 11.5c21.333 0 38.333 -8 51 -24s19 -40 19 -72v-53
c0 -32 -7 -57.5 -21 -76.5s-36.667 -28.5 -68 -28.5s-54 9.66699 -68 29s-21 45 -21 77v199c0 32 7 57.667 21 77s36.667 29 68 29c30.667 0 53.167 -9.16699 67.5 -27.5s21.5 -42.166 21.5 -71.499v-8h-52zM122.999 309.998c14.667 0 24.667 5.33105 30 15.998
s8 23.334 8 38.001v56c0 14 -2.66699 26.5 -8 37.5s-15.333 16.5 -30 16.5c-13.333 0 -22.833 -5.66699 -28.5 -17s-8.5 -23.666 -8.5 -36.999v-56c0 -14 2.83301 -26.5 8.5 -37.5s15.167 -16.5 28.5 -16.5z" />
    <glyph glyph-name="sevensuperior" unicode="&#x2077;" horiz-adv-x="247" 
d="M43 270l125 353h-141v46h192v-54l-122 -345h-54z" />
    <glyph glyph-name="eightsuperior" unicode="&#x2078;" horiz-adv-x="247" 
d="M35 585c0 28 7.5 49.9961 22.5 65.9961s37.167 24 66.5 24s51.5 -8.5 66.5 -25.5s22.5 -38.167 22.5 -63.5v-24c0 -19.333 -5.16699 -35.166 -15.5 -47.499s-23.5 -25.166 -39.5 -38.499c15.333 -12.667 28.333 -26.667 39 -42s16 -34.666 16 -57.999v-22
c0 -27.333 -7.33301 -49.166 -22 -65.499s-37 -24.5 -67 -24.5s-52.333 8.5 -67 25.5s-22 38.167 -22 63.5v24c0 23.333 5 42.5 15 57.5s22.667 28.833 38 41.5c-15.333 13.333 -28 26.5 -38 39.5s-15 29.167 -15 48.5v21zM86 357.996c0 -12.667 2.66699 -23.834 8 -33.501
s15 -14.5 29 -14.5c14.667 0 24.667 4.83301 30 14.5s8 20.834 8 33.501v24c0 14 -3.33301 26.5 -10 37.5s-15.667 21.167 -27 30.5c-11.333 -9.33301 -20.5 -19 -27.5 -29s-10.5 -23 -10.5 -39v-24zM86 562.996c0 -13.333 3 -24.5 9 -33.5s15.667 -18.833 29 -29.5
c12.667 10.667 22 20.167 28 28.5s9 19.833 9 34.5v19c0 12 -2.66699 22.833 -8 32.5s-15.333 14.5 -30 14.5c-13.333 0 -22.833 -4.66699 -28.5 -14s-8.5 -20.333 -8.5 -33v-19z" />
    <glyph glyph-name="ninesuperior" unicode="&#x2079;" horiz-adv-x="247" 
d="M86 371l0.000976562 -7c0 -14.667 2.66699 -27.334 8 -38.001s15 -16 29 -16c14.667 0 24.667 5.33301 30 16s8 23.334 8 38.001v94c-4 -9.33301 -10.833 -17.833 -20.5 -25.5s-21.167 -11.5 -34.5 -11.5c-22 0 -39.333 8 -52 24s-19 40 -19 72v53c0 32 7 57.5 21 76.5
s36.333 28.5 67 28.5c31.333 0 54.166 -9.66699 68.499 -29s21.5 -45 21.5 -77v-199c0 -31.333 -7 -56.833 -21 -76.5s-36.667 -29.5 -68 -29.5s-54 9.33301 -68 28s-21 43 -21 73v6h51zM123.001 629c-14 0 -23.667 -5.33203 -29 -15.999s-8 -23.334 -8 -38.001v-55
c0 -13.333 2.83301 -25.833 8.5 -37.5s15.5 -17.5 29.5 -17.5c13.333 0 22.833 5.83301 28.5 17.5s8.5 24.167 8.5 37.5v55c0 14 -2.66699 26.5 -8 37.5s-15.333 16.5 -30 16.5z" />
    <glyph glyph-name="zeroinferior" unicode="&#x2080;" horiz-adv-x="247" 
d="M213 100c0 -32 -7 -57.667 -21 -77s-36.667 -29 -68 -29s-54 9.66699 -68 29s-21 45 -21 77v199c0 32 7 57.667 21 77s36.667 29 68 29s54 -9.66699 68 -29s21 -45 21 -77v-199zM161 305c0 14 -2.66699 26.5 -8 37.5s-15.333 16.5 -30 16.5
c-13.333 0 -22.833 -5.5 -28.5 -16.5s-8.5 -23.5 -8.5 -37.5v-211c0 -14 2.83301 -26.5 8.5 -37.5s15.167 -16.5 28.5 -16.5c14.667 0 24.667 5.5 30 16.5s8 23.5 8 37.5v211z" />
    <glyph glyph-name="oneinferior" unicode="&#x2081;" horiz-adv-x="247" 
d="M134 0v342l-75 -52l-30 41l97 68h61v-399h-53z" />
    <glyph glyph-name="twoinferior" unicode="&#x2082;" horiz-adv-x="247" 
d="M32 296l-0.000976562 9.00195c0 30.667 7 55 21 73s37.667 27 71 27c32 0 54.833 -7.83301 68.5 -23.5s20.5 -37.5 20.5 -65.5v-14c0 -19.333 -5 -40 -15 -62s-24 -47 -42 -75l-68 -119h125v-46h-177v52l63 111c20.667 32.667 36.334 59.167 47.001 79.5
s16 39.166 16 56.499v11c0 32.667 -12.667 49 -38 49c-15.333 0 -25.833 -4.83301 -31.5 -14.5s-8.5 -22.834 -8.5 -39.501v-9h-52z" />
    <glyph glyph-name="threeinferior" unicode="&#x2083;" horiz-adv-x="247" 
d="M159 307c0 13.333 -2.83398 25.3291 -8.50098 35.9961s-15.5 16 -29.5 16s-23.833 -5.5 -29.5 -16.5s-8.5 -23.5 -8.5 -37.5v-9h-52v7c0 32 7.5 57 22.5 75s37.5 27 67.5 27s52.5 -8.5 67.5 -25.5s22.5 -38.833 22.5 -65.5v-21c0 -19.333 -3.83301 -36.166 -11.5 -50.499
s-18.167 -24.166 -31.5 -29.499v-2c13.333 -5.33301 23.833 -15.333 31.5 -30s11.5 -31.667 11.5 -51v-37c0 -31.333 -7.5 -55.666 -22.5 -72.999s-37.5 -26 -67.5 -26s-52.5 8.5 -67.5 25.5s-22.5 41.5 -22.5 73.5v13h52v-12c0 -13.333 2.83301 -25.666 8.5 -36.999
s15.5 -17 29.5 -17s23.833 5.5 29.5 16.5s8.5 23.5 8.5 37.5v37c0 15.333 -3.16699 28.5 -9.5 39.5s-17.166 16.5 -32.499 16.5h-27v45h23c16.667 0 28.5 5.83301 35.5 17.5s10.5 24.5 10.5 38.5v19z" />
    <glyph glyph-name="fourinferior" unicode="&#x2084;" horiz-adv-x="247" 
d="M161 81h-134v57l109 261h51l-112 -271h86v74h48v-202h-48v81z" />
    <glyph glyph-name="fiveinferior" unicode="&#x2085;" horiz-adv-x="247" 
d="M34 399l175.001 0.000976562v-46h-125v-115c5.33301 9.33301 12.666 17.166 21.999 23.499s21 9.5 35 9.5c21.333 0 38.5 -8.16699 51.5 -24.5s19.5 -42.166 19.5 -77.499v-69c0 -32 -7.5 -57.667 -22.5 -77s-37.5 -29 -67.5 -29c-29.333 0 -51.333 8.83301 -66 26.5
s-22 41.5 -22 71.5v15h52v-13c0 -14 2.66699 -26.5 8 -37.5s15 -16.5 29 -16.5s23.833 5.5 29.5 16.5s8.5 23.5 8.5 37.5v80c0 13.333 -2.66699 25.166 -8 35.499s-14.333 15.5 -27 15.5c-11.333 0 -20 -3.83301 -26 -11.5s-10.333 -15.5 -13 -23.5h-53v209z" />
    <glyph glyph-name="sixinferior" unicode="&#x2086;" horiz-adv-x="247" 
d="M161 298l-0.000976562 6.99805c0 14.667 -2.66699 27.334 -8 38.001s-15.333 16 -30 16c-13.333 0 -22.833 -5.5 -28.5 -16.5s-8.5 -23.5 -8.5 -37.5v-97c4 11.333 10.833 20.833 20.5 28.5s21.834 11.5 36.501 11.5c21.333 0 38.333 -8 51 -24s19 -40 19 -72v-53
c0 -32 -7 -57.5 -21 -76.5s-36.667 -28.5 -68 -28.5s-54 9.66699 -68 29s-21 45 -21 77v199c0 32 7 57.667 21 77s36.667 29 68 29c30.667 0 53.167 -9.16699 67.5 -27.5s21.5 -42.166 21.5 -71.499v-8h-52zM122.999 39.998c14.667 0 24.667 5.33105 30 15.998
s8 23.334 8 38.001v56c0 14 -2.66699 26.5 -8 37.5s-15.333 16.5 -30 16.5c-13.333 0 -22.833 -5.66699 -28.5 -17s-8.5 -23.666 -8.5 -36.999v-56c0 -14 2.83301 -26.5 8.5 -37.5s15.167 -16.5 28.5 -16.5z" />
    <glyph glyph-name="seveninferior" unicode="&#x2087;" horiz-adv-x="247" 
d="M43 0l125 353h-141v46h192v-54l-122 -345h-54z" />
    <glyph glyph-name="eightinferior" unicode="&#x2088;" horiz-adv-x="247" 
d="M35 315c0 28 7.5 49.9961 22.5 65.9961s37.167 24 66.5 24s51.5 -8.5 66.5 -25.5s22.5 -38.167 22.5 -63.5v-24c0 -19.333 -5.16699 -35.166 -15.5 -47.499s-23.5 -25.166 -39.5 -38.499c15.333 -12.667 28.333 -26.667 39 -42s16 -34.666 16 -57.999v-22
c0 -27.333 -7.33301 -49.166 -22 -65.499s-37 -24.5 -67 -24.5s-52.333 8.5 -67 25.5s-22 38.167 -22 63.5v24c0 23.333 5 42.5 15 57.5s22.667 28.833 38 41.5c-15.333 13.333 -28 26.5 -38 39.5s-15 29.167 -15 48.5v21zM86 87.9961c0 -12.667 2.66699 -23.834 8 -33.501
s15 -14.5 29 -14.5c14.667 0 24.667 4.83301 30 14.5s8 20.834 8 33.501v24c0 14 -3.33301 26.5 -10 37.5s-15.667 21.167 -27 30.5c-11.333 -9.33301 -20.5 -19 -27.5 -29s-10.5 -23 -10.5 -39v-24zM86 292.996c0 -13.333 3 -24.5 9 -33.5s15.667 -18.833 29 -29.5
c12.667 10.667 22 20.167 28 28.5s9 19.833 9 34.5v19c0 12 -2.66699 22.833 -8 32.5s-15.333 14.5 -30 14.5c-13.333 0 -22.833 -4.66699 -28.5 -14s-8.5 -20.333 -8.5 -33v-19z" />
    <glyph glyph-name="nineinferior" unicode="&#x2089;" horiz-adv-x="247" 
d="M86 101l0.000976562 -7c0 -14.667 2.66699 -27.334 8 -38.001s15 -16 29 -16c14.667 0 24.667 5.33301 30 16s8 23.334 8 38.001v94c-4 -9.33301 -10.833 -17.833 -20.5 -25.5s-21.167 -11.5 -34.5 -11.5c-22 0 -39.333 8 -52 24s-19 40 -19 72v53c0 32 7 57.5 21 76.5
s36.333 28.5 67 28.5c31.333 0 54.166 -9.66699 68.499 -29s21.5 -45 21.5 -77v-199c0 -31.333 -7 -56.833 -21 -76.5s-36.667 -29.5 -68 -29.5s-54 9.33301 -68 28s-21 43 -21 73v6h51zM123.001 359c-14 0 -23.667 -5.33203 -29 -15.999s-8 -23.334 -8 -38.001v-55
c0 -13.333 2.83301 -25.833 8.5 -37.5s15.5 -17.5 29.5 -17.5c13.333 0 22.833 5.83301 28.5 17.5s8.5 24.167 8.5 37.5v55c0 14 -2.66699 26.5 -8 37.5s-15.333 16.5 -30 16.5z" />
    <glyph glyph-name="Euro" unicode="&#x20ac;" horiz-adv-x="355" 
d="M256 500v22c0 12 -1 23.833 -3 35.5s-5.5 22.167 -10.5 31.5s-11.333 16.833 -19 22.5s-17.5 8.5 -29.5 8.5c-11.333 0 -20.833 -3 -28.5 -9s-14 -13.667 -19 -23s-8.5 -19.833 -10.5 -31.5s-3 -23.167 -3 -34.5v-117h144v-42h-144v-62h144v-42h-144v-116
c0 -11.333 1 -22.833 3 -34.5s5.5 -22.167 10.5 -31.5s11.333 -17 19 -23s17.167 -9 28.5 -9c12 0 21.833 2.83301 29.5 8.5s14 13.167 19 22.5s8.5 19.833 10.5 31.5s3 23.5 3 35.5v22h61v-5c0 -57.333 -10.5 -100 -31.5 -128s-51.5 -42 -91.5 -42
c-40.667 0 -71 13.833 -91 41.5s-30 67.5 -30 119.5v108h-46v42h46v62h-46v42h46v109c0 52 10 91.833 30 119.5s50.333 41.5 91 41.5c82 0 123 -55.667 123 -167v-8h-61z" />
    <glyph glyph-name="uni2113" unicode="&#x2113;" horiz-adv-x="403" 
d="M25 209c13.333 9.33301 25.8359 18.8359 37.5029 28.5029l34.5 29.5c2.66699 53.333 10.667 106.5 24 159.5s30 100.5 50 142.5s42.333 76 67 102s49.667 39 75 39c22.667 0 38.167 -8 46.5 -24s12.5 -34 12.5 -54c0 -60 -19.333 -122.167 -58 -186.5
s-95.334 -129.833 -170.001 -196.5c0 -30.667 1.16699 -58.834 3.5 -84.501s6 -47.667 11 -66s11.5 -32.5 19.5 -42.5s17.333 -15 28 -15c16 0 32.333 8.5 49 25.5s31.667 37.833 45 62.5l39 -25c-8 -14.667 -17 -28.834 -27 -42.501s-20.833 -25.834 -32.5 -36.501
s-24.334 -19.167 -38.001 -25.5s-27.834 -9.5 -42.501 -9.5c-33.333 0 -58.333 20 -75 60s-26 93.333 -28 160l-22.5 -18c-7.66699 -6 -15.167 -12.333 -22.5 -19zM302.003 660.003c-12 0 -25.668 -9.66699 -41.001 -29s-30.166 -45 -44.499 -77s-27.5 -68.5 -39.5 -109.5
s-20.667 -83.167 -26 -126.5c56.667 56.667 99.667 110.5 129 161.5s44 97.167 44 138.5c0 12 -1.66699 22 -5 30s-9 12 -17 12z" />
    <glyph glyph-name="trademark" unicode="&#x2122;" horiz-adv-x="424" 
d="M64 419v213h-49v33h136v-33h-51v-213h-36zM179 419v246h55l47 -158h2l47 158h55v-246h-35v208h-2l-55 -177h-23l-54 177h-2v-208h-35z" />
    <glyph glyph-name="Omega" unicode="&#x2126;" 
d="M287 186c0 -33.333 -5.99902 -60.666 -17.999 -81.999s-27.667 -37.666 -47 -48.999h65v-55h-102v59c6.66699 6 12.667 13.667 18 23s9.66602 19.5 12.999 30.5s6 22.167 8 33.5s3 22 3 32v344c0 12 -1 23.833 -3 35.5s-5.5 22.167 -10.5 31.5s-11.333 16.833 -19 22.5
s-17.5 8.5 -29.5 8.5s-21.833 -2.83301 -29.5 -8.5s-13.834 -13.167 -18.501 -22.5s-8 -19.833 -10 -31.5s-3 -23.5 -3 -35.5v-344c0 -10 0.833008 -20.667 2.5 -32s4.33398 -22.5 8.00098 -33.5s8 -21.167 13 -30.5s10.833 -17 17.5 -23v-59h-101v55h65
c-18.667 11.333 -34.167 27.666 -46.5 48.999s-18.5 48.666 -18.5 81.999v328c0 52 9.83301 91.833 29.5 119.5s50.167 41.5 91.5 41.5s72 -13.833 92 -41.5s30 -67.5 30 -119.5v-328z" />
    <glyph glyph-name="estimated" unicode="&#x212e;" horiz-adv-x="833" 
d="M207 302c-3.33301 0 -5.00195 -1.33203 -5.00195 -3.99902v-176c0 -8 2.66699 -14.667 8 -20c28 -30 60.833 -53.5 98.5 -70.5s78.5 -25.5 122.5 -25.5c46.667 0 89.834 9.66699 129.501 29s73.834 45.333 102.501 78h52c-32.667 -38 -73.667 -68.5 -123 -91.5
s-103.333 -34.5 -162 -34.5c-50 0 -96.833 8.5 -140.5 25.5s-81.667 40.167 -114 69.5s-58 63.666 -77 102.999s-28.5 81.333 -28.5 126s9.5 86.667 28.5 126s44.667 73.666 77 102.999s70.333 52.5 114 69.5s90.5 25.5 140.5 25.5s96.833 -8.5 140.5 -25.5
s81.667 -40.167 114 -69.5s58 -63.666 77 -102.999s28.5 -81.333 28.5 -126v-9h-583zM657.998 503.001c0 8 -3 15 -9 21c-28 28 -60.667 50.333 -98 67s-77.333 25 -120 25c-43.333 0 -83.833 -8.5 -121.5 -25.5s-70.5 -40.167 -98.5 -69.5c-6 -6 -9 -13.333 -9 -22v-174
c0 -3.33301 1.66699 -5 5 -5h447c2.66699 0 4 1.66699 4 5v178z" />
    <glyph glyph-name="onethird" unicode="&#x2153;" horiz-adv-x="604" 
d="M131 270v342l-75 -52l-30 41l97 68h61v-399h-53zM183 0h-52l278 665h51zM516 307c0 13.333 -2.83398 25.3291 -8.50098 35.9961s-15.5 16 -29.5 16s-23.833 -5.5 -29.5 -16.5s-8.5 -23.5 -8.5 -37.5v-9h-52v7c0 32 7.5 57 22.5 75s37.5 27 67.5 27s52.5 -8.5 67.5 -25.5
s22.5 -38.833 22.5 -65.5v-21c0 -19.333 -3.83301 -36.166 -11.5 -50.499s-18.167 -24.166 -31.5 -29.499v-2c13.333 -5.33301 23.833 -15.333 31.5 -30s11.5 -31.667 11.5 -51v-37c0 -31.333 -7.5 -55.666 -22.5 -72.999s-37.5 -26 -67.5 -26s-52.5 8.5 -67.5 25.5
s-22.5 41.5 -22.5 73.5v13h52v-12c0 -13.333 2.83301 -25.666 8.5 -36.999s15.5 -17 29.5 -17s23.833 5.5 29.5 16.5s8.5 23.5 8.5 37.5v37c0 15.333 -3.16699 28.5 -9.5 39.5s-17.166 16.5 -32.499 16.5h-27v45h23c16.667 0 28.5 5.83301 35.5 17.5s10.5 24.5 10.5 38.5v19
z" />
    <glyph glyph-name="twothirds" unicode="&#x2154;" horiz-adv-x="604" 
d="M34 566l-0.000976562 9.00195c0 30.667 7 55 21 73s37.667 27 71 27c32 0 54.833 -7.83301 68.5 -23.5s20.5 -37.5 20.5 -65.5v-14c0 -19.333 -5 -40 -15 -62s-24 -47 -42 -75l-68 -119h125v-46h-177v52l63 111c20.667 32.667 36.334 59.167 47.001 79.5
s16 39.166 16 56.499v11c0 32.667 -12.667 49 -38 49c-15.333 0 -25.833 -4.83301 -31.5 -14.5s-8.5 -22.834 -8.5 -39.501v-9h-52zM195.999 0.00195312h-52l278 665h51zM515.999 307.002c0 13.333 -2.83398 25.3291 -8.50098 35.9961s-15.5 16 -29.5 16
s-23.833 -5.5 -29.5 -16.5s-8.5 -23.5 -8.5 -37.5v-9h-52v7c0 32 7.5 57 22.5 75s37.5 27 67.5 27s52.5 -8.5 67.5 -25.5s22.5 -38.833 22.5 -65.5v-21c0 -19.333 -3.83301 -36.166 -11.5 -50.499s-18.167 -24.166 -31.5 -29.499v-2
c13.333 -5.33301 23.833 -15.333 31.5 -30s11.5 -31.667 11.5 -51v-37c0 -31.333 -7.5 -55.666 -22.5 -72.999s-37.5 -26 -67.5 -26s-52.5 8.5 -67.5 25.5s-22.5 41.5 -22.5 73.5v13h52v-12c0 -13.333 2.83301 -25.666 8.5 -36.999s15.5 -17 29.5 -17s23.833 5.5 29.5 16.5
s8.5 23.5 8.5 37.5v37c0 15.333 -3.16699 28.5 -9.5 39.5s-17.166 16.5 -32.499 16.5h-27v45h23c16.667 0 28.5 5.83301 35.5 17.5s10.5 24.5 10.5 38.5v19z" />
    <glyph glyph-name="oneeighth" unicode="&#x215b;" horiz-adv-x="604" 
d="M131 270v342l-75 -52l-30 41l97 68h61v-399h-53zM184 0h-52l278 665h51zM392 315c0 28 7.5 49.9961 22.5 65.9961s37.167 24 66.5 24s51.5 -8.5 66.5 -25.5s22.5 -38.167 22.5 -63.5v-24c0 -19.333 -5.16699 -35.166 -15.5 -47.499s-23.5 -25.166 -39.5 -38.499
c15.333 -12.667 28.333 -26.667 39 -42s16 -34.666 16 -57.999v-22c0 -27.333 -7.33301 -49.166 -22 -65.499s-37 -24.5 -67 -24.5s-52.333 8.5 -67 25.5s-22 38.167 -22 63.5v24c0 23.333 5 42.5 15 57.5s22.667 28.833 38 41.5c-15.333 13.333 -28 26.5 -38 39.5
s-15 29.167 -15 48.5v21zM443 87.9961c0 -12.667 2.66699 -23.834 8 -33.501s15 -14.5 29 -14.5c14.667 0 24.667 4.83301 30 14.5s8 20.834 8 33.501v24c0 14 -3.33301 26.5 -10 37.5s-15.667 21.167 -27 30.5c-11.333 -9.33301 -20.5 -19 -27.5 -29s-10.5 -23 -10.5 -39
v-24zM443 292.996c0 -13.333 3 -24.5 9 -33.5s15.667 -18.833 29 -29.5c12.667 10.667 22 20.167 28 28.5s9 19.833 9 34.5v19c0 12 -2.66699 22.833 -8 32.5s-15.333 14.5 -30 14.5c-13.333 0 -22.833 -4.66699 -28.5 -14s-8.5 -20.333 -8.5 -33v-19z" />
    <glyph glyph-name="threeeighths" unicode="&#x215c;" horiz-adv-x="604" 
d="M159 577c0 13.333 -2.83398 25.3291 -8.50098 35.9961s-15.5 16 -29.5 16s-23.833 -5.5 -29.5 -16.5s-8.5 -23.5 -8.5 -37.5v-9h-52v7c0 32 7.5 57 22.5 75s37.5 27 67.5 27s52.5 -8.5 67.5 -25.5s22.5 -38.833 22.5 -65.5v-21c0 -19.333 -3.83301 -36.166 -11.5 -50.499
s-18.167 -24.166 -31.5 -29.499v-2c13.333 -5.33301 23.833 -15.333 31.5 -30s11.5 -31.667 11.5 -51v-37c0 -31.333 -7.5 -55.666 -22.5 -72.999s-37.5 -26 -67.5 -26s-52.5 8.5 -67.5 25.5s-22.5 41.5 -22.5 73.5v13h52v-12c0 -13.333 2.83301 -25.666 8.5 -36.999
s15.5 -17 29.5 -17s23.833 5.5 29.5 16.5s8.5 23.5 8.5 37.5v37c0 15.333 -3.16699 28.5 -9.5 39.5s-17.166 16.5 -32.499 16.5h-27v45h23c16.667 0 28.5 5.83301 35.5 17.5s10.5 24.5 10.5 38.5v19zM188.999 -0.00390625h-52l278 665h51zM391.999 314.996
c0 28 7.5 49.9961 22.5 65.9961s37.167 24 66.5 24s51.5 -8.5 66.5 -25.5s22.5 -38.167 22.5 -63.5v-24c0 -19.333 -5.16699 -35.166 -15.5 -47.499s-23.5 -25.166 -39.5 -38.499c15.333 -12.667 28.333 -26.667 39 -42s16 -34.666 16 -57.999v-22
c0 -27.333 -7.33301 -49.166 -22 -65.499s-37 -24.5 -67 -24.5s-52.333 8.5 -67 25.5s-22 38.167 -22 63.5v24c0 23.333 5 42.5 15 57.5s22.667 28.833 38 41.5c-15.333 13.333 -28 26.5 -38 39.5s-15 29.167 -15 48.5v21zM442.999 87.9922
c0 -12.667 2.66699 -23.834 8 -33.501s15 -14.5 29 -14.5c14.667 0 24.667 4.83301 30 14.5s8 20.834 8 33.501v24c0 14 -3.33301 26.5 -10 37.5s-15.667 21.167 -27 30.5c-11.333 -9.33301 -20.5 -19 -27.5 -29s-10.5 -23 -10.5 -39v-24zM442.999 292.992
c0 -13.333 3 -24.5 9 -33.5s15.667 -18.833 29 -29.5c12.667 10.667 22 20.167 28 28.5s9 19.833 9 34.5v19c0 12 -2.66699 22.833 -8 32.5s-15.333 14.5 -30 14.5c-13.333 0 -22.833 -4.66699 -28.5 -14s-8.5 -20.333 -8.5 -33v-19z" />
    <glyph glyph-name="fiveeighths" unicode="&#x215d;" horiz-adv-x="604" 
d="M34 669l175.001 0.000976562v-46h-125v-115c5.33301 9.33301 12.666 17.166 21.999 23.499s21 9.5 35 9.5c21.333 0 38.5 -8.16699 51.5 -24.5s19.5 -42.166 19.5 -77.499v-69c0 -32 -7.5 -57.667 -22.5 -77s-37.5 -29 -67.5 -29c-29.333 0 -51.333 8.83301 -66 26.5
s-22 41.5 -22 71.5v15h52v-13c0 -14 2.66699 -26.5 8 -37.5s15 -16.5 29 -16.5s23.833 5.5 29.5 16.5s8.5 23.5 8.5 37.5v80c0 13.333 -2.66699 25.166 -8 35.499s-14.333 15.5 -27 15.5c-11.333 0 -20 -3.83301 -26 -11.5s-10.333 -15.5 -13 -23.5h-53v209z
M189.001 0.000976562h-52l278 665h51zM392.001 315.001c0 28 7.5 49.9961 22.5 65.9961s37.167 24 66.5 24s51.5 -8.5 66.5 -25.5s22.5 -38.167 22.5 -63.5v-24c0 -19.333 -5.16699 -35.166 -15.5 -47.499s-23.5 -25.166 -39.5 -38.499
c15.333 -12.667 28.333 -26.667 39 -42s16 -34.666 16 -57.999v-22c0 -27.333 -7.33301 -49.166 -22 -65.499s-37 -24.5 -67 -24.5s-52.333 8.5 -67 25.5s-22 38.167 -22 63.5v24c0 23.333 5 42.5 15 57.5s22.667 28.833 38 41.5c-15.333 13.333 -28 26.5 -38 39.5
s-15 29.167 -15 48.5v21zM443.001 87.9971c0 -12.667 2.66699 -23.834 8 -33.501s15 -14.5 29 -14.5c14.667 0 24.667 4.83301 30 14.5s8 20.834 8 33.501v24c0 14 -3.33301 26.5 -10 37.5s-15.667 21.167 -27 30.5c-11.333 -9.33301 -20.5 -19 -27.5 -29
s-10.5 -23 -10.5 -39v-24zM443.001 292.997c0 -13.333 3 -24.5 9 -33.5s15.667 -18.833 29 -29.5c12.667 10.667 22 20.167 28 28.5s9 19.833 9 34.5v19c0 12 -2.66699 22.833 -8 32.5s-15.333 14.5 -30 14.5c-13.333 0 -22.833 -4.66699 -28.5 -14s-8.5 -20.333 -8.5 -33
v-19z" />
    <glyph glyph-name="seveneighths" unicode="&#x215e;" horiz-adv-x="604" 
d="M43 270l125 353h-141v46h192v-54l-122 -345h-54zM159 0h-52l278 665h51zM392 315c0 28 7.5 49.9961 22.5 65.9961s37.167 24 66.5 24s51.5 -8.5 66.5 -25.5s22.5 -38.167 22.5 -63.5v-24c0 -19.333 -5.16699 -35.166 -15.5 -47.499s-23.5 -25.166 -39.5 -38.499
c15.333 -12.667 28.333 -26.667 39 -42s16 -34.666 16 -57.999v-22c0 -27.333 -7.33301 -49.166 -22 -65.499s-37 -24.5 -67 -24.5s-52.333 8.5 -67 25.5s-22 38.167 -22 63.5v24c0 23.333 5 42.5 15 57.5s22.667 28.833 38 41.5c-15.333 13.333 -28 26.5 -38 39.5
s-15 29.167 -15 48.5v21zM443 87.9961c0 -12.667 2.66699 -23.834 8 -33.501s15 -14.5 29 -14.5c14.667 0 24.667 4.83301 30 14.5s8 20.834 8 33.501v24c0 14 -3.33301 26.5 -10 37.5s-15.667 21.167 -27 30.5c-11.333 -9.33301 -20.5 -19 -27.5 -29s-10.5 -23 -10.5 -39
v-24zM443 292.996c0 -13.333 3 -24.5 9 -33.5s15.667 -18.833 29 -29.5c12.667 10.667 22 20.167 28 28.5s9 19.833 9 34.5v19c0 12 -2.66699 22.833 -8 32.5s-15.333 14.5 -30 14.5c-13.333 0 -22.833 -4.66699 -28.5 -14s-8.5 -20.333 -8.5 -33v-19z" />
    <glyph glyph-name="partialdiff" unicode="&#x2202;" horiz-adv-x="335" 
d="M44 511l0.000976562 7.00098c0 46.667 10.333 84.5 31 113.5s50 43.5 88 43.5c24.667 0 45.167 -6.5 61.5 -19.5s29.5 -33 39.5 -60s17 -61.667 21 -104s6 -92.5 6 -150.5c0 -122.667 -10.167 -211.834 -30.5 -267.501s-52.833 -83.5 -97.5 -83.5
c-18 0 -34.167 3.5 -48.5 10.5s-26.833 18.667 -37.5 35s-18.834 38 -24.501 65s-8.5 60.167 -8.5 99.5c0 38.667 2.66699 71.5 8 98.5s13 48.833 23 65.5s21.833 28.834 35.5 36.501s28.834 11.5 45.501 11.5c19.333 0 35.5 -4.33301 48.5 -13s23.167 -20.667 30.5 -36
c-0.666992 48 -2.5 88.333 -5.5 121s-7.33301 59.167 -13 79.5s-12.834 34.833 -21.501 43.5s-19 13 -31 13s-22.167 -3 -30.5 -9s-15 -13.667 -20 -23s-8.5 -20.333 -10.5 -33s-3 -25.334 -3 -38.001v-6h-56zM166.001 45.001c16 0 28.332 7.33203 36.999 21.999
s15.167 34 19.5 58s7 51.167 8 81.5s1.5 61.5 1.5 93.5c-6.66699 20 -15.667 34.5 -27 43.5s-23.666 13.5 -36.999 13.5c-23.333 0 -39.833 -12.667 -49.5 -38s-14.5 -63.666 -14.5 -114.999c0 -52 4.5 -91.5 13.5 -118.5s25.167 -40.5 48.5 -40.5z" />
    <glyph glyph-name="Delta" unicode="&#x2206;" horiz-adv-x="300" 
d="M230 55l-80 506l-80 -506h160zM127 665h46l108 -600v-65h-262v65z" />
    <glyph glyph-name="product" unicode="&#x220f;" horiz-adv-x="421" 
d="M328 -80h-60v690h-115v-690h-60v690h-61v55h357v-55h-61v-690z" />
    <glyph glyph-name="summation" unicode="&#x2211;" horiz-adv-x="272" 
d="M248 -25v-55h-216v69l118 303l-118 304v69h216v-55h-159l113 -290v-56l-113 -289h159z" />
    <glyph glyph-name="minus" unicode="&#x2212;" horiz-adv-x="318" 
d="M36 330h246v-56h-246v56z" />
    <glyph glyph-name="uni2215" unicode="&#x2215;" horiz-adv-x="109" 
d="M-58 0h-52l278 665h51z" />
    <glyph glyph-name="radical" unicode="&#x221a;" 
d="M156 0l-80 282l-43 -14l-14 47l90 31l69 -267l76 586h52l-96 -665h-54z" />
    <glyph glyph-name="infinity" unicode="&#x221e;" horiz-adv-x="484" 
d="M242 301c-21.333 -24.667 -40.333 -41.667 -57 -51s-33.667 -14 -51 -14h-18c-12 0 -23.833 1.83301 -35.5 5.5s-22 9.33398 -31 17.001s-16.333 17.5 -22 29.5s-8.5 26.667 -8.5 44s2.83301 32 8.5 44s13 21.833 22 29.5s19.333 13.334 31 17.001s23.5 5.5 35.5 5.5h18
c17.333 0 34.333 -4.5 51 -13.5s35.667 -26.167 57 -51.5c21.333 25.333 40.333 42.5 57 51.5s33.667 13.5 51 13.5h18c12 0 23.833 -1.83301 35.5 -5.5s22 -9.33398 31 -17.001s16.333 -17.5 22 -29.5s8.5 -26.667 8.5 -44s-2.83301 -32 -8.5 -44s-13 -21.833 -22 -29.5
s-19.333 -13.334 -31 -17.001s-23.5 -5.5 -35.5 -5.5h-18c-17.333 0 -34.333 4.66699 -51 14s-35.667 26.333 -57 51zM126 276c8 0 15.167 0.833984 21.5 2.50098s12.833 4.5 19.5 8.5s13.5 9.66699 20.5 17s15.167 16.666 24.5 27.999c-18 23.333 -33.167 38.5 -45.5 45.5
s-25.833 10.5 -40.5 10.5h-12c-12 0 -23.167 -4.66699 -33.5 -14s-15.5 -23.333 -15.5 -42s5.16699 -32.667 15.5 -42s21.5 -14 33.5 -14h12zM370 275.001c12 0 23.167 4.83105 33.5 14.498s15.5 23.834 15.5 42.501s-5.16699 32.667 -15.5 42s-21.5 14 -33.5 14h-12
c-14.667 0 -28.167 -3.66699 -40.5 -11s-27.833 -22.333 -46.5 -45c18.667 -23.333 34 -38.666 46 -45.999s25.667 -11 41 -11h12z" />
    <glyph glyph-name="integral" unicode="&#x222b;" horiz-adv-x="248" 
d="M222 624c-25.333 0 -42.834 -10.5 -52.501 -31.5s-14.5 -45.833 -14.5 -74.5v-361c0 -54.667 -10.667 -96.167 -32 -124.5s-53.666 -42.5 -96.999 -42.5v51c12.667 0 23.5 3 32.5 9s16 13.833 21 23.5s8.66699 20.667 11 33s3.5 24.833 3.5 37.5v364
c0 54.667 10.167 96.167 30.5 124.5s52.833 42.5 97.5 42.5v-51z" />
    <glyph glyph-name="approxequal" unicode="&#x2248;" horiz-adv-x="318" 
d="M291 287c0 -41.333 -6.5 -70.332 -19.5 -86.999s-29.833 -25 -50.5 -25c-12 0 -22.5 2.16699 -31.5 6.5s-17.5 9.83301 -25.5 16.5l-26 20.5c-8 6.33301 -17.333 9.5 -28 9.5c-20.667 0 -31 -17.667 -31 -53h-52c0 40.667 7.33301 69.5 22 86.5s31.334 25.5 50.001 25.5
c11.333 0 21.166 -2.16699 29.499 -6.5s16.833 -9.83301 25.5 -16.5l25.5 -20.5c9 -7 18.833 -10.5 29.5 -10.5c10 0 17.5 4.16699 22.5 12.5s7.5 22.166 7.5 41.499h52zM291 423.001c0 -41.333 -6.5 -70.332 -19.5 -86.999s-29.833 -25 -50.5 -25
c-12 0 -22.5 2.16699 -31.5 6.5s-17.5 9.83301 -25.5 16.5l-26 20.5c-8 6.33301 -17.333 9.5 -28 9.5c-20.667 0 -31 -17.667 -31 -53h-52c0 40.667 7.33301 69.5 22 86.5s31.334 25.5 50.001 25.5c11.333 0 21.166 -2.16699 29.499 -6.5s16.833 -9.83301 25.5 -16.5
l25.5 -20.5c9 -7 18.833 -10.5 29.5 -10.5c10 0 17.5 4.16699 22.5 12.5s7.5 22.166 7.5 41.499h52z" />
    </font>
</defs>
</svg>
